<svg xmlns="http://www.w3.org/2000/svg" version="1.1" xmlns:xlink="http://www.w3.org/1999/xlink" width="512" height="512" x="0" y="0" viewBox="0 0 512 512" style="enable-background:new 0 0 512 512" xml:space="preserve" class="hovered-paths"><g><path fill="#c4544e" d="M156.2 414.4c-14.4-3.2-59.1-1.8-84.9-9.7-3.4-4.1-21-10.1-23.7-14.6-6.1-10.1-8.6-17.6-11.8-29-3.7-13.2-6.4-26.6-8.2-40.2-3.3-24.6-3.9-49.6-1.6-74.3 1.1-12 2.7-24 5.6-35.8 2.9-12 6.7-23.7 10.6-35.5 3.7-11.3 7.4-22.6 10.4-34.1 2.4-9.2 4.9-18.3 8.1-27.3C66.4 98 74.3 79.7 89 69.8c4.5-6.9 9.8-13.3 16.3-18.6 17.5-14.3 39.9-23.1 61.9-27.5 16.4-3.3 33.5-4.3 50.2-3.6 7.9.3 16.1 1 23.8 3.3 5.2 1.6 10.7 3.7 13.2 8.6 12.4-4.1 26.2-3.1 38.9-1.2 12 1.8 24.2 3.7 35.8 7.4 20.3 6.5 40 18.6 54.7 34 16.4 17.2 22.9 39.7 30.7 61.6 9 25.4 18.5 50.4 26.3 76.2 3.9 12.8 7.9 25.6 11.4 38.5 3.3 12.1 6.7 24.4 9.1 36.7 2.1 11 1.5 21.7-4.7 31.3-.8 1.2-1.6 2.4-2.5 3.5.3.3.5.7.7 1.1 2.9 7.4-7.3 11.1-12.5 12.5-.4.1-.8.2-1.3.4-1.8 1.7-3.5 3.5-4.8 5.4-.4.5 1.6 3.8 1.1 4.1-.7 2.6-3.6 2.4-4.3 5-1.9 7.9-5.7 13-12.2 17.9-4.3 3.3-13 13.1-20.5 17.4-.6.4-19.1-10.8-28-6.9-12 5.2-24.8 8.5-36.9 13.4s-24.3 8.8-37.2 10.7c-13.1 1.9-26.2 3.3-39.2 6.2-23.3 5.1-46.5 11.6-69.5 18.1-10.2-5.6-21.9-8.4-33.3-10.9z" opacity="1" data-original="#c4544e" class=""></path><g fill="#b23e3b"><path d="M144.5 411.6c-5.3-1.4-10.6-2.8-15.8-4.1-1.7-5.6-4.7-10.6-7.9-15.5-4.4.2-9.2-2.3-13.1-3.9-4.5-1.9-8.8-4.1-12.8-6.8-7.9-5.4-14.2-12.3-18.8-20.6-.8-1.4 1.2-2.5 2.1-1.3 5.7 7.6 13.2 13.6 21.7 17.8 1.3.7 2.7 1.3 4.1 1.9 3.4-.5 6.7-.1 10.1.9 3 .9 7.4 2.1 9.6 4.5.7.8.9 2 .5 3 .5 1.1.3 2.5-.4 3.4 1.5 1.6 2.8 3.2 4 5 .8-1.6 3.5-2.1 4.9-.8 1.2 1.1 2.1 2.5 3 3.9.1.1.2.1.3.2 1.4-1.4 3.5-.8 4.7.4 2.4-1.9 6.9.3 5.7 3.7-.7 2.4-1.3 5.3-1.9 8.3zM92.2 401.7c-3.6 0-7.3.2-10.9.5-.3-.8-.5-1.7-.8-2.5-2.1-7.2-4.5-14.4-5.6-21.8-.2-1.2.3-2.1 1-2.6-1-1.5-1.8-3-2.1-4.6-.2-.9 1-1.9 1.7-1 5.8 6.8 12.3 14.4 14.6 23.3.8 2.8 1.5 5.7 2.1 8.7zM71.8 294.3c.8.7 2.2.6 2.8-.4 1.8-3.5.3-7.1-.6-10.6-1.4-5-3-10-4.4-15.1-1.3-4.9-2.1-9.9-3.2-14.8-.9-4.4-1.7-9.5-4.2-13.3-1.1-1.6-3.5-.9-3.6 1-.3 4.1 1 8.4 1.8 12.4 1 4.9 1.7 9.9 2.9 14.7 1.1 4.6 2.6 9.1 3.9 13.6 1.2 4.1 1.4 9.7 4.6 12.5zM223.7 184.9c-2.1-5.9-.3-11.3-.8-17.2-.1-1.7-2.5-3.3-3.9-1.6-4.2 5.3-3.7 13-2.4 19.3 1.6 7.3 6.4 14.7 12.2 19.3 3.5 2.8 7.9-1.6 4.9-5-4-4.7-7.9-8.9-10-14.8zM159.7 130.5c-14.1 5-20 19.6-21.7 33.5-.9 7.5-.6 15.2 0 22.8.6 7.3 1 14.8 3 21.9.6 2.3 4 1.8 4.1-.6.3-6.5-1-12.9-1.6-19.4-.6-6.9-.9-13.9-.5-20.9.8-14.4 6.1-26.1 17.8-34.7 1.3-.9.6-3.2-1.1-2.6zM129 165.2c.1-.4.2-.7.3-1.1.3-1.5-1.6-2.2-2.4-1-.2.3-.3.5-.5.8-.6.1-1.2.5-1.5 1.2-7.2 17.2-13.6 40.2-6.5 58.3.3.9 1.3 1.3 2.1 1.2 1.5.8 3.8 0 3.7-2.1-.2-4.6-1.2-9.2-1.6-13.8-.4-4.9-.3-9.9.1-14.8.3-3.7.9-7.2 1.6-10.7 1.6-5.4 3.6-10.8 5-16.3.2-.6 0-1.2-.3-1.7zM105.1 186.1c-2.8 6.5-4 14.3-4.6 21.3-.4 3.9-.2 7.8.3 11.7.5 3.4.5 7.3 3.5 9.5.6.5 1.8.1 2.1-.6 1.3-2.8.1-5.3-.5-8.3-.7-3.7-.8-7.5-.6-11.2.3-7.2 3.1-14.3 3.2-21.5 0-1.8-2.7-2.7-3.4-.9zM349.8 176.1c-.1.3-.1.6-.1 1 1.3 7 4.4 13.3 6.8 19.9 1.4 3.7 2.5 7.6 3.1 11.5.4 2.9-.2 6.2 2.2 8.3.6.5 1.4.7 2.1.2 2-1.3 2.7-3.5 2.8-6.1 1.1-.1 2.2-.8 2.5-2.3 1.2-5-.8-10.6-2.6-15.3-2.2-5.9-5.2-11.5-8.6-16.9-3.1-5-6.5-9.9-10.4-14.3-3-3.5-6.3-9.2-11-10.7-.6-.2-1.5.4-1.4 1.1.5 4 4.1 8 6.4 11.2 3 4 5.6 8.2 8.2 12.4zM409.6 282.7c3.7-4.1 5.7-9.4 6.9-14.8.9-2 1.3-4 1-6 .3-2.1.5-4.2.6-6.3.1-3.4-1.1-7.9-.3-11.1.3-1-1.3-1.4-1.5-.4-.5 2.7-2.2 5-3.1 7.7-1.1 3.4-1.6 7-2.4 10.4-.1.3-.1.6-.2 1-.9 1.3-1.7 2.6-2.5 3.8-2.3 3.4-5.4 6.3-8.5 8.9-5.5 4.6-12.3 7.9-19.3 9.3-.4-.4-.8-.6-1.4-.5.4-5.3.8-12.1-1.9-16.3-1.3-2.1-4.6-1.7-5.3.7-.5 1.6-.4 3.2-.3 4.8-1.2-.2-2.3.8-2.4 2.1-.3 4.3.6 8.4-.2 12.7-.8 4.5-2.4 8.8-4 13.1-3.4 8.6-7.4 17-8.4 26.3-.3 3.1 3.3 4.1 5.5 3.1.5-.2 1-.5 1.5-.8-.2 2.3-.1 4.5.6 6.4.4.8 1.4 1.3 2.1.6 3.4-3.6 4.1-10.3 5.4-14.8 1.8-6 3.2-12.1 4.6-18.1.1-.3.1-.7.2-1 .7-1.1 1.4-2.2 2.2-3.3 3-3.9 6.3-6.1 11-7.6 7.6-2.4 14.7-3.8 20.1-9.9z" fill="#b23e3b" opacity="1" data-original="#b23e3b" class=""></path><path d="M438.9 200.5c-3.2-9.1-6.5-18.3-9.7-27.4-1.7-4.7-3.3-9.5-4.9-14.3-1.5-4.4-2.6-9-4.8-13-.9-1.6-3.3-.8-3.4.9-.1 8.4 3.4 17.3 5.7 25.2 2.6 8.8 5.6 17.4 8.5 26.1 5.9 17.4 11.6 34.9 15.5 52.8 3.1 14.4 4 28.8 4.5 43.4 0 1 .1 2 .1 3.1-.4 2.8-.9 5.6-1.4 8.3-.3 1.5-.7 3-1.1 4.6.2-3.8-.4-7.7-.8-10.9-1.1-8.2-3.6-15.8-6.5-23.5-.1-.2-.2-.3-.3-.5-.7-6.1-1.7-12.2-3.6-18.1-.4-1.3-2.2-.7-2 .5 2.3 11.5 1.9 23.4 3.1 35 .6 5.5 1.4 11 2 16.5 0 .4.1.9.1 1.4-1.6-11.3-6.1-22.5-10.1-33-.6-1.6-2.8-1-2.5.7 1.6 9.2 3 18.5 4.4 27.7 1.3 8.6 1.7 16.8-.8 25.2-1.9 6.4-5.6 12.2-9.8 17.4-4.6 5.6-6 8.6-6.1 7.9-.4-4-2.2 14.6 1.6 12.2 6.1-3.9 6.7-4.4 11.4-9.8 5-5.9 7.7-17.2 10.1-24.5l.6-1.8c.7 1 2.1 1.5 3.6.9 1.4-.6 2.6-1.7 3.7-3.1 1 .4 2.1.5 3.2-.1 3.9-1.9 6.2-5.8 7.5-10.4 1.7-2 2.8-5 3.6-7 1.7-4.3 2.3-9.2 2.5-13.8.3-8.7-.8-19.8-5.3-27.4-.1-.2-.3-.5-.5-.6-.5-5-1.2-10.1-2.1-15-3.2-19-9.6-37.4-16-55.6zM402.9 309.5c1.1 7.5 1.3 15.1.7 22.7-.3 3.8-.8 7.6-1.2 11.4-.4 3.9-1.1 7.7.3 11.5.5 1.3 2.4 1.8 3.1.4 1.7-3.3 1.8-6.8 2.2-10.4.4-4.3 1-8.5 1.3-12.8.6-8.2.7-16.6-3.4-24-1-1.7-3.3-.4-3 1.2zM341.6 94.3c6.4 8.1 11.2 16.5 16.1 25.6 2.4 4.6 5.8 8.6 8.6 13 2.7 4.4 4.9 9.1 6.6 14s2.6 10 3.3 15.1c.6 4.8-.3 9.8.9 14.5.5 1.8 2.7 1.5 3.3 0 1.7-4.4 1.1-9.8.8-14.5s-1-9.2-2.3-13.7c-2.4-9-6.9-18-12.9-25.1-6.7-7.9-10.8-17.4-17-25.7-5.9-7.7-12.2-14.5-16.5-23.4-.4-.7-1-.8-1.6-.6-.6.1-1.1.5-1 1.3.3 3.1 2.4 6.2 4 8.8 2.2 3.9 5 7.3 7.7 10.7zM382.2 142.4c1.5 3 2.7 6 3.7 9.2.7 2.4.7 5.2 2.1 7.2.6.8 1.9 1 2.4 0 2.2-4.3-1.3-10.8-3.2-14.8-2.8-6.2-6.7-11.8-10.7-17.3-.9-1.3-2.9-.2-2.1 1.3 2.7 4.7 5.4 9.5 7.8 14.4zM110.4 138.9c1.4-3.1 1.8-6.5 3.3-9.7 1.6-3.7 3.8-7.1 6-10.4 2.3-3.5 4.9-6.9 7.5-10.3 1.4-1.9 3.7-4.1 3.2-6.5-.1-.4-.5-.7-.9-.7-2.8.3-4.5 3.8-6 5.8-2.7 3.6-5.3 7.1-7.7 10.8-3.4 5.1-9.5 14.1-7.4 20.6.2 1 1.6 1.4 2 .4zM109.1 124.6c3.7-6.8 10.2-11.6 13.7-18.4.3-.6-.4-1-.9-.6-5.7 4.8-11 11.6-14.3 18.2-.4 1 1 1.8 1.5.8zM210.8 98.5c-.8 10.9-3.5 21.4-3.3 32.3.1 5.7.8 11.5 1.3 17.2.5 5.3.2 10.9 1.8 16 .3 1 1.6.9 1.9 0 1.5-4.7.7-9.6.3-14.4-.5-5.7-1.1-11.4-1.4-17.2-.7-11.4 2.2-22.5 1.8-33.9 0-1.5-2.2-1.5-2.4 0zM203.2 119.7c0-1.1-1.7-1.3-1.9-.2-1.2 7.3-2.9 16.3.9 23.1.6 1 2.1.5 2.1-.6 0-3.5-.8-6.8-1-10.3-.2-4-.2-8.1-.1-12zM78.9 136.8c1.8-2.4 2.5-5.8 3.7-8.5 1.5-3.3 3.5-6.1 5.8-8.9.5-.6-.1-1.5-.9-1.1-3.1 1.6-4.9 5.1-6.4 8.1s-3.4 6.7-3.4 10.1c.1.7.8.8 1.2.3z" fill="#b23e3b" opacity="1" data-original="#b23e3b" class=""></path></g><g fill="#e08c6e"><path d="M71.7 149.7C62.2 159.9 59 177 58.1 190.5c-1 15.3 1.3 30.6 2.3 45.8.3 4.3 6.9 4.3 6.6 0-1-14.5-3-29-3-43.5 0-7 .5-13.9 2.1-20.7 1.7-7.4 5.2-14.2 7.1-21.5.2-.9-.9-1.6-1.5-.9zM109.4 184.9c-.4.7-.6 1.5-.8 2.2-.5 0-.9.4-1 1v6.9c-.3 3.4-.7 6.8-.8 10.2-.3 7.5.5 15 4 21.7 1.4 2.6 5.4.2 3.9-2.3-.9-1.6-1.6-3.3-2.2-5.1-.6-3.4-1-6.9-1.2-10.4-.2-2.2-.3-4.4-.4-6.6.1-2.7.3-5.5.5-8.2.2-3 .9-6.2-.1-9.1-.3-.9-1.5-1.2-1.9-.3zM130.4 163.7c-.4-1.3-2.6-1.1-2.4.3 1 8 3 15.7 5.1 23.4 2.1 7.8 3.5 16.4 6.3 23.9.8 2.2 4.7 2.1 4.4-.6-.9-7.7-4.1-15.5-6.3-22.9-2.5-8-4.8-16-7.1-24.1zM229.3 200.8c-3.3-1.1-7.3-.8-10.8-1.1-3.6-.3-7.1-.6-10.7-1.4-7.3-1.6-13.8-5.1-19.2-10.2-7.2-6.7-12.2-15.9-16-24.9-4.1-9.8-7.2-20.6-10-30.8-.3-1.2-2.2-1-2.1.3.5 5.4.8 10.6 1.6 16 .8 6 3 12 5.2 17.6 3.7 9.8 9.2 19.3 16.7 26.6 5.9 5.7 13.3 9.5 21.2 11.6 7.2 1.9 17.8 3.6 24.8.4 1.8-.9.9-3.6-.7-4.1zM248.3 188.8c-3.2-1.7-6.2-3.9-9.1-6.2s-5.5-4.8-8.1-7.3c-1.9-1.9-3.9-4.7-6.4-6-.7-.3-1.5.1-1.5.9 0 2.6 2.3 5.1 3.8 7.1 2.6 3.3 5.7 6 8.9 8.7 3.1 2.6 6.4 5 10 7.1 2.4 1.3 5.3 3 8 1.6.7-.3 1-1.4.5-2.1-1.5-2-4-2.7-6.1-3.8zM308 216.1c-4.1-3-7.7-6.6-11.3-10.1-7.3-7.3-13.2-15.8-18.4-24.7-5.2-9-9.4-18.6-13.1-28.3-3.5-9-5.6-18.9-10.3-27.5-.7-1.2-2.7-.7-2.7.7.5 10 4.4 20.1 7.8 29.4 3.5 9.9 7.9 19.5 13.1 28.7 5.1 9.1 11.3 17.5 18.6 25 3.6 3.7 7.6 6.8 11.7 9.8 4.3 3.1 9.3 7 14.6 8 1.7.3 3.2-1.8 1.8-3.1-3.5-3.1-8-5.1-11.8-7.9z" fill="#e08c6e" opacity="1" data-original="#e08c6e" class="hovered-path"></path><path d="M331.4 222.1c-4.2-5.8-8.3-11.6-12.7-17.2-4.2-5.3-8.5-11.3-14.1-15.2-1.3-.9-2.6.8-2 2 2.8 5.6 7 10.5 10.4 15.7 3.5 5.3 7 10.5 10.7 15.7 7.3 10.4 15.1 20.3 21.3 31.4.2.4.4.8.7 1.2-.3.2-.6.5-.6.9-.4 6.1 2.5 12.5 4.4 18.2 1.1 3.3 2.2 6.7 3.1 10.1.9 3.2 1.1 6.6 3.1 9.2.2.2.3.3.5.4 0 1.4.1 2.9.1 4.3 0 2.4-.4 4.8.1 7-1.1 3.9-2.8 7.5-3.6 11.4-.3 1.3 1.1 2.6 2.4 1.8 8.6-5.4 10.4-17.4 9.9-26.7-.8-12.9-5.1-25.1-10.8-36.5-6.2-12.2-14.8-22.7-22.9-33.7zM435.4 284.4c-.6-.7-1.9-.1-1.8.8.4 3.8 2.1 7.6 3.5 11.2 1.6 4.2 2.9 8.4 4 12.7 1.1 4.4 1.7 8.9 1.6 13.4-.1 4.6-2.4 8.3-3 12.7-.3 2.1 2 3.7 3.6 2.1 6-5.9 4.6-18.5 3.2-25.9-1-5.2-2.8-10.1-4.8-15-1.7-4.2-3.4-8.7-6.3-12zM411.2 121.5c-3.2-7.1-6.8-14.1-10.8-20.8l-2.7-4.5c-.1-1-.3-2-.8-3.3-1-2.3-3.6-4.4-5.4-6.1-.1-.1-.2-.1-.2-.2-1.1-1.5-2.3-2.9-3.5-4.3-5.2-5.8-11.1-10.8-17-15.8-3.8-3.2-7.5-6.4-11.4-9.6-1.1-1.1-2.2-2.2-3.4-3.2-.5-.4-1-.7-1.6-.8-5.8-4.5-11.8-8.6-18.3-11.7s-13.4-5.7-20.3-7.9c-6.4-2-14.2-4.4-21-3.7-1.1.1-1.3 1.5-.2 1.8 6.2 2.2 12.5 3.8 18.6 6.2 6.8 2.7 13.4 5.6 20 8.8 6.2 5 16.3 11.9 11.2 20.1-3.8 6.2-13.8 8.5-20.2 10.6-11.8 3.9-23.3 7.8-35.5 10.2-6.8 1.3-13.7 2.4-20.6 3.1-5.7.6-12.3.4-17.7 2.4-.5.2-.6 1 0 1.2.3.1.6.1.9.2 3.6 3.8 9.4 5.4 14.3 6.5 6.3 1.3 12.8 1.7 19.2 1.8 14.1.2 28.3-1.5 42.2-4.1 6.7-1.3 12.7-3.8 18.9-6.7 6.4-3 13.1-6.7 20.3-6.9 5.9-.2 11.7 1.5 17.1 3.8 1 .4 1.9.9 2.8 1.5 3.5 4.1 6.8 8.5 9.8 13.2 3.9 6.2 7.3 12.7 10.5 19.3 3 6.4 5.5 13 8.4 19.5.8 1.8 3 .4 2.8-1.2-1.2-6.3-3.7-13.3-6.4-19.4zM51.1 171.9c-2.5 12.6-5.8 24.9-9.1 37.3-3.4 12.7-6.3 25.2-6.9 38.4-.3 6.2-.4 12.4-1.6 18.5-.6 3.1-1.3 6.1-2 9.1-.8 29.3 1.2 59.7 11.1 87.2 5.2 14.3 12.7 29.7 31.4 41.7.7.5-28.4-4.4-36.2-37.5-.6-2.7-1.8-5.1-2.6-7.7-.1-.1-.3-.2-.3-.5-5.4-16.5-8.9-34-11.1-51.2-1-7.7-.9-15.4.1-23.1 1.1-8.3 3.5-16.4 3.9-24.7.4-8.8.1-17.5 1.5-26.2s3.5-17.3 5.8-25.9c2.2-8.4 4.7-16.8 6.5-25.3 1.9-8.6 3.3-17.2 5.3-25.7 2.6-11.2 6.2-22 11.3-32.3 2.6-5.1 5.4-10.1 8.2-15.1-.6-.8-.7-1.9.2-2.7.9-.9 1.9-1.7 2.9-2.6l3.3-5.7c-1.7-4.5 2.1-11.2 4.1-15.1 2.9-5.6 6.2-11.1 10.1-16 3.8-4.8 8.4-9.3 13.1-13.3 5-4.3 10.3-8 16.9-8.9 2.8-2.4 5.7-4.6 8.7-6.9 8-6 16-10.6 25.5-13.9 5.4-1.9 15.7-6.3 20.5-1.1 3.9-1.2 7.9-2.3 11.9-2.9 12.1-1.9 24.1-1.5 36.2.1 6.3.9 12.6 2.2 18.8 3.5 5.3 1.1 10.4 2.4 14.8 5.6 3 2.2.3 7.4-2.9 5.2-6-4.1-13.7-4.7-20.8-5.8-7.5-1.2-15.2-2.1-22.8-2.4s-15.3-.2-22.8 1.3c-7.2 1.4-14.1 3.9-20.9 6.6-13 5.1-25.5 11.1-37 18.4-1.5 1.7-2.7 3.7-3.6 5.7-.1.2-.1.3-.2.5.1 1.2.3 2.3.6 3.5 2 7.2 6.6 13.7 12.5 18.3 7.9 6.2 18.2 9.7 27.9 11.9 5.8 1.3 11.5 2.6 17.4 3 2.9.2 5.7.4 8.6.3 2.1 0 4.1-.3 6.1.4 1.3.5 1.7 2.3.4 3.1-.6.3-1.2.6-1.9.9-9.8 4.2-20.7 4.8-31.3 4.1-5.7-.3-11.3-.9-16.9-1.5-5.3-.6-10.8-.8-16-2-3-.7-6-1.6-9-2.5-.9.2-1.8.2-2.6-.2s-1.6-.8-2.3-1.3c-3.1-.9-6.2-1.6-9.4-1.9-.3 0-.5.1-.8 0-.4 0-.9-.1-1.3-.2-2.4-.1-4.7.1-7.1.6-5.5 1.3-10.3 3.9-15 7-1.6 1.1-3.2 2.2-4.7 3.2-.3.5-.5.9-.8 1.4-5.5 10.2-12.1 19.7-16.3 30.6-4.5 11.2-7.1 22.9-9.4 34.7z" fill="#e08c6e" opacity="1" data-original="#e08c6e" class="hovered-path"></path></g><g fill="#fff6f1"><path d="M340.9 251.2c-5-13-15.1-20.7-27.1-26.8-5.9-3-11.7-6-17.2-9.6-5.4-3.4-9.6-8.1-14.4-12.2.3-1.8-1-3.9-2.7-4.5-3.3-1.1-8-.3-11.5-.6-5-.4-10-1.3-14.8-2.6-5-1.3-9.8-3-14.3-5.6-2-1.2-3.8-2.6-5.5-4.2l-.3-.3c-1-1.7-2.2-3.2-3.8-4.2-.2-.1-.3-.3-.5-.4s-.4-.2-.6-.2c-.4-.2-.8-.4-1.3-.5-1.2-.4-2.1.8-1.9 1.9 1 4.8 3.7 9.8 5.8 14.2 1.2 2.5 2.8 4.8 4.8 6.7-2.5.6-5.1 1.4-7.4 1.9-5.6 1.1-11.3 1.5-17 1.6-9 .1-17.4-1.8-25.8-4.6-.4-.4-.9-.8-1.3-1.3-3.3-3.5-6.1-7.5-8.8-11.5-3-4.3-6.7-8.2-9.9-12.4-7.4-9.7-6.6-22-7.1-33.6 0-.4-.2-.7-.4-.9 0-.5 0-1.1-.1-1.6-.2-1.1-1.6-1.2-2.4-.6-4.1 3.7-6 10.9-7.9 15.9-2.7 7.1-4 14.2-4.5 21.7-.6 8.2-.1 16.4 1.1 24.5.6 4.1 1.3 8.2 2.1 12.3.4 2 .7 4.2 1.3 6.4-5.7-3.6-9.6-10.2-12.5-16.1-2.3-4.7-4.1-9.7-5.3-14.7-.9-3.7-.8-8.5-2.6-11.8-.4-.7-1.4-.8-1.9-.2-2.9 3.1-2.1 8.8-1.5 12.9-2.1 10.9-.2 22.6.8 33.7-1.9.2-3.9.9-5.3 1.3-2.8.7-5.6 1.2-8.2 2.2-.4-.2-.9-.3-1.4-.3-7.1.5-13.7 3.2-20.3 5.8-7 2.7-14.4 5.3-21.9 6.5-1.3.2-1.6 2.4-.4 3l.9.3c-1.1 3.6-.4 8.5-.4 11.9-.1 5.2.3 10.2 1.5 15.3.5 2.3 1.5 4.6 2.6 6.9-.4 4 .3 7.7 1.5 11.7.8 2.7 1.5 5.4 2.1 8.1.1.6.2 1.2.3 1.7-5.9 6-8.1 15.3-9.5 23.3-1.7 9.8-1.8 21.7 3.3 30.6 6.1 10.7 18.7 16 29.7 19.9 5.2 1.8 10.3 2.9 15.7 3.6 2.9.4 5.8.7 8.8 1.1l-.6 1.2c15 .5 30.1 2 45 4.5 9.9-2.2 19.8-4.7 29.8-6.6 7.3-1.4 14.8-2.2 22.2-3 1.6-.2 3.1-.3 4.7-.5.5-.1.9-.1 1.1-.1h.2c2.6-.4 5.2-.9 7.8-1.4 11.8-2.6 23-6.8 34.1-11.5.5-.2.8-.3 1-.4 0 0 .1 0 .1-.1 1.4-.6 2.9-1.2 4.3-1.8 2.5-1.1 4.9-2.1 7.4-3.2.6-.3 5.5-2.3 1.3-.5l19.2-8.1c3-1.2 5.9-2.4 8.9-3.7.3-.1 2.3-1 2.9-1.2 1-.4 1.9-.8 2.9-1.3 5.1-2.2 10.2-4.5 15.1-7.2 4.2-2.3 8.3-4.7 12.6-7l.9-.6h.2c1.8-1 3.7-1.9 5.6-2.8 4.6-6.2 2.6-20.8 1.3-26-1.7-6.8-4.1-13.4-5.2-20.4-1.4-8-2.4-16.2-5.4-23.9zM406.8 192.1c-9.3-4.9-19.4-3.4-28.5 1.2-3.6 1.8-12.3 9.4-15.8 16.2-1 .3-1.9 1.1-1.9 2.4.1 5.8.9 11.4 1.8 17.2 1.1 6.3 1.7 12.5 2 18.9.4 9.5.1 21.6 7 29.1 5.1 5.5 13.7 4.5 20 2.3 8.3-2.9 15.8-8.1 21.4-14.7 6-7.1 9.2-15.9 9.6-25.2.4-8.9.4-18.3-1.3-27.1-1.6-8.7-6.4-16.1-14.3-20.3z" fill="#fff6f1" opacity="1" data-original="#fff6f1"></path></g><path fill="#f9a5b4" d="M317.4 325.8c-15.7 7.7-35.1 4.7-41.2-7.7s2-28.1 19.3-37.2c15.4-8.2 35.1-9.4 43.9 7.1 9 17-6.3 30.1-22 37.8zM97.8 327.6c-14.2-2.5-29.7 1.8-31.6 18.2 0 .4-.1.8-.1 1.2 3 8.7 9.4 16 16.6 21.7 3.7 1.3 7.6 2.2 11.4 2.8 14.3 2 28.3-5.9 29.3-18s-9.7-23-25.6-25.9z" opacity="1" data-original="#f9a5b4"></path><g fill="#f34d65"><path d="M297.8 304.9c-.9 0-1.8.8-1.7 1.7v1.6c0 .7-.3 1.3-.3 2 0 .8.6 1.6 1.3 1.8 1.1.3 1.9-.3 2.3-1.3.5-1.3.6-3.3.1-4.6-.3-.7-.8-1.2-1.7-1.2zM304.8 304.1c.1.7.2 1.3.2 2 0 .8-.1 1.7.6 2.3.4.4 1 .4 1.5.2 1.9-.9.8-3.8.3-5.2-.6-1.5-2.8-1-2.6.7zM318.1 298.9c-.6-1.5-3.1-.7-3 .8 0 .7 0 1.4-.1 2-.2 1-.4 2.2.5 3 .4.3.9.5 1.4.4 1.2-.4 1.6-1.6 1.8-2.8 0-1.3-.1-2.3-.6-3.4z" fill="#f34d65" opacity="1" data-original="#f34d65"></path></g><g fill="#f34d65"><path d="M103 348.5c.7-.3 1.6.1 1.8.9.1.5.3.9.5 1.4.2.6.6 1 .8 1.6.3.7 0 1.5-.5 1.9-.7.5-1.6.2-2.1-.4-.8-1-1.4-2.6-1.4-3.8 0-.7.2-1.3.9-1.6zM97.4 349.8c.1.6.2 1.2.5 1.7.3.7.5 1.4.2 2.1-.2.5-.6.6-1.1.6-1.7-.2-1.7-2.9-1.7-4.2-.1-1.5 1.8-1.6 2.1-.2zM85.7 349.1c0-1.4 2.2-1.5 2.6-.2.2.6.4 1.1.7 1.7.4.8.9 1.8.5 2.6-.2.4-.5.7-.9.7-1.1 0-1.7-.9-2.2-1.9-.6-.9-.8-1.8-.7-2.9z" fill="#f34d65" opacity="1" data-original="#f34d65"></path></g><g fill="#f2f5fe"><path d="M320.4 288.3h-.2c.5.1.5.1.2 0z" fill="#f2f5fe" opacity="1" data-original="#f2f5fe"></path><path d="M318.9 280.4c-1.5-.3-3.1.4-3.5 2-.4 1.5.5 3 2 3.5.1 0 .1.1.2.1 0 0 .1 0 .1.1s.8 1.1.8 1.1c.3.3.4.5.8.8.1 0 .8.2 1.2.4.6.1 1.2 0 1.7-.3.1-.1.2-.1.3-.2.9-.8 1.2-1.8 1.1-3-.5-2.3-2.6-4.2-4.7-4.5zm-1.2 5.7c.2.1.1.1 0 0z" fill="#f2f5fe" opacity="1" data-original="#f2f5fe"></path></g><g fill="#f2f5fe"><path d="M80.8 340.9c.1 0 .1-.1.2-.1-.4.3-.4.2-.2.1zM77.4 338.7c.2 1.1.7 1.8 1.7 2.2.1 0 .2.1.2.1.5.1.9.1 1.4-.2.3-.2.7-.6.8-.6.3-.3.3-.5.4-.9 0 .1.3-1.1.3-1.1v-.1l.1-.1c1-.8 1.2-2.3.5-3.5-.8-1.2-2.2-1.3-3.3-.7-1.4.9-2.4 3.1-2.1 4.9zm4.9-.4c-.1.2-.1.2 0 0z" fill="#f2f5fe" opacity="1" data-original="#f2f5fe"></path></g><g fill="#fdb8a9"><path d="M148.1 216.7c.1-2 .3-3.9.5-5.8.4 3.4 1.2 6.6 3 9.1.9 1.3 3 .9 3-.8 0-2.7-.9-5.2-1.4-7.8-.8-3.8-1.4-7.6-1.6-11.4-.2-3.1-.1-6.2 0-9.4.6-3.3 1.2-6.6 1.9-9.9.7-3.5 1.2-6.9 1.7-10.4 2.3 13.3 6.1 28.2 18 35.4 5.3 3.2 11.8 4.2 17.9 4.5 5.4.3 13 .3 17.7-2.9.6-.4.3-1.2-.3-1.2-5.3-.4-10.8 1.3-16.2 1.3-6.1 0-12.3-1.1-17.7-4-6.7-3.6-10.5-11.1-13.2-17.8-2.4-5.8-4.2-12.1-5.7-18.3.2-1.7.5-3.3.7-5 .4-2.8.9-5.6 1.5-8.4.6-3 2-5.9 1.8-9-.2-2.3-3.1-4-4.9-2-1.3 1.4-2.2 3.2-2.8 5.1-4.6 6.7-5.8 15.4-6.6 23.4-.5 5.1-.7 10.3-1 15.4-.2 4.2-1.6 9.4-.2 13.5.1.4.4.7.6.9-.1 5.3.6 10.5 1.5 15.8.1 1.1 1.8.8 1.8-.3zM107.6 236.3c5.9 1.3 13.3-2.7 18.3-4.6 1.5-.5 2.2-1.9 2.2-3.1.3 0 .6-.1 1-.3.9-.5 1.1-1.4.9-2.3-.4-3-1.3-6-2.7-8.7l-.1-.1c-.1-2.4-.2-4.9 0-7.3.3-4.7 1.2-9.4 2.2-14 .5-2.2 6.2-21.3-.4-19.3-3.5 1-3.5 5.4-4.1 8.4-.9 4.4-1.9 8.8-2.7 13.3-1.3 7.9-2.8 18.4 2 25.4.3.5.8.7 1.3.7.1.4.1.8.2 1.3-.2 0-.5-.1-.8-.1-4.7 0-9.3 1-13.9 1.6-.7.1-1.3.4-1.7.7h-.2c-.6-.5-1.4-.7-2.4-.4-4.3 1.6-8.5 3-12.9 4.2-4 1.1-8.4 2.1-11.5 4.9-5.3.9-10.8 1.9-14.9 5.1-1.1.8-1.3 3.1.5 3.4 7.3 1 15.4-1.4 22.5-2.8 4.9-1.3 12.3-2.8 17.2-6zM401.4 218.6c-2.3-3.4-6.5-3.4-9.6-1.1-1.4 1-1.3 2.7-.2 3.5 0 .1 0 .3-.1.4-3.8 1.7-7.1 6.5-8.4 9.4-2.7 6.1-3.9 14-.7 20.1.8 1.5 2.6 2.1 4.2 1.7 9.8-2.3 15.1-13.6 16.4-22.6.5-3.8.6-8.1-1.6-11.4zM364.7 217c-.7-1.1-2.4-.6-2.4.7-.4 8.7 3.4 17.7 5.6 26.2-.5 5.2-.4 10.5-.4 15.7 0 3.8-.5 9.5 1.4 13l-.3 2.7c-.2 3.4 4.6 4.3 6.2 1.6 5.1-8.3 2.8-21.2.9-30.2-1.2-5.3-2.9-10.6-4.8-15.7-1.7-4.8-3.3-9.7-6.2-14zM349.8 280.5c-.5-7.3-4.2-15.4-8.1-21.4-4-6.2-10-10.8-16.1-14.7-4.2-2.7-8.7-5-13-7.6-5.2-3.2-10-6.9-14.6-10.9-8.6-7.3-16-15.7-24.1-23.5 2.3-.4 4.5-1 6.7-1.6 2-.6 1.2-3.7-.9-3.1-14.1 4-30 3.1-42.2-5.2-.5-1.8-1.1-3.7-1.6-5.4-1-3.8-2.1-10.9-6.7-11.8-1-.2-2.2.1-2.7 1.1-1.9 3.8 1.4 8.7 2.5 12.5 1.4 4.7 2.1 10.5 5.6 14.2 1.6 1.6 3.8.2 4-1.7.2-1.7 0-3.6-.3-5.4 9.7 6.6 22.3 8.4 34 6.6 13.4 16.4 28.6 30.5 46.9 41.2 7.1 4.1 13.5 8.9 18.5 15.5 2.5 3.3 4.3 7 5.9 10.7.9 2.2 1.6 4.4 2.3 6.7 0 .1-.1.2-.1.3-.1 7.7 1 14.6-1.3 22.1-1 3.2-2.6 6.3-4.4 9.2-1.6 1.5-3.2 2.9-4.8 4.2-6.4 5-13.3 9.2-20.3 13.2-14.8 8.4-30.2 16.3-45.7 23.2-8.3 3.7-16.7 6.9-25.3 9.7-4.9 1.4-9.8 3-14.6 4.5-5.6 1.6-11.3 3.1-16.9 4.6-4.7 1.2-9.3 2.4-13.9 3.6-6.4 1.4-12.8 2.6-19.2 3.7-12.8 2.2-25.6 3.4-38.6 3-4.8-.1-9.4-.6-14.2-1-3.1-.3-6.9-.6-9.7.9-.1 0-.1.1-.2.1 17.1.3 34.3 1.9 51.2 4.6 9.9-2.2 19.8-4.7 29.8-6.6 7.3-1.4 14.8-2.2 22.2-3 1.6-.2 3.1-.3 4.7-.5.5-.1.9-.1 1.1-.1h.2c2.6-.4 5.2-.9 7.8-1.4 4.3-.9 8.5-2.1 12.6-3.4-5.1.9-10.2 1.7-15.2 2.5 14.3-4 28.4-8.8 42.1-14.7 2.9-1.2 5.8-2.5 8.6-3.8.5.6 1.1 1.1 1.9 1.2 5.8-2.5 11.6-4.9 17.4-7.3 3-1.2 5.9-2.4 8.9-3.7.3-.1 2.3-1 2.9-1.2 1-.4 1.9-.8 2.9-1.3 5.1-2.2 10.2-4.5 15.1-7.2 5.8-3.2 11.7-6.7 17.7-9.7.1-.2.1-.3.2-.5l.1-.3c5.9-5 9.9-11.2 4.3-18.4.2-.6.3-1.1.4-1.7.3-1.5-1.1-2.6-2.5-1.9-.4.2-.9.5-1.3.8 1.9-6.5 2.2-13.3 0-19.9zM144.5 306.3c-2-.2-4.4.2-6.1 1.4-1.6-.1-3.3 1.8-2.3 3.5 2.5 4.1 7.6 3.1 10.3-.2 1.5-2.1.7-4.3-1.9-4.7z" fill="#fdb8a9" opacity="1" data-original="#fdb8a9"></path></g><path fill="#f7d581" d="M434.6 506c1.8-1.2 3.4-2.6 5-3.9 12.6-10.5 23.3-24.6 30.3-39.4 2.2-4.7 4.6-10.7 5.6-16.8.5-.4 1-1.1 1.2-1.9 2.6-11.2-5.7-22.8-12-31.2-7.7-10.2-16.6-19.3-25.7-28.2-1.9-2-3.9-3.9-5.9-5.8-9.2-9.1-17.9-19.1-28.1-26.9-13.6-10.3-31.2-20.1-48.7-20.9.8-2.5-.1-5.6-3.4-5.2-7.3.8-13.8 4-20 8-3.6 2.3-7.2 4.6-10.7 7.1-2.3.9-4.7 1.8-6.9 2.8-12.6 5.2-25.5 9.8-38.4 14.1-20.4 6.8-41.4 13.7-62.5 17.8-13.6 2.6-27.4 4.7-41.1 6.7-6.7.9-13.3 1.8-20 2.4-2.2.2-4.5.4-6.7.5h-2.9c-.8-.6-2.1-.5-2.9.2-.6-2.9-5.5-4.4-7-1.2-2.6 5.4-5.4 10.8-8.2 16.1-5.2 8.5-11.3 16.5-16.5 24.9-1.7 2.7-2.9 5.7-4.6 8.4-1.8 2.9-3.8 5.8-5.5 8.7-2.8 4.8-5.2 10.7-2.7 16.1.2.5.6.8 1 .9-4.4 12.9-7.1 26.5-5.5 40 0 .1 0 .2.1.3-.6 1.8-1.2 3.6-2 5.3-.4.3-.7.7-.9 1.1z" opacity="1" data-original="#f7d581"></path><circle cx="454" cy="419.9" r="16.9" fill="#fceed0" opacity="1" data-original="#fceed0"></circle><g fill="#fceed0"><path d="M435 373.5c-2.1-1.9-4-3.9-6-5.9-2.9-3-5.9-6.1-9-9-1.9-1.1-3.8-2.2-5.7-3.4-1.1-.7-2.2-1.4-3.2-2.2-1.7 2.7-2.8 5.8-2.8 9.2 0 9.3 7.5 16.9 16.9 16.9 4.3 0 8.3-1.6 11.3-4.3-.5-.4-1-.8-1.5-1.3z" fill="#fceed0" opacity="1" data-original="#fceed0"></path><circle cx="367.7" cy="362.3" r="16.9" fill="#fceed0" opacity="1" data-original="#fceed0"></circle></g><g fill="#fceed0"><circle cx="367.7" cy="477.4" r="16.9" fill="#fceed0" opacity="1" data-original="#fceed0"></circle><circle cx="454" cy="419.9" r="16.9" fill="#fceed0" opacity="1" data-original="#fceed0"></circle><circle cx="396.5" cy="419.9" r="16.9" fill="#fceed0" opacity="1" data-original="#fceed0"></circle><circle cx="338.9" cy="419.9" r="16.9" fill="#fceed0" opacity="1" data-original="#fceed0"></circle><path d="M435 373.5c-2.1-1.9-4-3.9-6-5.9-2.9-3-5.9-6.1-9-9-1.9-1.1-3.8-2.2-5.7-3.4-1.1-.7-2.2-1.4-3.2-2.2-1.7 2.7-2.8 5.8-2.8 9.2 0 9.3 7.5 16.9 16.9 16.9 4.3 0 8.3-1.6 11.3-4.3-.5-.4-1-.8-1.5-1.3z" fill="#fceed0" opacity="1" data-original="#fceed0"></path><circle cx="367.7" cy="362.3" r="16.9" fill="#fceed0" opacity="1" data-original="#fceed0"></circle></g><circle cx="367.7" cy="477.4" r="16.9" fill="#fceed0" opacity="1" data-original="#fceed0"></circle><circle cx="310.2" cy="362.3" r="16.9" fill="#fceed0" opacity="1" data-original="#fceed0"></circle><g fill="#fceed0"><circle cx="310.2" cy="477.4" r="16.9" fill="#fceed0" opacity="1" data-original="#fceed0"></circle><circle cx="252.7" cy="477.4" r="16.9" fill="#fceed0" opacity="1" data-original="#fceed0"></circle><circle cx="338.9" cy="419.9" r="16.9" fill="#fceed0" opacity="1" data-original="#fceed0"></circle><circle cx="281.4" cy="419.9" r="16.9" fill="#fceed0" opacity="1" data-original="#fceed0"></circle><circle cx="223.9" cy="419.9" r="16.9" fill="#fceed0" opacity="1" data-original="#fceed0"></circle><circle cx="310.2" cy="362.3" r="16.9" fill="#fceed0" opacity="1" data-original="#fceed0"></circle></g><g fill="#fceed0"><circle cx="310.2" cy="477.4" r="16.9" fill="#fceed0" opacity="1" data-original="#fceed0"></circle><circle cx="252.7" cy="477.4" r="16.9" fill="#fceed0" opacity="1" data-original="#fceed0"></circle></g><g fill="#fceed0"><circle cx="195.1" cy="477.4" r="16.9" fill="#fceed0" opacity="1" data-original="#fceed0"></circle><circle cx="137.6" cy="477.4" r="16.9" fill="#fceed0" opacity="1" data-original="#fceed0"></circle><circle cx="223.9" cy="419.9" r="16.9" fill="#fceed0" opacity="1" data-original="#fceed0"></circle><circle cx="166.4" cy="419.9" r="16.9" fill="#fceed0" opacity="1" data-original="#fceed0"></circle><path d="M116.7 404.9c-.4 1.4-.8 2.9-1.2 4.3-1.5 5.4-3.7 10.5-5.9 15.7-1.6 3.8-3.5 7.5-5.3 11.2 1.5.4 3.1.7 4.7.7 9.3 0 16.9-7.5 16.9-16.9-.2-6.5-3.9-12.2-9.2-15z" fill="#fceed0" opacity="1" data-original="#fceed0"></path></g><g fill="#fceed0"><circle cx="195.1" cy="477.4" r="16.9" fill="#fceed0" opacity="1" data-original="#fceed0"></circle><circle cx="137.6" cy="477.4" r="16.9" fill="#fceed0" opacity="1" data-original="#fceed0"></circle></g><g fill="#fceed0"><path d="M91.2 480.8c-.5 3.5-1.1 6.9-1.6 10.4 4.4-3 7.3-8.1 7.3-13.9 0-3.8-1.2-7.2-3.3-10-.9 4.5-1.7 9-2.4 13.5zM116.7 404.9c-.4 1.4-.8 2.9-1.2 4.3-1.5 5.4-3.7 10.5-5.9 15.7-1.6 3.8-3.5 7.5-5.3 11.2 1.5.4 3.1.7 4.7.7 9.3 0 16.9-7.5 16.9-16.9-.2-6.5-3.9-12.2-9.2-15z" fill="#fceed0" opacity="1" data-original="#fceed0"></path></g><path fill="#fceed0" d="M91.2 480.8c-.5 3.5-1.1 6.9-1.6 10.4 4.4-3 7.3-8.1 7.3-13.9 0-3.8-1.2-7.2-3.3-10-.9 4.5-1.7 9-2.4 13.5z" opacity="1" data-original="#fceed0"></path><path fill="#dd9d6450" d="M316.5 361.9c14.1-6 30.2-14.3 37.9-28.2 2-3.6-1.2-6.8-4.8-6.3-4.1.6-8.2.9-12.2 2-4.4 1.3-8.2 3.9-12.1 6.2-9.9 5.9-21 9.5-31.6 13.7-10.8 4.3-21.4 9.2-32.3 13.3-11.1 4.1-22.5 6.6-33.7 10.2-2.6.8-3.1 4.2-1.7 5.9-9.6 2.7-19 5.4-29 6.3-1.1.1-2.1.2-3.2.2 1.2-.7 1.6-2.1 1.3-3.4-.1-.6-.4-.9-.8-1.4-.6-.8-2.1-1.2-3-.8-4 1.6-7.8 3.1-12.1 4-2.4.5-4.8-.1-7.1.4-.3.1-.6.2-.8.3h-1.1c-7.5-.1-16.3 1.3-23.2-2.2-1.8-.9-4 1.5-2.3 2.9 5.9 4.7 13.3 5.5 20.6 6.2 9 .9 18.1 2.5 27.1 2.4 10.1-.2 20.5-2.2 30.2-5 11.7-3.4 23.4-6.7 35.2-9.9 3.7-1 7.4-1.9 11.1-2.9 4.8 0 9.7-1.6 14.4-3.6 11.3-2.7 22.5-5.8 33.2-10.3zM329.5 423.5c0 .3 0 .6.1.9.1.2.1.5.2.7-.1.3-.1.7 0 1.1 1.5 6.7 5.3 12.4 8.4 18.4 3.5 6.9 5.1 14.9 6.8 22.4 1.7 7.2 2.5 14.6 3.6 22 .6 3.9 1 7.8 1.2 11.8.1 1.7-.1 3.5-.1 5.2h74.5c-.2-.3-.4-.5-.8-.6-.1 0-.1 0-.1-.1-1.4-5.4-2.7-10.7-5.2-16l-.1-.1c1.8-4.7 0-10.4-5.9-10.8-2.2-.1-4.8.7-6.8 2.1-2.3-6.6-5.5-12.6-10-18.2-5.9-7.5-13-13.6-20.1-19.9-12.6-11.1-27-23-44.3-24.9h-.4c-1.5-1.3-4.3.4-3.6 2.5.6 1.3 1.5 2.5 2.6 3.5zM203.7 506c.9-1.6 1.6-3.5 2.3-4.9.8-1.8 1.4-3.5 2-5.4 7-6.3 15.3-11.3 22.8-17 .7-.5 1.4-1 2.1-1.6-.5 3.6-.6 7.1-.9 9.9-.5 5.6-.8 13 1.3 19h10.6c-2.8-7.6.1-16.9 1.3-24.5.8-5.2 1.2-10.5 1.4-15.8 0-.9.1-1.7.1-2.6 12.9-5.6 26.9-13.1 32.9-26.3 3.7-8.1 3.2-18.1 2-26.7-1.5-10.6-5.1-20.1-10.1-29.6-1.5-2.8-6-.9-5.1 2.1 2.3 7.3 4.4 14.8 5.9 22.3-2.5-1.7-6.5-.6-6.6 3.3-.1 4.6-1 8.9-4 12.6-3.4 4.3-8.2 7-11.9 11-3.5 3.7-6 8-7.8 12.6-2.2 1.9-4.3 3.9-6.2 6.1-2.1 2.4-.9 5.5 1.3 6.7-3 1.9-5.9 4.7-8.7 6.8-3.5 2.7-7.1 5.4-10.6 8.1-7 5.5-13.6 11.8-18.3 19.4-2.5 1.9-4.9 4.3-7.1 5.9-3.7 2.6-8.3 6-13 6.8-.9.1-1.8.2-2.6.3-.9.2-1.6.6-2 1.2h28.9zM98.7 506c.6-12.7 9.1-22.1 14.6-33 3-4 5.9-8.1 8.2-12.5.3-.6.3-1.2.2-1.8.2-.3.5-.6.7-.9h.4c3.1-.6 4.5-3.1 6.3-5.5 1.9-2.6 3.7-5.2 5.5-7.8-.4 1.7-1.1 3.4-2 4.9-2.1 3.2 2.2 7.9 5.5 5.5 3.5-2.7 4.1-8 4.8-12 .9-4.9 1.8-10.1 1.1-15.1-.1-.5-.3-1-.6-1.4 2-5.7 3.8-11.5 5.3-17.3 1.6-5.9 3.4-13.3 1.1-19.2-.9-2.2-3.9-2.4-4.7 0-1.8 5.5-2.6 11.5-4.1 17.1-1.6 5.7-3.6 11.2-5.5 16.8-1.9 5.8-4.8 11.3-8.1 16.5l-3 4.5c-2.2 2.1-4.3 4.2-6.4 6.4-5.2 5.4-8.3 11.2-11.4 17.9-.1.2-.2.5-.3.7-2.9 4.2-5.5 8.7-8 12.8-4.1 6.8-11.1 15.6-8.1 23.6h8.5z" opacity="1" data-original="#dd9d6450"></path><path fill="#fff" d="M91.5 506h1.8c.7-.2 1.2-.6 1.6-1.2 2.4-4.3 2-10.2 2.7-15 .9-5.9 2-11.7 3.5-17.5 2.8-11.5 6.2-23.3 10.6-34.3 7.6-19.5 22.2-35.2 30.1-54.5.9-2.3-2.7-4.4-4.2-2.4-13.1 16.9-26.1 34.7-34.3 54.6-4.5 11-7.7 22.8-10.6 34.3-1.4 5.6-2.6 11.3-3.3 17.1-.7 5.5-2.1 12.7.6 17.8.3.5.9.9 1.5 1.1zM154.9 385.6c-.9 9-4 17.7-6.5 26.3-1.3 4.3-2.4 8.6-3.2 13-.8 4.2-2.1 9.4.1 13.2 1.2 2.1 4.2 2 5.5 0 2.2-3.5 1.6-8.6 2.4-12.6.8-4.4 2-8.7 3.3-12.9 2.5-8.9 4.7-17.7 4.7-27-.1-4-5.9-3.9-6.3 0zM210.1 506c0-.7.1-1.4.1-2 .5-4.1 1.3-8.2.8-12.4-.3-2.8-4.8-4-5.4-.7-.7 4.4-1.3 8.7-1.9 13.1-.1.7-.2 1.3-.3 2zM377.7 348.9c6.1 3.6 11.8 7.9 17.8 11.6 6.2 3.8 12.4 7.6 18.4 11.6 11.2 7.5 20.3 18.6 28.7 29 6.6 8.2 15.8 15.8 20.3 25.6-4.6 2.9-8.9 6.6-13.1 9.8-4.3 3.2-11.5 7.1-12.1 12.9-.1 1.3 1.3 2.7 2.6 2.6 2.6-.2 4-1.3 5.9-3 2.8-2.4 5.7-4.7 8.6-6.9 3.6-2.7 7.5-5.3 10.9-8.3 2.6 2.9 8.6.5 7.4-4.1-3-12.1-12.6-21.5-20.8-30.3-4.6-5-8.6-10.5-13.1-15.6-.5-.5-1-1-1.5-1.6-1.4-4.1-4.9-7.2-8.3-10.1-4.4-3.7-9.5-7.2-14.6-9.9-9.2-6.2-19.1-11.5-28.3-17.6-4.9-3.3-10-5.7-15.4-8-5.2-2.2-11-4-15.6-7.5-2-1.5-4.8 1.4-3.4 3.4 6 8.8 16.8 11.2 25.6 16.4z" opacity=".6"></path><path fill="#fff6f1" d="M178.7 506c1.6-1.2 3.3-2.3 4.9-3.5 4.2-2.9 7.7-6.4 11.5-9.8 8.4-7.6 17.5-14.5 25.6-22.5 8-7.9 14.3-17.6 21.5-26.2 2.6-3.2 4.3-6.9 5.8-10.7 1.8-1.8 3.5-3.6 4.8-5.2 4.5-5.1 7.7-11.1 10.2-17.4l1.5-4.2c1.4-2.9 2.6-5.9 3.5-8.9 2.3-7.1 2.5-14 .5-21.1-2-7.2-5.7-13.7-6.7-21.2-.3-2.2-2.9-3-4.7-2.7-2.7.5-5.4 1-8.1 1.7-1.8-12.1-5.8-23.4-13.6-33.4-3.8-4.9-12.7-8.1-17-5.2-3.6-2.7-7.8-4.4-12.2-4.7-1.4-1.6-4.1-1.8-5.9-.3-.8.6-1.6 1.1-2.3 1.8-2.3 1.8-1.3 4.5.6 5.8-2.1.2-4.1.8-5.5 2.4-.6.6-1 1.2-1.3 1.9-3.1-.8-6.5-.4-9.9 1.5-.5.3-.9.7-1.1 1.1-.9.6-1.5 1.7-1.1 3.2 2.4 8.4 6.3 16.3 8.3 24.9 2 8.7 2 17.6 1 26.4-.9 7.9-2.7 15.6-2.7 23.5 0 2.7.3 5.7.9 8.7-6.9 20.6-34 24.4-51.2 32.9-22.5 11-38.2 36-38.7 61.1h81.4zM413.4 478.5c.3.4.5.8.9 1.2 1.5 2 4.3 2 5.7 4.1 2.2 3 2.7 7.5 3.3 11.1.5 2.9 1 5.6 1.7 8.4-.9.7-1.3 1.7-1.4 2.8h70.5c0-1.1-.1-2.3-.2-3.2-.4-3.6-.7-7.1-1.1-10.7-.8-6.7-1.8-13.3-3.2-19.8-2.4-10.8-6.8-24.2-15.7-31.7v-.1c1.3-1.7 1.1-3.6-.6-4.8-4.1-3-11 1.2-14.8 3.4-5.7 3.2-10.8 7.7-15.7 12.1-8.4 7.3-18.6 12.2-27.1 19.4-1.3-.1-2.6.6-3.1 2.2-.1.3-.2.6-.2.8l-1.3 1.3c-1.7 1.6.2 4.4 2.3 3.5z"></path><g fill="#fdb8a9"><path d="M223.8 359.6c-.5-1.6-2.4-1.7-3.3-.4-3.2 4.6-4.2 11.8-2.5 17.1 1.6 5.2 5.9 7.4 10.9 8.2 4.4.7 8.9.5 13.1-1.3 3.5-1.6 5.5-8.2 1.3-9.8-.2-.6-.7-1-1.3-1.1 0 0-.2-.1-.6-.2-.6-.2-1.2 0-1.9.1-1.3.2-2.6.7-3.8 1.1-2.4.6-5 .9-7.4 1.7-.9.3-1.5.8-1.8 1.4-5.1-3.1-1.2-12-2.7-16.8z"></path><path d="M181 506c3.2-2.6 6.3-5.4 9.3-7.9 1.6-1.3 3.7-2.9 5.7-4.6 5.7-1.7 10.8-5.8 15-9.7 5.6-5 10.2-11.1 14.7-17.1 4.7-6.3 9.1-13.3 13.1-20.1 1.3-1.8 2.5-3.6 3.6-5.5 1-1.6 2.2-3.1 3.3-4.7 2.7-.9 5.5-3 7-4.6 5.2-5.8 8.8-13.2 11.9-20.3 3.2-7.2 4.7-12.9 4.1-20.9-.9-11.9-3.6-24.9-9.7-35.3-.9-1.5-2.8-2-4.3-1.1-.9.5-1.9 1-2.9 1.4-.3.1-.7.2-1 .4-.9-.5-1.9-.9-3.1-1.1-2.3-.5-4.7 2.6-2.5 4.3 9.7 7.8 7.5 24.7 5.8 35.5-.9 6.1-2.4 12.3-5.2 17.9-4.6 9-12.8 15.7-17.9 24.4-5.6 9.6-11.6 19.1-19.6 26.9-7 6.9-14.6 13.3-22.4 19.3-8.2 6.3-16.9 12.1-26.1 16.9-4.4 2.3-9 3.8-13.6 5.8h-.1H181zM194.6 326.2c1.1 10.5 3.1 21.4 6.4 31.4 1.1 3.3 5.7 1.9 5.1-1.4-2-10.3-5.4-20.5-8.5-30.4-.5-1.5-3.2-1.3-3 .4zM203 318.5c-1.3-.9-2.4 1-1.6 2 3.4 4.2 6.6 8.5 9.1 13.2 1.4 2.7 2.5 5.4 3.2 8.4.7 2.7.4 5.5 1.4 8 .9 2.4 4.1 2.5 5 0 1.8-5.6-1.8-12.9-4.4-17.8-3-5.5-7.5-10.2-12.7-13.8zM215.3 316.5c2.2 10.6 8 20 9.3 30.8.5 4 6.7 4.1 6.3 0-1-11.8-7.4-21.8-12.8-31.9-.8-1.6-3.1-.5-2.8 1.1zM231.9 319.1c-.9-1-3 0-2.4 1.4 2 4.8 4.6 9.3 6.5 14.1 2 5.3 2.1 10.3 2.9 15.7.5 3 5.4 2.9 5.9 0 2.2-11.5-5.5-23.2-12.9-31.2zM415.4 478.1c13.4-2.5 28.7-11.4 42.3-4.9 10.7 5.1 20.4 19.3 20.3 31.3 0 .6.1 1.1.3 1.5h17.5c-1.7-7.5-1.9-15.2-2.7-22.9-.7-7.7-2.6-15.4-4.5-22.9-1.6-5.8-3.8-10.9-7.8-15.5-1.7-2-3.7-3.9-5.6-5.8l-.4-.4c2.7-2.1.7-7.5-3.5-6.6-6.3 1.3-11.1 5.8-15.6 10.1-4.8 4.5-10.2 8.3-15.5 12.2-5.3 3.8-10.6 7.7-16.2 11.1-1.4.9-9.9 4.7-7.9 7.5-.8.4-1.6.8-2.3 1.2-2.5 1.3-.8 4.5 1.6 4.1z"></path></g><path fill="#f76385" d="M167.6 348c-1-1.2-2.7-1.1-3.9-.5-2.7 1.3-4.4 4.4-4.4 7.3 0 1 .1 2.1.2 3.2-2.2 3.3 2.5 7.5 5.7 4.5 1.3-1.2 2.8-2 4.2-3.1 1.3-1 1.9-2.2 1.6-3.9-.6-2.9-1.6-5.3-3.4-7.5z"></path><path fill="#ff90b9" d="M169.1 355.9c-3.8 1.7-8.3 4.5-10.2 8.2-.6 1.2.7 2.9 2 2.1-.4 2.7 1.2 5.5 4 6 7.7 1.2 7.2-9.5 7.7-14.3.1-2-2.1-2.6-3.5-2z"></path><path fill="#851919" d="M72 145.4c-10.4 12.5-15.4 28.2-17.4 44.1-2.2 16.8-1.9 35.1 3.1 51.4.7 2.4 4.4 1.4 3.8-1.1-7.4-30.1-5.9-66.8 12.5-93 .7-1-1.1-2.5-2-1.4z"></path><path fill="#851919" d="M58.6 243c3.8 0 7.4-1.8 10.9-3.1 4.4-1.6 8.8-3.3 13.2-4.8 4-1.4 7.9-2.7 12-3.8 4.6-1.4 9.6-2 14.1-3.6 1.8-.6 1.6-3.5-.5-3.4-8.9.2-18.4 4.1-26.7 7-4.4 1.5-8.8 3.2-13.2 4.8-3.6 1.4-7.7 2.4-10.7 4.8-.9.7-.1 2.1.9 2.1z"></path><path fill="#851919" d="M107.7 183.3c-3 6.5-3.3 14.7-3.3 21.7.1 7.8 1.4 15.5 3.9 22.8.8 2.5 4.7 1.4 3.9-1.1-2.3-7.1-3.5-14.3-3.7-21.7-.2-7.1 1.4-14.3 1-21.3-.1-.7-1.4-1.3-1.8-.4z"></path><path fill="#851919" d="M111.4 229.7c2.4-.7 4.7-1.5 7.2-2 2-.5 5-.5 5.6-2.8.1-.5 0-1.1-.4-1.4-1.9-1.5-4.8 0-7 .5-2.8.6-5.3 1.4-7 3.7-.8 1 .5 2.3 1.6 2z"></path><path fill="#851919" d="M126.5 167.4c-8.4 17.8-8.1 37.9-4.7 56.9.5 2.6 4.3 1.5 3.9-1.1-1.6-9.2-2.4-18.5-1.9-27.9.5-9.2 2.4-18.3 4-27.4.1-.6-1-1.2-1.3-.5z"></path><path fill="#851919" d="M126.8 161.1c-3.7 20.5 5.9 42.3 17.9 58.4 1.5 2.1 5 .1 3.5-2-6.1-8.1-10.9-17-14.3-26.6-3.3-9.6-4.3-19.6-5.6-29.6 0-.8-1.3-1.1-1.5-.2z"></path><path fill="#851919" d="M161.8 128.5c-12.2 9.9-17.7 28.2-19.6 43.2-1.1 8.5-1.3 16.9-.4 25.4.7 7.3 1.8 16 5.5 22.5 1.1 1.9 3.9.6 3.4-1.4-1.7-7.1-4.1-13.7-4.9-21.1-.9-8-.7-16.2.3-24.2.9-7.8 2.9-15.7 5.6-23 2.8-7.4 7.1-13.8 11.5-20.3.6-.9-.7-1.7-1.4-1.1z"></path><path fill="#851919" d="M159.8 131c-4.4 10.5-2.3 23.9.9 34.5 3.3 11 9.5 21.5 18 29.2 15.5 14.3 37.7 15.2 57 9.3 2.5-.8 1.4-4.7-1.1-3.9-18.2 5.6-38.1 4.8-53-8.3-8.1-7.1-13.6-17.3-16.9-27.5-1.8-5.4-2.7-11-3-16.7-.3-5.5.2-11-.2-16.5-.3-.8-1.4-.9-1.7-.1z"></path><path fill="#851919" d="M221.6 169.2c-.5 6 1 12.5 2.5 18.2 1.6 6.3 4.9 11.8 9.6 16.2 1.9 1.8 4.8-1.1 2.9-2.9-4.6-4.4-7.3-9.5-8.9-15.6-1.4-5.5-1.3-11.4-3.7-16.6-.6-1.2-2.3-.5-2.4.7z"></path><path fill="#851919" d="M222.5 170.8c4.2 8.3 10.8 16.6 19 21.1 10.2 5.6 22.7 5.5 34 7.2 2.5.4 3.6-3.5 1.1-3.9-10.6-1.6-21.8-1.8-31.8-6.2-9.3-4.1-13.1-13.4-20.2-19.8-1.2-1-2.8.3-2.1 1.6z"></path><path fill="#851919" d="M250.3 124.3c.6 10.4 2.2 20.5 4.7 30.6 3.6 14.5 9.7 27.2 18.4 39.4 8.3 11.7 18.6 21 31.3 27.7 10.6 5.7 25.5 11.4 29.9 23.7.9 2.4 4.8 1.4 3.9-1.1-4.1-11.1-14.8-17.2-24.8-22.5-5.4-2.9-10.8-5.6-16-8.9-6.9-4.5-12.7-10.5-17.8-16.9-9.6-12-16.3-25.3-20.4-40-2.9-10.7-4-21.7-7.2-32.3-.3-1.1-2-1-2 .3z"></path><path fill="#851919" d="M301.1 190.7c12.6 24.2 29.7 45.7 40.7 70.8 5.5 12.6 9.5 26 10.4 39.8.5 7-.2 14.1-1.3 21-1.3 7.8-4.7 15.1-5.9 22.8-.3 1.8 2 3 3 1.3 3.7-6.2 5.2-14.4 6.5-21.4 1.3-6.8 2-13.9 1.8-20.9-.2-13.8-4-27.4-9.1-40.1-10.7-26.6-27.3-51.5-44.6-74.2-.7-.9-2-.1-1.5.9z"></path><path fill="#851919" d="M335 150.4c12 31.3 24 62.8 28.1 96.3 2 16.7 2 33.8-.7 50.4-2.7 16.3-10.3 31.4-17.2 46.2-1.1 2.3 2.4 4.4 3.5 2 6.9-14.7 14.4-29.6 17.4-45.7 3.1-17 3.1-34.4 1.3-51.5-3.7-34.2-14.7-68.2-30.9-98.5-.5-.6-1.8-.1-1.5.8z"></path><path fill="#851919" d="M361.8 219.1c.5-8.1 3.3-14.3 9.1-20.1s13.9-9.9 22.2-10.2c16.3-.7 25.7 17.2 27.1 31.1 1.5 14.7-2.7 30.4-10.7 42.8-4 6.2-9.8 10-16.3 13.1-6.2 2.9-16 6.1-21.8.7-2.1-1.9-5 1-3.1 3.1 5.2 5.7 13.8 4.6 20.5 2.6 7.4-2.2 15.1-6.3 20.5-11.8 5.3-5.4 8.7-13.2 11.2-20.3 2.9-8 4.3-16.6 4.3-25.1 0-15.9-6.9-32.1-22.2-38.7s-34 5.6-41.3 18.6c-2.5 4.4-4 9.7-2.7 14.6.6 1.8 3.1 1.3 3.2-.4z"></path><path fill="#851919" d="M396.7 212.3c-7.3 2.2-12.1 9.9-14.8 16.6-2.8 6.8-4.1 17.2-1.4 24.2.7 1.8 3.4 1.6 3.5-.5.1-3.3-.6-6.7-.6-10.1 0-3.5.7-7 1.6-10.3 1-3.3 2.6-6.4 4.6-9.2 2.3-3.3 5.8-5.5 8.5-8.5.9-.9 0-2.6-1.4-2.2z"></path><path fill="#851919" d="M383.6 230.1c1.4 1.3 3.2 2.1 4.3 3.8 1.1 1.6 1.5 3.6 1.6 5.5.2 2.6 4.2 2.6 4 0-.3-4.6-3.1-12.4-9-11.7-1 .1-1.9 1.5-.9 2.4zM66 236.9c-3.5 9-2.9 19.8-1.5 29.2 1.6 10.8 4.7 21.2 7.5 31.8.7 2.5 4.6 1.4 3.9-1.1-2.6-9.5-5.3-19-7-28.8-1.8-10.5-.5-20.2.2-30.7 0-1.8-2.6-1.9-3.1-.4zM265.2 362.8c19.4-6 38.5-14 56.7-22.8 11.5-5.6 23.2-11.5 33.1-19.6 1.8-1.4-.6-4.6-2.4-3.2-9.6 7.4-21 12.9-31.8 18.3-18.4 9.2-37.4 16.4-56.6 23.6-2.4.8-1.5 4.5 1 3.7zM126.6 382.5c10 1.5 20.1 1.8 30.2 1.7 10.2-.1 21.1-.4 31.1-2.7 2.2-.5 1.7-4-.5-4-10.2.3-20.3 1.9-30.5 2.2-9.9.3-19.8-.2-29.6-1.1-2.4-.1-2.9 3.6-.7 3.9z"></path><path fill="#851919" d="M71.2 297c-6.6 10.7-9.4 24.1-9 36.5.4 13.2 5.7 24.3 16.3 32.3 11.8 8.9 26.8 13.3 41.1 15.9 16.2 2.9 32.6 3.2 49 2.1 2.6-.2 2.6-4.2 0-4-27.8 1.3-59.4-.3-83.8-15.1-11.4-6.9-17.3-16.8-18.3-30-1-12.3 2.3-24.9 8.1-35.7 1.2-2.2-2.1-4.1-3.4-2zM255.5 31.7c37.2-3.6 75.2 3.1 106.2 24.8 9.4 6.6 18.7 14.4 25.6 23.7s12.2 19.8 17 30.3c5.4 11.8 10.4 23.9 15 36.1 13.9 36.8 24.4 74.8 35.4 112.5 3.9 13.5 7.5 27.4 6 41.5-1.6 16-11.9 29.4-23.8 39.5-2 1.7.9 4.5 2.9 2.9 15-12.8 25.7-28.3 26.2-48.5.5-19.1-7.1-38.1-12.3-56.2-7.7-26.5-15.4-52.9-24.5-78.9-8.2-23.4-17.2-47.2-29.3-68.9-11.1-19.9-28.3-35.1-48.1-46.1-29.3-16.3-63.2-20.1-96.2-16.7-2.7.3-2.7 4.3-.1 4z"></path><path fill="#851919" d="M431.8 285.4c-.7 6 1.8 12.7 3 18.5 1.3 6.4 2.3 12.9 2.7 19.5.3 6.3-.3 12.5-2 18.6-2.2 8.1-7.2 13.6-12.3 19.9-1.5 1.9.7 4 2.6 2.6 11.1-8.7 16.5-23.7 16.4-37.5-.1-6.9-1.3-13.7-2.7-20.4-1.4-7-2-15.6-5.4-21.9-.6-1.2-2.1-.5-2.3.7zM256.5 28c-12.3-7.8-26.9-10.6-41.3-11.5-17.8-1.2-35.8 1-53.1 5-17.4 4.1-34.6 10.7-49.7 20.2C99 50.2 88.8 61.4 80.1 74.5 60 104.9 46.8 140.2 37.3 175.2c-10.8 39.6-16.6 81.1-15.1 122.2 1.2 30.1 6.8 60.2 20.5 87.2 1.2 2.3 4.7.3 3.5-2-17.4-34.5-21-75.2-19.4-113.3 1.7-41.4 10.3-82.6 23.7-121.8 6.1-17.7 13.3-34.9 22.1-51.4 7.3-13.7 15.6-27.8 26.8-38.6 12.7-12.3 29.2-20.5 45.7-26.3 17.5-6.1 36-9.6 54.5-10.3 18.1-.7 39 .7 54.8 10.7 2.3 1.3 4.3-2.2 2.1-3.6z"></path><path fill="#851919" d="M157.6 136.6c-8.9 20.5-3.5 44.2 12.5 59.5 15.2 14.5 41.2 19.5 59.3 7.4 1-.7.4-2.7-.9-2.1-9.8 4-18.8 7-29.5 5.9-10.2-1-19.8-5.9-27.3-12.8-16.1-14.8-19.4-37-12.4-57 .5-1.2-1.2-1.9-1.7-.9zM262.7 180.8c8 24.9 25.9 44.9 47 60.1 10.9 7.8 21.5 16.4 29.6 27.2 8.2 11 11.6 23.5 13.5 36.9.1.9 1.5.6 1.5-.2.9-26.1-16.6-46.1-36.2-60.9-11-8.4-22.2-16.7-31.8-26.6-10.2-10.4-17.8-23-22.8-36.6-.2-.6-1-.4-.8.1zM79.6 75.6c-2.7 7.3-7.7 13.3-11.2 20.2-.2.5.4.9.7.4 4.3-6.5 8.6-13 11.8-20.1.5-.9-.9-1.5-1.3-.5zM23 261.4c-3.5 22.8-10 44.9-9.5 68.1.6 26.7 12.6 53.9 38.3 65.2 1.2.5 2.2-1.1 1-1.8-12.4-7.7-22.8-16-29.5-29.3-5.7-11.4-7.5-24.4-7.7-37-.2-22.1 5.8-43.3 8.3-65.1.2-.5-.8-.6-.9-.1zM410.2 121.2c4.8 14.3 10.2 28.5 16.4 42.3 6 13.4 13.4 25.3 22.2 37.1 8.4 11.2 14.2 24.1 16 38 1.9 14.4-.7 29.1-3.6 43.1-.2 1.2 1.5 1.7 1.8.5 3.8-13.4 6.1-27.2 5-41.2-1.1-13.4-6-26-13.4-37.2-4-6.1-8.9-11.6-12.9-17.8-4.1-6.3-7.6-13.1-10.9-19.9-7.1-14.9-12.8-30.4-19.2-45.5-.3-.8-1.7-.2-1.4.6zM436.2 259.8c7.4 24.5 14.6 53.3 1.1 76.9-.6 1.1.9 2.4 1.8 1.4 8.4-10.2 8.6-25.3 7.7-37.8-1-13.9-4.4-27.7-9.3-40.8-.3-.9-1.5-.6-1.3.3zM328.6 74.1c9.1 16.1 20.1 30.9 29.4 46.9 4.8 8.3 9.1 16.8 12.7 25.7 3.7 9.2 5.9 18.6 8.2 28.2.2 1 1.9.8 1.8-.2-1.7-18.4-10.3-36.4-19.2-52.4-9.5-16.9-20.5-33.1-31.7-48.9-.5-.8-1.7-.1-1.2.7zM374.1 133.5c4.4 7.1 6.6 14.9 10.2 22.3.3.7 1.2.2 1.2-.5-1.2-8.1-5.4-16-9.9-22.7-.7-.8-2.1 0-1.5.9zM209.2 102.6c-1.6 9.6-3 19.3-3.6 29-.3 5.2-.2 10.4.1 15.6.3 4.3.5 9.3 2.3 13.3.3.6 1.1.2 1.1-.3.4-4.8-.9-9.8-1.2-14.6-.3-4.7-.3-9.3-.1-14 .3-9.6 1.6-19.2 2.9-28.8 0-.8-1.4-1-1.5-.2zM202.2 121.1c-1.5 6.6-2.3 13.6-1.5 20.4.1 1.1 1.7 1.2 1.8 0 .2-6.7.1-13.3 1.4-19.9.2-1.1-1.4-1.6-1.7-.5zM136.6 98.1c-5.6 7-11.1 14.1-15.8 21.8-4.4 7.2-8.6 15.9-8.6 24.4 0 1.1 1.7 1.4 2 .3 2.1-8.4 4.1-16.1 8.2-23.8 4.2-7.8 9.7-14.9 15.1-21.9.4-.6-.4-1.4-.9-.8zM117.8 115.5c-3.3 4.9-5.9 10-8.1 15.4-.1.2.3.4.4.2 2.4-5.3 5.1-10.4 8.3-15.2.3-.4-.3-.8-.6-.4zM63.7 159.6c-10.9 14.2-15.8 30.8-18 48.3-1 7.5-1.6 15-1.3 22.5.2 5.2.4 12.9 4.8 16.5.4.4 1.3 0 1.1-.6-2-6.1-3.4-11.7-3.5-18.2-.1-6.8.5-13.5 1.4-20.2 2.1-17.1 7.1-33.3 16.9-47.6.4-.8-.8-1.4-1.4-.7z"></path><path fill="#851919" d="M312.9 130.6c21.5 24.2 28.8 57.7 35.4 88.5 4 18.6 7.3 37.3 8.3 56.3.5 9.2.2 18.3-.6 27.5-.5 5.2-1.2 10.3-2.1 15.4-.8 4.5-2.1 9-2.5 13.5-.1 1.3 1.7 1.3 2.1.3 3.5-8.3 4.1-18.7 5.1-27.6 1-9.6 1.1-19.4.7-29-.9-19.2-4.5-38.2-8.5-57-6.6-30.7-15-65-37.2-88.5-.5-.6-1.2.1-.7.6zM254.2 27.7c21.3-11.4 46.2-8.4 68.2-.6 11.4 4.1 22.1 9.8 32 16.6 5 3.4 9.9 6.9 14.3 11.1 3.9 3.6 7.1 7.7 10.8 11.6.3.3.8-.1.6-.5-5.2-9.3-14.9-17.5-23.4-23.7-10.2-7.5-21.7-13.2-33.6-17.6-21.8-7.9-48.9-10.7-69.3 2.4-.4.3 0 1 .4.7z"></path><path fill="#851919" d="M97.1 52.8c33.1-22.5 70.3-45 111.9-44 10.7.3 21.6 2.3 31.1 7.1 4.5 2.3 10.7 5.9 12.3 11 .1.4.3.9.2 1.4-.4 1.3 1.7 1.9 2 .6 1.2-4.3-3-8.2-6-10.6-6.6-5.3-14.9-8.3-23-10.1-31.3-7-65.2 4.3-92.3 19.5-12.9 7.2-25.2 15.2-36.5 24.7-.2.1.1.6.3.4zM404.2 302.7c1.1 6.3 2.7 12.6 3.7 18.9.5 3.2.7 6.4.6 9.6-.1 3.3-1.2 6.4-.7 9.6.2 1.1 1.6 1 2.1.3 3.1-4.5 2.4-12.4 1.7-17.6-1.1-7.4-3.6-14.2-6.2-21.2-.3-.7-1.4-.4-1.2.4zM367.6 282.4c3.3 5 5.2 10.7 6.7 16.5 1.5 5.9 1.6 12.5 3.7 18.2.2.6 1.2.6 1.2-.2 0-6.1-1.8-12.6-3.3-18.4-1.5-5.9-3.6-11.7-7.3-16.7-.5-.5-1.4 0-1 .6zM49.5 260.9c-1.1 11-1.9 21.9-1.4 33 .2 5.5.8 11 1.5 16.5.7 5 1 11.1 3.7 15.4.4.7 1.4.4 1.4-.4.4-4.5-1.3-9.3-1.9-13.8-.9-5.9-1.4-11.8-1.8-17.8-.6-11-.7-22-.5-33 0-.6-1-.6-1 .1zM58.7 293.7c-.5 4.4-.4 9.4 1.4 13.6.3.7 1.5.3 1.4-.4-.4-4.5-1.5-8.6-1.2-13.2 0-1-1.5-.9-1.6 0zM42.4 382.9c1.5 9.5 13.3 16.4 21 20.5 8.3 4.4 21.3 10.3 30.7 6.7 1-.4 1.2-2 0-2.2-18.8-3.4-37.7-9.4-48.9-26.1-1-1.5-3-.6-2.8 1.1z"></path><path fill="#851919" d="M61.3 360.4c2.1 13.1 7.3 25.5 15.5 35.9 4 5 8.9 9.2 14.3 12.4 4.8 2.9 13 7 18.7 5.2 1.2-.4 1.3-1.9.3-2.6-2.1-1.5-4.9-2-7.4-2.8-3.2-1-6.2-2.4-9.1-4.1-5.2-3-9.6-7.1-13.4-11.6-8-9.5-12.8-21.4-17.1-32.9-.3-1.2-2-.7-1.8.5z"></path><path fill="#851919" d="M113.1 411.8c-3.6-4.4-5.8-9.6-7.2-15-.7-2.8-1-5.7-1.1-8.6-.1-2.1.4-4.2 0-6.4-.3-1.4-2.1-1.4-2.7-.4-3 4.5-.9 12.7.4 17.5 1.5 5.6 4.2 11.4 9.2 14.6 1.2.9 2.2-.7 1.4-1.7zM245.3 373.1c-2.7-.9-6 .5-8.8.7-3.5.3-6.8-.5-8.9-3.5-1.4-2.1-2.1-4.8-2.3-7.3-.2-2.9 1.2-4.1 2.3-6.5.7-1.4-.2-2.7-1.6-2.9-3.5-.4-5.2 3.5-5.7 6.3-.7 3.9.5 8 2.3 11.5 1.8 3.6 5.5 6 9.6 6.3 4 .4 10.5.3 13.8-2.3.8-.6.2-2-.7-2.3z"></path><path fill="#851919" d="M224.4 356.8c4.8 2.3 10.7 1.6 15.8.8 3.5-.5 6.9-1.2 10.4-1.9 3-.6 6.2-.8 8.9-2.3 1.4-.8 1.3-3.4-.5-3.7-5-.8-10.8 1.5-15.6 2.5-6.2 1.2-12.5 1-18.6 2.1-1.2.2-1.4 2-.4 2.5z"></path><path fill="#851919" d="M256.8 354c3.8 2.8 5.1 8.5 6.4 12.8 1.6 5.5 2.8 11.1 3.7 16.7 1.3 7.9 1 15.8-1.3 23.5-1.2 4-3.2 7.7-5.4 11.1-2.5 3.8-6 6.6-8.8 10.1-1.4 1.9 1.3 4 3 3 7.9-4.3 13.3-14.7 16-23 2.8-8.5 2.6-17.4 1.1-26.1-1.1-6.9-2.7-13.8-5.1-20.4-1.3-3.7-4-12-9.3-10.9-1.5.4-1.4 2.5-.3 3.2zM209.3 357.3c2.1-6.7-.6-14.8-3.1-21-2-5.1-4.8-9.8-8.6-13.8-2.9-3.2-6.9-6-11.4-6-5 0-8.3 5.1-8.2 9.7 0 1.2 1.5 1.9 2.4 1 2.4-2.6 4-6.6 8.1-5.3 3.4 1.1 6.2 4.7 8.3 7.4 2.7 3.7 4.8 8.1 6.4 12.4 1.9 5.1 2.2 10.4 3.5 15.6.4 1.3 2.2 1.2 2.6 0z"></path><path fill="#851919" d="M176.4 327.2c2.7 9 6.4 17.6 8.4 26.7 2.3 10.2.6 19.7-1.1 29.8-2.3 13.7-3.2 32.1 9.9 41 1.4 1 3.2-.9 2.3-2.3-2-3.1-4.3-6-6-9.3-1.9-3.7-2.6-8-2.9-12.1-.6-8.1 1.3-16.2 2.7-24.1 3.2-17.8-2.2-35.2-9.8-51.2-1-1.9-4.1-.5-3.5 1.5zM190.8 319.9c3.9-.9 7-2.5 11.1-.8 4 1.7 6.9 5.5 9.3 9.1 2.4 3.7 4.4 7.7 6 11.8 1.2 3.1 1.1 7.9 3.1 10.6.5.7 1.5.8 2 0 2-3.3-.5-9.2-1.5-12.5-1.6-5.4-4.1-10.6-7.6-15-5.1-6.5-17.2-14.2-23.7-4.7-.6.7.3 1.7 1.3 1.5z"></path><path fill="#851919" d="M197 314.8c6.5-8.4 15.8-1.2 21.2 4.7 3.6 4 6.2 9.2 8.4 14.1 2.5 5.6 3.7 12.6 7.2 17.6.8 1.2 3.3 1 3.1-.8-.9-6.8-4.4-14-7.2-20.2-2.7-6-6.3-11.8-11.1-16.3-6.6-6.2-19.3-11.7-23.5-.2-.4 1 1.2 2 1.9 1.1z"></path><path fill="#851919" d="M213.9 313.2c4.2 1.4 8.3 1 12.4 3.2 4.5 2.4 8.3 6.5 11.3 10.6 2.9 3.9 5.4 8.3 7.3 12.8 1.6 3.9 1.9 8.7 3.9 12.3.7 1.2 2.7 1 3.1-.4 1-4.4-1.7-10-3.3-14-2.2-5.5-4.9-10.7-8.6-15.3-3.4-4.2-7.3-7.9-12.2-10.3-3.9-1.9-10.2-3.6-14.1-.8-.8.5-.7 1.6.2 1.9zM183.6 412.7c-2.6 3.9-4.7 7.4-8.4 10.5-3.5 3-7.7 5.2-11.9 7.1-8.1 3.8-16.6 6.7-24.7 10.5-7.5 3.5-14.7 7.5-21 12.8-6.2 5.2-13.1 13.2-14.3 21.5-.2 1.3 1.4 2.8 2.5 1.5 2.7-3.4 4.6-7.4 7.1-11s5.6-6.6 8.9-9.4c6.9-5.8 15.5-9.8 23.6-13.6s16.5-6.6 24.4-10.9c6.8-3.7 14.9-9.7 17.1-17.6.6-2-2.2-3.1-3.3-1.4zM185.5 506c6.2-2.8 12.1-8.6 17-12.7 7.3-6.1 14.1-12.8 20.5-19.8 6.3-6.8 12.1-13.9 17.6-21.3 2.6-3.5 5.1-7.1 7.5-10.8 2.3-3.4 5.5-7.4 6.1-11.6.2-1.1-1-2.6-2.2-1.7-2.8 2.1-4.6 5.5-6.5 8.4-2.4 3.6-4.9 7.2-7.5 10.7-5.4 7.5-11.3 14.7-17.6 21.6-6.1 6.7-12.5 13-19.3 19-3.5 3.1-7.2 6-10.9 8.8-3.2 2.4-6.9 4.3-9.4 7.4-.5.6-.5 1.3-.3 1.9h5z"></path><path fill="#851919" d="M152.1 382.3c-2.5 3.2-3.1 7.7-4 11.6-1.3 5.4-2.3 11-3.2 16.5-.7 4.8-1.2 9.6-1.7 14.4-.4 4.9-1.2 10.4-.1 15.2.4 1.6 2.9 1.6 3.3 0 1-3.9.7-8.2 1-12.2.3-5.4 1-10.9 1.7-16.2.7-5.1 1.6-10.1 2.7-15.1.9-4.1 3.1-8.9 2.8-13.1-.1-1.2-1.6-2.2-2.5-1.1zM91.6 506c.3-5.2-.2-10.5.1-15.7.4-6.5 1.5-12.9 2.9-19.3 2.7-12.4 7-24.6 11.9-36.3 4.5-10.5 9.7-20.8 15.4-30.7 4.3-7.4 9.4-14.3 13.7-21.7.9-1.6-1.2-3.1-2.5-1.9-6.1 5.6-10.4 13.3-14.6 20.4-6.2 10.5-11.7 21.5-16.5 32.7-5.2 12.1-9.4 24.6-12.3 37.5-1.3 6-2.2 12-2.8 18.1-.5 5.3-1 11.5.1 16.9z"></path><path fill="#851919" d="M98.6 506c-.4-5.9 1.6-12.1 3.5-17.6 1.3-3.9 3-7.6 4.5-11.4 1-2.4 3-5.6 2.2-8.3-.2-.6-.8-.8-1.3-.5-2.7 1.5-3.8 5.8-5 8.4-1.8 3.9-3.3 8-4.7 12-1.9 5.4-3.6 11.6-3.3 17.5h4.1zM205.7 506c.2-2.4-.3-5.1-.1-7.5.4-3.8.9-7.3.4-11.1-.2-1.7-2.8-1.2-2.9.4-.3 4.4-3.4 13.1-1.5 18.2zM234.8 506c-.8-4.7-1.5-9.1-1.3-13.9.2-5.3 1.3-10.5 2.3-15.7 1.7-8.8 4.2-18.2 2.4-27.1-.2-1.1-2-1.1-2.2 0-1.4 10.2-3.4 20.2-5.3 30.4-1.5 8.2-3 18-.5 26.3zM335.3 332.7c10.5-8.3 24-2.7 34.6 2.4 12.4 6 25 12 36.4 19.7 14.1 9.5 27.3 21.3 37.9 34.7 5.7 7.2 11.5 14.1 17.1 21.4 5.2 6.8 9.5 14.2 14.8 20.9 1.3 1.6 4.2-.1 3.5-2-3.3-8.3-9.2-15.7-14.7-22.8-5.8-7.6-12-14.9-17.9-22.4-11.4-14.4-26.3-26.9-41.7-36.7-6.7-4.3-13.9-7.6-21-11.2-5.8-2.9-11.6-5.8-17.6-8.3-10.2-4.1-25.9-8.3-33.1 3-.9 1.1.7 2.1 1.7 1.3z"></path><g fill="#851919"><path d="M417.7 491.1c1.9-2.2-1-5-3.1-3.1-4.5 3.9-9 7.6-13.9 10.9-4.2 2.9-9.3 6-14.5 7.1h12.3c.9-.5 1.7-1 2.6-1.6 5.9-3.6 11.9-8 16.6-13.3zM385.4 506c.5-5.4 7.3-12 10.3-15.2 8.3-9 17.8-16.9 27.4-24.4 10.2-8 20.9-15.4 31.9-22.2 7.4-4.5 15.2-9.2 23.6-11.7 1.9-.6 1.6-3.6-.5-3.6-8.7.3-17.6 6.3-24.8 10.6-12 7.1-23.4 15.3-34.4 23.9-10.1 7.9-20.1 16.4-28.6 26-3.5 4-9.3 10.4-9.7 16.6z"></path></g><path fill="#851919" d="M349.8 441.9c4.6 7.5 8.6 15.9 12.3 23.8 3.2 6.9 6.7 13.6 10 20.4 3.1 6.5 5.5 13.1 7.9 19.8h5.3c-1.7-6.7-4.8-13.2-7.6-19.5-3.4-7.4-7.1-14.7-10.7-22-4-8-8.3-15.8-12.7-23.5-4-7-10.5-11.8-15.1-18.2-.7-1-2.2-.2-1.6 1 3.2 6.8 8.4 11.9 12.2 18.2z"></path><path fill="#851919" d="M318.2 383.4c-2.5 12.5.5 25.6 5.6 37.1 2.6 5.8 6.3 11.3 11.1 15.4 3.5 3 10.9 7.9 15.6 5.4.9-.5 1.1-1.8.3-2.5-1.7-1.5-3.8-1.7-5.9-2.3-2.8-.9-5.3-2.6-7.5-4.5-4.6-3.9-7.8-9.3-10.4-14.7-4.8-10.1-7.1-22.4-6.3-33.5.3-1.6-2.2-2-2.5-.4zM330.5 337.3c-4.3 3.1-7.5 7-10 11.7-2.4 4.4-5.2 10-5.5 15-.1 1.1 1.5 1.4 2 .5 2.4-3.9 3.3-8.7 5.3-12.9 2.3-4.8 5.4-9.3 9.3-13 .7-.6-.3-1.8-1.1-1.3zM374.4 484.3c3.6-3.5 6.3-7.9 9.6-11.8 3.4-3.9 7.6-6.9 10.9-10.8.6-.7 0-2.1-1-1.7-4.9 1.9-8.7 6.4-12 10.4s-6.9 8.3-8.5 13.3c-.2.6.6 1 1 .6zM410.4 450.9c7.7-8.2 17.7-13.8 27.8-18.4 5.4-2.5 11.1-4.6 16.7-6.7 4.6-1.7 10.9-2.9 14.8-5.9 1.2-.9 1.1-3.4-.9-3.2-5.4.5-11.2 3.8-16.2 5.7-5.5 2.1-11 4.3-16.3 6.8-10.5 5-19.8 11.6-26.9 21-.4.5.5 1.2 1 .7zM417.3 491.7c2.2 4.7 3.3 9.4 4.5 14.3h5.6c-.4-5.8-3.3-12.1-5.5-17-2.6-5.7-6.2-12.1-12.4-14.5-1.5-.5-2.2 1.4-1.4 2.3 3.7 4.6 6.7 9.7 9.2 14.9zM480 449.2c3 6.3 5.2 12.9 7.4 19.5 2.2 6.2 3.6 12.8 4.7 19.3.6 3.7 1 7.4 1.1 11.1.1 2.3-.3 4.6-.5 6.9h5.4c.9-5.2 0-11.3-.6-16-1-7.7-2.8-15.3-5.2-22.6-2.1-6.6-4.6-13.2-7.4-19.5-2.4-5.4-5.7-13.6-11.7-15.8-.9-.3-2 .7-1.7 1.7 2 5.3 6 10.1 8.5 15.4zM164.2 343.7c-11.4 4.1-9.8 37.2 5.1 31.4 7.1-2.8 6.2-14.1 4.8-20-.9-3.6-2.1-7.5-4.6-10.3-2.4-2.7-5.8-.9-6.6 2-.5 1.8 1.8 3 3.1 1.8 1.2-1.2.4-1.1 1-.2.7.9 1.1 2.1 1.5 3.1.8 2.1 1.5 4.3 1.9 6.5.7 3.7 1.4 14.5-4.8 13.5-4.7-.8-4.6-9-4.4-12.4.2-4.4 1.4-9.6 4.5-13 .8-1-.1-2.9-1.5-2.4zM89 261.6c13.5-1.4 28.3-1.6 41-6.9 3.1-1.3 1.3-5.5-1.8-4.2-12.6 5.4-26.8 4-39.6 8.7-1.1.4-1 2.6.4 2.4z"></path><path fill="#851919" d="M128.1 252.9c.2 3.2.2 7.2-3 8.8-3.7 1.9-5.7-4-7.3-5.9-1.1-1.3-3.5-.3-3.4 1.4.3 5.5 6.7 10.1 11.9 8.3 5.5-1.9 6.6-8.7 4.4-13.4-.6-1.1-2.7-.5-2.6.8zM220.3 242.6c9.1-.1 18.3-2.5 27.2-4.4 9.2-2 18.7-3.6 27.9-6 2.4-.6 1.9-4.6-.6-4.3-9 .8-18.1 3.5-26.8 5.5-9.3 2.1-18.9 4-27.9 7.1-1.2.3-1.1 2.1.2 2.1z"></path><path fill="#851919" d="M274.8 229.2c-.7 3.9 1.7 9.1-3.3 10.5-2.2.6-4.4-.3-6.2-1.5-2.2-1.4-1.4-3.4-2.5-5.3-.3-.6-1.1-.9-1.7-.7-3.4 1.2-2.4 5.6-.5 7.8 2.3 2.7 5.8 4.2 9.4 4.4 3.2.1 6.9-1.6 8.2-4.7s.6-7.2 0-10.4c-.3-1.8-3.1-1.8-3.4-.1z"></path><path fill="#851919" d="M262.4 235.4c.1 2.9 2.5 5.9 5.5 6 3.5.1 5-3.4 4.9-6.4-.1-2.7-4.2-4.3-5.5-1.5-.9 2-1 3.7-.9 5.9 0 2.5 2.5 3.5 4.6 2.6 3.4-1.4 4.9-4.9 5.1-8.4.1-3.5-5.5-4.3-6.1-.8-.4 2.6 0 5.3 1.7 7.3 2.1 2.5 5.6-.2 5-2.9-.2-.9-.9-1.8-.8-2.8-2-.3-4.1-.6-6.1-.8 0 1.5-.6 2.4-1.9 3.1 1.5.9 3.1 1.8 4.6 2.6-.1-1.3-.3-2.3.2-3.6-1.9-.3-3.9-.5-5.8-.8 0 .5.1 1 0 1.5.1-.4.8-.6 1.2-.5-.6-.1-1.4-1.5-1.9-2.1-1.2-1.6-3.9-.3-3.8 1.6zM119.6 257.2c-.6 2.8.3 6.8 3.9 6.6 3.3-.1 5.3-3.7 5.8-6.6.3-1.6-.4-3.3-2.1-3.7-1.6-.4-3.3.5-3.7 2.1-.3 1.1-.1 2.5-.5 3.5-1 2.7 2.4 4.7 4.6 3.5 1.2-.7 2.3-1.7 3.3-2.6 1.1-1.1 1.3-3.4 0-4.5-2-1.6-4.3-1.8-5.9.5-1.5 2.2 1 5.2 3.4 4.4h-.9c-.5-.3-.9-.5-1.4-.8.1.1.2.2.4.3v-4.5c-.6.6-1.2 1.3-2 1.7 1.5 1.2 3 2.3 4.6 3.5.4-1.2.1-2.4.4-3.5-2-.3-4-.5-6-.8-.1 1 .1-.4-.1.6 0 .1-.4 1.1-.2.8-.1.3-.3.5-.4.7.3-.5-.6.4 0 0-.5.4.5-.1 0 0 .4-.1.9-.1 1.2.1s.3.2.1 0c.3.4 0-.2 0-.1-.2-.5-.3-1-.4-1.4-.7-1.7-3.7-1.8-4.1.2z"></path></g></svg>