<svg xmlns="http://www.w3.org/2000/svg" version="1.1" xmlns:xlink="http://www.w3.org/1999/xlink" width="512" height="512" x="0" y="0" viewBox="0 0 512 512" style="enable-background:new 0 0 512 512" xml:space="preserve" class=""><g><path d="M450.263 27.793c-23.176-23.175-97.007 18.981-129.524 39.418-16.095-2.677-36.854-3.775-60.628-3.668-23.778-.107-44.54.993-60.636 3.669C166.947 46.759 93.121 4.631 69.959 27.793c-23.003 23.003 3.261 86.154 16.749 114.292-15.951 26.942-21.776 56.447-21.776 81.856 0 21.971 2.618 43.914 7.88 65.858 8.755 36.49 34.638 65.751 68.8 79.024-3.787 9.886-5.837 20.417-5.837 31.346 0 56.991 55.562 103.191 124.102 103.191 68.539 0 124.102-46.2 124.102-103.191 0-10.873-2.028-21.351-5.777-31.193 34.363-13.199 60.417-42.544 69.207-79.178 5.263-21.944 7.881-43.887 7.881-65.858 0-25.402-5.821-54.9-21.763-81.836 13.453-28.111 39.747-91.3 16.736-114.311z" style="" fill="#b1b9c6" data-original="#b1b9c6"></path><path d="M283.711 79.225c0 36.367-10.582 65.829-23.586 65.829-13.032 0-23.614-29.462-23.614-65.829 0-4.985.195-9.83.585-14.48a498 498 0 0 1 46.031.027c.389 4.651.584 9.496.584 14.453zM233.03 67.278c0 36.34-10.554 65.83-23.587 65.83-12.531 0-22.834-27.429-23.558-61.959a164.435 164.435 0 0 1 25.062-4.483c7.351-.724 14.703-1.309 22.054-1.699.029.779.029 1.531.029 2.311zM334.337 70.843c-.669 34.669-10.972 62.265-23.559 62.265-13.032 0-23.586-29.489-23.586-65.83 0-.78 0-1.532.028-2.312 8.438.445 16.903 1.142 25.341 2.033 7.434.78 14.702 2.089 21.776 3.844z" style="" fill="#91a2b5" data-original="#91a2b5"></path><path d="M423.112 83.737s3.759 8.521 4.372 18.073c.585 8.827-4.734 15.566-11.695 18.378-14.62-16.624-32.664-30.213-53.048-39.654.195-4.79 2.2-9.496 6.098-13.032 15.65-14.229 37.287-29.573 52.603-23.335 26.676 10.888 1.67 39.57 1.67 39.57zM97.09 83.737s-3.76 8.521-4.372 18.073c-.585 8.827 4.734 15.566 11.695 18.378 14.62-16.624 32.665-30.213 53.049-39.654-.195-4.79-2.2-9.496-6.098-13.032-15.65-14.229-37.287-29.573-52.603-23.335-26.677 10.888-1.671 39.57-1.671 39.57z" style="" fill="#ffffff" data-original="#ffffff"></path><path d="M454.149 23.888c-11.919-11.919-33.9-11.222-67.198 2.134-24.485 9.822-49.849 24.471-67.394 35.432-15.427-2.376-35.313-3.528-59.423-3.423-24.158-.105-44.057 1.048-59.489 3.426-17.573-10.97-42.961-25.628-67.407-35.435C99.947 12.666 77.97 11.968 66.05 23.887c-24.132 24.132-1.985 83.078 14.419 117.91-17.795 31.369-21.049 63.171-21.049 82.143 0 22.331 2.703 44.921 8.033 67.143 5.291 22.053 16.647 42 32.842 57.684 16.224 15.713 36.529 26.395 58.722 30.891a5.512 5.512 0 0 0 2.188-10.802c-20.124-4.077-38.535-13.761-53.242-28.005-14.689-14.226-24.991-32.325-29.792-52.338-5.128-21.381-7.729-43.106-7.729-64.572 0-23.828 5.449-69.307 41.943-106.173a5.51 5.51 0 1 0-7.833-7.753 151.262 151.262 0 0 0-17.088 20.631C65.458 81.873 60.308 45.219 73.845 31.682c13.092-13.095 55.123-.433 111.037 33.05-.169.047-.352.091-.52.138-10.25 2.917-20.066 6.474-29.173 10.571a5.51 5.51 0 1 0 4.521 10.05c8.621-3.878 17.931-7.25 27.665-10.02 15.519-4.406 39.976-6.573 72.759-6.419 32.726-.153 57.193 2.014 72.706 6.417 9.741 2.772 19.05 6.144 27.669 10.021a5.51 5.51 0 0 0 7.286-2.765 5.51 5.51 0 0 0-2.765-7.286c-9.105-4.096-18.92-7.653-29.177-10.572-.173-.049-.362-.094-.537-.143 55.896-33.497 97.925-46.158 111.038-33.044 13.514 13.514 8.372 50.167-13.601 98.962a151.252 151.252 0 0 0-17.087-20.629 5.51 5.51 0 1 0-7.833 7.753c36.494 36.866 41.943 82.344 41.943 106.172 0 21.464-2.6 43.189-7.728 64.572-4.802 20.014-15.104 38.112-29.793 52.338-14.708 14.245-33.119 23.928-53.243 28.005a5.51 5.51 0 1 0 2.188 10.802c22.193-4.496 42.499-15.178 58.723-30.891 16.195-15.684 27.551-35.631 32.842-57.684 5.33-22.225 8.033-44.814 8.033-67.143 0-18.971-3.253-50.771-21.046-82.138 7.089-15.092 16.072-36.51 21.156-57.484 6.949-28.661 4.675-48.993-6.759-60.427z" style="" fill="#67828e" data-original="#67828e"></path><path d="M398.231 250.682h-34.596a5.511 5.511 0 0 1 0-11.022h34.596a5.51 5.51 0 1 1 0 11.022zM391.94 283.182a5.512 5.512 0 0 1-1.913-.344l-28.305-10.483a5.511 5.511 0 0 1 3.828-10.336l28.305 10.483a5.51 5.51 0 0 1-1.915 10.68zM156.587 250.682h-34.595a5.511 5.511 0 0 1 0-11.022h34.595a5.51 5.51 0 1 1 0 11.022zM128.282 283.182a5.512 5.512 0 0 1-1.914-10.68l28.305-10.483a5.512 5.512 0 0 1 3.828 10.336l-28.305 10.483a5.522 5.522 0 0 1-1.914.344z" style="" fill="#91a2b5" data-original="#91a2b5"></path><path d="M328.917 170.052h-18.149a5.51 5.51 0 1 1 0-11.022h18.149a5.511 5.511 0 0 1 0 11.022zM209.453 170.052h-18.149a5.51 5.51 0 1 1 0-11.022h18.149a5.51 5.51 0 1 1 0 11.022z" style="" fill="#ffffff" data-original="#ffffff"></path><path d="M298.712 276.615c-4.595 5.542-10.22 10.36-16.402 13.979-7.491 4.373-15.79 6.99-24.004 6.962-14.981-.056-30.13-8.883-40.155-21.107-7.435-8.967-12.086-19.744-11.974-30.187.028-3.731.668-7.379 2.005-10.916 11.111-29.434 30.687-8.771 50.347-8.716 19.66.056 39.403-20.468 50.292 9.05 4.985 13.507-.084 28.906-10.109 40.935z" style="" fill="#67828e" data-original="#67828e"></path><path d="M298.712 276.615c-4.595 5.542-10.22 10.36-16.402 13.979-7.491 4.373-15.79 6.99-24.004 6.962-14.981-.056-30.13-8.883-40.155-21.107 4.594-5.542 10.219-10.36 16.401-13.98 7.491-4.371 15.79-6.989 24.004-6.962 14.983.057 30.132 8.884 40.156 21.108z" style="" fill="#fd80a6" data-original="#fd80a6"></path><path d="M313.997 233.764c-9.42-25.493-26.78-20.033-39.457-16.044-2.952.928-5.957 1.863-8.918 2.522v-11.468h4.205a5.51 5.51 0 1 0 0-11.022h-19.432a5.51 5.51 0 1 0 0 11.022h4.205v12.028c-3.94-.591-8.025-1.904-12.009-3.187-12.649-4.07-29.973-9.646-39.561 15.786-4.845 12.853-2.147 28.171 7.404 42.027 11.54 16.741 30.322 27.595 47.851 27.652h.14c17.489 0 36.274-10.718 47.891-27.338 9.642-13.793 12.441-29.093 7.681-41.978zm-16.714 35.663c-9.471 13.548-25.073 22.632-38.859 22.631h-.103c-13.811-.045-29.408-9.243-38.812-22.886-7.471-10.839-9.719-22.46-6.166-31.885 3.505-9.298 7.291-12.296 12.592-12.296 3.6 0 7.899 1.384 13.28 3.115 5.444 1.752 11.566 3.699 17.882 3.983a5.48 5.48 0 0 0 3.014.9 5.48 5.48 0 0 0 3.4-1.18c5.048-.66 9.915-2.186 14.335-3.576 13.334-4.194 20.028-6.302 25.811 9.351 3.492 9.447 1.168 21.054-6.374 31.843z" style="" fill="#67828e" data-original="#67828e"></path><path d="M151.168 218.146a5.512 5.512 0 0 1-3.897-9.408c7.195-7.195 16.761-11.157 26.935-11.157 10.175 0 19.74 3.962 26.934 11.157a5.512 5.512 0 0 1-7.794 7.794c-5.113-5.113-11.91-7.929-19.141-7.929-7.231 0-14.029 2.816-19.142 7.929a5.489 5.489 0 0 1-3.895 1.614zM369.054 218.146c-1.41 0-2.82-.538-3.897-1.614-10.555-10.554-27.728-10.554-38.283 0a5.512 5.512 0 0 1-7.794-7.794c14.852-14.851 39.018-14.851 53.87 0a5.512 5.512 0 0 1-3.896 9.408z" style="" fill="#605c5d" data-original="#605c5d"></path><path d="M318.094 395.46c43.065-55.76 130.255-145.747 154.025-107.218 23.77 38.528-113.391 171.932-113.391 171.932l-40.634-64.714z" style="" fill="#b1b9c6" data-original="#b1b9c6"></path><path d="M358.728 465.684a5.511 5.511 0 0 1-3.843-9.461c.342-.332 34.48-33.627 65.243-71.126 18.065-22.021 58.839-75.259 47.301-93.962-2.646-4.289-6.169-6.406-11.087-6.665-13.635-.705-36.581 12.963-64.631 38.513-22.549 20.54-48.44 48.894-69.256 75.846a5.511 5.511 0 0 1-8.723-6.737c32.385-41.93 103.988-120.688 143.187-118.628 8.49.446 15.367 4.555 19.889 11.884 11.386 18.456-4.384 53.392-48.212 106.803-31.155 37.967-65.682 71.637-66.027 71.972a5.488 5.488 0 0 1-3.841 1.561z" style="" fill="#67828e" data-original="#67828e"></path><path d="M198.468 395.46C155.403 339.7 68.213 249.713 44.443 288.242c-23.77 38.528 113.392 171.932 113.392 171.932l40.633-64.714z" style="" fill="#b1b9c6" data-original="#b1b9c6"></path><path d="M157.834 465.684a5.495 5.495 0 0 1-3.841-1.56c-.345-.336-34.873-34.006-66.028-71.972-43.828-53.411-59.599-88.347-48.212-106.803 4.521-7.329 11.399-11.439 19.889-11.884 39.174-2.02 110.803 76.697 143.187 118.628a5.511 5.511 0 0 1-8.723 6.737c-20.816-26.952-46.706-55.306-69.256-75.846-28.05-25.55-50.999-39.219-64.631-38.513-4.918.258-8.441 2.376-11.087 6.665-11.544 18.712 29.269 71.988 47.352 94.025 30.767 37.493 64.851 70.731 65.192 71.062a5.51 5.51 0 0 1-3.842 9.461z" style="" fill="#67828e" data-original="#67828e"></path><path d="M504.124 250.846c-5.763 0-11.319-1.927-15.904-5.561-5.374-4.262-8.767-10.361-9.554-17.175a5.512 5.512 0 0 1 4.842-6.107 5.515 5.515 0 0 1 6.107 4.842 14.56 14.56 0 0 0 5.453 9.803 14.554 14.554 0 0 0 10.788 3.075 5.519 5.519 0 0 1 6.107 4.842 5.512 5.512 0 0 1-4.842 6.107 25.843 25.843 0 0 1-2.997.174z" style="" fill="#6db850" data-original="#6db850"></path><path d="M442.589 455.343c-12.853 0-23.98-9.664-25.49-22.734a5.512 5.512 0 0 1 4.842-6.107 5.518 5.518 0 0 1 6.107 4.842c.927 8.028 8.214 13.802 16.241 12.878a5.512 5.512 0 0 1 1.265 10.949c-.996.116-1.986.172-2.965.172z" style="" fill="#fe518e" data-original="#fe518e"></path><path d="M39.31 430.444c-5.763 0-11.319-1.927-15.904-5.561-5.374-4.262-8.767-10.361-9.554-17.175a5.512 5.512 0 0 1 10.949-1.265 14.564 14.564 0 0 0 5.453 9.803 14.564 14.564 0 0 0 10.788 3.075c3.02-.341 5.757 1.818 6.107 4.842a5.512 5.512 0 0 1-4.842 6.107 25.83 25.83 0 0 1-2.997.174zM218.267 39.671c-5.763 0-11.319-1.927-15.904-5.561-5.374-4.262-8.767-10.361-9.554-17.175a5.512 5.512 0 0 1 10.949-1.265 14.564 14.564 0 0 0 5.453 9.803 14.558 14.558 0 0 0 10.788 3.075 5.515 5.515 0 0 1 6.107 4.842 5.512 5.512 0 0 1-4.842 6.107 25.856 25.856 0 0 1-2.997.174z" style="" fill="#ffcc6b" data-original="#ffcc6b"></path><path d="M289.673 41.823a5.512 5.512 0 0 1-.568-10.992c8.038-.843 13.891-8.068 13.048-16.105a5.512 5.512 0 0 1 10.962-1.15c1.476 14.082-8.779 26.739-22.86 28.217-.196.02-.39.03-.582.03z" style="" fill="#fe518e" data-original="#fe518e"></path><path d="M15.751 110.792a25.521 25.521 0 0 1-13.049-3.583 5.51 5.51 0 0 1 5.619-9.481c6.952 4.121 15.961 1.817 20.081-5.135a5.51 5.51 0 1 1 9.481 5.619c-4.79 8.083-13.354 12.58-22.132 12.58z" style="" fill="#6db850" data-original="#6db850"></path><path d="M482.435 397.225a5.512 5.512 0 0 1-.568-10.992 14.558 14.558 0 0 0 9.859-5.35 14.564 14.564 0 0 0 3.188-10.755 5.511 5.511 0 0 1 10.962-1.15c1.477 14.082-8.778 26.739-22.859 28.217a5.7 5.7 0 0 1-.582.03zM482.624 164.128a5.511 5.511 0 0 1-5.511-5.511c0-9.958 6.007-14.965 10.834-18.988 4.513-3.762 6.868-5.939 6.868-10.522s-2.355-6.759-6.868-10.521c-4.827-4.023-10.834-9.03-10.834-18.988 0-9.954 6.008-14.958 10.835-18.979 4.512-3.758 6.867-5.933 6.867-10.51a5.51 5.51 0 1 1 11.022 0c0 9.954-6.008 14.958-10.835 18.979-4.512 3.758-6.867 5.933-6.867 10.51 0 4.583 2.355 6.76 6.869 10.522 4.826 4.022 10.833 9.029 10.833 18.987 0 9.958-6.007 14.965-10.834 18.988-4.513 3.762-6.868 5.938-6.868 10.521a5.512 5.512 0 0 1-5.511 5.512z" style="" fill="#ffcc6b" data-original="#ffcc6b"></path><path d="M28.178 257.629a5.51 5.51 0 0 1-5.511-5.511c0-4.583-2.355-6.76-6.868-10.521-4.827-4.023-10.834-9.03-10.834-18.988s6.007-14.965 10.834-18.988c4.513-3.762 6.868-5.939 6.868-10.522 0-4.577-2.355-6.752-6.867-10.51-4.827-4.02-10.835-9.025-10.835-18.979a5.51 5.51 0 1 1 11.022 0c0 4.577 2.355 6.752 6.867 10.51 4.827 4.021 10.835 9.025 10.835 18.979 0 9.958-6.007 14.965-10.834 18.988-4.513 3.762-6.868 5.938-6.868 10.521 0 4.583 2.355 6.76 6.868 10.522 4.827 4.023 10.834 9.029 10.834 18.988a5.51 5.51 0 0 1-5.511 5.511z" style="" fill="#fe518e" data-original="#fe518e"></path></g></svg>