<svg xmlns="http://www.w3.org/2000/svg" version="1.1" xmlns:xlink="http://www.w3.org/1999/xlink" width="512" height="512" x="0" y="0" viewBox="0 0 512 512" style="enable-background:new 0 0 512 512" xml:space="preserve" class=""><g><linearGradient id="a"><stop offset="0" stop-color="#f4eccd"></stop><stop offset=".569" stop-color="#f4daa7"></stop><stop offset="1" stop-color="#d19c7d"></stop></linearGradient><linearGradient xlink:href="#a" id="c" x1="252.269" x2="252.269" y1="180.446" y2="444.754" gradientUnits="userSpaceOnUse"></linearGradient><radialGradient id="d" cx="9.96" cy="281.938" r="198.855" gradientUnits="userSpaceOnUse"><stop offset="0" stop-color="#fdecda"></stop><stop offset=".415" stop-color="#fdecda"></stop><stop offset=".484" stop-color="#fbdfca"></stop><stop offset=".599" stop-color="#f7c1a6"></stop><stop offset="1" stop-color="#f7bfa4"></stop></radialGradient><linearGradient id="b"><stop offset="0" stop-color="#f7bfa4"></stop><stop offset=".289" stop-color="#f8c8af"></stop><stop offset=".796" stop-color="#fbe1cc"></stop><stop offset="1" stop-color="#fdecda"></stop></linearGradient><radialGradient xlink:href="#b" id="e" cx="50.312" cy="199.766" r="31.21" gradientUnits="userSpaceOnUse"></radialGradient><linearGradient id="f" x1="276.481" x2="276.991" y1="343.531" y2="404.552" gradientUnits="userSpaceOnUse"><stop offset="0" stop-color="#f7bfa4"></stop><stop offset=".316" stop-color="#f7c2a7"></stop><stop offset=".561" stop-color="#f8cab1"></stop><stop offset=".782" stop-color="#fad7c1"></stop><stop offset=".988" stop-color="#fdebd8"></stop><stop offset="1" stop-color="#fdecda"></stop></linearGradient><radialGradient xlink:href="#b" id="g" cx="262.829" cy="129.64" r="191.192" gradientTransform="matrix(1 0 0 .809 0 24.734)" gradientUnits="userSpaceOnUse"></radialGradient><radialGradient id="h" cx="-2512.359" cy="-369.948" r="62.293" gradientTransform="matrix(-.626 -.399 -.301 .472 -1527.514 -532.919)" gradientUnits="userSpaceOnUse"><stop offset="0" stop-color="#f7bfa4"></stop><stop offset=".786" stop-color="#fdecda"></stop></radialGradient><radialGradient xlink:href="#b" id="i" cx="409.811" cy="225.978" r="46.176" gradientUnits="userSpaceOnUse"></radialGradient><radialGradient xlink:href="#b" id="j" cx="393.909" cy="271.424" r="38.131" gradientUnits="userSpaceOnUse"></radialGradient><radialGradient id="k" cx="200.854" cy="389.856" r="62.293" gradientTransform="matrix(.979 -.205 .115 .548 91.417 132.486)" gradientUnits="userSpaceOnUse"><stop offset="0" stop-color="#f7bfa4"></stop><stop offset="1" stop-color="#fdecda"></stop></radialGradient><linearGradient xlink:href="#a" id="l" x1="278.181" x2="505.108" y1="68.558" y2="458.131" gradientUnits="userSpaceOnUse"></linearGradient><linearGradient xlink:href="#a" id="m" x1="215.34" x2="454.033" y1="63.239" y2="473.011" gradientUnits="userSpaceOnUse"></linearGradient><radialGradient xlink:href="#b" id="n" cx="492.378" cy="408.17" r="65.154" gradientUnits="userSpaceOnUse"></radialGradient><radialGradient xlink:href="#b" id="o" cx="369.789" cy="324.686" r="50.496" gradientTransform="matrix(-1 .025 .025 1 826.429 74.961)" gradientUnits="userSpaceOnUse"></radialGradient><radialGradient xlink:href="#b" id="p" cx="373.062" cy="220.962" r="58.904" gradientTransform="matrix(-.931 .364 .364 .931 760.379 77.938)" gradientUnits="userSpaceOnUse"></radialGradient><path fill="url(#a)" d="M165.029 109.338s-65.954 24.225-48.721 127.713C103.924 270.583 33.7 358.235 70.131 489.426h374.653s-40.437-436.14-279.755-380.088z" opacity="1" data-original="url(#a)"></path><path fill="#231f20" d="M444.784 490.926H70.131a1.499 1.499 0 0 1-1.445-1.099c-29.897-107.663 12.082-186.972 34.634-229.58 5.113-9.661 9.174-17.333 11.443-23.345-8.856-53.747 5.023-85.898 18.246-103.418 14.434-19.125 30.812-25.299 31.503-25.553a1.35 1.35 0 0 1 .175-.052c48.819-11.435 93.079-3.185 131.549 24.52 28.647 20.631 54.363 52.264 76.433 94.018 17.618 33.333 32.972 73.167 45.635 118.395 21.548 76.961 27.912 143.81 27.974 144.476a1.501 1.501 0 0 1-1.494 1.638zm-373.511-3h371.853c-1.117-10.708-8.114-72.328-27.726-142.355-19.789-70.665-56.832-164.587-120.921-210.74-37.707-27.155-81.11-35.247-129.009-24.054-1.236.483-16.776 6.828-30.178 24.662-12.84 17.088-26.3 48.545-17.504 101.367.043.257.018.521-.072.766-2.31 6.254-6.474 14.121-11.745 24.079-22.281 42.094-63.69 120.317-34.698 226.275z" opacity="1" data-original="#231f20"></path><path fill="url(#d)" d="M149.038 315.69 66.56 200.651l-40.248 18.53 101.846 167.648s-1.005 22.352 25.417-4.463-4.537-66.676-4.537-66.676z" opacity="1" data-original="url(#d)"></path><path fill="#231f20" d="M133.926 397.066a6.682 6.682 0 0 1-2.703-.541c-4.197-1.832-4.559-7.57-4.571-9.285L24.156 218.521l42.901-19.751 83.186 116.026c.952 1.248 31.144 41.479 4.4 68.622-9.011 9.145-15.833 13.647-20.717 13.648zM28.467 219.84l101.209 166.6-.021.456c-.064 1.55.309 5.812 2.772 6.882 2.037.885 7.358.443 20.078-12.465 25.185-25.561-4.352-64.314-4.653-64.703l-.034-.046-81.756-114.033z" opacity="1" data-original="#231f20"></path><path fill="url(#b)" d="M81.04 185.874s5.864-20.821-10.529-30.259-33.451-3.601-51.262 14.824c-17.81 18.425 12.593 53.713 12.593 53.713 2.096 1.689 9.918 7.574 21.291 7.254 13.817-.389 22.199-9.635 23.592-11.223 1.972-1.399 5.689-5.819 7.849-12.326 3.881-11.692-2.817-21.064-3.534-21.983z" opacity="1" data-original="url(#b)"></path><path fill="#231f20" d="M29.645 225.031a1.597 1.597 0 0 1-.635-.451c-1.281-1.486-31.153-36.628-12.53-55.893 18.851-19.502 36.759-24.582 53.231-15.102 15.199 8.751 12.437 26.762 11.507 31.131 1.773 1.807 6.126 6.998 6.262 14.524.131 7.247-3.66 14.482-11.266 21.504a1.616 1.616 0 1 1-2.193-2.377c6.883-6.354 10.324-12.756 10.226-19.027-.121-7.795-5.812-12.82-5.87-12.87a1.627 1.627 0 0 1-.501-1.661c.224-.802 5.308-19.735-9.779-28.421-15.224-8.771-31.354-4.011-49.292 14.547-16.579 17.151 12.361 51.192 12.656 51.534a1.618 1.618 0 0 1-1.816 2.562z" opacity="1" data-original="#231f20"></path><g fill="#231f20"><path d="M56 218.804a1.18 1.18 0 0 1-1.056-.652c-2.976-5.951-.39-13.865 4.241-18.776-6.419.241-11.601-2.067-12.905-4.958-.796-1.765-.204-3.579 1.625-4.978 14.957-11.564 31.18-5.324 31.863-5.052a1.18 1.18 0 0 1-.869 2.193c-.155-.062-15.682-5.999-29.556 4.729-1.396 1.067-1.045 1.845-.913 2.138 1.007 2.232 7.063 4.57 14.266 3.148l5.989-1.181-5.118 3.327c-5.59 3.634-9.563 12.256-6.513 18.356A1.179 1.179 0 0 1 56 218.804z" fill="#231f20" opacity="1" data-original="#231f20"></path><path d="M39.993 199.743c-2.468 0-4.712-.474-6.719-1.423-5.099-2.41-6.695-7.005-6.761-7.199a1.18 1.18 0 0 1 2.234-.756c.024.069 1.398 3.888 5.575 5.842 3.793 1.775 8.704 1.542 14.593-.692a1.18 1.18 0 0 1 .837 2.205c-3.554 1.348-6.815 2.023-9.759 2.023z" fill="#231f20" opacity="1" data-original="#231f20"></path><path d="M28.471 199.705c-1.474 0-2.533-.434-2.619-.47-.6-.253-.88-.945-.626-1.545a1.178 1.178 0 0 1 1.539-.629c.133.054 2.837 1.102 5.177-1.187a1.18 1.18 0 0 1 1.649 1.685c-1.748 1.71-3.643 2.146-5.12 2.146z" fill="#231f20" opacity="1" data-original="#231f20"></path></g><path fill="#ffffff" d="m173.919 489.211 2.96-31.91-64.76-80.41c5.95-46.34 29.03-72.21 29.03-72.21 31.82 17.02 62.78 31.39 93.42 45.77 2.75 1.29 5.5 2.59 8.25 3.89 23.52 11.08 46.88 22.3 70.33 34.89 2.9 1.55 5.79 3.13 8.69 4.73a762.126 762.126 0 0 1 32.02 18.65c18.64 11.49 27.83 21.2 36.51 36.77 8.5 15.26 11.75 29.11 13.28 39.83z" opacity="1" data-original="#ffffff"></path><path fill="#231f20" d="M405.379 490.711H172.273l3.056-32.942-64.779-80.435.082-.634c5.94-46.266 29.165-72.755 29.398-73.018l.786-.881 1.041.557c29.673 15.872 58.939 29.597 87.243 42.87l6.107 2.865c2.751 1.291 5.502 2.591 8.254 3.892 26.2 12.343 48.199 23.006 70.399 34.924a770.612 770.612 0 0 1 8.704 4.738 757.755 757.755 0 0 1 32.083 18.687c18.257 11.254 27.947 21.019 37.033 37.316 6.962 12.5 11.363 25.697 13.455 40.348zm-229.815-3h226.344c-2.13-13.599-6.341-25.916-12.85-37.6-8.804-15.793-18.221-25.272-35.986-36.223-10.335-6.369-20.789-12.458-31.957-18.614a763.719 763.719 0 0 0-8.673-4.721c-22.145-11.889-44.104-22.532-70.262-34.855-2.75-1.3-5.5-2.6-8.248-3.889l-6.107-2.865c-27.996-13.129-56.935-26.701-86.307-42.365-3.97 4.905-22.505 29.649-27.829 69.87l64.739 80.385z" opacity="1" data-original="#231f20"></path><path fill="url(#f)" d="m309.304 351.657-5.489 38.011c-.775 5.367-3.268 10.366-7.204 14.094-5.854 5.545-15.797 11.94-29.701 10.535-23.752-2.399-22.806-26.533-22.806-26.533l4.441-33.959z" opacity="1" data-original="url(#f)"></path><path fill="#231f20" d="m305.3 389.882 5.742-39.761a.023.023 0 0 0-.023-.026l-63.777 2.255c-.011 0-.02.009-.022.02l-4.411 33.734a1.5 1.5 0 0 0 2.975.39l4.082-31.216c.001-.011.011-.019.022-.02l57.649-2.038c.014-.001.025.012.023.026l-5.228 36.207a19.8 19.8 0 0 1-.169.984 1.477 1.477 0 0 0 1.039 1.72l.028.008c.818.227 1.67-.267 1.852-1.095.087-.397.161-.793.218-1.188z" opacity="1" data-original="#231f20"></path><path fill="#feadbc" d="M243.833 439.547c-.227 0-.453-.051-.663-.154-26.743-13.171-37.754-34.476-42.281-50.03-4.896-16.822-3.5-30.345-3.438-30.912a1.497 1.497 0 0 1 1.769-1.311l9.548 1.795 33.743 6.365a1.5 1.5 0 0 1 1.222 1.44l1.6 71.272a1.5 1.5 0 0 1-1.5 1.535z" opacity="1" data-original="#feadbc"></path><path fill="#231f20" d="m198.944 358.613 2.36.445 7.189 1.35 33.742 6.365 1.256 56.144.201 8.913.143 6.216c-50.824-25.03-44.891-79.433-44.891-79.433m0-3a3.001 3.001 0 0 0-2.983 2.675c-.063.579-1.49 14.389 3.488 31.494 4.612 15.843 15.825 37.543 43.058 50.956a3.004 3.004 0 0 0 2.939-.162 3 3 0 0 0 1.385-2.598l-.143-6.216-.201-8.912-1.256-56.143a3.001 3.001 0 0 0-2.443-2.881l-33.742-6.365-7.191-1.351-2.358-.445a3.02 3.02 0 0 0-.553-.052z" opacity="1" data-original="#231f20"></path><path fill="#ffffff" d="M243.691 431.831c-10.336-7.384-23.564-19.728-32.759-38.678-5.826-12.013-8.572-23.744-9.628-34.094l7.189 1.35c1.131 9.132 3.699 19.292 8.739 29.691 7.344 15.128 17.448 25.754 26.259 32.818z" opacity="1" data-original="#ffffff"></path><path fill="#feadbc" d="M285.102 446.699c-3.499 0-7.021-.134-10.466-.399a138.589 138.589 0 0 1-18.886-2.747 137.44 137.44 0 0 1-9.357-2.345 91.145 91.145 0 0 1-2.017-.594l-2.593-.794 15.723-13.601 49.717-43.032.798.25a135.044 135.044 0 0 1 12.932 4.803 150.3 150.3 0 0 1 5.812 2.675 140.064 140.064 0 0 1 9.649 5.228c1.264.752 2.565 1.562 3.87 2.406a126.444 126.444 0 0 1 5.183 3.514 132.724 132.724 0 0 1 9.182 7.168 120.322 120.322 0 0 1 4.818 4.317 125.537 125.537 0 0 1 4.744 4.675l1.176 1.228-1.363 1.014c-12.79 9.509-26.908 16.565-41.964 20.97-11.009 3.217-22.474 4.978-34.076 5.233-.972.021-1.933.031-2.882.031z" opacity="1" data-original="#feadbc"></path><path fill="#231f20" d="M307.572 384.869a133.117 133.117 0 0 1 12.788 4.75 150.56 150.56 0 0 1 5.749 2.646 137.958 137.958 0 0 1 9.541 5.17 121.5 121.5 0 0 1 3.82 2.374 123.103 123.103 0 0 1 5.124 3.475 130.524 130.524 0 0 1 9.079 7.088 118.524 118.524 0 0 1 4.762 4.267 123.224 123.224 0 0 1 4.693 4.624c-9.13 6.789-23.019 15.329-41.489 20.734-11.991 3.504-23.383 4.946-33.689 5.173a136.501 136.501 0 0 1-13.2-.366 136.833 136.833 0 0 1-18.683-2.717 136.65 136.65 0 0 1-9.261-2.321 85.105 85.105 0 0 1-1.992-.586l7.638-6.607 6.033-5.22zm-.699-3.363-1.265 1.094-49.085 42.485-6.033 5.219-7.638 6.607-4.101 3.547 5.184 1.59c.652.2 1.335.402 2.059.605 3.194.918 6.289 1.693 9.448 2.367a140.065 140.065 0 0 0 19.083 2.775 138.403 138.403 0 0 0 13.486.373c11.74-.259 23.335-2.04 34.469-5.293 15.228-4.456 29.506-11.591 42.438-21.207l2.727-2.028-2.351-2.455a128.259 128.259 0 0 0-4.807-4.737 122.487 122.487 0 0 0-4.872-4.365 133.932 133.932 0 0 0-9.28-7.244 126.945 126.945 0 0 0-5.244-3.556 123.618 123.618 0 0 0-3.908-2.429 141.358 141.358 0 0 0-9.753-5.285 152.372 152.372 0 0 0-5.874-2.704 136.9 136.9 0 0 0-13.087-4.862z" opacity="1" data-original="#231f20"></path><path fill="#ffffff" d="M358.435 414.638a169.648 169.648 0 0 1-45.974 16.532 169.496 169.496 0 0 1-42.797 3.181 172.726 172.726 0 0 1-17.21-1.779l6.033-5.22a163.643 163.643 0 0 0 52.782-2.064 164.107 164.107 0 0 0 42.404-14.918 119.378 119.378 0 0 1 4.762 4.268z" opacity="1" data-original="#ffffff"></path><path fill="#feadbc" d="M243.83 438.048s-18.704 34.249 16.295 47.313c0-.001 23.125-29.145-16.295-47.313z" opacity="1" data-original="#feadbc"></path><path fill="#231f20" d="m260.623 487.147-1.022-.381c-10.486-3.914-17.364-10.087-20.444-18.347-5.464-14.656 2.994-30.426 3.356-31.09l.672-1.23 1.273.586c13.119 6.047 20.931 13.973 23.216 23.559 3.266 13.695-5.979 25.551-6.373 26.049zm-16.098-47.112c-1.812 3.923-6.701 16.243-2.551 27.351 2.662 7.124 8.584 12.556 17.61 16.157 1.959-2.876 7.628-12.357 5.166-22.628-1.993-8.317-8.795-15.337-20.225-20.88z" opacity="1" data-original="#231f20"></path><path fill="#feadbc" d="M243.825 438.205s-1.958 38.975-38.623 31.816c0 0-4.479-36.934 38.623-31.816z" opacity="1" data-original="#feadbc"></path><path fill="#231f20" d="M211.62 472.342a48.261 48.261 0 0 1-6.705-.849l-1.071-.209-.131-1.083c-.077-.631-1.76-15.571 8.183-25.538 6.959-6.977 17.758-9.656 32.106-7.948l1.392.165-.07 1.4c-.038.756-1.072 18.621-13.39 28.259-5.477 4.284-12.291 6.226-20.314 5.803zm-5.009-3.587c9.577 1.647 17.466.114 23.46-4.569 9.346-7.3 11.617-20.359 12.123-24.65-12.653-1.25-22.127 1.184-28.174 7.246-7.472 7.49-7.582 18.504-7.409 21.973z" opacity="1" data-original="#231f20"></path><path fill="#feadbc" d="M235.446 456.798c-5.96-2.558-8.718-9.463-6.16-15.423l3.76-8.762c2.558-5.96 9.463-8.718 15.423-6.16 5.96 2.558 8.718 9.463 6.16 15.423l-3.76 8.762c-2.558 5.96-9.463 8.718-15.423 6.16z" opacity="1" data-original="#feadbc"></path><path fill="#231f20" d="M239.387 459.239a13.255 13.255 0 0 1-4.532-1.062c-6.711-2.88-9.827-10.682-6.947-17.393l3.76-8.761a13.156 13.156 0 0 1 7.258-7.076 13.153 13.153 0 0 1 10.135.129c6.711 2.88 9.827 10.682 6.947 17.393l-3.76 8.761a13.156 13.156 0 0 1-7.258 7.076 13.237 13.237 0 0 1-5.603.933zm4.984-32.229a10.216 10.216 0 0 0-4.334.723 10.17 10.17 0 0 0-5.613 5.473l-3.76 8.761c-2.228 5.191.183 11.226 5.373 13.453a10.182 10.182 0 0 0 7.84.099 10.17 10.17 0 0 0 5.613-5.473l3.76-8.761c2.228-5.191-.183-11.226-5.373-13.453a10.216 10.216 0 0 0-3.506-.822z" opacity="1" data-original="#231f20"></path><path fill="url(#b)" d="M122.949 287.939c-1.053-9.988-.28-19.845 2.106-29.37 3.673-14.666 2.853-29.887 3.173-45.002C131.905 39.76 376.59 30.76 405.533 178.513c17.644 90.069.694 182.57-131.089 201.679-77.059 11.175-145.262-33.139-151.495-92.253z" opacity="1" data-original="url(#b)"></path><path fill="url(#h)" d="M128.069 271.463c-11.182 17.519-2.155 43.269 20.163 57.513 22.317 14.244 49.474 11.59 60.656-5.929s2.155-43.269-20.163-57.513c-22.317-14.244-49.474-11.59-60.656 5.929z" opacity="1" data-original="url(#h)"></path><path fill="#231f20" d="M250.587 383.424c-67.193 0-123.413-41.114-129.129-95.328-1.05-9.965-.33-20.022 2.143-29.891 2.886-11.524 2.958-23.695 3.027-35.466.018-3.016.036-6.135.101-9.204.86-40.65 15.091-75.41 41.156-100.52 23.041-22.197 54.678-36.058 89.083-39.029 33.908-2.929 67.367 4.843 94.219 21.88 29.647 18.812 48.95 47.291 55.819 82.357 9.451 48.248 7.384 88.907-6.143 120.848-16.631 39.269-50.678 65.443-101.195 77.795a1.5 1.5 0 1 1-.712-2.914c90.763-22.194 126.126-87.853 105.107-195.152-15.157-77.363-86.745-107.01-146.837-101.824-62.137 5.366-125.659 49.692-127.499 136.623a614.041 614.041 0 0 0-.101 9.158c-.07 11.948-.143 24.303-3.117 36.177-2.386 9.528-3.083 19.234-2.069 28.848 5.701 54.071 63.379 94.716 131.326 92.56.823-.006 1.52.624 1.547 1.451a1.499 1.499 0 0 1-1.451 1.547c-1.764.057-3.525.084-5.275.084z" opacity="1" data-original="#231f20"></path><path fill="url(#b)" d="M431.391 241.4c-31.404-19.308-48.511 13.691-48.511 13.691-2.357 2.919-6.77 9.202-8.376 18.376-1.999 11.42 1.56 20.416 3.099 23.79 1.188 2.779 4.004 8.474 10.152 12.514 4.724 3.104 11.422 5.307 20.741 4.337 34.98-3.065 54.3-53.4 22.895-72.708z" opacity="1" data-original="url(#b)"></path><path fill="#231f20" d="M404.177 315.839c-21.772 0-27.934-17.921-27.998-18.114a1.5 1.5 0 0 1 2.85-.938c.248.743 6.362 18.213 29.313 15.828 19.925-1.746 32.771-18.555 36.285-33.434 3.601-15.246-1.641-28.892-14.022-36.503-8.84-5.435-17.321-7.085-25.208-4.903-13.641 3.772-21.112 17.865-21.186 18.007a1.5 1.5 0 0 1-2.662-1.382c.324-.625 8.117-15.374 23.025-19.51 8.73-2.421 18.018-.662 27.603 5.232 13.537 8.323 19.283 23.182 15.37 39.749-4.589 19.433-20.593 34.125-38.918 35.73a42.871 42.871 0 0 1-4.452.238z" opacity="1" data-original="#231f20"></path><path fill="url(#b)" d="M400.037 266.148c-.757 4.121.347 6.224-1.172 9.717-1.02 2.347-3.935 5.602-10.275 7.006-2.013 24.224 22.188 23.957 33.574 15.938 8.598-6.056 11.724-19.64 10.723-30.023-.238-1.639-.83-5.915-3.745-9.085-2.938-3.195-5.838-4.237-8.457-4.936-3.541-.945-10.646-1.87-15.372 1.596-4.02 2.947-5.001 8.288-5.276 9.787z" opacity="1" data-original="url(#b)"></path><path fill="#231f20" d="M388.568 283.743h-.034a1 1 0 0 1 .024-2c.074.013 4.448-.019 7.505-3.343 2.468-2.683 3.469-6.775 2.977-12.162-.39-4.266 1.329-7.955 4.839-10.389 5.276-3.657 13.908-3.994 20.526-.8 5.716 2.758 9.083 7.613 9.479 13.67a1 1 0 0 1-.933 1.063.995.995 0 0 1-1.063-.933c-.348-5.307-3.314-9.568-8.353-12-6.01-2.899-13.797-2.629-18.518.642-2.046 1.418-4.399 4.056-3.987 8.563.547 5.988-.637 10.605-3.519 13.721-3.571 3.867-8.449 3.968-8.943 3.968z" opacity="1" data-original="#231f20"></path><path fill="url(#k)" d="M395.991 291.421c4.269 20.34-20.569 42.768-55.476 50.094s-66.665-3.225-70.934-23.565 20.569-42.768 55.476-50.094 66.665 3.225 70.934 23.565z" opacity="1" data-original="url(#k)"></path><path fill="#b02920" d="M300.373 317.18c.66 16.29-23.42 37.41-53.2 38.49-20.61.74-41.72-11.53-46.45-26.28-2.22-6.89-.85-14.33 5.82-21.23 3.26-3.21 6.6-4.63 10.04-5 10.05-1.09 20.87 6.76 32.53 5.1 10.07-1.44 18.67-8.26 28.32-8.84 5.34-.32 11 1.26 17.41 6.73 3.63 3.1 5.37 6.91 5.53 11.03z" opacity="1" data-original="#b02920"></path><path fill="#fa8179" d="M300.373 317.18c.66 16.29-23.42 37.41-53.2 38.49-20.61.74-41.72-11.53-46.45-26.28.74-7.66 4.17-18.05 15.86-26.23 10.05-1.09 20.87 6.76 32.53 5.1 10.07-1.44 18.67-8.26 28.32-8.84 9.35 4.12 17.47 10.21 22.94 17.76z" opacity="1" data-original="#fa8179"></path><path fill="#603913" d="M245.41 356.701c-20.226 0-40.853-12.081-45.639-27.006-2.524-7.834-.432-15.522 6.053-22.23 3.192-3.144 6.671-4.872 10.652-5.299 4.938-.536 9.89.95 15.131 2.523 5.615 1.686 11.42 3.427 17.364 2.581 4.635-.663 9.052-2.541 13.324-4.357 4.828-2.053 9.821-4.175 15.078-4.491 6.346-.384 12.103 1.834 18.119 6.967 3.67 3.134 5.704 7.198 5.88 11.752.253 6.241-2.922 13.255-8.938 19.752-10.719 11.575-28.048 19.153-45.225 19.776-.599.022-1.199.032-1.799.032zm-26.841-52.645c-.63 0-1.256.031-1.878.099-3.516.378-6.606 1.921-9.446 4.718-5.922 6.127-7.854 13.122-5.57 20.211 4.678 14.587 25.508 26.3 45.462 25.587 16.664-.604 33.458-7.937 43.829-19.136 5.653-6.104 8.639-12.608 8.408-18.313v-.001c-.157-4.039-1.9-7.508-5.181-10.309-5.597-4.776-10.902-6.836-16.701-6.492-4.911.295-9.528 2.258-14.415 4.336-4.39 1.866-8.929 3.796-13.823 4.496-6.379.91-12.4-.898-18.222-2.646-4.35-1.307-8.493-2.55-12.463-2.55z" opacity="1" data-original="#603913"></path><path fill="#ffffff" d="M130.128 267.186c3.464 9.555 14.297 17.059 26.901 21.424l.011.044c22.525 7.878 50.847 5.801 53.223-12.362 0 0 .527-4.431.667-11.249 0 0-.009-.232-.016-.651.456-23.036-3.34-71.765-42.832-74.118-48.37-2.885-43.054 62.884-37.954 76.912z" opacity="1" data-original="#ffffff"></path><g fill="#231f20"><path d="M209.826 239.067s-14.64-41.678-48.206-32.223c-27.022 7.612-34.292 45.187-34.292 45.187l-23.836-20.873 16.071 4.502-7.042-10.254 15.321 3.573s.094-23.737 19.096-34.34c-5.697-3.009-5.691-13.761-5.691-13.761s8.895 10.447 16.308 9.872c7.412-.577 43.913-8.616 52.271 48.317z" fill="#231f20" opacity="1" data-original="#231f20"></path><path d="M156.079 288.435c17.65 6.901 51.625 7.819 54-10.344 0 0 .527-4.431.667-11.249 0 0-.009-.232-.016-.651-.086-5.033-1.722-36.782-25.629-38.527-25.922-1.961-53.611 51.157-29.022 60.771z" fill="#231f20" opacity="1" data-original="#231f20"></path><path d="M157.64 284.425c6.86 2.684 15.988 4.277 24.441 4.277 5.224 0 22.375-.804 23.724-11.166 0 0 .129-1.062.273-2.928.029-.431.057-.904.086-1.421.115-1.708.23-3.846.273-6.315 0-.129 0-.33-.014-.603-.057-3.358-1.148-32.823-21.628-34.316a14.34 14.34 0 0 0-1.105-.043c-13.218 0-28.001 17.969-31.876 33.569-.187.689-.33 1.363-.459 2.038-1.149 6.144-1.005 14.052 6.285 16.908z" fill="#231f20" opacity="1" data-original="#231f20"></path></g><path fill="#46beff" d="M157.64 284.425c6.86 2.684 15.988 4.277 24.441 4.277 5.224 0 22.375-.804 23.724-11.166 0 0 .129-1.062.273-2.928l.001-.013a4.57 4.57 0 0 0-.747-2.799c-5.224-7.998-16.61-13.535-29.794-13.535-8.435 0-16.12 2.265-21.939 5.988-1.154.738-1.982 1.903-2.24 3.249l-.004.02c-1.149 6.143-1.005 14.051 6.285 16.907z" opacity="1" data-original="#46beff"></path><ellipse cx="178.638" cy="260.309" fill="#231f20" rx="11.046" ry="15.781" transform="translate(-5.488 3.853)" opacity="1" data-original="#231f20"></ellipse><ellipse cx="171.898" cy="243.394" fill="#ffffff" rx="15.092" ry="8.47" transform="rotate(-37.57 171.8 243.266)" opacity="1" data-original="#ffffff"></ellipse><path fill="#ffffff" d="M355.548 270.314c-3.464 9.555-14.297 17.059-26.901 21.424l-.011.044c-22.525 7.878-50.847 5.801-53.223-12.362 0 0-.527-4.431-.667-11.249 0 0 .009-.232.016-.651-.456-23.036 3.34-71.765 42.832-74.118 48.37-2.885 43.055 62.885 37.954 76.912z" opacity="1" data-original="#ffffff"></path><path fill="#231f20" d="M275.85 242.195s14.64-41.678 48.206-32.223c27.022 7.612 34.292 45.187 34.292 45.187l23.836-20.873-16.071 4.502 7.042-10.254-15.321 3.573s-.9-25.61-19.096-34.34c5.697-3.009 5.691-13.761 5.691-13.761s-8.895 10.447-16.308 9.872c-7.412-.577-43.953-10.956-52.271 48.317z" opacity="1" data-original="#231f20"></path><path fill="#231f20" d="M307.176 292.5c18.391 4.575 52.202 1.117 52.222-17.2 0 0-.047-4.462-.784-11.241 0 0-.039-.229-.1-.643-.732-4.98-6.437-36.256-30.369-34.913-25.96 1.387-46.591 57.623-20.969 63.997z" opacity="1" data-original="#231f20"></path><path fill="#231f20" d="M308.208 288.323c7.148 1.78 16.405 2.186 24.788 1.099 5.181-.672 22.086-3.673 22.091-14.123 0 0-.008-1.07-.106-2.939-.027-.431-.059-.904-.097-1.42a127.622 127.622 0 0 0-.541-6.298c-.017-.128-.042-.327-.092-.596-.489-3.323-5.358-32.403-25.86-31.25-.374.02-.746.053-1.102.099-13.108 1.699-25.458 21.419-27.296 37.388a27.591 27.591 0 0 0-.193 2.08c-.348 6.241.811 14.065 8.408 15.96z" opacity="1" data-original="#231f20"></path><path fill="#46beff" d="M308.208 288.323c7.148 1.78 16.405 2.186 24.788 1.099 5.181-.672 22.086-3.673 22.091-14.123 0 0-.008-1.07-.106-2.939l-.001-.013a4.573 4.573 0 0 0-1.101-2.68c-6.209-7.26-18.212-11.287-31.287-9.592-8.365 1.084-15.695 4.318-20.987 8.759-1.05.881-1.721 2.142-1.804 3.51l-.001.021c-.348 6.239.811 14.063 8.408 15.958z" opacity="1" data-original="#46beff"></path><ellipse cx="325.932" cy="261.707" fill="#231f20" rx="11.046" ry="15.781" transform="matrix(.989 -.15 .15 .989 -35.481 51.7)" opacity="1" data-original="#231f20"></ellipse><ellipse cx="317.073" cy="245.798" fill="#ffffff" rx="15.092" ry="8.47" transform="rotate(-44.96 316.832 245.644)" opacity="1" data-original="#ffffff"></ellipse><g fill="#3c2415"><path d="M189.949 162.116s-27.857-17.993-38.479-13.742-14.753 10.838-18.093 10.802-1.211-10.712 17.961-18.862 42.45 12.949 43.95 14.514c2.839 2.963-.718 8.943-5.339 7.288zM295.16 159.798s39.435-19.315 53.71-10.709 26.896 22.071 29.3 21.683c4.62-.746 1.284-13.198-24.413-29.402s-61.393 7.578-63.723 9.399c-4.41 3.448-1.593 10.199 5.126 9.029z" fill="#3c2415" opacity="1" data-original="#3c2415"></path></g><g fill="#feadbc"><path d="m31.719 48.248 19.808 16.268 4.116-25.01 14.356 2.329-5.872 35.995 7.266 21.185-13.759 4.745-7.319-21.339-27.876-22.774zM112.086 68.962 95.15 74.908c.734 1.114 1.664 1.772 2.793 1.976 1.128.204 2.226.118 3.294-.257s1.967-.948 2.696-1.718 1.028-1.588.895-2.456l12.556-1.581c.461 3.266.082 6.213-1.138 8.84-1.219 2.628-2.933 4.787-5.139 6.475-2.207 1.688-4.759 2.841-7.655 3.458-2.898.617-5.789.518-8.674-.297-2.886-.814-5.595-2.391-8.13-4.729-2.534-2.337-4.578-5.634-6.128-9.888-1.178-3.357-1.741-6.544-1.686-9.562.054-3.019.569-5.783 1.543-8.297.974-2.512 2.316-4.712 4.025-6.597 1.708-1.885 3.612-3.338 5.71-4.361 2.097-1.021 4.335-1.565 6.712-1.628s4.691.468 6.942 1.59c2.251 1.125 4.384 2.889 6.4 5.294 2.015 2.407 3.736 5.559 5.162 9.456a71.71 71.71 0 0 1 1.022 3.154c.323 1.086.58 2.225.77 3.414zm-8.718-7.993c-.611-1.899-1.658-3.217-3.144-3.952-1.487-.734-2.956-.891-4.405-.467-1.451.424-2.655 1.39-3.611 2.896-.957 1.508-1.176 3.484-.66 5.93zM142.256 41.404c-2.57-.812-4.736-1.122-6.497-.932-1.762.19-3.009.542-3.742 1.057-.734.515-.879 1.037-.435 1.567.443.53 1.619.747 3.526.647a48.209 48.209 0 0 1 7.189.218 15.478 15.478 0 0 1 6.634 2.298c3.786 2.327 6.251 6.09 7.39 11.287.501 2.567.445 4.929-.168 7.086-.614 2.158-1.632 4.058-3.055 5.7a18.408 18.408 0 0 1-6.309 4.486c-2.43 1.053-4.935 1.647-7.515 1.782s-5.117-.174-7.609-.927a17.218 17.218 0 0 1-6.618-3.718l7.324-10.626c.832.907 1.917 1.598 3.255 2.07 1.336.474 2.583.565 3.738.273 1.274-.276 2.174-.721 2.702-1.335.526-.613.747-1.248.66-1.902-.088-.655-.459-1.224-1.114-1.708-.656-.483-1.563-.75-2.723-.801a390.71 390.71 0 0 0-4.873-.089 50.134 50.134 0 0 1-4.543-.247 20.103 20.103 0 0 1-4.156-.855 10.021 10.021 0 0 1-3.587-2.04c-1.401-1.222-2.488-2.61-3.263-4.168a14.68 14.68 0 0 1-1.459-4.886c-.198-1.7-.126-3.411.213-5.13a18.7 18.7 0 0 1 1.674-4.872c1.157-2.234 2.705-4.048 4.644-5.444a20.353 20.353 0 0 1 6.293-3.066 29.57 29.57 0 0 1 6.976-1.121c2.393-.097 4.676.016 6.845.338z" fill="#feadbc" opacity="1" data-original="#feadbc"></path></g><path fill="url(#a)" d="M251.051 75.277s213.062-33.102 211.716 189.394c-.016 2.689-.366 5.364-.98 7.982-3.501 14.93-14.704 70.649 5.524 98.792 23.489 32.681 24.922 117.77 24.922 117.77h-79.389c4.19-53.625-25.14-140.496-64.511-237.515-16.69-41.127-36.749-75.05-55.66-101.939l-41.622-74.484z" opacity="1" data-original="url(#a)"></path><path fill="#231f20" d="M492.234 490.715h-79.39a1.502 1.502 0 0 1-1.496-1.616c4.537-58.066-32.036-157.07-64.406-236.834-14.47-35.656-33.142-69.853-55.496-101.641a1.376 1.376 0 0 1-.083-.131L249.74 76.008a1.502 1.502 0 0 1 1.079-2.214c.234-.036 23.726-3.594 54.579-.454 28.515 2.902 69.368 12.276 102.064 40.457 38.1 32.837 57.211 83.602 56.804 150.883-.017 2.703-.359 5.5-1.02 8.315-3.742 15.959-14.421 70.162 5.282 97.575 23.493 32.686 25.146 115.127 25.204 118.62a1.497 1.497 0 0 1-1.498 1.525zm-77.779-3h76.24c-.345-11.592-3.368-85.854-24.601-115.395-20.442-28.441-9.582-83.739-5.767-100.01.608-2.597.924-5.17.939-7.649.401-66.352-18.354-116.341-55.746-148.578-32.082-27.66-72.271-36.883-100.335-39.75-25.142-2.568-45.314-.637-51.748.14l40.506 72.488c22.466 31.955 41.232 66.332 55.777 102.175 32.199 79.337 68.534 177.691 64.735 236.579z" opacity="1" data-original="#231f20"></path><path fill="#e0947a" d="m251.051 126.037-68.908 1.638s-4.369-36.872 27.801-37.894c32.171-1.021 41.107 36.256 41.107 36.256z" opacity="1" data-original="#e0947a"></path><path fill="url(#a)" d="M438.716 357.391c-42.704-45.909-55.66-70.067-60.255-121.842-4.596-51.775-7.149-65.562-41.872-95.179s-23.82-83.389-112.406-79.441c-77.354 3.447-56.991 68.079-56.991 68.079l19.781-.766s-5.341-35.465 24.255-34.851 33.844 58.213 73.73 78.979 60.823 86.098 60.312 134.027c-.511 47.93 23.875 66.087 42.278 89.369 18.402 23.282 21.376 93.449 21.376 93.449h59.88c-.001 0 12.617-85.915-30.088-131.824z" opacity="1" data-original="url(#a)"></path><path fill="#231f20" d="M468.804 490.715h-59.881a1.5 1.5 0 0 1-1.499-1.437c-.029-.697-3.163-69.949-21.053-92.583-3.117-3.944-6.484-7.828-9.741-11.585-16.366-18.881-33.29-38.405-32.86-78.73.53-49.716-21.583-112.938-59.505-132.681-20.124-10.477-31.228-29.929-41.024-47.09-9.626-16.863-17.94-31.427-32.045-31.72-7.308-.138-12.964 2.001-16.833 6.398-8.368 9.51-5.934 26.56-5.908 26.731a1.5 1.5 0 0 1-2.967.446c-.113-.753-2.673-18.582 6.615-29.149 4.48-5.098 10.929-7.613 19.155-7.425 15.805.328 24.509 15.576 34.587 33.231 9.592 16.803 20.463 35.847 39.804 45.917 23.637 12.306 38.062 38.111 46.002 57.591 9.876 24.233 15.387 52.584 15.118 77.783-.418 39.188 16.127 58.274 32.128 76.733 3.278 3.782 6.668 7.692 9.827 11.689 17.245 21.817 21.089 82.465 21.628 92.879h57.133c1.319-10.847 9.031-87.485-29.867-129.303-44.211-47.527-56.114-71.615-60.651-122.73-4.576-51.556-6.966-64.842-41.352-94.171-10.963-9.351-17.482-21.098-23.787-32.459-14.072-25.357-27.361-49.307-87.579-46.625-24.1 1.074-40.963 8.248-50.122 21.322-13.358 19.068-5.585 44.554-5.504 44.809a1.5 1.5 0 0 1-2.861.9c-.346-1.098-8.306-27.115 5.895-47.411 9.719-13.89 27.369-21.499 52.459-22.617 62.085-2.761 76.44 23.126 90.336 48.166 6.175 11.127 12.561 22.633 23.111 31.632 35.176 30.002 37.823 44.707 42.393 96.188 4.464 50.292 16.212 74.031 59.86 120.953 22.353 24.031 29.442 58.959 31.454 84.03 2.172 27.074-.95 48.817-.981 49.034a1.502 1.502 0 0 1-1.485 1.284z" opacity="1" data-original="#231f20"></path><path fill="url(#b)" d="M485.42 428.415s-15.44 32.89-36.72 60.8h-68.51c.41-7.98 2.99-16.87 10.01-25.15 18.77-22.17 64.09-64.85 64.09-64.85z" opacity="1" data-original="url(#b)"></path><path fill="#231f20" d="M449.442 490.715H378.61l.081-1.577c.502-9.761 3.989-18.523 10.364-26.043 18.608-21.98 63.752-64.544 64.206-64.972l1.026-.967 32.952 30.91-.463.986c-.154.331-15.753 33.356-36.885 61.073zm-67.645-3h66.159c18.685-24.665 32.916-53.339 35.637-58.958l-29.299-27.481c-6.84 6.477-46.011 43.751-62.949 63.759-5.596 6.599-8.803 14.222-9.548 22.68z" opacity="1" data-original="#231f20"></path><path fill="url(#b)" d="M455.558 379.929c3.921-6.218-1.054-14.189-8.361-13.375-.981.109-2.047.295-3.206.57-15.46 3.663-27.251 29.498-21.892 34.274s15.941 5.452 21.598 1.073c5.125-3.966 3.539-9.345 11.861-22.542z" opacity="1" data-original="url(#b)"></path><path fill="#231f20" d="M433.904 406.885c-4.729 0-9.567-1.483-12.803-4.368-1.935-1.724-2.335-5.1-1.156-9.761 2.329-9.213 11.472-24.195 23.7-27.092a28.62 28.62 0 0 1 3.386-.601c3.962-.438 7.717 1.376 9.822 4.737 2.109 3.369 2.1 7.557-.027 10.929-4.02 6.374-5.705 10.958-6.937 14.305-1.355 3.686-2.335 6.349-5.273 8.623-2.802 2.169-6.717 3.228-10.712 3.228zm14.322-38.888c-.284 0-.572.016-.862.048-.943.105-1.961.287-3.026.539-10.54 2.498-19.249 16.071-21.483 24.909-.999 3.953-.529 6.097.244 6.786 4.922 4.386 14.671 4.885 19.683 1.007 2.256-1.747 3.023-3.832 4.294-7.287 1.277-3.473 3.026-8.229 7.215-14.87 1.529-2.425 1.537-5.317.021-7.736-1.358-2.166-3.59-3.396-6.086-3.396z" opacity="1" data-original="#231f20"></path><path fill="url(#b)" d="M436.086 397.045s-5.439-19.311 9.765-28.064 31.025-3.34 47.543 13.749-11.679 49.817-11.679 49.817c-1.944 1.566-9.198 7.024-19.746 6.728-12.814-.36-20.589-8.936-21.88-10.409-1.829-1.298-5.276-5.397-7.28-11.432-3.601-10.844 2.612-19.536 3.277-20.389z" opacity="1" data-original="url(#b)"></path><path fill="#231f20" d="M483.752 433.362c.221-.086.423-.226.589-.418 1.188-1.378 28.893-33.971 11.621-51.839-17.484-18.087-34.092-22.799-49.37-14.007-14.096 8.116-11.535 24.821-10.672 28.873-1.645 1.676-5.681 6.49-5.808 13.47-.122 6.722 3.394 13.432 10.449 19.944a1.499 1.499 0 1 0 2.034-2.204c-6.383-5.893-9.575-11.83-9.484-17.646.112-7.23 5.391-11.89 5.444-11.936.438-.38.621-.982.465-1.541-.208-.743-4.923-18.303 9.07-26.359 14.119-8.135 29.079-3.72 45.716 13.492 15.376 15.907-11.465 47.478-11.737 47.795a1.499 1.499 0 0 0 1.683 2.376z" opacity="1" data-original="#231f20"></path></g></svg>