<svg xmlns="http://www.w3.org/2000/svg" version="1.1" xmlns:xlink="http://www.w3.org/1999/xlink" width="512" height="512" x="0" y="0" viewBox="0 0 512 512" style="enable-background:new 0 0 512 512" xml:space="preserve" class=""><g><linearGradient id="b" x1="276.024" x2="276.024" y1="138.676" y2="378.177" gradientTransform="rotate(5.57 286.461 201.348)" gradientUnits="userSpaceOnUse"><stop offset="0" stop-color="#2a2428"></stop><stop offset="1" stop-color="#4d4449"></stop></linearGradient><linearGradient id="c" x1="262.849" x2="263.36" y1="332.818" y2="393.84" gradientUnits="userSpaceOnUse"><stop offset="0" stop-color="#f7bfa4"></stop><stop offset=".316" stop-color="#f7c2a7"></stop><stop offset=".561" stop-color="#f8cab1"></stop><stop offset=".782" stop-color="#fad7c1"></stop><stop offset=".988" stop-color="#fdebd8"></stop><stop offset="1" stop-color="#fdecda"></stop></linearGradient><linearGradient id="a"><stop offset="0" stop-color="#f7bfa4"></stop><stop offset=".289" stop-color="#f8c8af"></stop><stop offset=".796" stop-color="#fbe1cc"></stop><stop offset="1" stop-color="#fdecda"></stop></linearGradient><radialGradient xlink:href="#a" id="d" cx="340.666" cy="263.601" r="191.22" gradientTransform="matrix(.999 .049 -.04 .808 -60.299 -108.443)" gradientUnits="userSpaceOnUse"></radialGradient><radialGradient id="e" cx="-1658.825" cy="-176.75" r="62.293" gradientTransform="matrix(-.523 -.527 -.397 .394 -788.873 -541.833)" gradientUnits="userSpaceOnUse"><stop offset="0" stop-color="#f7bfa4"></stop><stop offset=".786" stop-color="#fdecda"></stop></radialGradient><radialGradient xlink:href="#a" id="f" cx="800.679" cy="506.982" r="46.176" gradientTransform="rotate(12.65 1768.227 -1374.512)" gradientUnits="userSpaceOnUse"></radialGradient><radialGradient xlink:href="#a" id="g" cx="784.777" cy="552.428" r="38.131" gradientTransform="rotate(12.65 1768.227 -1374.512)" gradientUnits="userSpaceOnUse"></radialGradient><linearGradient id="h" x1="476.352" x2="476.352" y1="50.233" y2="304.001" gradientTransform="rotate(12.48 335.977 -707.576)" gradientUnits="userSpaceOnUse"><stop offset="0" stop-color="#4d4449"></stop><stop offset="1" stop-color="#795c58"></stop></linearGradient><radialGradient id="i" cx="329.822" cy="315.939" r="62.293" gradientTransform="matrix(1 .014 -.008 .559 -7.517 127.983)" gradientUnits="userSpaceOnUse"><stop offset="0" stop-color="#f7bfa4"></stop><stop offset="1" stop-color="#fdecda"></stop></radialGradient><radialGradient id="j" cx="-315.499" cy="171.948" r="62.307" gradientTransform="matrix(.273 -.034 .055 .499 304.58 232.148)" gradientUnits="userSpaceOnUse"><stop offset=".441" stop-color="#f7bfa4"></stop><stop offset="1" stop-color="#fdecda"></stop></radialGradient><radialGradient xlink:href="#a" id="k" cx="88.189" cy="426.6" r="52.639" gradientTransform="translate(4.186 2.369)" gradientUnits="userSpaceOnUse"></radialGradient><radialGradient xlink:href="#a" id="l" cx="67.668" cy="450.677" r="58.904" gradientTransform="translate(4.186 2.369)" gradientUnits="userSpaceOnUse"></radialGradient><radialGradient xlink:href="#a" id="m" cx="434.918" cy="427.851" r="52.639" gradientTransform="matrix(-1 -.004 -.004 1 893.295 2.369)" gradientUnits="userSpaceOnUse"></radialGradient><radialGradient xlink:href="#a" id="n" cx="414.396" cy="451.928" r="58.904" gradientTransform="matrix(-1 -.004 -.004 1 893.295 2.369)" gradientUnits="userSpaceOnUse"></radialGradient><path fill="url(#b)" d="M92.962 191.876s-10.079 60.935 11.599 100.43c-6.031-41.731-1.404-54.733-1.404-54.733s-1.192 22.435 27.897 42.671c28.134 7.681 164.782 94.806 164.782 94.806s124.799-21.632 156.37-116.198c13.585-40.692-1.048-114.563-1.048-114.563l-230.16-48.562-34.467 4.561c.001-.001-70.583-6.469-93.569 91.588z" opacity="1" data-original="url(#b)"></path><path fill="#231f20" d="M295.836 375.537a.485.485 0 0 1-.263-.076c-1.366-.871-136.907-87.173-164.648-94.746a.514.514 0 0 1-.15-.07c-22.261-15.487-26.914-32.48-27.869-39.629-.985 6.07-2.191 21.26 2.139 51.22a.49.49 0 0 1-.912.305c-21.511-39.19-11.754-100.134-11.653-100.745l.006-.031c11.916-50.834 36.843-73.133 55.655-82.889 19.832-10.283 37.243-9.169 38.377-9.08l34.416-4.555a.438.438 0 0 1 .165.006l230.16 48.562a.49.49 0 0 1 .378.384c.146.74 14.502 74.466 1.031 114.812-16.362 49.011-58.122 78.086-90.272 93.846-34.806 17.062-66.165 22.626-66.478 22.68a.546.546 0 0 1-.082.006zm-164.571-95.743c27.627 7.637 159.26 91.295 164.673 94.74 2.638-.484 32.76-6.248 66.053-22.572 31.974-15.678 73.5-44.585 89.752-93.266 12.939-38.756.012-108.682-1.002-113.998L220.98 96.221l-34.384 4.551a.434.434 0 0 1-.108.002c-.178-.015-17.782-1.477-37.945 8.996-18.61 9.666-43.275 31.775-55.1 82.202-.199 1.23-9.287 58.905 10.243 97.619-5.389-39.182-1.174-51.659-.988-52.183a.49.49 0 0 1 .949.19c-.013.221-.814 22.381 27.618 42.196z" opacity="1" data-original="#231f20"></path><path fill="#ffde17" d="M392.738 478.498h-253.48c0-60.17 21.66-68.43 59.88-88.7v-.01c4.11-2.17 8.41-4.49 12.89-7.03 25.72-14.56 66.76-16.83 90.21-4.24 2.85 1.52 5.69 3.08 8.54 4.65a762.126 762.126 0 0 1 32.17 18.73c18.64 11.49 27.83 21.2 36.51 36.77 8.5 15.26 11.75 29.11 13.28 39.83z" opacity="1" data-original="#ffde17" class=""></path><path fill="#231f20" d="M394.467 479.998H137.758v-1.5c0-58.096 20.75-69.012 55.126-87.096 1.554-.818 3.139-1.651 4.754-2.506v-.002l.8-.433a477.879 477.879 0 0 0 12.851-7.008c26.73-15.132 67.848-17.04 91.659-4.257a706.92 706.92 0 0 1 8.507 4.631 757.903 757.903 0 0 1 32.28 18.793c18.256 11.254 27.947 21.019 37.033 37.316 6.963 12.501 11.364 25.699 13.455 40.349zm-253.705-3h250.234c-2.129-13.599-6.34-25.914-12.849-37.601-8.805-15.792-18.222-25.271-35.987-36.222a754.672 754.672 0 0 0-31.957-18.614l-.149-.079a729.403 729.403 0 0 0-8.522-4.641c-22.623-12.145-63.271-10.211-88.766 4.223a479.174 479.174 0 0 1-12.22 6.676l-.706.384c-1.894 1.005-3.748 1.979-5.56 2.933-34.202 17.993-53.18 27.98-53.518 82.941z" opacity="1" data-original="#231f20"></path><path fill="url(#c)" d="m295.673 340.944-5.489 38.011c-.775 5.367-3.268 10.366-7.204 14.094-5.854 5.545-15.797 11.94-29.701 10.535-23.752-2.399-22.806-26.533-22.806-26.533l4.441-33.959z" opacity="1" data-original="url(#c)"></path><path fill="#231f20" d="m291.668 379.169 5.742-39.761a.023.023 0 0 0-.023-.026l-63.777 2.255c-.011 0-.02.009-.022.02l-4.411 33.734a1.5 1.5 0 0 0 2.975.39l4.082-31.216c.001-.011.011-.019.022-.02l57.649-2.038c.014-.001.025.012.023.026L288.7 378.74c-.048.331-.105.659-.17.984a1.477 1.477 0 0 0 1.039 1.72l.028.008c.818.227 1.67-.267 1.852-1.095.088-.397.162-.793.219-1.188z" opacity="1" data-original="#231f20"></path><path fill="#ffffff" d="M222.211 383.619s33.871-7.274 53.725-5.881-42.112 47.785-42.112 47.785-11.08-24.155-11.613-41.904z" opacity="1" data-original="#ffffff"></path><path fill="#231f20" d="M233.824 427.022a1.503 1.503 0 0 1-1.364-.875c-.458-.997-11.213-24.636-11.749-42.483a1.502 1.502 0 0 1 1.185-1.512c1.392-.298 34.307-7.302 54.145-5.91 3.557.249 4.762 1.858 5.146 3.165.849 2.883-.549 8.91-22.395 27.877-11.728 10.183-23.948 19.348-24.07 19.439a1.491 1.491 0 0 1-.898.299zm-10.059-42.193c.823 14.393 8.256 32.733 10.67 38.355 19.695-14.898 45.511-37.372 43.875-42.93-.222-.752-1.648-.962-2.479-1.021-17.291-1.21-45.801 4.321-52.066 5.596z" opacity="1" data-original="#231f20"></path><path fill="#231f20" d="M235.245 391.791a1.5 1.5 0 0 1-.203-2.986c1.034-.142 25.448-3.476 37.337-2.663a1.5 1.5 0 1 1-.204 2.993c-11.584-.789-36.474 2.609-36.724 2.644a2.05 2.05 0 0 1-.206.012z" opacity="1" data-original="#231f20"></path><path fill="#fbb040" d="M234.915 422.925s-7.247-26.118-5.828-46.274c1.42-20.157-14.787-3.484-16.821 1.643s-1.479 17.561 3.831 29.106 16.599 20.809 16.599 20.809z" opacity="1" data-original="#fbb040"></path><path fill="#231f20" d="M232.696 429.708a1.5 1.5 0 0 1-.952-.341c-.472-.387-11.617-9.618-17.01-21.342-5.336-11.601-6.154-24.508-3.862-30.285 1.382-3.484 9.789-13.482 15.523-12.178 3.25.74 4.659 4.506 4.188 11.193-1.385 19.659 5.705 45.509 5.777 45.768.09.325.068.671-.062.982l-2.219 5.283a1.498 1.498 0 0 1-1.383.92zm-7.453-61.272c-3.509 0-10.297 7.172-11.582 10.41-1.689 4.259-1.65 16.079 3.799 27.926 3.96 8.609 11.446 16.005 14.66 18.935l1.212-2.886c-1.03-3.842-7.071-27.396-5.741-46.275.336-4.774-.343-7.711-1.862-8.058a2.13 2.13 0 0 0-.486-.052z" opacity="1" data-original="#231f20"></path><path fill="#ffde17" d="M216.193 369.323s-2.57 21.224 6.091 37.832 12.253 17.786 9.1 21.105c-3.154 3.318-39.087-10.468-45.464-19.926-6.378-9.458-3.694-14.291-1.353-16.491s13.787-5.143 13.787-5.143 3.221-17.12 17.839-17.377z" opacity="1" data-original="#ffde17" class=""></path><path fill="#231f20" d="M229.398 430.264c-.327 0-.678-.016-1.054-.048-9.311-.777-37.74-12.252-43.669-21.044-6.999-10.38-3.716-15.998-1.136-18.423 2.23-2.098 10.44-4.438 13.563-5.272.983-3.755 5.492-17.415 19.064-17.653.425 0 .849.173 1.14.495s.428.754.376 1.185c-.025.208-2.405 20.972 5.932 36.959 3.052 5.853 5.44 9.726 7.184 12.553 3.184 5.164 4.502 7.302 1.673 10.278-.623.654-1.612.97-3.073.97zm-14.862-59.326c-11.785 1.431-14.59 15.419-14.709 16.04a1.507 1.507 0 0 1-1.1 1.174c-4.282 1.101-11.633 3.373-13.133 4.782-4.173 3.922-1.45 10.083 1.569 14.56 6.282 9.316 39.523 21.346 43.191 19.672 1.066-1.124 1.123-1.335-2.109-6.577-1.768-2.866-4.188-6.792-7.29-12.74-7.405-14.198-6.841-31.362-6.419-36.911zm15.858 56.208c-.001 0-.001 0 0 0z" opacity="1" data-original="#231f20"></path><path fill="#231f20" d="m197.363 400.321-.056-.001a1.5 1.5 0 0 1-1.444-1.554c.014-.378.351-9.306 1.325-13.634a1.5 1.5 0 1 1 2.927.658c-.914 4.058-1.25 12.995-1.254 13.085a1.5 1.5 0 0 1-1.498 1.446z" opacity="1" data-original="#231f20"></path><path fill="#fbb040" d="M230.945 423.763s23.537-33.805 50.514-49.518 34.554-13.627 39.278-6.148 10.401 13.217 10.401 13.217l-89.537 43.902z" opacity="1" data-original="#fbb040"></path><path fill="#231f20" d="M241.601 426.716a1.55 1.55 0 0 1-.203-.014l-10.656-1.453a1.498 1.498 0 0 1-1.028-2.344c.237-.341 24.039-34.258 50.99-49.957 27.437-15.982 35.92-14.174 41.3-5.652 4.576 7.244 10.144 12.907 10.2 12.964a1.498 1.498 0 0 1-.406 2.402l-89.537 43.901a1.5 1.5 0 0 1-.66.153zm-7.974-4.102 7.723 1.054 87.302-42.806c-2.011-2.206-5.812-6.625-9.185-11.965-3.665-5.801-9.271-9.658-37.254 6.643-22.617 13.176-43.073 39.606-48.586 47.074z" opacity="1" data-original="#231f20"></path><path fill="#ffde17" d="M232.279 429.502s-3.03-3.395-1.334-5.739 34.411-25.887 63.983-36.251c29.572-10.365 44.776-9.261 48.155-5.646 3.379 3.614 2.385 8.104 4.208 10.587s10.266 7.487 6.487 13.862c-.292.493-1.852.398-1.852.398s-28.661-.387-67.241 10.503-46.457 18.439-52.406 12.286z" opacity="1" data-original="#ffde17" class=""></path><path fill="#231f20" d="M237.394 433.235c-2.496 0-4.385-.82-6.194-2.69l-.041-.044c-1.424-1.596-3.327-4.996-1.43-7.617 2.197-3.036 35.446-26.534 64.703-36.788 30.388-10.651 45.79-9.487 49.747-5.255 2.272 2.431 2.818 5.189 3.257 7.407.271 1.372.506 2.557 1.064 3.316.318.434 1.032 1.095 1.788 1.794 3.12 2.885 8.341 7.713 4.78 13.72-.627 1.059-2.103 1.205-3.233 1.131-.211-.004-28.843-.25-66.742 10.449-14.071 3.972-24.051 7.5-31.337 10.076-7.814 2.763-12.73 4.501-16.362 4.501zm-4.012-4.751c2.974 3.052 6.491 1.976 19.375-2.578 7.325-2.59 17.357-6.137 31.522-10.135 38.344-10.824 67.386-10.557 67.669-10.56.26.015.537.005.735-.016 1.772-3.473-.958-6.425-4.43-9.636-.902-.835-1.682-1.555-2.17-2.221-.952-1.298-1.261-2.857-1.588-4.51-.403-2.033-.819-4.136-2.506-5.94-2.015-2.154-14.305-5.271-46.563 6.038-29.388 10.299-61.339 33.296-63.272 35.725-.795 1.098.738 3.267 1.228 3.833z" opacity="1" data-original="#231f20"></path><circle cx="242.267" cy="424.325" r="6.085" fill="#ffffff" opacity="1" data-original="#ffffff"></circle><path fill="#231f20" d="M242.253 431.91a7.526 7.526 0 0 1-4.854-1.769 7.54 7.54 0 0 1-2.688-5.146c-.37-4.167 2.719-7.857 6.885-8.227a7.528 7.528 0 0 1 5.538 1.738c1.554 1.3 2.508 3.127 2.688 5.146s-.438 3.985-1.738 5.539-3.128 2.509-5.146 2.688c-.23.021-.458.031-.685.031zm.023-12.171a4.59 4.59 0 0 0-4.576 4.992 4.55 4.55 0 0 0 1.625 3.11 4.53 4.53 0 0 0 3.348 1.051c1.22-.108 2.325-.685 3.111-1.624s1.159-2.129 1.051-3.349-.685-2.325-1.625-3.11a4.544 4.544 0 0 0-2.934-1.07z" opacity="1" data-original="#231f20"></path><circle cx="222.212" cy="421.107" r="6.085" fill="#ffffff" opacity="1" data-original="#ffffff"></circle><path fill="#231f20" d="M222.198 428.692a7.522 7.522 0 0 1-4.854-1.769 7.536 7.536 0 0 1-2.688-5.146c-.37-4.167 2.719-7.857 6.885-8.227a7.523 7.523 0 0 1 5.539 1.739 7.533 7.533 0 0 1 2.687 5.146 7.535 7.535 0 0 1-1.738 5.538 7.532 7.532 0 0 1-5.146 2.688 7.165 7.165 0 0 1-.685.031zm.022-12.171a4.591 4.591 0 0 0-4.575 4.992 4.548 4.548 0 0 0 1.625 3.11 4.55 4.55 0 0 0 3.348 1.051c1.22-.108 2.325-.685 3.111-1.624s1.159-2.128 1.051-3.348a4.555 4.555 0 0 0-1.624-3.111 4.562 4.562 0 0 0-2.936-1.07zM268.923 483.306a4.002 4.002 0 0 1-4.067-2.502c-10.648-26.657-24.674-51.779-24.814-52.03a4.001 4.001 0 0 1 6.979-3.911c.143.255 14.417 25.815 25.265 52.973a4.002 4.002 0 0 1-3.363 5.47z" opacity="1" data-original="#231f20"></path><path fill="#ffffff" d="M268.746 481.314a2.013 2.013 0 0 1-2.033-1.251c-10.672-26.719-24.785-52.013-24.926-52.265a1.99 1.99 0 0 1-.181-1.521c.145-.514.481-.941.947-1.202.25-.14.518-.224.798-.249.785-.07 1.54.329 1.924 1.015.143.254 14.28 25.517 25.153 52.737a2.004 2.004 0 0 1-1.682 2.736z" opacity="1" data-original="#ffffff"></path><path fill="#231f20" d="M206.61 483.584a4.002 4.002 0 0 0 3.563-3.179c5.784-28.116 15.164-55.317 15.258-55.588a4 4 0 0 0-7.559-2.62c-.096.276-9.643 27.951-15.536 56.596a4 4 0 0 0 4.274 4.791z" opacity="1" data-original="#231f20"></path><path fill="#ffffff" d="M206.433 481.592a2.012 2.012 0 0 0 1.781-1.59c5.797-28.181 15.233-55.567 15.327-55.84.175-.505.143-1.048-.09-1.529s-.639-.842-1.144-1.016a1.974 1.974 0 0 0-.829-.104 2.004 2.004 0 0 0-1.715 1.339c-.096.275-9.56 27.634-15.467 56.344a2.002 2.002 0 0 0 2.137 2.396z" opacity="1" data-original="#ffffff"></path><path fill="url(#a)" d="M246.394 370.163c-51.976-3.997-94.638-31.384-115.089-66.765-6.117-10.564-10.256-21.842-12.057-33.425a85.003 85.003 0 0 1-.488-22.982c1.153-9.975 4.063-19.423 8.48-28.196 6.794-13.501 9.318-28.535 12.936-43.215C181.809 6.787 422.525 51.549 418.44 202.06c-2.495 91.739-39.277 178.291-172.046 168.103z" opacity="1" data-original="url(#a)"></path><path fill="url(#e)" d="M127.358 232.036c-14.744 14.648-11.571 41.748 7.089 60.531 18.659 18.783 45.739 22.135 60.483 7.488s11.571-41.748-7.089-60.531-45.738-22.135-60.483-7.488z" opacity="1" data-original="url(#e)"></path><path fill="#231f20" d="M222.406 368.094c-65.564-14.704-111.425-67.124-105.139-121.275 1.156-9.953 4.06-19.609 8.632-28.698 5.338-10.613 8.071-22.474 10.715-33.944a603.348 603.348 0 0 1 2.113-8.959c9.734-39.477 31.227-70.28 62.155-89.077 27.34-16.617 61.243-23.219 95.465-18.589 33.727 4.562 64.675 19.467 87.147 41.968 24.812 24.844 37.415 56.856 36.444 92.576-1.336 49.147-12.25 88.368-32.439 116.574-24.821 34.678-63.771 52.767-115.767 53.766a1.5 1.5 0 1 1-.058-3c93.42-1.794 142.294-58.123 145.264-167.422 2.142-78.806-61.223-123.4-120.994-131.49-61.805-8.361-133.487 20.99-154.305 105.411-.73 2.958-1.427 5.987-2.102 8.914-2.683 11.643-5.458 23.682-10.958 34.618-4.413 8.775-7.217 18.093-8.332 27.696-6.269 54.008 41.117 106.29 107.889 119.055.805.174 1.347.942 1.192 1.755a1.5 1.5 0 0 1-1.755 1.192c-1.735-.33-3.459-.688-5.167-1.071z" opacity="1" data-original="#231f20"></path><path fill="url(#a)" d="M429.908 269.078c-26.418-25.712-50.331 2.743-50.331 2.743-2.938 2.332-8.619 7.497-12.194 16.097-4.45 10.706-2.946 20.263-2.182 23.891.551 2.972 2.053 9.145 7.168 14.433 3.93 4.063 9.984 7.678 19.29 8.77 34.801 4.665 64.667-40.223 38.249-65.934z" opacity="1" data-original="url(#a)"></path><path fill="#231f20" d="M387.063 335.757c-21.244-4.764-23.335-23.6-23.355-23.802a1.5 1.5 0 1 1 2.985-.291c.079.779 2.222 19.164 25.139 21.859 19.824 2.657 36.037-10.934 42.722-24.684 6.849-14.088 4.721-28.55-5.694-38.687-7.436-7.237-15.351-10.704-23.525-10.3-14.135.696-24.509 12.812-24.612 12.934a1.5 1.5 0 0 1-2.295-1.931c.453-.539 11.284-13.225 26.736-13.999 9.049-.452 17.726 3.297 25.789 11.146 11.388 11.083 13.743 26.84 6.299 42.149-8.731 17.957-27.562 28.792-45.794 26.348a43.095 43.095 0 0 1-4.395-.742z" opacity="1" data-original="#231f20"></path><path fill="url(#a)" d="M393.897 286.364c-1.641 3.856-1.023 6.149-3.27 9.225-1.509 2.067-5.065 4.605-11.559 4.588-7.265 23.197 16.408 28.232 29.273 22.898 9.715-4.027 15.737-16.598 17.033-26.949.127-1.651.484-5.954-1.666-9.684-2.168-3.761-4.77-5.412-7.172-6.667-3.248-1.697-9.979-4.154-15.349-1.807-4.567 1.997-6.693 6.994-7.29 8.396z" opacity="1" data-original="url(#a)"></path><path fill="#231f20" d="m378.856 301.023-.033-.007a1 1 0 0 1 .461-1.947c.07.029 4.344.955 8.055-1.619 2.995-2.078 4.868-5.852 5.566-11.216.553-4.248 3.038-7.471 6.995-9.078 5.948-2.414 14.445-.854 20.204 3.711 4.974 3.942 7.196 9.416 6.258 15.413a1 1 0 1 1-1.977-.309c.822-5.254-1.14-10.062-5.524-13.537-5.23-4.144-12.888-5.585-18.209-3.426-2.307.936-5.18 2.995-5.764 7.483-.777 5.963-2.942 10.209-6.436 12.619-4.332 2.99-9.113 2.021-9.596 1.913z" opacity="1" data-original="#231f20"></path><path fill="url(#h)" d="M361.832 233.725s9.095 25.637 35.933 46.154c-94.677-11.714-114.661-98.268-114.661-98.268s22.932 63.212 42.16 77.247c-81.077-16.458-85.76-67.881-85.76-67.881s6.724 39.693 23.595 61.882c-36.634-2.935-57.367-50.219-57.367-50.219s-4.689 28.986 2.917 51.34c-33.831-28.401-40.748-66.107-17.371-147.315-26.45 30.571-44.756 99.981-42.784 117.767-13.608-16.914-8.716-38.473-8.716-38.473s-6.716 34.813 1.238 66.719c-8.323-9.101-12.763-31.862-12.763-31.862s-1.923 32.059 5.686 57.736c-39.843-46.835-14.674-121.125-14.674-121.125-23.77 26.242-26.943 59.501-26.943 59.501-1.248-49.987 21.331-94.211 21.331-94.211-13.157 4.965-28.77 3.234-28.77 3.234 14.67-2.907 41.486-32.905 75.078-62.389s68.412-28.918 68.412-28.918-10.936-16.2-29.244-15.205c0 0 40.756-19.593 37.095 14.481l8.068-24.793 15.485 3.425-18.433 19.918s92.219-23.898 158.422 33.935 60.153 146.934 83.701 160.633c0 0-29.416-4.415-36.345-40.401 2.89 23.649 5.059 70.025-34.03 114.904 10.027-20.3 8.659-34.137 8.659-34.137s-4.102 16.319-18.23 27.344c9.465-22.762 12.665-41.126 12.665-41.126l-15.039 25.712c0 .001-23.991-16.841-39.315-45.609z" opacity="1" data-original="url(#h)"></path><path fill="#231f20" d="M413.091 303.659a2.118 2.118 0 0 1-1.898-3.054c3.813-7.721 5.932-14.494 7.1-19.864-2.944 5.077-7.275 10.843-13.471 15.678a2.116 2.116 0 0 1-3.258-2.481 231.673 231.673 0 0 0 9.289-27.004l-7.879 13.472a2.12 2.12 0 0 1-1.376 1 2.13 2.13 0 0 1-1.668-.336 56.245 56.245 0 0 1-.289-.206 2.112 2.112 0 0 1-2.135 1.118c-42.641-5.275-70.065-25.795-86.844-45.049 5.226 8.925 10.703 16.458 15.852 20.217a2.117 2.117 0 0 1-1.67 3.785c-42.529-8.633-64.015-27.011-74.55-40.908a78.676 78.676 0 0 1-1.894-2.607c3.736 11.562 9.113 24.595 16.386 34.16.505.664.573 1.564.172 2.297a2.09 2.09 0 0 1-2.027 1.095c-29.496-2.362-48.666-31.686-55.91-45.02-.863 9.837-1.497 28.271 3.633 43.35a2.117 2.117 0 0 1-3.366 2.304c-34.225-28.731-40.241-66.956-20.984-138.947-22.92 33.547-37.363 92.592-35.705 107.544a2.117 2.117 0 0 1-3.755 1.56c-3.588-4.46-5.955-9.202-7.486-13.807-.369 11.86.26 26.368 3.712 40.213a2.116 2.116 0 0 1-3.617 1.941c-3.941-4.309-7.014-11.346-9.207-17.81.304 11.513 1.567 27.632 5.722 41.653a2.118 2.118 0 0 1-3.643 1.974c-16.649-19.57-24.526-47.1-22.78-79.611.746-13.883 3.049-25.804 4.948-33.652-17.295 23.778-20.036 50.177-20.064 50.47-.107 1.114-1.097 1.968-2.183 1.913a2.116 2.116 0 0 1-2.042-2.062c-1.02-40.828 13.883-78.238 19.482-90.781-12.161 3.225-24.455 1.921-25.038 1.856a2.118 2.118 0 0 1-.178-4.182c9.595-1.902 26.15-17.469 45.319-35.492 8.667-8.149 18.49-17.387 28.773-26.412 27.231-23.9 54.951-28.416 65.475-29.257-4.082-4.394-12.798-11.822-24.795-11.16a2.118 2.118 0 0 1-1.032-4.023c.921-.443 22.685-10.754 33.957-2.794 2.644 1.867 4.474 4.528 5.481 7.959l4.628-14.225a2.116 2.116 0 0 1 2.471-1.412l15.484 3.425a2.118 2.118 0 0 1 1.097 3.506l-13.885 15.003c9.064-1.709 26.663-4.229 48.368-3.36 28.925 1.158 70.682 8.896 105.346 39.176 41.13 35.931 54.611 83.504 64.455 118.241 5.906 20.84 10.57 37.301 18.917 42.157a2.117 2.117 0 0 1 .933 2.532 2.11 2.11 0 0 1-2.312 1.392c-.256-.038-21.344-3.49-32.629-25.718 1.076 38.001-10.726 70.691-35.834 99.519a2.113 2.113 0 0 1-1.596.724zm8.658-38.371a2.117 2.117 0 0 1 2.109 1.907c.044.447.775 8.648-3.306 21.565 21.22-29.404 29.232-62.873 24.468-101.866a2.118 2.118 0 0 1 4.181-.658c4.351 22.595 17.686 32.175 26.479 36.111-5.626-8.098-9.396-21.401-14.141-38.144-9.699-34.227-22.982-81.102-63.167-116.206-33.696-29.436-74.392-36.981-102.597-38.128-30.69-1.256-53.673 4.589-53.901 4.648a2.116 2.116 0 0 1-2.085-3.488l15.926-17.208-10.005-2.213-7.473 22.966a2.118 2.118 0 0 1-4.12-.882c.821-7.643-.656-12.855-4.389-15.494-5.434-3.84-14.674-2.108-21.405-.01 13.59 3.332 21.412 14.69 21.804 15.271.442.654.483 1.499.107 2.193a2.132 2.132 0 0 1-1.896 1.108c-.362-.003-34.451-.159-66.981 28.393-10.229 8.978-20.024 18.188-28.666 26.313-15.295 14.382-28.186 26.504-38.227 32.598 5.353-.195 12.221-.981 18.441-3.329a2.118 2.118 0 0 1 2.634 2.944c-.189.37-15.999 31.793-20.157 70.997 3.919-11.521 10.7-25.851 22.312-38.672a2.118 2.118 0 0 1 3.576 2.101c-.233.689-21.565 65.403 8.122 110.83-4.678-23.157-3.322-47.095-3.253-48.247a2.116 2.116 0 0 1 1.973-1.985c1.064-.095 2.015.66 2.219 1.707.031.156 2.226 11.208 6.268 20.7-3.455-23.604-.471-46.022.692-53.213.197-1.39.383-2.241.421-2.408a2.123 2.123 0 0 1 2.5-1.604 2.118 2.118 0 0 1 1.645 2.473c-.009.046-.13.692-.317 1.853-.652 4.615-1.648 17.41 4.852 29.275.828-11.423 4.869-29.555 10.824-47.801 5.262-16.123 16.477-45.931 32.461-64.406.65-.751 1.737-.95 2.611-.476s1.301 1.491 1.025 2.447c-11.647 40.463-15.684 69.887-12.702 92.599 2.533 19.296 10.023 34.267 24.034 47.701-4.811-21.06-1.177-44.168-1.002-45.249a2.118 2.118 0 0 1 1.823-1.763 2.134 2.134 0 0 1 2.207 1.25c.193.439 18.838 42.071 50.894 48.312-11.894-18.106-18.108-43.772-20.264-54.177-.715-2.828-.887-4.564-.905-4.757a2.117 2.117 0 0 1 4.196-.546c.013.076.285 1.646.837 4.282 1.241 4.852 4.267 13.44 11.414 22.792 9.478 12.401 28.232 28.572 64.364 37.414-9.018-10.208-18.142-27.989-25.087-43.43-8.923-16.261-11.92-28.907-12.079-29.595a2.118 2.118 0 0 1 4.054-1.198c.104.286 4.931 13.499 11.911 29.028a141.74 141.74 0 0 0 9.737 15.325c14.298 19.575 40.236 43.828 83.734 51.411-22.41-19.567-30.29-41.234-30.64-42.222a2.117 2.117 0 0 1 3.865-1.704c12.456 23.383 30.961 38.929 36.818 43.484l13.839-23.661a2.118 2.118 0 0 1 3.914 1.433c-.028.161-2.509 14.128-9.279 32.58 8.014-9.394 10.673-19.554 10.705-19.68a2.113 2.113 0 0 1 2.048-1.591z" opacity="1" data-original="#231f20"></path><path fill="url(#i)" d="M384.419 310.139c-.286 20.781-29.429 37.231-65.093 36.74s-64.344-17.735-64.058-38.516 29.429-37.231 65.093-36.74 64.344 17.735 64.058 38.516z" opacity="1" data-original="url(#i)"></path><g fill="#fcc1a3"><path d="M275.638 314.594c-.457 0-.869-.315-.975-.779l-6.479-28.643a1 1 0 1 1 1.951-.441l6.479 28.643a1 1 0 0 1-.976 1.22zM284.989 316.762c-.457 0-.869-.315-.975-.779l-6.968-30.801a1 1 0 1 1 1.951-.441l6.968 30.801a1 1 0 0 1-.976 1.22zM294.34 318.93c-.457 0-.869-.315-.975-.779l-7.456-32.96a1 1 0 1 1 1.951-.441l7.456 32.96a1 1 0 0 1-.976 1.22zM303.69 321.098c-.457 0-.869-.315-.975-.779l-7.944-35.118a1 1 0 1 1 1.951-.441l7.944 35.118a1 1 0 0 1-.976 1.22zM313.041 323.265c-.457 0-.869-.315-.975-.779l-8.433-37.276a1 1 0 1 1 1.951-.441l8.433 37.276a1 1 0 0 1-.976 1.22zM321.876 324.632c-.457 0-.869-.315-.975-.779l-7.782-34.399a1 1 0 1 1 1.951-.441l7.782 34.399a1 1 0 0 1-.976 1.22zM330.712 325.999c-.457 0-.869-.315-.975-.779l-7.131-31.521a1 1 0 1 1 1.951-.441l7.131 31.521a1 1 0 0 1-.976 1.22zM339.547 327.366c-.457 0-.869-.315-.975-.779l-6.479-28.643a1 1 0 1 1 1.951-.441l6.479 28.643a1 1 0 0 1-.976 1.22z" fill="#fcc1a3" opacity="1" data-original="#fcc1a3"></path></g><g fill="#fcc1a3"><path d="M158.903 280.956a1 1 0 0 0 1.245-.089l21.589-19.908a1 1 0 0 0-1.356-1.47l-21.589 19.908a1 1 0 0 0 .111 1.559zM149.973 277.434a1 1 0 0 0 1.245-.089l23.216-21.408a1 1 0 0 0-1.356-1.47l-23.216 21.408a1 1 0 0 0 .111 1.559zM141.044 273.913a1 1 0 0 0 1.245-.089l24.843-22.908a1 1 0 0 0-1.356-1.47l-24.843 22.908a1 1 0 0 0 .111 1.559zM132.114 270.392a1 1 0 0 0 1.245-.089l26.469-24.408a1 1 0 0 0-1.356-1.47l-26.469 24.408a1 1 0 0 0 .111 1.559zM123.185 266.871a1 1 0 0 0 1.245-.089l28.096-25.908a1 1 0 0 0-1.356-1.47l-28.096 25.908a1 1 0 0 0 .111 1.559zM115.134 262.983a1 1 0 0 0 1.245-.089l25.927-23.908a1 1 0 0 0-1.356-1.47l-25.927 23.908a1 1 0 0 0 .111 1.559z" fill="#fcc1a3" opacity="1" data-original="#fcc1a3"></path></g><path fill="#ffffff" d="M260.779 248.463s13.695-62.966 67.33-46.806 36.219 74.996 22.063 86.427c-25.463 20.563-100.658 15.754-89.393-39.621z" opacity="1" data-original="#ffffff"></path><g fill="#231f20"><path d="M367.719 234.782c.053-1.93.048-3.895-.038-5.882 4.284.809 13.154 1.769 18.436-2.727-7.253 1.075-15.473-4.933-19.877-8.765-3.217-14.875-12.195-28.93-32.791-34.706-7.201-2.019-13.787-2.601-19.821-2.29-5.415-2.788-12.81-7.235-15.38-11.844-.61 7.125 1.147 11.397 3.04 13.888-20.678 5.988-31.632 22.413-31.632 22.413l12.051-1.246-3.264 10.374s32.256-20.763 56.88-9.732 28.866 35.985 29.052 53.034c1.005-3.643 2.026-8.411 2.681-13.778 2.437 2.221 9.274 7.116 17.525 1.371-8.936 1.59-14.137-4.81-16.862-10.11z" fill="#231f20" opacity="1" data-original="#231f20"></path><path d="M323.513 269.477a44.98 44.98 0 0 1-8.819 11.352c-11.262 10.374-26.433 12.806-38.156 4.683-9.84-6.793-14.839-19.335-14.188-32.61.311-7.214 2.314-14.666 6.072-21.498 10.721-19.372 31.712-26.554 46.932-16.03 15.219 10.524 18.879 34.732 8.159 54.103z" fill="#231f20" opacity="1" data-original="#231f20"></path><path d="M319.629 266.814c-1.823 3.33-4.023 6.31-6.516 8.833-5.33 5.506-11.928 9.02-18.754 9.768-5.66.643-11.068-.667-15.637-3.847-8.952-6.17-13.132-18.085-11.802-30.522.573-5.748 2.336-11.56 5.36-16.981 5.83-10.544 15.26-17.508 25.246-18.641 5.66-.643 11.062.698 15.661 3.888 13.047 9.002 15.947 30.307 6.442 47.502z" fill="#231f20" opacity="1" data-original="#231f20"></path></g><path fill="#a2eeff" d="M313.127 275.652c-5.33 5.506-11.928 9.02-18.754 9.768-5.66.643-11.068-.667-15.637-3.847-8.952-6.17-13.132-18.085-11.803-30.522 6.979-2.198 15.07-1.921 23.098 1.299 10.951 4.391 19.284 13.265 23.096 23.302z" opacity="1" data-original="#a2eeff"></path><ellipse cx="295.946" cy="250.433" fill="#231f20" rx="15.166" ry="12.351" transform="rotate(-72.85 295.727 250.308)" opacity="1" data-original="#231f20"></ellipse><path fill="#ffffff" d="M204.762 231.025s11.229-63.457-29.164-65.986-47.853 58.286-42.232 73.648c10.11 27.634 61.01 47.888 71.396-7.662z" opacity="1" data-original="#ffffff"></path><g fill="#231f20"><path d="M138.963 183.01a111.453 111.453 0 0 1 1.914-5.494c-3.072-.653-9.202-2.675-11.225-8.622 4.415 3.394 11.74.476 15.861-1.661 6.888-12.867 17.294-23.069 32.667-21.695 5.375.48 9.885 2.105 13.745 4.382 4.45-.827 10.731-2.556 13.898-6.025-1.887 6.871-4.413 10.292-6.454 12 11.649 12.413 13.565 31.396 13.565 31.396l-7.51-5.134-1.188 10.786s-14.505-30.058-34.209-27.838-30.501 24.185-36.097 40.084c.51-3.741 1.371-8.541 2.664-13.781-2.313 1.277-8.372 3.609-11.943-4.486 5.353 4.433 10.822.153 14.312-3.912z" fill="#231f20" opacity="1" data-original="#231f20"></path><path d="M154.231 230.33c.263 4.786 1.147 9.121 2.466 12.992 4.468 12.894 14.179 19.911 24.881 16.364 8.975-2.955 16.443-12.609 20.239-24.721a59.522 59.522 0 0 0 2.678-21.215c-1.216-20.79-13.431-33.923-27.319-29.338-13.887 4.586-24.16 25.128-22.945 45.918z" fill="#231f20" opacity="1" data-original="#231f20"></path><path d="M157.757 229.18c.195 3.568.763 6.941 1.679 9.999 1.924 6.637 5.362 11.892 9.841 14.738 3.707 2.381 7.865 2.931 12.041 1.535 8.162-2.679 14.863-12.031 17.922-23.609a52.894 52.894 0 0 0 1.726-16.937c-.658-11.314-4.95-20.566-11.491-24.766-3.707-2.381-7.871-2.9-12.071-1.506-11.899 3.914-20.718 22.095-19.647 40.546z" fill="#231f20" opacity="1" data-original="#231f20"></path></g><path fill="#a2eeff" d="M159.437 239.178c1.924 6.637 5.362 11.892 9.841 14.738 3.707 2.381 7.865 2.931 12.041 1.535 8.162-2.679 14.863-12.031 17.922-23.609-4.122-4.196-9.804-6.527-16.384-6.199-8.976.449-17.575 5.75-23.42 13.535z" opacity="1" data-original="#a2eeff"></path><ellipse cx="179.37" cy="222.04" fill="#231f20" rx="14.519" ry="9.315" transform="rotate(-81.72 179.385 221.964)" opacity="1" data-original="#231f20"></ellipse><path fill="#ffffff" d="m301.119 228.251 4.193 16.801 14.732 9.099-14.683 9.18-4.101 16.823-13.268-11.127-17.267 1.298 6.483-16.057-6.57-16.021 17.274 1.204zM181.417 195.687l4.718 15.454 11.664 5.716-9.83 12.059-1.342 17.243-10.793-8.001-12.493 4.94 3.159-17.004-6.379-14.19 12.745-2.507z" opacity="1" data-original="#ffffff"></path><path fill="url(#j)" d="M247.603 326.533c1.98 18.076-4.33 33.596-14.095 34.666s-19.286-12.716-21.266-30.792 4.33-33.596 14.095-34.666c9.765-1.069 19.286 12.717 21.266 30.792z" opacity="1" data-original="url(#j)"></path><path fill="#b02920" d="M228.178 340.71c-11.33 1.87-13.3-11.35-14.51-27.94a82.28 82.28 0 0 1-.2-7.67c.27-13.7 3.97-25.55 10.34-24.44 2.36.41 4.85 2.31 7.18 5.24 5.14 6.44 9.57 17.85 10.4 29.26 1.2 16.58-5.33 24.25-13.21 25.55z" opacity="1" data-original="#b02920"></path><path fill="#fa8179" d="M228.178 340.71c-11.33 1.87-13.3-11.35-14.51-27.94a82.28 82.28 0 0 1-.2-7.67c3.69-9.43 10-16.49 17.52-19.2 5.14 6.44 9.57 17.85 10.4 29.26 1.2 16.58-5.33 24.25-13.21 25.55z" opacity="1" data-original="#fa8179"></path><path fill="#603913" d="M226.147 341.886c-2.271 0-4.247-.652-5.894-1.951-5.496-4.332-6.721-15.286-7.578-27.091-.85-11.702.757-26.579 6.292-31.588 1.509-1.365 3.198-1.898 5.017-1.582 8.24 1.433 17.182 18.642 18.4 35.411 1.091 15.034-4.16 24.983-14.048 26.615-.757.124-1.487.186-2.189.186zm-3.154-60.299c-.947 0-1.831.38-2.683 1.152-4.25 3.846-6.621 16.446-5.64 29.961.791 10.889 1.968 21.841 6.821 25.665 1.721 1.356 3.853 1.801 6.52 1.361 8.76-1.445 13.387-10.603 12.378-24.497-1.25-17.208-10.184-32.443-16.748-33.584a3.788 3.788 0 0 0-.648-.058z" opacity="1" data-original="#603913"></path><g fill="#fffd95"><path d="M68.328 58.953s-2.477 35.158 22.715 37.2c-14.638 7.83-22.782 36.085-22.782 36.085s-3.686-30.814-23.431-34.979c0 0 20.528-8.945 23.498-38.306zM41.35 113.353s-1.199 17.021 10.997 18.01c-7.087 3.791-11.029 17.47-11.029 17.47s-1.785-14.918-11.344-16.935c0 .001 9.938-4.329 11.376-18.545zM89.938 118.772s-2.032 28.843 18.635 30.519c-12.009 6.424-18.69 29.604-18.69 29.604s-3.024-25.28-19.223-28.697c0 .001 16.841-7.338 19.278-31.426z" fill="#fffd95" opacity="1" data-original="#fffd95"></path></g><path fill="url(#a)" d="M101.267 395.169s-1.307-12.062 14.251-8.845c15.559 3.217 28.088 28.702 22.869 33.63s-15.778 5.909-21.558 1.694c-5.78-4.214-15.23-12.777-15.562-26.479z" opacity="1" data-original="url(#a)"></path><path fill="#231f20" d="M126.099 425.787c-3.771.001-7.445-.953-10.154-2.928-10.311-7.516-15.903-17.06-16.176-27.603-.057-.665-.321-5.302 3.068-8.38 2.8-2.544 7.167-3.227 12.985-2.022 12.306 2.544 21.877 17.257 24.47 26.4 1.312 4.625 1.009 8.01-.875 9.789-3.294 3.112-8.387 4.744-13.318 4.744zm-15.425-38.515c-2.533 0-4.481.609-5.819 1.825-2.462 2.237-2.1 5.873-2.096 5.909l.008.126c.235 9.732 5.264 18.245 14.946 25.303 5.121 3.733 14.851 2.954 19.645-1.573.753-.711 1.161-2.867.048-6.789-2.488-8.771-11.583-22.088-22.191-24.281-1.677-.347-3.192-.52-4.541-.52z" opacity="1" data-original="#231f20"></path><path fill="#ffde17" d="M75.696 452.998s.924 20.394 10.882 25.5h62.043s1.021-33.319-25.787-45.127c-26.81-11.808-47.138 19.627-47.138 19.627z" opacity="1" data-original="#ffde17" class=""></path><path fill="#231f20" d="M148.62 479.999H86.578a1.51 1.51 0 0 1-.685-.165c-10.61-5.442-11.656-25.899-11.696-26.768a1.499 1.499 0 0 1 .239-.883c.21-.325 21.344-32.367 49.001-20.186 27.417 12.077 26.693 46.204 26.683 46.547a1.5 1.5 0 0 1-1.5 1.455zm-61.666-3h60.149c-.208-6.431-2.459-32.381-24.875-42.255-23.736-10.458-42.548 15.131-45.003 18.671.217 3.011 1.741 19.104 9.729 23.584z" opacity="1" data-original="#231f20"></path><path fill="url(#a)" d="M118.471 410.84s-2.036-19.958-19.392-22.514-30.082 8.291-39.168 30.253c-9.085 21.962 29.164 42.042 29.164 42.042 2.383.742 11.135 3.154 20.837-.997 11.786-5.043 15.866-15.875 16.526-17.719 1.224-1.879 2.924-6.958 2.571-13.307-.635-11.407-9.606-17.209-10.538-17.758z" opacity="1" data-original="url(#a)"></path><path fill="#231f20" d="M87.48 462.128a1.485 1.485 0 0 1-.701-.172c-1.611-.846-39.352-20.981-29.853-43.944 9.616-23.246 23.333-33.729 40.772-31.164 16.092 2.37 19.847 18.848 20.533 22.933 2.146.955 7.669 3.949 10.351 10.394 2.582 6.207 1.778 13.739-2.391 22.388a1.499 1.499 0 1 1-2.702-1.302c3.772-7.826 4.559-14.52 2.338-19.897-2.76-6.683-9.382-9.078-9.448-9.101a1.508 1.508 0 0 1-.998-1.263c-.08-.768-2.145-18.832-18.119-21.184-16.121-2.379-28.413 7.223-37.563 29.343-8.457 20.443 28.105 39.946 28.476 40.141a1.5 1.5 0 0 1-.695 2.828z" opacity="1" data-original="#231f20"></path><path fill="url(#a)" d="M449.483 395.169s1.307-12.062-14.251-8.845c-15.559 3.217-28.088 28.702-22.869 33.63s15.778 5.909 21.558 1.694 15.231-12.777 15.562-26.479z" opacity="1" data-original="url(#a)"></path><path fill="#231f20" d="M424.652 425.787c-4.932 0-10.023-1.632-13.319-4.743-1.884-1.779-2.187-5.165-.875-9.79 2.593-9.143 12.164-23.855 24.47-26.399 5.813-1.204 10.184-.522 12.985 2.022 3.389 3.079 3.125 7.716 3.068 8.38-.272 10.543-5.865 20.087-16.176 27.603-2.708 1.974-6.384 2.927-10.153 2.927zm15.425-38.515c-1.35 0-2.864.173-4.541.52-10.607 2.193-19.703 15.511-22.191 24.28-1.112 3.923-.705 6.079.048 6.79 4.794 4.528 14.526 5.307 19.645 1.573 9.682-7.058 14.711-15.571 14.946-25.303l.008-.121c.009-.1.318-3.74-2.114-5.931-1.337-1.203-3.28-1.808-5.801-1.808z" opacity="1" data-original="#231f20"></path><path fill="#ffde17" d="M475.055 452.998s-.924 20.394-10.882 25.5H402.13s-1.021-33.319 25.787-45.127c26.809-11.808 47.138 19.627 47.138 19.627z" opacity="1" data-original="#ffde17" class=""></path><path fill="#231f20" d="M464.173 479.999h-62.042a1.5 1.5 0 0 1-1.5-1.454c-.01-.343-.735-34.47 26.682-46.547 27.659-12.185 48.791 19.86 49.001 20.186.169.262.253.57.239.883-.04.868-1.086 21.325-11.696 26.768a1.512 1.512 0 0 1-.684.164zm-60.526-3h60.149c7.987-4.48 9.512-20.571 9.729-23.583-2.458-3.538-21.298-29.115-45.003-18.672-22.416 9.874-24.666 35.824-24.875 42.255z" opacity="1" data-original="#231f20"></path><path fill="url(#a)" d="M432.28 410.84s2.036-19.958 19.392-22.514 30.082 8.291 39.168 30.253c9.085 21.962-29.164 42.042-29.164 42.042-2.383.742-11.135 3.154-20.837-.997-11.786-5.043-15.866-15.875-16.526-17.719-1.224-1.879-2.924-6.958-2.571-13.307.634-11.407 9.606-17.209 10.538-17.758z" opacity="1" data-original="url(#a)"></path><path fill="#231f20" d="M463.271 462.128c.237.001.477-.054.701-.172 1.611-.846 39.352-20.981 29.853-43.944-9.616-23.246-23.333-33.729-40.772-31.164-16.092 2.37-19.847 18.848-20.533 22.933-2.146.955-7.669 3.949-10.351 10.394-2.582 6.207-1.778 13.739 2.391 22.388a1.499 1.499 0 1 0 2.702-1.302c-3.772-7.826-4.559-14.52-2.338-19.897 2.76-6.683 9.382-9.078 9.448-9.101.547-.192.938-.686.998-1.263.08-.768 2.145-18.832 18.119-21.184 16.12-2.379 28.413 7.223 37.563 29.343 8.457 20.443-28.105 39.946-28.476 40.141a1.5 1.5 0 0 0 .695 2.828z" opacity="1" data-original="#231f20"></path></g></svg>