<svg xmlns="http://www.w3.org/2000/svg" version="1.1" xmlns:xlink="http://www.w3.org/1999/xlink" width="512" height="512" x="0" y="0" viewBox="0 0 512 512" style="enable-background:new 0 0 512 512" xml:space="preserve" class=""><g><path d="M369.736 64.949s-5.887-38.348-30.02-53.693c-28.272 4.311-49.122 37.029-49.122 37.029-15.816-24.253-37.412-36.301-37.412-36.301l-21.209 100.725c-3.403 16.161 30.871 37.06 76.553 46.678 45.682 9.619 85.473 4.315 88.875-11.845L418.61 46.817s-24.621 2.316-48.874 18.132z" style="" fill="#ffff9d" data-original="#ffff9d"></path><path d="M422.722 43.148a5.503 5.503 0 0 0-4.627-1.818c-.965.09-21.907 2.193-44.579 14.896-3.201-12.707-11.648-37.416-30.842-49.621a5.519 5.519 0 0 0-3.788-.797c-22.485 3.428-40.18 22.634-48.232 32.971-15.625-20.766-33.94-31.135-34.787-31.608a5.51 5.51 0 0 0-8.078 3.677L226.58 111.574c-1.53 7.269 1.111 18.657 22.393 31.633 14.98 9.134 35.725 16.795 58.417 21.573 14.752 3.107 30.125 4.831 44.131 4.831 26.545 0 48.169-6.199 51.272-20.933l21.209-100.725a5.509 5.509 0 0 0-1.28-4.805zM309.66 153.995c-21.496-4.526-41.012-11.7-54.949-20.199-11.779-7.182-18.426-14.827-17.346-19.952 1.404-6.665 16.327-12.32 40.388-12.32 11.921 0 26.088 1.39 41.96 4.731 21.496 4.526 41.012 11.7 54.949 20.199 11.779 7.182 18.426 14.827 17.346 19.952-2.1 9.968-34.443 17.675-82.348 7.589zm86.007-24.96c-3.472-3.775-8.392-7.799-15.267-11.99-14.979-9.134-35.726-16.795-58.417-21.573-30.007-6.319-62.6-6.92-80.978 1.086l15.905-75.532c7.256 5.239 19.332 15.339 29.068 30.27a5.514 5.514 0 0 0 4.617 2.499h.025a5.515 5.515 0 0 0 4.619-2.542c.191-.298 18.839-29.044 43.251-34.174 20.273 14.539 25.746 48.364 25.799 48.708a5.512 5.512 0 0 0 8.457 3.78c14.866-9.695 30.028-14.082 38.804-15.964l-15.883 75.432z" style="" fill="#ffcc6b" data-original="#ffcc6b"></path><path d="M505.748 251.842c-5.12-32.062-35.263-53.903-67.325-48.783a58.55 58.55 0 0 0-23.997 9.574c-15.777-52.849-66.582-89.194-122.97-86.218a378.592 378.592 0 0 0-76.593 11.969c-55.674 14.653-93.33 65.066-92.285 120.925a58.56 58.56 0 0 0-25.944-1.667c-32.062 5.12-53.903 35.262-48.783 67.325 5.12 32.062 35.263 53.904 67.325 48.783 16.333-2.608 30.002-11.718 38.817-24.259 14.771 16.084 35.5 26.167 57.992 27.183 1.941.088 3.879.157 5.815.216a57.735 57.735 0 0 0-1.184 4.181c-13.788-6.515-28.075-6.147-36.645 2.292-12.333 12.143-8.154 36.385 9.333 54.145 17.487 17.76 41.661 22.313 53.994 10.17.425-.419.827-.855 1.213-1.302 14.633 10.16 33.594 16.306 54.328 16.306 46.296 0 83.826-30.577 83.826-68.295 0-15.824-6.624-30.379-17.711-41.958 21.391-8.192 38.136-24.306 47.346-44.393 12.314 9.287 28.232 13.758 44.665 11.133 32.062-5.122 53.903-35.265 48.783-67.327z" style="" fill="#d4afb7" data-original="#d4afb7"></path><path d="M229.676 382.584c-5.967 0-11.947-.135-17.94-.406-21.538-.973-41.639-9.565-57.263-24.352-9.878 11.442-23.306 18.951-38.429 21.366-16.961 2.706-33.96-1.35-47.869-11.428-13.908-10.077-23.059-24.968-25.768-41.928-2.708-16.96 1.35-33.96 11.429-47.868 10.077-13.908 24.968-23.059 41.929-25.768 7.18-1.148 14.34-1.091 21.372.165.986-25.955 10.065-51.39 25.924-72.3 17.402-22.946 42.404-39.641 70.399-47.01a385.83 385.83 0 0 1 77.705-12.143c28.396-1.504 56.869 6.731 80.182 23.174 21.217 14.965 37.406 36.169 46.139 60.247 6.239-3.328 12.964-5.581 20.069-6.715 35.004-5.59 68.045 18.343 73.636 53.356 5.591 35.012-18.344 68.045-53.356 73.637-15.232 2.43-30.421-.576-43.426-8.49-10.514 19.277-27.41 33.969-48.166 41.727-43.977 16.438-89.835 24.736-136.567 24.736zm-75.684-38.604c1.538 0 3.012.643 4.059 1.784 14.184 15.445 33.426 24.468 54.182 25.405 51.437 2.324 101.959-5.631 150.15-23.645 20.038-7.491 35.986-22.332 44.908-41.787a5.51 5.51 0 0 1 8.327-2.104c11.683 8.812 26.062 12.396 40.479 10.092 29.01-4.632 48.842-32.004 44.21-61.015-4.633-29.01-32.005-48.845-61.015-44.21-7.887 1.259-15.202 4.178-21.745 8.674a5.512 5.512 0 0 1-8.402-2.965c-7.309-24.486-22.989-46.191-44.151-61.116-21.301-15.023-47.32-22.542-73.249-21.175a374.723 374.723 0 0 0-75.48 11.796c-25.624 6.744-48.504 22.019-64.424 43.011-15.803 20.837-24.239 46.578-23.754 72.482a5.509 5.509 0 0 1-7.076 5.386c-7.658-2.272-15.566-2.776-23.509-1.51-14.053 2.245-26.391 9.828-34.742 21.351s-11.713 25.61-9.469 39.663c2.244 14.053 9.827 26.391 21.35 34.742 11.524 8.349 25.607 11.715 39.664 9.468 14.327-2.287 26.82-10.095 35.177-21.986a5.512 5.512 0 0 1 4.51-2.341zm284.43-140.921h.01-.01z" style="" fill="#b78e98" data-original="#b78e98"></path><path d="M335.76 311.865c-35.194 12.601-71.487 18.323-108.878 17.164-22.946-.711-43.203-13.759-51.985-33.358-4.594-10.254-7.838-20.723-9.732-31.408-7.414-41.837 21.364-82.388 65.666-93.715a291.256 291.256 0 0 1 54.745-8.568c44.054-2.657 82.981 26.044 89.449 66.543 1.753 10.974 2.088 22.174 1.007 33.601-2.109 22.296-17.722 41.667-40.272 49.741z" style="" fill="#faeac0" data-original="#faeac0"></path><circle cx="448.658" cy="261.351" r="21.379" style="" transform="rotate(-54.077 448.625 261.35)" fill="#b78e98" data-original="#b78e98"></circle><circle cx="102.438" cy="316.641" r="21.379" style="" transform="rotate(-54.077 102.422 316.627)" fill="#b78e98" data-original="#b78e98"></circle><path d="M306.003 255.726c1.044 6.192-.51 12.984-3.822 19.103-5.078 9.517-14.35 17.449-24.501 19.07-5.272.842-10.87-.006-16.109-2.064-4.831-1.905-9.366-4.828-13.11-8.409-6.962-6.641-11.18-15.497-9.434-24.188 4.037-20.054 18.767-8.844 31.384-10.859 12.618-2.015 23.123-17.255 33.205.545 1.219 2.131 1.986 4.409 2.387 6.802z" style="" fill="#605c5d" data-original="#605c5d"></path><path d="M302.18 274.828c-5.078 9.517-14.35 17.449-24.501 19.07-5.272.842-10.87-.006-16.109-2.064-4.831-1.905-9.366-4.828-13.11-8.409 5.078-9.517 14.35-17.448 24.502-19.069 5.273-.842 10.868.005 16.109 2.064 4.832 1.904 9.367 4.827 13.109 8.408z" style="" fill="#fd80a6" data-original="#fd80a6"></path><path d="M273.607 299.737c-10.61 0-22.07-5.068-30.344-13.685-8.021-8.351-11.536-18.521-9.646-27.902 3.853-19.113 17.121-17.113 25.904-15.79 3.458.522 7.032 1.061 10.015.585 2.981-.476 6.211-2.102 9.335-3.675 7.931-3.994 19.92-10.027 29.534 6.937 4.717 8.325 4.544 19.083-.476 29.518-5.995 12.46-17.529 21.735-29.385 23.629a31.398 31.398 0 0 1-4.937.383zm-22.352-47.217c-3.916 0-5.598 1.677-6.834 7.808-1.166 5.788 1.308 12.382 6.791 18.09 7.042 7.332 17.326 11.376 25.594 10.051 8.267-1.32 16.784-8.362 21.192-17.523 3.431-7.132 3.729-14.168.818-19.304-4.442-7.84-6.89-6.605-14.989-2.527-3.695 1.86-7.882 3.968-12.553 4.714-4.67.746-9.306.047-13.396-.569-2.742-.415-4.9-.74-6.623-.74zM189.257 263.283a5.512 5.512 0 0 1-1.072-10.917c.583-.116 10.37-2.046 21.686-3.025-3.887-2.658-8.36-5.201-12.664-6.478a5.51 5.51 0 1 1 3.133-10.566c13.879 4.116 27.735 17.533 28.318 18.103a5.51 5.51 0 0 1 1.218 6.109 5.492 5.492 0 0 1-5.258 3.342c-14.782-.508-34.086 3.288-34.279 3.326a5.65 5.65 0 0 1-1.082.106zM315.596 245.356a5.511 5.511 0 0 1-4.887-8.06c.377-.722 9.366-17.787 21.271-26.021a5.51 5.51 0 0 1 6.27 9.065c-3.694 2.554-7.152 6.363-10.019 10.1 11.059-2.594 20.96-3.808 21.55-3.879a5.511 5.511 0 0 1 1.32 10.943c-.196.023-19.717 2.423-33.611 7.516a5.512 5.512 0 0 1-1.894.336z" style="" fill="#605c5d" data-original="#605c5d"></path><path d="M380.193 390.829c17.15-40.175 38.782-117.305 38.782-117.305l-30.131-12.174-55.826 105.69 47.175 23.789z" style="" fill="#d4afb7" data-original="#d4afb7"></path><path d="M380.19 396.341a5.512 5.512 0 0 1-5.066-7.675c14.382-33.687 32.206-94.519 37.194-111.887l-20.925-8.454-53.502 101.289a5.51 5.51 0 0 1-9.745-5.147l55.826-105.689a5.512 5.512 0 0 1 6.937-2.536l30.131 12.174a5.511 5.511 0 0 1 3.242 6.598c-.888 3.163-21.926 77.936-39.021 117.979a5.513 5.513 0 0 1-5.071 3.348z" style="" fill="#b78e98" data-original="#b78e98"></path><path d="M419.714 261.693c3.679 13.122 2.058 25.051-11.064 28.73-13.122 3.68-26.743-3.975-30.422-17.098-3.68-13.122 3.975-26.743 17.098-30.422 13.122-3.679 20.709 5.668 24.388 18.79z" style="" fill="#d4afb7" data-original="#d4afb7"></path><path d="M401.942 296.864c-5.112 0-10.164-1.312-14.744-3.885-7.029-3.95-12.1-10.402-14.277-18.165-4.493-16.027 4.889-32.722 20.916-37.216 7.947-2.227 15.162-.753 20.864 4.263 4.559 4.011 8.03 10.184 10.319 18.344 2.289 8.161 2.532 15.239.723 21.036-2.262 7.25-7.659 12.26-15.605 14.488a30.408 30.408 0 0 1-8.196 1.135zm-1.115-49.261c-1.242 0-2.573.204-4.013.607-10.176 2.853-16.133 13.452-13.28 23.627a19.048 19.048 0 0 0 9.065 11.534 19.033 19.033 0 0 0 14.564 1.746c4.356-1.221 6.917-3.496 8.06-7.159 1.148-3.677.866-8.787-.814-14.777v-.001c-1.679-5.99-4.096-10.501-6.987-13.046-1.93-1.696-4.079-2.531-6.595-2.531zM225.283 460.001c-2.601 0-5.297-.258-8.069-.78-11.292-2.127-22.598-8.466-31.837-17.847-9.239-9.384-15.401-20.787-17.353-32.109-2.079-12.059.791-22.652 8.08-29.829 7.29-7.177 17.927-9.884 29.95-7.617 11.291 2.126 22.599 8.466 31.837 17.847 9.239 9.383 15.401 20.786 17.353 32.109 2.078 12.059-.792 22.652-8.081 29.829-5.609 5.521-13.2 8.397-21.88 8.397zm-27.241-77.935c-5.791 0-10.713 1.785-14.205 5.223-4.641 4.569-6.399 11.709-4.952 20.103 1.574 9.13 6.668 18.452 14.345 26.25 7.677 7.796 16.919 13.034 26.023 14.748 8.371 1.577 15.537-.07 20.177-4.64 4.641-4.568 6.399-11.708 4.952-20.103-1.573-9.13-6.667-18.452-14.344-26.247v-.001c-7.677-7.796-16.919-13.034-26.023-14.75a32.352 32.352 0 0 0-5.973-.583z" style="" fill="#b78e98" data-original="#b78e98"></path><path d="M352.091 413.792c-5.076 20.25-24.667 33.974-45.437 31.871-14.505-1.469-26.389-9.931-32.897-21.548-3.298-5.888-11.357-7.227-16.382-2.722-9.918 8.891-23.899 13.061-38.101 9.764-20.336-4.72-34.441-24.038-32.703-44.842 2.11-25.252 25.319-42.788 49.824-38.447l80.979 13.444c24.588 3.817 40.877 27.907 34.717 52.48z" style="" fill="#ffffff" data-original="#ffffff"></path><path d="M310.876 451.387c-1.582 0-3.175-.079-4.777-.242-15.61-1.58-29.497-10.678-37.149-24.338-.749-1.339-2.076-2.255-3.639-2.515-1.565-.259-3.113.179-4.257 1.204-11.659 10.453-27.742 14.577-43.024 11.028-23.031-5.345-38.916-27.128-36.948-50.668 1.145-13.7 7.742-25.837 18.575-34.176a48.174 48.174 0 0 1 37.702-9.239l80.921 13.434c13.265 2.06 25.177 9.689 32.626 20.922 7.553 11.389 9.872 25.006 6.531 38.336-5.353 21.354-24.886 36.254-46.561 36.254zm-46.466-38.191c.898 0 1.802.074 2.707.224 4.882.811 9.054 3.728 11.448 8.001 5.897 10.527 16.606 17.54 28.644 18.759 18.112 1.825 35.113-10.085 39.536-27.727 2.579-10.289.794-20.789-5.026-29.566a37.124 37.124 0 0 0-25.188-16.131l-81.036-13.452c-10.298-1.826-20.885.772-29.115 7.11-8.348 6.426-13.432 15.787-14.316 26.36-1.515 18.125 10.719 34.897 28.457 39.015 11.785 2.734 24.188-.441 33.176-8.499a15.989 15.989 0 0 1 10.713-4.094z" style="" fill="#e3e3e3" data-original="#e3e3e3"></path><path d="M162.799 378.445c0-13.628 4.782-24.676 18.41-24.676s24.676 11.048 24.676 24.676-11.048 24.676-24.676 24.676-18.41-11.048-18.41-24.676z" style="" fill="#d4afb7" data-original="#d4afb7"></path><path d="M181.209 408.632c-7.193 0-23.921-2.941-23.921-30.187s16.728-30.187 23.921-30.187c16.645 0 30.187 13.542 30.187 30.187s-13.542 30.187-30.187 30.187zm0-49.352c-3.191 0-12.899 0-12.899 19.165s9.708 19.165 12.899 19.165c10.568 0 19.165-8.598 19.165-19.165s-8.597-19.165-19.165-19.165z" style="" fill="#b78e98" data-original="#b78e98"></path><path d="M103.383 115.439a7.845 7.845 0 0 1 2.857-3.663c1.615-1.139 3.383-1.617 5.308-1.435 1.923.183 3.507 1.154 4.749 2.916.552.783 1.046 1.9 1.483 3.351l13.407 50.342c.477 1.716.335 3.411-.427 5.083-.762 1.673-1.926 3.062-3.492 4.166-1.566 1.105-3.253 1.726-5.06 1.865-1.808.14-3.44-.303-4.895-1.33l-28.75-20.505 9.223 34.276c.428 1.751.273 3.454-.464 5.109-.739 1.656-1.866 3.019-3.382 4.089-1.567 1.105-3.254 1.726-5.06 1.865-1.808.14-3.44-.303-4.895-1.33L40.993 170.76c-1.033-.736-1.86-1.547-2.481-2.428-1.276-1.81-1.638-3.699-1.083-5.666.555-1.966 1.688-3.554 3.402-4.762a8.652 8.652 0 0 1 4.531-1.602c1.65-.1 3.221.386 4.711 1.459l30.455 21.832-9.752-36.431c-.478-1.714-.424-3.328.16-4.839a7.85 7.85 0 0 1 2.858-3.664 7.642 7.642 0 0 1 4.373-1.436c1.594-.025 3.137.5 4.627 1.573l30.796 22.47-10.366-36.988c-.479-1.714-.425-3.328.159-4.839zM156.861 152.307c-2.046-.352-3.792-1.558-5.242-3.613l-27.697-39.275c-1.415-2.006-1.946-4.031-1.592-6.077.353-2.044 1.558-3.792 3.613-5.241 2.104-1.484 4.191-2.057 6.261-1.722 2.069.337 3.811 1.508 5.226 3.514l27.697 39.275c1.45 2.056 1.985 4.115 1.608 6.176-.378 2.063-1.62 3.835-3.724 5.319-2.056 1.45-4.106 1.999-6.15 1.644zM187.838 57.2c2.062.379 3.784 1.546 5.164 3.503l27.697 39.275c1.415 2.007 1.967 4.036 1.655 6.087-.312 2.053-1.398 3.734-3.257 5.045-2.203 1.553-4.385 1.993-6.545 1.318l-41.938-12.085 16.463 23.345c1.415 2.007 1.991 4.02 1.728 6.036-.263 2.018-1.348 3.699-3.257 5.045-1.861 1.312-3.808 1.77-5.846 1.374-2.037-.395-3.763-1.595-5.178-3.603l-27.697-39.275c-1.38-1.957-1.914-3.962-1.603-6.014.312-2.051 1.397-3.733 3.257-5.045 2.104-1.484 4.262-1.906 6.472-1.266l41.886 12.011-16.463-23.345c-1.415-2.006-1.97-4.014-1.665-6.025.304-2.009 1.386-3.67 3.246-4.982 1.858-1.31 3.819-1.776 5.881-1.399z" style="" fill="#65e1e9" data-original="#65e1e9"></path><path d="M94.65 94.771a11.481 11.481 0 0 0 3.17-14.711L78.147 44.252c-3.364-6.122-11.369-7.847-16.956-3.654l-9.22 6.921c-5.586 4.194-6.165 12.362-1.225 17.301l28.893 28.887a11.48 11.48 0 0 0 15.011 1.064zM82.52 119.611a11.482 11.482 0 0 0-6.172-13.724L39.271 88.724c-6.339-2.935-13.808.424-15.819 7.114l-3.319 11.041c-2.011 6.69 2.368 13.61 9.275 14.657l40.395 6.123a11.484 11.484 0 0 0 12.717-8.048zM121.889 90.057a11.48 11.48 0 0 1-11.455-9.758l-6.131-40.394c-1.048-6.906 4.262-13.14 11.247-13.204l11.528-.104c6.985-.063 12.408 6.074 11.485 12.998l-5.398 40.499a11.48 11.48 0 0 1-11.276 9.963zM55.621 296.25c-34.394 4.086-59.99 16.83-46.392 34.786 13.598 17.956 56.39-1.839 56.39-1.839l-9.998-32.947z" style="" fill="#fd80a6" data-original="#fd80a6"></path><path d="M28.195 344.097c-10.624 0-18.451-3.252-23.359-9.734-6.216-8.209-5.313-15.121-3.462-19.474 7.176-16.868 39.873-22.48 53.598-24.111a5.515 5.515 0 0 1 5.923 3.873l9.998 32.947a5.51 5.51 0 0 1-2.959 6.602c-.46.212-11.395 5.235-24.236 8.035-5.694 1.242-10.865 1.862-15.503 1.862zm23.513-41.764c-18.209 2.704-36.718 8.704-40.193 16.87-.669 1.573-1.179 4.167 2.107 8.507 7.832 10.342 32.615 3.338 45.286-1.651l-7.2-23.726z" style="" fill="#fe518e" data-original="#fe518e"></path><path d="M126.814 374.936s42.917-43.947 58.215-32.57c15.298 11.377-45.981 67.382-45.981 67.382" style="" fill="#ffff9d" data-original="#ffff9d"></path><path d="m169.483 386.722-8.223-7.339c19.955-22.361 20.885-30.199 20.696-32.067-.04-.402-.107-.451-.215-.532-2.588-1.924-10.091-.706-23.396 8.489l-6.266-9.066c16.515-11.415 28.37-14.118 36.241-8.265 2.663 1.982 4.254 4.839 4.603 8.261.556 5.494-1.267 15.672-23.44 40.519z" style="" fill="#ffcc6b" data-original="#ffcc6b"></path><path d="M139.517 255.978c-15.782-12.732-46.679-11.202-71.34 16.633-24.288 26.282-42.342 78.87-23.773 132.378 16.154 54.286 61.511 86.444 96.573 93.606 36.274 8.204 62.252-8.588 67.636-28.139 11.288-41.715-33.862-53.268-49.372-102.464-16.121-48.998 13.79-84.733-19.724-112.014z" style="" fill="#ffff9d" data-original="#ffff9d"></path><path d="M174.613 468.812a5.475 5.475 0 0 1-1.53-.217c-.821-.237-20.348-5.968-42.052-20.278-29.01-19.127-47.906-44.575-54.645-73.594-5.986-25.775-2.704-51.154 9.754-75.43a5.51 5.51 0 0 1 7.419-2.387 5.51 5.51 0 0 1 2.388 7.419c-11.236 21.893-14.204 44.74-8.824 67.905 6.153 26.495 22.877 48.939 49.707 66.708 20.335 13.468 39.127 19.015 39.315 19.068a5.512 5.512 0 0 1-1.532 10.806z" style="" fill="#ffe5a7" data-original="#ffe5a7"></path><path d="M70.908 373.736a5.51 5.51 0 0 1-5.435-4.648c-.59-3.711.322-7.429 2.567-10.468a14.127 14.127 0 0 1 9.21-5.582c3.719-.589 7.44.283 10.486 2.456 3.075 2.194 5.094 5.446 5.682 9.159a5.508 5.508 0 0 1-4.579 6.305c-2.998.485-5.83-1.572-6.305-4.579a2.908 2.908 0 0 0-1.198-1.912 3.187 3.187 0 0 0-2.358-.544 3.172 3.172 0 0 0-2.073 1.247 2.919 2.919 0 0 0-.547 2.191 5.509 5.509 0 0 1-5.45 6.375z" style="" fill="#605c5d" data-original="#605c5d"></path><path d="M159.368 506.254c-5.889 0-12.408-.657-19.554-2.268-18.873-3.868-38.65-13.992-55.697-28.512-19.629-16.719-34.457-38.3-42.881-62.409a5.512 5.512 0 0 1 10.405-3.637c16.878 48.308 58.71 77.288 90.435 83.77l.111.023c25.187 5.695 54.935-1.819 61.115-24.234 5.671-20.975-4.554-32.943-18.706-49.507-8.041-9.412-17.154-20.078-24.146-33.949a106.343 106.343 0 0 1-6.466-15.879 106.294 106.294 0 0 1-4.23-18.138c-2.11-14.731-.979-28.22.019-40.121 1.821-21.717 3.136-37.408-13.734-51.148-14.194-11.447-41.928-8.601-63.733 16.015l-.077.085c-14.902 16.127-30.593 47.061-29.94 85.511a5.51 5.51 0 0 1-5.416 5.604l-.096.001a5.51 5.51 0 0 1-5.508-5.417c-.707-41.677 16.485-75.427 32.826-93.137 15.465-17.436 31.436-23.36 42.117-25.257 13.958-2.482 27.361.448 36.768 8.033 21.398 17.43 19.639 38.414 17.777 60.631-.995 11.871-2.024 24.145-.091 37.642a95.425 95.425 0 0 0 3.808 16.313 95.73 95.73 0 0 0 5.816 14.296c6.395 12.688 14.677 22.382 22.686 31.755 14.479 16.946 28.156 32.954 20.959 59.569-3.219 11.672-12.391 21.871-25.172 28.006-6.706 3.222-16.543 6.359-29.395 6.359z" style="" fill="#ffcc6b" data-original="#ffcc6b"></path><path d="M122.481 388.432c-1.551 5.758-4.334 9.603-7.989 10.177-5.63.871-11.706-6.246-15.424-17.082a86.718 86.718 0 0 1-.935-3.017c-1.19-4.164 1.508-8.434 5.778-9.115l11.6-1.849c4.207-.658 8.138 2.444 8.308 6.693.212 5.355-.276 10.221-1.338 14.193z" style="" fill="#777677" data-original="#777677"></path><path d="M122.481 388.432c-1.551 5.758-4.334 9.603-7.989 10.177-5.63.871-11.706-6.246-15.424-17.082 5.311-1.359 14.766-1.975 23.413 6.905z" style="" fill="#fd80a6" data-original="#fd80a6"></path><path d="M113.523 404.188c-8.437 0-16.415-9.207-20.689-24.159a12.775 12.775 0 0 1 1.507-10.372 12.685 12.685 0 0 1 8.705-5.71l11.608-1.842a12.762 12.762 0 0 1 10.091 2.738 12.528 12.528 0 0 1 4.585 9.177c.663 16.786-4.822 28.57-13.974 30.022-.611.098-1.223.146-1.833.146zm-8.748-29.356a1.625 1.625 0 0 0-1.14.75 1.729 1.729 0 0 0-.204 1.419c3.414 11.942 8.649 16.406 10.198 16.157 1.535-.244 5.184-6.165 4.688-18.703a1.47 1.47 0 0 0-.561-1.091 1.738 1.738 0 0 0-1.375-.375l-11.606 1.843z" style="" fill="#605c5d" data-original="#605c5d"></path><path d="M74.517 391.905s-42.917-43.947-58.215-32.57c-15.298 11.377 45.981 67.382 45.981 67.382" style="" fill="#ffff9d" data-original="#ffff9d"></path><path d="M62.281 432.228a5.488 5.488 0 0 1-3.715-1.443c-.512-.467-12.658-11.593-24.905-25.08-23.279-25.636-25.59-36.146-25.303-41.822.189-3.744 1.799-6.845 4.656-8.97 8.665-6.443 22.226-2.506 41.458 12.045 12.823 9.703 23.539 20.635 23.988 21.096a5.51 5.51 0 0 1-7.885 7.702c-.105-.108-10.659-10.87-22.838-20.072-16.16-12.208-25.134-14.164-28.146-11.927-.102.076-.199.148-.225.682-.103 2.026 1.209 10.45 22.404 33.8 11.905 13.117 24.109 24.299 24.232 24.411a5.512 5.512 0 0 1-3.721 9.578z" style="" fill="#ffcc6b" data-original="#ffcc6b"></path><path d="M157.436 315.171s-8.727-4.018-23.967-7.755c2.705-9.158 4.469-23.806-9.278-29.287-12.655-5.06-27.814 2.485-34.117 23.215l.08.01c-14.017-.591-29.758.04-46.771 2.785 0 0 10.931-70.257 66.831-66.41 55.909 3.848 58.995 41.662 47.222 77.442z" style="" fill="#fd80a6" data-original="#fd80a6"></path><path d="M160.485 255.388c-9.228-13.719-26.013-21.509-49.888-23.153-25.138-1.738-45.711 10.213-59.551 34.533-10.106 17.758-12.992 35.768-13.111 36.526a5.508 5.508 0 0 0 6.323 6.287c64.177-10.353 110.414 10.387 110.873 10.598a5.505 5.505 0 0 0 4.501.046 5.511 5.511 0 0 0 3.036-3.331c8.421-25.596 7.666-46.865-2.183-61.506zm-31.095 45.37c-8.857-1.931-19.43-3.637-31.425-4.516 2.901-5.927 6.863-10.267 11.51-12.5 4.138-1.985 8.52-2.158 12.677-.499 6.408 2.556 8.822 8.446 7.238 17.515zm24.525 7.051c-3.314-1.23-7.975-2.807-13.812-4.415 2.746-14.79-2.147-25.714-13.865-30.386-6.995-2.794-14.642-2.511-21.534.8-8.047 3.865-14.512 11.554-18.496 21.871-1.774-.04-3.566-.067-5.39-.067-9.482 0-19.637.57-30.335 1.936 1.676-6.358 4.8-15.941 10.143-25.33 11.764-20.675 28.334-30.429 49.214-28.989 20.306 1.398 34.269 7.558 41.501 18.309 8.796 13.08 6.701 31.465 2.574 46.271z" style="" fill="#fe518e" data-original="#fe518e"></path><path d="M129.903 364.373a5.51 5.51 0 0 1-5.435-4.649c-1.21-7.627 4.074-14.827 11.778-16.049 7.709-1.231 14.957 3.986 16.168 11.613a5.51 5.51 0 1 1-10.884 1.728c-.257-1.623-1.848-2.727-3.556-2.457-1.703.271-2.879 1.813-2.621 3.438a5.51 5.51 0 0 1-5.45 6.376z" style="" fill="#605c5d" data-original="#605c5d"></path></g></svg>