<svg xmlns="http://www.w3.org/2000/svg" version="1.1" xmlns:xlink="http://www.w3.org/1999/xlink" width="512" height="512" x="0" y="0" viewBox="0 0 512 512" style="enable-background:new 0 0 512 512" xml:space="preserve" class=""><g><path fill="#3c2415" d="M261.274 503.081a89.46 89.46 0 0 1-5.521-.155 89.49 89.49 0 0 1-5.521.155c-14.606 0-40.809-2.666-52.194-20.518-6.058-9.501-4.855-28.626 3.685-58.403-15.465-9.006-70.799-41.575-92.494-59.064-3.239-2.611-6.147-5.455-8.65-8.459-6.043-5.456-9.982-13.967-11.402-24.646-1.187-8.924-2.923-26.214-4.933-46.234-1.681-16.738-3.585-35.71-5.457-52.569-2.915-26.249-5.218-42.358-6.847-47.881a11.657 11.657 0 0 1-.432-2.395c-2.512-7.061-8.648-22.548-16.217-29.242-5.611-4.963-7.693-11.274-5.568-16.883 2.22-5.859 8.597-9.646 16.248-9.646 3.277 0 6.649.667 10.024 1.983 9.543 3.721 17.104 12.577 22.301 20.563 3.831-1.626 7.575-2.447 11.176-2.447 5.95 0 11.311 2.325 15.503 6.726s7.793 8.738 10.786 12.99c3.492-21.804 14.44-40.167 24.398-50.634 8.096-8.509 16.529-13.195 23.746-13.195.616 0 1.23.034 1.827.102 17.526 1.983 29.651 33.347 37.016 61.204a237.508 237.508 0 0 1 8.495-1.575 149.528 149.528 0 0 1 24.513-2.028c8.192 0 16.439.683 24.513 2.028 2.781.464 5.578.981 8.359 1.548 7.365-27.844 19.489-59.194 37.009-61.177a16.41 16.41 0 0 1 1.827-.102c7.505 0 16.247 5.017 24.614 14.126 9.82 10.689 20.371 28.995 23.641 50.46 3.092-4.493 6.867-9.082 11.312-13.747 4.193-4.4 9.554-6.726 15.503-6.726 3.601 0 7.345.821 11.176 2.447 5.197-7.986 12.758-16.843 22.301-20.563 3.375-1.316 6.747-1.983 10.024-1.983 7.65 0 14.027 3.786 16.247 9.646 2.125 5.607.043 11.919-5.567 16.882-7.569 6.694-13.705 22.182-16.217 29.242a11.59 11.59 0 0 1-.433 2.395c-2.606 8.835-6.239 42.238-7.433 53.216-1.676 15.417-3.373 32.314-4.87 47.224-2.01 20.025-3.747 37.32-4.934 46.245-1.42 10.68-5.359 19.19-11.402 24.646-2.503 3.004-5.411 5.848-8.65 8.459-21.975 17.715-77.43 50.309-92.918 59.312 8.475 29.638 9.653 48.682 3.613 58.155-11.384 17.851-37.584 20.518-52.191 20.518h-.006zm107.54-286.791c4.773 9.503 7.747 19.856 8.844 30.815a92.06 92.06 0 0 1 .276 3.347c1.427-4.611 2.779-8.897 3.974-12.66l1.186-3.73c.863-2.711 1.701-5.345 2.337-7.392-5.788-3.002-11.378-7.527-15.188-13.531a80.903 80.903 0 0 1-1.429 3.151zm-242.247 10.374c.639 2.056 1.481 4.703 2.349 7.43l.264.829c1.183 3.718 2.747 8.635 4.484 14.229.054-.688.115-1.371.184-2.05 1.091-10.896 4.04-21.201 8.772-30.666a80.344 80.344 0 0 1-1.258-2.737c-3.826 5.744-9.27 10.083-14.795 12.965z" opacity="1" data-original="#3c2415"></path><g fill="#caa791"><path d="M327.567 381.119s30.951-3.254 52.909-28.182c21.957-24.929-10.067-98.667-10.067-98.667zM183.938 381.119s-30.951-3.254-52.909-28.182 10.067-98.667 10.067-98.667zM309.253 479.875c-13.52 21.2-53.5 18.04-53.5 18.04s-39.98 3.16-53.5-18.04c-13.02-20.42 20.43-100.59 20.43-100.59l33.07 3.57 33.07-3.57s33.45 80.17 20.43 100.59z" fill="#caa791" opacity="1" data-original="#caa791"></path></g><path fill="#b0917d" d="M208.325 422.21s19.224-11.9 45.437-11.9 49.912 11.9 49.912 11.9l-11.793-35.243-71.102-2.958z" opacity="1" data-original="#b0917d"></path><ellipse cx="256.528" cy="442.833" fill="#feead1" rx="34.06" ry="46.87" opacity="1" data-original="#feead1"></ellipse><path fill="#caa791" d="M362.634 305.556a36.68 36.68 0 0 0-.849 25.441c6.416 19.328 4.797 49.153-88.883 62.436a267.138 267.138 0 0 1-13.761 1.696 35.215 35.215 0 0 1-6.779 0 268.235 268.235 0 0 1-13.761-1.695c-93.68-13.284-95.299-43.109-88.883-62.436a36.68 36.68 0 0 0-.849-25.441c-9.351-22.938-11.643-42.157-10.049-57.952 3.657-36.531 28.071-54.856 34.117-58.866a46.405 46.405 0 0 0 2.538-1.825c8.365-6.394 30.017-14.697 56.584-19.124a144.178 144.178 0 0 1 47.382 0c26.567 4.427 48.218 12.73 56.584 19.124a46.405 46.405 0 0 0 2.538 1.825c6.046 4.01 30.46 22.335 34.117 58.866 1.597 15.794-.695 35.013-10.046 57.951z" opacity="1" data-original="#caa791"></path><path fill="#caa791" d="M290.78 176.63s14.034-66.014 35.415-68.434 64.942 58.441 35.846 110.295c-4.831 3.702-73.644-32.87-71.261-41.861z" opacity="1" data-original="#caa791"></path><path fill="#6f5b54" d="M312.061 178.468c-5.211-.645-7.708-72.348 17.796-68.039s54.981 66.925 30.878 103.973c-8.255-24.079-30.326-33.664-48.674-35.934z" opacity="1" data-original="#6f5b54"></path><path fill="#caa791" d="M220.582 176.63s-14.034-66.014-35.415-68.434-64.942 58.441-35.846 110.295c4.831 3.702 73.643-32.87 71.261-41.861z" opacity="1" data-original="#caa791"></path><path fill="#6f5b54" d="M199.301 178.468c5.211-.645 7.708-72.348-17.796-68.039s-54.981 66.925-30.878 103.973c8.254-24.079 30.325-33.664 48.674-35.934z" opacity="1" data-original="#6f5b54"></path><g fill="#6f5b54"><ellipse cx="321.383" cy="276.809" rx="45.957" ry="52.596" transform="rotate(-59.2 321.21 276.769)" fill="#6f5b54" opacity="1" data-original="#6f5b54"></ellipse><ellipse cx="190.404" cy="276.809" rx="52.596" ry="45.957" transform="rotate(-30.8 190.611 276.973)" fill="#6f5b54" opacity="1" data-original="#6f5b54"></ellipse></g><path fill="#ffffff" d="M285.511 274.383c-9.447-5.489-8.553-.255-12.128-9.574-.76-1.981-1.583-3.715-2.487-5.237.344-2.538.53-5.203.53-7.954 0-17.015-7.011-30.808-15.66-30.808s-15.66 13.793-15.66 30.808c0 2.714.18 5.345.515 7.853-.266.838-.448 1.76-.515 2.785-.766 11.66-3.064 10.128-10.213 12.17s-10.979 5.532-11.574 16.255 4.128 53.404 37.574 53.404 36.383-42.128 36.383-42.128 2.682-22.085-6.765-27.574z" opacity="1" data-original="#ffffff"></path><path fill="#ffffff" d="M288.67 317.095c-.14.7-.3 1.26-.49 1.64-2.08 4.15-17.04 3.95-17.04 3.95h-30.76c-11.27 0-17.05-3.95-17.05-3.95l.21-1.25c-.14.12-.27.24-.41.35 0 0-10.6-26.42-2.28-39.97 3.46-4.18 8.44-4.92 11.97-4.82l7.56-6.356c.85-.94 6.34-6.85 15.36-6.86 9.04-.01 14.56 5.92 15.4 6.86l6.48 6.406c3.54-.27 9.21.15 13.04 4.77 7.5 12.21-.37 34.86-1.99 39.23z" opacity="1" data-original="#ffffff"></path><path fill="#3c2415" d="M239.302 222.022c-.926-1.319 2.837 47.385-8.199 48.178s-25.517 14.95-7.772 48.538c-5.745-25.464-5.344-44.463 9.088-44.176 14.43.287 12.108-45.098 6.883-52.54zM272.203 222.022c.926-1.319-2.837 47.385 8.199 48.178s25.517 14.95 7.772 48.538c5.745-25.464 5.344-44.463-9.088-44.176-14.43.287-12.108-45.098-6.883-52.54z" opacity="1" data-original="#3c2415"></path><g fill="#3c2415"><path d="M254.76 286.061h2v31.782h-2z" fill="#3c2415" opacity="1" data-original="#3c2415"></path><path d="M271.138 278.265c0 3.859-15.378 10.307-15.378 10.307s-15.378-6.448-15.378-10.307 6.885-6.988 15.378-6.988 15.378 3.129 15.378 6.988z" fill="#3c2415" opacity="1" data-original="#3c2415"></path></g><g fill="#fff"><path d="M242.653 212.264c3.948-7.274-13.79-51.282-31.448-30.601-15.051 17.628 22.757 46.615 31.448 30.601zM268.852 212.264c-3.948-7.274 13.79-51.282 31.448-30.601 15.051 17.628-22.757 46.615-31.448 30.601z" fill="#ffffff" opacity="1" data-original="#ffffff"></path></g><ellipse cx="320.604" cy="247.416" fill="#ffffff" rx="35.938" ry="49.89" transform="rotate(-13.59 320.182 247.624)" opacity="1" data-original="#ffffff"></ellipse><path fill="#3c2415" d="M326.135 297.645c-20.565 0-39.826-22.463-42.942-50.087-1.791-15.879 2.187-31.012 10.641-40.481 5.77-6.463 13.106-9.883 21.216-9.889h.022c20.565 0 39.826 22.463 42.943 50.087 1.791 15.88-2.188 31.013-10.642 40.481-5.77 6.463-13.106 9.882-21.216 9.889h-.022zm-11.062-98.457h-.021c-7.524.006-14.346 3.195-19.727 9.221-8.08 9.051-11.873 23.602-10.144 38.924 3.005 26.646 21.374 48.312 40.953 48.312h.021c7.524-.006 14.346-3.194 19.727-9.221 8.08-9.051 11.873-23.602 10.145-38.925-3.006-26.645-21.375-48.311-40.954-48.311z" opacity="1" data-original="#3c2415"></path><ellipse cx="297.404" cy="247.416" fill="#3c2415" rx="6.253" ry="5.65" transform="rotate(-89.37 297.41 247.4)" opacity="1" data-original="#3c2415"></ellipse><g fill="#fff"><ellipse cx="295.376" cy="244.716" rx="2.927" ry="2.024" transform="rotate(-51.33 295.366 244.663)" fill="#ffffff" opacity="1" data-original="#ffffff"></ellipse><ellipse cx="295.243" cy="249.191" rx="1.806" ry="1.276" transform="rotate(-4.44 297.317 249.55)" fill="#ffffff" opacity="1" data-original="#ffffff"></ellipse></g><ellipse cx="190.902" cy="247.416" fill="#ffffff" rx="49.89" ry="35.938" transform="rotate(-76.47 190.924 247.482)" opacity="1" data-original="#ffffff"></ellipse><path fill="#3c2415" d="M185.347 297.645c-8.109-.006-15.446-3.426-21.216-9.889-8.454-9.469-12.433-24.602-10.642-40.481 3.117-27.625 22.378-50.087 42.943-50.087h.022c8.109.006 15.446 3.426 21.216 9.889 8.454 9.469 12.432 24.602 10.641 40.481-3.116 27.625-22.377 50.087-42.942 50.087h-.022zM155.478 247.5c-1.729 15.323 2.064 29.874 10.145 38.925 5.381 6.026 12.202 9.215 19.727 9.221h.021c19.579 0 37.948-21.667 40.953-48.312 1.729-15.322-2.063-29.874-10.144-38.924-5.381-6.026-12.202-9.215-19.727-9.221h-.021c-19.579-.001-37.948 21.665-40.954 48.311z" opacity="1" data-original="#3c2415"></path><ellipse cx="214.101" cy="247.416" fill="#3c2415" rx="6.253" ry="5.65" transform="rotate(-89.37 214.108 247.403)" opacity="1" data-original="#3c2415"></ellipse><g fill="#fff"><ellipse cx="212.073" cy="244.716" rx="2.927" ry="2.024" transform="rotate(-51.33 212.071 244.67)" fill="#ffffff" opacity="1" data-original="#ffffff"></ellipse><ellipse cx="211.94" cy="249.191" rx="1.806" ry="1.276" transform="rotate(-4.44 213.62 249.786)" fill="#ffffff" opacity="1" data-original="#ffffff"></ellipse></g><path fill="#3c2415" d="M269.925 346.573c0 2.08-.1 4.1-.28 6.06-1.31 13.95-7.03 24.45-13.89 24.45-6.87 0-12.59-10.51-13.89-24.46-.18-1.95-.28-3.98-.28-6.05 0-16.85 6.34-30.51 14.17-30.51 7.82-.001 14.17 13.659 14.17 30.51z" opacity="1" data-original="#3c2415"></path><path fill="#ff9bb2" d="M269.645 352.632c-1.31 13.95-7.03 24.45-13.89 24.45-6.87 0-12.59-10.51-13.89-24.46 3.79-3.78 8.62-6.05 13.89-6.05 5.27.001 10.11 2.27 13.89 6.06z" opacity="1" data-original="#ff9bb2"></path><path fill="#3c2415" d="M255.753 378.086c-8.507 0-15.17-13.841-15.17-31.511 0-17.669 6.664-31.51 15.17-31.51s15.17 13.841 15.17 31.51c0 17.67-6.664 31.511-15.17 31.511zm0-61.021c-7.139 0-13.17 13.514-13.17 29.51s6.031 29.511 13.17 29.511 13.17-13.515 13.17-29.511-6.032-29.51-13.17-29.51z" opacity="1" data-original="#3c2415"></path><g fill="#ff93a8"><ellipse cx="345.469" cy="311.517" rx="27.679" ry="13.872" fill="#ff93a8" opacity="1" data-original="#ff93a8"></ellipse><ellipse cx="166.036" cy="311.517" rx="27.679" ry="13.872" fill="#ff93a8" opacity="1" data-original="#ff93a8"></ellipse></g><path fill="#b0917d" d="M416.65 316.421s8.006 24.613-17.015 44.783-95.96 61.006-95.96 61.006l-10.609-32.15 75.718-71.068z" opacity="1" data-original="#b0917d"></path><path fill="#594a45" d="M433.965 186.708s7.859-26.546 19.434-36.784-.011-22.21-15.574-16.141-25.786 29.147-25.786 29.147z" opacity="1" data-original="#594a45"></path><path fill="#caa791" d="M396 244.617c-3.393-1.131-6.501-2.974-9.326-5.312-8.396 26.443-24.515 78.34-20.947 93.687 6.915 29.743 46.844 38.169 52.141-1.661 2.075-15.602 5.914-57.7 9.79-93.35-8.033 7.61-21.141 10.58-31.658 6.636z" opacity="1" data-original="#caa791"></path><path fill="#6f5b54" d="M390.648 157.415c-36.935 38.765-15.314 60.189.788 66.498-.312 1.482-2.169 7.224-4.762 15.391 2.825 2.338 5.933 4.181 9.326 5.312 10.517 3.944 23.625.974 31.659-6.636 2.715-24.965 5.448-46.77 7.608-54.091 3.514-11.914-27.794-44.133-44.619-26.474z" opacity="1" data-original="#6f5b54"></path><path fill="#b0917d" d="M95.35 316.421s-8.006 24.613 17.015 44.783 95.96 61.006 95.96 61.006l10.61-32.15-75.718-71.068z" opacity="1" data-original="#b0917d"></path><path fill="#594a45" d="M78.035 186.708s-7.859-26.546-19.434-36.784.011-22.21 15.574-16.141 25.786 29.147 25.786 29.147z" opacity="1" data-original="#594a45"></path><path fill="#6f5b54" d="M113 242.617a23.673 23.673 0 0 0 11.415-6.179c-2.11-6.631-3.577-11.223-3.851-12.525 16.102-6.309 37.723-27.734.788-66.498-16.825-17.659-48.134 14.56-44.619 26.475 2.004 6.793 4.502 26.058 7.02 48.745 7.083 8.745 16.829 13.634 29.247 9.982z" opacity="1" data-original="#6f5b54"></path><path fill="#caa791" d="M124.415 236.438A23.668 23.668 0 0 1 113 242.617c-12.418 3.652-22.164-1.237-29.246-9.982 4.072 36.678 8.197 82.306 10.377 98.696 5.298 39.83 45.226 31.404 52.141 1.661 3.703-15.924-13.788-71.194-21.857-96.554z" opacity="1" data-original="#caa791"></path><path fill="#3c2415" d="M223.8 78.879c1.397 1.132 3.043 1.606 5.18 1.496l.166-.01c1.779-.116 3.089-.695 4.122-1.819.627-.683 1.445-1.896 1.292-4.534-.114-1.994-.753-3.561-1.951-4.793-.369-.379-1.501-1.541-4.708-1.375l-.187.011c-2 .132-3.471.809-4.626 2.128-1.141 1.302-1.609 2.76-1.473 4.588.138 1.846.832 3.215 2.185 4.308zM287.312 77.9l.296-.01c1.638-.085 2.879-.598 3.906-1.616.657-.652 1.53-1.828 1.499-4.469-.021-1.998-.586-3.592-1.726-4.877-.363-.409-1.471-1.657-4.829-1.591l-.309.011c-1.856.096-3.256.699-4.409 1.9-1.202 1.25-1.737 2.684-1.685 4.516.053 1.85.682 3.25 1.983 4.404 1.378 1.225 3.052 1.775 5.274 1.732z" opacity="1" data-original="#3c2415"></path><path fill="#3c2415" d="M374.153 80.026a8.999 8.999 0 0 0-8.609-9.374c-5.882-.251-11.815-.46-17.731-.629l.79-37.653a8.954 8.954 0 0 0-.583-3.368l.118-5.62a9 9 0 0 0-8.809-9.186 1316.68 1316.68 0 0 0-21.174-.275 9.001 9.001 0 0 0-9.045 8.955l-.094 18.792a35.315 35.315 0 0 0-3.866-2.162c-5.694-2.716-12.284-4.02-19.589-3.874-.408.008-.814.023-1.221.044-5.456.282-10.842 1.73-16.01 4.305a36.392 36.392 0 0 0-11.665 9.167c-3.134-3.388-6.972-6.06-11.475-7.96-5.597-2.359-11.968-3.372-18.939-3.012-.267.014-.537.03-.807.048-5.866.389-11.589 2.118-17.012 5.14a37.473 37.473 0 0 0-3.978 2.56c-2.371-5.085-5.576-9.475-9.59-13.062a41.77 41.77 0 0 0-17.031-9.243 49.532 49.532 0 0 0-15.55-1.666 51.576 51.576 0 0 0-3.244.272c-8.737 1.013-16.659 4.116-23.549 9.222-6.875 5.095-12.039 11.574-15.349 19.255-3.317 7.699-4.362 15.932-3.107 24.469l.01.055c-.13 2.934.011 5.913.455 8.933 1.201 8.177 4.386 15.68 9.467 22.3 4.995 6.506 11.253 11.515 18.6 14.886 6.59 3.026 13.52 4.375 20.597 4.009a45.35 45.35 0 0 0 2.944-.249c6.419-.751 12.57-2.864 18.285-6.279 5.302-3.172 9.764-7.168 13.305-11.874 3.173 3.468 6.939 6.301 11.251 8.443 5.734 2.848 11.941 4.123 18.447 3.786l.579-.034c6.661-.44 12.779-2.434 18.18-5.925a36.477 36.477 0 0 0 9.73-9.173 38.198 38.198 0 0 0 10.043 8.037c5.764 3.202 12.1 4.759 18.833 4.627.448-.009.894-.025 1.338-.048 6.161-.318 11.914-2.012 17.098-5.03a37.996 37.996 0 0 0 3.28-2.163 8.987 8.987 0 0 0 2.326 4.152 8.997 8.997 0 0 0 6.35 2.667c15.356.077 30.916.447 46.248 1.1a9.005 9.005 0 0 0 6.471-2.363 9.005 9.005 0 0 0 2.904-6.247l.842-19.768a8.944 8.944 0 0 0-.684-3.825zM138.467 35.463c6.177-4.578 13.292-7.361 21.148-8.272a46.037 46.037 0 0 1 2.926-.246c4.713-.244 9.418.26 13.983 1.498a36.79 36.79 0 0 1 15.008 8.146c4.361 3.896 7.659 8.887 9.806 14.834a4 4 0 0 1-2.306 5.083 1257.511 1257.511 0 0 0-17.273 6.905 4.001 4.001 0 0 1-5.113-1.963c-.944-1.954-2.717-3.66-5.269-5.071-2.282-1.261-4.786-1.803-7.657-1.654-.399.021-.802.055-1.21.102-4.241.493-7.478 2.068-9.896 4.814-2.276 2.584-3.089 6.083-2.485 10.697.409 3.138 1.406 5.784 2.963 7.865 1.537 2.054 3.344 3.478 5.524 4.352a13.867 13.867 0 0 0 6.003.992c.336-.017.675-.046 1.015-.086 2.213-.258 4.152-.931 5.927-2.058 1.843-1.17 3.33-2.518 4.418-4.005 1.292-1.767 1.723-2.975 1.857-3.676a4 4 0 0 1 4.804-3.154c4.216.945 8.481 1.933 12.738 2.936-.098-5.343 1.173-10.212 3.789-14.501 2.908-4.772 6.846-8.565 11.702-11.273 4.77-2.658 9.785-4.179 14.907-4.518.246-.016.491-.031.735-.043 6.211-.321 11.843.562 16.738 2.626 5.217 2.201 9.386 5.596 12.392 10.091.419.626.803 1.273 1.169 1.933.464-.904.965-1.792 1.54-2.644 3.129-4.634 7.238-8.24 12.211-10.719 4.549-2.267 9.272-3.54 14.038-3.787.354-.018.707-.031 1.063-.038 6.519-.13 12.352 1.01 17.337 3.388 4.558 2.175 8.235 5.268 10.962 9.196l.151-30.314a3.995 3.995 0 0 1 4.02-3.979c7.018.035 14.115.127 21.095.275a4 4 0 0 1 3.914 4.083l-1.082 51.593c7.743.187 15.554.448 23.274.777a4 4 0 0 1 3.827 4.166l-.842 19.768a4 4 0 0 1-4.166 3.826 1241.282 1241.282 0 0 0-46.436-1.105 4.002 4.002 0 0 1-3.98-4.02l.05-9.943c-2.71 4.119-6.253 7.476-10.565 9.985-4.49 2.615-9.484 4.081-14.842 4.358-.39.02-.783.034-1.179.042-5.838.115-11.324-1.23-16.305-3.998-4.96-2.756-9.005-6.567-12.022-11.327a34.583 34.583 0 0 1-.912-1.541 30.933 30.933 0 0 1-.998 2.12c-2.581 4.958-6.276 9.014-10.984 12.054-4.68 3.024-9.996 4.753-15.797 5.136l-.507.03c-5.637.291-11.009-.809-15.964-3.271-5.085-2.526-9.302-6.145-12.534-10.758a33.796 33.796 0 0 1-1.335-2.077 34.298 34.298 0 0 1-2.876 4.895c-3.253 4.614-7.493 8.502-12.601 11.558-5.104 3.05-10.587 4.936-16.3 5.605-.873.102-1.755.177-2.621.222-6.263.324-12.403-.874-18.252-3.56-6.6-3.03-12.226-7.534-16.721-13.388-4.556-5.935-7.411-12.658-8.487-19.982-1.118-7.607-.192-14.929 2.752-21.764 2.953-6.861 7.574-12.653 13.731-17.216zm18.364 36.469c.998-1.133 2.779-2.692 6.719-3.151.301-.035.598-.06.891-.075 1.91-.099 3.539.24 4.98 1.037 1.628.9 2.701 1.866 3.186 2.871.065.135.153.252.224.383-.121.266-.375.744-.889 1.447-.718.982-1.749 1.903-3.062 2.737-1.125.714-2.377 1.143-3.826 1.312-.233.027-.464.047-.695.059a8.979 8.979 0 0 1-3.884-.639c-1.322-.53-2.396-1.39-3.381-2.707-.439-.587-.794-1.262-1.098-1.997.295-.66.631-1.046.835-1.277z" opacity="1" data-original="#3c2415"></path><path fill="#ffffff" d="M124.733 52.679c-2.945 6.834-3.871 14.157-2.752 21.764 1.075 7.324 3.931 14.047 8.487 19.982 4.495 5.854 10.12 10.358 16.721 13.388 5.849 2.686 11.989 3.883 18.252 3.56a40.329 40.329 0 0 0 2.621-.222c5.713-.669 11.197-2.555 16.3-5.605 5.108-3.055 9.348-6.944 12.601-11.558a34.298 34.298 0 0 0 2.876-4.895c.419.702.858 1.396 1.335 2.077 3.232 4.613 7.449 8.233 12.534 10.758 4.955 2.461 10.327 3.562 15.964 3.271l.507-.03c5.802-.383 11.117-2.111 15.797-5.136 4.707-3.04 8.403-7.096 10.984-12.054.362-.696.69-1.405.998-2.12.291.518.59 1.033.912 1.541 3.016 4.76 7.061 8.57 12.022 11.327 4.982 2.768 10.467 4.113 16.305 3.998a38.01 38.01 0 0 0 1.179-.042c5.358-.277 10.352-1.744 14.842-4.358 4.312-2.51 7.855-5.866 10.565-9.985l-.05 9.943a3.996 3.996 0 0 0 3.98 4.02c15.419.077 31.042.448 46.436 1.105a4 4 0 0 0 4.166-3.826l.842-19.768a4 4 0 0 0-3.827-4.166c-7.721-.329-15.532-.59-23.274-.777l1.082-51.593a4 4 0 0 0-3.914-4.083c-6.98-.147-14.077-.239-21.095-.275a4.004 4.004 0 0 0-2.835 1.157 3.997 3.997 0 0 0-1.185 2.822l-.151 30.314c-2.727-3.928-6.403-7.021-10.962-9.196-4.985-2.378-10.818-3.518-17.337-3.388-.356.007-.709.02-1.063.038-4.766.246-9.489 1.52-14.038 3.787-4.973 2.479-9.082 6.086-12.211 10.719a25.66 25.66 0 0 0-1.54 2.644c-.365-.66-.75-1.307-1.169-1.933-3.006-4.495-7.175-7.89-12.392-10.091-4.896-2.064-10.527-2.947-16.738-2.626-.243.013-.489.027-.735.043-5.122.34-10.137 1.86-14.907 4.518-4.856 2.708-8.794 6.501-11.702 11.273-2.616 4.288-3.887 9.157-3.789 14.501a1229.283 1229.283 0 0 0-12.738-2.936 4.001 4.001 0 0 0-4.804 3.154c-.134.702-.565 1.91-1.857 3.676-1.089 1.488-2.575 2.835-4.418 4.005-1.775 1.127-3.713 1.8-5.927 2.058-.341.04-.679.068-1.015.086a13.867 13.867 0 0 1-6.003-.992c-2.18-.874-3.987-2.298-5.524-4.352-1.557-2.081-2.554-4.727-2.963-7.865-.604-4.614.209-8.113 2.485-10.697 2.418-2.746 5.654-4.321 9.896-4.814a18.11 18.11 0 0 1 1.21-.102c2.87-.148 5.375.393 7.657 1.654 2.552 1.41 4.325 3.116 5.269 5.071a4.002 4.002 0 0 0 5.113 1.963 1249.916 1249.916 0 0 1 17.273-6.905 4 4 0 0 0 2.306-5.083c-2.146-5.947-5.445-10.939-9.806-14.834a36.802 36.802 0 0 0-15.008-8.146 44.543 44.543 0 0 0-13.983-1.498c-.969.05-1.953.133-2.926.246-7.856.911-14.971 3.694-21.148 8.272-6.154 4.563-10.775 10.355-13.731 17.216zm193.376-29.76c7.01.035 14.02.126 21.031.273l-1.167 55.586c9.064.19 18.127.479 27.188.865l-.843 19.768a1239.688 1239.688 0 0 0-46.585-1.109l.376-75.383zM285.74 44.628c5.926-.118 11.118.891 15.535 2.999 4.419 2.109 7.823 5.153 10.215 9.11 2.39 3.957 3.563 8.579 3.547 13.855-.013 5.211-1.278 9.938-3.746 14.192-2.472 4.255-5.832 7.61-10.085 10.085-4.253 2.476-8.936 3.757-14.087 3.858-5.151.102-9.899-1.059-14.283-3.495-4.385-2.437-7.912-5.753-10.586-9.971-2.674-4.217-4.132-8.757-4.34-13.635-.23-5.401 1.009-10.145 3.755-14.212 2.745-4.067 6.308-7.199 10.68-9.378 4.37-2.181 8.847-3.317 13.395-3.408zm-83.16 16.456c2.554-4.189 5.97-7.483 10.236-9.862 4.266-2.378 8.685-3.72 13.224-4.021 5.914-.392 11.145.377 15.655 2.278 4.509 1.902 8.051 4.786 10.621 8.628 2.571 3.843 3.953 8.406 4.182 13.676.226 5.206-.815 9.986-3.085 14.349-2.272 4.364-5.474 7.871-9.606 10.54-4.132 2.67-8.752 4.165-13.891 4.505-5.141.34-9.936-.6-14.429-2.832-4.493-2.231-8.171-5.381-11.037-9.471-2.865-4.088-4.532-8.557-4.965-13.42-.479-5.384.539-10.179 3.095-14.37zm-27.103-28.78c5.032 1.365 9.502 3.795 13.391 7.268 3.89 3.475 6.787 7.885 8.708 13.209a1250.44 1250.44 0 0 0-17.329 6.927c-1.312-2.715-3.62-4.998-6.935-6.831-3.314-1.832-7.08-2.51-11.264-2.024-5.216.607-9.374 2.665-12.436 6.144-3.066 3.48-4.202 8.106-3.449 13.859.504 3.86 1.753 7.104 3.727 9.742s4.387 4.525 7.238 5.668c2.85 1.143 5.835 1.531 8.969 1.166 2.8-.326 5.333-1.209 7.608-2.654 2.276-1.445 4.108-3.116 5.502-5.02 1.392-1.903 2.248-3.666 2.558-5.289a1211.095 1211.095 0 0 1 16.97 3.933c-.393 4.671-2.086 9.093-5.039 13.28-2.955 4.19-6.749 7.657-11.386 10.43-4.64 2.773-9.529 4.458-14.712 5.065-6.495.76-12.718-.235-18.739-3-6.021-2.763-11.091-6.814-15.217-12.189-4.124-5.372-6.715-11.405-7.702-18.127-1.007-6.851-.209-13.387 2.468-19.6 2.676-6.211 6.821-11.42 12.442-15.586 5.618-4.164 12.05-6.68 19.227-7.512a40.542 40.542 0 0 1 15.4 1.141z" opacity="1" data-original="#ffffff"></path><path fill="#ffffff" d="M221.285 81.99c2.213 1.792 4.918 2.577 8.123 2.367 2.805-.184 5.069-1.215 6.805-3.103 1.734-1.888 2.52-4.376 2.34-7.471-.17-2.963-1.193-5.415-3.076-7.351-1.884-1.934-4.563-2.796-8.026-2.567-3.056.202-5.518 1.367-7.372 3.484-1.856 2.118-2.668 4.627-2.453 7.52.221 2.959 1.445 5.331 3.659 7.121zm1.803-12.007c1.156-1.319 2.626-1.996 4.626-2.128l.187-.011c3.207-.166 4.339.997 4.708 1.375 1.198 1.232 1.836 2.8 1.951 4.793.152 2.637-.665 3.851-1.292 4.534-1.033 1.124-2.343 1.702-4.122 1.819l-.166.01c-2.137.11-3.783-.364-5.18-1.496-1.353-1.093-2.047-2.462-2.184-4.309-.137-1.827.331-3.284 1.472-4.587zM276.056 71.876c.084 2.967 1.196 5.393 3.326 7.284 2.128 1.893 4.793 2.802 8.006 2.74 2.811-.054 5.12-.98 6.941-2.786 1.819-1.806 2.719-4.254 2.683-7.355-.033-2.968-.941-5.464-2.734-7.485-1.793-2.019-4.43-3.004-7.899-2.935-3.061.06-5.576 1.11-7.526 3.139s-2.878 4.498-2.797 7.398zm5.684-4.628c1.152-1.2 2.553-1.804 4.409-1.9l.309-.011c3.357-.066 4.465 1.182 4.829 1.591 1.14 1.285 1.705 2.879 1.726 4.877.031 2.641-.842 3.816-1.499 4.469-1.027 1.018-2.268 1.531-3.906 1.616l-.296.01c-2.221.043-3.896-.507-5.274-1.732-1.301-1.154-1.93-2.553-1.983-4.404-.052-1.832.483-3.267 1.685-4.516z" opacity="1" data-original="#ffffff"></path><g fill="#ffbe46"><path d="M160.076 31.164c-7.177.832-13.609 3.348-19.227 7.512-5.621 4.166-9.766 9.375-12.442 15.586-2.677 6.213-3.476 12.749-2.468 19.6.987 6.722 3.578 12.755 7.702 18.127 4.126 5.374 9.196 9.425 15.217 12.189 6.021 2.765 12.244 3.761 18.739 3 5.183-.606 10.073-2.291 14.712-5.065 4.636-2.773 8.431-6.24 11.386-10.43 2.953-4.187 4.646-8.609 5.039-13.28a1207.83 1207.83 0 0 0-16.97-3.933c-.31 1.623-1.166 3.386-2.558 5.289-1.394 1.905-3.227 3.575-5.502 5.02s-4.808 2.328-7.608 2.654c-3.134.365-6.119-.023-8.969-1.166-2.851-1.143-5.265-3.03-7.238-5.668-1.974-2.639-3.223-5.882-3.727-9.742-.753-5.753.384-10.379 3.449-13.859 3.062-3.479 7.22-5.537 12.436-6.144 4.184-.486 7.949.192 11.264 2.024 3.316 1.833 5.623 4.116 6.935 6.831a1250.44 1250.44 0 0 1 17.329-6.927c-1.921-5.324-4.818-9.734-8.708-13.209-3.889-3.473-8.358-5.903-13.391-7.268a40.499 40.499 0 0 0-15.4-1.141zM204.45 88.875c2.866 4.091 6.544 7.24 11.037 9.471 4.492 2.232 9.288 3.171 14.429 2.832 5.139-.339 9.759-1.835 13.891-4.505 4.132-2.669 7.334-6.175 9.606-10.54 2.27-4.364 3.311-9.143 3.085-14.349-.229-5.27-1.612-9.834-4.182-13.676s-6.112-6.726-10.621-8.628c-4.51-1.901-9.74-2.669-15.655-2.278-4.54.301-8.959 1.643-13.224 4.021-4.265 2.379-7.681 5.673-10.236 9.862-2.556 4.19-3.574 8.986-3.095 14.371.433 4.862 2.1 9.33 4.965 13.419zm15.629-21.527c1.854-2.117 4.316-3.282 7.372-3.484 3.463-.229 6.141.633 8.026 2.567 1.883 1.936 2.906 4.388 3.076 7.351.179 3.096-.606 5.584-2.34 7.471-1.736 1.888-4 2.92-6.805 3.103-3.205.21-5.91-.575-8.123-2.367-2.215-1.79-3.438-4.162-3.659-7.122-.215-2.892.597-5.401 2.453-7.519zM272.344 48.033c-4.372 2.179-7.935 5.311-10.68 9.378-2.747 4.068-3.985 8.811-3.755 14.212.208 4.878 1.666 9.418 4.34 13.635 2.673 4.219 6.201 7.535 10.586 9.971 4.385 2.437 9.133 3.597 14.283 3.495 5.151-.102 9.834-1.382 14.087-3.858 4.253-2.475 7.613-5.83 10.085-10.085 2.469-4.254 3.733-8.98 3.746-14.192.016-5.276-1.157-9.898-3.547-13.855-2.391-3.957-5.796-7.001-10.215-9.11-4.417-2.107-9.609-3.117-15.535-2.999-4.547.094-9.024 1.23-13.395 3.408zm21.935 16.24c1.793 2.021 2.701 4.517 2.734 7.485.035 3.101-.864 5.55-2.683 7.355-1.821 1.806-4.13 2.732-6.941 2.786-3.213.062-5.878-.847-8.006-2.74-2.13-1.89-3.242-4.317-3.326-7.284-.082-2.9.847-5.369 2.798-7.399 1.949-2.029 4.464-3.079 7.526-3.139 3.468-.067 6.106.917 7.898 2.936zM317.733 98.302c15.529.077 31.06.447 46.585 1.109l.843-19.768c-9.061-.386-18.125-.675-27.188-.865l1.167-55.586c-7.01-.147-14.021-.238-21.031-.273l-.376 75.383z" fill="#ffbe46" opacity="1" data-original="#ffbe46"></path></g></g></svg>