<svg xmlns="http://www.w3.org/2000/svg" version="1.1" xmlns:xlink="http://www.w3.org/1999/xlink" width="512" height="512" x="0" y="0" viewBox="0 0 500 500" style="enable-background:new 0 0 512 512" xml:space="preserve" class=""><g><path fill="#f5e33c" d="M147.59 255.3c-22.18-26-22.09-67-11.5-97.89a130.1 130.1 0 0 1 68.19-76c29.43-13.82 63.73-16.24 94.37-5a118.06 118.06 0 0 1 39.07 23.4c10.1 9.23 19.08 21.51 24 33.59 8.23 20.31 9 42.73 6 64.21-3.33 23.31-12.48 45.94-10 69.83l14.5-8c-12.29-10.22-30.53-9.64-43-.16-6.45 4.89-11 10.75-15.15 17.65-1.25 2.08-2.65 4.76-4.86 5.89-3.25 1.66-8.51 1-12 1q-27.44-.09-54.8-2.57c-16.15-1.46-34.79-1.79-49.37-9.73s-26.46-20.77-44-21.18c-14.35-.33-10.49 21.56 1.57 22.82l61.39 6.37c19.26 2 38.58 4.7 57.92 5.65 18.32.9 36.72-.72 53.09-9.63 7.63-4.15 14.69-9.59 22.82-12.77 6.9-2.7 14.6-3.18 20.68-7.78 7.51-5.68 9.37-14.62 10.49-23.5a143.32 143.32 0 0 0 .77-27.86 179.56 179.56 0 0 0-12.3-52.81c-6.91-17.63-15.55-34.94-26.63-50.34-11.39-15.83-27-23.27-45.39-28.18-18.87-5-37.93-10-57.63-8.78-18.15 1.09-34.63 9.27-48.82 20.24-28.58 22.09-50.94 50.56-56.9 87-3 18.06-2.52 36.74-.1 54.84s9.6 35.56 28.51 41.42c17.37 5.39 37.24 2.43 55 .5 19.91-2.16 39.65-5.57 59.36-9.08 29.9-5.33 64.87-11.2 84.71-36.78 22.75-29.34 17.32-70.06-.84-100.17a164.69 164.69 0 0 0-15.87-21.8c-3.21-3.77-9.23-5.83-13.38-2.42-4 3.29-4.46 10.09-1.57 14.35 15.26 22.44 22.93 49.7 20.1 76.85-1.38 13.34-4.41 26.68-14.59 36.12-8.86 8.22-21.28 12.25-32.75 15.2-16.25 4.18-33 7.19-47.82 15.52-4.21 2.37-5.09 7.91-3.82 12.2a14.09 14.09 0 0 0 10.43 9.71A167.74 167.74 0 0 1 305 297.9l3.53-20.73a494.64 494.64 0 0 1-63.25-12.4c-10.12-2.7-20.15-5.78-30.08-9.15-8-2.72-17.35-5.29-23.57-11.36-11.55-11.27-12.08-32.72-10.25-47.84a120.11 120.11 0 0 1 19.31-51.51c11.49-17.43 26.89-32.32 43.67-44.61 7.63-5.59 4.23-17.84-4-21.21-15.06-6.15-29.3 2.21-40.92 11.45a126.22 126.22 0 0 0-27.08 29.63 129 129 0 0 0-20.8 82.44 137.23 137.23 0 0 0 14.65 50.18l10.22-15.37c-9.49-3.41-14-18.09-15.53-27.13a71 71 0 0 1 4.21-37.55c10.15-25.51 31.75-45.91 55.28-59.3 14.08-8 29.75-13.29 46.07-11l-10-18.12c-6.69 12.7-22.11 18.21-33.09 26.39a93.46 93.46 0 0 0-30 38.28c-14.86 34.73-9.12 73.39 6.22 106.85L214.44 244c-9.52-10.78-14.53-24.29-15.08-39.45a65.27 65.27 0 0 1 12.88-41.62l-17.89-13c-8.24 37.78-14 78.93 11.8 111.52 3.41 4.3 10.34 5.85 14.39 1.6 10.19-10.69 14-25.08 16.88-39.15a372.88 372.88 0 0 1 11.71-44.74 340.74 340.74 0 0 1 42.22-84.17L277 93.31c2.37 3.16 2.75 8.14 3.15 12 .69 6.7 1 13.44 1.25 20.17a394.4 394.4 0 0 1-.86 39.5c-1.93 27.3-5.95 54.4-10 81.46a14.13 14.13 0 0 0 7 14.15c4.15 2.21 10.38 1.92 12.33-3.3 10.41-28 16.51-57.19 20.31-86.74 1.89-14.69 3.27-29.44 4.49-44.2 1.19-14.33 5.37-31.55-5-43.48-2.9-3.35-8.17-5.54-12.36-3.21-3.94 2.18-5.5 8.12-3.83 12.19a230.62 230.62 0 0 1 12 137.87c-1.18 5.36 2.32 11.67 7 14.15 4 2.15 10.53 2 12.33-3.3 14-41.32 11.09-84.86 7.34-127.62l-19.83.42a383.41 383.41 0 0 1 23 98l20.37 2.56a208.11 208.11 0 0 1-3-47.28c.35-6-2.23-12.42-8.23-14.84-5.8-2.35-10.34 1.06-11.87 6.58a188.52 188.52 0 0 1-41.9 75.52l18 10.16c-.5-14.1 9.83-26.74 14-39.72 2.39-7.4 3.95-15.16 3-23a41.88 41.88 0 0 0-3.67-12.74c-.69-1.48-1.5-2.86-2.3-4.28-.56-.94-1.1-1.89-1.6-2.87.47.21.64.68.5 1.41l-20.1-8.26a465.49 465.49 0 0 1-18.85 85.49l15.81-.56c-.55-.51-1-1.42-.67-.38.37 1.27-.18-.36-.22-.73 0-.19-.28-3.24-.3-4.52a129.61 129.61 0 0 1 .59-13.65c.94-10.59 2.6-21.1 4.11-31.62 3.08-21.37 4.93-42.52.87-63.88-1-5.33-9.75-13.2-15.46-8.8-8.32 6.4-11.44 15.17-13.11 25.27-1.9 11.54-3.54 23.12-5.31 34.68l-10.78 70.4 20.1 8.26L292 133.3c.81-6-2.53-12.54-8.23-14.84s-10.39 1-11.87 6.58l-36.17 134.8 20.1 8.26L268.07 152c.63-6-2.41-12.49-8.23-14.84s-10.46 1-11.87 6.58L220 254c-3.06 12.07 16.32 22.89 20.11 8.26q13.1-50.58 23.58-101.78c2-9.91-13.61-23.14-19.31-10.85l-35.08 75.59L228.63 236l16.52-91.83a14 14 0 0 0-7-14.15c-4.25-2.26-10.24-1.86-12.33 3.3-11.82 29.17-22.16 58.88-31.24 89l20.1 8.26 25.68-99.34c3.14-12.13-15.74-22.67-20.1-8.27l-27.6 91.11 20.24 5.41.63-43.49c.16-11-17.41-18.93-20.24-5.41a331 331 0 0 1-14.14 48.81l19.31 10.85c3.43-15.53 10.74-29.81 19-43.32 7.7-12.67 15.78-25.77 25.79-36.76 4.19-4.61 8.72-8.68 14.31-11.5 5.31-2.68 10.31-2.58 16.06-2.45 6.65.16 13.92-.27 18.48-5.84 5.55-6.78 3.68-17.08-1.95-23.17s-15.35-9.12-23-5c-7.89 4.25-10.77 13.11-13.19 21.09-1.71 5.65 3.14 12.79 8.23 14.85 5.9 2.38 10.22-1.12 11.87-6.59a39.08 39.08 0 0 1 3.63-7.5c1.17-2.16.77-.89.71-.76-.73-.22-.48-.22.75 0a1.69 1.69 0 0 1-1-.51q-3.66-3.09-2.6-8.9a2.57 2.57 0 0 1 .71-.93c.74.28-1.08.25-1.79.34-2.64.33-5.79-.14-8.72-.16C250 113 237.17 121.69 227 133c-10.69 11.93-19.34 26.17-27.66 39.79-9.4 15.37-17.08 31.56-21 49.24-1.19 5.35 2.32 11.66 7 14.14 4.16 2.22 10.37 1.92 12.33-3.3a368.47 368.47 0 0 0 15.73-54l-20.24-5.4-.61 43.53c-.17 11.52 16.35 18.23 20.24 5.41l27.59-91.1-20.1-8.31-25.68 99.37c-3.13 12.12 15.76 22.67 20.1 8.26 8.56-28.4 18.53-56.36 29.66-83.84l-19.31-10.85-16.52 91.83a14 14 0 0 0 7 14.15c4.43 2.36 10 1.73 12.33-3.3L262.92 163l-19.31-10.84Q233.13 203.37 220 254l20.11 8.26L268.07 152 248 143.76l-12.32 116.08c-.63 6 2.41 12.49 8.23 14.84s10.39-1 11.87-6.58L292 133.3l-20.15-8.3-16.54 121.33c-.82 6 2.52 12.54 8.22 14.84a8.49 8.49 0 0 0 11.88-6.58l9.88-64.54 4.79-31.29c.9-5.88.71-17.67 6.07-21.79l-15.46-8.8c4 20.93-.34 42.62-3.31 63.38a309.38 309.38 0 0 0-3.27 33.56c-.33 10.18.4 21.57 8.38 29 3.94 3.67 13.26 7.29 15.81-.56a492.88 492.88 0 0 0 20.43-90.66c.75-6-2.49-12.52-8.23-14.84-5.51-2.23-10.71.92-11.87 6.58-1.06 5.14 0 10 2.14 14.71 1.33 2.9 3.55 5.62 4.4 8.61 1.62 5.69-.46 12.35-2.53 17.66-6 15.34-14.81 28.76-14.2 45.89.28 7.84 11.14 17.8 18 10.16a210.19 210.19 0 0 0 46.31-85l-20.1-8.26a231 231 0 0 0 2.68 53c1 5.78 4.52 11.92 11 12.69 5.84.69 9.95-4.59 9.4-10.13A407.24 407.24 0 0 0 331.62 110c-1.86-4.92-5.92-10-11.73-9.69-5.27.26-8.56 4.9-8.1 10.11 3.39 38.66 7.22 79.27-5.5 116.74L325.61 238a252.43 252.43 0 0 0-12.84-149.53l-16.2 9c-1.27-1.47-.5.86-.55 2.19-.12 3.07-.5 6.17-.74 9.25q-.78 9.67-1.62 19.36c-1.18 13.22-2.54 26.42-4.35 39.56-3.57 25.87-8.87 51.56-18 76.07l19.31 10.84c4.42-29.65 8.83-59.37 10.47-89.34a415.59 415.59 0 0 0 .31-45.2c-.8-14.85-2.16-29.16-11.34-41.42-2.89-3.86-11.05-6.43-14.39-1.61a358.34 358.34 0 0 0-43.92 85.21 365 365 0 0 0-13 46.34c-2.68 12.79-4.48 26.67-13.87 36.52l14.39 1.6c-19.64-24.77-10.89-60.77-4.8-88.69 1.06-4.86-1.83-10.64-5.74-13.45-3.38-2.43-9.26-3.36-12.16.43-25.32 33.2-22.73 82.23 4.79 113.39 3.28 3.71 9.18 5.87 13.38 2.41 4.47-3.67 3.75-9.59 1.57-14.34-12.93-28.21-16.27-61.44-1.85-89.73a76.67 76.67 0 0 1 27.81-30c12.57-8 25.49-15.34 32.68-29 3.75-7.14-2.55-17.06-10.05-18.13-34.9-5-68.93 16.87-92.35 40.83S135 177.15 141 210.75c3.21 18 13.08 41.4 31.74 48.1 10.15 3.65 14.16-7.64 10.22-15.37a106.63 106.63 0 0 1-4-87.66 113.08 113.08 0 0 1 23-35.65 103.47 103.47 0 0 1 15.69-13.64c5.09-3.54 12.54-8.65 19-6l-4-21.21c-35.09 25.69-64.29 61.28-71 105.43-3.21 21.17-1.88 45.94 9.67 64.61 12.79 20.67 36.24 26.92 58.22 33.45A521.54 521.54 0 0 0 310.09 300c12 1.58 11.07-15.95 3.53-20.73a200.91 200.91 0 0 0-57.75-24.91l6.6 21.9c13.83-7.79 29.44-10.2 44.6-14.23 14.12-3.74 27.79-9 38.92-18.72 12.26-10.71 17.43-26.81 19.6-42.48a144.2 144.2 0 0 0-1.9-49 138.51 138.51 0 0 0-21-49.54l-14.95 11.91c17.84 20.9 31.66 49.85 20.87 77.38-10.28 26.21-38.16 35.33-63.48 40.55-33.77 7-68.43 13-102.91 14.59-6.55.31-13.45.51-19.86-1.13-4.93-1.26-8.16-3.38-9.76-7.45-2.51-6.37-2.8-13.83-3.39-20.57a175.38 175.38 0 0 1-.63-23.71c.76-15.43 4.1-30.74 11.14-44.54 6.8-13.31 16.8-24.71 27.69-34.84s22.84-19.62 36.79-24.69c15.7-5.7 32.68-3.63 48.62-.18 14.28 3.09 31.86 5.86 43.69 15 5.52 4.28 9.38 10.5 12.93 16.4q6.12 10.16 11.29 20.83a176.14 176.14 0 0 1 14.83 44.19c2.63 14.26 3.68 30.42.14 44.64-1.38 5.52-6 6.36-11.05 7.68a82.5 82.5 0 0 0-21.65 9.27c-6.42 3.84-12.71 8.14-19.77 10.75-7.4 2.74-15.55 3.8-23.39 4.13-16.5.68-33.22-2-49.59-3.72l-54.53-5.7-26.72-2.8 1.57 22.82c13 .31 22.54 10.32 33.12 16.6 15.25 9.05 32.17 11.38 49.53 13.25q26.79 2.9 53.76 3.49c8.7.19 18.42 1.27 27-.37s13.5-7.35 17.81-14.45c6.08-10 19.86-23.52 31.82-13.58 6.45 5.37 15.35 0 14.5-8-2.33-22 6.84-43.47 9.81-65 3.1-22.42 2.56-45.74-4.25-67.47-11.17-35.63-39-63.81-72.68-79-34.67-15.57-73.51-15.69-108.78-2.21a145 145 0 0 0-82.1 80.79c-17 42.28-16.36 96.68 14.38 132.71 3.49 4.09 10.35 6 14.39 1.61s2.32-11.94-1.29-16.17z" opacity="1" data-original="#f5e33c" class=""></path><path fill="#f5e33c" d="M166.23 277.19c4.28 11.18 3.78 23.05 3.33 34.83-.42 11.22.89 24.73-3.2 35.38-5.74 15-24.64 24.92-39.92 20.05-5.73-1.82-10.42.63-11.88 6.59a302.06 302.06 0 0 1-36.77 86.9c-4.61 7.45 4.28 19.6 12.64 18.07 20.95-3.82 42.18-2.25 63.32-1.46q32.82 1.23 65.68 1.95 66.18 1.42 132.4.75 37.62-.37 75.25-1.43c4.77-.13 7.06-6.18 6.81-10.08-.31-4.81-3.65-10.35-8.36-12-13.6-4.73-20.48-16.85-24.48-29.64-5.81-18.56-6.49-38.3-12.91-56.73-1.84-5.28-6.84-10.78-13-9.66-6 1.09-7.85 7.92-6.26 13.06A669.75 669.75 0 0 0 399 453l15-11.9a131.66 131.66 0 0 1-23-46.69c-2.75-10.37-6.14-19.78-16.86-24.22-6.7-2.79-13.92-4-20.6-7-5.73-2.6-11-6-14.66-10.23a16.17 16.17 0 0 1-3.37-5.64 27.25 27.25 0 0 1-.86-10.6c.67-9.47 2-18.56-.53-27.89a33.54 33.54 0 0 0-16.83-21.27c-4.1-2.25-9.13.17-11.08 4-14.58 28.55-.76 63.32 11 90.36C329.6 410.55 346.33 437 364 462.65c3.06 4.44 8.56 9 14.21 5.84s5-10.35 2.58-15.15a713.16 713.16 0 0 1-34.38-80l-18 6.35L381.56 464l16.79-9.31a177 177 0 0 1-28.17-67.78l-16.2 9a91.66 91.66 0 0 1 11.54 21.07 106.91 106.91 0 0 1 3.84 12.1c.12.49.94 5.75 1.32 5.93a23 23 0 0 0 1.62-2.36s-3.37 1.53-3.74 1.66c-17.83 6.41-37.72 5.92-56.4 6.21l-126.86 2-71.92 1.11 11 12.69c0-4.39 2.35-10 5.23-15.21 3.31-6 7.21-11.42 10.92-17.19 7.94-12.38 12.9-25.46 9.17-40.24-2.51-10-16.55-13.95-19.69-2.43a267.92 267.92 0 0 0-9 61.62c-.31 9 14.76 19 19.45 8q14.26-33.58 27.18-67.73l-19.31-10.85a509.24 509.24 0 0 1-8.66 64.73c-1.08 5.39 2.24 11.62 7 14.14 4.15 2.21 10.39 1.93 12.33-3.3l26-69.84-19.32-10.84-11.3 71.49a14.09 14.09 0 0 0 7 14.14c4 2.14 10.58 2 12.33-3.3a644.44 644.44 0 0 0 30-141.15L183.45 300l-8.78 135.35c-.39 6.05 2.26 12.43 8.23 14.85 5.25 2.11 11.06-.81 11.88-6.59q9.28-65.43 19.48-130.72L194 307.45a752.75 752.75 0 0 0 4.86 127.35c.66 5.42 4.05 11 9.66 12.34 4.66 1.12 10.22-1.51 10.57-6.93l8.22-127.51-20.24-5.41 9.26 125.45c.43 5.8 4.91 12 11 12.69 6.31.75 9.34-4.65 9.4-10.13L238 309.81l-20.37-2.55 14.22 117.35c.7 5.8 4.72 11.95 11 12.69s9.28-4.66 9.4-10.13l2.3-107.27-19.83.42L256 429.23c2.26 11.53 20.75 13.5 19.83-.42l-7.42-112.35-19.83.42L276 417.58c1.36 5 6.28 10 11.73 9.68a8.76 8.76 0 0 0 8.1-10.1c-5-34.53-10-69.07-13.5-103.79l-20.37-2.56a538.07 538.07 0 0 0 29.37 108.26c1.91 4.91 5.87 10 11.72 9.69a8.78 8.78 0 0 0 8.11-10.11l-13.67-99.13-19.83.42 32.26 107.24c1.61 5.35 7 10.76 13 9.66 6.41-1.16 7.28-7.82 6.27-13l-18.36-94.53-19.29 3.39a649.33 649.33 0 0 0 36.64 92.51l16.79-9.3a187.08 187.08 0 0 1-21-46.67l-19.29 3.39 26 65.51 14-11a57.57 57.57 0 0 0-46-11.46c-5.38 1-7.47 6.71-6.54 11.57a13.89 13.89 0 0 0 10.7 11.2l28.11 7.06-4.17-22.77-86.29 17c-13.19 2.6-5.29 24.79 6.75 22.71l45.34-7.83c13.31-2.3 5.25-24.2-6.76-22.72a260 260 0 0 1-61.27.25l6.61 21.9a58.89 58.89 0 0 1 35-5.82l-6.6-21.91a93.16 93.16 0 0 1-62.19 1.16l-1 22.12q27.75.78 55.49-1.1c5.48-.37 7.37-7.21 6.54-11.57a13.77 13.77 0 0 0-10.7-11.2l-30.29-6.48 4.05 22.75a709.51 709.51 0 0 0 79.09-11.15c13.38-2.66 5.15-23.94-6.76-22.71l-18 1.85c-10 1-7.58 16.92-.94 20.68 10.59 6 21.89 9.69 34.15 9.52 9.15-.14 11.09-8.82 7.62-16.07-13.19-27.49-27.33-58-18.77-89l-19.7-2.43 6.27 24.53c1.38 5.39 7.17 10.72 13 9.66 6.39-1.17 7.31-7.83 6.27-13.06a85.38 85.38 0 0 1 .13-32.3c1.45-7.85-7.35-19.41-15.87-14.63-9.83 5.52-23 6.85-33.13 1.12l1.51 19.81a55.82 55.82 0 0 1 21-6.94c12.13-1.54 6.33-22.81-4.17-22.77-7.24 0-14.34-1.25-20.59-5.08l1.5 19.81c6.59-3.66 15.62-5 22.49-1.07 4.73 2.68 10.85 3.17 13.57-2.6 2.37-5 0-13.22-4.95-16-13.43-7.6-28.93-9-42.74-1.29-7.28 4.06-4.71 16 1.5 19.82 9.4 5.74 19.69 9.31 30.8 9.27l-4.17-22.77a70.57 70.57 0 0 0-25.88 8.66c-7.07 4-4.92 16.17 1.51 19.81 16.66 9.43 36.36 10.81 53.39 1.24l-15.87-14.62a115.29 115.29 0 0 0 .68 44l19.29-3.4-6.27-24.53c-2.55-10-16.52-13.94-19.69-2.43-10.17 36.8 6.42 74 22.07 106.6l7.61-16.07c-8.23.12-16.68-1.21-23.95-5.32l-.93 20.67 18-1.86-6.76-22.71a714.37 714.37 0 0 1-79.08 11.15c-5.47.46-7.39 7.14-6.54 11.56A13.78 13.78 0 0 0 218.87 442l30.29 6.47-4.16-22.73q-25.14 1.69-50.31 1c-13-.36-11.28 18.67-1 22.12a113.3 113.3 0 0 0 77.47-1.59c4.44-1.69 4.94-8.43 3.83-12.19-1.39-4.7-5.44-9-10.43-9.72a76.36 76.36 0 0 0-45.12 7.64c-9.77 5-2.23 20.9 6.6 21.91a283 283 0 0 0 66.46-.35l-6.76-22.72-45.33 7.84 6.75 22.71 86.3-17c5.37-1.06 7.47-6.66 6.53-11.57a13.89 13.89 0 0 0-10.7-11.2l-28.1-7.05 4.17 22.77a37.27 37.27 0 0 1 30.64 7.37c7.66 6 17.45-2.22 14-11l-26-65.51c-2.07-5.21-6.69-10.82-13-9.66-6 1.1-7.78 7.9-6.27 13.05a212 212 0 0 0 23.53 52.58c2.86 4.58 8.71 8.9 14.22 5.85s4.93-10.32 2.57-15.15a607.76 607.76 0 0 1-34.14-86.6c-1.65-5.34-7-10.76-13-9.66-6.41 1.16-7.28 7.82-6.27 13L310 427.14l19.29-3.39-32.39-107.2c-1.5-5-6.18-10-11.72-9.69a8.78 8.78 0 0 0-8.11 10.14l13.67 99.13 19.83-.42a510.62 510.62 0 0 1-28.28-102.31c-1-5.79-4.55-11.93-11-12.69-5.83-.7-9.95 4.59-9.4 10.13 3.47 34.72 8.47 69.26 13.5 103.79l19.83-.42-27.33-100.72c-1.36-5-6.28-10-11.72-9.69s-8.45 4.9-8.11 10.11l7.42 112.34 19.83-.42L254 316.92c-1-5-6.56-9.94-11.73-9.68-5.68.28-8 4.9-8.1 10.1l-2.3 107.27 20.37 2.56L238 309.81c-.7-5.8-4.72-11.94-11-12.69s-9.34 4.65-9.4 10.14l-1.29 125.48 20.38 2.56-9.27-125.46c-.4-5.39-4.24-11-9.66-12.34-4.66-1.11-10.23 1.52-10.57 6.93L199 432l20.24 5.41A752.75 752.75 0 0 1 214.39 310c.51-10.91-18.11-19-20.23-5.41Q184 369.9 174.67 435.32l20.11 8.26 8.77-135.34c.39-6.05-2.25-12.44-8.23-14.85-5-2-11.31.73-11.87 6.58A621 621 0 0 1 155 436l19.31 10.85 11.31-71.49a14.12 14.12 0 0 0-7-14.15c-4.14-2.2-10.38-1.92-12.33 3.31l-26 69.83 19.31 10.85a509.33 509.33 0 0 0 8.66-64.72c.39-5.63-1.76-11.37-7-14.15-4.17-2.22-10.36-1.91-12.33 3.3q-12.91 34.14-27.19 67.74l19.45 8a244.5 244.5 0 0 1 8.78-55.92L130.39 387a12.91 12.91 0 0 1 .1 5.54 22.49 22.49 0 0 1-2.43 7.22 117.09 117.09 0 0 1-8.87 14.88c-8 12.14-15.12 24-15.21 39 0 5.18 5.28 12.78 11 12.69l140.85-2.18c23.46-.36 46.92-.65 70.37-1.1 10.86-.21 21.75-.49 32.5-2.17a103 103 0 0 0 14.93-3.39c5.2-1.62 11-3.15 14.47-7.62 4.61-5.85 3-13.5 1.55-20.15a110.72 110.72 0 0 0-4.81-16.23 135.48 135.48 0 0 0-17.73-32.22c-2.59-3.55-8.39-5.42-12.36-3.22-4.48 2.48-4.66 7.77-3.83 12.19A194.91 194.91 0 0 0 381.56 464c3.05 4.45 8.57 9 14.21 5.84 5.15-2.85 5.45-10.59 2.58-15.15l-53.21-84.26c-2.69-4.27-7.67-8.3-13-6.28-4.89 1.86-6.78 7.81-5 12.63A768.65 768.65 0 0 0 364 462.65l16.79-9.31c-16.29-23.68-31.8-48-43.86-74.18a221.09 221.09 0 0 1-14-38.57c-3-11.91-3.88-24.38 1.84-35.6l-11.08 4c-1.63-.89.82 1.63-.11.07.65 1.34.81 1.54.47.61.31.84.59 1.7.82 2.56a31.65 31.65 0 0 1 .39 9c-.73 9.52-2 18.83.62 28.22 4.4 15.79 17.32 26.91 31.51 34 6.59 3.28 13.46 5.11 20.44 7.26-.05 0 3.67.88 2.59.58l-.79-1.47c.35 1 .65 2 .9 3.1 1.19 4.42 2.26 8.84 3.7 13.2a166.43 166.43 0 0 0 26.64 49.57c3 3.91 9.36 5.72 13.38 2.41 4.47-3.68 3.72-9.58 1.56-14.34a622.35 622.35 0 0 1-27.66-73.35l-19.28 3.4c7.06 20.25 7.1 42.28 14.85 62.3 7 18.11 19.1 35.47 38.17 42.09l-1.56-22.07q-131.55 3.63-263.17-1.19c-24.41-.89-49.28-3-73.48 1.39l12.64 18.07a319.06 319.06 0 0 0 38.36-92.07l-11.88 6.58c23.44 7.47 50.25-3.12 61.06-25.67 6.45-13.48 5.35-29.55 5.91-44.11.59-15.24 1.32-30.78-4.25-45.3-2-5.24-6.73-10.81-13-9.66-5.68 1-8.2 8-6.26 13.05z" opacity="1" data-original="#f5e33c" class=""></path><path fill="#f5e33c" d="M329.4 323.14a61.84 61.84 0 0 0 15.43-.63c2.56-.45 18.78-6.11 17.61-.67l2.31-1.82c-1.86-.31-5.73-1.1-5.43-4a2.19 2.19 0 0 1 4.36 0c.67 4-5.44 5.74-6.7 1.62-1-3.4-5.56-3-4.82.85.85 4.43 4 11.3 9.71 9.91 4.65-1.12 5.65-6.22 3-9.65-2.39-3.11-5.39.88-3.27 3.64-1.67.48-3-.23-4-2.13a19.5 19.5 0 0 1-.6-2.62l-4.82.85c1.53 5 7.32 9.08 12.56 6.52s5.33-9.92 1.95-13.94c-3.8-4.52-10.81-3.65-12.24 2.35-1.63 6.9 4.74 11.36 10.72 12.37a2.11 2.11 0 0 0 2.31-1.82c1.26-5.86-3.85-10.71-9.57-10.61-4.41.09-8.65 2.27-12.93 3.18a56.22 56.22 0 0 1-16 .95c-3.56-.27-2.63 5.48.4 5.71zM138 314c-1.21.07.29 6.05-2.91 4-1.44-.92 1-3.05 2.11-3.46l4 .26.54 4.55c-.7 1.6-3.55 1.53-4.83 1.19l2.51 4.53c2.39-5.4 8.15-7.3 13.7-6.39 4.91.8 13 4.28 14.83 9.26l3.49-2.76c-5.21-3-6.36-9.13-3.2-14.14l-4.42-.51a12.08 12.08 0 0 0 8.84 6.26c3.49.61 2.58-5.18-.39-5.71a4.91 4.91 0 0 1-4.25-2.88c-1-1.74-3.22-2.4-4.41-.51-4.69 7.43-1.83 17.77 5.67 22.15 2 1.16 4.41-.33 3.49-2.75-5.17-13.68-30.93-21.32-38-5.37-.88 2 .61 4 2.51 4.53 10.39 2.72 13.67-11.43 5.45-16.45s-18.87 6.74-11.55 13.56c6.23 5.81 18.06-5.87 10.36-12.06-7-5.6-10.14 8.87-1.83 8.39 3.28-.19 1.35-5.86-1.69-5.68z" opacity="1" data-original="#f5e33c" class=""></path><path fill="#f5e33c" d="m165.78 313.3 1.81 5.92c.41 1.33 1.75 2.69 3.26 2.41s2-2 1.56-3.26l-1.81-5.92c-.4-1.33-1.74-2.69-3.25-2.41s-2 2-1.57 3.26zM29.29 463.68c-4.41-15 .75-32.2 7.12-45.85 6.89-14.79 16.74-27.79 27.5-40C75.26 365 87.56 353 99 340.2c5.4-6.07 12.26-12.51 11.55-21.32s-8-15-15-19.24c-7.48-4.51-15.42-7.9-22.24-13.48a61.05 61.05 0 0 1-15.41-19.54l-9.53 10.47A258.55 258.55 0 0 0 98.55 312c7.29 3.91 10.61-6.43 7.67-11.52-3.58-6.22-8.31-11.48-12.77-17.05-3.42-4.29-6.72-9.22-5.79-14.93l-12.45 2.36a122.28 122.28 0 0 1 23.91 37.31c1.35 3.37 3.86 6.88 7.82 7.29 3.55.36 6.25-2.08 7-5.46 1.71-8.31 1-16.72.29-25.09-.61-7.74-1-15.09 3.1-22l-14.59-6a221 221 0 0 0 6.6 42c1.19 4.66 6.77 9.13 11.6 6.6 8.85-4.65 20.37-3.29 27.07 4.4l8.15-12.45c-9.62-6.38-22.43-9.35-33-3.32a25.25 25.25 0 0 0-11.88 28.38c5.29 19.82 35.6 35.88 52 19.08L151 338.42c-1.05-2.5-.05-.9-1 .37a33.58 33.58 0 0 1-2.34 3 24.73 24.73 0 0 1-7.13 4.72c-5.16 2.46-12.15 4.09-17.55 1.42-8.66-4.29-8.46-17.51-8.44-25.68l-13.94 2.53a70.94 70.94 0 0 0 34.5 31.91l.78-16.59a81.59 81.59 0 0 1-18-2.08c-3.67-.85-6.13 2.44-7 5.46-3.48 12.78-9 24.87-14.92 36.71-5.75 11.62-11.5 23.33-18.2 34.44s-15.2 21.18-24.19 30.63c-4.64 4.87-9.41 9.61-14.21 14.32-1.76 1.73-3.8 4.35-6.26 5.13-2.94.93-6.13-.64-8.8-1.7a6.25 6.25 0 0 0-8.61 4c-1.24 4.12.71 8.47 4 11 10.71 8.38 30.62 14.22 41.11 2.3 4.71-5.36 6.67-13.09 9.17-19.6l9.26-24.1c12.08-31.41 24.44-62.8 32.59-95.5 2.27-9.09-12-17.08-15.08-6.2a230.83 230.83 0 0 1-31 66.2c-13.6 19.93-32.44 36.47-43 58.43-3.6 7.52 5.76 17.43 12.83 11.7C51.16 458.72 59.5 438 68 420.55c8.93-18.37 20.14-37.55 22.7-58.14.83-6.65-7-16-13.41-9.76a203.8 203.8 0 0 0-55 94.73c-2 7.52 10.34 17.18 14.49 8.13C45 437.62 55.49 421 66.2 404.5q8.3-12.78 16.63-25.5c4.61-7.08 9-15.44 16.19-20.29l-11.31-12.94C80.33 360.24 73.59 375 67.6 390.12q-4.48 11.31-8.43 22.88-1.81 5.32-3.52 10.68c-.86 2.71-1.89 9.16-3.17 10.76l3.35-1.85-.81.21 7.44 3.06-.35-.35 2.63 8.49.15-.54-1.66 3.54.35-.34-10.79-1.2.26.26c2.9 2.89 7.53 4.62 10.79 1.2 3-3.16 1.91-9.25-1-12.12l-.26-.26c-3-3-7.37-4.54-10.79-1.2a8.7 8.7 0 0 0-2.16 4.45c-.74 2.75.68 6.6 2.63 8.55 3.32 3.34 8.14 5 11.95 1.35 3-2.9 3.54-8.43 4.74-12.24q4.18-13.41 9.14-26.56a516.65 516.65 0 0 1 23.48-53.09c3-5.82-4.52-17.51-11.31-12.91-7.69 5.22-12.57 12.49-17.56 20.15l-18.35 28.25C43 408.8 31.64 426.41 22.92 445.44l14.49 8.14A189.51 189.51 0 0 1 89.05 366l-13.42-9.76c-2.39 19.15-13.2 37.16-21.53 54.27-8 16.44-15.6 35.65-30.16 47.46l12.82 11.69c5.3-11.06 13.06-20.41 21-29.7a306.4 306.4 0 0 0 22.75-29.76 251.59 251.59 0 0 0 31.46-69L96.89 335c-7 28.17-17.43 55.3-27.83 82.36-5.47 14.21-10.84 28.47-16.4 42.64-2 5-3.57 9.27-9.53 9.76-6.19.51-12-1.89-16.82-5.63l-4.61 15c6.84 2.71 14.1 4.66 21 1 6.28-3.34 11.44-9.92 16.39-14.91 10.56-10.63 20.6-21.71 28.82-34.27 8.12-12.4 14.69-25.75 21.3-39 6.8-13.64 12.9-27.48 16.91-42.22l-7 5.46a82.21 82.21 0 0 0 18 2.09c10.06.06 8-13.44.77-16.59a50.25 50.25 0 0 1-24.64-22.83c-3.84-7.26-13.92-6.33-13.93 2.53 0 18.82 6 41.36 27.27 45.58 19.4 3.86 46.26-12.77 37.1-34.48-1.92-4.54-8.51-6.94-12.18-3.17-6.7 6.87-22 1.4-25.35-6.92-1.9-4.75 2.29-9.78 6.33-11.81 5.58-2.8 12.19-1.43 17.21 1.9 8.85 5.86 13.88-5.87 8.15-12.45-11.27-12.93-30.26-17.29-45.63-9.22l11.6 6.6a196.1 196.1 0 0 1-5.82-37.61c-.41-7.16-10-13.67-14.58-6-9.57 15.94-1.08 34-4.58 50.93l14.77 1.82A147.82 147.82 0 0 0 85 259.89c-3.86-4.19-11.35-4.38-12.45 2.36-1.42 8.72 1.1 17.29 5.74 24.69s11 13.06 15.31 20.47l7.66-11.53a241.49 241.49 0 0 1-46.46-32.76 6.8 6.8 0 0 0-9.12.32c-2.54 2.75-2 7.1-.41 10.16A81.33 81.33 0 0 0 76.78 307c6.23 3.57 13.86 6.3 18.86 11.6-1.17-1.25.85-1.54-.83-.69a7.83 7.83 0 0 0-1.13 1.48c-1.27 1.65-2.69 3.21-4.06 4.78q-4.21 4.83-8.62 9.5c-22.3 24.07-47.13 47.1-60.19 77.9-7.14 16.83-11.28 36.74-6 54.66 1.19 4 5.27 8 9.77 7.24s5.83-5.94 4.7-9.79zM340.21 332c-1.49 11.32 7 22.7 18.68 23.43s20.1-8.07 26.53-16.81c5.29-7.17-5.18-21.14-11.76-13.32-4.41 5.23-10.55 8.4-17.49 8.08l3.12 17.08c9-.94 18.89-2.77 25.63-9.33 8.53-8.32 7.46-21.19 2.63-31.12-4.53-9.3-12.93-17.73-23-20.82s-21.42-.71-28 7.77l13.45 9.72c1.81-6.72 11.35-6.12 16.11-4.11 6.63 2.81 13.58 10.39 20.68 4 5.29-4.79 7.88-13.67 9.94-20.28a95.17 95.17 0 0 0 4.16-26.29l-15.28-1.91c2.11 14.34-4.94 27.33-11.77 39.44-3.7 6.55 4.44 16 11.31 12.9a96.3 96.3 0 0 0 45-42.06l-13.89-10.07c-7.07 17.38-20.13 30.85-33 44.07-5 5.09 1.2 17.2 8.41 15.18a135.29 135.29 0 0 0 63.49-38.73l-12.83-11.7c-9.71 23.11-36.81 30.3-57.44 40.18-7.16 3.44-1.8 13.34 3 15.91 18.85 10.14 32.66 27.53 46.11 43.79s27.32 33.52 33.46 54.13c2.82 9.5 4.46 20.68-.55 29.76-3.92 7.11-13.16 12.8-21.1 8.65-8.13-4.25-13-14.62-17.17-22.25a204.11 204.11 0 0 1-13.75-30.86c-9.46-27.14-15.27-55.79-22.41-83.61l-4.7 9.79 1.16-.07L385 332c-1.53-.47-.21-1.21-.33.14-.06.64 1.2 3.07 1.35 3.46 1.1 2.88 2.13 5.79 3.12 8.71 2.18 6.43 4.12 12.94 5.95 19.48 3.32 11.92 6.26 23.95 9.54 35.88 6 21.87 13.26 44.14 27.54 62.16 6.07 7.66 15.81 18.36 26.06 19.71 11.48 1.51 18.65-9.58 19.38-19.77.91-12.6-5-24.09-10.16-35.2-5.49-11.83-11.1-23.63-17.49-35-13.94-24.83-32.47-46.15-51.46-67.18-2.76-3.05-7.64-4.51-10.8-1.21s-1.76 9.1 1 12.12a611.73 611.73 0 0 1 74.09 101.13c2.07 3.54 6.57 6.57 10.66 4.38s3.75-7.82 1.93-11.36l-28.51-55.51-11.21 8.95A163.63 163.63 0 0 1 461 426.22c3 7.79 6 16 7.41 24.28a21.07 21.07 0 0 1-1 11.71 46.35 46.35 0 0 1-3 6.11c-.54.94-1.81 4-2.66 4.5l3.77-.68-1.09-.13 3.82 1.57c1.34 1-.6-1.46-.86-1.93-.55-1-1.09-2-1.58-3.08a49.75 49.75 0 0 1-2.72-7.5 54.94 54.94 0 0 1-1.85-15.74l-10.88 6c1.4.79 6 3.69 4.73 6l2.58-2.84-1.08.56 3.78-.69q2.12 1.21-.1-1-.87-1.23-1.68-2.49c-1.33-2-2.58-4.06-3.83-6.12-2.51-4.16-5-8.35-7.42-12.54-4.65-7.91-9.25-15.84-13.68-23.88-9-16.4-17.29-33.22-23.46-50.93l-13.53 4.77c17.48 27.3 32.39 56.1 47.23 84.89l12.59-7a361.16 361.16 0 0 1-23.11-52.63l-12.14 6.73a487.68 487.68 0 0 1 34.6 55.58c1.93 3.62 6.67 6.52 10.66 4.38 4.26-2.28 3.58-7.74 1.93-11.36a270.45 270.45 0 0 0-27.15-46.37c-2.42-3.36-7.86-4.28-10.79-1.21-3.38 3.53-1.43 8.8 1 12.12a247.83 247.83 0 0 1 24.38 42.44l12.59-7A523.38 523.38 0 0 0 431 383.21c-5.07-7-14.85-1.09-12.14 6.73a391.08 391.08 0 0 0 25 57.08c1.94 3.61 6.66 6.52 10.66 4.38s3.76-7.83 1.93-11.37c-14.84-28.78-29.75-57.58-47.22-84.88-2.07-3.24-5.7-6.16-9.75-4.71-3.71 1.34-5 5.9-3.78 9.47 9.94 28.52 24.66 54.88 39.94 80.82 3.67 6.24 7.25 12.58 11.31 18.59 3.61 5.34 8.81 13.55 16.5 12.1 7.86-1.48 7.78-11.38 6.1-17.35a27.91 27.91 0 0 0-12.76-16.69c-5.6-3.15-10.79-.65-10.87 6a69.7 69.7 0 0 0 4 24.33c2.38 6.6 5.75 15.74 11.84 19.81 8.16 5.46 13-3 16.52-9.16 4-7 6.38-14.62 5.83-22.72-1-15.12-7.58-30.79-13.88-44.38a188.54 188.54 0 0 0-24.8-39.26c-2.37-2.93-6.92-4.26-10-1.81-3.3 2.61-2.93 7.36-1.18 10.76l28.52 55.51 12.59-7a635.23 635.23 0 0 0-76.85-105.06l-9.83 10.91c15.36 17 30.91 34.09 43 53.62a331.49 331.49 0 0 1 16.39 30.31c4.75 9.78 10.53 19.9 13.42 30.43 1.07 3.93 1.79 8.92-.69 12.51-2.74 4-5.49 1.5-8.54-.85-7.36-5.67-12.95-13.29-17.4-21.37-10.18-18.49-15-39.6-20.3-59.87-3.27-12.55-6.55-25.12-10.67-37.43-3.46-10.32-7.3-28-21.21-27.12-4.69.3-5.59 6.35-4.7 9.79l11.37 44.34c3.53 13.75 6.86 27.59 11.63 41A230.83 230.83 0 0 0 418.67 449c5.9 10.17 12.66 20.58 23.4 26.13 11 5.68 23.52 2.7 32.28-5.58 9-8.55 11.73-21.79 10.84-33.78-1.94-26.05-17.19-49.23-32.89-69.17-17.61-22.38-36.2-45.72-61.7-59.39l3 15.91c23.44-11.24 51.62-19.73 62.6-45.86 2.87-6.82-6.21-18.9-12.82-11.69a121.86 121.86 0 0 1-56.79 35l8.41 15.15c13.78-14.11 27.62-28.78 35.17-47.33 3.33-8.19-8.64-19.7-13.89-10.07a84.13 84.13 0 0 1-39.86 36.39l11.31 12.91c8.2-14.52 15.68-30.48 13.16-47.6-.64-4.31-3.47-9-8.23-9.51s-6.94 3.46-7.05 7.6a71.32 71.32 0 0 1-6.39 27.79c-.71 1.58-1.45 3.15-2.28 4.67l-.82 1.52c-.28.49-.34.45-.17-.15l3.9.49c-4.12-1.2-7.66-4.62-11.75-6.22a30.85 30.85 0 0 0-14.74-2.15c-9.25 1.06-16.09 7.68-18.44 16.43-1.67 6.25 8.14 16.56 13.42 9.76 8.07-10.38 22.24-3.64 26.61 6.7 5.49 13-11.92 15.52-20.73 16.43-9.24 1-4.6 16.73 3.12 17.08 10.85.49 21-3.48 28.08-11.88l-11.76-13.32c-3.11 4.22-6.33 9-11.08 11.53a9.63 9.63 0 0 1-5.58 1.41 4.48 4.48 0 0 1-2-.67c.36.23.38.37.35.62.58-4.47-1.88-9.4-6.17-11.13a6.37 6.37 0 0 0-8.91 4.94z" opacity="1" data-original="#f5e33c" class=""></path><g fill="#231815"><path d="M496.8 441.14c-.75-24.75-11.81-50.27-24.25-71.3a203.08 203.08 0 0 0-48.14-55.32 68.2 68.2 0 0 0 29.2-18.29c8-8.51 16.2-21.14 16.32-33.23.06-5.32-1.72-10.87-6.45-13.79-6.19-3.83-12.34.09-17.16 4.16-1.37 1.15-2.72 2.33-4.08 3.49a18.06 18.06 0 0 0-4.64-12.16c-2.74-3.19-7-5.64-11.35-5.23-5.08.48-8.54 4.23-11.28 8.19q-3.21 4.68-6.37 9.4a39.58 39.58 0 0 0-.27-4.37c-.62-5.23-2.68-11-6.34-14.88 12.79-18.85 22-40.18 24.58-63a122 122 0 0 0-9.46-61.95c-16.27-37.73-49.54-66.68-86.43-83.5C288 9.91 237.38 5.27 192.14 18.17 150.69 30 114.68 57 92.58 94.15a144.86 144.86 0 0 0-1.06 146.72 5.45 5.45 0 0 0 2.18 2.19 28.36 28.36 0 0 0-2.09 8.57 45.53 45.53 0 0 0 0 7.2q-2.94-4.39-5.9-8.76c-5.38-7.95-14.78-15.37-23.33-6.56-4.2 4.33-5 9.69-3.92 15-2.08-1.78-4.14-3.56-6.24-5.32-4.72-3.94-11.26-7.87-17.21-3.91-4.42 2.95-5.25 9-4.82 13.87 1.09 12.3 9.34 24.87 17.79 33.45a70.26 70.26 0 0 0 27.23 17.24 200.19 200.19 0 0 0-43.5 47.78C18.15 382.39 6.78 407.12 3.8 432c-2.76 22.94 5.75 49.42 30.46 56 25.79 6.83 41.63-22.35 52.62-40.74a270 270 0 0 0 31.51-79.46c13.84 5.49 30.48 2 41.35-8.24 6.55-6.19 11.16-15.64 9.79-24.78-1.2-8.06-8.26-15.88-16.95-15.26-5 .36-7 4.7-11.4 5.93-3.44 1-7.92-1.37-8.81-5-2-7.86 10.94-10.4 15.62-6.57 3.08 2.52 5 5.57 9.47 5.47 4.67-.1 8.15-3.83 10.18-7.71 3.87-7.38 3.39-16.59.14-24.08-7.48-17.23-30.36-22.05-43.51-9.29-1.33-3.52-1-8-.75-11.4.3-5 .87-9.83 0-14.8-1.52-8.37-6.78-18.4-16.43-18.76a12.19 12.19 0 0 0-8.71 3.09 133.61 133.61 0 0 1-4.17-124.83c17.09-35.32 47.89-63.25 84.14-78 76.17-30.9 179.24-5.42 223.2 66.87 11.36 18.69 17.7 40 17.14 62C418 188 408 212.47 393.32 233.16l-.12.19a14.06 14.06 0 0 0-1.47-.07c-9.51 0-14.35 10.12-15.47 18.3-1.13 8.34 2.73 19.25-1.57 26.86-11.22-10.3-30.46-10.51-39.82 2.76a29.24 29.24 0 0 0-4.28 24.09c1.89 7 9.18 17.58 17.72 13 3.53-1.89 5-5.51 9.22-6.25 3.08-.54 7.75.16 9.56 3.07 2 3.23-.76 7-3.42 8.83-4.89 3.35-7.4.44-11.51-2.29-7.34-4.87-16.91-1.06-20.42 6.68-4 8.85.12 19.53 5.68 26.69 10.28 13.22 29.08 18.6 44.69 13a271.72 271.72 0 0 0 26.67 70 252.06 252.06 0 0 0 21.75 33.38c7.27 9.33 16.83 17.67 29.32 17.51 10.27-.14 20-5.7 26.56-13.43 8.08-9.48 10.76-22.09 10.39-34.34zM100.27 253.9c.61-5.42 6.57-16.12 12.26-8.37 4.52 6.15 2.47 14.83 2.24 21.81-.27 8.53 1.48 16.19 8 22.08 1.27 1.15 4.06 1.34 5.17-.18 9.18-12.62 31.05-11.34 33.6 5.9a17.36 17.36 0 0 1-1.45 10.17c-.69 1.39-1.88 3.63-3.52 4-1.89.38-3.39-2.2-4.88-3.37a18.52 18.52 0 0 0-17.34-2.7c-13.93 4.8-13.35 22.21-1.8 29.5 6.35 4 12.28 3 18-1.35 3.33-2.54 7.87-3.23 10 1.33 1.92 4.17-.31 9.62-2.47 13.25-8.36 14-28.12 18.48-42.08 10.77-2.23-1.23-4.6.63-5 2.79a262.73 262.73 0 0 1-24 67.64 254.47 254.47 0 0 1-18.62 30.66c-6.27 8.78-13.74 19.86-25.38 21.27-9.62 1.18-19-4.51-24.61-12.1-6.9-9.41-7.4-22.12-5.82-33.27 3.07-21.76 12.6-43.16 24-61.77a191.26 191.26 0 0 1 50.69-54.66c3.86-2.8.4-10.06-3.43-9.55a4.93 4.93 0 0 0-2.57-1.64c-19.05-4.58-37.17-20.11-42-39.57-.87-3.48-1.14-10.32 4.3-8.84 2.94.81 5.7 4 7.93 6l7.4 6.44 12.77 11.12a94.74 94.74 0 0 0 18.3 15.94c5.73 3.82 7.67-4.44 3.67-7.92-5.87-5.11-11.7-10.27-17.55-15.43l-.31-.35c-4.39-5.21-13.45-15.8-6.74-22.42s13.63 9.12 16.48 13.39L101 287.71c3.48 5.22 10.4 1.69 7.14-4-5.03-8.63-9.01-19.61-7.87-29.81zm363.07 224.67c-11.82 2.81-20.4-4.51-27.24-13.29a232.81 232.81 0 0 1-18.93-28.9A262.42 262.42 0 0 1 389 360.54c-.55-2.63-4-5.19-6.58-3.74-12.21 6.75-28.95 4.22-38.19-6.48-4.65-5.38-9.28-18.16.69-20.93 4.17-1.16 6.65 3.28 10.11 4.81a13.8 13.8 0 0 0 8.87.75c13.84-3.46 16.61-21.45 5.09-29.37a19.26 19.26 0 0 0-17.45-2.27c-3 1.14-4.51 3.17-6.91 5.05-4.14 3.22-5.92-3.87-6.23-7-1.87-19.17 23.15-28.07 34.27-12.78a4.17 4.17 0 0 0 6.12.68c5.88-5.34 6.72-13.29 6.47-20.82s-2.09-16 3-22.47c1.83-2.34 5-4 7.84-2.23s3.49 6.2 3.72 9.13c.81 10.36-3.18 21.21-8.28 30-2.22 3.83 4.4 10.93 7.27 6.63l16-24.06c2.57-3.85 9.79-19.39 16.11-15.59 7.63 4.6-2.75 17.44-6.14 21.64-.53.65-1.08 1.29-1.63 1.92q-9.12 8-18.26 16c-3.45 3 1.77 10.93 5.81 8.23A109 109 0 0 0 431 280l11.6-10.1 7.4-6.44c2.11-1.85 4.53-4.62 7.26-5.56 6.07-2.08 3.94 5.74 2.81 9.11-6.49 19.34-23.43 34.35-43.15 39.09a3.53 3.53 0 0 0-2.39 1.76c-3.64-.19-4.94 6.19-1.2 8.9C448.8 342.48 476.2 381.2 486 424.14c4.64 20.34 1.74 48.64-22.66 54.43z" fill="#231815" opacity="1" data-original="#231815"></path><path d="M217.16 141.46c3.21-4.08-3.17-12-6.66-7.55-7.62 9.69-23.83 11.9-32.75 2.62-4.6-4.78-9.74 1.85-5.57 6.19 12.03 12.5 33.92 12.81 44.98-1.26zM337.88 140.85c4.41-3.12-.59-12-4.94-8.93-10.65 7.52-26.26 7.51-35.89-1.87-4.73-4.61-9.89 2-5.57 6.18 12.31 12 32.03 14.77 46.4 4.62zM279.36 203.29c3.4-3.93-2.95-11.85-6.66-7.55-11.81 13.69-30.56 5.54-42.76-2.86-5.48-3.78-8.26 4.75-3.67 7.91 15.32 10.56 38.52 19.38 53.09 2.5zM202 295.07c6 2.41 6.43-7.13 1.55-9.1-13.79-5.58-22.32 8.17-24.53 19.79a119.25 119.25 0 0 0-1.93 24c.11 7.12.45 14.78 3.08 21.48 4 10.12 17.56 19 26.48 8.76 4-4.59 5.07-11.16 5.73-17a105.45 105.45 0 0 0 0-23.89c-.34-3.08-2.59-5.51-5.76-5.37a33.2 33.2 0 0 0-14.89 4.26c-4.71 2.61.22 11.53 5 8.92a27.15 27.15 0 0 1 7.55-2.85c.56 7.76.4 15.9-1.74 23.2-1.05 3.55-3.28 7.75-7.58 7.52-5.08-.28-7.2-5.73-8-9.94-2-10.06-1.49-21.06-.06-31.15.92-7.04 4.39-22.95 15.1-18.63zM243.12 356.21c4.21-15.37 3.95-33.78 1.63-49.42-.92-6.23-2.94-12.8-8.56-16.36-4.64-2.94-10.83-2.87-14.56 1.42a4.21 4.21 0 0 0-.89 3.59 4 4 0 0 0-2.07 3.72c-.41 8.91-.55 17.83-.35 26.74.19 8.25 0 17.1 1.7 25.2 1.27 5.92 4.73 11.45 10.87 13.09s10.66-2.19 12.23-7.98zm-11.89-1.46c-2.25-.59-2.71-3.52-3-5.44-.87-5.07-.8-10.5-1-15.64-.45-11.14-.37-22.28.14-33.42a4 4 0 0 0 1-.81c3.21-3.69 6.54.85 7.33 4 1.23 4.91 1.41 10.24 1.64 15.27.48 10.59.44 22.44-2.37 32.75-.57 1.8-1.41 3.9-3.74 3.29zM280.74 306.79c-.92-6.23-2.94-12.8-8.56-16.36-4.64-2.94-10.83-2.87-14.56 1.42a4.21 4.21 0 0 0-.89 3.59 4 4 0 0 0-2.07 3.72c-.41 8.91-.55 17.83-.35 26.74.18 8.25-.05 17.1 1.7 25.2 1.27 5.92 4.72 11.45 10.87 13.09s10.65-2.22 12.23-8c4.21-15.35 3.95-33.76 1.63-49.4zm-9.86 44.64c-.49 1.83-1.33 3.93-3.66 3.32s-2.71-3.52-3-5.44c-.87-5.07-.8-10.5-1-15.64-.45-11.14-.37-22.28.14-33.42a4.17 4.17 0 0 0 1-.81c3.21-3.69 6.53.85 7.33 4 1.23 4.91 1.41 10.24 1.64 15.27.4 10.56.37 22.41-2.45 32.72zM302.62 291.17c-3.07-2.33-7-6.27-11.17-5.42a3.29 3.29 0 0 0-2.42 2c-1.65.18-3 1.41-2.89 4.07l2.59 67.05a5.89 5.89 0 0 0 4.66 5.4c20.89 3.4 27.12-22.51 27.21-38.17 0-9.24-2.44-18.41-8.23-25.72a53.64 53.64 0 0 0-9.75-9.21zm9.31 34.63c-.24 9.75-3.4 26.91-14.75 28.75l-2.25-58.36a3.07 3.07 0 0 0 .52-.14c1.69 1.25 4.67 3.92 5.43 4.54a33.84 33.84 0 0 1 6.46 6.69c3.77 5.4 4.76 12.07 4.59 18.52zM224.18 391.85c-15.21-1.13-30.43-1.48-45.68-1.16-3.34.07-3.47 3.62-1.92 6.39.41 2.33 2 4.73 4.4 5.14a197.6 197.6 0 0 0 20.5 2.35 205.14 205.14 0 0 1-1.37 46.43c-.65 4.4-4.24 19.85-10.65 11.42-4.53-6-2.7-14.75-1.61-21.51a5.68 5.68 0 0 0-2-5c-1.23-3.36-4.87-6-7-2.86-6.28 9.45-6.43 22.38-2.41 32.84 3.94 10.22 14.11 16.71 24.56 10.89 10.75-6 14-19.3 14.69-30.65.82-13.64 0-27.47-.3-41.14 2.93 0 5.87-.07 8.81-.2 2.26-.1 3.06-1.75 2.87-3.66 3.28-1.85 1.5-8.96-2.89-9.28zM240.33 389.13c-4.37 2.47-6.85 7.29-7.45 12.11-1.25 9.94-1.51 20.15-1.8 30.15a201.6 201.6 0 0 0 .26 20.86c.39 5.22.91 10.95 3.5 15.61 1.88 3.57 3.2 7.33 7.07 9.25 3.66 1.81 8.06 1.23 11.63-.52 8.33-4.09 11.59-13.54 13-22.06 3-18.32 5.59-41.17-5.46-57.45-4.46-6.53-12.81-12.46-20.75-7.95zm9.73 72.37a4.52 4.52 0 0 0-1.48-.81c-4.24-1.35-5-8.26-5.68-12a101.74 101.74 0 0 1-1.22-17.17c0-3.91.94-33.56 9.79-26.22 3.31 2.74 4.57 9.5 5.46 13.48a58.66 58.66 0 0 1 1.32 14.83 60.47 60.47 0 0 1-8.19 27.89zM308.22 434.58l-.43-.29c5.82-6 7.75-14.09 4.39-21.73a29.84 29.84 0 0 0-17.78-22.26 3.53 3.53 0 0 0-3 .07c-4.64-1.34-9.8-1.46-12.42 2.37a4.89 4.89 0 0 0-.54 4v77.76c0 2.29 2.23 5.3 4.66 5.39a28.92 28.92 0 0 0 20.36-7.1A30 30 0 0 0 314 459.21c3.11-8.21 2-19.33-5.78-24.63zm-6.33-22.8a21 21 0 0 1 .4 2.1c-.23 6.84-5.75 12.84-12.24 14.77q-.72-11.49-1.43-23c4.83 1.13 9.78 2.69 13.27 6.13zm-9.44 55.71-1.77-28.55a13.57 13.57 0 0 1 12.06 16.74 17.14 17.14 0 0 1-4.69 8.55 29.11 29.11 0 0 1-5.6 3.26z" fill="#231815" opacity="1" data-original="#231815"></path></g></g></svg>