<svg xmlns="http://www.w3.org/2000/svg" version="1.1" xmlns:xlink="http://www.w3.org/1999/xlink" width="512" height="512" x="0" y="0" viewBox="0 0 512 512" style="enable-background:new 0 0 512 512" xml:space="preserve" class=""><g><path d="M250.016 349.24c-52.638 8.043-104.956 6.588-157.531-4.936l49.874-171.01c-4.597-.287-9.225-.296-13.77-.91-19.518-2.64-35.277-11.762-46.217-28.27-5.277-7.966-6.893-17.176-6.16-26.688.146-1.907 1.095-3.752 1.768-5.93-6.536-4.502-11.478-10.497-11.943-19.241-.262-4.936 1.203-9.422 4.332-13.147 8.438-10.047 17.415-12.57 29.502-6.14 9.476 5.042 13.684 17.073 9.897 27.27-3.253 8.756-12.752 17.245-25.348 14.178-.868 11.64.994 22.45 9.308 31.285 13.47 14.314 30.183 20.256 49.65 18.981 1.493-.097 1.87-.946 2.21-2.112 3.204-11.027 6.39-22.06 9.66-33.069 7.898-26.603 15.77-53.216 23.79-79.783 4.35-14.413 8.981-28.741 13.492-43.105.09-.284.256-.542.576-1.204 3.623 3.813 7.241 7.356 10.563 11.159 15.436 17.67 30.647 35.538 46.212 53.094 15.97 18.012 32.276 35.727 48.371 53.63 1.42 1.58 2.532 1.86 4.446.86 8.502-4.44 14.321-11.412 18.872-19.606 7.81-14.062 9.66-29.122 7.641-44.896-.355-2.772-1.325-4.188-3.895-5.45-8.82-4.329-16.261-16.485-13.045-28.349.823-3.038 2.353-5.247 5.008-7.25 2.921-2.205 5.672-4.22 9.345-4.778 15.892-2.417 27.558 7.741 29.821 19.869 2.247 12.038-6.239 22.888-18.486 23.517-.298.015-.592.097-.623.102 3.269 30.497-3.927 56.466-30.616 74.57l131.016 143.118c-44.425 30.927-93.043 51.958-145.196 65.887 1.212 4.56 2.435 9.07 3.609 13.594 6.248 24.086 12.835 48.091 18.593 72.294 3.482 14.634 5.93 29.534 8.338 44.396 1.35 8.336 1.778 16.877-.78 25.142-.743 2.398-2.09 4.79-3.728 6.695-4.237 4.93-10.698 5.354-16.778 1.444-5.547-3.568-9.174-8.804-12.421-14.369-6.795-11.641-11.205-24.277-15.35-37.01-6.604-20.282-11.551-41.008-15.989-61.841-2.914-13.683-5.103-27.52-7.624-41.287-.026-.14-.144-.265-.394-.703zM100.909 99.688c5.33-9.173-.768-21.064-11.025-21.495-3.445-.212-6.74.25-9.717 2.153-5.59 4.028-7.447 10.384-4.721 16.46 2.71 6.039 11.04 11.6 16.735 9.673 4.054-.792 6.728-3.359 8.728-6.79zm236.24-76.995c-2.355-.33-4.74-1.056-7.057-.886-2.58.189-5.096 1.687-7.65 1.714-3.15.034-3.535 1.75-3.674 4.06-.041.676.024 1.359.04 2.038-.262 4.053 1.253 7.568 3.404 10.845 4.457 6.79 11.765 9.918 18.47 7.985l2.91-1.376c.64-.517 1.375-.951 1.902-1.564 7.697-8.953-.314-21.033-8.346-22.816zM285.7 348.726l-1.718-5.784-12.388 2.689-13.48 2.482 3.335 15.813c.041.529.025 1.068.13 1.583 1.617 7.894 3.177 15.8 4.89 23.673 4.786 21.991 9.964 43.889 17.118 65.253 3.863 11.538 8.002 22.997 14.56 33.368 2.607 4.123 5.342 8.177 10.15 10.12 1.97 1.196 3.646.359 4.383-1.35 1.094-2.536 2.012-5.264 2.343-7.99 1.115-9.183-.231-18.307-1.953-27.252-3.132-16.272-6.731-32.46-10.46-48.608-2.426-10.506-5.4-20.887-8.178-31.31-2.366-8.885-4.802-17.752-7.208-26.629l-1.524-6.058zm126.06-66.744 13.686-8.301-13.197-14.24-12.923 7.864c-9.3 4.686-18.48 9.63-27.926 14a409.641 409.641 0 0 1-49.798 19.196c-11.532 3.604-23.257 6.591-34.895 9.854-4.914 1.024-9.794 2.278-14.75 3.026-13.318 2.01-26.626 4.242-40.02 5.566-15.144 1.497-30.365 2.615-45.574 2.954-15.763.352-31.557-.246-47.325-.786-8.21-.281-16.405-1.231-24.587-2.071-5.747-.59-5.749-.74-7.376 4.728-1.384 4.654-2.723 9.322-4.107 14.07.822.232 1.39.439 1.976.551 18.49 3.546 37.108 6.294 55.925 6.986 14.004.515 28.056.577 42.058.062 12.079-.444 24.144-1.747 36.168-3.095 23.206-2.6 45.986-7.416 68.295-14.312 9.367-2.895 18.581-6.282 27.865-9.445 6.038-2.314 12.133-4.49 18.103-6.967 20.22-8.387 39.791-18.073 58.402-29.64zM214.4 41.901l-17.773-20.982-3.599 11.966c-4.793 15.403-9.714 30.768-14.348 46.22-6.277 20.925-12.334 41.916-18.484 62.88-8.335 28.407-16.677 56.812-25 85.223a47784.098 47784.098 0 0 0-16.902 57.857c-1.226 4.204-2.398 8.424-3.636 12.78 1.423.198 2.618.416 3.822.523 5.914.527 11.822 1.222 17.749 1.49 10.954.495 21.933 1.225 32.88.956 14.232-.35 28.456-1.406 42.657-2.496 8.72-.67 17.393-1.971 26.087-2.99 11.632-1.964 23.329-3.609 34.882-5.96 25.724-5.235 50.772-12.921 75.145-22.605 13.56-5.386 26.708-11.806 40.043-17.76l10.069-5.036c-.616-.742-.98-1.218-1.382-1.66-8.905-9.824-17.752-19.7-26.734-29.454-25.395-27.573-50.909-55.035-76.25-82.657-16.947-18.473-33.726-37.1-50.486-55.743-9.677-10.763-19.166-21.696-28.74-32.552zm177.446 214.543c-13.56 6.012-26.958 12.426-40.716 17.944-21.923 8.794-44.492 15.73-67.498 21.097-28.396 6.625-57.223 10.454-86.304 12.385-15.975 1.061-31.975 1.943-47.977.945-11.773-.734-23.512-2.007-35.27-2.994-.633-.053-1.758.155-1.88.509-.906 2.617-1.615 5.303-2.406 8.037.653.192 1.004.364 1.366.392 8.51.66 17.01 1.643 25.532 1.88 17.138.476 34.312 1.209 51.426.598 18.25-.65 36.477-2.456 54.664-4.263 19.273-1.916 38.2-5.928 56.875-11.028 22.498-6.143 44.458-13.88 65.72-23.452 10.45-4.705 20.539-10.218 30.792-15.365l12.825-7.251-5.335-5.844c-4.003 2.172-7.909 4.29-11.814 6.41z" fill="#000000" opacity="1" data-original="#000000"></path><path fill="#ed2e4c" d="M387.92 249.003c-13.333 5.954-26.482 12.374-40.04 17.76-24.375 9.684-49.422 17.37-75.146 22.605-11.553 2.351-23.25 3.995-34.882 5.96-10.747-2.367-20.903-6.401-30.754-11.19a155.834 155.834 0 0 1-36.67-24.775c.233-1.914.938-3.917.597-5.722-.608-3.22-3.325-4.725-7.444-4.807.013-.683-.078-1.388.056-2.047a6723.485 6723.485 0 0 1 6.726-32.728c1.657-7.937 3.389-15.86 5.088-23.788.09-.122.16-.272.275-.363 4.477-3.506 4.986-5.875 2.451-11.442 1.05-4.326 2.152-8.64 3.133-12.981.714-3.157 1.268-6.35 1.894-9.527.55.252 1.1.5 1.647.757 11.944 5.601 26.114 1.008 32.317-10.477 6.327-11.715 2.503-25.978-8.81-32.983-4.213-2.61-8.86-3.535-13.716-3.74.896-3.683 1.691-7.393 2.706-11.041a3726.24 3726.24 0 0 1 10.238-36.188c.914-3.16 2.187-6.217 3.296-9.32.403.3.884.537 1.199.912 2.535 3.022 4.951 6.149 7.568 9.097 10.282 11.58 20.627 23.104 30.93 34.664.377.423.57 1.007.85 1.516-1.513.155-3.042.21-4.533.48-11.227 2.028-19.63 11.738-20.1 23.169-.48 11.654 7.186 22.04 18.435 24.977 11.258 2.938 23.07-2.18 28.128-12.533 1.428-2.923 1.908-6.31 2.823-9.482.671.438 1.472.758 1.992 1.333 3.517 3.894 6.848 7.964 10.475 11.75 13.118 13.694 26.407 27.225 39.468 40.973 5.39 5.674 10.403 11.71 15.522 17.638 6.56 7.597 13.037 15.266 19.582 22.875 4.959 5.765 9.982 11.474 14.951 17.23 3.273 3.792 6.5 7.624 9.749 11.438zm-163.201-67.89.061.002c-.046.833-.161 1.669-.129 2.499.598 15.32 2.091 30.54 5.315 45.553 3.165 14.742 7.88 28.922 15.55 41.989 2.245 3.822 4.737 7.507 8.784 9.712 3.811 2.076 7.255.514 8.127-3.696.29-1.404.458-2.867.429-4.297-.205-9.892-2.153-19.573-4.851-28.982-5.577-19.449-11.613-38.773-17.855-58.02-1.764-5.439-4.748-10.514-7.5-15.577-.734-1.348-2.564-2.344-4.107-2.945-1.84-.716-3.782.875-3.81 2.822-.052 3.646-.014 7.293-.014 10.94zm-36.917 50.14c.1-4.808-4.045-9.242-8.72-9.33-5.117-.098-9.42 3.962-9.537 8.997-.107 4.66 4.286 9.237 8.89 9.263 4.999.029 9.266-4.04 9.367-8.93zm100.743 21.37c4.959.029 8.242-3.131 8.262-7.952.02-4.784-3.189-8.12-7.856-8.168-4.978-.05-8.542 3.27-8.497 8.341.04 4.45 4.001 8.256 8.091 7.778zm-83.375-22.31c-.012 4.298 2.818 7.155 7.095 7.16 3.965.006 7.15-3.265 7.128-7.322-.02-3.73-3.372-6.909-7.276-6.902-4.105.008-6.935 2.885-6.947 7.063zm123.652 20.8c.028-3.652-2.876-6.766-6.306-6.762-4.15.004-7.001 2.749-7.013 6.753-.011 3.75 2.802 6.7 6.526 6.848 3.585.142 6.765-3.06 6.793-6.84zm-125.81-67.21c-3.508.021-6.405 2.848-6.462 6.304-.057 3.416 2.904 6.458 6.325 6.497 3.619.041 6.53-2.996 6.474-6.752-.052-3.458-2.79-6.071-6.337-6.05zm14.108 91.143c.018-3.42-2.667-6.003-6.183-5.948-2.718.041-5.69 3.166-5.659 5.948.036 3.198 2.828 5.9 6.096 5.898 3.142-.001 5.728-2.656 5.746-5.899zm67.727-61.604c.002 3.195 2.46 5.716 5.564 5.705 3.235-.01 5.899-2.644 5.847-5.78-.05-3.023-2.672-5.57-5.793-5.63-2.929-.055-5.619 2.677-5.618 5.705zM217.556 89.966c.046-3.095-2.264-5.407-5.43-5.435-3.138-.027-5.917 2.5-5.896 5.363.022 3.092 2.547 5.61 5.676 5.659 3.085.048 5.603-2.441 5.65-5.587zm58.357 90.702c-3.067-.012-5.24 2.095-5.235 5.074.006 2.988 2.161 5.059 5.257 5.05 2.863-.008 5.1-2.145 5.186-4.957.088-2.84-2.247-5.156-5.208-5.167zm33.68-4.358c-.02-2.866-2.306-5.24-4.982-5.173-3.173.079-5.467 2.154-5.482 4.96-.013 2.57 2.924 5.481 5.491 5.444 2.726-.04 4.994-2.426 4.974-5.231zm8.837 53.394c2.769.035 5.133-2.236 5.174-4.972.036-2.441-2.461-5.029-4.921-5.097-2.73-.077-5.124 2.3-5.255 5.217-.112 2.484 2.293 4.817 5.002 4.852zm-70.588-55.387c2.71-.02 4.982-2.277 4.928-4.894-.055-2.671-2.286-4.774-5.05-4.759-2.718.015-4.966 2.244-4.924 4.882.042 2.643 2.315 4.792 5.047 4.77zm69.563 21.87c.38-2.694-2.133-4.298-3.943-4.378-2.334-.103-4.278 1.797-4.348 4.082-.076 2.47 1.78 4.485 4.136 4.49 2.265.004 4.129-1.878 4.155-4.193zm32.23 37.632c2.287-.004 3.868-1.565 3.886-3.84.016-1.992-1.914-3.943-3.895-3.936-1.991.007-3.897 1.952-3.878 3.96.022 2.29 1.581 3.82 3.887 3.816zm-66.591 35.829c-.015-2.167-1.77-3.835-3.958-3.762-1.901.064-3.387 1.773-3.354 3.86.03 1.935 1.657 3.425 3.758 3.442 2.064.016 3.567-1.482 3.553-3.54zm2.785-111.792c2.053-.016 3.646-1.602 3.587-3.572-.055-1.876-1.614-3.35-3.562-3.37-2.057-.02-3.694 1.509-3.703 3.46-.01 1.957 1.618 3.498 3.678 3.482z" opacity="1" data-original="#ed2e4c"></path><path fill="#eb1d25" d="M183.204 155.959c-.625 3.177-1.18 6.37-1.894 9.526-.981 4.341-2.083 8.655-3.133 12.98-.51-.303-1.04-.579-1.53-.912-2.753-1.87-6.883-1.221-9.396 1.487-2.045 2.205-1.985 6.23-.065 8.765 2.195 2.899 5.22 2.623 8.265 2.466-1.7 7.929-3.43 15.851-5.088 23.789a6723.485 6723.485 0 0 0-6.726 32.727c-.134.66-.043 1.364-.056 2.048-.576.184-1.172.32-1.725.558-2.712 1.166-4.332 4.382-3.715 7.316.583 2.776 3.333 4.843 6.167 5.088 2.546.22 4.197-1.342 6.12-2.433a155.836 155.836 0 0 0 36.67 24.775c9.85 4.788 20.007 8.823 30.754 11.189-8.694 1.019-17.366 2.321-26.087 2.99-14.202 1.09-28.425 2.145-42.658 2.496-10.946.269-21.925-.461-32.88-.956-5.926-.267-11.834-.963-17.748-1.49-1.204-.107-2.4-.325-3.822-.523 1.238-4.356 2.41-8.576 3.635-12.78a47837.025 47837.025 0 0 1 16.902-57.857c8.324-28.41 16.666-56.816 25-85.224 6.151-20.963 12.208-41.954 18.484-62.88 4.635-15.45 9.556-30.816 14.349-46.219 4.309 4.707 8.579 9.45 12.949 14.1 1.426 1.518 3.11 2.793 4.677 4.179l.228 1.802c-1.108 3.104-2.381 6.16-3.295 9.32a3731.916 3731.916 0 0 0-10.238 36.188c-1.015 3.649-1.81 7.36-2.706 11.041l-.841.133-.98.07c-12.659 1.93-21.367 11.012-21.993 23.356-.509 10.029 4.017 17.545 12.376 22.885zm-28.325 128.785c.62-4.318-3.415-8.376-8.083-8.241-4.207.12-7.89 3.002-7.953 8.266-.053 4.406 3.652 7.976 8.15 8.106 3.933.114 8.458-3.604 7.886-8.13zm32.918-208.903c.001 4.042 2.835 6.885 6.87 6.892 3.416.006 6.86-3.316 6.875-6.634.02-4.193-2.816-7.113-6.906-7.11-4.035.002-6.841 2.814-6.84 6.852z" opacity="1" data-original="#eb1d25"></path><path fill="#00954c" d="M335.256 318.589c-9.284 3.163-18.498 6.55-27.865 9.445-22.309 6.895-45.089 11.711-68.294 14.312-12.024 1.348-24.09 2.65-36.169 3.095-14.002.515-28.054.453-42.058-.062-18.817-.692-37.435-3.44-55.925-6.986-.586-.113-1.154-.32-1.976-.552 1.384-4.747 2.724-9.415 4.108-14.069 1.626-5.469 1.628-5.319 7.375-4.729 8.182.84 16.377 1.79 24.587 2.072 15.768.54 31.563 1.137 47.325.786 15.209-.34 30.43-1.457 45.575-2.954 13.393-1.324 26.701-3.556 40.02-5.566 4.956-.748 9.835-2.002 14.75-3.026.655.418 1.259 1.007 1.976 1.227 7.55 2.31 15.087 4.673 22.7 6.76 2.129.584 4.505.506 6.749.385 4.911-.266 9.807-.806 14.717-1.097.78-.046 1.602.621 2.405.959z" opacity="1" data-original="#00954c"></path><path fill="#aed5a1" d="M396.168 263.129c-10.252 5.147-20.34 10.66-30.792 15.365-21.261 9.572-43.221 17.31-65.719 23.452-18.675 5.1-37.603 9.112-56.875 11.028-18.187 1.807-36.413 3.612-54.664 4.263-17.115.61-34.288-.122-51.426-.598-8.522-.237-17.023-1.22-25.532-1.88-.362-.028-.713-.2-1.366-.392.791-2.734 1.5-5.42 2.405-8.037.123-.354 1.248-.562 1.88-.509 11.759.987 23.498 2.26 35.27 2.994 16.003.998 32.003.116 47.978-.945 29.08-1.93 57.908-5.76 86.304-12.385 23.006-5.367 45.575-12.303 67.498-21.097 13.758-5.518 27.156-11.932 40.715-17.944l4.325 6.685z" opacity="1" data-original="#aed5a1"></path><path fill="#f17495" d="m210.881 52.965-.228-1.802c.335-.73.703-1.448.999-2.195.93-2.35 1.833-4.71 2.747-7.067 9.573 10.856 19.063 21.789 28.74 32.552 16.76 18.643 33.54 37.27 50.486 55.743 25.34 27.622 50.855 55.084 76.25 82.657 8.981 9.753 17.829 19.63 26.734 29.453.401.443.766.919 1.381 1.66l-10.069 5.037c-3.248-3.814-6.476-7.646-9.75-11.438-4.968-5.756-9.992-11.464-14.95-17.23-6.545-7.609-13.022-15.278-19.582-22.875-5.119-5.928-10.132-11.964-15.523-17.638-13.06-13.748-26.35-27.279-39.467-40.973-3.628-3.786-6.958-7.856-10.475-11.75-.52-.575-1.321-.895-1.992-1.333.21-4.478-.5-8.803-2.566-12.792-4.645-8.971-12.216-13.349-22.188-13.818-.279-.51-.472-1.094-.849-1.516-10.303-11.56-20.648-23.085-30.93-34.665-2.617-2.948-5.033-6.074-7.568-9.096-.315-.376-.796-.613-1.2-.914z" opacity="1" data-original="#f17495"></path><path fill="#00a54e" d="M335.256 318.589c-.802-.338-1.625-1.005-2.405-.959-4.91.291-9.806.832-14.717 1.097-2.244.121-4.62.199-6.75-.385-7.612-2.087-15.15-4.449-22.7-6.76-.716-.22-1.32-.81-1.976-1.227 11.639-3.263 23.363-6.25 34.895-9.854a409.608 409.608 0 0 0 49.798-19.196c9.446-4.37 18.626-9.314 27.926-14l12.434 14.677c-18.61 11.567-38.181 21.253-58.402 29.64-5.97 2.476-12.065 4.653-18.103 6.967z" opacity="1" data-original="#00a54e"></path><path fill="#fcc01f" d="M308.298 497.922c-4.808-1.942-7.543-5.996-10.15-10.119-6.558-10.371-10.697-21.83-14.56-33.368-7.154-21.364-12.332-43.261-17.118-65.253-1.713-7.873-3.273-15.779-4.89-23.673-.105-.515-.089-1.054-.13-1.582.848-.481 1.644-1.212 2.552-1.397 2.953-.603 5.947-1.007 8.926-1.488.984 6.357 1.682 12.774 3.011 19.057a1251.735 1251.735 0 0 0 8.494 37.227 895.966 895.966 0 0 0 8.347 31.687c2.889 10.218 6.012 20.374 9.25 30.488 1.845 5.762 4.125 11.384 6.21 17.07l.058 1.351z" opacity="1" data-original="#fcc01f"></path><path fill="#f7f1bd" d="m308.298 497.922-.059-1.352c.092-.119.235-.224.27-.358 2.672-10.263 2.648-20.678.939-31.009-2.106-12.724-4.59-25.396-7.285-38.01-2.532-11.857-7.768-22.995-9.05-35.25-.762-7.292-2.78-14.451-4.213-21.674-.944-4.76-1.85-9.528-2.773-14.292l.135-.84.964-.35c2.405 8.874 4.84 17.74 7.208 26.626 2.776 10.423 5.751 20.804 8.177 31.31 3.73 16.148 7.328 32.336 10.46 48.608 1.722 8.945 3.068 18.07 1.953 27.251-.33 2.727-1.248 5.455-2.342 7.99-.738 1.71-2.414 2.547-4.384 1.35z" opacity="1" data-original="#f7f1bd"></path><path fill="#fcc01f" d="M92.181 106.478c-5.695 1.928-14.025-3.634-16.735-9.673-2.726-6.076-.869-12.432 4.721-16.46.38.196.739.481 1.142.574 2.085.478 4.18.906 6.273 1.352-1.703 4.187-.968 7.891 2.442 10.862 1.813 1.579 3.9 2.84 5.834 4.283.51.38.916.902 1.37 1.359l-5.047 7.703z" opacity="1" data-original="#fcc01f"></path><path fill="#5bb860" d="m411.761 281.982-12.434-14.677 12.923-7.864 13.198 14.24-13.687 8.301z" opacity="1" data-original="#5bb860"></path><path fill="#eb1940" d="M214.4 41.901c-.915 2.357-1.818 4.717-2.748 7.067-.295.747-.663 1.465-.998 2.195-1.567-1.385-3.252-2.66-4.678-4.177-4.37-4.65-8.64-9.394-12.949-14.101l3.6-11.966L214.398 41.9z" opacity="1" data-original="#eb1940"></path><path fill="#fcc01f" d="M340.682 48.448c-6.705 1.933-14.013-1.195-18.47-7.985-2.15-3.277-3.666-6.792-3.404-10.845.608-.304 1.191-.683 1.828-.902 3.696-1.266 7.397-2.565 11.392-1.379-.1.67-.233 1.338-.295 2.011-.711 7.766-.036 12.003 7.318 15.633 1.756.867 2.12 1.823 1.631 3.467z" opacity="1" data-original="#fcc01f"></path><path fill="#f6a91a" d="M272.928 361.042c-2.979.48-5.973.885-8.926 1.488-.908.185-1.704.916-2.551 1.397l-3.336-15.814 13.48-2.482 1.387 15a9.345 9.345 0 0 1-.055.411z" opacity="1" data-original="#f6a91a"></path><path fill="#fcc01f" d="m272.982 360.63-1.387-15c4.062-.88 8.124-1.762 12.388-2.688.61 2.05 1.164 3.918 1.718 5.784l.561 6.41-.134.841c-1.452.61-2.877 1.301-4.363 1.812-2.91 1-5.854 1.9-8.783 2.842z" opacity="1" data-original="#fcc01f"></path><path fill="#ffd75c" d="M340.682 48.448c.49-1.644.125-2.6-1.631-3.467-7.354-3.63-8.03-7.867-7.318-15.633.062-.673.195-1.34.295-2.01l.524-.048c3.276.258 5.953 1.69 7.92 4.296 3.462 4.587 3.99 9.486.929 14.694l2.191.792-2.91 1.376z" opacity="1" data-original="#ffd75c"></path><path fill="#faf5c1" d="m343.592 47.072-2.191-.792c3.061-5.208 2.533-10.107-.929-14.694-1.966-2.606-4.643-4.038-7.92-4.296.009-2.685 1.317-3.994 4.596-4.598 8.032 1.783 16.043 13.863 8.346 22.816-.527.613-1.263 1.047-1.902 1.564z" opacity="1" data-original="#faf5c1"></path><path fill="#f7f1bd" d="M89.884 78.192c10.257.431 16.356 12.322 11.025 21.496l-3.133-.99c.149-.802.235-1.623.459-2.405 1.179-4.11.087-8.463-3.27-10.801-2.055-1.43-4.577-2.188-6.889-3.248l1.808-4.052z" opacity="1" data-original="#f7f1bd"></path><path fill="#f6f8f5" d="m396.168 263.129-4.324-6.685 11.815-6.41 5.335 5.844-12.825 7.25z" opacity="1" data-original="#f6f8f5"></path><path fill="#f6e96d" d="M337.148 22.692c-3.28.604-4.587 1.913-4.597 4.598l-.523.047c-3.995-1.186-7.696.113-11.392 1.38-.637.218-1.22.597-1.828.901-.016-.68-.081-1.362-.04-2.038.14-2.31.525-4.026 3.674-4.06 2.554-.027 5.07-1.525 7.65-1.714 2.318-.17 4.701.555 7.056.886z" opacity="1" data-original="#f6e96d"></path><path fill="#f5e76a" d="m97.777 98.698 3.132.99c-2 3.431-4.674 5.998-8.728 6.79l5.046-7.703.55-.077zM89.884 78.192l-1.808 4.052-.494.027c-2.092-.446-4.188-.874-6.273-1.352-.403-.093-.762-.378-1.142-.574 2.976-1.903 6.272-2.365 9.717-2.153z" opacity="1" data-original="#f5e76a"></path><path fill="#ffd75c" d="m286.262 355.137-.56-6.41 1.523 6.058-.963.352z" opacity="1" data-original="#ffd75c"></path><path fill="#fffaf9" d="M183.204 155.959c-8.359-5.34-12.885-12.856-12.376-22.885.626-12.344 9.334-21.426 21.993-23.357l.98-.07.841-.132c4.856.206 9.503 1.13 13.717 3.74 11.312 7.005 15.136 21.268 8.809 32.984-6.203 11.485-20.373 16.078-32.317 10.476-.547-.257-1.098-.504-1.647-.756zm16.654-9.708c-.017-.138-.036-.443-.097-.74-1.429-6.91-2.808-13.83-4.324-20.721-.508-2.309-2.514-3.563-4.564-3.218-2.105.353-3.567 2.282-3.31 4.758.228 2.183.717 4.343 1.154 6.5.949 4.688 1.898 9.377 2.925 14.048.581 2.638 2.386 4.038 4.635 3.798 2.166-.23 3.55-1.878 3.581-4.425z" opacity="1" data-original="#fffaf9"></path><path d="M224.719 181.113c0-3.647-.037-7.294.015-10.94.027-1.947 1.968-3.538 3.809-2.822 1.543.6 3.373 1.597 4.106 2.945 2.753 5.063 5.737 10.138 7.5 15.576 6.243 19.248 12.28 38.572 17.856 58.021 2.698 9.409 4.646 19.09 4.85 28.982.03 1.43-.137 2.893-.428 4.297-.873 4.21-4.316 5.772-8.127 3.696-4.048-2.205-6.54-5.89-8.783-9.712-7.671-13.067-12.386-27.247-15.551-41.989-3.224-15.014-4.717-30.232-5.315-45.553-.032-.83.083-1.666.129-2.499l-.061-.002zm10.04 48.578c1.757 6.121 3.252 12.332 5.33 18.343 3.03 8.766 6.688 17.295 12.385 24.74 1.238 1.618 2.956 2.87 4.945 4.758.225-1.785.522-2.76.436-3.7-.406-4.453-.652-8.946-1.455-13.334-1.077-5.882-2.614-11.68-3.954-17.514-.112-.67-.16-1.357-.347-2.006-2.347-8.176-4.47-16.426-7.132-24.5-4.136-12.544-8.576-24.99-13.047-37.421-.856-2.382-2.453-4.498-3.708-6.737-.542 1.486-.624 2.69-.529 3.881.568 7.125.864 14.29 1.844 21.36 1.49 10.745 3.464 21.423 5.233 32.13z" fill="#000000" opacity="1" data-original="#000000"></path><path fill="#b52126" d="M187.802 231.253c-.101 4.89-4.368 8.959-9.366 8.93-4.606-.026-8.998-4.603-8.89-9.263.115-5.035 4.418-9.095 9.536-8.998 4.675.089 8.82 4.523 8.72 9.331zM288.545 252.622c-4.09.478-8.052-3.328-8.091-7.778-.045-5.07 3.52-8.392 8.497-8.34 4.667.047 7.876 3.383 7.856 8.167-.02 4.82-3.303 7.98-8.262 7.951zM205.17 230.312c.012-4.179 2.842-7.055 6.947-7.063 3.904-.007 7.256 3.173 7.276 6.902.021 4.057-3.163 7.328-7.129 7.323-4.276-.006-7.106-2.863-7.094-7.162zM175.45 190.271c-3.043.157-6.069.433-8.264-2.466-1.92-2.536-1.98-6.56.065-8.765 2.513-2.709 6.643-3.356 9.396-1.487.49.333 1.02.61 1.53.912 2.536 5.568 2.026 7.938-2.451 11.444-.116.09-.185.24-.275.362z" opacity="1" data-original="#b52126"></path><path fill="#b62127" d="M328.822 251.113c-.028 3.78-3.208 6.98-6.793 6.84-3.724-.148-6.537-3.1-6.526-6.85.012-4.003 2.862-6.748 7.013-6.753 3.43-.003 6.334 3.11 6.306 6.763z" opacity="1" data-original="#b62127"></path><path fill="#b52126" d="M170.428 259.364c-1.923 1.091-3.574 2.653-6.12 2.433-2.834-.245-5.584-2.312-6.167-5.088-.617-2.934 1.003-6.15 3.715-7.316.553-.238 1.149-.374 1.725-.558 4.12.081 6.837 1.587 7.444 4.806.341 1.805-.364 3.809-.597 5.723z" opacity="1" data-original="#b52126"></path><g fill="#b62127"><path d="M203.012 183.903c3.547-.022 6.285 2.59 6.337 6.049.056 3.756-2.856 6.793-6.474 6.752-3.42-.04-6.382-3.08-6.325-6.497.057-3.456 2.954-6.283 6.462-6.304zM217.12 275.046c-.018 3.242-2.604 5.897-5.746 5.898-3.268.001-6.06-2.7-6.096-5.898-.031-2.782 2.941-5.906 5.659-5.948 3.516-.055 6.201 2.529 6.183 5.947zM284.847 213.442c0-3.028 2.69-5.76 5.618-5.705 3.121.06 5.743 2.607 5.793 5.63.052 3.136-2.612 5.77-5.847 5.78-3.104.011-5.563-2.51-5.564-5.705zM217.556 89.966c-.047 3.146-2.565 5.636-5.65 5.587-3.13-.049-5.654-2.567-5.676-5.66-.02-2.862 2.758-5.39 5.896-5.362 3.166.028 5.476 2.34 5.43 5.435zM275.913 180.668c2.96.01 5.296 2.327 5.208 5.167-.087 2.812-2.323 4.95-5.186 4.957-3.096.009-5.251-2.062-5.257-5.05-.005-2.98 2.168-5.086 5.235-5.074zM309.594 176.31c.02 2.805-2.248 5.19-4.974 5.23-2.567.038-5.504-2.874-5.49-5.443.014-2.806 2.308-4.881 5.481-4.96 2.676-.066 4.962 2.307 4.983 5.173zM318.43 229.704c-2.709-.035-5.114-2.368-5.002-4.852.131-2.917 2.525-5.294 5.255-5.217 2.46.069 4.957 2.656 4.92 5.097-.04 2.736-2.404 5.007-5.173 4.972zM247.843 174.317c-2.732.02-5.005-2.128-5.047-4.77-.041-2.64 2.206-4.868 4.924-4.883 2.764-.015 4.995 2.088 5.05 4.76.054 2.616-2.218 4.872-4.928 4.893zM317.405 196.188c-.026 2.315-1.89 4.197-4.155 4.192-2.356-.004-4.212-2.02-4.136-4.49.07-2.284 2.014-4.184 4.348-4.08 1.81.08 4.323 1.683 3.943 4.378z" fill="#b62127" opacity="1" data-original="#b62127"></path></g><path fill="#b72127" d="M349.635 233.82c-2.306.004-3.865-1.528-3.887-3.818-.019-2.007 1.887-3.952 3.878-3.96 1.98-.006 3.911 1.945 3.895 3.937-.019 2.274-1.599 3.836-3.886 3.84zM283.043 269.648c.014 2.058-1.49 3.556-3.553 3.54-2.101-.017-3.728-1.507-3.758-3.442-.033-2.087 1.453-3.796 3.354-3.86 2.188-.073 3.943 1.595 3.957 3.762zM285.829 157.856c-2.06.016-3.688-1.525-3.678-3.483.01-1.95 1.646-3.479 3.703-3.458 1.948.019 3.507 1.493 3.562 3.369.059 1.97-1.534 3.556-3.587 3.572z" opacity="1" data-original="#b72127"></path><path fill="#b52126" d="M154.88 284.744c.57 4.527-3.954 8.245-7.888 8.131-4.497-.13-8.202-3.7-8.149-8.106.063-5.264 3.746-8.145 7.953-8.266 4.668-.135 8.702 3.923 8.083 8.241zM187.797 75.841c-.002-4.038 2.805-6.85 6.839-6.853 4.09-.002 6.926 2.918 6.906 7.111-.015 3.318-3.458 6.64-6.876 6.634-4.034-.007-6.868-2.85-6.87-6.892z" opacity="1" data-original="#b52126"></path><path fill="#ed2e4c" d="m193.8 109.648-.979.069.98-.07z" opacity="1" data-original="#ed2e4c"></path><path fill="#ffd75c" d="M272.982 360.63c2.93-.94 5.873-1.84 8.783-2.84 1.486-.512 2.91-1.203 4.363-1.813.922 4.764 1.828 9.532 2.772 14.292 1.433 7.223 3.45 14.382 4.213 21.673 1.281 12.256 6.518 23.394 9.05 35.25 2.695 12.615 5.18 25.287 7.285 38.011 1.71 10.331 1.733 20.746-.94 31.009-.034.134-.177.24-.269.358-2.084-5.685-4.364-11.307-6.21-17.07-3.237-10.113-6.36-20.269-9.25-30.487a895.852 895.852 0 0 1-8.346-31.687 1251.663 1251.663 0 0 1-8.494-37.227c-1.329-6.283-2.027-12.7-3.011-19.057a9.69 9.69 0 0 0 .054-.411zM87.582 82.27l.494-.026c2.312 1.06 4.834 1.817 6.888 3.248 3.357 2.338 4.45 6.69 3.27 10.801-.223.782-.31 1.603-.458 2.406l-.55.076c-.452-.457-.858-.978-1.368-1.359-1.935-1.443-4.021-2.704-5.834-4.283-3.41-2.97-4.145-6.675-2.442-10.862z" opacity="1" data-original="#ffd75c"></path><path d="M199.858 146.251c-.03 2.547-1.415 4.194-3.58 4.425-2.25.24-4.055-1.16-4.635-3.798-1.028-4.671-1.977-9.36-2.926-14.048-.437-2.157-.926-4.317-1.153-6.5-.258-2.476 1.204-4.405 3.309-4.758 2.05-.345 4.056.91 4.564 3.218 1.516 6.89 2.895 13.811 4.324 20.721.061.297.08.602.097.74zM243.667 115.883c.306-2.588 1.704-4.406 3.837-4.666 2-.245 3.857 1.065 4.392 3.485 1.528 6.9 2.964 13.82 4.341 20.752.444 2.234-.89 4.277-2.858 4.848-2.072.602-4.295-.34-4.856-2.641-1.76-7.225-3.257-14.514-4.856-21.778z" fill="#000000" opacity="1" data-original="#000000"></path><path fill="#ec5e93" d="M234.76 229.69c-1.769-10.706-3.743-21.384-5.233-32.13-.98-7.069-1.276-14.234-1.844-21.359-.095-1.19-.013-2.395.53-3.88 1.254 2.238 2.85 4.354 3.707 6.736 4.471 12.43 8.911 24.877 13.047 37.421 2.661 8.074 4.785 16.324 7.132 24.5.187.648.235 1.337.347 2.006-2.382-1.828-4.746-3.677-7.148-5.478-3.499-2.623-7.024-5.212-10.538-7.815z" opacity="1" data-original="#ec5e93"></path><path fill="#ef9cbd" d="M234.76 229.69c3.514 2.604 7.039 5.193 10.538 7.816 2.401 1.8 4.766 3.65 7.148 5.478 1.34 5.834 2.877 11.632 3.954 17.514.804 4.388 1.05 8.88 1.455 13.335.086.94-.211 1.914-.436 3.699-1.99-1.888-3.707-3.14-4.945-4.759-5.697-7.444-9.355-15.973-12.385-24.74-2.078-6.01-3.574-12.22-5.33-18.342z" opacity="1" data-original="#ef9cbd"></path></g></svg>