<svg xmlns="http://www.w3.org/2000/svg" version="1.1" xmlns:xlink="http://www.w3.org/1999/xlink" width="512" height="512" x="0" y="0" viewBox="0 0 504.9 473.3" style="enable-background:new 0 0 512 512" xml:space="preserve" class=""><g><linearGradient id="a" x1="1811.636" x2="1845.285" y1="1441.828" y2="1441.828" gradientTransform="matrix(.858 -.36 -.387 -.922 -690.191 2276.968)" gradientUnits="userSpaceOnUse"><stop offset=".139" stop-color="#f6b4c8"></stop><stop offset=".289" stop-color="#f6b4c8"></stop></linearGradient><path d="M466.3 461c0 6.8-49 12.3-109.4 12.3s-109.4-5.5-109.4-12.3 49-12.3 109.4-12.3 109.4 5.5 109.4 12.3z" opacity="1" fill="#00000030" data-original="#00000030"></path><path fill="#a8a095" d="M451.1 354.9c-2.2-24.9-13.9-44.6-31.4-65.2-14.3-16.9-28.4-36.7-32.2-61.3h-65.7c-3.8 24.6-17.9 44.4-32.2 61.3-17.5 20.6-29.2 40.3-31.4 65.2-1.3 14.8.9 27.1 5.5 40.8 3.8 11.2 11.5 23 20.5 26.9 0 5.2.1 9.9.2 14.9.1 3.7.1 7.5.2 11.7.1 10.1 8.3 18.2 18.4 18.1 2.7 0 5.3-.6 7.6-1.7 6.2-2.9 10.5-9.3 10.4-16.7 0-4.3-.1-8.2-.2-12-.1-4.4-.1-8.6-.2-12.9h68.7c0 4.7.1 9 .2 13.5.1 3.7.1 7.5.2 11.7.1 10.1 8.3 18.2 18.4 18.1 2.7 0 5.3-.6 7.6-1.7 6.2-2.9 10.5-9.3 10.4-16.7 0-4.3-.1-8.2-.2-12-.1-5-.2-9.6-.2-14.5 8.7-4.1 16.2-15.6 19.9-26.6 4.5-13.8 6.8-26.1 5.5-40.9z" opacity="1" data-original="#a8a095"></path><path d="M407.8 469.2c-5.3 0-10.4-2.1-14.2-5.8-3.9-3.8-6-8.9-6.1-14.3 0-4.2-.1-8-.2-11.7-.1-3.5-.1-7.5-.2-11.5h-64.6c0 3.8.1 7.5.1 10.9.1 3.7.1 7.7.2 12 .1 7.9-4.5 15.2-11.6 18.5-2.7 1.3-5.5 1.9-8.5 1.9-5.4.1-10.5-2-14.4-5.8s-6-8.9-6.1-14.3c0-4.2-.1-8-.2-11.7-.1-4.3-.1-8.8-.2-13.6-9.9-5-17.1-17.8-20.4-27.5-5.1-15.4-6.8-27.8-5.6-41.6 2-22.5 11.5-42.3 31.9-66.3 13.6-16 27.9-35.6 31.7-60.3.2-1 1-1.7 2-1.7h65.7c1 0 1.9.7 2 1.7 3.8 24.6 18.2 44.3 31.7 60.3 20.4 24 29.9 43.8 31.9 66.3 1.2 13.8-.4 26.3-5.6 41.6-3.2 9.4-10.2 21.9-19.7 27.2 0 4.5.1 9 .2 13.3.1 3.7.1 7.7.2 12 .1 7.9-4.5 15.2-11.6 18.5-2.7 1.3-5.5 1.9-8.5 1.9h.1zm-87.3-47.4h68.7c1.1 0 2 .9 2 2 0 4.8.1 9.4.2 13.5.1 3.7.1 7.5.2 11.7 0 4.3 1.8 8.4 4.9 11.4s7.2 4.7 11.5 4.6c2.4 0 4.6-.5 6.8-1.5 5.7-2.7 9.3-8.5 9.3-14.8 0-4.3-.1-8.2-.2-11.9-.1-4.7-.2-9.6-.2-14.6 0-.8.5-1.5 1.2-1.8 8.5-4 15.5-15.6 18.8-25.4 5-14.8 6.6-26.7 5.4-40-1.9-21.6-11.2-40.7-30.9-64.1-13.6-16-28-35.7-32.4-60.6h-62.3c-4.3 24.8-18.8 44.5-32.4 60.6-19.8 23.3-29 42.5-30.9 64.1-1.2 13.2.4 25.2 5.4 40 3.4 10.1 10.7 21.9 19.3 25.6.7.3 1.2 1.1 1.2 1.9 0 5.2.1 10.1.2 14.8.1 3.7.1 7.5.2 11.7 0 4.3 1.8 8.4 4.9 11.4s7.2 4.7 11.5 4.6c2.4 0 4.6-.5 6.8-1.5 5.7-2.7 9.3-8.5 9.3-14.8 0-4.3-.1-8.2-.2-11.9-.1-4-.1-8.5-.2-13 0-.5.2-1.1.6-1.5.3-.2.8-.5 1.3-.5z" fill="#000000" opacity="1" data-original="#000000"></path><circle cx="354.6" cy="361.2" r="51" fill="#d7d0c8" opacity="1" data-original="#d7d0c8"></circle><path d="M302.1 469.8c-1.4 0-2.6-1.1-2.6-2.6v-4c0-1.4 1.1-2.6 2.6-2.6s2.6 1.1 2.6 2.6v4c-.1 1.4-1.2 2.6-2.6 2.6zM295.9 469.8c-1.4 0-2.6-1.1-2.6-2.6v-4c0-1.4 1.1-2.6 2.6-2.6s2.6 1.1 2.6 2.6v4c0 1.4-1.2 2.6-2.6 2.6zM308.2 469.8c-1.4 0-2.6-1.1-2.6-2.6v-4c0-1.4 1.1-2.6 2.6-2.6s2.6 1.1 2.6 2.6v4c0 1.4-1.1 2.6-2.6 2.6zM407.3 469.8c-1.4 0-2.6-1.1-2.6-2.6v-4c0-1.4 1.1-2.6 2.6-2.6s2.6 1.1 2.6 2.6v4c-.1 1.4-1.2 2.6-2.6 2.6zM401.1 469.8c-1.4 0-2.6-1.1-2.6-2.6v-4c0-1.4 1.1-2.6 2.6-2.6s2.6 1.1 2.6 2.6v4c-.1 1.4-1.2 2.6-2.6 2.6zM413.4 469.8c-1.4 0-2.6-1.1-2.6-2.6v-4c0-1.4 1.1-2.6 2.6-2.6s2.6 1.1 2.6 2.6v4c0 1.4-1.2 2.6-2.6 2.6z" fill="#000000" opacity="1" data-original="#000000"></path><path fill="#a8a095" d="M107.6 125.6c-5 1.3-9.8 3.1-14.3 5.3-15.1 3.4-34.9 14.8-53.5 32-30 27.7-45.3 60.1-34.1 72.2 6.8 7.3 21.8 5.5 39.2-3.2-6.1 19.2-5.5 34.9 3 40.3 7.9 5 20.7.1 34.2-11.5.3 15.3 4.5 26.4 12.1 28.5 8.7 2.4 19.5-7.5 28.3-24 3.6 14.7 10.1 24.5 17.7 24.7 11.9.2 22-23.6 22.5-53.2.1-4 0-7.8-.3-11.5 29.2-4.4 51-8.3 42.6-40.6-11.3-43.7-54.9-70-97.4-59z" opacity="1" data-original="#a8a095"></path><path d="M140.3 291.8h-.2c-7.6-.1-14.1-7.8-18.3-21.4-9.1 15.4-19.5 23-28.2 20.6-7.6-2.1-12.4-11.6-13.4-26.3-13.6 10.7-25.6 14-33.5 9-8.4-5.3-10.3-19.4-5.2-38.2-17.2 7.7-30.7 8.1-37.4.8-12.2-13.1 2.9-46.1 34.2-75.2 18-16.7 38.2-28.8 54.2-32.4 4.7-2.2 9.6-4 14.5-5.3 43.5-11.3 88.4 15.8 99.9 60.3 3 11.6 2.4 20.3-1.9 26.8-7.1 10.7-23.2 13.5-40.6 16.1.2 3.3.3 6.6.2 9.8-.2 14.6-2.8 28.3-7.1 38.6-4.4 10.9-10.6 16.8-17.2 16.8zm-17.8-28.7h.3c.8.1 1.5.7 1.7 1.5 3.5 14.1 9.5 23 15.7 23.1 4.8.1 9.8-5.1 13.6-14.2 4.1-9.8 6.6-23 6.8-37 .1-3.8 0-7.6-.3-11.4-.1-1.1.7-2 1.7-2.2 17.1-2.6 33.3-5 39.6-14.6 3.6-5.4 4-13.1 1.3-23.5-11-42.4-53.6-68.1-94.9-57.4-4.8 1.2-9.5 3-14 5.1-.1.1-.3.1-.4.2-15.3 3.4-35 15.2-52.5 31.5-28.7 26.6-44.2 58.3-34 69.4 5.9 6.3 19.6 5 36.8-3.7.7-.4 1.6-.3 2.2.3.6.5.9 1.4.6 2.2-5.9 18.8-5.1 33.3 2.2 37.9 6.7 4.2 18.6 0 31.8-11.3.6-.5 1.4-.6 2.2-.3.7.3 1.2 1 1.2 1.8.2 14.9 4.2 24.8 10.6 26.6 7.3 2 17.5-7 26-23 .4-.6 1.1-1 1.8-1z" fill="#000000" opacity="1" data-original="#000000"></path><path fill="#d7d0c8" d="M111.7 166c-2.5.7-4.9 1.5-7.2 2.6-7.6 1.7-17.5 7.4-26.7 16-15 13.9-22.6 30.1-17 36.1 3.4 3.7 10.9 2.8 19.6-1.6-3 9.6-2.7 17.4 1.5 20.1 3.9 2.5 10.4 0 17.1-5.8.1 7.7 2.2 13.2 6 14.2 4.3 1.2 9.8-3.7 14.2-12 1.8 7.4 5.1 12.3 8.8 12.3 6 .1 11-11.8 11.2-26.6 0-2 0-3.9-.2-5.8 14.6-2.2 25.5-4.1 21.3-20.3-5.5-21.5-27.3-34.7-48.6-29.2z" opacity="1" data-original="#d7d0c8"></path><path fill="#a8a095" d="M353.3 23.8c4.5-2.6 9.1-4.8 13.9-6.4 13.1-8.3 35.2-14.2 60.4-15.2 40.9-1.6 74.6 10.5 75.2 27 .4 10-11.5 19.3-30 25.4 17.9 9.3 28.5 20.8 26.3 30.6-2 9.1-14.6 14.7-32.3 16.1 10.7 11 15.5 21.8 11.6 28.7-4.4 7.8-19.1 8.5-37 3 7.9 13 10.2 24.5 4.9 29.9-8.3 8.6-32.3-1.2-53.5-21.7-2.8-2.8-5.5-5.6-7.9-8.4-23.7 17.5-41.9 30.2-58.8 1.5-22.8-38.8-10.6-88.2 27.2-110.5z" opacity="1" data-original="#a8a095"></path><path d="M437.7 168.1c-4 0-8.7-1.1-13.9-3.2-10.4-4.2-21.8-12.1-32.3-22.2-2.4-2.3-4.6-4.7-6.8-7.1-14.1 10.4-27.5 19.9-40.1 17.3-7.6-1.5-14.2-7.3-20.2-17.6C301 95.7 313.5 44.8 352.3 22c4.4-2.6 9.1-4.8 14-6.5C380.2 6.8 403 1.1 427.5.1c42.7-1.6 76.6 11.1 77.3 29 .4 9.9-9.4 19.2-27 25.9 16.9 9.7 25.5 21 23.3 30.7-2 9-12.9 15.2-30.1 17.3 9.7 11.1 13 21.2 9.1 28.1-4.4 7.9-17.2 9.8-34.5 5.4 6.6 12.5 7.4 22.6 2.2 28-2.3 2.4-5.8 3.6-10.1 3.6zm-52.8-37.3c.6 0 1.1.2 1.5.7 2.5 2.8 5.1 5.6 7.8 8.2 10.1 9.8 21.1 17.4 31 21.4 9.2 3.7 16.3 3.9 19.7.4 4.3-4.5 2.3-15-5.2-27.5-.4-.7-.4-1.6.1-2.3s1.4-.9 2.2-.7c17.3 5.3 30.9 4.5 34.6-2.1 3.3-5.7-1-15.6-11.3-26.3-.6-.6-.7-1.4-.4-2.1s1-1.3 1.8-1.3c17.4-1.3 28.8-6.8 30.5-14.5 1.9-8.4-7.8-19.3-25.3-28.4-.7-.4-1.2-1.2-1.1-2s.6-1.5 1.4-1.8c18.2-6 28.9-14.8 28.6-23.4-.6-15.1-34-26.5-73.1-25-23.9.9-46.2 6.5-59.4 14.9-.1.1-.3.2-.4.2-4.7 1.6-9.3 3.7-13.5 6.2-36.8 21.7-48.7 70-26.5 107.7 5.4 9.2 11.2 14.4 17.5 15.7 11.2 2.3 24.4-7.4 38.3-17.7.4-.2.8-.3 1.2-.3z" fill="#000000" opacity="1" data-original="#000000"></path><path fill="#d7d0c8" d="M379 55.3c2.2-1.3 4.6-2.4 6.9-3.2 6.5-4.1 17.6-7.1 30.2-7.6 20.5-.8 37.3 5.3 37.6 13.5.2 5-5.7 9.6-15 12.7 9 4.6 14.3 10.4 13.2 15.3-1 4.5-7.3 7.4-16.2 8 5.3 5.5 7.8 10.9 5.8 14.3-2.2 3.9-9.5 4.3-18.5 1.5 3.9 6.5 5.1 12.2 2.5 15-4.1 4.3-16.1-.6-26.8-10.9-1.4-1.4-2.7-2.8-4-4.2-11.9 8.8-21 15.1-29.4.7-11.3-19.2-5.2-44 13.7-55.1z" opacity="1" data-original="#d7d0c8"></path><path fill="#a8a095" d="m387.5 288.9-116.6 48.3c-41.2 17.1-88.5-2.5-105.5-43.7l-15.9-38.4c-30.4-73.4 4.5-157.6 77.9-188 73.4-30.4 157.6 4.5 188 77.9l15.9 38.4c17 41.2-2.6 88.5-43.8 105.5z" opacity="1" data-original="#a8a095"></path><path d="M240.1 345.4c-32.5 0-63.4-19.3-76.6-51.1l-15.9-38.4c-30.8-74.3 4.6-159.8 79-190.6 74.3-30.8 159.8 4.6 190.6 79l15.9 38.4c8.5 20.4 8.5 42.9 0 63.4-8.5 20.4-24.4 36.4-44.8 44.8l-116.6 48.3c-10.3 4.2-21 6.2-31.6 6.2zm42.1-287.1c-18.1 0-36.4 3.5-54.1 10.8-72.2 29.9-106.7 113-76.7 185.3l15.9 38.4c16.6 40.1 62.8 59.2 102.9 42.6l116.6-48.3.8 1.9-.8-1.9c19.4-8 34.6-23.2 42.6-42.6s8-40.8 0-60.3l-15.9-38.4c-22.7-54.6-75.6-87.5-131.3-87.5z" fill="#000000" opacity="1" data-original="#000000"></path><ellipse cx="184.3" cy="259.7" fill="#f1bdd7" rx="19.4" ry="15.7" transform="rotate(-22.48 184.317 259.431)" opacity="1" data-original="#f1bdd7"></ellipse><ellipse cx="393.9" cy="172.8" fill="#f1bdd7" rx="19.4" ry="15.7" transform="rotate(-22.48 393.694 172.49)" opacity="1" data-original="#f1bdd7"></ellipse><path d="M185.5 241.7c-2 0-3.9-1.2-4.7-3.2-2.7-6.5-2.7-13.7 0-20.3 2.7-6.5 7.8-11.6 14.3-14.3s13.7-2.7 20.3 0c6.5 2.7 11.6 7.8 14.3 14.3 1.1 2.6-.2 5.6-2.8 6.7s-5.6-.2-6.7-2.8c-1.7-4-4.8-7.1-8.8-8.8s-8.4-1.7-12.4 0-7.1 4.8-8.8 8.8-1.7 8.4 0 12.4c1.1 2.6-.2 5.6-2.8 6.7-.6.4-1.3.5-1.9.5zM337.3 178.9c-2 0-3.9-1.2-4.7-3.2-2.7-6.5-2.7-13.7 0-20.3 2.7-6.5 7.8-11.6 14.3-14.3s13.7-2.7 20.3 0c6.5 2.7 11.6 7.8 14.3 14.3 1.1 2.6-.2 5.6-2.8 6.7s-5.6-.2-6.7-2.8c-1.7-4-4.8-7.1-8.8-8.8s-8.4-1.7-12.4 0-7.1 4.8-8.8 8.8-1.7 8.4 0 12.4c1.1 2.6-.2 5.6-2.8 6.7-.6.3-1.2.5-1.9.5z" fill="#000000" opacity="1" data-original="#000000"></path><path fill="#231f20" d="M312.7 239.4c-6.6 2.7-14.1-.4-16.9-7 2.7 6.6-.4 14.2-7 16.9-2.4 1-4.9 1.2-7.3.8-.8 7.3.3 15.7 3.7 23.9 7.9 19.1 25 30.2 38.1 24.8s17.3-25.3 9.4-44.5c-3.4-8.2-8.5-15-14.3-19.6-1.4 2.1-3.3 3.7-5.7 4.7z" opacity="1" data-original="#231f20"></path><path d="M316.2 302.4c-4.9 0-10.1-1.7-15.1-4.9-7.6-4.9-13.9-12.9-17.9-22.6-3.5-8.3-4.8-17-3.9-25 .1-.6.4-1.1.9-1.5s1.1-.5 1.7-.4c2.1.4 4.2.2 6.1-.6 5.5-2.3 8.1-8.6 5.8-14.1-.1-.3-.2-.5-.2-.8 0-.8.5-1.7 1.3-2 1.1-.5 2.4.1 2.8 1.2 1.1 2.7 3.2 4.7 5.8 5.8 2.7 1.1 5.6 1.1 8.2 0 1.9-.8 3.6-2.1 4.8-3.9.3-.5.9-.8 1.5-.9s1.2.1 1.7.4c6.3 5 11.5 12.1 14.9 20.4 4 9.7 5.2 19.8 3.3 28.6-1.9 9.1-6.8 15.7-13.9 18.6-2.4 1.2-5 1.7-7.8 1.7zm-32.7-49.9c-.4 6.6.9 13.9 3.8 20.7 3.7 8.9 9.5 16.2 16.3 20.6 6.6 4.3 13.3 5.4 19 3 5.7-2.3 9.7-7.9 11.3-15.5 1.7-8 .6-17.2-3.1-26.1-2.8-6.8-7-12.9-12-17.3-1.5 1.5-3.2 2.8-5.2 3.6-5.1 2.1-10.6 1.2-14.7-1.8-.8 5.1-4.1 9.6-9.1 11.7-2.1.7-4.2 1.1-6.3 1.1z" fill="#000000" opacity="1" data-original="#000000"></path><path fill="#231f20" d="M294.6 229.5s0 .1 0 0c.4.9.8 1.9 1.2 2.9-.4-1-.8-1.9-1.2-2.9z" opacity="1" data-original="#231f20"></path><path d="M295.8 234.6c-.8 0-1.7-.5-2-1.3-.4-1-.8-2-1.2-2.9-.2-.5-.2-1.1 0-1.7.2-.5.6-.9 1-1.1h.4c1.1-.3 2.2.2 2.7 1.2.4.9.8 1.9 1.2 2.9.1.3.2.5.2.8 0 .8-.5 1.7-1.3 2-.4.1-.7.1-1 .1z" fill="#000000" opacity="1" data-original="#000000"></path><path d="M283.9 252.4c-1.9 0-3.9-.4-5.7-1.1-3.7-1.5-6.6-4.4-8.1-8.1-.4-1 .1-2.2 1.1-2.7 1-.4 2.2.1 2.7 1.1 1.1 2.7 3.2 4.8 5.9 5.9s5.6 1.1 8.3 0 4.8-3.2 5.9-5.9 1.1-5.6 0-8.3c-1.1-2.6-2.1-5-3-6.9-2.3-5.2-2.4-5.5-2-6.6.2-.5.6-.9 1.1-1.1 1-.4 2.2.1 2.7 1.1.1.2.1.5.2.7.2.7 1 2.5 1.8 4.3.8 1.9 1.9 4.4 3 7 1.5 3.7 1.5 7.8 0 11.5s-4.4 6.6-8.1 8.1c-1.9.6-3.9 1-5.8 1zm8.2-30.2c-.1.1-.3.2-.4.3.1-.2.3-.2.4-.3z" fill="#000000" opacity="1" data-original="#000000"></path><path d="M307.8 242.5c-1.9 0-3.9-.4-5.7-1.1-3.7-1.5-6.6-4.4-8.1-8.1-1.1-2.6-2.1-5.1-2.8-7.1-.7-1.8-1.4-3.6-1.7-4.3-.2-.2-.3-.4-.4-.6-.4-1 .1-2.2 1.1-2.7.5-.2 1.1-.2 1.6 0 1 .4 1.1.7 3.2 6 .8 2 1.7 4.4 2.8 7 1.1 2.7 3.2 4.8 5.9 5.9s5.6 1.1 8.3 0 4.8-3.2 5.9-5.9 1.1-5.6 0-8.3c-.4-1 .1-2.2 1.1-2.7 1-.4 2.2.1 2.7 1.1 1.5 3.7 1.5 7.8 0 11.5s-4.4 6.6-8.1 8.1c-2 .8-3.9 1.2-5.8 1.2zm-16.1-20.1c-.2.1-.3.1-.5.1.1 0 .3 0 .5-.1z" fill="#000000" opacity="1" data-original="#000000"></path><path fill="url(#a)" d="M332.4 279.8c2.6 6.2-1.7 14-9.7 17.3s-16.5 1-19.2-5.2c-2.6-6.2 4.8-8.8 13.4-8.6 4.7-6.1 12.9-9.7 15.5-3.5z" opacity="1" data-original="url(#a)"></path><path d="M327.7 276.6c2 0 3.7 1 4.7 3.2 2.6 6.2-1.7 14-9.7 17.3-2.5 1-5 1.5-7.4 1.5-5.3 0-10-2.4-11.8-6.7-2.5-6 4.3-8.6 12.5-8.6h.9c3-3.8 7.3-6.7 10.8-6.7zm0-4.1c-4.1 0-9 2.6-12.7 6.7-4.6.1-11.6 1.1-14.7 5.7-1.6 2.5-1.8 5.5-.5 8.6 2.4 5.7 8.3 9.2 15.5 9.2 3 0 6.1-.6 9-1.9 4.7-2 8.5-5.3 10.8-9.3 2.4-4.3 2.8-9.2 1.1-13.3-1.6-3.6-4.7-5.7-8.5-5.7z" fill="#000000" opacity="1" data-original="#000000"></path><path fill="#a8a095" d="m417.5 293.4.2-44.9c0-10.1-8.1-18.4-18.2-18.4s-18.4 8.1-18.4 18.2l-.2 44.9z" opacity="1" data-original="#a8a095"></path><path d="M417.5 295.4c-1.1 0-2-.9-2-2.1l.2-44.9c0-4.3-1.7-8.4-4.7-11.5-3.1-3.1-7.1-4.8-11.5-4.8h-.1c-4.3 0-8.4 1.7-11.5 4.7-3.1 3.1-4.8 7.1-4.8 11.5l-.2 44.9c0 1.1-.9 2-2 2s-2-.9-2-2.1l.2-44.9c.1-11.2 9.2-20.3 20.4-20.3h.1c5.4 0 10.5 2.2 14.4 6 3.8 3.9 5.9 9 5.9 14.4l-.2 44.9c-.1 1.3-1 2.2-2.2 2.2z" fill="#000000" opacity="1" data-original="#000000"></path><path fill="#a8a095" d="m382.9 257.5-2-2c-1.2 1.2-2.9 2-4.7 2-3.6 0-6.5-3-6.5-6.6 0-2.3 1.2-4.3 2.9-5.4-3.2-6.8-1.6-19.2 4.1-24.8 7.2-7.1 24.7-9.1 36.6.5 0 0 4.8 5.1 4.8 11.3 0 4.2-.2 5.7-.2 11.8z" opacity="1" data-original="#a8a095"></path><path d="M382.9 259.5c-.5 0-1.1-.2-1.5-.6l-.7-.7c-1.4.9-3 1.3-4.6 1.3-2.3 0-4.4-.9-6.1-2.5-1.6-1.6-2.5-3.8-2.5-6.1s.9-4.4 2.5-6c-2.9-8-.6-20 5.1-25.7 8.1-8 27-9.6 39.3.3l.2.2c.2.2 5.3 5.7 5.3 12.7 0 2 0 3.3-.1 4.8-.1 1.7-.1 3.7-.1 7 0 1.1-.9 2-2 2s-2-.9-2-2c0-3.4.1-5.4.1-7.2 0-1.5.1-2.8.1-4.7 0-4.9-3.6-9.1-4.1-9.8-11.6-9.3-27.7-6.5-33.7-.5-4.8 4.8-6.7 16.2-3.7 22.5.4.9.1 2-.7 2.6-1.3.8-2 2.2-2 3.7 0 2.5 2 4.5 4.5 4.5 1.2 0 2.4-.5 3.3-1.4.4-.4.9-.6 1.5-.6.5 0 1.1.2 1.5.6l2 2c.8.8.8 2.1 0 2.9-.6.5-1.1.7-1.6.7z" fill="#000000" opacity="1" data-original="#000000"></path><path fill="#a8a095" d="M403.3 231c2.8 2.3 3.1 6.5 2.3 9-.7 2-4.3 6.4-6.2 7.3-3.9 2-10.4 2.5-15.5 2.3-3.2-.2-9.3-3.1-11.5-5.4z" opacity="1" data-original="#a8a095"></path><path d="M386.4 251.6c-.9 0-1.8 0-2.6-.1-3.9-.2-10.4-3.5-12.9-5.9-.8-.8-.8-2.1 0-2.9s2.1-.8 2.9 0c2 1.9 7.7 4.6 10.2 4.8 4.3.2 10.7-.2 14.5-2 1.4-.7 4.6-4.5 5.2-6.1.6-1.8.5-5.1-1.6-6.8-.9-.7-1-2-.3-2.9s2-1 2.9-.3c3.5 2.8 4.1 7.8 2.9 11.3-.8 2.4-4.7 7.2-7.2 8.5-3.9 1.8-9.4 2.4-14 2.4z" fill="#000000" opacity="1" data-original="#000000"></path><circle cx="277.9" cy="346" r="12.3" fill="#a8a095" opacity="1" data-original="#a8a095"></circle><path d="M277.9 360.3c-.5 0-1.1 0-1.6-.1-7.9-.9-13.6-8-12.7-15.8.9-7.9 8-13.6 15.8-12.7 7.9.9 13.6 8 12.7 15.8-.8 7.4-7 12.8-14.2 12.8zm0-24.6c-2.3 0-4.6.8-6.4 2.3-2.1 1.7-3.5 4.2-3.8 6.9s.5 5.4 2.2 7.5 4.2 3.5 6.9 3.8 5.4-.5 7.5-2.2 3.5-4.2 3.8-6.9-.5-5.4-2.2-7.5-4.2-3.5-6.9-3.8c-.4-.1-.7-.1-1.1-.1z" fill="#000000" opacity="1" data-original="#000000"></path><path fill="#a8a095" d="M282.4 360.7c-5.2-11-12.3-24.4-12.3-24.4-2.7-4.2-9.6-7-13.3-7-4.4-.1-16 3.5-19.8 10.6-2.7 5.2-3.1 11.2-2.2 17 1.2 8.1 4.6 14.2 9.7 20.6s11.7 7.8 17 7.9c6.3.2 17.3-4.1 19.9-11.8 1.3-3.6 2.6-9.4 1-12.9z" opacity="1" data-original="#a8a095"></path><path d="M261.9 387.6h-.5c-8-.3-14.1-3.1-18.6-8.7-6.1-7.6-9-13.9-10.1-21.6-1-7.1-.2-13.2 2.5-18.3 4.2-7.9 16.3-11.8 21.7-11.7 4.1.1 11.8 3.2 14.9 8l.1.1c.1.1 7.2 13.5 12.3 24.4 2.1 4.4.4 11-.9 14.5-2.8 8.4-14.2 13.3-21.4 13.3zm-5.2-56.2c-3.8 0-14.5 3.3-17.8 9.5-2.2 4.3-2.9 9.6-2 15.8 1 6.9 3.7 12.6 9.3 19.6 3.7 4.7 8.6 6.9 15.5 7.2 5.7.2 15.7-3.9 17.9-10.4 1.3-3.8 2.3-8.8 1-11.4-4.9-10.4-11.6-23.1-12.2-24.2-2.3-3.4-8.4-6-11.5-6l-.2-.1z" fill="#000000" opacity="1" data-original="#000000"></path><path fill="#a8a095" d="m264.5 345 6.1-2.5z" opacity="1" data-original="#a8a095"></path><path d="M264.5 347c-.8 0-1.6-.5-1.9-1.3-.4-1 .1-2.2 1.1-2.7l6.1-2.5c1-.4 2.2.1 2.7 1.1.4 1-.1 2.2-1.1 2.7l-6.1 2.5c-.3.2-.5.2-.8.2z" fill="#000000" opacity="1" data-original="#000000"></path><path fill="#a8a095" d="m273 362.1 6.4-3.2z" opacity="1" data-original="#a8a095"></path><path d="M273 364.2c-.8 0-1.5-.4-1.8-1.1-.5-1-.1-2.2.9-2.7l6.4-3.2c1-.5 2.2-.1 2.7.9s.1 2.2-.9 2.7l-6.4 3.2c-.3.1-.6.2-.9.2z" fill="#000000" opacity="1" data-original="#000000"></path><ellipse cx="288.9" cy="215.7" rx="38.5" ry="46.5" transform="rotate(-22.48 288.785 215.412)" fill="#000000" opacity="1" data-original="#000000"></ellipse></g></svg>