<svg xmlns="http://www.w3.org/2000/svg" version="1.1" xmlns:xlink="http://www.w3.org/1999/xlink" width="512" height="512" x="0" y="0" viewBox="0 0 512 512" style="enable-background:new 0 0 512 512" xml:space="preserve" class=""><g><switch><g><path fill="#ffb0c3" fill-rule="evenodd" d="M143.626 285.439s-16.826 6.612-21.339 39.372-8.647 147.112-8.647 147.112h253.472s-2.885-115.856 10.04-129.38l5.405 49.289c2.074 11.258 8.569 27.495 31.676 27.154s27.572-12.043 27.384-24.511c-.211-13.967-1.138-33.208-3.946-56.193-3.475-28.449-21.567-60.246-33.585-63.064-24.047-5.633-260.46 10.221-260.46 10.221z" clip-rule="evenodd" opacity="1" data-original="#ffb0c3" class=""></path><path fill="#ff295c" fill-rule="evenodd" d="M386.128 128.451s10.838-11.714 16.115-11.115 3.122 8.948 3.122 8.948 8.14-12.827 15.81-13.55c7.67-.724 1.906 12.873 1.906 12.873s8.812-12.027 18.592-10.401c9.778 1.625-4.99 14.47-4.99 14.47s15.415-5.783 19.767 2.095c4.352 7.877-13.141 12.726-13.141 12.726s15.994 2.096 14.245 11.652c-1.748 9.556-20.682 5.44-25.808 2.285 6.383 5.194 10.859 12.352 3.566 17.292-7.291 4.94-23.293-13.422-23.293-13.422s6.97 9.555-1.371 13.773-17.636-14.725-17.636-14.725 3.65 5.662 1.556 6.819c-2.095 1.157-5.736-3.078-6.38-6.367-.646-3.288 1.484-19.692 1.484-19.692z" clip-rule="evenodd" opacity="1" data-original="#ff295c"></path><path fill="#ffb0c3" fill-rule="evenodd" d="M385.417 128.193c35.038-7.836 59.921-4.033 59.47 16.358-.332 15.017-22.076 22.898-56.732 17.31z" clip-rule="evenodd" opacity="1" data-original="#ffb0c3" class=""></path><path fill="#260053" fill-rule="evenodd" d="M382.259 167.374v-.002s-.168-2.018.414-3.79c.387-1.177 1.089-2.225 2.135-2.863 1.026-.624 2.444-.945 4.421-.304 17.695 5.741 40.266 2.027 50.409-6.757 2.995-2.594 4.857-5.627 4.844-9.04-.015-3.554-2.018-7.383-6.345-11.472a2.165 2.165 0 0 1 2.973-3.147c5.448 5.148 7.682 10.127 7.701 14.601.018 4.614-2.291 8.824-6.339 12.331-10.99 9.517-35.406 13.822-54.579 7.602-.371-.12-.635-.226-.833-.116-.141.079-.192.241-.246.394-.075.214-.12.441-.158.656-.143.803-.083 1.531-.083 1.531a2.165 2.165 0 0 1-4.314.376zM456.569 148.987c3.482 3.876 3.354 8.342.052 11.325-3.016 2.725-9.006 4.232-17.792 2.358a1.103 1.103 0 1 1 .46-2.157c15.068 3.214 21.093-3.981 15.639-10.05a1.103 1.103 0 1 1 1.641-1.476z" clip-rule="evenodd" opacity="1" data-original="#260053" class=""></path><path fill="#260053" fill-rule="evenodd" d="M440.993 169.025c.904 3.384-.673 6.596-4.105 7.875-1.897.706-4.408.808-7.405-.115-4.194-1.293-9.433-4.632-15.271-11.179a1.103 1.103 0 1 1 1.647-1.469c5.472 6.138 10.341 9.327 14.273 10.538 2.422.747 4.452.728 5.985.156 2.285-.851 3.345-2.984 2.743-5.237a1.105 1.105 0 0 1 2.133-.569zM416.1 173.369c-.817 2.905-3.176 4.573-6.411 4.389-4.201-.238-10.174-3.908-15.661-12.892a1.106 1.106 0 0 1 .367-1.517c.52-.316 1.2-.153 1.517.367 4.939 8.088 10.121 11.623 13.902 11.838 2.085.119 3.636-.91 4.161-2.782a1.104 1.104 0 0 1 2.125.597z" clip-rule="evenodd" opacity="1" data-original="#260053" class=""></path><path fill="#e0325c" fill-rule="evenodd" d="M384.712 234.67c.23 2.549.021 5.4-2.04 5.463-3.745.111-6.872-7.426-6.052-11.9.821-4.474 12.878-23.427 12.878-23.427l2.125-19.134s22.482-7.659 30.013-3.591c7.532 4.068-.2 13.04-.2 13.04s19.07-10.737 30.88-6.796c11.812 3.941-4.136 17.128-4.136 17.128s19.636-9.322 33.316-1.145c13.678 8.177-15.268 14.756-15.268 14.756s26.086 2.566 28.298 15.056c2.211 12.49-26.46 7.459-26.46 7.459s22.677 12.678 14.898 23.4c-7.78 10.72-33.74-6.313-39.664-13.449 6.691 10.451 9.476 22.13-4.057 23.643-13.533 1.512-27.41-31.295-27.41-31.295s5.202 16.217-9.503 16.175c-11.312-.032-16.039-17.382-17.618-25.383z" clip-rule="evenodd" opacity="1" data-original="#e0325c"></path><path fill="#ff92ac" fill-rule="evenodd" d="M390.7 184.903c56.412 12.4 91.402 32.795 79.683 57.74-8.628 18.37-45.27 14.409-93.841-14.358z" clip-rule="evenodd" opacity="1" data-original="#ff92ac"></path><path fill="#260053" fill-rule="evenodd" d="M368.617 231.216s-.066-.969.22-1.945c.154-.524.398-1.075.904-1.377.433-.258 1.034-.302 1.848-.103 1.092.267 2.469.945 4.23 2.187 23.478 16.53 55.461 27.247 75.77 24.843 7.018-.83 12.67-3.226 16.23-7.377 3.579-4.175 5.097-10.15 3.64-18.236a1.104 1.104 0 0 0-2.172.39c1.309 7.266.073 12.659-3.144 16.41-3.239 3.775-8.426 5.865-14.812 6.62-19.907 2.357-51.226-8.25-74.24-24.456-2.064-1.454-3.698-2.213-4.977-2.526-1.553-.379-2.68-.14-3.502.35-1.004.597-1.59 1.618-1.894 2.655-.399 1.365-.303 2.718-.303 2.718a1.104 1.104 0 0 0 2.202-.153zM482.99 260.331c-.228 4.252-2.883 6.57-6.806 7.155-6.498.97-16.169-2.494-24.897-9.616a1.103 1.103 0 1 0-1.395 1.711c9.31 7.595 19.687 11.121 26.618 10.088 5.032-.75 8.392-3.766 8.684-9.22a1.104 1.104 0 0 0-2.205-.118zM446.538 270.208c-1.492 2.673-3.318 4.313-5.361 5.064-2.024.744-4.24.605-6.487-.177-7.259-2.524-14.758-11.561-17.927-21.494a1.104 1.104 0 0 0-2.104.67c3.394 10.634 11.538 20.207 19.306 22.91 2.762.96 5.485 1.076 7.972.163 2.467-.906 4.726-2.832 6.53-6.06a1.105 1.105 0 0 0-1.929-1.076zM405.408 260.46c-9.99-1.372-16.738-9.581-19.1-19.254a1.104 1.104 0 1 0-2.145.524c2.577 10.557 10.04 19.42 20.943 20.917a1.104 1.104 0 0 0 .302-2.187z" clip-rule="evenodd" opacity="1" data-original="#260053" class=""></path><path fill="#f67e9b" fill-rule="evenodd" d="M246.3 332.65s15.444 39.773 35.997 42.615c20.55 2.84 38.263-48.435 38.263-48.435z" clip-rule="evenodd" opacity="1" data-original="#f67e9b"></path><path fill="#ffb0c3" fill-rule="evenodd" d="M287.602 331.81c-49.152 6.495-177.982-5.635-191.6-108.011C78.53 92.458 198.377 28.913 289.95 45.819c91.573 16.905 106.131 79.364 106.601 98.148.469 18.784 2.817 32.872 15.028 40.386 12.21 7.514 36.273 22.975 4.696 82.182-22.542 42.265-80.023 58.845-128.673 65.275z" clip-rule="evenodd" opacity="1" data-original="#ffb0c3" class=""></path><path fill="#ff295c" fill-rule="evenodd" d="M98.216 225.493s-20.466-6.771-26.313-2.616c-5.848 4.155 2.154 12.619 2.154 12.619s-18.004-9.848-27.545-5.693c-9.541 4.154 6.155 16.465 6.155 16.465s-18.275-8.464-28.776-.154c-10.5 8.309 15.352 13.849 15.352 13.849s-22.004 3.232-22.004 15.389c0 12.156 23.851 6.463 23.851 6.463s-17.543 12.925-9.232 23.082c8.309 10.156 28.006-7.079 32.006-14.157-4.154 10.31-4.77 21.697 7.079 22.774 11.849 1.078 18.773-31.084 18.773-31.084s-2 15.85 10.618 15.388c12.617-.461 11.233-28.929 11.233-28.929s-.616 9.078 2.615 9.078c3.232 0 4.77-7.386 3.385-11.695s-14.619-22.313-14.619-22.313z" clip-rule="evenodd" opacity="1" data-original="#ff295c"></path><path fill="#260053" fill-rule="evenodd" d="M110.861 132.428c43.233-85.607 141.345-97.664 193.354-82.768 33.133 9.488 66.19 33.671 81.124 64.102 7.616 15.519 7.942 30.239 9.649 42.829 1.825 13.46 5.194 24.584 19.041 32.109a2.09 2.09 0 0 0 1.996-3.672c-12.45-6.765-15.255-16.897-16.896-28.999-1.76-12.972-2.191-28.118-10.038-44.108-15.424-31.429-49.507-56.479-83.726-66.279-53.324-15.272-153.905-2.873-198.233 84.902a2.09 2.09 0 0 0 3.729 1.884z" clip-rule="evenodd" opacity="1" data-original="#260053" class=""></path><path fill="#ff295c" fill-rule="evenodd" d="M98.792 172.358s-10.837-11.714-16.114-11.115-3.122 8.948-3.122 8.948-8.141-12.827-15.811-13.55c-7.67-.724-1.905 12.873-1.905 12.873s-8.813-12.027-18.592-10.402c-9.779 1.626 4.99 14.47 4.99 14.47s-15.415-5.783-19.768 2.095c-4.352 7.877 13.142 12.727 13.142 12.727s-15.995 2.095-14.246 11.652c1.75 9.556 20.682 5.439 25.809 2.285-6.383 5.194-10.859 12.352-3.566 17.292 7.292 4.94 23.293-13.422 23.293-13.422s-6.97 9.555 1.372 13.773c8.34 4.218 17.635-14.725 17.635-14.725s-3.649 5.662-1.555 6.819 5.735-3.079 6.38-6.367-1.485-19.692-1.485-19.692zM113.67 137.849s-3.686-8.486-6.688-9.169c-3.002-.683-3.422 4.298-3.422 4.298s-1.998-8.578-6.056-10.442c-4.058-1.865-3.508 6.679-3.508 6.679s-2.518-8.27-8.18-9.253c-5.663-.983-.042 8.874-.042 8.874s-7.327-6.118-11.217-2.64c-3.89 3.476 4.753 9.48 4.753 9.48s-9.153-1.917-10.027 3.648c-.873 5.563 10.275 6.937 13.684 6.193-4.487 1.619-8.307 4.679-5.263 8.778 3.044 4.1 15.316-2.882 15.316-2.882s-5.644 3.893-1.887 7.798c3.756 3.906 12.47-4.68 12.47-4.68s-3.081 2.4-2.157 3.434 3.728-.586 4.71-2.262c.983-1.675 2.96-11.06 2.96-11.06z" clip-rule="evenodd" opacity="1" data-original="#ff295c"></path><path fill="#ffb0c3" fill-rule="evenodd" d="M98.889 224.723c-46.545 13.623-73.482 34.372-59.628 58.186 10.202 17.538 44.072 10.995 81.397-18.248zM99.504 172.1c-35.038-7.835-59.922-4.033-59.47 16.358.333 15.017 22.075 22.898 56.732 17.31zM114.11 137.844c-17.672-10.999-32.016-13.684-35.674-2.44-2.694 8.28 7.693 16.757 27.726 20.338z" clip-rule="evenodd" opacity="1" data-original="#ffb0c3" class=""></path><path fill="#260053" fill-rule="evenodd" d="M126.181 287.837s15.977 14.209 24.323 18.137a2.167 2.167 0 0 0 1.845-3.919c-8.004-3.766-23.284-17.449-23.284-17.449a2.166 2.166 0 0 0-2.884 3.231zM127.346 267.775c-.003-.04-.14-1.463-.738-2.884-.493-1.173-1.298-2.299-2.42-2.945-1.668-.963-4.472-1.228-8.492 2.575-16.99 16.07-41.788 27.129-58.928 25.461-5.305-.517-9.839-2.274-13.019-5.648-3.198-3.395-4.973-8.385-4.953-15.173a2.166 2.166 0 0 0-2.158-2.171 2.167 2.167 0 0 0-2.171 2.158c-.023 8.149 2.292 14.077 6.132 18.152 3.859 4.097 9.308 6.362 15.75 6.989 18.095 1.762 44.385-9.659 62.321-26.624 1.121-1.06 2.014-1.681 2.771-1.927.244-.079.435-.13.584-.045.31.179.456.548.593.873.339.808.419 1.617.419 1.617a2.164 2.164 0 0 0 4.309-.408zM28.484 299.76c.67 3.265 2.247 5.557 4.388 6.969 2.12 1.398 4.818 1.938 7.82 1.62 5.656-.596 12.459-4.272 18.193-10.665a1.103 1.103 0 1 0-1.643-1.473c-5.304 5.914-11.55 9.393-16.783 9.944-2.443.259-4.649-.13-6.374-1.268-1.703-1.122-2.909-2.974-3.441-5.569a1.103 1.103 0 0 0-2.16.442z" clip-rule="evenodd" opacity="1" data-original="#260053" class=""></path><path fill="#260053" fill-rule="evenodd" d="M61.62 309.1c2.554 3.849 5.427 5.683 8.269 6.071 2.878.393 5.788-.69 8.43-2.888 4.93-4.104 8.962-12.175 10.046-20.85a1.102 1.102 0 1 0-2.189-.273c-1.007 8.068-4.682 15.61-9.268 19.427-2.115 1.761-4.415 2.713-6.719 2.399-2.341-.32-4.627-1.937-6.729-5.106a1.104 1.104 0 0 0-1.84 1.22zM97.608 299.445c9.229-1.787 14.408-10.638 15.023-21.038a1.104 1.104 0 0 0-2.202-.131c-.552 9.318-4.973 17.401-13.241 19.002a1.103 1.103 0 0 0 .42 2.167zM104.099 210.064v-.002s.168-2.018-.415-3.79c-.387-1.177-1.089-2.225-2.135-2.863-1.026-.624-2.444-.945-4.421-.304-17.695 5.741-40.266 2.027-50.409-6.757-2.995-2.594-4.857-5.627-4.844-9.04.015-3.554 2.018-7.383 6.345-11.472a2.165 2.165 0 0 0-2.973-3.147c-5.448 5.148-7.682 10.127-7.701 14.601-.018 4.614 2.291 8.824 6.339 12.331 10.99 9.517 35.406 13.822 54.579 7.602.371-.12.635-.226.834-.116.141.079.192.241.246.394.075.214.12.441.158.656.143.803.084 1.531.084 1.531a2.165 2.165 0 0 0 4.313.376zM29.789 191.676c-3.482 3.876-3.354 8.342-.052 11.325 3.016 2.725 9.006 4.232 17.792 2.358a1.103 1.103 0 1 0-.46-2.157c-15.068 3.214-21.093-3.981-15.639-10.05a1.104 1.104 0 1 0-1.641-1.476z" clip-rule="evenodd" opacity="1" data-original="#260053" class=""></path><path fill="#260053" fill-rule="evenodd" d="M45.365 211.714c-.904 3.384.673 6.596 4.105 7.875 1.897.706 4.408.808 7.405-.115 4.194-1.293 9.433-4.632 15.271-11.179a1.105 1.105 0 0 0-.09-1.558 1.102 1.102 0 0 0-1.557.089c-5.472 6.138-10.341 9.327-14.273 10.538-2.423.747-4.452.728-5.985.156-2.286-.851-3.345-2.984-2.744-5.237a1.105 1.105 0 0 0-.781-1.351 1.105 1.105 0 0 0-1.351.782zM70.259 216.059c.817 2.905 3.176 4.573 6.411 4.389 4.201-.238 10.174-3.908 15.661-12.892a1.105 1.105 0 0 0-1.884-1.15c-4.939 8.088-10.121 11.623-13.902 11.838-2.085.119-3.636-.91-4.161-2.782a1.103 1.103 0 0 0-2.125.597zM109.482 156.785c-.004-.045-.487-5.044-5.572-5.265-2.03-.088-9.77-1.577-16.105-5.196-3.966-2.267-7.432-5.356-8.234-9.639a1.78 1.78 0 0 0-3.497.654c.99 5.289 5.068 9.273 9.965 12.072 6.962 3.978 15.484 5.565 17.715 5.662 1.994.087 2.185 2.045 2.185 2.045a1.779 1.779 0 0 0 3.543-.333zM74.308 122.608c-1.679 1.51-2.351 3.078-2.227 4.63.168 2.129 1.998 4.41 5.546 6.62a1.104 1.104 0 0 0 1.167-1.873c-1.464-.911-2.606-1.809-3.393-2.703-.661-.752-1.062-1.481-1.121-2.218-.076-.965.46-1.878 1.503-2.815.454-.408.49-1.105.084-1.559a1.106 1.106 0 0 0-1.559-.082z" clip-rule="evenodd" opacity="1" data-original="#260053" class=""></path><path fill="#260053" fill-rule="evenodd" d="M67.768 137.242c-.002 1.688.791 3.142 2.442 4.321 2.075 1.483 5.668 2.542 10.734 3.106a1.104 1.104 0 0 0 .243-2.193c-3.841-.427-6.765-1.118-8.725-2.124-1.589-.816-2.49-1.802-2.487-3.108a1.104 1.104 0 0 0-2.207-.002zM75.901 147.419c-1.045 2.192-.545 4.332 1.257 5.666.968.718 2.362 1.202 4.171 1.244 2.429.056 5.683-.693 9.66-2.755a1.103 1.103 0 1 0-1.017-1.958c-4.832 2.505-8.41 2.95-10.574 2.178-.829-.295-1.408-.771-1.667-1.39-.253-.604-.183-1.315.161-2.036a1.103 1.103 0 1 0-1.991-.949zM88.741 156.116c.321.957 1.049 1.78 2.072 2.304 2.052 1.054 5.422.924 8.395-2.026a1.104 1.104 0 0 0-1.553-1.566c-1.81 1.794-3.784 2.255-5.236 1.859-.768-.21-1.378-.654-1.586-1.273a1.103 1.103 0 0 0-2.092.702z" clip-rule="evenodd" opacity="1" data-original="#260053" class=""></path><circle cx="-899.492" cy="224.728" r="1.953" fill="#260053" fill-rule="evenodd" clip-rule="evenodd" transform="translate(1540.21 -62.337) scale(1.233)" opacity="1" data-original="#260053" class=""></circle><path fill="#260053" fill-rule="evenodd" d="M316.284 329.5c33.247-3.266 108.162-31.654 116.991-104.269a2.165 2.165 0 1 0-4.299-.522c-8.523 70.106-81.016 97.328-113.115 100.48a2.166 2.166 0 0 0 .423 4.311z" clip-rule="evenodd" opacity="1" data-original="#260053" class=""></path><path fill="#fefffe" fill-rule="evenodd" d="M154.056 215.19c23.122-34.505 54.434-46.543 101.637-47.494 21.339-.43 26.354 25.198 12.113 30.159-34.544 12.032-62.268 28.021-84.777 47.019-23.1 9.662-36.595-13.622-28.973-29.684z" clip-rule="evenodd" opacity="1" data-original="#fefffe" class=""></path><path fill="#260053" fill-rule="evenodd" d="m152.318 214.027-.145.267c-5.839 12.298-.279 28.435 12.202 33.404 5.315 2.118 11.912 2.255 19.456-.899l.546-.331c22.331-18.85 49.832-34.704 84.108-46.643 5.014-1.746 8.012-5.665 9.048-10.297 2.307-10.245-5.26-24.255-21.885-23.92-48.004.967-79.807 13.323-103.33 48.419zm3.555 2.193c22.721-33.812 53.532-45.503 99.865-46.438 11.399-.23 17.651 7.801 18.018 15.292.234 4.685-1.883 9.151-6.641 10.809-34.689 12.083-62.535 28.13-85.189 47.186-6.196 2.522-11.622 2.498-16.013.75-10.285-4.098-14.765-17.418-10.04-27.592z" clip-rule="evenodd" opacity="1" data-original="#260053" class=""></path><path fill="#fefffe" fill-rule="evenodd" d="M351.479 166.904c-8.413 1.991-25.005 14.347-10.92 23.51 22.297 1.515 46.879 9.566 73.611 23.747 9.16-3.206 10.241-11.36-.234-26.596-15.867-19.954-49.954-23.622-62.457-20.661z" clip-rule="evenodd" opacity="1" data-original="#fefffe" class=""></path><path fill="#260053" fill-rule="evenodd" d="M351 164.873c-4.558 1.079-11.344 4.964-15.077 9.826-2.072 2.706-3.209 5.711-2.853 8.701.346 2.962 2.14 6.027 6.341 8.764l1.003.333c22.041 1.499 46.344 9.488 72.776 23.509l1.671.126c3.265-1.142 5.616-2.87 7.043-5.138 1.359-2.16 1.905-4.838 1.437-8.116-.613-4.283-3.042-9.744-7.689-16.496l-.089-.117c-8.212-10.331-21.116-16.499-33.608-19.648-12.468-3.142-24.503-3.273-30.955-1.744zm.959 4.062c6.051-1.431 17.305-1.21 28.983 1.731 11.6 2.926 23.646 8.549 31.301 18.131 2.997 4.365 5.014 8.108 6.118 11.306 1.137 3.284 1.304 5.899.401 7.935-.769 1.729-2.307 2.953-4.446 3.835-26.487-13.947-50.891-21.893-73.066-23.503-2.541-1.755-3.811-3.571-4.034-5.46-.234-1.966.657-3.891 2.028-5.67 3.143-4.105 8.87-7.393 12.715-8.305zM206.507 301.492c-30.231 10.739-41.085-24.401-18.988-37.029 86.738-49.571 154.176-59.709 216.634-13.103 17.049 12.724-5.148 33.071-14.909 27.651-49.331-27.399-106.473-15.521-182.737 22.481z" clip-rule="evenodd" opacity="1" data-original="#260053" class=""></path><path fill="#fffc99" fill-rule="evenodd" d="M262.601 274.808s13.829 1.803 18.642 19.836c4.803 18.033 3.599 82.049 50.189 77.842 46.578-4.208 44.785-66.12 37.864-85.957-6.909-19.836-18.33-42.677-57.398-27.65.001-.001-44.483-11.422-49.297 15.929z" clip-rule="evenodd" opacity="1" data-original="#fffc99" class=""></path><path fill="#260053" d="M327.016 374.78c-36.111 0-41.971-41.311-45.531-66.392-.766-5.42-1.433-10.098-2.259-13.207-4.372-16.359-16.396-18.23-16.908-18.303l-2.141-.302.363-2.132c1.134-6.427 4.377-11.407 9.642-14.801 13.833-8.917 37.263-3.964 41.581-2.948 15.148-5.721 27.249-6.304 36.982-1.796 12.345 5.726 18.314 18.854 22.523 30.941 4.635 13.284 7.415 47.214-6.735 69.174-7.533 11.681-18.604 18.26-32.913 19.552a51.246 51.246 0 0 1-4.604.214zm-61.935-101.53c4.422 1.338 14.196 5.926 18.182 20.854.893 3.352 1.574 8.146 2.363 13.697 3.492 24.641 9.32 65.868 45.622 62.602 12.958-1.17 22.976-7.109 29.77-17.654 13.375-20.747 10.704-52.919 6.304-65.534-4.118-11.826-9.434-23.468-20.332-28.523-8.785-4.071-20.01-3.372-34.342 2.138l-.621.238-.644-.166c-.263-.066-25.53-6.399-38.941 2.259-3.769 2.429-6.187 5.742-7.361 10.089z" opacity="1" data-original="#260053" class=""></path><path fill="#260053" d="M341.951 335.956a2.091 2.091 0 0 1-2.013-2.651c5.247-18.813 2.345-41.542-7.216-56.557-5.61-8.81-13.139-14.225-21.77-15.661a2.085 2.085 0 0 1-1.714-2.404c.19-1.143 1.293-1.887 2.404-1.719 9.833 1.637 18.341 7.701 24.605 17.538 10.159 15.956 13.262 40.036 7.719 59.922a2.094 2.094 0 0 1-2.015 1.532z" opacity="1" data-original="#260053" class=""></path><path fill="#ffb0c3" fill-rule="evenodd" d="M136.595 391.18s.903-93.47 1.805-113.907c.903-20.438 6.608-35.765 16.525-38.471 9.917-2.704 13.528 6.612 8.424 15.628 0 0 12.915-2.404 15.924 11.121 0 0 16.536 9.919 11.121 23.142-5.404 13.225-13.829 18.033-13.829 18.033l3.009 83.552" clip-rule="evenodd" opacity="1" data-original="#ffb0c3" class=""></path><path fill="#260053" d="M136.597 393.268h-.018a2.091 2.091 0 0 1-2.073-2.109c.009-.934.916-93.74 1.81-113.979 1.007-22.811 7.588-37.535 18.06-40.395 4.73-1.293 8.835-.245 11.248 2.86 2.422 3.116 2.762 7.785 1.066 12.515 5.229.286 12.028 3.018 14.414 12.069 6.304 4.082 15.86 13.944 11.225 25.255-4.513 11.044-11.048 16.511-13.629 18.339l2.962 82.381a2.086 2.086 0 0 1-2.009 2.163c-1.37-.032-2.123-.866-2.163-2.014l-3.052-84.805 1.089-.633c.077-.048 7.905-4.701 12.94-17.015 4.662-11.391-10.114-20.471-10.264-20.559l-.766-.463-.2-.875c-2.476-11.146-12.382-9.722-13.506-9.52l-4.372.78 2.177-3.864c2.39-4.225 2.708-8.722.789-11.189-1.733-2.229-4.681-1.989-6.848-1.395-8.345 2.279-14.087 16.284-14.985 36.549-.889 20.167-1.791 112.9-1.801 113.834a2.098 2.098 0 0 1-2.094 2.07z" opacity="1" data-original="#260053" class=""></path><path fill="#ffb0c3" fill-rule="evenodd" d="M441.806 392.389s-1.159-122.329-2.061-142.767c-.903-20.438-6.608-35.765-16.525-38.471-9.917-2.704-13.528 6.612-8.424 15.628 0 0-12.915-2.404-15.924 11.121 0 0-16.536 9.919-11.121 23.142 5.405 13.225 13.829 18.033 13.829 18.033l-2.752 112.412" clip-rule="evenodd" opacity="1" data-original="#ffb0c3" class=""></path><path fill="#260053" d="M441.807 394.477a2.093 2.093 0 0 1-2.091-2.068c-.009-1.225-1.17-122.526-2.059-142.693-.898-20.266-6.64-34.272-14.99-36.549-2.168-.592-5.112-.835-6.844 1.392-1.923 2.467-1.601 6.964.789 11.191l2.186 3.864-4.381-.78c-1.12-.197-11.03-1.626-13.506 9.52l-.195.873-.771.465c-.15.088-14.926 9.168-10.264 20.559 5.034 12.314 12.862 16.967 12.939 17.015l1.07.621-.022 1.24-2.753 112.412c-.032 1.154-1.093 1.948-2.141 2.036a2.09 2.09 0 0 1-2.041-2.141l2.726-111.251c-2.572-1.821-9.121-7.288-13.643-18.35-4.635-11.311 4.921-21.171 11.225-25.253 2.381-9.053 9.184-11.785 14.413-12.071-1.696-4.73-1.356-9.402 1.066-12.515 2.417-3.109 6.522-4.15 11.243-2.86 10.472 2.857 17.058 17.579 18.065 40.395.893 20.239 2.054 141.616 2.068 142.838a2.091 2.091 0 0 1-2.089 2.11zM358.483 393.053a2.086 2.086 0 0 1-2.064-2.437c4.563-26.936 13.565-48.032 27.521-64.494a2.086 2.086 0 0 1 2.943-.243c.88.746.989 2.066.24 2.946-13.452 15.872-22.151 36.313-26.587 62.489a2.086 2.086 0 0 1-2.053 1.739zM117.63 397.597h-.005a2.09 2.09 0 0 1-2.086-2.091c.077-61.704 5.538-95.611 17.185-106.702a2.083 2.083 0 0 1 2.957.073 2.09 2.09 0 0 1-.073 2.953c-10.617 10.112-15.815 44.025-15.888 103.682a2.09 2.09 0 0 1-2.09 2.085zM262.246 335.217c-17.493 0-37.843-2.628-61.509-7.912a2.09 2.09 0 0 1-1.587-2.494 2.106 2.106 0 0 1 2.494-1.583c35.793 7.989 63.777 9.833 85.556 5.622 1.129-.202 2.227.524 2.445 1.655a2.088 2.088 0 0 1-1.655 2.449c-7.802 1.506-16.365 2.263-25.744 2.263zM149.706 418.566c-8.544 0-17.828-2.336-26.52-7.102a2.001 2.001 0 0 1 1.924-3.508c17.861 9.794 38.237 8.661 47.395-2.636 4.609-5.687 5.337-12.927 5.136-17.999a1.999 1.999 0 0 1 1.919-2.077c1.084-.032 2.034.815 2.077 1.919.229 5.759-.63 14.021-6.024 20.677-5.749 7.09-15.252 10.726-25.907 10.726z" opacity="1" data-original="#260053" class=""></path></g></switch></g></svg>