<svg xmlns="http://www.w3.org/2000/svg" version="1.1" xmlns:xlink="http://www.w3.org/1999/xlink" width="512" height="512" x="0" y="0" viewBox="0 0 512 512" style="enable-background:new 0 0 512 512" xml:space="preserve" class=""><g><path fill="#c4544e" d="M444.6 371c0-.4-.1-.7-.1-1.1-2-23.8-6.6-47.5-13.9-70.2-3.6-11.1-7.5-22.1-12.7-32.5-5.3-10.7-11.3-20.9-17.3-31.2-5.8-9.9-11.6-19.7-16.9-29.9-4.2-8.1-8.4-16.3-13.3-24-8.8-13.9-20-29.5-35.9-35.7-5.7-5.6-12-10.5-19.2-14.2-19.4-9.8-42.4-13.4-64-13.1-16.1.3-32.4 3-48 7.1-7.4 2-15 4.3-21.7 8-4.6 2.5-9.3 5.7-10.6 10.9-12.5-1.3-25.3 2.5-36.9 6.9-10.9 4.1-22 8.5-32.1 14.4-17.7 10.4-33.8 25.8-44.4 43.4-11.9 19.6-13.3 42.2-16.1 64.3-3.2 25.7-6.9 51.3-9 77.2-.5 6.6-1 13.1-1.5 19.7z" opacity="1" data-original="#c4544e"></path><g fill="#b23e3b"><path d="M397.3 354.1c-.6.9-1.9 1.1-2.7.2-2.4-2.9-1.8-6.6-1.6-10.1.2-5 .8-10.1 1-15.1.2-4.9 0-9.7-.1-14.6-.1-4.3-.4-9.3 1.2-13.4.7-1.8 3.1-1.6 3.6.2 1.1 3.8.8 8.1.8 12.1.1 4.8.4 9.6.3 14.5-.1 4.5-.6 9.1-.9 13.6-.1 4 .9 9.3-1.6 12.6zM231.6 282.6c.7-6-2.1-10.7-2.9-16.3-.2-1.7 1.7-3.6 3.3-2.3 5 4.1 6.2 11.5 6.2 17.7 0 7.2-3 15.2-7.5 20.7-2.7 3.4-7.7.1-5.6-3.7 3-5.2 5.8-10 6.5-16.1zM280.6 218.2c14.4 1.8 22.9 14.3 27.3 27 2.4 6.9 3.7 14.2 4.7 21.4 1 7 2.1 14.2 1.7 21.2-.1 2.3-3.4 2.5-4 .3-1.6-6-1.8-12.4-2.5-18.6-.8-6.7-2-13.3-3.8-19.7-3.8-13.4-11.2-23.3-24-29-1.3-.5-1.1-2.8.6-2.6zM316.7 244.4c-.2-.3-.3-.6-.5-.9-.6-1.3 1-2.4 2-1.4.2.2.4.4.6.7.6 0 1.2.2 1.7.8 10.4 14.7 21.1 35 18.2 53.6-.1.9-.9 1.5-1.7 1.6-1.2 1-3.6.7-3.9-1.2-.7-4.4-.8-8.9-1.4-13.3-.7-4.7-1.8-9.4-3.1-14-1-3.4-2.3-6.6-3.8-9.7-2.7-4.8-5.6-9.4-8.1-14.3-.2-.7-.2-1.3 0-1.9zM343.5 259.1c4 5.5 6.7 12.6 8.8 19.1 1.2 3.6 1.8 7.3 2.1 11.1.3 3.3 1 7-1.3 9.7-.5.6-1.7.5-2.1-.1-1.8-2.4-1.2-5-1.3-7.9-.1-3.6-.8-7.2-1.7-10.7-1.8-6.8-5.9-12.8-7.4-19.6-.5-1.6 1.9-3 2.9-1.6zM111.2 300.6l.3.9c.3 6.8-1.3 13.4-2.3 20.2-.5 3.8-.8 7.6-.5 11.5.2 2.8 1.4 5.8-.4 8.2-.4.6-1.2.9-1.9.7-2.1-.8-3.3-2.7-3.9-5.2-1.1.1-2.2-.3-2.9-1.7-2.2-4.5-1.4-10.2-.8-14.9.8-6 2.5-11.9 4.6-17.7 1.9-5.3 4.1-10.6 6.8-15.6 2.1-3.9 4.1-10 8.1-12.4.5-.3 1.4 0 1.5.7.4 3.9-2.2 8.4-3.7 11.9-1.8 4.4-3.4 8.9-4.9 13.4zM37 371c.7-11 1.8-22 3-33 1-8.8 1.9-17.5 2.6-26.4.6-8 2-17.1.1-24.9-.4-1.6-2.8-1.9-3.4-.2-1.3 4.3-1.4 8.8-1.9 13.2-.5 4.8-1 9.6-1.6 14.4-1.2 9.3-2.3 18.5-3.5 27.8-1.2 9.6-2.3 19.3-3 28.9H37zM101.9 221.9c-4.4 8.9-7.1 17.9-9.8 27.4-1.4 4.8-3.7 9.3-5.4 14s-2.7 9.6-3.3 14.6c-.6 4.9-.4 10 .1 14.9.4 4.6 2.3 9.2 2.1 13.8-.1 1.8-2.3 1.9-3.1.7-2.6-3.8-3.1-9-3.8-13.4-.7-4.5-.9-8.9-.7-13.4.4-8.9 2.8-18.3 7-26.3 4.7-8.8 6.5-18.7 10.7-27.7 4-8.5 8.4-16.2 10.7-25.4.2-.8.8-1 1.4-.9.6 0 1.2.3 1.3 1 .4 3-1 6.4-1.9 9.1-1.5 4-3.5 7.8-5.3 11.6zM73.6 275.6c-.8 3.1-1.3 6.2-1.6 9.4-.2 2.4.5 5-.5 7.2-.4.9-1.6 1.3-2.3.5-3-3.6-1-10.5-.1-14.6 1.4-6.5 3.9-12.5 6.5-18.5.6-1.4 2.7-.8 2.3.8-1.5 5.1-3 10.1-4.3 15.2zM328.7 215.9c-1.9-2.6-3.1-5.8-5.1-8.4-2.3-3.1-5-5.9-7.8-8.6-2.9-2.8-6.1-5.5-9.2-8.1-1.7-1.5-4.4-3.1-4.4-5.5 0-.4.3-.8.7-.8 2.7-.3 5 2.6 6.9 4.2 3.2 2.8 6.4 5.6 9.5 8.6 4.2 4.1 11.9 11.3 11.3 17.9 0 .9-1.3 1.5-1.9.7zM327 202.1c-4.9-5.6-12-8.8-16.7-14.5-.4-.5.2-1 .7-.8 6.4 3.3 12.7 8.6 17.3 14.2.5.9-.7 1.9-1.3 1.1zM225.8 198.7c3.1 10.1 7.7 19.4 9.8 29.7 1.1 5.4 1.7 11 2.3 16.5.6 5.1 2.1 10.3 1.7 15.4-.1 1-1.3 1.2-1.8.4-2.4-4.1-2.7-8.9-3.3-13.5-.7-5.5-1.3-11-2.2-16.5-1.8-10.9-6.7-20.8-8.7-31.5-.3-1.4 1.8-1.9 2.2-.5zM237.4 217c-.2-1 1.3-1.6 1.7-.6 2.6 6.6 6.1 14.7 4 21.9-.3 1.1-1.9.9-2.1-.1-.7-3.3-.7-6.6-1.2-9.9-.6-3.8-1.5-7.6-2.4-11.3zM358 207.3c-2.2-1.9-3.6-4.9-5.3-7.3-2.1-2.8-4.6-5-7.3-7.2-.6-.5-.2-1.4.6-1.2 3.3.9 5.7 3.8 7.7 6.3s4.6 5.6 5.3 8.8c.1.7-.6 1-1 .6z" fill="#b23e3b" opacity="1" data-original="#b23e3b"></path></g><g fill="#e08c6e"><path d="M367.4 218c11.1 7.6 17.6 23 21.3 35.6 4.1 14.2 5.1 29 7.4 43.5.6 4.1-5.6 5.5-6.3 1.4-2.1-13.9-3.2-27.9-6.2-41.6-1.4-6.6-3.4-12.9-6.3-19-3.2-6.6-7.9-12.3-11.1-18.8-.4-.8.5-1.6 1.2-1.1zM339.3 258.9c.5.6.9 1.2 1.2 1.9.5-.1 1 .1 1.1.8.5 2.1 1 4.3 1.5 6.5 1 3.1 2 6.2 2.9 9.4 1.9 7 2.7 14.2.7 21.2-.7 2.7-5 1.3-4.2-1.4.5-1.7.8-3.5 1-5.2-.1-3.4-.5-6.7-1-10-.3-2.1-.6-4.2-1-6.3-.7-2.5-1.4-5.1-2.2-7.6-.9-2.8-2.1-5.7-1.8-8.6.1-.9 1.2-1.4 1.8-.7zM315.1 243.3c.1-1.3 2.2-1.6 2.4-.2.7 7.7.5 15.4.1 23.1-.4 7.8.1 16.1-1 23.8-.3 2.2-4 3-4.3.4-.8-7.5.7-15.4 1.2-22.9.6-8 1.1-16.1 1.6-24.2zM229.7 298.8c2.9-1.8 6.7-2.3 9.9-3.3 3.3-1.1 6.6-2.1 9.8-3.6 6.5-3 11.9-7.7 16-13.6 5.4-7.8 8.2-17.6 9.9-26.7 1.9-10.1 2.5-20.9 3-31.1.1-1.2 1.9-1.4 2.1-.2.7 5.1 1.4 10.2 1.8 15.4.5 5.8-.3 11.9-1.2 17.7-1.5 10-4.7 20.1-10.2 28.6-4.3 6.6-10.6 11.7-17.6 15.3-6.4 3.3-16 7.1-23.2 5.5-2-.5-1.7-3.2-.3-4zM209.3 291.4c2.7-2.3 5.1-5 7.3-7.7s4.2-5.6 6.1-8.5c1.4-2.2 2.7-5.3 4.7-7 .5-.5 1.4-.2 1.6.5.5 2.5-1.1 5.3-2.1 7.4-1.7 3.6-4.1 6.9-6.5 10s-5 6.1-7.9 8.7c-1.9 1.8-4.4 3.9-7.2 3.2-.7-.2-1.2-1.1-.9-1.8.9-2.1 3.1-3.2 4.9-4.8zM158.8 329.6c3.3-3.6 5.9-7.8 8.5-11.9 5.3-8.4 9.2-17.6 12.2-27.1s5-19.4 6.5-29.3c1.4-9.2 1.4-19 3.9-28 .4-1.3 2.4-1.2 2.7.1 1.7 9.5 0 19.8-1.2 29.3-1.3 10.1-3.4 20-6.3 29.7-2.9 9.6-7 18.8-12.3 27.4-2.6 4.2-5.7 8-9 11.7-3.4 3.8-7.2 8.5-12.1 10.6-1.6.7-3.4-1-2.3-2.5 2.5-3.8 6.4-6.6 9.4-10zM132.7 371c3.5-10.9 8.4-21.1 12.8-31.7 2.3-5.6 4.6-11.3 6.8-17 2.2-5.6 5.1-11.1 6.5-16.9.3-1.2-1.3-2.6-2.3-1.5-4.4 4.9-7.3 11.4-10.1 17.3-3 6.2-5.6 12.6-8.4 18.9-4.5 10.3-9.5 20.3-12.9 31h7.6zM42 262c1.5-7.4 3.5-14.7 5.8-21.8.5-1.6 1-3.2 1.6-4.8-.2-1-.2-2 .1-3.3.5-2.4 2.4-4.9 3.8-6.8l.2-.2c.7-1.6 1.6-3.2 2.4-4.7 3.7-6.5 8.2-12.5 12.8-18.4 2.9-3.7 5.7-7.6 8.7-11.4.8-1.3 1.6-2.5 2.5-3.7.4-.5.8-.8 1.3-1.1 4.5-5.4 9.3-10.5 14.8-14.8s11.4-8.2 17.5-11.7c5.6-3.3 12.4-7 19-7.9 1-.1 1.5 1.1.6 1.7-5.3 3.3-10.9 6.1-16.2 9.7-5.8 3.9-11.5 8.1-17 12.4-4.8 6-12.8 14.5-6.4 21.3 4.8 5 14.8 5.2 21.2 5.8 11.9 1.2 23.6 2.5 35.6 2.3 6.7-.2 13.4-.6 20-1.3 5.5-.6 11.6-2.2 17.2-1.5.5.1.8.8.2 1.1-.3.1-.5.2-.8.3-2.5 4.4-7.7 7.1-12.2 9.1-5.6 2.5-11.7 4.3-17.7 5.7-13.2 3.1-27 4.5-40.5 4.9-6.6.2-12.8-1-19.2-2.4-6.6-1.5-13.7-3.6-20.6-2.3-5.6 1.1-10.7 3.8-15.3 7.1-.8.6-1.6 1.3-2.4 2-2.5 4.6-4.7 9.4-6.5 14.5-2.4 6.7-4.3 13.5-5.8 20.3-1.5 6.7-2.5 13.4-3.8 20.1-.3 1.8-2.8 1-2.9-.5-.2-6.3.7-13.5 2-19.7z" fill="#e08c6e" opacity="1" data-original="#e08c6e"></path><path d="M175.2 146.4c4.8-5.1 12-7.3 18.3-9.8 6.8-2.7 13.8-5.2 21-7 7.1-1.8 14.4-3.3 21.7-3.5 7.1-.2 14 .7 21 1.8 13.2 2.1 26.2 5.2 38.6 9.7 1.8 1.3 3.3 2.9 4.6 4.6.1.1.2.3.3.4.2 1.1.2 2.3.2 3.4-.4 7.2-3.4 14.2-7.9 19.8-6.1 7.5-15.1 12.9-23.8 17-5.2 2.4-10.3 4.8-15.8 6.5-2.6.8-5.3 1.6-8 2.1-1.9.4-4 .6-5.7 1.6-1.2.7-1.2 2.5.2 3 .6.2 1.3.3 1.9.4 10.1 2 20.5.2 30.3-2.6 5.3-1.5 10.4-3.2 15.6-5 4.9-1.7 9.9-3 14.6-5.2 2.7-1.2 5.3-2.7 8-4.3.9 0 1.8-.2 2.4-.7.7-.5 1.3-1.1 1.9-1.7 2.7-1.5 5.5-2.8 8.4-3.7.3 0 .5-.1.8-.1.4-.1.8-.3 1.2-.4 2.2-.6 4.5-.9 6.8-.9 5.4.1 10.5 1.5 15.5 3.4l5.1 2.1c.3.4.7.8 1 1.2 7.3 8.5 15.4 16.1 21.7 25.4 6.5 9.7 11.3 20.1 16 30.7 5 11.3 10.6 22.2 16.3 33.2 5.8 11.2 11.2 22.4 14.5 34.7 1.5 5.7 2.9 11.6 5.3 17.1 1.2 2.7 2.5 5.4 3.8 8.2 3.5 14.2 6.4 28.7 7.9 43.4h7c-.2-4.9-.6-9.9-1-14.8-.7-7.5-2.3-14.7-4.9-21.7-2.8-7.5-6.7-14.7-8.8-22.5-2.2-8.2-3.7-16.4-6.8-24.3s-6.9-15.6-10.8-23.2c-3.8-7.5-7.9-14.8-11.4-22.5s-6.7-15.5-10.3-23.1c-4.7-10-10.4-19.5-17.4-28-3.5-4.3-7.2-8.4-10.9-12.5.4-.9.2-2-.7-2.5-1.1-.6-2.1-1.2-3.3-1.8-1.4-1.6-2.9-3.1-4.3-4.7.6-4.6-4.3-10.1-6.9-13.4-3.9-4.7-8.1-9.1-12.9-13-4.6-3.7-9.8-7-15-9.8-5.6-3-11.3-5.4-17.8-4.8-3.1-1.6-6.3-3.2-9.6-4.7-8.8-4-17.3-6.6-26.9-7.8-5.4-.6-16.1-2.6-19.5 3.2-3.9-.4-7.9-.5-11.8-.2-11.7.7-23 3.6-34 7.6-5.8 2.1-11.4 4.7-17 7.2-4.8 2.2-9.3 4.4-12.8 8.4-2.1 2.6 1.6 6.8 4.1 4.1z" fill="#e08c6e" opacity="1" data-original="#e08c6e"></path></g><g fill="#fff6f1"><path d="M404.9 371c-2.6-4.9-5.8-9.4-10.3-12.4 0-.5-.1-1.1-.1-1.7 0-2.7.1-5.4.3-8.1.2-4 .2-7.7-1.1-11.3.6-2.4 1-4.8 1-7.1.1-5-.6-9.8-1.8-14.7-.8-3.3-1.1-8-2.9-11.1.3-.2.5-.3.8-.5 1.1-.8.3-2.8-1-2.7-7.2.4-14.8-.5-21.9-1.6-6.7-1-13.5-2.3-20.3-1.2-.5.1-.9.3-1.3.5-2.7-.4-5.4-.3-8.2-.4-1.4 0-3.4-.3-5.2-.1-1.3-10.6-2-22.1-6.2-31.9-.3-3.9-.7-9.5-4.1-11.8-.6-.4-1.5-.1-1.7.6-1 3.6.1 8 0 11.7-.2 5-.7 10.1-2 15-1.6 6.2-3.8 13.1-8.5 17.7 0-2.1-.1-4.3-.1-6.2 0-4-.2-8-.5-12-.6-7.9-1.8-15.7-4.1-23.3-2.1-7-4.8-13.4-8.8-19.5-2.8-4.4-6.1-10.7-10.8-13.3-.8-.4-2.1 0-2.1 1.1 0 .5.1 1 .2 1.5-.2.2-.3.6-.2 1 1.9 11 5.2 22.4.3 33.1-2.1 4.6-4.8 9-6.7 13.7-1.7 4.3-3.5 8.6-5.9 12.6l-.9 1.5c-7.3 4.3-14.8 7.9-23.3 9.7-5.4 1.1-10.8 1.9-16.3 2-2.3.1-4.9-.2-7.4-.2 1.5-2.2 2.5-4.7 3.1-7.3 1.1-4.6 2.5-9.9 2.5-14.6 0-1-1.1-2-2.2-1.4-.4.2-.7.5-1.1.8-.2.1-.4.2-.5.3s-.2.3-.4.5c-1.3 1.3-2.1 3-2.7 4.8-.1.1-.1.2-.2.4-1.2 1.9-2.7 3.5-4.3 5.1-3.6 3.4-7.8 6.1-12.2 8.3-4.3 2.2-8.8 4-13.4 5.5-3.2 1-7.8 1.2-10.7 3-1.5.9-2.2 3.2-1.6 4.8-3.7 4.8-6.7 10.1-11 14.5-4.5 4.5-9.3 8.5-14.2 12.6-10 8.2-17.9 17.6-19.9 30.8-.1.5-.1 1.1-.2 1.6h270.1zM54.8 371h57.5c-1-6-1.7-11.8-2-17.9-.3-5.6-.7-11.1-1.8-16.5-.3-1.2-1.3-1.8-2.3-1.9-4.7-5.7-14.4-11-18.2-12-9.4-2.4-19.3-1.8-27 4.8-6.5 5.6-9.6 13.6-9.3 22.1 0 7.1 1.4 14.4 3.1 21.4z" fill="#fff6f1" opacity="1" data-original="#fff6f1"></path></g><g fill="#fdb8a9"><path d="M309.4 296.9c-.5-1.8-1.1-3.6-1.7-5.4.3 3.3.2 6.5-.9 9.2-.6 1.4-2.6 1.4-3-.2-.6-2.5-.3-5-.3-7.6 0-3.7-.2-7.4-.8-11.1-.5-3-1.2-5.9-2-8.8-1.3-3-2.5-5.9-3.8-8.9-1.3-3.1-2.5-6.3-3.7-9.5.6 13 .1 27.8-9.6 37-4.3 4.1-10.2 6.4-15.9 8-5.1 1.4-12.2 3-17.2 1-.6-.2-.6-1.1.1-1.2 4.9-1.5 10.5-1 15.6-2.1 5.7-1.2 11.3-3.6 15.8-7.4 5.5-4.7 7.5-12.7 8.7-19.5 1-5.9 1.5-12.3 1.5-18.4-.6-1.5-1.1-3-1.7-4.5-1-2.6-2-5.1-3.2-7.6-1.2-2.7-3.1-5.2-3.5-8.1-.3-2.2 2.1-4.4 4.2-2.9 1.5 1.1 2.7 2.5 3.7 4.2 5.7 5.4 8.6 13.3 11 20.6 1.5 4.7 2.8 9.5 4.2 14.3 1.1 3.9 3.5 8.5 3 12.6 0 .4-.2.7-.4 1 1.3 5 1.6 10 1.9 15.2-.1 1.1-1.7 1.1-2 .1zM351.6 306.9c-5.2 2.4-13.1.2-18.2-.5-1.5-.2-2.4-1.3-2.8-2.5-.3.1-.6 0-1-.1-.9-.3-1.3-1.1-1.4-2-.2-2.9 0-5.9.7-8.8 0 0 0-.1.1-.1-.4-2.3-.9-4.6-1.5-6.9-1.3-4.4-3.1-8.6-5-12.7-.9-2-10.3-18.7-3.7-18.3 3.5.2 4.4 4.4 5.6 7.1 1.8 4 3.7 7.9 5.3 11.9 2.9 7.1 6.5 16.7 3.4 24.3-.2.5-.6.8-1.1 1 0 .4.1.8.1 1.2.2-.1.5-.2.7-.2 4.4-.9 8.9-1 13.4-1.4.7-.1 1.3.1 1.8.3.1 0 .1-.1.2-.1.5-.6 1.2-1 2.1-.8 4.4.6 8.6 1.1 13 1.3 4 .2 8.3.2 11.8 2.2 5.2-.2 10.6-.4 15.1 1.7 1.2.6 1.9 2.7.3 3.3-6.6 2.5-14.8 1.9-21.8 2-4.6 0-11.8.1-17.1-1.9zM77 371h19.3c-.6-4.3-2.7-8.6-5.2-12-1.8-2.5-5.9-6.3-9.9-7.1-.1-.1-.1-.3-.2-.4.8-1 .6-2.6-1-3.3-3.3-1.5-7.3-.6-8.8 3.1-1.4 3.6-.5 7.6.9 11.1 1.3 2.9 2.9 5.9 4.9 8.6zM109 371c-.3-1-.6-1.9-.9-2.9.3-8.5 2.1-17.7-.1-25.8-.3-1.2-2-1.3-2.4-.1-1.8 4.6-2.3 9.7-2.9 14.6-.6 4.7-1.1 9.5-1.2 14.3h7.5zM142.6 371c3.1-4.9 7-9.1 11.3-13.1 15-13.8 26.4-30.3 35.6-48.5 11.4-.7 22.9-5 30.7-13.3 0 1.8.3 3.5.8 5.1.6 1.7 3 2.6 4.2.8 2.6-4.2 2-9.7 2.3-14.5.3-3.8 2.3-9.1-.2-12.3-.7-.8-1.8-.9-2.8-.5-4.1 1.8-3.6 8.7-3.8 12.5-.1 1.7-.3 3.5-.4 5.4-9.8 10.3-24.5 14.5-38.6 13.6-2-.1-2.2 3-.2 3.1 2.2.2 4.4.2 6.6.2-6 9-11.3 18.5-17.8 27.1-3.5 4.7-7.3 9.2-11.5 13.2-3.5 3.4-7.3 6.4-10.7 9.9-3.4 3.4-6.6 7.1-9.1 11.2h3.6z" fill="#fdb8a9" opacity="1" data-original="#fdb8a9"></path></g><path fill="#fff6f1" d="M117.5 391c2.9 1.9 5.8 3.9 8.9 5.4 7.6 3.5 13.5 1.1 17.3-5 5.2 2.5 11 6 16.4 3.5 5-2.3 9.3-9.4 6.9-14.7 4.5 3.4 11.9 5 17 3.9 3.3-.8 6.8-3.5 7-7.1.2-3.8-2.7-6.7-5.1-9.2-4.4-4.6-8.9-11.8-15.5-13.2-5.5-1.2-8.7 3.3-10.7 8-4.5-3-8.9-6.2-14.1-7.8-5.9-1.7-9.6 1.2-11.4 5.6-1.5-1.2-3-2.5-4.7-3.5-3.7-2.2-8.1-2-12-.6-5.9 2.1-8.5 6-8.8 11.1-3.8-3.6-8.4-6.4-12.7-8-.8-.3-1.6-.1-2.1.3-4.5-.5-8.8 1.1-10.3 6.8-2.4 8.8 2.9 19.4 8.2 26 6.4 7.9 21 12.5 25.4.1.1-.5.2-1.1.3-1.6zM382.5 374.2c2.2 7.5 11.2 11.4 18.3 10.4 3.6-.5 7.1-3.4 8.7-6.6.5-.9.9-2.2 1-3.4 1.1.8 2.6.8 3.9.2v.1c1.4 2.3 1.7 5.4 2.2 8 1 5.4 2.2 10.8 6.7 14.5 7.3 5.9 18.4 1.2 21.7-6.8 2.5 1.6 5.6 2.6 8.2 3.5 4.3 1.4 8.9 1.2 12.7-1.1 6.6-4 8.6-14.9 6.2-22.4 2.9.4 5.8.8 8.7 1.1 4.3.4 11.1-.1 11.9-5.6 1.9-13.7-21.9-17.3-24.9-6.3-4-3.5-11.5-4.8-15.6-4.5-4.3.4-11.3 3.4-12.8 8.1-2.5-3.5-7.6-6.2-11.9-6.6-2-.2-3.8 0-5.6.9-.6.3-1 .7-1.3 1.1-3.6.4-6.8 2.1-9.1 5.3-4.2-5.8-8.6-12.2-15.9-12.8-5-.5-9.8 2.2-12.2 6.5-1.9 3.3-1.5 7.2-.5 10.8-1 1.4-.9 4.1-.4 5.6z" opacity="1" data-original="#fff6f1"></path><g fill="#fdb8a9"><path d="M112 389.9c-6.3-1.5-11.2-6.3-15-11.3-3.5-4.6-7.7-11.4-3.8-16.9 1.4-2-1.3-4.5-3.3-3.3-1.7 1.1-2.9 2.4-3.7 4-1.2-.1-2 .3-3.3.6-1.7.4-2.4 1.9-2.6 3.5-1.6 12.3 22.9 49.1 33.8 28.9 1.1-2.2.2-4.9-2.1-5.5zM120.2 382.2c-1.3.3-2.4 1.5-2.4 3.2 0 13.9 18 18.1 25.3 6.9.7-1 .6-2 .1-2.8 0-1.4-1.4-2.4-2.6-2.5-2.7-.1-4.1 1.8-6.8.4-3.2-1.7-5.5-5.3-7.5-8.2-3.9-6-7.6-13-10.1-19.7-.7-1.8-3.8-1.7-3.5.5.7 7.7 3.6 15.4 7.5 22.2zM149.1 387c-2 .4-3.7 2.7-2.7 5.1 1.8 4.3 6.5 6.3 11 5.4 4.8-1 8.3-4.3 10-8.8 1.1-2.8-2.5-5-4.8-3.7-6.4 3.7-13.2-4.4-15.8-9.5-1-1.9-4-.6-3.4 1.4 1.2 3.6 3.1 7.3 5.7 10.1zM164.6 370.4c2.3 1.7 4.3 3.8 6.3 5.9-.5.5-.7 1.3-.5 2 .5 3 3.8 4.2 6.4 5.3 3.1 1.3 5.9 1.1 9 .1 2.6-.9 3.1-5.2 0-5.8-7.6-1.5-12.4-7.5-19.3-10.5-2.2-1-3.7 1.6-1.9 3zM399.9 385.2c.9.2 1.9.2 2.8.2 1.6 0 2.6-.8 3.1-2 2.8-.7 5.2-2.3 5.3-5.2 0-1.2-1-1.9-2-2-1.4-.1-2.1.1-3.3 1-1.7 1.2-3.9 1.1-5.8.7-.7-.1-1.4-.4-2.1-.6-6.3-3.6-7.4-13.8-8.4-20.3-.3-1.8-3.1-2-3.8-.5-.5 1.1-.9 2.2-1.2 3.4-1.1-.6-2.7-.1-3.5 1-3.5 5 .8 12.9 4.1 17 3.7 4.2 9.3 6.6 14.8 7.3zM411.4 368.6c1 .3 1.8.7 2.5 1.2-.8.1-1.3.8-1.4 1.6-.5 3.6 3 8.1 4.6 11.2.9 1.7 1.9 3.4 3 5 .1.6.3 1.2.5 1.8 1.4 4.6 3.9 7.9 8.5 9.5 4.3 1.5 10.5-.3 13.6-3.6.2-.2.4-.5.5-.8.7-.4 1.3-.7 1.9-1.2 1.9-1.3.7-3.9-1.5-3.6-3.6.6-7.2 1.7-10.9.9-2.3-.5-4.2-2.2-5.7-4-.8-2.7-1-5.8-1.4-8.4-1.2-7.4-5.3-14.5-13.7-14.4-2.6.2-3 4-.5 4.8zM448.6 384.8c-.4.5-.7 1.2-.7 2-.4 4.5 3.3 7.9 7.6 8.4 3.9.5 8.3-1.4 11.7-3.1 2.2-1.1 1.5-4.5-.7-5.1-3.5-1-7-1.6-10.2-3.5-3.3-2-5.1-5.2-7.8-7.8-1.1-1.1-3.5-.4-3.3 1.4.4 2.7 1.6 5.4 3.4 7.7zM475 368.7c2.9 1.8 6.4 3.1 9.8 3.5 2.4.3 5.9 1.1 7.5-1.1.5-.7.2-1.6-.3-2.2-1.1-1.3-3.1-1.1-4.5-1.4-2.3-.4-4.8-1.5-6.9-2.3-3.5-1.3-8.6-4.1-6.3-8.4 1-1.9-1.5-4-3-2.3-5 5.2-1.7 10.9 3.7 14.2z" fill="#fdb8a9" opacity="1" data-original="#fdb8a9"></path></g><path fill="#851919" d="M364.7 215.9c22.8 20.8 31.6 55.1 31 84.9-.1 2.6 3.8 2.5 4 0 1.3-15.8-2.1-32.4-7.2-47.3-5.2-15-13.3-29.5-26-39.4-1.2-.9-3 .7-1.8 1.8z" opacity="1" data-original="#851919"></path><path fill="#851919" d="M399.5 300.8c-3.3-1.7-7.3-1.8-11-2.3-4.3-.6-8.5-1.2-12.8-1.7-8.7-1.1-18.8-2.8-27.4-1.1-2.1.4-1.3 3.2.5 3.5 4.2.5 8.7.2 12.9.4s8.3.6 12.5 1.1c4.4.5 8.9 1.2 13.3 1.8 3.8.5 7.9 1.6 11.7.8 1-.4 1.3-2 .3-2.5z" opacity="1" data-original="#851919"></path><path fill="#851919" d="M338.9 258c.9 6.4 3.7 12.8 5.1 19.2 1.6 7.2 1.9 14.6 1.1 21.9-.3 2.6 3.8 2.6 4.1 0 .7-7.2.3-14.4-1-21.5-1.2-6.8-3.5-15-7.8-20.5-.6-.9-1.6.1-1.5.9z" opacity="1" data-original="#851919"></path><path fill="#851919" d="M347.8 299.2c-1.9-1.8-4.2-1.9-6.7-2-2.1-.1-5.5-.8-7.1.8-.4.4-.6 1.2-.2 1.8 1.3 1.9 3.7 1.4 5.8 1.4 2.5 0 4.9.4 7.3.4 1.1 0 1.7-1.6.9-2.4z" opacity="1" data-original="#851919"></path><path fill="#851919" d="M318.4 246.7c3.4 8 6.8 16.2 9.3 24.5 2.6 8.9 3.7 18.1 4.1 27.3.1 2.6 4.2 2.6 4.1 0-.8-18.6-4.8-37.3-16.2-52.3-.5-.6-1.6-.3-1.3.5z" opacity="1" data-original="#851919"></path><path fill="#851919" d="M316.4 240.5c.7 9 1.7 18 1.1 27.1-.7 10.3-3.7 20.3-7.9 29.7-1.1 2.4 2.4 4.4 3.5 2.1 8-17.9 12.8-40.5 4.9-59.2-.4-.8-1.7-.4-1.6.3z" opacity="1" data-original="#851919"></path><path fill="#851919" d="M277.1 218.1c5.3 5 10.3 9.8 14.4 15.8 4.5 6.6 8 14 10.7 21.5 2.6 7.1 4.3 14.6 5.2 22.2.9 7.3-.1 14.1-.2 21.4 0 2.2 3.1 2.5 3.7.5 2.1-6.7 1.3-15 .5-21.9-.9-8.3-2.9-16.5-5.8-24.4-4.9-13.6-14-29.8-27.5-36.5-.8-.4-1.8.7-1 1.4z" opacity="1" data-original="#851919"></path><path fill="#851919" d="M279.2 219.1c.7 5.3 2.3 10.5 3.2 15.8 1 5.9 1.1 12 .4 17.9-1.1 10.8-5 21.7-11.9 30.1-11.2 13.8-29.4 17.7-46.4 16.4-2.6-.2-2.6 3.9 0 4.1 18.6 1.5 37.7-3.4 49.9-18.4 6.9-8.5 10.6-19.3 12.1-30.1 1.7-11.5 1-26.4-5.9-36.2-.4-.6-1.5-.5-1.4.4z" opacity="1" data-original="#851919"></path><path fill="#851919" d="M228 267.3c-1.1 4.9-.1 10.1 0 15.1.1 6.5-1.5 12.4-5.1 17.9-1.5 2.2 2 4.2 3.5 2.1 3.3-4.9 5-10.2 5.6-16.1.6-6 .4-13.1-1.4-18.9-.5-1.2-2.3-1.3-2.6-.1z" opacity="1" data-original="#851919"></path><path fill="#851919" d="M227.6 268.1c-5.8 7.9-7.4 17.2-15.7 23.3-8 5.9-18.3 8.2-27.4 11.7-2.4.9-1.4 4.8 1.1 3.9 10.1-3.8 20.7-6.4 29.5-12.9 7.7-5.7 12.7-15.9 14.9-25 .3-1.5-1.6-2.1-2.4-1z" opacity="1" data-original="#851919"></path><path fill="#851919" d="M192 231.3c-.8 8.2 0 16.5 0 24.7 0 12.3-1.5 24.1-5.6 35.7-4.3 12-10 23.5-18.8 32.9-8.3 8.8-17.7 16.4-25.1 26.1-1.6 2.1 2 4.1 3.5 2.1 7.6-10.2 17.9-17.9 26.3-27.3 8.4-9.3 13.7-21 17.9-32.7 7-19.4 7.4-41.7 3.7-61.8-.1-1.2-1.8-.7-1.9.3zM118.3 272.9c-3 7.2-4.3 14.9-5.6 22.5-1.3 8-2.3 16-3.1 24-1.6 16.9-1.9 34-.2 50.9.2 2.6 4.3 2.6 4.1 0-1.6-16.4-1.4-32.9.1-49.3.7-8.2 1.8-16.4 3.1-24.5 1.2-7.7 3-15.4 3.2-23.2-.1-.8-1.3-1.2-1.6-.4z" opacity="1" data-original="#851919"></path><path fill="#851919" d="M111.8 343.6c1.4-8.2-6.9-15.9-12.9-20-7.7-5.3-17.6-7.8-26.8-6.2-9.9 1.6-17 10.4-20.5 19.3-4.3 10.9-2.7 24.7 1.9 35.3 1 2.3 4.7.6 4-1.7-3-10.1-5.2-19.8-2.3-30.2 2.4-8.6 9.1-16.6 18.1-18.4 7.7-1.6 16.2 1.1 22.8 5 3.4 2 6.5 4.8 8.8 8 2.1 2.9 2.6 6.2 4 9.4.5 1.2 2.7.8 2.9-.5z" opacity="1" data-original="#851919"></path><path fill="#851919" d="M73.2 346.4c1.8 2.4 5.3 3.2 7.8 4.8 3.1 2 4.9 5.2 7.7 7.3 1.2 1 3.1-.6 2.6-2-1.1-3.1-4.2-5.8-6.8-7.8s-7-5.3-10.5-4.4c-.7.3-1.3 1.4-.8 2.1zM388.2 299.9c1 4 2.7 7.8 3.9 11.8 1.3 4.5 2 9.2 2.4 13.9.7 8.3.3 16.7-.1 25-.1 2.6 3.9 2.6 4.1 0 .4-8.8.8-17.6 0-26.4-.8-8.4-2.4-18.4-7.4-25.4-1.1-1.4-3.4-.6-2.9 1.1zM305 370.1h42.5c.1-1.3.2-2.6.2-4 0-14.2-7-28.8-23-28.6-16.6.1-20.3 16.2-19.8 30.4-.1.7 0 1.5.1 2.2zM169.5 141.2c-35.1 3.9-68.4 16.3-93.7 41.5-6.4 6.4-11.9 13.5-17.2 20.7-12.4 17-15.9 39.3-19.8 59.4-6.7 34.8-8.8 70-11.2 105.3-.2 2.6 3.9 2.6 4.1 0 1.9-27.7 4.4-55.5 8.4-82.9 3.4-23 6.9-47.7 16.8-68.9 4.4-9.4 11.3-17.9 18.2-25.5 9.3-10.2 20.2-18.8 32.2-25.7 18.9-10.8 40.6-17.1 62.2-19.8 2.6-.4 2.6-4.4 0-4.1z" opacity="1" data-original="#851919"></path><path fill="#851919" d="M171 144.7c10.5-10.4 25.7-15.8 39.7-19.3 17.5-4.4 35.9-5.6 53.9-4.5 17.7 1.1 35.6 4.8 51.5 12.8 15.2 7.6 27.3 20.4 38.3 33 22.5 26 40.5 56.1 55.1 87.1 15.6 33.1 27.7 68.9 32.8 105.3.4 2.6 4.3 1.5 3.9-1.1-6.4-45.7-22.8-89.5-44.7-130-10.2-18.8-21.8-36.8-35-53.6-10.7-13.8-22.7-27.3-36.8-37.7-23.9-17.7-57.2-21.7-86.1-20.5-25.9 1.1-56.4 6.7-75.6 25.7-1.8 1.7 1.1 4.6 3 2.8z" opacity="1" data-original="#851919"></path><path fill="#851919" d="M282.2 224.6c10.7 17.4 11.9 37.9.7 55.4-5.2 8.1-13.1 14.4-22 17.9-10 3.9-19.8 2.9-30.1 1.2-1.5-.3-2 1.7-.6 2.3 19.6 7.7 42-2.4 53.8-18.5 12.6-17.3 12.7-41.9.1-59.2-.9-1.1-2.6-.2-1.9.9zM193.3 286.8c-2 13.3-6.2 25.7-13 37.3-6.9 11.8-16.7 21.5-24 33-.5.8.6 1.5 1.2 1 10.1-8.8 18.4-21.1 25-32.6 6.8-11.9 10.6-24.9 11.6-38.5.1-.6-.8-.7-.8-.2zM343.3 150.5c4.5 6.1 10 11.3 15.4 16.6.4.4.9-.2.6-.6-4.8-5.8-10.7-10.4-14.8-16.7-.5-.8-1.7 0-1.2.7zM108.7 199.6c-7.1 16.6-13.7 33.5-19.2 50.7-5.4 17.2-10.2 36.9-7.8 55.1.2 1.2 1.8 1.2 1.9 0 .3-9.6.4-18.9 1.9-28.4 1.4-8.8 3.8-17.5 6.4-26.1 5.3-17.2 12.8-33.6 18.1-50.8.2-.7-1-1.3-1.3-.5zM77.9 265.1c-2.9 7.2-5.2 15.6-4.6 23.4.1.7 1.1.9 1.2.2 1.9-7.7 2.3-15.6 5-23.2.3-1-1.2-1.4-1.6-.4zM226.9 202.7c3.2 8.8 6.3 17.5 8.7 26.5 1.1 4.1 2 8.3 2.7 12.5.8 4.8.5 10.1 2 14.7.2.5 1 .6 1.2 0 .9-3.9.1-8.5-.5-12.4-.7-4.7-1.7-9.3-2.9-13.9-2.5-9.5-6.1-18.6-9.7-27.7-.4-.9-1.8-.5-1.5.3zM237.1 219c2.6 6 3.8 12.2 5.4 18.5.2 1 1.8.8 1.7-.2-.6-6.6-2.8-13.1-5.6-19.1-.5-1.1-1.9-.2-1.5.8zM294.9 183.8c6.3 5.2 12.5 10.5 18 16.5 5.9 6.6 9.6 13.9 13.6 21.7.5 1.1 2.1.3 1.8-.8-1.7-7.8-7.1-14.5-12.3-20.3-6.1-6.7-13.2-12.4-20.2-18-.7-.4-1.5.4-.9.9zM316.4 195.9c4 3.9 7.7 8.1 11 12.6.2.2.6 0 .4-.2-3.2-4.7-6.7-8.9-10.9-12.9-.3-.4-.9.2-.5.5zM376 226.6c12 11.3 20 25.1 25.5 40.5 2.2 6.2 4.2 12.5 5.6 19 1.4 6.4 1.2 12 .6 18.4 0 .5.7.9 1.1.4 3.4-4.2 2.1-11.1 1.3-16.1-1.2-7.3-3.5-14.5-6-21.5-5.7-16.1-13.9-30.7-27-41.8-.8-.5-1.8.5-1.1 1.1zM135.6 249.6c-9.2 14.9-12.9 32.9-14.9 50.1-1.1 9.4-1.6 18.8-1.9 28.2-.1 4.4-.2 8.9-.2 13.3 0 3.8-.9 8.9.4 12.5.4 1 1.7 1 2.1 0 1-3 .3-7 .3-10.2 0-4.4 0-8.8.1-13.1.2-9.4.7-18.7 1.6-28.1 1.7-17.8 4.8-36.2 13.4-52.2.3-.6-.6-1.1-.9-.5zM170.5 140.3c-21.7-8-45.9 0-64.7 11.5-10.4 6.4-20 14.3-28.2 23.3-3.9 4.3-7.3 9.1-10.5 13.9-2.9 4.3-5.9 9-7.4 14.1-.1.4.5.7.7.3 2.5-4.2 4.7-8.6 7.4-12.6 3.2-4.7 6.9-8.8 10.7-13 8.1-8.9 17.4-16.7 27.5-23.1 18.9-12.1 42-19.8 64.2-13.6.6.1.7-.6.3-.8z" opacity="1" data-original="#851919"></path><path fill="#851919" d="M323.5 131.5c-33.2-17.2-74.1-28.5-111.5-21-10.4 2.1-20.6 6-29.4 12.1-5 3.5-10.3 8.2-12.6 14-.8 1.9-1 3.8 0 5.7.6 1.2 2.5.1 1.8-1.1-1.7-3.3 4.2-9.4 6-11.2 6.6-6.7 15.3-11.1 24.1-14.1 34.5-11.8 73.5-2.3 106.3 10.3 5 1.9 10.1 3.8 15.1 5.8.3.2.5-.3.2-.5z" opacity="1" data-original="#851919"></path><g fill="#fff"><path d="M308.8 349.8c.3-.4.6-.7.9-1 .6-1.6 1.7-2.9 3.7-3.7 3.5-1.4 7.2 1.1 8.9 4.1 1.9 3.3 2.2 8.3 0 11.5-1.8 2.8-4.8 3.6-7.9 3.2-2.7-.4-5.5-2.3-6.8-4.7-1.8-3.2-.9-6.7 1.2-9.4zM325.3 364.4c1.9-.1 2 2.9.1 3s-2-2.9-.1-3z" fill="#ffffff" opacity="1" data-original="#ffffff"></path></g><path fill="#851919" d="M196.9 370.1h40.4c.7-3 1.1-6.2 1.1-9.6 0-14.2-7-28.8-23-28.6-16.6.1-20.3 16.2-19.8 30.4.2 2.6.6 5.3 1.3 7.8z" opacity="1" data-original="#851919"></path><g fill="#fff"><path d="M199.6 344.1c.3-.4.6-.7.9-1 .6-1.6 1.7-2.9 3.7-3.7 3.5-1.4 7.2 1.1 8.9 4.1 1.9 3.3 2.2 8.3 0 11.5-1.8 2.8-4.8 3.6-7.9 3.2-2.7-.4-5.4-2.3-6.8-4.7-1.8-3.2-.8-6.6 1.2-9.4zM216.2 358.8c1.9-.1 2 2.9.1 3-1.9 0-2-3-.1-3z" fill="#ffffff" opacity="1" data-original="#ffffff"></path></g><path fill="#851919" d="M192.2 371.6c15.1 1.2 30.4.5 45.5.6h118c7.9 0 15.8.4 23.6-.7 1.6-.2 1.6-2.4 0-2.6-7.3-1-14.6-.7-21.9-.7H239.4c-15.7 0-31.6-.6-47.2.6-1.7.3-1.7 2.7 0 2.8zM7 371.6c5.5 1.1 11.4.6 17 .6 6.7 0 13.3 0 20 .1h28.3c2.9 0 5.9.3 8.7-.7 1.2-.4 1.2-2 0-2.5-5-1.8-11.7-.7-17-.7H25.7c-6.1 0-12.6-.6-18.7.6-1.3.3-1.3 2.3 0 2.6z" opacity="1" data-original="#851919"></path><path fill="#851919" d="M404.6 357.5c2.3 4.9 4.7 10 4.8 15.4.1 5.7-4.8 10-10.1 10.5-9.4.9-16.2-7.8-16.6-16.5-.3-6.4 3.9-12.4 10-14 8.5-2.3 11.8 6.6 14.1 12.8.7 1.9 3.9 1.8 3.8-.5-.4-10-8.1-18.8-18.5-17-9.3 1.6-14.8 11.5-14.1 20.3 1.1 12 11.6 21.1 23.6 19.1 5.9-1 10.6-6.2 11.8-11.9 1.4-6.8-2.2-14.9-6.6-20-1.1-1.3-2.8.4-2.2 1.8z" opacity="1" data-original="#851919"></path><path fill="#851919" d="M412.3 366.7c1.4-8.9 13-10.2 19.9-7.2 9.2 4 12.8 14.5 12.6 23.8-.1 10.3-7.6 20-18.2 13.7-9.5-5.6-6.3-19-11.7-27.2-1.2-1.9-4.7-.7-3.9 1.6 4.3 12 3.8 26.9 18.1 31.7 12.6 4.2 19.7-9.5 20.2-19.8.6-12.2-5.8-24.5-17.6-28.6-8.5-3-23.1.8-22.3 11.7.2 1.5 2.7 2 2.9.3z" opacity="1" data-original="#851919"></path><path fill="#851919" d="M441.3 362.8c5.4-5.4 12.4-7.1 19.4-3.8 6.5 3.1 12 10.2 12.3 17.6.2 6.5-3.3 12.5-8.6 16.1-2.5 1.7-5.5 2.7-8.5 2.2-3.6-.5-5.2-3.4-7.6-5.7-1.3-1.3-3.8 0-3.1 1.8 2.9 7.9 12.1 9.5 19 6.5 7.6-3.3 12.7-11.9 13.5-20 .9-9.3-7-18.6-14.7-22.5-8.8-4.4-18.4-2-24 6-1 1.5 1.1 3 2.3 1.8z" opacity="1" data-original="#851919"></path><path fill="#851919" d="M468.8 361.1c2.7-9.1 14.3-5.2 19.2-.5 3.8 3.7 3.8 8.1-1.3 10.2-4.2 1.8-8-1.1-12-.4-1 .2-1.4 1.5-.9 2.3 3 5.1 12.9 3.6 17.2 1.3 5.9-3 5.9-10.3 2.2-15-4.1-5.1-9.7-8-16.2-8-6.1-.1-10.5 3.7-11.2 9.6-.3 1.9 2.5 2.1 3 .5zM82.4 377.8c-1.4-5.7.4-12.6 5.2-16.2 4.6-3.5 10.1-2 14.6.8 8.3 5.1 13.7 14.3 13.1 24-.3 4-1.7 8.6-5 11.1-4 3-8.4 1.3-12.1-1.2-7.7-5.4-12.5-14.1-15.9-22.6-1.1-2.7-5.3-1.7-4.5 1.2 3 11.1 11.9 23.3 22.6 27.9 11.9 5 19.6-8.2 19.9-18.2.5-12.7-9.6-24.8-21.2-28.9-13.4-4.7-25.6 11.2-19.1 23.2.7 1.3 2.8.3 2.4-1.1z" opacity="1" data-original="#851919"></path><path fill="#851919" d="M109.9 365.1c2.2-7.6 12.1-9.8 18.5-6.7s11.3 9.8 13.9 16.3c2.5 6.2 2.5 14.1-2.1 19.3-7 7.9-14 1.5-20.5-2.6-2.2-1.4-4.8 1.9-2.8 3.7 8 7.1 17 10.8 26.1 3.2 7.4-6.2 7-17.8 3.8-25.9-3.5-8.9-11.2-17.6-20.7-19.8-7.8-1.8-18.5 3.7-19.3 12.2-.5 1.8 2.5 2.1 3.1.3z" opacity="1" data-original="#851919"></path><path fill="#851919" d="M135.8 360.1c2.1-2.2 3.4-4.3 6.7-4.7 2.9-.3 5.8.9 8.4 2.2 5.6 2.9 10.6 7.5 14 12.8 3.6 5.6 3.7 14.6.5 20.3-3.9 7-13.5 5.3-18.6 1.3-1.5-1.1-3.3-.1-3 1.8 1.3 8.5 16.4 7.3 21.6 3.8 8-5.4 8.7-18.2 5.4-26.4-3.1-7.8-10.8-14.5-18.2-18.1-6.4-3.2-17.4-3.6-19.3 5.4-.4 1.6 1.4 2.9 2.5 1.6z" opacity="1" data-original="#851919"></path><path fill="#851919" d="M158.8 359.5c1.9-2 3-4.5 5.7-5.6 2.2-.9 4.7-.2 6.9.6 5.2 1.9 9.9 6.4 13.1 10.7 2.6 3.5 6.9 9.6 4.7 14.1-1.6 3.3-6.2 4.1-9.4 4-3.5-.1-6.3-2.4-9.6-2.8-1.4-.2-1.9 1.6-1.5 2.6 1.4 3.3 6.7 4.4 9.9 4.8 4.5.5 9.2-.3 12.6-3.5 6.3-5.9 2.4-13.9-1.5-20-4.2-6.5-10.6-12-17.9-14.4-6.6-2.2-14.8 1.1-15.4 8.6-.1 1.1 1.6 1.7 2.4.9zM149.3 324.8c-4.5 8.5-9.6 18.2-10 28-.1 2.2 3.1 2.1 3.3 0 1.2-9.7 5.7-18 8.1-27.4.2-.8-1-1.4-1.4-.6zM505.6 367.8c-1.8-1.3-4-1.1-6.1-1.2-2.2-.1-4.8-.5-6.5 1.1-.5.5-.5 1.3 0 1.8 1.6 1.5 3.7 1.2 5.7 1.2 2.3 0 5 .1 6.9-1.2.5-.5.5-1.3 0-1.7zM188 331.8c6.5.6 12.4-1.7 17.8-5.3 4-2.7 11.2-8.1 11.4-13.4 0-.8-.8-1.5-1.6-1.2-1.9.7-2.9 1.9-4.1 3.4-1.9 2.3-4 4.3-6.2 6.3-4.8 4.1-10.9 6.5-17.2 6.6-2.5 0-2.5 3.4-.1 3.6zM325.1 314.3c1 5.5 4.7 10.6 9.1 13.9 4.2 3.1 11.9 7.5 17.3 5.5.7-.3 1.3-1.4.5-2-1.8-1.5-3.9-1.9-6.1-2.5-2.7-.7-5.3-1.9-7.7-3.4-5-3-7.6-7.6-10.2-12.6-.8-1.8-3.2-.5-2.9 1.1z" opacity="1" data-original="#851919"></path><path fill="#f9a5b4" d="M214.8 375.8c2.3 3 4.5 6 6.8 9 1.8 2.5 3.7 5.5 6.5 7 1.4.7 2.7-.7 2-2-1.5-2.9-4.4-5.4-6.4-8-2.2-2.8-4.3-5.6-6.8-8.1-1.3-1.3-3.2.7-2.1 2.1zM244.8 363.9c4.7 4.7 9.4 9.3 13.7 14.4 4.2 5 7.8 11.1 12.7 15.5 1.3 1.1 2.9-.3 2.3-1.7-2.7-6.1-8-11.5-12.3-16.4-4.4-5-9.2-10.1-14.7-14-1.4-.9-2.8 1.1-1.7 2.2zM261.5 362.4c6.8 3.3 12.2 8.5 17 14.3 2.2 2.6 4.2 5.4 6.3 8.1 2 2.6 4 6.2 7 7.7 1.2.6 2.7-.4 2.3-1.8-.9-3-3.6-5.5-5.5-8-2.6-3.4-5.3-6.7-8.2-9.8-5.1-5.6-10.9-10.1-17.9-12.9-1.4-.5-2.3 1.7-1 2.4zM287.3 366.5c5 5.6 8.2 13.7 14.3 18.2.9.7 2-.6 1.5-1.5-1.9-3.5-4.5-6.5-6.9-9.7-2.3-3.1-4.6-5.9-7.4-8.6-1-.9-2.5.6-1.5 1.6zM306.1 366.7c5.3 3.5 10.1 7.6 14.5 12.1 1.9 2 3.7 4.1 5.5 6.2 1.8 2.2 3.2 4.9 5.8 6.2.8.4 2.2-.1 2.1-1.2-.6-5.4-6.8-10.5-10.4-14.1-4.8-4.7-10.2-8.4-16.3-11.1-1.3-.5-2.4 1.1-1.2 1.9zM333.1 378.1c1.7 1.2 3 2.7 4.3 4.4 1.1 1.4 2.1 2.9 3.7 3.9.7.5 1.9-.3 1.6-1.2-1.5-3.7-5-7.1-8.3-9.2-1.4-.9-2.6 1.2-1.3 2.1zM352.3 372.6c2.7 3.9 5.1 8.9 8.7 12.1 1.1 1 2.5-.2 1.9-1.5-1.9-4.3-5.6-8.1-8.4-11.9-.9-1.2-3.1-.1-2.2 1.3zM237.9 377.6c2.7 3.4 5.1 7.3 9 9.5 1.2.7 2.1-.8 1.4-1.8-2.7-3.3-5.4-6.6-8.2-9.9-1.3-1.5-3.4.7-2.2 2.2zM201.2 377.7c2.2 2.9 4.4 5.7 6.7 8.5.8 1 2.1-.3 1.7-1.3-1.6-3.4-3.8-6.1-6.1-8.9-1.2-1.1-3.3.5-2.3 1.7z" opacity="1" data-original="#f9a5b4"></path></g></svg>