<svg xmlns="http://www.w3.org/2000/svg" version="1.1" xmlns:xlink="http://www.w3.org/1999/xlink" width="512" height="512" x="0" y="0" viewBox="0 0 512 512" style="enable-background:new 0 0 512 512" xml:space="preserve"><g><path fill="#c4544e" d="M454 255.4c.3-24.7-.9-49.3-1.7-74-.7-21.3 0-42.8-9.6-62.5-8.6-17.7-22.5-33.7-38.4-45.1-9.1-6.5-19.2-11.6-29.2-16.5-10.6-5.2-22.4-9.9-34.4-9.8-.8-5-5-8.4-9.1-11.2-6-4.1-13-7-19.9-9.5-14.4-5.3-29.7-9.3-44.9-11-20.5-2.3-42.6-.9-61.9 6.7-7.2 2.8-13.6 6.9-19.5 11.7-15.7 4.5-27.7 18.3-37.3 30.7-5.3 6.9-10 14.2-14.7 21.6-5.9 9.2-12.2 18.1-18.6 26.9-6.6 9.2-13.2 18.4-19.2 28.1C89.8 151 85 161 80.7 171.2c-8.9 21-15.4 43-19.4 65.5-2.2 12.4-3.6 24.9-4.1 37.5-.4 10.9 2.1 18.6 4.6 29.2 2.4 10.1 8.6 21.5 14 30.3 4.9 8.1 7.2 17.5 15.9 21.7 3.5 1.6 6.6-2.8 3.3-5.1-1.4-1 8 4.7 15.2 9.8 8.2 5.8 19 8.6 28.7 10.4 10.4 1.9 20.9 2.5 31.5 2.9 23.1.8 46.3 1.6 69.3 3.7 12.1 1.1 24 3.6 36 5.5 11.9 2 23.6 2 35.6 1 12-.9 24.1-.2 36.1-1.4 8.8-.9 16.6-3.9 23-10.2 5.4-5.3 8.9-12.2 12.1-19 1.3-2.7 2.5-5.5 3.7-8.2 0 .6 0 1.1-.1 1.6-.2 4.2-.6 8.3-1.2 12.4-1.3 9-5.1 17.1-11.2 23.9-1.1 1.2-1.6 2.8-.7 4.3.3.6.6 1 1.2 1.3.7.4 1.5.6 2.3.5 5.2 1.5 11.5-.6 16.3-2.3 7-2.5 11.8-5.9 15.7-12.3 1.3-2.1 2.5-4.3 3.8-6.3.5-.1 1-.3 1.5-.7 1.7-1.3 3.7-2.4 5.7-3.4h1.2c4.9.2 14.9-.1 14.4-7.4 0-.4-.1-.8-.3-1.2 1.1-.8 2.1-1.6 3.2-2.4 8.2-6.7 11.7-15.8 12.9-26.1 1.4-11.4 1.9-23.2 2.4-34.7.4-12 .5-24.3.7-36.6z" opacity="1" data-original="#c4544e"></path><g fill="#b23e3b"><path d="M138.2 337.2c-.8-1.5-2.4-2.5-4-1.7-.1-.1-.1-.2-.2-.3-.4-1.5-.8-3-1.5-4.3-.8-1.6-3.3-1.9-4.5-.7-.6-1.9-1.3-3.7-2.1-5.5.9-.6 1.5-1.8 1.3-2.9.6-.8.8-1.9.4-2.8-1.3-2.7-4.7-5-7.2-6.6-2.7-1.8-5.4-3.1-8.6-3.6-1-.9-2.1-1.8-3.1-2.8-6.3-6.1-11.2-13.4-14.1-21.6-.5-1.4-2.5-1-2.2.5 1.7 8.6 5.2 16.4 10.6 23.3 2.7 3.5 5.9 6.7 9.3 9.5 3 2.5 6.5 6 10.4 7.1 1.8 6 3.1 12 2.5 18.4-.7 7.8-4 15.1-5.9 22.6-.6 2.6 3.1 3.8 3.9 1.3.5-1.6 1.1-3.2 1.6-4.8h.2c8.6-1.8 12.4-14.1 17-20.4 2.2-2.5-1.1-5.7-3.8-4.7zM87.7 293.2c-.2 1.5.1 3.1.5 4.6-.8.2-1.4.9-1.6 2-1.1 6.8-1.1 13.8-1.2 20.7-.1 7.4-.1 14.8.1 22.2.1 3 3.9 3.5 5.1.9 3.6-8 4.7-17.6 5.2-26.4.4-8.4-3.1-16.9-6.3-24.4-.4-1-1.6-.5-1.8.4zM107.5 225.8c.5.9 1.7 1.2 2.5.4 2.6-2.5 2.3-6.1 2.4-9.5.2-4.8.2-9.6.4-14.4.2-4.6.9-9.2 1.4-13.8.4-4.1 1.2-8.8 0-12.8-.5-1.7-2.8-1.8-3.4-.1-1.4 3.5-1.5 7.7-1.9 11.4-.5 4.6-1.3 9.1-1.6 13.7-.3 4.3-.3 8.7-.4 13-.1 3.8-1.5 8.7.6 12.1zM271.1 172.5c-.2-5.8 2.9-10 4.2-15.3.4-1.6-1.3-3.6-2.9-2.5-5.1 3.5-6.9 10.4-7.5 16.2-.6 6.8 1.5 14.7 5.3 20.3 2.3 3.4 7.3.8 5.7-3-2.5-5.1-4.7-9.8-4.8-15.7zM230.3 107c-13.8.4-23 11.6-28.3 23.2-2.9 6.3-4.8 13.1-6.4 19.9-1.5 6.5-3.2 13.3-3.5 20-.1 2.2 3 2.7 3.7.7 2.1-5.6 2.8-11.6 4-17.4 1.4-6.2 3.1-12.4 5.4-18.4 4.8-12.4 12.7-21.1 25.4-25.4 1.3-.4 1.3-2.6-.3-2.6zM193.6 128.8c.2-.3.4-.6.5-.9.7-1.2-.8-2.4-1.8-1.5-.2.2-.4.4-.7.6-.6-.1-1.2.1-1.6.6-11.1 13-23.2 31.3-22 49.2.1.9.8 1.5 1.5 1.6 1.1 1.1 3.3 1 3.8-.8 1.1-4.1 1.5-8.4 2.5-12.5 1.1-4.4 2.5-8.8 4.2-13 1.3-3.1 2.8-6.1 4.4-8.9 3-4.3 6.1-8.4 8.9-12.8.5-.5.5-1.1.3-1.6zM166.9 140.3c-4.3 4.9-7.5 11.4-10 17.3-1.4 3.3-2.3 6.8-3 10.3-.6 3.1-1.6 6.6.4 9.3.4.6 1.5.6 2 .1 1.9-2.1 1.6-4.7 1.9-7.4.4-3.4 1.4-6.7 2.6-10 2.3-6.3 6.7-11.6 8.8-17.9.5-1.4-1.5-3-2.7-1.7zM383.8 200.2c-.2.2-.3.5-.3.8-.8 6.5.1 12.9.4 19.3.2 3.6.1 7.3-.5 10.9-.5 2.6-1.9 5.3-.4 7.8.4.6 1 1 1.8.8 2.1-.5 3.4-2.3 4.1-4.6 1 .2 2.1-.1 2.9-1.3 2.4-4 2.2-9.5 2-14.1-.3-5.8-1.3-11.5-2.8-17.2-1.3-5.2-3-10.4-5.1-15.4-1.7-3.9-3-9.9-6.6-12.5-.5-.3-1.4-.1-1.5.5-.7 3.7 1.4 8.1 2.5 11.6 1.3 4.6 2.5 9 3.5 13.4zM406.3 310.3c4.4-2.6 7.6-6.6 10.2-11 1.3-1.5 2.2-3.1 2.6-4.9.9-1.7 1.7-3.5 2.3-5.3 1-3 1.2-7.2 2.9-9.8.5-.8-.8-1.6-1.2-.8-1.2 2.2-3.3 3.8-4.8 5.9-1.9 2.7-3.4 5.6-5 8.5-.2.3-.3.5-.5.8-1.1.9-2.2 1.8-3.3 2.6-3 2.3-6.5 4-10 5.4-6.1 2.5-12.9 3.4-19.5 2.7-.2-.4-.6-.7-1-.8 1.8-4.5 4.1-10.3 2.9-14.8-.6-2.2-3.5-2.8-4.8-.8-.9 1.3-1.3 2.7-1.6 4.1-1-.5-2.3 0-2.7 1.1-1.5 3.6-1.9 7.5-3.7 11-1.9 3.7-4.6 7.1-7.2 10.3-5.3 6.6-11.3 12.8-14.7 20.7-1.1 2.6 1.7 4.5 3.9 4.3l1.5-.3c-.9 2-1.4 3.9-1.2 5.8.1.8.9 1.5 1.7 1.1 4-2.2 6.4-7.8 8.9-11.5 3.2-4.7 6.2-9.7 9.1-14.6.2-.3.3-.5.5-.8.9-.8 1.8-1.5 2.9-2.2 3.8-2.5 7.2-3.6 11.7-3.6 7-.1 13.6.7 20.1-3.1z" fill="#b23e3b" opacity="1" data-original="#b23e3b"></path><path d="M455 246.6c-.3-8.9-.5-17.8-.8-26.7-.2-4.6-.2-9.2-.3-13.9 0-4.2.3-8.6-.6-12.7-.3-1.6-2.7-1.7-3.2-.1-2.5 7.3-1.9 16.1-2.1 23.7-.2 8.4 0 16.8.1 25.2.3 16.9.4 33.8-1.3 50.6-1.3 13.4-4.6 26.3-8.2 39.3-.2.9-.5 1.8-.7 2.7-1.1 2.3-2.3 4.6-3.6 6.9-.7 1.3-1.4 2.5-2.2 3.7 1.2-3.3 1.8-6.9 2.3-9.8 1.3-7.5 1.3-14.8.9-22.4 0-.2 0-.3-.1-.5 1.1-5.5 2-11.1 1.9-16.8 0-1.2-1.7-1.3-1.9-.1-1.2 10.7-4.9 21-7.1 31.5-1 5-1.8 10-2.9 15l-.3 1.2c1.8-10.4 1-21.4.4-31.7-.1-1.5-2.2-1.6-2.4-.1-1.2 8.5-2.6 17-3.9 25.5-1.3 7.9-3.2 15.2-7.8 21.9-3.5 5.1-8.3 9.1-13.4 12.5-5.6 3.6-12 5.6-17.6 9.1-3.2 2-1.6 7.4 2.4 6.4 6.4-1.7 13-5.6 18.6-9.1 6-3.7 11.3-8.4 15.5-14.1.3-.5.7-.9 1-1.4.3 1.1 1.4 1.9 2.9 1.8 1.4-.2 2.8-.8 4.1-1.6.8.6 1.7 1 2.9.8 4-.6 7-3.4 9.4-7 2.1-1.2 3.8-3.6 5.1-5.1 2.7-3.3 4.6-7.4 6-11.4 2.7-7.5 4.9-17.5 3-25.4-.1-.3-.2-.5-.3-.7 1-4.6 1.8-9.1 2.4-13.7 2.7-17.9 2.3-35.8 1.8-53.5z" fill="#b23e3b" opacity="1" data-original="#b23e3b"></path><path d="M393.1 326.2c-1.1 6.9-3.1 13.6-5.8 20.1-1.3 3.3-2.8 6.5-4.2 9.7-1.5 3.3-3.2 6.4-3 10.1.1 1.2 1.6 2.3 2.6 1.2 2.4-2.4 3.5-5.5 4.8-8.5 1.6-3.6 3.2-7.2 4.7-10.9 2.8-7 5.2-14.4 3.8-21.9-.3-1.9-2.7-1.3-2.9.2zM399.6 126.3c3.4 8.9 5.2 17.6 6.9 26.9.9 4.7 2.7 9.1 3.9 13.8 1.2 4.6 1.7 9.4 1.8 14.1s-.5 9.5-1.4 14.1c-.8 4.4-3 8.5-3.2 12.9-.1 1.7 2 2 2.9.9 2.8-3.4 3.7-8.3 4.8-12.4 1-4.2 1.7-8.3 1.9-12.7.4-8.5-1-17.7-4.3-25.5-3.7-8.8-4.5-18.3-7.7-27.2-3-8.4-6.6-16.1-7.9-25.1-.1-.7-.6-1-1.2-1-.5-.1-1.1.2-1.3.9-.6 2.8.3 6.1 1 8.8.9 4 2.4 7.8 3.8 11.5zM421.7 179.8c.5 3 .7 6 .7 9.1 0 2.3-.9 4.7-.2 6.9.3.9 1.4 1.4 2.2.7 3.2-3.2 1.9-9.8 1.4-13.9-.7-6.2-2.6-12.2-4.5-18.2-.5-1.4-2.5-.9-2.2.5.8 5 1.8 10 2.6 14.9zM184.8 100.6c2.1-2.3 3.4-5.2 5.6-7.5 2.5-2.7 5.3-5.1 8.2-7.4 3-2.4 6.2-4.7 9.4-6.9 1.8-1.2 4.4-2.5 4.6-4.8 0-.3-.2-.8-.6-.8-2.5-.5-5 2-6.9 3.4-3.3 2.4-6.6 4.8-9.8 7.3-4.4 3.5-12.3 9.7-12.3 16 0 .7 1.1 1.4 1.8.7zM187.7 87.7c5.1-4.9 12.1-7.3 17.2-12.3.4-.4-.1-1-.6-.8-6.3 2.6-12.9 7.1-17.7 11.9-.7.8.3 1.9 1.1 1.2zM284 93.4c-3.8 9.3-9.1 17.7-12 27.4-1.5 5.1-2.5 10.3-3.7 15.4-1.1 4.8-2.9 9.6-2.9 14.5 0 .9 1.2 1.3 1.7.5 2.6-3.7 3.3-8.2 4.3-12.6 1.2-5.1 2.2-10.3 3.6-15.4 2.6-10.2 8.2-19.1 11.1-29.2.4-1.3-1.6-1.9-2.1-.6zM271.4 109.8c.3-.9-1.1-1.6-1.6-.7-3.1 6-7.1 13.4-5.7 20.4.2 1 1.7 1 2 .1 1-3 1.2-6.2 2-9.3.9-3.6 2.1-7.1 3.3-10.5zM157.8 89.9c2.3-1.6 3.8-4.3 5.7-6.4 2.2-2.5 4.8-4.3 7.6-6.1.6-.4.3-1.3-.5-1.2-3.2.5-5.7 3.1-7.9 5.3s-4.8 4.9-5.8 7.9c-.2.5.5.8.9.5z" fill="#b23e3b" opacity="1" data-original="#b23e3b"></path></g><g fill="#e08c6e"><path d="M147.9 99.2c-11.2 6.3-18.8 20.3-23.3 31.9-5.1 13.1-7.4 27.1-10.8 40.7-1 3.8 4.9 5.7 5.8 1.9 3.2-13 5.5-26.2 9.5-38.9 2-6.1 4.3-12 7.6-17.5 3.6-6 8.6-11 12.2-16.9.5-.8-.3-1.7-1-1.2zM171 140.5c-.5.5-.9 1.1-1.3 1.7-.4-.1-.9.1-1.1.6-.7 2-1.3 4-2 6-1.3 2.9-2.5 5.7-3.6 8.7-2.4 6.4-3.8 13.2-2.6 20.1.5 2.7 4.6 1.7 4.1-.9-.3-1.7-.5-3.4-.5-5 .4-3.2 1.1-6.3 1.8-9.4.5-2 1-3.9 1.5-5.9.9-2.4 1.8-4.7 2.8-7 1.1-2.6 2.5-5.2 2.4-8 .1-.9-.9-1.5-1.5-.9zM195.3 127.9c0-1.2-2-1.7-2.2-.4-1.3 7.3-1.8 14.5-2.1 21.9-.3 7.5-1.6 15.3-1.2 22.7.1 2.2 3.5 3.2 4 .7 1.4-7 .7-14.7.9-21.8.1-7.7.4-15.4.6-23.1zM271.5 188c-2.6-1.9-6.2-2.7-9.1-4-3.1-1.3-6.1-2.6-9-4.3-5.9-3.5-10.6-8.3-14-14.3-4.4-7.8-6.2-17.4-7.1-26.3-.9-9.7-.6-20-.1-29.8.1-1.1-1.7-1.5-2-.3-1.1 4.8-2.3 9.5-3.1 14.4-1 5.5-.7 11.4-.4 16.9.5 9.6 2.6 19.5 7.2 28 3.5 6.7 9 12 15.3 16.1 5.8 3.7 14.6 8.2 21.6 7.3 1.9-.2 1.9-2.7.7-3.7zM291.5 182.9c-2.3-2.4-4.3-5.2-6.2-8s-3.5-5.7-5-8.7c-1.2-2.2-2.1-5.3-3.9-7-.5-.5-1.3-.3-1.5.3-.7 2.3.6 5.1 1.4 7.3 1.3 3.6 3.3 6.9 5.3 10.1s4.2 6.2 6.8 9c1.7 1.8 3.8 4.1 6.5 3.7.7-.1 1.3-1 1-1.7-.9-2.2-2.9-3.4-4.4-5zM336 223.5c-2.8-3.7-4.9-7.9-7-12-4.3-8.4-7.2-17.6-9.2-26.8-2-9.3-3-18.9-3.6-28.4-.5-8.9.4-18.1-1.3-26.9-.2-1.3-2.2-1.4-2.5-.1-2.4 8.9-1.7 18.8-1.4 27.9.3 9.7 1.4 19.3 3.4 28.8 1.9 9.4 5 18.5 9.3 27.1 2.1 4.2 4.7 8.1 7.5 11.9 2.9 3.9 6.1 8.7 10.5 11.1 1.4.8 3.3-.6 2.4-2.2-2.1-3.8-5.5-6.9-8.1-10.4z" fill="#e08c6e" opacity="1" data-original="#e08c6e"></path><path d="M354.8 235.3c-2.1-6.2-4-12.5-6.3-18.7-2.2-5.9-4.3-12.3-8.1-17.3-.9-1.2-2.5 0-2.3 1.2.9 5.6 3.2 11.2 4.7 16.7 1.6 5.6 3.2 11.2 4.9 16.7 3.4 11.1 7.5 22 9.9 33.4.1.4.2.8.2 1.2-.3.1-.6.3-.8.6-2.1 5.3-1.3 11.6-1.3 17.2 0 3.2 0 6.5-.1 9.7-.1 3-.9 6.1.2 8.9.1.2.2.4.3.5-.4 1.3-.8 2.6-1.2 3.8-.7 2.1-1.7 4.1-1.9 6.2-2 3.1-4.5 5.8-6.4 9-.6 1.1.3 2.6 1.6 2.3 9-2.4 14-12.3 16.1-20.6 2.9-11.5 2.6-23.4.8-35-1.7-12.3-6.3-23.9-10.3-35.8zM387.4 330.7c-.3-1-2.1-1.4-2.4-.1-1.3 7.4 1.6 14.4 1.9 21.8.2 4.1-.7 8.4-1.6 12.4-1.1 5-2.5 10.1-4.8 14.8-.9 1.9-2 3.8-3.5 5.4-1.2 1.3-2.7 1.9-4.2 2.9-2.3 1.7-.5 5.1 1.9 5.3 4.5.3 8.1-4.7 10.1-8 2.9-4.9 4.6-10.5 5.9-15.9 1.2-4.9 2-10 2-15.1.4-7.8-3.1-16-5.3-23.5zM428.4 319c-.3-.8-1.6-.7-1.8.2-.7 3.5-.3 7.2-.1 10.8.2 4.1.2 8.2-.1 12.2-.3 4.2-1 8.2-2.4 12.2s-4.4 6.6-6.2 10.2c-.8 1.7.7 3.8 2.6 2.8 6.9-3.5 9.2-14.9 10-21.7.6-4.8.4-9.7 0-14.5-.1-4.1-.4-8.5-2-12.2zM452.9 169.7c-.8-7.2-2-14.2-3.6-21.2-.3-1.6-.7-3.1-1.1-4.7.2-.9.3-1.9.2-3.1-.3-2.3-1.9-4.9-3-6.8 0-.1-.1-.1-.1-.2-.6-1.6-1.2-3.2-1.9-4.7-2.9-6.5-6.7-12.6-10.5-18.6-2.4-3.8-4.8-7.7-7.3-11.6-.6-1.3-1.3-2.5-2.1-3.7-.3-.5-.7-.9-1.1-1.2-3.8-5.5-7.9-10.8-12.7-15.4s-10.1-8.8-15.6-12.6c-5.1-3.6-11.2-7.8-17.3-9.1-1-.2-1.5.9-.7 1.5 4.8 3.6 9.8 6.8 14.5 10.6 5.2 4.2 10.2 8.7 15 13.3 4 6.1 10.9 14.9 4.2 20.8-5 4.4-14.5 3.6-20.7 3.7-11.4.1-22.6.3-34-1-6.3-.7-12.6-1.7-18.9-3-5.2-1.1-10.9-3.1-16.2-2.9-.5 0-.8.7-.3 1 .2.1.5.3.7.4 2 4.4 6.7 7.4 10.7 9.7 5.1 2.9 10.7 5.1 16.3 7 12.3 4.1 25.2 6.6 38 8.2 6.2.7 12.2.2 18.4-.6 6.4-.8 13.3-2.2 19.7-.3 5.3 1.5 9.8 4.6 13.9 8.1.7.6 1.4 1.3 2.1 2.1 2 4.6 3.6 9.3 4.9 14.3 1.7 6.5 2.9 13.2 3.8 19.8.9 6.5 1.2 12.9 1.8 19.4.2 1.7 2.6 1.2 2.8-.3 1-6 .8-12.9.1-18.9zM268.9 89.7c.7 0 1.3-.1 1.9-.2 1.4-.3 1.5-2 .5-2.8-1.5-1.2-3.4-1.5-5.2-2.1-2.5-.8-5-1.7-7.4-2.7-5-2.1-9.7-4.8-14.4-7.5-7.9-4.6-15.9-10.5-21.1-18.2-3.8-5.7-6.1-12.6-5.8-19.5 0-1.1.2-2.2.4-3.2.1-.1.2-.3.3-.4 1.3-1.5 3-2.9 4.8-4 12.2-3.2 24.7-5 37.5-5.8 6.7-.4 13.4-.7 20.1.1 6.9.8 13.7 2.9 20.3 5.3s13 5.4 19.3 8.5c5.8 2.9 12.4 5.6 16.5 10.9 2.2 2.8 6.1-.9 4-3.7-3-4.1-7.1-6.6-11.4-9.1-5.1-2.9-10.2-5.8-15.5-8.3-10.1-4.8-20.6-8.5-31.6-10.2-3.7-.6-7.5-.8-11.2-.8-2.8-5.8-13-4.9-18.3-4.7-9.2.2-17.5 1.9-26.2 5-3.2 1.1-6.4 2.3-9.5 3.6-6.1-1.1-11.7.7-17.3 3-5.2 2.2-10.4 4.8-15.1 8-4.8 3.2-9.3 7.1-13.4 11.2-2.8 2.8-8 7.6-7.8 12.1-1.5 1.4-3 2.7-4.5 4.1-1.1.4-2.2.9-3.2 1.4-.9.5-1.2 1.5-.9 2.3-3.9 3.6-7.8 7.1-11.4 10.9-7.4 7.5-13.6 16-19 25.1-4.1 6.9-7.8 14.1-11.8 21s-8.5 13.6-12.8 20.3c-4.4 6.8-8.6 13.8-12.3 21-3.6 7.2-5.8 15-8.6 22.5-2.7 7.2-7 13.6-10.3 20.5-3.1 6.5-5.3 13.1-6.6 20.2-2.9 15.6-4.7 32-4.7 47.9 0 .2.1.4.2.5 0 2.5 0 5 .1 7.5.6 14.7 5.8 26.8 10.6 40.7 2.2 6.4 8 13.5 11.7 19.2 3.5 5.5 7.4 11.8 13.4 14.6 2.4 1.1-.2-.4-1.5-2-1.9-2.4-4.5-4.4-6.6-6.6-2.4-2.6-4.5-5.6-6.4-8.6-3.5-5.7-6-11.9-8.1-18.3-4.3-13.3-7.2-27.4-7.7-41.4-1-26.9 5.8-54 14.7-79.4 1.5-2.5 3-4.9 4.4-7.4 2.8-5 4.6-10.4 6.6-15.7 4.2-11.3 10.3-21.5 16.8-31.7 6.4-9.9 12.7-19.8 18.4-30.1 5.4-9.7 10.9-19.2 17.9-27.8 6.8-8.3 15.2-14.8 22.9-22.2.4-.3.7-.7 1.1-1 1.7-.5 3.3-1 5.1-1.5 4.9-1.4 9.9-2.3 15.1-1.9 2.2.2 4.3.7 6.4 1.4.3.2.7.4 1.1.5.2.1.5.2.7.2 2.7 1.2 5.2 2.6 7.7 4.3.5.6 1.1 1.2 1.7 1.7.6.6 1.4.9 2.3.9 2.4 1.7 4.8 3.3 7.2 4.7 4.2 2.5 8.9 4.2 13.4 6.2 4.7 2.1 9.5 4.2 14.4 6.1 8.7 3.8 18.3 6.4 28.1 5.4z" fill="#e08c6e" opacity="1" data-original="#e08c6e"></path></g><g fill="#fff6f1"><path d="M355 263.4c-.7-12.8-7.4-22.3-16.2-31-4.3-4.3-8.5-8.5-12.4-13.2-3.8-4.5-6.1-9.8-9.2-14.7.7-1.5.2-3.7-1.1-4.7-2.6-1.9-6.9-2.5-9.9-3.8-4.3-1.8-8.4-3.9-12.3-6.4-4-2.5-7.8-5.4-10.9-8.9-1.4-1.6-2.6-3.3-3.6-5.2-.1-.1-.1-.2-.2-.4-.4-1.8-1.1-3.4-2.1-4.8-.1-.2-.2-.3-.3-.5s-.3-.3-.4-.4c-.3-.3-.6-.6-.9-.8-.9-.7-2.1.1-2.2 1.1-.4 4.5.5 9.6 1.1 14.1.3 2.5 1.1 5 2.3 7.2-2.4-.2-4.8-.2-7-.4-5.2-.7-10.3-1.8-15.3-3.4-7.9-2.5-14.7-6.5-21.3-11.2-.3-.5-.5-1-.8-1.5-1.9-4-3.2-8.3-4.5-12.5-1.4-4.6-3.5-9-5.2-13.6-3.7-10.6.4-21.1 3.2-31.4.1-.4 0-.7-.1-.9.1-.5.3-.9.3-1.4.2-1-1.1-1.5-1.9-1.2-4.7 2.1-8.3 7.8-11.4 11.7-4.3 5.5-7.5 11.3-10.1 17.7-2.8 7-4.6 14.3-5.9 21.8-.7 3.8-1.2 7.6-1.6 11.4-.2 1.8-.5 3.9-.7 5.9-4-4.8-5.5-11.6-6.5-17.6-.7-4.7-.8-9.6-.5-14.4.2-3.5 1.7-7.6 1-11.1-.1-.7-1-1-1.6-.7-3.4 1.9-4.3 7.1-4.9 10.8-4.8 8.9-6.5 19.7-8.7 29.7-1.7-.3-3.7-.3-5-.4-2.6-.2-5.2-.5-7.8-.4-.3-.3-.7-.5-1.2-.6-6.4-1.6-12.9-1.1-19.4-.7-6.9.4-14.1.6-21-.4-1.2-.2-2.1 1.7-1.1 2.5.2.2.5.4.7.5-2 2.8-2.7 7.3-3.7 10.3-1.5 4.6-2.6 9-3 13.8-.2 2.2 0 4.5.4 6.8-1.5 3.3-1.9 6.8-2 10.7-.1 2.6-.2 5.1-.4 7.7-.1.6-.2 1.1-.2 1.6-6.8 3.6-11.4 11.1-14.8 17.7-4.2 8.1-7.7 18.5-5.7 27.7 2.3 11 11.9 19.2 20.4 25.7 4 3.1 8.2 5.4 12.8 7.5 2.4 1.1 4.9 2.2 7.3 3.5l-.9.9c13 4.7 25.8 10.2 38.1 16.5 9.3.9 18.6 1.5 27.9 2.6 6.8.8 13.5 2.2 20.3 3.6 1.4.3 2.8.6 4.3.8.5.1.8.2 1 .2h.2c2.4.4 4.8.7 7.2.9 11 1 22 .5 33-.5.5 0 .8-.1 1-.1h.1c1.4-.1 2.9-.3 4.3-.4 2.5-.2 4.9-.5 7.4-.7.6-.1 5.4-.5 1.3-.1 6.4-.6 12.7-1.1 19.1-1.7 2.9-.2 5.9-.5 8.8-.7.3 0 2.3-.2 2.8-.3 1-.1 1.9-.2 2.9-.3 5.1-.5 10.2-1.1 15.2-2.1 4.3-.9 8.6-1.8 13-2.6.3-.1.6-.2 1-.3h.2l5.7-.9c5.7-4.1 8.1-17.4 8.5-22.4.5-6.4.2-12.9 1.1-19.3 1.1-6.9 2.4-14.3 2-21.9zM429.2 230.2c-6.7-6.9-16.1-8.4-25.2-6.9-3.7.6-13.4 4.8-18.4 9.8-1 0-2 .5-2.3 1.6-1.6 5.1-2.4 10.3-3.2 15.5-.8 5.8-2 11.4-3.6 17.1-2.3 8.4-6 18.9-2 27.4 2.9 6.3 10.7 7.8 16.9 7.6 8-.2 16.1-2.6 22.9-6.9 7.3-4.5 12.5-11.4 15.4-19.4 2.8-7.7 5.5-15.9 6.5-24.1.9-8-1.3-15.8-7-21.7z" fill="#fff6f1" opacity="1" data-original="#fff6f1"></path></g><path fill="#f9a5b4" d="M313.5 322.1c-15.9 2.3-32.1-5.8-33.9-18.3-1.8-12.6 9.6-24 27.3-27.2 15.8-2.8 33.3 1.6 36.4 18.5 3.2 17.6-13.9 24.7-29.8 27zM120.8 262.2c-11.7-6.2-26.5-6.7-32.7 7.1-.1.3-.3.7-.4 1 .2 8.4 3.8 16.6 8.4 23.7 2.8 2.2 6 4.1 9.2 5.6 11.9 5.8 26.4 2.8 30.7-7.5 4.3-10.4-2.1-23-15.2-29.9z" opacity="1" data-original="#f9a5b4"></path><g fill="#f34d65"><path d="M302.3 298.3c-.8-.3-1.8.2-2 1-.1.5-.3.9-.5 1.4-.2.6-.6 1.1-.8 1.7-.3.7 0 1.5.7 2 .8.6 1.8.2 2.4-.5.8-1 1.5-2.7 1.4-4-.2-.7-.5-1.3-1.2-1.6zM308.6 299.6c-.1.6-.2 1.2-.4 1.8-.2.7-.5 1.4-.1 2.2.3.5.7.6 1.2.6 1.9-.2 1.8-3.1 1.7-4.4-.1-1.6-2.1-1.7-2.4-.2zM321.7 298.8c-.1-1.5-2.5-1.5-2.9-.2-.2.6-.4 1.2-.7 1.7-.4.8-.9 1.8-.4 2.7.2.4.6.7 1.1.7 1.2 0 1.9-1 2.3-2 .5-.9.7-1.8.6-2.9z" fill="#f34d65" opacity="1" data-original="#f34d65"></path></g><g fill="#f34d65"><path d="M119.5 281.9c.7 0 1.4.6 1.3 1.3 0 .4 0 .9.1 1.3 0 .6.2 1.1.3 1.6 0 .7-.4 1.3-1 1.5-.8.3-1.4-.2-1.7-1-.4-1.1-.5-2.6-.2-3.7.2-.5.6-1 1.2-1zM114.2 281.5c-.1.6-.1 1.1-.1 1.7 0 .7.1 1.4-.4 1.9-.3.3-.7.4-1.1.2-1.4-.6-.7-3-.3-4.2.4-1.4 2.1-1 1.9.4zM104.2 277.6c.4-1.2 2.3-.7 2.3.6 0 .5 0 1.1.1 1.6.1.8.3 1.8-.3 2.4-.3.3-.7.5-1 .3-.9-.3-1.2-1.3-1.4-2.2-.1-.9 0-1.7.3-2.7z" fill="#f34d65" opacity="1" data-original="#f34d65"></path></g><g fill="#f2f5fe"><path d="M326.6 290.1c-.1 0-.1-.1-.2-.1.5.3.5.3.2.1zM327.6 282.8c-1.3-.7-2.8-.6-3.7.7-.8 1.2-.4 2.8.7 3.6l.1.1v.1c0 .1.4 1.2.4 1.1.1.4.2.6.5.9 0 .1.6.4.9.6.5.3 1.1.3 1.6.2.1 0 .2-.1.3-.1 1-.4 1.6-1.2 1.8-2.3.4-1.8-.9-4-2.6-4.9zm-2.7 4.7c.1.2.1.2 0 0z" fill="#f2f5fe" opacity="1" data-original="#f2f5fe"></path></g><g fill="#f2f5fe"><path d="M102.3 269h.2c-.5.1-.4.1-.2 0zM99.9 266.2c-.1 1 .1 1.8.9 2.4.1 0 .1.1.2.1.4.2.8.3 1.3.2.3-.1.8-.3.9-.3.3-.2.4-.4.6-.6 0 0 .5-.8.5-.9l.1-.1.1-.1c1.1-.4 1.7-1.7 1.4-2.9-.4-1.3-1.5-1.8-2.7-1.5-1.6.4-3.1 2-3.3 3.7zm4.4 1c-.2.1-.2.1 0 0z" fill="#f2f5fe" opacity="1" data-original="#f2f5fe"></path></g><g fill="#fdb8a9"><path d="M196 179.3c.7-1.7 1.4-3.3 2.1-5-.6 3.1-.8 6.1.1 8.8.4 1.4 2.4 1.6 2.9.1.8-2.3.7-4.8 1-7.2.4-3.5.9-7 1.8-10.4.7-2.8 1.7-5.5 2.7-8.2 1.5-2.7 2.9-5.4 4.4-8.1 1.5-2.8 3-5.7 4.4-8.6-1.7 12.3-2.6 26.4 5.9 36 3.8 4.3 9.1 7 14.4 9 4.7 1.7 11.3 3.9 16.3 2.4.6-.2.6-1 0-1.2-4.6-1.9-9.8-1.9-14.6-3.4-5.3-1.7-10.4-4.4-14.4-8.4-4.8-5-6-12.7-6.6-19.3-.5-5.7-.3-11.8.2-17.6.7-1.4 1.3-2.8 2-4.2 1.1-2.4 2.4-4.7 3.7-6.9 1.4-2.4 3.4-4.6 4.1-7.4.5-2.1-1.6-4.3-3.7-3.1-1.5.9-2.8 2.2-3.9 3.7-5.9 4.6-9.4 11.9-12.3 18.6-1.9 4.3-3.5 8.8-5.2 13.2-1.4 3.6-4 7.8-4 11.7 0 .4.1.7.3 1-1.6 4.6-2.4 9.3-3.1 14.2-.4 1 1.1 1.1 1.5.3zM155.1 185c4.8 2.7 12.4 1.3 17.3 1.1 1.4-.1 2.4-1 2.8-2.1.3.1.6.1.9 0 .9-.2 1.3-1 1.5-1.8.5-2.8.6-5.6.1-8.4v-.1c.6-2.1 1.2-4.3 2-6.4 1.6-4 3.7-7.9 5.9-11.7 1-1.8 11.4-16.9 5.1-17-3.4-.1-4.6 3.8-6 6.2-2.1 3.6-4.2 7.2-6.1 10.9-3.4 6.5-7.6 15.3-5.4 22.8.2.5.5.9.9 1-.1.4-.1.8-.2 1.2-.2-.1-.4-.2-.7-.3-4.1-1.3-8.4-1.7-12.6-2.5-.6-.1-1.2 0-1.7.1-.1 0-.1-.1-.2-.1-.4-.6-1-1-2-1-4.2.2-8.3.3-12.5.1-3.8-.2-7.9-.5-11.4 1-4.9-.7-10-1.4-14.4.2-1.2.4-2 2.4-.5 3.1 6.1 2.9 13.9 3.1 20.5 3.8 4.6.6 11.4 1.3 16.7-.1zM417.1 251.9c-1-3.6-4.8-4.8-8.1-3.7-1.5.5-1.9 2-1.2 3-.1.1-.1.2-.2.4-3.8.4-8.1 3.7-10 5.9-4.1 4.5-7.4 11.2-6.3 17.4.3 1.5 1.7 2.5 3.2 2.7 9.2.8 17-7.7 20.7-15.2 1.6-3.2 2.9-7 1.9-10.5zM385.5 240.2c-.3-1.1-1.9-1.2-2.3-.1-2.8 7.5-2 16.5-2.4 24.5-1.9 4.4-3.3 9.1-4.7 13.6-1 3.3-3.1 8.1-2.4 11.8-.4.8-.7 1.5-1 2.3-1.1 3 2.8 5.1 4.9 3.2 6.8-5.9 8.4-17.8 9.2-26.2.5-5 .4-10.1.2-15.1-.2-4.7-.2-9.5-1.5-14zM354.6 291.6c1.7-6.6.6-14.7-1.1-21-1.8-6.6-5.7-12.2-9.9-17.4-2.9-3.6-6.2-6.8-9.3-10.3-3.6-4.2-6.8-8.8-9.7-13.6-5.4-8.8-9.6-18.2-14.5-27.3 2.1.3 4.2.4 6.3.4 1.9 0 2.1-2.9.1-3-13.4-.4-27.1-5.7-35.5-16.3.1-1.8.1-3.5.1-5.1.1-3.6 1.2-10.1-2.5-12.2-.8-.5-1.9-.5-2.7.2-2.7 2.8-1.2 8-1.3 11.7-.1 4.5-1.1 9.7.9 14 .9 1.9 3.3 1.3 4-.4.6-1.5 1-3.1 1.2-4.8 6.6 8.5 17.1 13.6 27.9 15.3 7.1 18.1 16.5 34.7 29.5 49.2 5.1 5.6 9.3 11.6 11.8 18.7 1.2 3.5 1.9 7.3 2.2 11 .2 2.2.1 4.3.2 6.5-.1.1-.1.2-.2.3-2.2 6.7-3.3 13.1-7.4 19-1.8 2.5-4 4.8-6.5 6.8-1.8.8-3.6 1.7-5.4 2.3-7 2.6-14.2 4.3-21.5 5.8-15.3 3.2-31 5.8-46.5 7.4-8.3.9-16.6 1.3-24.9 1.4-4.7-.1-9.4-.1-14.1-.1-5.4-.2-10.7-.4-16.1-.7-4.4-.3-8.8-.5-13.2-.7-6-.6-11.9-1.3-17.9-2.1-11.8-1.7-23.3-4.2-34.6-8.2-4.1-1.5-8.1-3.1-12.1-4.9-2.6-1.1-5.8-2.5-8.7-2h-.2c14.9 5 29.5 11.2 43.5 18.4 9.3.9 18.6 1.5 27.9 2.6 6.8.8 13.5 2.2 20.3 3.6 1.4.3 2.8.6 4.3.8.5.1.8.2 1 .2h.2c2.4.4 4.8.7 7.2.9 4 .4 8 .5 12 .6-4.7-.6-9.4-1.4-14-2.1 13.7.5 27.3.2 40.9-1 2.9-.3 5.7-.6 8.6-.9.2.7.7 1.3 1.4 1.6 5.8-.5 11.5-1 17.3-1.5 2.9-.2 5.9-.5 8.8-.7.3 0 2.3-.2 2.8-.3 1-.1 1.9-.2 2.9-.3 5.1-.5 10.2-1.1 15.2-2.1 6-1.2 12.1-2.6 18.2-3.5.1-.1.2-.2.3-.4l.2-.2c6.6-2.7 11.8-7 8.9-14.9.3-.4.6-.9.8-1.4.6-1.2-.3-2.6-1.7-2.4-.4.1-.9.2-1.3.3 3.8-5 5.9-10.8 5.9-17.2z" fill="#fdb8a9" opacity="1" data-original="#fdb8a9"></path><path d="M179.4 266.8c-1.7-.8-3.9-1.1-5.8-.5-1.4-.6-3.4.7-3 2.4 1 4.3 5.8 4.8 9 2.7 2.1-1.4 2-3.6-.2-4.6z" fill="#fdb8a9" opacity="1" data-original="#fdb8a9"></path></g><path fill="#f7d581" d="M54.1 377.4c3.1-1 5.8-2.3 9.1-2.5 3.7-.3 7.3.4 10.9 1.3 7.4 1.8 14.3 5 21 8.6 3.7 2 7.3 4.1 10.8 6.5 0 .5.2 1 .7 1.4 3.8 3.2 7.4 6.7 10.7 10.5 3.8 4.4 5.7 9.3 8.1 14.5.4 1 1.1 1.5 1.9 1.6-3.9 7.6-5.5 16.5-7.2 24.6-1.7 8.5-3.4 16.8-6.5 24.9-2.8 7.4-5.7 14.8-7.9 22.4-.8 2.6-3 9.4-.5 12.1-.9.1-1.9.3-2.8.5-1.2.3-1.8 1.2-2 2.3h250.9l-.3-.9c5.4-6 9-14.4 12.8-20.5 8.6-14.2 18.7-27.9 29-40.9 7.3-9.2 15.4-18.1 25-25 7-5 15.2-9 23.5-8.2 1.3 1 2.8 1.8 4.4 2.2.8.2 1.7 0 2.4-.3.7.3 1.3.7 2 1 3.6 2.1 7.1-2.7 4.3-5.6-4.7-5.1-6.4-12.2-10.4-17.8-3.8-5.3-9.2-9.6-14.4-13.5-.4-.3-.8-.4-1.2-.3-6-9.3-13.7-17.3-22.2-24.5-8.8-7.4-17.2-16.2-28-20.7-5.8-2.4-12.2-2.3-18.4-1.9-3.2.2-6.4.7-9.5 1.2-.1 0-.3.1-.4.1-.2-.1-.5-.1-.8-.2-7.9-1.1-15.9.7-23.7 2.3-8.6 1.8-17.2 3.4-26 4.4-18.2 2-36.7 1.8-55 .8-16.1-.9-32.1-2.4-48.1-3.3-7.5-.4-14.9-1.1-22.3-2.4-6.2-1.1-12.1-3-18.1-4.9-.6-.6-1.5-1.1-2.7-1.2-10.1-.7-20.9 2.8-30.4 6-9.6 3.2-18.9 7.4-28.1 11.5-8.1 3.5-16.2 7.1-24 11.4-6.3 3.5-13.3 7.7-16 14.7-.1.2-.1.3-.1.5-1.4.9-2.6 2-3.5 3.4-1.4 1.8.8 4.6 3 3.9z" opacity="1" data-original="#f7d581"></path><g fill="#fceed0"><path d="M425.9 411.2c3.3-.5 6.6-.9 9.9-1.3 2.2-.4 4.4-.9 6.5-1.7 1.8-.5 3.7-.8 5.5-.8.4-1.1.7-2.2.8-3.3-.7-1-1.3-2-2-3-1.5-2.2-2.9-4.5-4.2-6.8-1.5-2.6-2.7-5.3-3.9-8-2-.9-4.2-1.3-6.5-1.3-9.3 0-16.8 7.5-16.8 16.8 0 4.3 1.6 8.2 4.2 11.1 2.2-.8 4.3-1.4 6.5-1.7z" fill="#fceed0" opacity="1" data-original="#fceed0"></path><circle cx="374.8" cy="401.7" r="16.8" fill="#fceed0" opacity="1" data-original="#fceed0"></circle><path d="M406 349.1c1.6 1.2 3.1 2.4 4.7 3.6-6.4-5-13.1-9.7-19.4-14.8-.8-.6-1.5-1.2-2.3-1.9-1.5 2.5-2.3 5.4-2.3 8.5 0 9.3 7.5 16.8 16.8 16.8 4.7 0 8.9-1.9 12-5-3.3-2.4-6.4-4.8-9.5-7.2z" fill="#fceed0" opacity="1" data-original="#fceed0"></path><circle cx="346.1" cy="344.4" r="16.8" fill="#fceed0" opacity="1" data-original="#fceed0"></circle></g><g fill="#fceed0"><path d="M336.9 466.4c1.6-1.2 3.1-2.4 4.7-3.6 6-4.5 12-9.2 18.3-13.5-3-4.3-8-7.1-13.7-7.1-9.3 0-16.8 7.5-16.8 16.8 0 4.4 1.7 8.3 4.4 11.3.8-1.4 1.9-2.7 3.1-3.9zM425.9 411.2c3.3-.5 6.6-.9 9.9-1.3 2.2-.4 4.4-.9 6.5-1.7 1.8-.5 3.7-.8 5.5-.8.4-1.1.7-2.2.8-3.3-.7-1-1.3-2-2-3-1.5-2.2-2.9-4.5-4.2-6.8-1.5-2.6-2.7-5.3-3.9-8-2-.9-4.2-1.3-6.5-1.3-9.3 0-16.8 7.5-16.8 16.8 0 4.3 1.6 8.2 4.2 11.1 2.2-.8 4.3-1.4 6.5-1.7z" fill="#fceed0" opacity="1" data-original="#fceed0"></path><circle cx="374.8" cy="401.7" r="16.8" fill="#fceed0" opacity="1" data-original="#fceed0"></circle></g><g fill="#fceed0"><circle cx="317.5" cy="401.7" r="16.8" fill="#fceed0" opacity="1" data-original="#fceed0"></circle><circle cx="260.2" cy="401.7" r="16.8" fill="#fceed0" opacity="1" data-original="#fceed0"></circle><circle cx="346.1" cy="344.4" r="16.8" fill="#fceed0" opacity="1" data-original="#fceed0"></circle><path d="M292.3 335.2c-4.7.7-9.4 1.7-14.2 1-1.2-.2-2.4-.3-3.7-.5-1.5 2.5-2.4 5.5-2.4 8.7 0 9.3 7.5 16.8 16.8 16.8s16.8-7.5 16.8-16.8c0-4.2-1.5-8-4.1-11-3 .7-6.1 1.3-9.2 1.8zM246.5 338.5c-8.4-.2-16.8-1.5-25.1-2.7-1.3-.2-2.7-.3-4-.4-1.7 2.6-2.6 5.7-2.6 9 0 9.3 7.5 16.8 16.8 16.8s16.8-7.5 16.8-16.8c0-2.1-.4-4-1.1-5.9h-.8z" fill="#fceed0" opacity="1" data-original="#fceed0"></path></g><g fill="#fceed0"><path d="M330.7 506c-3.1-3.9-7.8-6.5-13.2-6.5s-10.2 2.5-13.2 6.5zM273.4 506c-3.1-3.9-7.8-6.5-13.2-6.5S250 502 247 506zM336.9 466.4c1.6-1.2 3.1-2.4 4.7-3.6 6-4.5 12-9.2 18.3-13.5-3-4.3-8-7.1-13.7-7.1-9.3 0-16.8 7.5-16.8 16.8 0 4.4 1.7 8.3 4.4 11.3.8-1.4 1.9-2.7 3.1-3.9z" fill="#fceed0" opacity="1" data-original="#fceed0"></path><circle cx="288.9" cy="459" r="16.8" fill="#fceed0" opacity="1" data-original="#fceed0"></circle><circle cx="231.6" cy="459" r="16.8" fill="#fceed0" opacity="1" data-original="#fceed0"></circle><circle cx="317.5" cy="401.7" r="16.8" fill="#fceed0" opacity="1" data-original="#fceed0"></circle><circle cx="260.2" cy="401.7" r="16.8" fill="#fceed0" opacity="1" data-original="#fceed0"></circle></g><g fill="#fceed0"><path d="M330.7 506c-3.1-3.9-7.8-6.5-13.2-6.5s-10.2 2.5-13.2 6.5zM273.4 506c-3.1-3.9-7.8-6.5-13.2-6.5S250 502 247 506z" fill="#fceed0" opacity="1" data-original="#fceed0"></path></g><g fill="#fceed0"><circle cx="202.9" cy="401.7" r="16.8" fill="#fceed0" opacity="1" data-original="#fceed0"></circle><circle cx="145.6" cy="401.7" r="16.8" fill="#fceed0" opacity="1" data-original="#fceed0"></circle><path d="M246.5 338.5c-8.4-.2-16.8-1.5-25.1-2.7-1.3-.2-2.7-.3-4-.4-1.7 2.6-2.6 5.7-2.6 9 0 9.3 7.5 16.8 16.8 16.8s16.8-7.5 16.8-16.8c0-2.1-.4-4-1.1-5.9h-.8zM179.2 332.1c-1.1-.3-2.2-.6-3.3-.8-3.1-.1-6.2-.8-8.9-2-5.7 2.7-9.6 8.5-9.6 15.2 0 9.3 7.5 16.8 16.8 16.8s16.8-7.5 16.8-16.8c0-4.1-1.5-7.9-4-10.8-2.6-.5-5.2-1-7.8-1.6zM127.4 331.2c-9 4.3-18.1 8.6-27.2 12.8v.4c0 9.3 7.5 16.8 16.8 16.8s16.8-7.5 16.8-16.8c0-5.3-2.5-10.1-6.4-13.2z" fill="#fceed0" opacity="1" data-original="#fceed0"></path></g><g fill="#fceed0"><path d="M216.1 506c-3.1-3.9-7.8-6.5-13.2-6.5s-10.2 2.5-13.2 6.5zM158.8 506c-3.1-3.9-7.8-6.5-13.2-6.5s-10.2 2.5-13.2 6.5z" fill="#fceed0" opacity="1" data-original="#fceed0"></path><circle cx="231.6" cy="459" r="16.8" fill="#fceed0" opacity="1" data-original="#fceed0"></circle><circle cx="174.3" cy="459" r="16.8" fill="#fceed0" opacity="1" data-original="#fceed0"></circle><path d="M121.9 442.9c-.2 1-.3 2-.5 2.9-1.3 7-3.6 13.8-5.6 20.7-.8 3-1.5 5.9-2.3 8.9 1.1.2 2.3.4 3.5.4 9.3 0 16.8-7.5 16.8-16.8 0-7.6-5-14-11.9-16.1z" fill="#fceed0" opacity="1" data-original="#fceed0"></path><circle cx="202.9" cy="401.7" r="16.8" fill="#fceed0" opacity="1" data-original="#fceed0"></circle><circle cx="145.6" cy="401.7" r="16.8" fill="#fceed0" opacity="1" data-original="#fceed0"></circle></g><g fill="#fceed0"><path d="M216.1 506c-3.1-3.9-7.8-6.5-13.2-6.5s-10.2 2.5-13.2 6.5zM158.8 506c-3.1-3.9-7.8-6.5-13.2-6.5s-10.2 2.5-13.2 6.5z" fill="#fceed0" opacity="1" data-original="#fceed0"></path></g><path fill="#fceed0" d="M127.4 331.2c-9 4.3-18.1 8.6-27.2 12.8v.4c0 9.3 7.5 16.8 16.8 16.8s16.8-7.5 16.8-16.8c0-5.3-2.5-10.1-6.4-13.2zM121.9 442.9c-.2 1-.3 2-.5 2.9-1.3 7-3.6 13.8-5.6 20.7-.8 3-1.5 5.9-2.3 8.9 1.1.2 2.3.4 3.5.4 9.3 0 16.8-7.5 16.8-16.8 0-7.6-5-14-11.9-16.1z" opacity="1" data-original="#fceed0"></path><g fill="#dd9d64"><path d="M208.9 347.7c2.9-.5 2.9-4.5.7-5.8 1-.5 1.8-1.3 2.2-2.5s-.1-2.5-.9-3.3c-1.8-2.1-5.6-1.1-8.1-1.2-3.7-.1-7.4-.4-11.1-.8-4.3-.4-11.3-2.3-15-.3-.2.1-.4.3-.6.4-2.7-1.1-5.2-2.5-7.6-4-2-1.3-4 1.6-2.5 3.2 5.2 5.4 12.3 8.3 19.3 10.6 4 1.3 8 2.2 12.1 2.9 3.7.6 7.8 1.5 11.5.8zM341.1 335.4c4.5-1.4 2.5-7.5-1.9-6.9-1.8.3-3.5.7-5.2 1.3-7.5 1.7-15.1 2.5-22.7 3.1-8.7.6-17.4 1.7-26.1 2.4-11.5.9-26.5-.8-35.8 7.3-1.4 1.2-1.5 3.5-.5 5-3.4.2-6.8.5-10.2.8-2.4.3-3.3 3.9-.6 4.4 16.9 3.6 35.3 2.2 52.3-.3.8-.1 1.6-.3 2.4-.4-3.4 4.1-6.3 8.6-7.5 10.1-.8.5-1.6 1-2.4 1.4-4.5 2.5-9.2 3.9-14.1 5.5-5.2 1.8-10.4.4-15.7.8-1.1.1-1.8 1.7-.6 2.3 4.4 2.3 10.9 2.6 15.8 2.4 6.2-.3 11.5-1.3 17.3-3.8 5.3-2.2 10.1-5.9 14.2-9.8 2.6-2.4 5.5-5.4 7.5-8.7 1-.7 2-1.3 2.9-2 2.2-1.5 4.9-2.7 7.2-4.3l.9-.3c7.5-2.2 13.6-7.7 21-10 .7 0 1.2-.1 1.8-.3zM212.8 363c0-1-.8-2.3-1.9-2.4-4.5-.8-7.4 3.5-11.6 4.8-3.5 1.1-8.2.8-11.8.9-1.8.1-2.1 2.5-.4 3.1 4.8 1.5 8.9 3.9 14.2 3 4.4-.8 11.5-4.3 11.5-9.4zM213.2 506c.2-12 .8-23.8 1.5-35.8.8-13 1.4-25.9 3.8-38.7 2.4-12.5 7.6-24.2 11.7-36.2 2.1-6.3 4.2-12.7 6.4-19 1.8-5.1 2.9-9.7 2.1-14.9-.4-2.7-4.2-2.2-5 0-3.9 11.1-8.2 22.2-12.1 33.3-4.4 12.5-9.7 24.4-12 37.6-2.1 12-2.7 24.3-3.4 36.5-.5 9-1.5 18.2-1.8 27.3-1.7 2.2-1.5 6.5-1.9 10h10.7zM155.8 356.7c-6.7 6.5-13.9 12.6-21.9 17.5-8.5 5.3-17.7 8.6-26.9 12.4-.1 0-.2.1-.3.2h-1.9c-2.3 0-2.6 3.2-.5 3.9.3.1.5.2.8.2.2.6.6 1.1 1.1 1.5 1.8 4 5.5 6.3 9.1 8.7 4.2 3 4.5 7.5 7 11.6 1.9 3.1 6.4 1.3 6.2-1.9.4-.3.8-.7 1.2-1.2 4.5-6.6 6.4-14.1 10.2-21 2.7-5 7.4-10.4 7.2-16.4 4.6-3.8 8.6-8.3 11.2-13.7.7-1.5-1.2-3.1-2.5-1.8zM53.5 371.7c-.1 0-.1.1-.2.1-.3.1-.6.2-.9.4-.4.2-.7.5-1 .9-.8.8-1.1 2-1.1 3.1 0 1.6 1.3 3 3 3 1.6 0 2.6-1.1 2.9-2.5v.2-.2c.1-.1.2-.3.2-.4.3-.7.5-1.5.3-2.2.4-1.8-1.6-3.4-3.2-2.4zM380.5 414.9c-10.6 0-21.3-4.6-30.2-10-9.2-5.6-19.4-14-21.1-25.3-.3-1.9-3.4-1.4-3.3.4.3 6.1 2.4 11.5 5.5 16.3-.2.3-.4.6-.5 1-2.9 12.8-.4 25.8-2.3 38.6-.9 6.3-1.4 12.6-1.9 18.9-.5 5.7-2.2 12.5-.7 18.1-.1.4-.2.9-.2 1.3-.3 2.3 2.2 4.3 4.1 2.4 4.6-4.6 6.6-11.4 8.3-17.5 0-.1 0-.2.1-.2 2.6-2.5 5.8-4.7 9-6.7 2 .9 4.7.3 5.3-2.5.1-.3.1-.5.2-.8 2.5-1.5 5-3 7.2-4.7 1.8-1.3 2.4-3.5 1.5-5.3 2 .4 4.4-.4 4.8-2.8.4-2.5 1.2-4.8 2.7-6.7 1.2-.3 2.1-1.3 2.6-2.4 2.4-1.7 6.6-4.1 9.3-4.1 4.8.2 4.8-8-.4-8zM330.9 506c-1.1-1.2-2.7-1.7-4.3-1.7 0-.4-.1-.9-.1-1.3 0-.9-.7-1.7-1.5-2-.8-1-2.6-1.3-3.2.2-.7 1.6-1.1 3.3-1.7 4.9h10.8z" opacity="1" fill="#dd9d6450" data-original="#dd9d6450"></path></g><path fill="#fff" d="M139.4 340.2c7.1-2.9 18.7-3.7 22.6-11.2.9-1.8-.2-4.6-2.5-4.3-4.1.4-7.4 2.1-11.3 3.5-1 .3-2 .7-3 1-.3-1.2-1.3-2.2-2.6-2-7 .9-13.7 3.5-20.3 6.1-3.3 1.3-6.5 2.7-9.7 4.1-3.3 1.4-7.3 2.5-9.1 5.8-.1.2-.2.4-.2.5-8 2.7-15.9 6.1-23.6 9.5-8.5 3.9-19 8.4-25 16-1.2 1.6-.2 4.5 2.1 3.7 8.8-3 17-8.3 25.5-12 9-3.9 18.5-7.4 27.9-10.3 10-3.2 19.6-6.6 29.2-10.4zM115.9 506c1.4-4.9 2.6-9.6 3.3-14.7 1-6.7 3.7-12.9 5.9-19.3 4.8-14 8.1-28.6 12.2-42.8 3.9-13.4 10.2-25.8 16.2-38.3 5.5-11.6 11.3-24.1 12.2-37.1.2-3.2-4.2-3.4-5.2-.7-4.5 12.5-9.4 24.5-15.4 36.4-5.1 10.2-10.1 20.2-13.9 30.9-5 6.1-8 14.3-10.7 21.5-2.8 7.3-5.7 14.8-6.9 22.5-1.1 7.1-1.7 14.4-2.9 21.5-1 5.7-2.3 12.9-7.1 16.7-1.2.9-1.4 2.3-1.1 3.6h13.4zM181.7 506c.2-11.9-2.2-23.8-.4-35.9 1.1-7 2.8-13.8 4.3-20.7 1.5-6.7 2.7-13.2 4.7-19.8 3.6-11.9 8.1-23.7 13.4-34.9 2.9-6 5.9-12 9-17.8 3.1-5.7 7-11.7 8.9-17.9.7-2.3-2.1-3.6-3.7-2.2-4.6 4-7.6 9.9-10.8 15-3.7 6.1-7 12.6-10.1 19-5.7 11.8-10.4 24.2-14.3 36.7-4.1 13-6.9 27-9.1 40.4-2.1 12.5-1.1 25.4.4 38h7.7zM200.3 361.7c1-.9 1.1-2.5.5-3.6-.1-.2-.3-.4-.5-.6-.6-.7-2-1.1-2.9-.8-5.1 2.1-9.1 4-11.9-1.9-2.3-4.7-1.6-10.1-2-15.2-.1-2-2.7-2.8-3.8-1-3.7 5.8-2.3 15 .7 20.8 4.1 8 13.8 8 19.9 2.3zM275.6 359.4c-2.6-.9-5.6.1-8.2.7-3.1.7-6.1 1.3-9.3 1.6-7.3.7-11.8-1.7-14.8-8.4-.8-1.8-3.8-.9-3.7 1 .4 8.4 6 13.1 14 13.9 3.9.4 8-.4 11.8-1.1 3.6-.7 8.2-1.1 11.2-3.4 1.8-1.3.6-3.7-1-4.3zM454.7 405.4c-18.1-14.9-30-35.6-47.2-51.3-7.7-7-13.6-15.5-23-20.4-4.8-2.6-10.1-3.5-15.5-3.5-6.3 0-12.5 2.1-18.8.9-2.8-.5-3.7 3.2-1.2 4.2 10.1 4.2 21.6.3 31.3 5.4 8.9 4.6 14.8 13.8 22.1 20.4 9.2 8.4 16.8 18.3 24.7 27.9-1.1.2-2.1.4-3.1.5-3.6.2-7.3.8-10.8 1.4-8.4 1.4-16.5 4.6-24.8 6.7-1.2.3-.8 1.9.3 2 8.5.6 16.9-2 25.4-2.3 4-.2 10 .9 15 .3 0 1.1.6 2.2 2 2.6 4.2 1.3 6.6 4.4 8.4 8.2 1.2 2.5 4.1 1.8 5.3-.1 1.2 1.1 2.5 2.2 3.8 3.3 4.3 3.5 10.4-2.6 6.1-6.2z" opacity=".6"></path><path fill="#fff6f1" d="M326.4 506h74.3c-.7-1.3-1.7-2.3-3.3-2.8-2.1-.6-4.1-.3-6.1-.1-1.7-1.1-3.6-2-5.2-2.9-3.2-1.8-6.5-3.4-10-4.5l-.2-.2c6.6-1 12.8-3.9 18.9-6.5 14.2-6.1 29.4-9.5 43-17 10-5.5 20.6-12.8 22.8-24.9 1.8-10.4-3-24.8-12.1-30.9.2-2.2-1.1-4.5-3.9-4.2-15.6 1.3-30.7 2.1-45.8 6.7-9.6 2.9-24.2 6.1-28.4 16.6-.4.9 0 1.9.7 2.5-3.7 2.2-7.2 4.7-10.6 7.4-9.5 7.5-18.1 16.2-27.3 24.1-7.5 6.6-14.6 14.6-13.2 25.2.8 4.3 3.1 8.3 6.4 11.5zM69 458.8c7.6 8.3 16.9 16.7 27.2 21.5-.6 1.4-1.1 2.9-1.7 4.4-1.5 3.9-2.6 7.9-4.5 11.6-2-1.2-4.3-1.9-6.9-1.6-2.1.2-3.5 1.9-3 4 .7 3.2 2 5.7 4.6 7.1v.4h16.5c.3-.5.6-1.1.6-1.9.1-2.4-.8-4.7-.6-7.2.2-3.5 1.4-7 2.4-10.3 2.2-6.8 5.2-13.3 7.6-20 2.7-7.6 5.6-15.2 8.3-22.8 2.1-5.6 4.4-12.1 4.3-18.2 2-1 3.5-3.5 1.9-5.7-8.5-11.9-18.8-23-29.8-32.5-5.2-4.5-11.2-7.2-17.7-9.2-3.2-1-6.5-1.7-9.9-2.2-.4-.1-.8-.1-1.2-.2-.3-.1-.6-.2-.9-.2-1.8-.4-3.6-.6-5 .5-.7.5-1.1 1.2-.9 2.1-2.9 1.6-5.5 3.7-7.9 6.6-3.2 3.8-5.4 8.3-6.5 13.2-2.4 10.4.7 21.6 4 31.4 3.7 10.8 11.3 20.6 19.1 29.2z"></path><path fill="#fdb8a9" d="M455.8 429.6c-1.6-3.8-3.7-7.5-6.1-10.7 0-.2-.1-.3-.1-.5-.1-.5-.4-.9-.7-1.2 1.3-1.1 1.4-3.2.2-4.5-3.1-3.5-10.3-3-14.6-2.9-5.8.2-11.7 1.4-17.3 2.8-6 1.5-11.8 3.5-17.5 5.6-4.5 1.6-10.2 3.2-14.1 6.1-5.7 1.4-11.1 3.5-15.5 6.7-2.1 1.6-.8 4.5 1.7 4.1 5.5-.9 10.8-2.3 16.2-3.4 13.5 2.1 27.5 2.9 39.9 9 5.3 2.6 10.2 6.2 14 10.8 1.8 2.1 3.1 4.8 3.3 7.5.3 3-1.6 5.3-2.3 8.1-.6 2.3 2.1 4.8 4.3 3.3 1.6-1.1 2.7-2.5 3.5-4.1.2-.2.5-.4.7-.7 1.1-1.6 2.2-3.3 3-5.2 1.4-.7 2.6-2 3.5-3.5.9.1 1.9-.1 2.7-.9 5.5-5.5 4.1-13.3.7-19.4-1.4-2.3-3.4-4.6-5.5-7zM353.1 504c.4.7.9 1.3 1.3 2h21.1c-4.5-3.3-8.7-7.2-13.3-10.4-3.1-2.1-5.9 2.3-3.7 4.9 1.1 1.3 2.3 2.9 3.5 4.5-.1-.1-.2-.1-.2-.2-3.7-3.9-6.4-10-12.3-11.1-1.5-.3-3.1 1.2-2.1 2.7 1.8 2.6 3.9 4.9 5.7 7.6zM371.9 501.5c1.9.5 3.2.3 5 1.5 1.4.9 2.6 1.9 3.8 3h18c-.8-1.3-1.9-2.4-3.2-3.4-.3-.3-.6-.6-1.1-.8-3-2-6.6-3.3-9.7-4-1.6-.3-3 .8-3.5 2.1-2.7-1.9-8.8-5.1-10.4-.3-.2.8.3 1.7 1.1 1.9zM124.7 422.4c-.6-5-3.2-8.9-6.4-12.4-1.4-2.7-3-5.3-5.1-7.6-1.1-1.2-2.5-1.3-3.7-.9-1-.8-2.1-1-3-.8-1.6-1.4-3.4-2.5-5.5-3.4-1.4-1.6-2.9-3.1-4.6-4.3.4.1.7.1 1.1.2 2.9.5 6.2-3.3 3.3-5.6-4.6-3.6-9.9-5.5-15.5-7-5.7-1.5-11.6-3.5-17.4-4.3-10.5-1.6-15.3 6.3-20.9 13.7-.5.7-.7 1.5-.5 2.3-.7.9-1.2 2-1.4 3.2-.2 1.4 1.2 2.3 2.4 1.4.7-.6 1.5-1.1 2.3-1.5.7.1 1.3-.1 1.9-.5.4-.3.7-.5 1.1-.8 5.7-2 12.7-2 18.1-2.2 2-.1 3.9-.1 5.9-.1 1.4 2 4.3 3.5 6.1 4.7 5.2 3.4 9.8 6.2 13.9 11 2.9 3.5 5.2 7.4 7 11.6.9 2.9 1.6 5.9 2.2 8.9 1.5 7.5 2.1 15.1 1.7 22.7s-1.4 15.1-2.5 22.6c-.9 5.8-3.1 14-.9 19.6.3.8 1.3.9 1.8.2 2.1-2.9 2.5-6.5 3.4-9.8 1-3.8 2-7.7 2.9-11.6 1.2-5.2 2.2-10.5 2.8-15.8l.3-.3c2.4-2.7 2.6-7.2 2.1-11.7 3.6-6.5 7.9-14.2 7.1-21.5zM251.8 336.7c-11.3 1.6-22.7-.3-34 .2-.4 0-.9.1-1.3.3-1.1-1.8-4-1.7-4.8.6-1.5 4.2-1.2 8.9 2.5 12 3.5 3 8.5 3.1 12.9 2.5 9.4-1.1 18-5.1 26.7-8.5 4.5-1.7 2.7-7.7-2-7.1z"></path><path fill="#f76385" d="M230.6 298c-1-3.3-2.8-6.3-4.2-9.5-.3-.7-.8-1.1-1.3-1.4-1.2-1.8-4.2-2.4-5.2 0-1.5 3.6-3.5 7.1-5.1 10.7-.7 1.5-.1 3.2.9 4.1-.3 1.2-.5 2.4-.7 3.6-.2 1.4 1.8 2.6 2.5 1.1l1.2-2.4c.5.1.9 0 1.5-.2 2.5-1 5.4-1.2 8.1-1.6 1-.1 1.5-.7 1.6-1.5.7-.6 1-1.7.7-2.9z"></path><path fill="#ff90b9" d="M236.8 308.7c-.8-1.2-1.5-2.4-2.2-3.7l.1-.1c.9-1.3 0-3.3-1.5-3.7-.3-.1-.6-.1-.9-.2l-.9-1.2c1.6-1.7-.6-4.2-2.6-3.8-3.2.6-6.7 3-9.4 4.7s-5.3 4.3-5.5 7.6c0 .6.3.9.8 1.1.5 1.4 2.3 2.5 3.8 2.3h.3c.2.1.4.1.6.1 2.6.2 5.3.3 7.9.7 2 .3 4 .9 5.7.2.2 0 .3.1.5.1 2.3.7 4.7-2 3.3-4.1z"></path><path fill="#851919" d="M149.2 95.5c-12.8 8.2-21.5 20.8-27.9 34.3-6.6 13.9-11.2 29.8-11.4 45.3 0 2.5 3.6 2.4 3.8 0 2-28.2 13.5-60 36.8-77.6 1.1-.8.1-2.9-1.3-2z"></path><path fill="#851919" d="M110.3 177.2c3.3 1 6.8.5 10.2.3 4.3-.2 8.7-.4 13-.5 8.4-.3 16.7 1 25 .8 1.9 0 2.3-2.8.4-3.3-7.5-2.1-16.1-1.6-23.8-1.4-4.3.1-8.7.3-13 .5-3.9.2-8.1-.1-11.8 1.2-1.1.5-1.2 2.1 0 2.4z"></path><path fill="#851919" d="M169.9 138.7c-4.5 4.8-7.1 12-9 18.1-2.1 6.8-3 14-3 21.1 0 2.5 3.9 2.5 3.9 0-.1-6.8.9-13.5 2.9-20 1.8-6.2 5.2-12.1 6.7-18.3.2-.9-.8-1.6-1.5-.9z"></path><path fill="#851919" d="M160.2 180.4c2.1.2 4.2 0 6.3.2 1.9.1 4.7 1 6.1-.6.5-.6.5-1.4 0-2-1.3-1.6-4.8-1.2-6.8-1.3-2.4-.2-4.5-.1-6.5 1.4-1 .8-.1 2.2.9 2.3z"></path><path fill="#851919" d="M190.8 130.1c-12.2 13.1-17.7 30.5-20 48-.3 2.4 3.4 3.5 3.7 1 1.1-8.5 3-16.8 6-24.8 3-8.1 7.3-15.8 11.3-23.4.4-.7-.5-1.4-1-.8z"></path><path fill="#851919" d="M192.9 124.6c-9.1 16.9-6.6 38.7-.7 56.3.8 2.4 4.5 1.3 3.7-1-2.9-8.6-4.7-17.4-5-26.4-.3-9.6 1.7-18.9 3.4-28.2.1-.9-1-1.5-1.4-.7z"></path><path fill="#851919" d="M232.8 105.8c-13.7 5.2-23.5 19.8-29.6 32.5-3.4 7.1-5.9 14.7-7.5 22.4-1.4 6.6-2.7 14.3-1.4 21 .4 2.1 3.4 1.4 3.5-.5.5-6.6.3-12.9 1.6-19.5 1.5-7.4 4-14.6 7.1-21.5 3.2-6.8 7.2-13.4 12-19.2 4.4-5.4 9.7-9.5 15.1-13.7.7-.6 0-1.8-.8-1.5z"></path><path fill="#851919" d="M230.3 107.4c-7.4 8.7-9.2 22.1-9 33.2.2 10.5 3.1 21.2 8.7 30.1 9.9 15.7 28.4 21.9 46.2 22.2 2.5 0 2.5-3.8 0-3.9-16.7-.2-33.2-5.9-42.8-20.3-5.5-8.2-7.7-18.4-8.2-28.1-.3-5.4.4-10.8 1.5-16.1 1.2-5.6 3.6-10.8 4.8-16.3.2-.8-.7-1.4-1.2-.8z"></path><path fill="#851919" d="M273.5 158.2c-4.1 10.3-4.4 23.8 1 33.6 1.2 2.2 4.5.2 3.3-2-2.7-5-3.6-10-3.4-15.7.2-5.2 2-10.4 1.4-15.7-.1-1.2-1.8-1.5-2.3-.2z"></path><path fill="#851919" d="M273.8 160c1.4 8.9 5.1 18.5 11.7 24.7 7.5 7.1 17.7 10.5 26.8 14.9 2.2 1.1 4.2-2.2 2-3.3-8.5-4.2-17.6-7.3-25-13.4-7.7-6.3-8.4-15.8-13.2-23.9-.7-1.3-2.5-.3-2.3 1z"></path><path fill="#851919" d="M311.3 127c-2.6 9.8-4 19.5-4.6 29.6-.8 13.7 1.3 26.5 5.6 39.5 4 12.3 10.7 22.5 19.3 32.2 7.8 8.8 19 19.6 19.6 32.2.1 2.5 4 2.5 3.9 0-.5-11.1-8-20.4-14.9-28.5-3.7-4.4-7.7-8.5-11.3-12.9-4.9-6-8.6-12.8-11.4-20-5.1-13.3-7.5-26.9-6.9-41.1.4-10.3 2.6-20.4 2.7-30.7 0-1.2-1.7-1.4-2-.3z"></path><path fill="#851919" d="M337.1 199.4c4.1 24.9 13.3 48.6 15.8 73.9 1.3 12.5.9 25.2-2.2 37.4-1.6 6.3-4.2 12.4-7.1 18.1-3.3 6.3-8.3 11.7-11.4 18-.8 1.6 1.1 3.1 2.5 1.9 4.9-4.3 8.4-11 11.5-16.6s5.6-11.6 7.5-17.8c3.8-12.3 4.2-25.4 3.3-38.2-1.9-26.2-9.4-52.7-18.3-77.2-.3-1-1.8-.6-1.6.5z"></path><path fill="#851919" d="M378.1 173.6c1.7 30.4 3.3 61-2.3 91.2-2.8 15.1-7.5 29.8-14.3 43.6-7 14.1-18.1 25.5-28.7 36.9-1.7 1.8 1 4.6 2.7 2.7 10.5-11.3 21.5-22.6 28.7-36.4 7.3-13.9 12-29 15.1-44.4 6.1-30.7 6-63.2.3-93.8-.2-.9-1.5-.7-1.5.2z"></path><path fill="#851919" d="M382.4 241.1c5.1-12.6 17.7-19.4 31.2-18.5 16.6 1 22.3 19.8 19.9 33.8-2.6 15-12.2 29.6-24.6 38.3-4.9 3.4-11.7 4.5-17.6 4.9-5.8.4-13.5-.1-16.7-5.7-1.3-2.4-4.7-.3-3.6 2.1 2.9 6.5 10.9 7.9 17.3 8 7.1.2 15-1.3 21.3-4.7 7.5-4 13.7-11.7 18.3-18.6 5.1-7.7 8.9-16.7 10-25.9 1.9-16.2-5.8-33.9-23.5-36-7.7-.9-15.8 1.4-22.5 5.2-5.7 3.2-12 9.1-12.6 16v.9c0 1.7 2.5 1.8 3.1.2z"></path><path fill="#851919" d="M414.7 245c-13.7-.3-26.4 18.7-25.7 31.3.1 1.9 2.7 2.3 3.3.5 1.1-3 1.4-6.2 2.4-9.2 1.1-3.1 2.7-6 4.6-8.8 4.2-6 10.1-7.9 16-11.3 1.2-.7.7-2.5-.6-2.5z"></path><path fill="#851919" d="M398.2 256.8c.6 1.7 2.1 2.8 2.7 4.5.6 1.8.4 3.8 0 5.6-.6 2.4 3.2 3.5 3.7 1 1-4.1.7-12.5-5.1-12.9-.9-.1-1.6.9-1.3 1.8zM118.6 173.6c-5.8 7-8.3 16.8-9.8 25.6-1.7 9.8-1.8 19.8-2.3 29.8-.1 2.5 3.8 2.5 3.9 0 .4-9.1.6-18.3 1.9-27.3 1.4-9.6 5.3-17.7 8.7-26.6.5-1.4-1.5-2.6-2.4-1.5zM130.7 318.4c37 17.7 80.6 21.9 121.1 21.9 18.5 0 37-1.2 55.3-3.6 12.2-1.6 25-3.2 36.7-7.2 1.3-.4 2.6-.9 3.8-1.4 2.3-.9 1.3-4.6-1-3.7-10.3 3.8-21.9 5.4-32.7 7-17.8 2.7-35.7 4-53.7 4.4-41.7 1-85.6-2.6-124.3-19.2-1.1-.5-2.2-1-3.3-1.4-2.2-1-4.1 2.2-1.9 3.2z"></path><path fill="#851919" d="M106 228c-9.4 8-15.8 19.8-18.7 31.7-2.9 12.2-.1 23.1 7.5 32.8 17 21.7 46.4 32.3 72.2 38.8 2.4.6 3.4-3.1 1-3.7-23.9-6.5-49.5-16.2-67-34.5-8.8-9.3-12.5-19.7-9.8-32.3 2.4-11.6 9-22 17.4-30.1 1.8-1.8-.8-4.3-2.6-2.7zM167.8 244.6c-1.7 13.4-12.4 24.7-23.6 23.2s-18.3-13.5-16.9-28.6c1.3-13.5 9.1-26.7 24.4-25.2 15.8 1.5 17.9 17.1 16.1 30.6zM341.8 47.6c34.4 7.5 66.8 24.9 87.6 53.8 7.7 10.7 13.5 21.9 16.7 34.8 2.8 11.5 3.8 23.3 5 35.1 1.4 14 2 28.1 2.3 42.2.6 30.5-.3 61.1-1.3 91.6-.4 10.7-1.2 21.5-4.7 31.6-3.9 11.1-12.1 19.9-22.1 25.9-2.1 1.3-.2 4.6 2 3.3 7.9-4.8 14.7-10.5 19.8-18.3 4.6-7.1 7-15.5 8.3-23.8 1.5-9.4 1.6-18.9 1.8-28.4.2-12.6.6-25.2.9-37.8.6-28.2.6-56.5-1.9-84.6-1.9-20.6-3.4-43-14.2-61.2-7.6-12.8-16.5-24.6-27.8-34.5-20.1-17.8-45.2-28-71.2-33.4-2.6-.6-3.6 3.1-1.2 3.7z"></path><path fill="#851919" d="M425.1 318.6c-1.4 2.2-1.4 4.6-1.7 7.3-.4 3.7-.9 7.3-1.3 11-.9 6.4-1.9 12.6-2.9 19-.3 2.3 2.5 3 3.4.9 2.2-5.5 3-11.8 3.7-17.7.4-3.3.5-6.6.7-9.9.2-3.4 1.3-7 .3-10.3-.4-1-1.7-1.2-2.2-.3zM343.7 44.3c-9.8-11.6-23.9-18.6-38-23.5-17.5-6.1-36.3-8.9-54.8-9.1-17.7-.2-35.8 2.4-52.1 9.5-9.1 4-17.2 10.1-24.9 16.3-9.8 8-18.7 17-27.1 26.4-16 18-29.7 37.6-42 58.3C89 148.9 75.5 177.3 66.3 207c-7.7 25.1-12.2 51.8-9.5 78 2.8 26.9 14.1 51.1 33.3 70.1 1.8 1.8 4.5-1 2.7-2.7-52-51.7-32-131.4-4.5-190.1 10.7-22.8 23.3-44.7 37.7-65.4 8.2-11.8 17.2-22.9 26.9-33.5 14.8-16.3 32.2-33 53.2-40.7 23.6-8.7 50.5-8.4 75-3.9C302 22.6 326.8 30.1 341 47c1.6 2 4.3-.8 2.7-2.7z"></path><path fill="#851919" d="M226.7 111.8c-13.6 15.4-15.4 37.8-5.7 55.6 9.2 17 30.7 28.6 49.9 23 1.2-.3 1-2.3-.3-2.2-10.1.7-19.2.8-28.5-3.7-8.2-3.9-14.7-10.5-19.1-18.3-10-17.4-6.5-37.8 5.2-53.3.6-.8-.8-1.9-1.5-1.1zM306.2 180c0 11.4 1.8 22.3 6 33s10.3 20.5 16.5 30.2c6.9 10.7 14.6 20.4 19.2 32.5 4.8 12.5 4.6 25.1 2.4 38.1-.2 1 1.1 1.3 1.5.4 8.4-23.5-2.3-46.3-15.9-65.2-7.1-9.8-14-20-19.4-30.9-5.8-11.8-8.9-24.8-9.4-37.9 0-.8-.9-.8-.9-.2zM175.7 36.4c-4.4 5.7-10.5 9.6-15.6 14.7-.4.4.2.9.6.6 5.6-4.5 11.2-8.9 16-14.3.5-.7-.5-1.7-1-1zM452 169.2c.3 26 1.5 53.4 10.7 78 4.7 12.5 6.5 25.8 4.3 39-2.2 13.5-8.8 25.9-15.4 37.7-.6 1 .9 1.9 1.6.9 7.2-10.9 13.2-22.5 16.1-35.3 2.8-12.4 1.7-25.1-1.9-37.2-1.9-6.3-4.5-12.4-6.2-18.7-1.8-6.8-2.9-13.8-3.8-20.8-1.9-14.5-2.5-29.1-3.9-43.7 0-.9-1.5-1-1.5.1zM436 297.7c-.3 10.3-.8 20.6-2.6 30.8-1.9 11.2-6 21-11.8 30.6-.6 1.1.9 2.2 1.7 1.3 7.3-7.9 10-19.8 11.9-30.1 2-10.7 2.7-21.7 2-32.6 0-.8-1.2-.8-1.2 0zM393.8 105c3.5 16.8 9 33.1 12.7 49.8 1.9 8.8 3.3 17.6 3.9 26.5.6 8.7-.2 17.2-.7 25.9-.1 1 1.5 1.2 1.8.2 3.7-16.3 1.3-34.1-1.9-50.2-3.5-17.8-8.8-35.4-14.3-52.7-.4-.7-1.6-.3-1.5.5zM417 169.8c1.8 7.4 1.6 14.9 2.7 22.4.1.6 1.1.6 1.2 0 1.3-7.5-.2-15.6-2.3-22.8-.4-1-1.8-.6-1.6.4zM281.4 96.5c-4.1 8-8 16-11.3 24.4-1.5 4-2.8 8.1-3.9 12.2-1.1 4.2-2.6 9.2-2.1 13.5.1.7.9.8 1.1.2 1.5-3.6 1.8-7.9 2.7-11.7 1-4.2 2.3-8.3 3.7-12.3 3-8.8 7.1-17.2 11-25.6.3-.8-.8-1.5-1.2-.7zM270.1 110.8c-3.2 5.3-5.9 11.3-7 17.4-.2 1.1 1.3 1.5 1.6.5 2.1-5.8 3.8-11.6 6.8-17 .5-1-.9-1.9-1.4-.9zM219.1 72.2c-12.5 8.3-29.6 18.5-34.4 33.6-.3 1.1 1.2 1.6 1.7.7 4.3-6.9 8.4-13.3 14.3-19 5.7-5.5 12.3-10 18.8-14.4.8-.3.2-1.3-.4-.9zM197.8 82.2c-4.2 3.3-8 7-11.4 11.2-.2.2.1.5.3.3 3.6-4 7.4-7.7 11.6-11 .4-.3-.2-.8-.5-.5zM138.2 105.5c-13.3 9.3-22.3 22.2-29.1 36.7-2.9 6.3-5.6 12.7-7.6 19.4-1.4 4.7-3.5 12-.6 16.5.3.5 1.1.3 1.1-.3 0-5.8.3-11 2-16.7 1.9-6.4 4.6-12.5 7.4-18.6 6.5-14 15.4-26.4 27.7-35.9.6-.5-.2-1.6-.9-1.1z"></path><path fill="#851919" d="M364.3 150.1c12.9 29.3 8.8 63.7 5.4 94.6-1.8 16.3-4.4 32.6-8.9 48.4-2.2 7.8-5.1 15.4-8.4 22.8-3.2 7.2-7.9 13.8-10.8 21.1-.4 1 1.1 1.8 1.7 1 5-5.8 8.2-13.8 11.4-20.7 3.3-7.2 5.9-14.6 8.2-22.2 4.8-15.9 7.2-32.4 9.1-48.9 1.9-16.7 3.3-33.6 2.6-50.4-.7-15.9-2.6-31.7-9.6-46.2-.2-.6-1-.1-.7.5zM341.8 43.6c22-4 43.1 5.7 60.1 18.9 8.8 6.8 16.6 14.9 23.4 23.7 3.2 4.1 6.2 8.1 8.7 12.6 2.5 4.4 4.3 9.1 6.5 13.7.2.4.8.1.7-.3-2-9.9-8.6-20.2-14.5-28.2-6.9-9.2-15.2-17.3-24.3-24.2-16.8-12.9-39.5-22.6-60.8-16.9-.4.1-.2.8.2.7z"></path><path fill="#851919" d="M197.3 21.5c36.1-10.6 76.2-20.1 112.8-6.1 9.1 3.5 17.8 8.6 24.4 15.9 2.5 2.7 7.1 8.2 5.7 12.3 0 .1 0 .1-.1.1-.7 1.1 1 2.1 1.7 1 2.4-3.6-.6-8.5-2.7-11.5-4.7-6.8-11.7-11.9-18.9-15.9-28.2-15.5-63.3-12.7-93.6-5.6-10.1 2.3-19.8 5.4-29.4 9.3-.3.1-.2.6.1.5z"></path><g fill="#fff"><path d="M165.7 227c-.2-.4-.5-.7-.7-1-.4-1.6-1.4-2.9-3.1-3.9-3.2-1.7-6.9.4-8.8 3.1-2.1 2.9-2.8 7.6-1 10.9 1.5 2.8 4.3 3.9 7.2 3.8 2.6-.1 5.4-1.7 6.8-3.9 1.9-2.8 1.3-6.2-.4-9zM148.7 239.4c-1.8-.2-2.1 2.6-.4 2.8 1.8.3 2.2-2.5.4-2.8z"></path></g><path fill="#851919" d="M272 248.8c-1.8 13.4-12.4 24.7-23.6 23.2s-18.3-13.5-16.9-28.6c1.3-13.5 9.1-26.7 24.4-25.2 15.7 1.6 17.8 17.2 16.1 30.6z"></path><g fill="#fff"><path d="M269.8 231.3c-.2-.4-.5-.7-.7-1-.4-1.6-1.4-2.9-3.2-3.9-3.2-1.7-6.9.4-8.8 3.1-2.1 2.9-2.8 7.6-1 10.9 1.5 2.8 4.3 3.9 7.2 3.8 2.6-.1 5.4-1.7 6.8-3.9 2-2.9 1.4-6.2-.3-9zM252.8 243.7c-1.8-.2-2.1 2.6-.4 2.8 1.8.3 2.2-2.5.4-2.8z"></path></g><path fill="#851919" d="M87.6 303.5c-4.9 16-.8 35.5 4.4 50.9.7 2.1 3.6 1.2 3.3-.9-1.4-8.2-3.8-16.2-5-24.4-1.3-8.5-1.6-16.8-.5-25.4.1-1.1-1.8-1.3-2.2-.2zM263 336.5c-5.4 1.7-10.2 6.2-15.1 9-6 3.4-12.5 5.9-19.4 6.6-4.9.5-10.7-.1-14.3-3.9-3.6-3.9 0-8.7-.6-13-.1-.7-1-.9-1.5-.6-4.3 2.4-4.6 9.5-2.9 13.7 2 5 7.3 7.2 12.2 8 7.4 1.2 15.4-.7 22.1-3.8 4-1.8 7.8-4 11.5-6.5 3.3-2.2 7.1-4.5 9.4-7.9.5-.8-.4-1.9-1.4-1.6zM341.8 337.8c10.4-6.8 21.2-9.3 33.3-5.5 12.3 3.9 22.8 12.5 32 21.2 9.9 9.4 18.6 19.9 26.8 30.8l10.5 14.1c3.4 4.6 6.7 11.5 12.2 13.6.7.3 1.5-.6 1.3-1.3-1.4-3.5-4.1-6.6-6.3-9.8-1.5-2.3-3.1-4.5-4.6-6.8-3.6-5.3-7.3-10.4-11.2-15.5-8.8-11.5-18.2-22.5-29-32.2-17.8-16-46-31.2-66.6-10.9-1.3 1.2.2 3.2 1.6 2.3z"></path><path fill="#851919" d="M456.9 411.4c-6.9-3.6-15.6-3.6-23.3-3.5-9.8.1-19.6 1.6-29.1 3.9-9.2 2.2-18.2 5.6-26.3 10.4-4.9 3-15.3 9.7-14.3 16.5.1 1 1.4 1.3 2.2.9 2.5-1.3 4.1-4.6 6-6.6 2.7-2.9 6-5.1 9.4-7.1 7.8-4.7 16.6-7.5 25.4-9.7 8.8-2.1 17.8-3.3 26.8-3.6 7.6-.3 15 .7 22.6 1.5 1.3 0 1.8-2.1.6-2.7z"></path><path fill="#851919" d="M322.8 506h7c-1.9-2.1-4.1-4.1-5.5-6.7-2.1-3.9-2.1-8.3-1-12.5 2.4-8.8 10.2-15.9 16.5-22.1 14.8-14.4 30.4-28 51.9-29.7 1.6-.1 2.3-2.8.4-3.1-23-3.4-42.7 16.4-57.6 31.2-7.1 7-14.8 15.2-16.6 25.4-.7 4.2.1 8.2 1.8 12.1.7 1.7 1.8 3.6 3.1 5.4zM447.3 412.5c3.8 11.1 13.4 20 14.7 32.1 1.5 14.1-16.2 23.1-26.7 28.5-12.6 6.5-26.4 10.6-40.1 14.1-7.2 1.8-14.5 3.4-21.8 4.5-4.1.6-8.2 1-12.3 1.4-3.8.3-8-.1-11.6 1.4-1.5.6-1.5 2.5 0 3.1 3.7 1.4 7.8.8 11.6.5 4-.3 8-.8 12-1.3 8.4-1.1 16.6-3 24.8-5 15.1-3.8 30-8.6 43.7-15.9 11.2-6 24.9-14.9 25.7-28.9.3-6.2-2.5-12.5-5.3-17.8-3.3-6.1-7.1-12.3-11.2-17.9-1.3-1.8-4.3-.9-3.5 1.2z"></path><path fill="#851919" d="M324 356.5c-1.9 15.9.9 30 7.5 44.6 6.8 15.1 16.9 28.8 26.8 42 1.8 2.3 5.8 0 4-2.3-9.4-12.5-18.5-25.3-25.7-39.3-3.5-6.8-6.4-13.9-8.1-21.3-1.7-7.7-2-15.8-2.4-23.7-.1-1.4-1.9-1.3-2.1 0z"></path><path fill="#851919" d="M351.7 431.4c4.3-6.3 8.9-12.4 14.6-17.5 3-2.7 6.3-4.9 9.8-6.9 2.8-1.5 6.1-2.3 8.5-4.3.5-.4.2-1.3-.4-1.4-6.7-1-14.4 5.3-19.3 9.3-6.4 5.4-11.7 12.3-14.9 20.1-.3 1 1.2 1.4 1.7.7zM406.1 397.5c6.4.2 12.8 0 19.2.2 3.3.1 6.5.5 9.7 1.3 3.1.7 5.9 2.6 9.1 2.4.9-.1 1.6-1 1.1-1.9-3.1-4.8-11.7-5.2-16.9-5.6-7.5-.5-15 1-22.3 2.5-.8 0-.6 1 .1 1.1zM104.8 506c2.5-13.2 7-25.6 11-38.5 4.3-14 7.6-28.4 12-42.4s10-27.3 16.9-40.1c3.3-6.1 6.8-12.2 10.2-18.4 3.3-5.9 7.5-12.2 9.2-18.8.3-1-1.1-2-1.9-1.1-3.9 4.9-6.7 11.1-9.9 16.5-3.8 6.5-7.7 12.9-11.4 19.5-7 12.6-12.4 25.9-16.9 39.6-4.6 14-8 28.3-12.1 42.5-3.9 13.6-10.3 27-11.6 41.2zM153.4 324.7c-8.5-2.4-19.1 1.5-27.1 4.2-9.5 3.3-18.9 7.2-28.1 11.1-9.3 4-18.2 8.7-26.8 14-4.2 2.6-8.3 5.4-12.4 8.3-3.4 2.5-7.2 4.8-9.5 8.5-.6 1 .4 2.4 1.5 2 3.9-1.3 7-4.2 10.3-6.6 3.6-2.6 7.3-5.1 11.1-7.6 8.1-5.2 16.5-9.7 25.2-13.6 8.8-4 17.9-7.4 26.9-10.8 4.4-1.7 8.9-3.1 13.5-4.3 5.1-1.3 10.4-1.4 15.4-3 1.2-.1 1.3-1.8 0-2.2z"></path><path fill="#851919" d="M51.2 373.3c12.8 1.5 25.3 5 36.8 10.8 5.9 3 11.4 6.7 16.4 11 2.2 1.9 4.4 4 6.3 6.2 1.8 2 3.4 4.5 5.6 6.2.6.4 1.4-.2 1.4-.8-.1-5.4-5.3-10.8-9-14.3-5-4.8-11-8.7-17.1-12C79.7 374 65 368.7 51.2 370c-2.1.2-2.1 3.1 0 3.3z"></path><path fill="#851919" d="M65.5 398.8c11.4-6.6 23.2-6.4 35.1-1.1 5.6 2.5 10.8 6.1 15.2 10.4 2.1 2 4 4.3 5.7 6.7 1.5 2.2 2.6 4.9 4.6 6.7 1.1 1 2.5.2 2.7-1.1.7-5.6-5-11.6-8.5-15.3-5.1-5.3-11.4-9.4-18.1-12.4-11.9-5.2-28.6-6.5-37.9 4.4-.7.9.2 2.3 1.2 1.7z"></path><path fill="#851919" d="M63.3 372.8c-10.2.4-16.7 11.1-19.7 19.7-3.6 10.4-3.1 21.9 0 32.3 3.7 12.6 10.6 23.8 19.4 33.5 4.5 5 9.6 9.4 14.9 13.5 4.9 3.9 10 8.2 15.8 10.7 1.8.8 3.9-.9 2.8-2.8-1.2-2.2-3-2.6-4.9-4-2.6-1.8-5.1-3.6-7.6-5.5-4.9-3.7-9.6-7.7-14.1-12-8.7-8.4-15.6-18.5-20-29.7-3.8-9.9-5.2-20.3-2.9-30.7 1-4.9 3.1-9.5 6-13.6s7.3-6.5 11-9.7c.7-.6.2-1.8-.7-1.7z"></path><path fill="#851919" d="M94 480c-3.3 1.9-5.1 5.9-5.8 9.5-.6 2.9.1 9.1 4.3 8.7.7-.1 1.1-.5 1.2-1.2.1-1.1-.3-2-.8-2.9-.8-1.6-.7-3.2-.2-4.9.6-2.7 2.4-4.9 3.4-7.5.5-1.3-1.1-2.3-2.1-1.7z"></path><path fill="#851919" d="M80.5 506h6.7c-.8-.8-1.6-1.5-2.2-2.3-1.1-1.5-1.8-3.4-1.9-5.3-.1-1.4.3-2.7 1.3-3.6 1.1-1 3.7.2 4.9.5 1.2.2 2.6-1 1.7-2.2-3.8-5.5-11.2-3.3-12.6 2.8-.8 3.2.1 6.6 1.6 9.4.2.2.4.4.5.7zM48.7 371.4c-1.6 2.5-.3 7.2 2.4 8.5 1.3.6 3.4-.4 2.7-2.1-.4-1-1.2-1.7-1.6-2.7-.4-1.1-.4-2.2-.6-3.3-.3-1.5-2.2-1.5-2.9-.4zM355 498.2c4.8.9 8.6 1.1 12.5 4.4 1.2 1 2.2 2.2 3.1 3.5h6c-1.2-3.2-5-6.3-7.2-7.9-3.8-2.9-10.4-5.1-14.7-2.2-.8.5-.8 1.9.3 2.2zM374.9 496.6c6.2 1.4 10.5 6 16.9 6.7 2.3.3 4.6.3 6.8.9 1.2.3 1.7 1 2 1.8h4.4c-.1-1-.5-2-.9-2.8-1.4-2.5-4.6-3.2-7.2-3.6-3.7-.5-7.3-.3-10.7-2.1-3.9-2-6.6-4.6-11.3-3.3-1.2.3-1.3 2.1 0 2.4zM174 506c.5-4.8.5-9.7 1-14.5.8-7.7 2-15.3 3.4-22.8 2.9-15.3 6.9-30.3 11.5-45.2 7.4-24 16.2-48.3 28.9-70.1.7-1.2-1.1-2.8-2-1.6-6.5 8.2-10.9 17.7-15.1 27.3-6 13.7-11.1 27.7-15.6 42-4.8 15.2-8.8 30.7-11.9 46.4-1.4 7.2-2.5 14.4-3.3 21.7-.6 5.4-1.3 11.2-1 16.7h4.1zM203.9 506c.3-2.2.2-4.5.3-6.7.2-3.8.5-7.7.8-11.5.7-8.2 1.9-16.3 3.2-24.4 2.6-15.7 6.1-31.3 10.1-46.7 3.4-12.9 7.2-25.7 11.3-38.3 2.7-8.2 6.7-16.3 8.6-24.7.4-1.7-1.7-2.4-2.6-1.1-4.9 6.6-7.2 16.1-9.8 23.7-4.5 12.9-8.3 26-11.8 39.2-4.1 15.4-7.6 31-10.2 46.7-1.3 7.6-2.3 15.3-3.1 23-.4 3.8-.7 7.7-.9 11.6-.2 2.9-.7 6.2-.3 9.2z"></path><path fill="#851919" d="M236.7 353c-1.5 6.7 1.1 12.8 7 16.3 6.5 3.8 15 3.3 22.1 1.9 9.1-1.8 17.8-6.9 24.6-13 3.6-3.2 6.5-7 8.8-11.3 1.6-3 4.1-7.8 2.2-11.1-.5-.8-1.4-.8-2-.3-2.2 1.7-2.6 5.3-3.8 7.8-1.7 3.5-4.2 6.7-6.9 9.5-5.6 5.9-13.1 10-20.8 12.5-5.8 1.9-12.2 2.4-18.1 1.1-7-1.6-9.9-6.3-10.4-13.2-.1-1.3-2.4-1.8-2.7-.2zM214.5 353.6c-9.4 1.9-18.1 14.3-28.5 9.5-6.1-2.8-8.4-9.8-7.1-16 1.1-5.2 5-8.7 6.7-13.5.3-.7-.6-1.7-1.3-1.3-5.4 2.2-8.7 9.4-9.8 14.8-1.4 6.6 1.1 12.7 5.8 17.3 10.8 10.4 26.1-1.4 35.3-8.2 1.2-1 .5-3-1.1-2.6zM135.9 205.9c6.5 7.6 17.7 11.5 26.6 15.7 2.7 1.3 5-2.8 2.3-4-4.4-2-8.9-4-13.2-6.2-4.8-2.4-9.3-5.3-14.1-7.5-1.4-.6-2.6.9-1.6 2zM271.9 204.3c-6.3 2.8-12.2 6.4-18.3 9.7-6 3.3-13.1 5.8-18.7 9.7-1.8 1.2-.7 4.1 1.5 3.6 6.7-1.7 13.3-6.1 19.4-9.4 6.2-3.4 12.3-6.9 17.8-11.2 1.5-1.1-.3-3-1.7-2.4zM214.8 310.9c.8-5.2 1.4-10.5 2.5-15.7.6-2.7 1.3-5.4 2.8-7.8 1.2-2 2.2-1.2 3.7.1 3.8 3.5 6.3 8.7 8.6 13.3 1.8 3.7 4.5 8.5 4.3 12.8.5-.7 1-1.4 1.6-2.1-4.1.6-8.2.9-12.3.9-3.6 0-8-1.8-11.4-.8-.8.3-1.4 1.3-.9 2.1 2.3 3.1 7.4 2.9 10.9 3.1 4.9.2 9.9-.4 14.8-1.1 1-.2 1.5-1.2 1.6-2.1.2-5.4-3-11.2-5.3-15.8-2.6-5.2-6.2-11.5-11.3-14.7-4.7-3-8.2 2.8-9.4 6.5-2.3 6.8-2 14-2.3 21.1-.1 1.1 1.9 1.4 2.1.2zM392.4 313.7c.6 3.5.9 7 .8 10.6-.1 3.3-1.9 6.3-1.9 9.6 0 1.3 1.6 1.9 2.5 1 5.1-4.6 2.6-16.2.5-21.7-.5-1.1-2.1-.7-1.9.5zM105 304.5c-.8 5.7-2.3 11.2-2.8 17-.3 3.4-.6 11.3 3.6 12.5.4.1.8-.1.9-.5.5-1.8-.4-3.2-.8-4.9-.7-2.7-.5-5.7-.3-8.4.3-5.2 1.3-10.2 1.4-15.4-.2-1.1-1.9-1.4-2-.3zM118.6 319.9c-.1 2.2-.1 4.3.1 6.5.1 1.5.1 3.5 1.4 4.5.3.3.8.2 1-.1.8-1.3.3-2.5.1-3.9-.4-2.3-.9-4.6-1.1-6.9-.1-1-1.5-1-1.5-.1z"></path></g></svg>