<svg xmlns="http://www.w3.org/2000/svg" version="1.1" xmlns:xlink="http://www.w3.org/1999/xlink" width="512" height="512" x="0" y="0" viewBox="0 0 512 512" style="enable-background:new 0 0 512 512" xml:space="preserve" class=""><g><path fill="#c4544e" d="M409.6 189.5c-1.1-9.4-4.8-17.6-9.9-25.4-10.9-16.6-24.7-31.4-40.1-43.9-13.2-10.7-29.9-16.9-46.6-19.5-1.6-.2-3.1-.4-4.7-.4 4.5-2.8 8.1-7.9 10.7-11.9 4.6-7.1 8.3-15.7 9.4-24.2 1.1-8.7-2.5-17.4-6.4-25-3.7-7.3-9-15-16.5-18.6-1.4-1.4-3-2.7-4.6-3.9-4.1-3-9.6-4.6-14.5-5.7-2.4-.5-4.7-.5-7.1-.5-2.5 0-4.5-2-7-2.3-5.8-.5-10.9-.6-16.6.7-5.4 1.3-10.5 3.5-15.4 5.9-1 .5-1.9 1-2.9 1.5-6.9 2.6-13.7 6.3-20.2 9.7-2.7 1.4-5.1 3.8-7.4 6-6 3-11 8.7-15.1 13.8-.8 1-1.6 2-2.3 3.1-.2.2-.4.4-.5.7 0 .1 0 .1-.1.1-.3.3-.5.6-.6 1-2.9 4.5-4.9 9.5-4.7 15.1.2 7.5 3.3 15.2 7.7 21.1 3.4 4.6 10.8 11.5 17.2 9.1.5-.2.9-.5 1.2-.8l1.2.9c-1.9.7-3.9 1.3-5.8 2-.3-.4-.8-.7-1.4-.7-15.7-1.6-31.7 8.2-43.7 17.4-6.5 5-11.9 10.7-16.8 17.4-5.9 8.1-11 16.8-17.1 24.8-11.5 15-21.4 32-21.5 51.4 0 7.6 1.6 16.3 3.9 23.6.9 2.8 2.4 6.2 5 7.7 3.3 1.9 7.1 2.1 10.7 3.1 1.3.3 2.5.9 3.6 1.7.4.3.7.5 1.1.6.1 2.1.1 4.2.1 6.4 0 4.6-.4 9.2-.5 13.8-.4 9.2-.1 18 2 27 2 8.5 4.7 16.8 7.1 25.2 1.3 4.4 2.4 8.9 3.3 13.4.8 3.8.9 8.2 2.8 11.6.9 1.6 3.4 1.2 3.8-.5.7-3.2-.2-7-.7-10.2-.6-3.6-1.4-7.2-2.4-10.8.1-.2.2-.4.3-.7.7-4.4-.5-9.2-.8-13.7-.3-4.8-.4-9.5-.3-14.3.2-9.5 1.4-19 1.6-28.5.1-4.9.3-9.7 1.2-14.6.4-2.5 1.4-4.9 2.1-7.3s3.3-9.7-.3-10.9c.3-.9.7-1.7 1-2.6 2.7.4 5.6.2 8.3.2 4.2 0 8.5-.2 12.7-.4 3.7-.2 7.4-.7 11-1.3 2.3-.4 5-.7 7.3-1.6.5.8 1.4 1.1 2.4.9 2.9-.5 6-.1 8.9 0 1.5 0 2.6-1.3 2.6-2.7.1-7.6 1.7-15 4.2-22.2 1.4-3.9 3.2-7.5 5.4-11 .8-1.2 1.7-2.4 2.7-3.5v2.1c0 3.6-.1 7.2 0 10.8.1 6.1.2 14.3 4.1 19.4.9 1.2 2.9.8 2.9-.8 0-.8-.1-1.7-.2-2.5.2-.1.4-.3.6-.5 2.9-5.8 2.9-12.8 4.4-19.1 1.1-4.6 3.1-8.8 5.4-13 3.2-6.1 7.7-13.9 14.2-17.4-1.8 6.9-2.3 14.6-1.7 21.5.8 8.6 4.4 15.3 10.3 21.5 11.8 12.3 28.1 17.2 44.7 14.7 2-.3 2.6-2.9 1.7-4.4-2.6-4.5-3.3-8.6-2.1-13.6.4-1.9.9-3.7 1.4-5.6 1 1.9 2.3 3.6 3.5 5.3 3.3 4.3 7.2 8.2 11.5 11.5 4 3 8.6 5.6 13.6 6.4 3.1.5 7.5.3 10.4-1.5 2.1 6.5 7.4 12.5 12.7 15.2.9.4 1.7.4 2.4.1.4 2.1.9 4.3 1.4 6.4-.2.2-.4.5-.3.9.1 2.4.9 4.7 1.5 7.1.6 2.7.2 6 1.7 8.3.1.2.4.4.6.4 1.2 7.1 2.2 14.3 1.5 21.3-.5 5.1-1.7 10.1-2.5 15.2-.8 4.8-.8 9.7-.8 14.6 0 5-.3 10.2 0 15.1.2 2.9-.2 5.8-.8 8.7-.6 1.4-1.2 2.9-1.7 4.4-.2.6-.1 1.2.3 1.6-.3.9-.4 1.9-.1 2.9.2 1 1.4 1.1 2 .5 1.5-1.3 2.3-3.6 3-5.6 4.1-5.5 5.6-13.5 6.6-19.9.1-.5.1-1 .2-1.4 3.5-4.5 3.9-11.8 4.6-17.2.9-7 1.3-13.8.8-20.8 0-.3-.1-.5-.2-.7 1.1-5.3 2.2-10.7 2.8-16.1.5-4.4.9-9.1.8-13.8 1.7-1.5 3.4-3.3 4.8-5.2 4.8-1.4 9.5-3.1 13.2-6.2 5.8-4.9 6.7-13.8 9.1-20.5 3.7-9 4.8-18.3 3.7-27.4z" opacity="1" data-original="#c4544e"></path><g fill="#b23e3b"><path d="M384.4 234.6c-.8-9.1-5.3-15.8-11.3-22.4-5.8-6.4-12.3-12.3-19.2-17.7-7.1-5.6-14.6-10.5-22.4-14.8.6-.3 1-1 .7-1.6-.9-2.4-3.4-3.4-5.5-4.6-2.9-1.7-5.9-3.1-9-4.4-5.7-2.4-11.6-4-17.9-3.9-.7 0-1.1.4-1.3.9-13.8-4-28.3-5.8-42.6-5.3-3.5.1-7.1.4-10.6.9-.5-.8-1.3-1.4-2.6-1.2-11 1-22 2.5-32.8 5.3-8.5 2.2-16.7 5.7-24.6 9.5-7.1 3.4-14.1 7.3-20.3 12.1-4.7 3.6-10.2 8.5-10.9 14.8-10.3 10.2-17.8 23-24.7 35.7-.8 1.5 1.3 3.3 2.5 1.9 2.8-3.5 5.5-7.1 8.1-10.8-.1 1-.1 1.9 0 2.8.2 2.9 1.9 4.8 4.2 5.6.1.7.1 1.3.2 1.9 0 .5.1 1.2.1 1.9-1.3 5.6-2.3 11.3-2.6 17.1-.5 9.1-1.5 18.1-1.3 27.3.1 8.9.9 17.7 3.2 26.3 2.4 8.8 4.5 17.6 4.2 26.8-.1 2.3 3.2 2.5 3.9.5 2.6-8.2-.5-17.1-2.4-25.1-2.2-9.1-3.6-17.9-3.9-27.2-.3-9.1.6-18.2 1.2-27.3.2-3.2.5-6.3.9-9.4 0 0 .1 0 .1.1.6.2 1.1-.2 1.5-.6.7-1.1.3-2.3 0-3.5-.2-.6-.3-1.3-.4-1.9.6-2.7 1.3-5.5 1.4-8.3.1-.4.1-.9 0-1.3 0-.7 0-1.3-.1-2-.1-1.1-1.1-1.8-2-1.7 0-.3 0-.7-.1-1-.1-.8-.9-1.3-1.6-.9-1.1.6-1.7 1.7-2 3.1-.3-.9-.2-2.2-.2-3 0-2 .6-4.2.3-6.2 1.3-1.8 2.6-3.5 4-5.2 5.9-7.5 12.7-14.2 20.4-19.9 15-11.4 32.7-18.9 50.7-24.1 6.4-1.8 12.9-3.3 19.4-4.4-6 4.7-10.2 11.4-13 18.7-1.8 4.9-2.7 10.2-3 15.5-.2 2.6-.1 5.2 0 7.8.1 2.5-.1 5.9 1.5 7.9 1.1 1.4 2.9 1.1 3.5-.5.8-2 .1-4.4-.1-6.5-.2-2.3-.2-4.6-.2-6.9.1-4.9.8-9.7 2.1-14.4 2.6-9.4 8.7-16.3 15.8-22.6 9-1.1 18.2-1.4 27.3-.6 17.8 1.6 35.3 7.3 51.2 15.4 10.7 5.4 20.8 12.2 30 19.9 1.8 5.7 7.3 10.3 10.5 15.1 2 3.1 4 6.2 5.6 9.4.5 4 .8 8 1 12 .5 10.6.9 21.4.3 32-.7 13.7-2.9 27.4-4.6 41-1.2 9.7-1.9 19.7-6.2 28.6-.6 1.2.7 2.9 2 2 3.6-2.6 5.4-7.6 6.4-11.8 1.2-5.1 1.7-10.4 2.5-15.6 2.1-14.4 4.9-28.5 5.8-43 .5-8.3.4-16.7-.1-25.1.6.6 1.5.9 2.5.6 1.3-.3 1.9-.9 2.9-1.7.9-.7 1.7-1.8 1.2-3-.7-1.9-1.3-3.9-2-5.8 1.3-.4 2.5-1.3 2.4-3.2zM395 155.5c-9-11.1-19.4-21.5-31.1-29.7-5-3.5-10.4-6.5-15.9-9.2-3.9-1.9-8.5-3.8-12.2-6.5l-1.5-1.2c-.2-.2-.4-.4-.7-.6-.2-.2-.5-.4-.7-.5-6.1-4.5-13-7.7-20.6-8.3-.4-.1-.7-.2-1.1-.3s-.8 0-1.1.3c-.8.2-.9 1.5-.1 1.9 9.6 7.3 17.9 15.1 24.8 25.1 3.4 5 6.4 10.3 9.2 15.6 2.6 5 4.3 10.5 7 15.4.8 1.4 2.2 1.5 3.3.9.8.8 1.6 1.7 2.4 2.5.3.9 1 1.5 1.7 1.9.9 1 1.8 2 2.7 3.1 3 3.7 5.5 7.7 7.9 11.8 4.8 8.1 9.4 16.3 14.3 24.4 3.9 6.5 5.8 13 7.7 20.2 1.2 4.7 2.9 12.2 8.7 12.8 1.5.1 2.6-1.1 3-2.3 2.5-7 3.4-14.4 4.5-21.7 1-7 2.9-13.8 2.8-20.8-.1-13.4-7-24.9-15-34.8z" fill="#b23e3b" opacity="1" data-original="#b23e3b"></path><path d="M215.8 185.2c-7.7.9-12.1 8.3-13.6 15.2-1.6 7.6-.7 15.3-1.1 23-.2 3.2 4.8 3.1 4.9-.1.3-6.5-.3-12.9.1-19.4.2-3.1 1.1-6.2 2.5-8.9 1.8-3.4 5-5.1 7.9-7.4.9-.6.7-2.5-.7-2.4zM298.9 204.8c.1-3.3 1.3-8-.6-11.1-.5-.8-1.5-1.3-2.4-1.1-.1-2-.1-4.1-.2-6.2 0-1-.2-7-2.6-5.6-2.1 1.2-1.7 6.3-1.7 8.3-.1 4.6 0 9.3.4 13.9.8 8 2.2 16.9 9.4 21.5 1.5.9 3.4-.7 2.9-2.3-1.6-5.7-5.3-11.3-5.2-17.4zM338.3 216.7c-1-2.5-.4-4.9.4-7.4.5-1.7-1.7-2.9-2.9-1.7-5.1 5.1-2.5 15 4 17.8 2.3 1 5-1.8 2.8-3.7-1.7-1.6-3.4-2.8-4.3-5zM283.1 112c.1 2.2 3.1 2.1 3.3 0 .4-3.9-.7-7.2-2.3-10.7-1.2-2.6-3.2-7.6-6.3-8.2-.9-.2-2.2.3-2.3 1.3-.4 2.9 2.1 5.1 3.6 7.4 2 3 3.8 6.6 4 10.2zM141.4 179.6c.2 1.5 2.1 1.8 2.6.3.9-2.4 1.1-5 1.6-7.5 1.5.4 3-.7 3.2-2.4.1-1.3-.2-2.6 0-4 .3-1.7 1-3.3 1.8-4.9 1.6-3.2 3.5-6.3 5.3-9.4 4.1-7.2 6.7-15.1 11.4-22 4-5.9 10.1-10.5 15.6-14.9 5.8-4.7 12.1-8.4 18.5-12.1.9-.5.5-1.9-.5-1.9-7.2.3-14.4 5.6-20.1 9.7-6.6 4.7-13.4 10.3-18.4 16.8-5.5 7.2-8.3 15.9-12.8 23.7-2.4 4.1-8.8 13.2-6.4 18.8-1.3 3.2-2.1 6.5-1.8 9.8zM122 234.7c-1.5 0-2.3 1.3-3.6 1.7-.4.1-.2.1-.8-.1-.2-.1-.9-.7-1.2-.9-.6-.3-1.6-.2-1.9.5-1 2.3.8 4.8 3.1 5.2 2.6.4 6.5-1.2 6.6-4.2.2-1.2-1-2.2-2.2-2.2zM278.9 11.5c.5.2 1.1.3 1.6.5.3 1.7 1.6 3.1 2.6 4.8 1.6 2.7 2.3 5.6 3.3 8.5.5 1.4 2.5 1.5 2.9 0 .9-3.1.3-6-.8-8.9 4.8 3.5 8.8 8.2 12 13.3 5.1 8.2 6.5 19 6.5 28.5 0 7.3-2 14.1-4.6 20.8-1.4 3.5-3.1 6.9-5.2 9.9-.9 1.2-1.9 2.4-3.2 3.2-.5.3-1.1.5-1.6.6-1.1-.2-2.3.2-2.8 1.2-.1.1-.1.2-.2.3-.8 1.4-.2 2.9 1 3.8 2.8 1.9 6.5-.2 8.9-2.2.5.3 1.1.7 1.5.7 1.8.3 3.8.2 5.5-.4 3.5-1.2 6.1-5.5 8.5-8.1 7.3-7.8 12.3-16 12.3-26.9.1-9.8-2.3-21.4-7.7-29.7-5.4-8.2-15.3-11.6-21.8-18.7-1.5-1.6-3.8-.7-4.8.8-2.5-1.7-5.1-3-7.8-3.7-.7-.7-1.6-1.1-2.7-1.2-.5 0-1.1.3-1.4.7-.7 0-1.4.1-2 .2-1.1.2-.9 1.7 0 2zM251 81.5c0-1.6-.6-2.9-1.1-4.5-.5-1.8-.7-3.7-.7-5.5-.1-3.9 1-7.8 2.3-11.4.4-1.2-1.2-2-2.1-1.2-3.1 3.3-4.2 7.2-4.6 11.6-.4 3.6.1 9.8 3 12.3 1.2 1.1 3.2.4 3.2-1.3zM213.5 74.5c.5 2.4.7 4.5 1.6 6.8.7 1.8 1.7 3.5 2.7 5.2 1.8 3.1 4.5 8.8 8.3 9.3.5.1 1.2-.5 1.3-1 .5-3.5-3.6-6.9-5.5-9.7-2.4-3.5-4.6-7.6-6.4-11.5-.5-1.2-2.2-.3-2 .9zM211.9 59.6c1.6-7.6 4.5-15.3 8.1-22.2 3.8-7.3 8.7-12.6 15-17.6 2-1.6-.6-4.3-2.6-3.3-7.2 3.5-12.2 12.2-15.7 19.1-3.8 7.6-6.1 15.4-7.1 23.8-.1 1.2 2.1 1.4 2.3.2zM250 40.7c.7-5.7 2.6-11.5 4.9-16.7 1.1-2.5 2.3-5 3.5-7.5 1.2-2.3 2.9-4.5 3.1-7.1.1-1.4-1.7-2.3-2.8-1.6-2.2 1.5-3.1 4.1-4.3 6.4-1.3 2.6-2.6 5.3-3.5 8.1-2.1 6-3.2 12.1-2.6 18.4.1 1.2 1.6 1.1 1.7 0zM232.5 126.2c.3-.6.5-1.1.8-1.7.2 0 .4-.1.5-.2 1.4-1.8 1.7-4.1 2.5-6.2 1.1-3.2 2.7-6.2 4.4-9.1 3.4-5.7 8-9.9 13.2-14 .6-.5-.2-1.4-.8-1.1-5.2 2.6-9.4 7.1-12.8 11.8-4.4 5.7-6.7 12.6-9.7 19.2-.7 1.5 1.2 2.6 1.9 1.3z" fill="#b23e3b" opacity="1" data-original="#b23e3b"></path></g><g fill="#e08c6e"><path d="M187.9 76.7c.3 1 1.6 1.3 2.3.7 3.6 7 9.4 13.8 16.4 16.9 1.2.5 2.2-1.1 1-1.8-7.3-4.5-12.4-14-14.9-22 .8-2.8 1.8-5.4 4.7-7 4.7-2.4 10.7-2.9 15.9-3.9 0 .1-.1.2-.1.3-.2.8 1 1.4 1.4.6.2-.4.4-.9.6-1.3 6.7-1.4 12.6-4.2 18.1-7.9 3.1-1.6 6-3.4 8.6-5.5.5-.4.7-.8.8-1.3.6-.6 1.1-1.3 1.5-2.1.3-.2.5-.5.8-.7.1 0 .3 0 .4-.1 1.8-.3 1-3.1-.8-2.8-7.9 1.2-15.2 5.4-22.7 8.2 3.6-5.7 7.6-11.1 12-16.3 4-4.8 8.6-10.1 13.9-13.5 4.5-2.9 10.3-4 13.6-8.5.8-1.1-.6-2.8-1.8-2.3-5.1 2.1-10.5 4.5-15.2 7.4-1.4.9-2.8 2-4.2 3.1.1-1-.8-2.1-1.9-2.1-2.9.1-5 2.1-7.4 3.6-1.9 1.2-3.9 2.2-5.8 3.3-4.1 2.3-8.1 4.7-12.1 7.1-8.1 5.1-15.9 11.1-21.4 19-4.6 6.6-6.3 14.5-4.3 22.1-.2 2.6 0 4.9.6 6.8zm24.5-23.6c-1.1.1-2.1.2-3.2.2 0 0-.1 0-.1-.1 0 0 0-.1-.1-.1 1.1.1 2.2.1 3.4 0 0-.1 0 0 0 0zm-7.7-1.4s-.1-.1 0 0c0-.1 0 0 0 0zm-3.7-6h-.3l.3-.3zm17.2-13.3c3.4-2.2 6.9-4.3 10.4-6.3 2-1.2 4.4-2.4 6.6-3.8-1.6 1.8-3.2 3.6-4.7 5.4-5.4 6.3-10.2 13.4-13.6 21.1-2.2.5-4.3.8-6.6.8-3.9 0-5.9-2.2-5.8-6 0-.5.1-1 .2-1.5 4.2-3.7 8.9-6.8 13.5-9.7zM297.6 39.5c-5.9.2-11.3-1.7-17-2.9-6.6-1.4-13.1.5-19.7.5-.9 0-1.1 1.4-.2 1.5 3.8.5 7.5.4 11.3.5 3.5 0 6.8.8 10.1 1.8 4.5 2.7 9.6 3.1 14.7 2.9 1.5 0 2.9-.1 4.4-.3 2-.2 4-.3 6-.4 3.6-.1 7.1.2 9.9 2.6.6 1.3 1.2 2.6 2 3.8.5.8 1.4 1.1 2.1 1.1.5.7.9 1.4 1.4 2.2.1.4.3.8.6 1 .3.5.6 1.1 1 1.6.5.8 2 .3 1.6-.7-.1-.2-.2-.5-.3-.7 1.1-.4 2-1.5 1.8-2.9-.9-5.9-4.8-10.8-8.9-15-1-2.3-2.3-4.5-4.2-6.4-.2-.2-.4-.3-.6-.4 0-5.3-5.2-10.6-9.9-12.3-.8-.3-1.6.3-1.9 1.1-2-1.4-4.1-2.8-6.1-4.1-5.4-3.4-11-4.6-17.4-4-1.3.1-1.3 2 0 2.1 6.3.3 11.7 2.6 16.8 6.3 3.8 2.7 8.5 7.7 13.4 8.2.7 1.3 1.1 2.8.8 4.7-1.1 5.8-6.2 8.1-11.7 8.2z" fill="#e08c6e" opacity="1" data-original="#e08c6e"></path><path d="M254.4 22.6c-1.4 3.8-2.3 7.6-2.9 11.6-.4 2.8-1.7 6.6-.7 9.4.2.5.9.6 1.2.1 1.2-2 1.3-5 1.8-7.3.8-3.5 2.2-7 3.4-10.4 2.1-6.3 5.1-11.2 9.7-15.9.7-.7.2-2.2-.9-2.1-6.3.7-9.7 9.7-11.6 14.6zM253.4 62.7c-.1-1.2 0-2.5-1-3.3-.4-.3-.9-.4-1.4-.2-2.5 1.5-1.2 7.4-.8 9.8.6 3.6 1.2 8.8 4 11.5 1.3 1.2 3.8 0 3.1-1.9-1.3-3.3-2.6-6.3-3.2-9.8-.4-2-.6-4-.7-6.1zM227.6 84.2c-1.6-.8-2.9-2-4.1-3.3-2.3-2.3-4.2-5-6.6-7.2-1.1-1-2.5.3-1.9 1.5 2.5 5.5 9.4 15.6 16.6 14.1 1.6-.3 1.7-2.6.4-3.4-1.4-.7-3-1-4.4-1.7zM385.6 142.2c-5.7-14-21.3-21.4-35-26.1-1.6-2.6-4.1-4.7-6.5-6.5-2.8-2.1-5.8-4.7-9.4-4.9-.9-.1-1.5 1.1-1 1.8 0 .1.1.1.1.2-.7-.3-1.3-.6-1.9-.9-4.9-2-10.2-2.8-15.4-3.7-12.4-2.1-24-7.3-36.5-9.1-12.3-1.8-25.2-.5-37.4 1-6 .8-12 1.7-17.9 2.8-1.7.3-3.5.6-5.3.9h-.1c-8.9-1.2-18.3.7-26.6 3.7-8 2.9-15.2 8.2-22.4 12.6-10.1 6.3-18.9 14-26.8 22.7-3.4 2.1-7.9 4.5-10.1 7.8-.8 1.1.5 2.3 1.6 2.2-.3.4-.7.9-1 1.3-10.1 12.8-20.2 26.7-24.5 42.6-2.2 8.1-2.6 16.6-1 24.9.8 4.4 2.9 8.2 4.5 12.3 1.5 3.9 2.9 7.9 4.7 11.8.4 1 2 .4 1.9-.5-.1-3.6-1.1-6.8-2.3-10.2-1.3-3.8-2.2-7.6-3.1-11.5-1.9-8.2-.9-17.1 1.3-25.1 4.2-15.2 14.1-28.5 23.7-40.7 4-5 8.1-9.9 12.6-14.4 1.7-1 3.4-2 5-2.9 7.5-4.2 15.5-7.6 23.8-9.9 8.7-2.4 17.7-3.7 26.4-6 8.7-2.2 17-4.2 25.9-5.2 1.4 0 2.8.1 4.2-.1.8-.1 1-1.2.2-1.4-4.6-1.3-10.2-.3-15.2.8-4.6.7-9.2 1.7-13.7 2.6-.8.1-1.6.1-2.4 0-3.3-.1-6.7-.2-10-.7-3.6-.6-5-2.1-2.4-5.1.7-.8 1.5-1.6 2.4-2.3 4.9-1.6 10.1-2.2 15.1-3.3 4.2-.2 8.6-1.1 12.7-1.8 5.9-1 11.9-1.9 17.8-2.6 11.7-1.5 23.8-2.5 35.6-1.5 11.6 1 22.7 5.3 34.1 7.5 10.3 1.9 22.5 2.5 30.4 10.2.2.2.4.3.6.3 1.1 2 1.8 4 .1 4.8-3.8 1.6-8.9.9-12.9.5-4.3-.4-8.6-.9-12.9-1.6-14.8-4.5-29.6-9.2-45.4-8.1-.8.1-.8 1.3 0 1.2 4.3-.1 8.6.3 12.8 1-.2.1-.3.5.1.6 10.7 3 21.5 6.3 32.4 8.6 6.4 2.2 12.9 4.5 19.6 5.6 6 2.1 12.8 2.8 18.9 3.9 9.8 1.8 20.3 4.2 27.1 12 1.2 1.8 4.3 0 3.5-2.1zm-198-30.3c-.7-.3-1.4-.3-2.2.3-1.5 1.1-3.2 2-4.9 2.9 2.4-1.5 4.9-3 7.4-4.4-.2.4-.2.8-.3 1.2zm-19 10.9c0 .3.2.6.4.8-1.1.4-2.2.9-3.3 1.3 1-.7 2-1.4 2.9-2.1zm179-1.5c.1.1.2.2.4.3-.3.3-.5.8-.6 1.2h-.5c.2-.4.5-1 .7-1.5z" fill="#e08c6e" opacity="1" data-original="#e08c6e"></path><path d="M149.4 228.2c.7-6.8 1.2-13.6.8-20.4-.1-1.4-2.2-1.8-2.5-.3-1.6 6.9-1.8 13.8-2.7 20.8-.3 2.7 4.1 2.7 4.4-.1zM226.3 217.8c.2-.3.3-.7.3-1.2-.9-5.6-2.4-11.1-3.6-16.7-.6-2.7-1.2-5.4-2.2-8-.7-1.7-1.3-2.3-2.6-3.2-.2-.2-.4-.2-.6-.1-.4-1.1-.9-2.1-1.5-3-.3-.6-1.4-.5-1.6.2-.8 5.3 1.6 11.1 3.1 16.1 1.7 5.9 3.3 11.9 4.9 17.9.7 2.6 4.7 1.5 4-1.2-.1-.2-.1-.5-.2-.8zM146.7 326.9c-1.1-3.5-2.3-7-3.5-10.5-.5-2.4-1-4.9-1.5-7.3-1.8-9.2-3.2-18.5-4.3-27.8-.7-6.2-1.1-12.4-1.3-18.7 0-3.2 0-6.5-.2-9.7 0-3.5.2-7 .6-10.5.8-3.8 1.8-7.5 2-11.3 0-.4-.1-.7-.4-1 .1-.9.3-1.9.5-2.8.2-1.2-1.5-1.7-1.9-.5-.3 1.1-.6 2.2-.8 3.3-.1.1-.1.2-.2.3-1.9 4-2.6 8.6-3.5 12.9-1 5-1.8 10-2.3 15-1.1 9.7-2 21.2.8 30.6.2.8.8 1.2 1.4 1.4.3 3.9.8 7.8 1.7 11.7 1.8 8.2 4.6 16.1 7.2 24.1l.9 2.7c.4 1.7.9 3.4 1.5 5 .5 1.7 1 3.3 1.4 5 1 3.8 1.1 8.8 3.3 12.1 1 1.5 3.3 1.2 3.8-.5 1-3.4-.5-7.4-1.3-10.8-1.2-4.2-2.5-8.5-3.9-12.7zM367.9 273.8c0-1.5 0-3-.1-4.5-.4-13.9-2.1-29-7.4-42-.3-.7-.9-1.1-1.5-1.1 0-.1 0-.1-.1-.2-.5-1.1-2.2-.5-2.1.6.2 4 1.1 8 1.8 12-1.7-2.1-3.7-3.7-5.1-6 .5.6 1.1 1.1 1.9 1.4 1 .5 2.1-.1 2.1-1.2 0-2.1-1.1-3.4-2.1-5.2-1.5-2.4-2.8-4.9-4.2-7.4-2.6-4.6-5.4-9.1-8.4-13.4-.9-1.3-2.9-.5-2.7.9-.2.2-.4.5-.4.8-.3 2.8 1.3 6.1 2 8.7.1.5.3 1.1.5 1.6-.1-.1-.3-.1-.4-.1-8.1-1.9-15.6-5.1-22.4-9.6-2.6-2.9-4.9-6-7.1-9.1-4.7-6.7-8.3-14.4-14-20.3-.5-.6-1.2-.4-1.5.1-.1-.2-.1-.3-.2-.5-.4-.9-1.6-.3-1.6.5-.7 10.9 7.7 21.8 15.3 28.8 3.7 3.4 8 6.6 12.6 9.1 2 1.4 4 2.5 6.3 3.1 3.7 1.5 7.5 2.7 11.3 3.4 1.5.3 2.6-.5 3.1-1.5.6 1.7 1.2 3.3 1.9 5 2 5.1 5.1 13.2 11 15 1.2.4 2.4-.4 2.9-1.4.7 4.7 1.3 9.3 1.9 14 .7 6.1 1.3 12.3 1.6 18.4-.5.3-.9.8-.7 1.6.4 1.7.7 3.3 1 5 .1 1.6.1 3.1.1 4.7.1 3.7.1 7.4 0 11.2-.1 1.2-.3 2.4-.4 3.6-.4 3.2-1.1 6.5-.5 9.7 0 .2.1.4.3.5-.1 1.8-.2 3.5-.4 5.3-.9 2.9-2.8 6.1-2.3 9 .1.6.6.9 1.1 1-1 7-2.4 14-3.2 21.1-.3 2.8 3.9 3 4.6.6 2-6.4 3-13.3 3.8-20.2 1.1-2.4 1.8-5 2.4-7.3 1.3-4.7 1.7-9.7 1.9-14.5.4-10-.6-20.1-1.7-30-.4-.6-.6-1-.9-1.2zM302.4 221.2c-.1-.6-.5-1.1-1.2-1.5-8.6-5.2-19-5.9-28.3-9-.4-.1-.8-.3-1.2-.5-1.6-2-3.3-3.9-4.8-5.9-2.5-3.3-4.5-7-6.1-10.8-3.3-7.9-3.8-16.7-7.2-24.5-.7-1.5-2.7-.5-2.8.8v.5c-.1-.9-.3-1.8-.5-2.6-.3-1.2-1.9-1-2.3 0-1.3 4-.8 8.4-.6 12.5.3 4.8 1.4 9.6 2.7 14.2 2 7.4 5.5 13.4 11.6 18 5.8 4.5 12.7 7.3 19.7 9.5 3.7 1.1 7.4 2 11.2 2.8 3.1.7 6.9 1.9 9.9.4 1.3-.7 1.4-2.5.4-3.5-.2-.1-.3-.3-.5-.4zm-45.5-24.7c.8 1.8 1.7 3.8 2.8 5.7 0-.1-.1-.1-.2-.2-1.9-2.7-3.3-5.7-4.5-9-.9-2.5-1.6-5-2.2-7.6 1.2 3.9 2.6 7.7 4.1 11.1zM198.5 195.6c0 .1-.1.2-.1.4v-.5c.1-.3.1-.5.2-.8.1-.5-.2-.9-.6-1-.5-.7-1.8-.3-2 .5-1.1 3.2-1.9 6.5-2.6 9.9-.3 1.3-.6 2.7-.9 4-.2 1-.4 1.9-.6 2.9-1.1 5.2-1.4 10.9 1.3 15.7.1.5.3 1.1.4 1.6.7 2.3 4.4 1.3 3.6-1-1.6-5.1-2-10.4-1.7-15.7v-.1c-.1 2.9.1 5.9.4 8.8.2 2.3.3 5 1.7 6.9.6.8 2.2.9 2.4-.3.5-2.2-.3-4.4-.6-6.6-.3-2.6-.5-5.2-.5-7.9-.1-5.3.3-11 1.5-16.2.4-1.4-1.4-1.8-1.9-.6z" fill="#e08c6e" opacity="1" data-original="#e08c6e"></path></g><g fill="#fff6f1"><path d="M151.3 332.6c-.1.6-.1 1.3.2 2 1.3 2.7 4.3 4.5 6.9 5.8 1.1.5 2.2 1 3.2 1.5l-1.1 1.1c3.7 1.3 7.3 2.8 11 4.2 6.2 2.3 12.4 4.6 19 6 6.3 1.3 12.8 2.2 19.2 3-2.8-.3-5.6-.7-8.5-1 11.4 1.4 22.7 2.8 34.1 4.4 6.1.5 12.2.3 18.2-.4 8.8-1.5 17.6-3.2 26.5-3.8 6.8-.5 13.5-.7 20.3-1.4 19.2-3.6 38-10.7 55.9-18.4 1.2-.5 2.5-1.1 3.7-1.7.1-.6.1-1.1.1-1.7v-.1c-.5-.2-1-.4-1.5-.5 2.7-2 3-6.3 3.1-9.5.2-4.3.1-9.4-.7-13.6v-.1c.2-1.2.4-2.3.6-3.5 1.8-10.7 2.5-21.6 1.5-32.5-.5-5.5-.8-11.6-1.9-17.4-.1-.7-.3-1.3-.4-2-.7-2.9-1.6-5.7-2.9-8.2-3.3-6.3-11.7-10.4-12.4-18-.1-1.6-1.3-3-3-2.9-7.6.3-15.3-2.2-22-5.6-6.2-3.1-10.6-8.4-14.5-14-1.5-2.2-4.9-.8-4.3 1.9 1.3 5.5 1.8 11.1 3.5 16.5-7 1.3-14.7.9-21.5-.2-7.4-1.2-14.6-4.1-20.4-9-11.8-9.9-18.4-29.4-13.7-44.3.6-2-2.3-3.1-3.3-1.3-.1.2-.2.5-.3.7-2.7 2.8-4.8 6.5-6.7 9.7-2.5 4.2-4.4 8.8-6.1 13.3-2 5.5-2.8 11.4-3.4 17.2-.5 4.6-1.2 9.5-1.3 14.3-.5 1-.8 2.1-1 3.2-3-3-5-8.7-6.2-11.8-1.2-2.9-2.2-5.7-3-8.8-1.1-4.4-1.3-9-2-13.5.4-1.2.7-2.5.6-3.8-.1-.9-1-1.5-1.8-1-4 2.3-5.7 8.4-7.1 12.5-1.2 3.3-1.7 6.9-2.2 10.3-.2 1.6-.4 3.2-.5 4.9.5 1 .8 2.1.9 3.2 0 1.5-.4 2.8-1.1 3.9v.1c0 .9.1 1.8.2 2.7h-1.1c-1.2 2-3.2 3.4-6 3.4-4.3 0-8.6-1.1-12.3-3.3-1 0-2 .1-3.1.1-9.2 1.6-18.2 4.8-27.3 6.7-.1.3-.1.5-.1.8-.8 1.2-1.3 2.8-1.7 4.2-1.1 3.8-2.2 7.7-2.7 11.6-.8 7-.6 14-1.5 21s-1.3 14.1-1.4 21.2c-.2 10.3.5 20.7 1.6 30.9.5 3.7.9 7.4 1.7 11zM135.6 301c-2.9-8.8-4.1-17.9-5-27-.6-5.8 1-12.3-.1-18.1.5-.6.8-1.4.4-2.3-2-5.2-7.5-8.9-12.4-11.2-5.2-2.5-11.7-3.6-17.1-1-4.6 2.2-6.8 7.7-8.5 12.3-2 5.5-2.9 11.2-2.8 17.1.1 6.7 1 13.8 3.8 20 2.5 5.4 6.2 10.7 10.8 14.6 4.1 3.6 9 4.3 14.3 3.9 5.6-.3 11.5-1.7 15.9-5.3.7-.7 1-2.1.7-3zM406.1 237.6c-5.4-1.2-11 .2-15.9 2.5-4 1.9-8.7 5.5-10.1 10-.2.2-.3.4-.4.7-1.3 4.2-.6 8.9-.4 13.2.3 4.6-.2 8.8-1.3 13.3-1 3.9-1.9 7.8-2.4 11.8-.3 2.3-.5 5.1.5 7.2-.3.7-.3 1.6.2 2.5 2.5 4.9 8.3 7.1 13.4 7.9 6.3 1 12.5-.6 17.4-4.7 10.6-8.7 15.5-22.7 15.5-36 .1-11.2-4.2-25.6-16.5-28.4z" fill="#fff6f1" opacity="1" data-original="#fff6f1"></path></g><g fill="#fdb8a9"><path d="M403.2 261.9s-.1 0-.1-.1c-4.6-2.7-12 2.7-15.6 5.3-3.7 2.7-8.9 6.9-8.8 11.9.1 6.4 9.8 6.2 14 5.5 6.9-1.1 13.2-6.4 14.6-13.3.8-3.8-1-8-4.1-9.3z" fill="#fdb8a9" opacity="1" data-original="#fdb8a9"></path><path d="M384.3 279.1h.2c0 .1.1.1.1.2-.1-.1-.2-.1-.3-.2zM123.3 269.2c-2.3-1.7-5.4-3.4-8.5-3.9-1.5-.7-3.1-1.3-4.8-1.5-6.8-.8-8.7 7-7 12 3.1 9 21 20.8 26.4 7.6 2.4-5.8-1.5-10.8-6.1-14.2zM359.5 244.6c-1.1-.5-2.2-.9-3.2-1.5-2-1.2-3.7-2.9-5.3-4.5-.8-.7-1.5-1.5-2.2-2.3h.3c1.3-.1 1.2-1.9 0-2-.7-.1-1.4-.1-2-.2-1.1-1.3-2.1-2.5-3.2-3.7.8-1.3.7-3.2-.9-3.9-7.1-3.3-14.8-5.1-22-8.2-7-3.1-15-7.6-18.1-15-.4-.9-2.1-.9-2 .3.7 7.6 5.4 12.8 11.7 16.7 2.8 3.9 6.1 7.2 10.5 9.7 3.9 2.2 8.3 3.5 12.6 4.5 2.1.5 4.4 1.1 6.6 1.4 1.8 2.6 3.9 5 5.9 7.2 2.8 3.1 7.7 7.6 12.2 7.1-.4-1.9-.7-3.7-.9-5.6zm-35.6-16.2c-3-1.6-5.6-3.7-7.8-6.2 7.6 3.9 16.5 6.3 23.3 8.9.4.8.8 1.6 1.2 2.3-5.8-.9-11.4-2.3-16.7-5zM148.7 328c.4 2.2.8 4.5 1.3 6.8-.3-.1 2.6 0 2.3-.1-1.1-.4-2 1.2-1.1 2 1.1.9 2.2 1.8 3.4 2.6 0 .1.1.1.1.2-.9-.1-1.7.6-1.6 1.6.7.1 1.5.3 2.2.4s1.3.3 2 .5c-.2-.2-.3-.4-.5-.6.4 0 .8 0 1.2-.1 5 2.6 10.5 4.3 15.8 5.5 2.8.7 5.6 1.2 8.4 1.7 0 .1.1.1.2.2.1 0 .1.1.2.1-4-.7-8-1.7-11.9-2.7-.4-.1-.8 0-1.1.3.7.3 1.5.6 2.2.9 6.2 2.3 12.4 4.6 19 6 6.3 1.3 12.8 2.2 19.2 3-2.8-.3-5.6-.7-8.5-1 11.4 1.4 22.7 2.8 34.1 4.4 6.1.5 12.2.3 18.2-.4 8.8-1.5 17.6-3.2 26.5-3.8 6.8-.5 13.5-.7 20.3-1.4 19-3.5 37.4-10.5 55.2-18.1-.3 0-.7 0-1 .1l-.9.3c.5-.5.9-1 1.3-1.5.3-.4.4-.7.3-1.1 2.5-.6 5.3-1.3 7.1-3.3 1.7-1.9 0-4.3-1.9-4.2 1.3-3.2 2-6.8 2.2-9.8.1-1-.9-1.3-1.6-1.1 1.3-3.3 2.1-6.9 1-9.9-.1-.3-.5-.3-.7-.1-1.3 1.8-1.7 4.3-2.3 6.4-.7 2.4-1.7 4.7-3 6.8-2.4 4.2-6.1 7.6-10 10.5-1.8 1.3-3.8 2.5-5.8 3.6-.4.1-.8.3-1.1.4-9.6 3.6-19.1 7.1-29.2 9.2-21 4.5-43.1 3.9-64.4 3.8-19.4-.1-33.8-2.7-53.1-4.8-9.6-1.1-24.2-3-30.9-10.7-.3-1.4-1.9-3-2.1-4.3-.9-4.6-3.4-7.7-4.1-12.3-1.4-9.5-2-19.2-1.9-28.8.1-9.3 1.2-18.4 2.4-27.6.6-4.4.8-8.8 1.7-13.1.5-2.2 1-4.4 1.2-6.7 4.9-.2 10-1.6 14.6-2.4 5.6-1 11.1-2 16.8-2.3 5.3 2.4 12.7 2.1 17.8 0 1.3-.5 2-1.7 1.7-2.9 1.1-2.2.1-5.3.1-7.7-.1-3.9.3-7.7.9-11.6.5-3.8 1.3-7.6 2.1-11.3-.7 10.8-2.6 24 7.4 29.7.7.5 1.4.9 2.2 1 .2.2.3.5.5.7.4.7 1.3 1.1 2.1.8.3-.1.6-.2.8-.5.1-.1.2-.3.3-.4.2.2.5.4.8.6 1.2.6 2.8-.5 2.5-1.7.4-.2.7-.6.9-1 .8-2.3.8-4.5.9-6.9.1-2.8.6-5.6 1.1-8.4.9-5.1 2-10.2 3.2-15.2.1-.5.2-.9.4-1.4 2 8.4 7.4 16.6 13 21.7 6.7 6 15.3 9.4 24 11.3 7.2 1.6 15 1.8 21.9-.9h1.4c2.5.1 5.1.7 7.5 0 1.8-.5 1.7-2.6.4-3.5-3.1-2.3-7.9-1.9-11.6-2-4.1-.1-8.2.1-12.4-.1-9-.6-15.5-6.6-21.3-12.9-10.1-10.9-17.4-26.9-11-41.5.6-1.3-1-2.7-2.1-1.6-1.5 1.6-2.7 3.3-3.5 5.1-6.6 6.3-9.5 15.7-11.8 24.4-1.4 5.4-2.5 11-3.4 16.5-.6 3.5-1.5 7.7-1.1 11.4-.3.3-.4.7-.6 1.1-.3-.1-.7 0-1 .2-.2-.2-.5-.4-.7-.6-1.4-2.2-2.8-4.5-4.5-6.4-.3-.7-.6-1.3-.8-2-1.4-3.6-2.1-7.2-2.7-11 0-4.9 0-9.7-1.5-13.1.2-.8.4-1.6.7-2.4.3-1-1.1-1.8-1.8-1.1-.2.1-.4.2-.5.3-4 4.1-7.2 9.9-7.9 15.7-.3 2.8-.3 5.6-.2 8.5.9 1.3 1.5 2.8 1.5 4.2 0 1.5-.4 2.8-1.1 3.9-.1.6-.3 1.2-.5 1.8 0 .7 0 1.5.1 2.2-.6.2-1.1.6-1.4 1.2-.3-.2-.7-.3-1.1-.3-1.1.8-2.5 1.3-4.1 1.3-2.9 0-5.7-.5-8.4-1.5-3.9-.3-7.8-.6-11.8-.7-8 1.8-15.9 4.5-24 6-.5.1-1.1.2-1.6.2.1.9.9 1.8 1.8 1.9-.3.1-.5.2-.8.3-1.2.5-1.5 2.5 0 2.8.2 0 .3.1.5.1-.7 2.6-1.3 5.2-1.9 7.9-1 4.3-1.1 8.9-1.8 13.3-1.4 9.3-2.5 18.5-2.5 27.9-.1 9.6.7 19.3 2.1 28.8.6 4.4-1.7 8.5-.9 12.7zm191.5 10.5c-1.8.7-3.6 1.4-5.5 2 1.8-.7 3.6-1.4 5.5-2zm-142.4 12.2h-.5c-.3-.1-.7-.1-1-.2.5.1 1 .2 1.5.2zm42.7-167c.7 10 6.4 20.6 11.8 27.3 5.6 6.8 12.4 14 21 16.8-8-1.7-15.7-4.8-22.2-9.9-6.8-5.5-13.1-15.5-14.1-25.2 1.1-3.1 2.3-6.1 3.5-9z" fill="#fdb8a9" opacity="1" data-original="#fdb8a9"></path></g><g fill="#f7d581"><path d="M392.6 230.6c-.1 0-.2.1-.3.1-1.3-2.4-2.2-4.9-2.3-8-.1-3.9.4-7.8 0-11.7-.4-4.2-2.1-7.9-4.3-11.5-2.6-4.1-4.9-8.2-7.2-12.4-4.3-8.2-9-15.5-16.1-21.5-3.5-2.9-7.2-5.6-10.8-8.4-3.9-3-7.4-6.3-11.1-9.6-6.9-6-15.2-10-23.7-13.3-8.6-3.4-17.4-5.9-26.5-7.7-18.1-3.6-36.9-4.1-55.2-1.6-29.9 4.1-58.8 16.8-79.7 38.9-10.1 10.6-17.2 23.1-22.4 36.7-4.8 12.7-12 26.9-10.2 41v.6c0-.3 0-.2.1.3v.1c.1.5.2.9.3 1.4.2 1 1 1.2 1.8 1 .5.5 1 .9 1.3 1.6.5.9 1.7 1.4 2.7 1.1 1.1-.3 1.6-1.3 1.7-2.3.1-.9.1-1.7 0-2.7-.1-.9-.1-1.9-.6-2.8 1.4-3.4 2.5-7 3.6-10.5.9-3 1.6-6.1 2.4-9.1 3.7-4.4 7-9.2 10.2-13.8 3.7-5.2 6.7-10.7 11.6-14.9 4.1-3.6 9.1-6.1 13.7-8.8 6.9-4.1 14.1-7.8 21.6-10.9 14.5-6.1 29.9-10.4 45.4-13.1 4.4-.8 9-1.4 13.5-1.8.1 0 .2.1.3.1 8.7 1.8 17.6 2.2 26.4 2.8 1.4.5 2.8 1.1 4.1 1.8 1.7.8 3.2.1 4-1.1 3.5.3 6.9.8 10.3 1.4 13.5 2.6 26.2 8.5 37.2 16.8 9.9 7.5 18.5 16.6 27.4 25.3 9.9 9.7 17 21.9 20.2 35.4.6 2.5 3.5 2.7 5.2 1.3.9-.7 1.8-1.4 2.8-2.1 2 1.4 5.1-.4 4.8-2.7 2.8-2 1.2-6.7-2.2-5.4zM229 94.7l3.9-1.5c.1 1.2.9 2.3 2.6 2.3 13-.5 25.7-3.6 38.7-1.1 2.7.5 4.7-2.6 2.7-4.7-6.6-6.7-16.1-8.5-25.2-7.5-8.1.9-18.1 4.4-23.9 10.5-.8.8 0 2.4 1.2 2z" fill="#f7d581" opacity="1" data-original="#f7d581"></path></g><g fill="#dd9d64"><path d="M392.9 234.5c-.5-6.6-.6-13.2-1.8-19.7-.8-4.2-2.6-8.1-4.4-11.9-1.7-3.7-3.5-7.6-6-10.8-.8-1-1.9-2.4-3.2-3.2-.9-1.8-1.8-3.5-2.8-5.2.4-2.2-.1-4.6-2.3-5.1-.4-.1-.8 0-1.1.2-.5-1.8-1.3-3.5-2.3-5.2-2.8-4.6-7.5-7.6-10.7-11.9-.3-.4-.8-.3-1 .1-.4-.3-.9-.6-1.4-.8s-1.4.3-.9 1c1.6 2 2.9 4 4 6.2.7 3.2 2 6.4 2.6 9.6.4 2.2.6 4.7-.1 6.9-.3 1.1-.8 1.7-1.5 1.9-10.2-9.3-21.6-17.3-34.1-23-31.1-14.3-67.4-16.1-100.6-9.3-11.1 2.3-22.3 5.5-32.6 10.1-5.6 2.5-10.7 5.6-15.7 9-4.9 3.3-10.1 6.2-15.1 9.4-10.3 6.7-17.5 16-23.9 26.3s-12.1 21.5-16.5 32.9c-.9 2.3 2.7 3.5 3.9 1.6l.9.9c0 .1.1.2.1.3.2.3.5.6.7.9s.4.6.7.7c.5.2.7.3.3.1.7.3 1.4.3 2-.3l.3-.3c.7-.5 1.2-1.3 1-2.2.3-.7.3-1.6-.2-2.3-.8-1-1.8-2.2-2.8-3.2 8.6-15.3 15.2-32.2 28.3-44.5 6.8-6.4 15.6-10.4 23.4-15.4 8.3-5.4 16.5-9.5 26-12.6 33-10.7 68.8-12.4 102.2-2.1 16.2 5 30.4 13.4 43.3 24.1-1 .2-1.5 1.6-.8 2.5 3.3 4 6.9 7.7 10.2 11.7 3.6 4.3 6.9 8.8 10.5 13.1 6.3 7.6 6.8 18.5 13.6 25.8 2.2 2.4 6.4-.7 5-3.4 1.5.1 3-.8 2.8-2.9zM251.4 93.1c3.1.6 6.2-.1 8.7-1.8 3.9 1.4 8.6.8 12.7 1.4 2.8.4 4.2-2.9 1.9-4.5-2.7-1.9-5.7-3.4-8.5-5.1-.6-.3-1.1-.4-1.6-.4-.5-.4-1.2-.3-1.7.1-.2-.3-.6-.5-.9-.6s-.6 0-.7.2c-.8.8-.6 1.7-.8 2.7-.2 1.1-1.1 2.3-2 3-2 1.5-4.7 2-7 2.6-1.3.3-1.3 2.2-.1 2.4z" opacity="1" fill="#dd9d6450" data-original="#dd9d6450"></path></g><path fill="#f9a5b4" d="M332.3 336.7c-10.5 2.2-21.7-2.5-23.4-10.8-1.8-8.3 5.4-16.5 17.1-19.3 10.4-2.6 22.3-.4 25.1 10.8 2.8 11.6-8.3 17.1-18.8 19.3zM177.4 340c10.6 2 21.6-2.9 23.2-11.3 1.6-8.3-5.7-16.4-17.5-19-10.5-2.3-22.3.1-24.9 11.3-2.6 11.7 8.6 17 19.2 19z" opacity="1" data-original="#f9a5b4"></path><g fill="#f34d65"><path d="M323.8 321.3c-.5-.1-1.2.2-1.3.8-.1.3-.2.7-.3 1-.1.4-.4.8-.5 1.2-.1.5.1 1 .5 1.3.6.3 1.2.1 1.6-.4.5-.7.9-1.8.7-2.7 0-.6-.2-1-.7-1.2zM328.1 321.9c0 .4-.1.8-.2 1.2-.1.5-.3 1 0 1.5.2.3.5.4.8.3 1.3-.2 1.1-2.1 1-3-.1-1-1.5-1-1.6 0zM336.7 320.8c-.2-1-1.7-.9-1.9 0-.1.4-.2.8-.4 1.2-.2.6-.5 1.3-.2 1.8.2.3.4.5.8.4.8-.1 1.2-.7 1.5-1.4s.4-1.3.2-2z" fill="#f34d65" opacity="1" data-original="#f34d65"></path></g><g fill="#f34d65"><path d="M185.6 324.4c.5-.2 1.2.2 1.3.7.1.3.2.6.3 1s.4.7.5 1.2-.1 1-.5 1.3c-.6.3-1.2.1-1.6-.4-.5-.7-.9-1.8-.8-2.7.1-.5.3-1 .8-1.1zM181.3 325.1c0 .4.1.8.2 1.2.1.5.3 1 0 1.5-.2.3-.5.4-.8.4-1.3-.2-1.1-2.1-1-3 .1-1.1 1.5-1.1 1.6-.1zM172.6 324.1c.1-1 1.7-.9 1.9 0 .1.4.2.8.4 1.2.3.6.6 1.3.2 1.8-.2.3-.4.5-.8.4-.8 0-1.2-.7-1.5-1.4-.2-.6-.3-1.2-.2-2z" fill="#f34d65" opacity="1" data-original="#f34d65"></path></g><g fill="#f2f5fe"><path d="M339.7 314.8s-.1 0-.1-.1c.3.2.2.2.1.1z" fill="#f2f5fe" opacity="1" data-original="#f2f5fe"></path><path d="M340 309.9c-.9-.4-1.9-.2-2.4.7s-.2 1.9.6 2.4l.1.1v.1s.3.8.3.7c.1.2.2.4.4.6 0 0 .4.3.6.4.4.2.7.2 1.1.1.1 0 .1-.1.2-.1.7-.3 1-.9 1.1-1.6.2-1.5-.8-2.9-2-3.4zm-1.6 3.2c.1.1.1.1 0 0z" fill="#f2f5fe" opacity="1" data-original="#f2f5fe"></path></g><g fill="#f2f5fe"><path d="M169.5 318.2s.1 0 .1-.1c-.3.2-.3.2-.1.1z" fill="#f2f5fe" opacity="1" data-original="#f2f5fe"></path><path d="M167.1 316.6c.1.8.4 1.3 1.1 1.6.1 0 .1.1.2.1.3.1.7.1 1.1-.1.2-.1.6-.4.6-.4.2-.2.3-.3.4-.6 0 0 .3-.7.3-.8v-.1l.1-.1c.8-.5 1.1-1.6.6-2.4-.5-.9-1.5-1-2.4-.6-1.2.6-2.1 2.1-2 3.4zm3.7-.1c-.1.1-.1.1 0 0z" fill="#f2f5fe" opacity="1" data-original="#f2f5fe"></path></g><path fill="#f7d581" d="M169.8 482.2c.6.6 1.1 1.1 1.8 1.6.3.3.6.5 1 .8.1.1.2.1.3.2 3.1 1.9 6.3 3.6 9.6 5.1.6.3 1.2.5 1.9.8.1 0 .2.1.2.1 1.8.7 3.6 1.3 5.4 1.9 3.5 1.1 7.1 2.1 10.7 3 8.3 2 16.8 3.5 25.2 5.2 2.4.5 4.8 1 7.3 1.3h.4c1.3.1 2.5.2 3.8.3 5.8.4 11.6 1.2 17.3 2.2 2.2.4 4.3.8 6.5 1.3 3.7-.8 7.4-1.5 11.1-2.1 8.6-1.4 17.3-2.2 26-3 1.8-.2 3.6-.3 5.4-.5.6-.1 3.8-.5 3.9-.4 1.5-.2 2.9-.4 4.4-.7 1-.5 1.9-1 2.9-1.5 4.4-2.3 8.9-4.3 13.4-6.3 5-2.1 9.9-3.7 15.2-5.2 1.6-.4 3.1-.9 4.6-1.4.1 0 .2-.1.2-.1-.4-6.8-.6-13.5-2.3-20.2-1.8-7.2-5-14-6.9-21.2-1.8-7.1-3.1-14.2-5.9-21-2.9-7.3-6.5-14.3-9.8-21.5-3.1-6.9-5.2-13.9-7.3-21.1-1.6-5.6-3.4-11.4-4.2-17.1.4-.2.8-.5 1.1-.9 5.2-7.5-9.6-7.1-13.7-6.6-4.4.5-8.7 1.3-13 2-5.2.8-10.5.8-15.8 1.2-6 .5-11.9 1-17.9 1.2-5.2.1-10.4-.1-15.7.1-5.1.1-10.1.2-15.2-.1-4.8-.3-9.2-1.5-13.9-2.4-1.2-.2-2.1 1.1-1.2 1.9.8.8 1.7 1.4 2.7 2 1 14.4.9 28.7-3.2 42.7-2 6.9-4.8 13.7-9.2 19.5-4.1 5.4-9.2 10.1-13.2 15.6-4.3 5.7-6.5 12.7-8.5 19.3-2.2 7.4-3.8 15-5.8 22.5-.1.3-.2.6-.3 1 .3.1.5.2.7.5z" opacity="1" data-original="#f7d581"></path><g fill="#fceed0"><path d="M227.7 362.9c-2.4 0-4.7.9-6.4 2.5s-2.7 3.8-2.7 6c0 2.3 1 4.4 2.7 6s4 2.5 6.4 2.5 4.7-.9 6.4-2.5 2.7-3.8 2.7-6c0-2.3-1-4.4-2.7-6s-4-2.5-6.4-2.5zM258.9 390.9c4.4 0 8.1-3.4 8.1-7.5s-3.7-7.5-8.1-7.5-8.1 3.4-8.1 7.5 3.7 7.5 8.1 7.5zM223.1 396.8c-11.8 0-11.8 17 0 17 11.7 0 11.7-17 0-17zM254.3 423.9c12.1 0 12.1-17.5 0-17.5s-12.1 17.5 0 17.5zM291 410.8c2.7 0 5.2-1 7.1-2.8s2.9-4.2 2.9-6.6c0-2.5-1.1-4.9-2.9-6.6-1.9-1.8-4.4-2.8-7.1-2.8s-5.2 1-7.1 2.8-2.9 4.2-2.9 6.6c0 2.5 1.1 4.9 2.9 6.6 1.9 1.8 4.5 2.8 7.1 2.8zM290.6 380.1c2.5 0 4.8-.9 6.6-2.5 1.7-1.6 2.7-3.8 2.7-6.1s-1-4.5-2.7-6.1-4.1-2.5-6.6-2.5-4.8.9-6.6 2.5c-1.7 1.6-2.7 3.8-2.7 6.1s1 4.5 2.7 6.1 4.1 2.5 6.6 2.5zM284.6 443.9c2.5 0 5-1 6.8-2.6 1.8-1.7 2.8-4 2.8-6.4s-1-4.7-2.8-6.4-4.3-2.6-6.8-2.6-5 1-6.8 2.6c-1.8 1.7-2.8 4-2.8 6.4s1 4.7 2.8 6.4 4.2 2.6 6.8 2.6zM318.5 464.2c5.3 0 9.8-4.2 9.8-9.2s-4.5-9.2-9.8-9.2-9.8 4.2-9.8 9.2c0 5.1 4.5 9.2 9.8 9.2zM297 467.1c0-2.4-1-4.7-2.8-6.4-1.2-1.1-2.6-1.9-4.3-2.3s-3.4-.4-5.1 0c-.2 0-.3.1-.5.1-4.1.9-7 4.7-7 8.6s2.9 7.6 7 8.6c.2 0 .3.1.5.1 2.5.6 5.2.3 7.4-.9 2.9-1.6 4.8-4.6 4.8-7.8zM250.2 454.4c2.6 0 5.1-1 7-2.7 1.8-1.7 2.9-4.1 2.9-6.5s-1-4.8-2.9-6.5c-1.8-1.7-4.4-2.7-7-2.7s-5.1 1-7 2.7c-1.8 1.7-2.9 4.1-2.9 6.5s1 4.8 2.9 6.5c1.8 1.8 4.3 2.7 7 2.7zM216.2 415.7c-12.2 0-12.2 17.7 0 17.7 12.2.1 12.2-17.7 0-17.7zM213.4 466.6c2.7 0 5.2-1 7.1-2.8s3-4.2 3-6.7-1.1-4.9-3-6.7-4.5-2.8-7.1-2.8c-2.7 0-5.2 1-7.1 2.8s-3 4.2-3 6.7 1.1 4.9 3 6.7 4.5 2.8 7.1 2.8zM259.3 481.2c0-2.5-1.1-4.9-3-6.7s-4.5-2.8-7.1-2.8c-2.7 0-5.2 1-7.1 2.8s-3 4.2-3 6.7 1.1 4.9 3 6.7 4.5 2.8 7.1 2.8c2.7 0 5.2-1 7.1-2.8 2-1.7 3-4.2 3-6.7zM298.1 500.9c1.8-.2 3.6-.3 5.4-.5.6-.1 3.8-.5 3.9-.4.5-.1 1-.1 1.4-.2 0-.7-.1-1.3-.3-1.9-.7-2.3-2.4-4.4-4.6-5.6l-2.4-.9c-1.8-.4-3.6-.4-5.3 0-.9.3-1.8.6-2.6 1-1.5.8-2.7 2-3.6 3.4-.4.8-.7 1.5-1 2.3-.1.8-.2 1.7-.4 2.5 0 .5 0 .9.1 1.4 3.1-.5 6.3-.8 9.4-1.1zM328 491.5c5-2.1 9.9-3.7 15.2-5.2.2 0 .3-.1.5-.1-.5-.9-1.1-1.8-1.9-2.6-1.9-1.8-4.5-2.8-7.1-2.8-2.7 0-5.2 1-7.1 2.8s-3 4.2-3 6.7c0 .9.1 1.7.4 2.6.9-.5 2-1 3-1.4zM223.6 500.4c.5-1.2.8-2.4.8-3.7 0-2.5-1.1-4.9-3-6.7s-4.5-2.8-7.1-2.8c-2.7 0-5.2 1-7.1 2.8-1.8 1.7-2.9 4-2.9 6.5 6.4 1.4 12.9 2.6 19.3 3.9zM179 463c-2.6 0-5.1 1-7 2.7-1.8 1.7-2.9 4.1-2.9 6.5s1 4.8 2.9 6.5c1.8 1.7 4.4 2.7 7 2.7s5.1-1 7-2.7c1.8-1.7 2.9-4.1 2.9-6.5s-1-4.8-2.9-6.5-4.4-2.7-7-2.7z" fill="#fceed0" opacity="1" data-original="#fceed0"></path></g><path fill="#dd9d6450" d="M211.2 370c.4.9.9 1.6 1.6 2.3-1.3.7-2.4 1.8-2.4 3.4 0 .5.5 1.1 1 1 1.8-.2 3.4-1.2 5.2-1.6h.1c1.3.7 2.6 1.3 3.7 1.8 4.4 2.2 9.2 3.5 13.9 4.6 9.9 2.3 20.3 3.2 30.5 3.4 11.3.2 22.9-1 33.3-5.5 1.5-.7 3.1-1.3 4.6-2.1 1.1-.1 2.2-.2 3.3-.1 1.8.1 1.7 1 2.4 2.4.6 1.2 2.2 1 2.8 0 1.8-2.6-.5-5.4-3.1-6.2.4-.5.9-.9 1.3-1.5 1.9-2.6 2.3-6.6 1.5-9.8.1-.2.2-.5.3-.7.5-.8 1-1.5 1.5-2.3 1.1-1.5-.5-3-2-2.8-.2-.1-.4-.2-.7-.3-5.6-1.2-11-3.2-16.8-2.5-4.7.5-8.4 3-11.7 6.3s-6.1 6.4-10.7 7.6c-2 .6-4.1.8-6.2 1-6.1.5-12.4.5-18.3-1-2.2-.6-4.5-1.4-6.1-3.2s.5-4.3-.9-6.3c-.5-.8-1.3-1.1-2.2-.9-.8.2-1.4.5-1.9 1.1-8.1-.9-16.3.5-24.4-1.8-2-.6-3.8 1.3-3.3 3.3.8 3.4.9 8 3.7 10.4zM349.5 484.9c-.2-.3-.4-.5-.7-.7s-.8-.3-1.2-.2c0-.1 0-.2-.1-.3.2-1.8.2-3.5-.2-5.2 1.7-.4 2.3-3 .4-3.8 1.6-1.1 1.5-3.9-.6-4.3h-.3v-.6c1-1.1 1.2-2.8-.1-3.9-.2-2.4-.6-4.8-1-7.2-.4-2.2-1-4.4-1.8-6.5-.9-2.4-2.8-3.5-4.4-5.3-3.6-3.9-5.5-9.3-7.5-14.2-2.2-5.3-5.1-10.1-8.6-14.7-7-9.2-15.9-15.5-26.6-19.9-5.4-2.2-11.1-3.8-16.8-4.8-4.9-.9-10.1-1.7-14.9-.3-7.4-4.8-17.2 3.3-24.1 5.8-1.2.4-1.7 1.4-1.8 2.4-1.7.7-3.3 1.5-4.9 2.3-4.5 2.3-9 4.8-13.5 7.1-9.2 4.9-18.1 10.5-26.2 17.1-7.1 5.8-13.7 13.1-17.2 21.6-1.6 4-2 8.9-2.6 12.2-.2 1.2-.5 2.4-.8 3.6 0 .2-.1.3-.1.5h-.1c-1.1 0-1.8 1.4-.9 2.3 3.7 3.5 9.7 3.1 14.2 1.9 5.4-1.5 10.1-5.1 14-8.9 4-4 7.4-8.7 10.2-13.6 2.9-5 5.7-11.4 12.3-11.6 3.1-.1 6 .9 9.1.5 2.7-.4 5.4-1.6 7.6-3.3 4-3.2 5.9-7.8 6.9-12.7 1.1-5.1.5-11.3 4.1-15.4 3.2-3.6 8.9-4.7 13.3-6.3.8.3 1.6.7 2.3 1 1.2.4 3.7 1.2 5.1 2.1-1.3 3.7-1.2 7.9-1.2 11.7 0 4.9.1 9.9 2.8 14.2 1.1 1.7 2.5 3.1 4.1 4.3.5.6 1.2 1.2 2 1.8 1.6 1 3.5 1.6 5.5 2 4.4 1.5 9.4 2.1 13.4 4.6 3.2 2.1 4.5 6.7 6 10 2.3 4.8 5.8 8.9 10 12.2 3.1 4 7.2 7.1 11.7 9.5.9.9 1.8 1.8 2.5 2.9 1 1.5 1.7 3.2 2.4 4.9.4 1.1.5 2.1 1.1 3 .1.3.1.6.2.9.3 1.9.4 4.2 1.5 5.8-.2.7.5 1.6 1.4 1.4 4.6-.9 9.6-.5 13.5-3.7.9-.4 1-1.5.6-2.2z" opacity="1" data-original="#dd9d6450"></path><g fill="#fff6f1"><path d="M278.5 360.5c.6-1.6-1-3-2.6-3.1-9.7-.6-19.3 2.4-28.9 1.1-1-.1-2 .1-2.6.7-1-1-3 .2-2.6 1.5 2.4 6.8 11.3 9 18.2 9.2 7.4.1 15.7-2.5 18.5-9.4zM361 426.5c-1-3.4-2.7-6.6-4.1-9.9-1.6-3.5-2.8-7.2-4.4-10.7-2.9-6.5-6.6-12.4-11.6-17.7-1.1-3-2.2-6-3.5-9-2.2-5.2-5.2-10.2-9-14.6-2.7-3.1-7.2-6.9-11.8-6.6-.4-.1-.7 0-1.1.1-.2 0-.4.1-.6.1-.9.2-1.4 1.2-1.2 2-.9 2-1.2 4.6-1.6 6.3-1 4.2-1.9 8.4-2.5 12.6-.5 3.6-.9 7.2-.5 10.8-.6-.4-1.2-.8-1.8-1.1-3.3-1.7-7.2-1.6-10.8-1.4-10.4.5-20.9.5-31.4.5-2.8 0-3.8 3.5-1.4 4.8 5 2.7 10.6 4.4 16.1 6.2-1.5 4.8-1.7 10.2-1.9 15.1-.2 3.9 1.1 7.3 4.4 9.8 3.1 2.3 7 3.2 10.8 3.4 3.1.2 7.7-.2 10.5-2.1 1.6 1.9 3.2 3.7 4.4 5.9 1.3 2.4 2.3 5.1 3.9 7.4 2.4 3.5 6.1 6 9.9 8 8.2 4.2 18.8 6.1 27.7 3.4 11.1-3.2 14.4-13.6 11.5-23.3zM256.6 388.4c-9.6-.4-19.3-1.1-28.9-1.5-4.4-.2-8.7.7-12.8 2.1-2 .7-3.5 1.6-4.9 2.6.8-5.1 1-10.2.7-15.3-.3-4.8-.9-11.9-4.7-15.8.7-1.3-1.1-2.9-2.6-2.1-6.6 3.2-12.9 6.9-16.9 12.9-4.8 7-6.2 15.6-10.1 23-2.8 5.1-6.5 9.8-9.4 14.9-3.1 5.4-5.8 11.2-7.1 17.2-1.2 5.4-1 11 1.8 16 3.2 5.5 10 8.5 16.4 9.5 7 1 14.5-.2 20.6-3.7 5.2-3 9.4-8.1 12.7-12.8 1.9-2.8 3.7-5.9 4.1-9.2 4.2.1 8.4 0 12.5 0 2.9 0 6 .1 8.7-1 5-2.2 3.9-8.9 4.8-13.1.7-3.3 1.2-6.4 0-9.7-.5-1.3-1-2.6-1.3-3.9.3-.2.9-.4 1.2-.6 4.9-2.3 10.8-3 16.2-4.1 2.9-.9 2-5.2-1-5.4z" fill="#fff6f1" opacity="1" data-original="#fff6f1"></path></g><g fill="#fdb8a9"><path d="M276.4 356.5c-9.2 1.9-19.2 3-28.5 1.5-.9-.2-1.9.2-2.6.7-.5-.1-.9-.2-1.4-.2-1.1-.1-1.8 1.2-1.3 2.1 4.7 6.9 13 10.3 21.5 9.9 7.6-.3 15-3.7 15.9-11.4.2-1.8-2-2.9-3.6-2.6zM239.9 401.1c.4 4.4 1.1 9.3-1.5 13.2-2.1 3.2-7.1 2.8-10.6 2.7-8.2-.3-16-.2-21.3 6.5-2.3 2.9-4.1 6.3-6.3 9.3-2.9 3.8-6.9 6.8-11.3 8.9-4.5 2.1-9.6 2.6-14.5 2.6-2.2 0-4.3-.2-6.4-.9-2-.6-3-2.1-4.7-3.1-1.4-.8-2.8.3-3 1.6-.5 4.5 5.5 6.6 9.3 7.2 1.8.3 3.7.4 5.5.4 5.9 3 13.8 1.8 19.7-.5 6.6-2.6 12.2-7 16.1-12.6 3.4-4.9 4.1-11 11.6-11.3 3.3-.1 6.6.8 10 .9 3.9.1 7.2-1.5 10-3.9.9-.7 1.2-2.3.4-3.2l-.3-.3c-.2-.3-.5-.5-.8-.8.6-.7 1.2-1.6 1.6-2.6 2.1-4.6 1.3-10.6-.9-14.9-.5-1.1-2.7-.6-2.6.8zM170.9 406.1c5-7.1 10.4-14.2 16.3-20.7 2-.9 4.1-1.5 6.2-1.5 1.2.9 2.3 2 3.2 2.8.6 1.5 1.3 3 1.8 4.6v1.6c0 .8-.1 1.6-.2 2.4-.4.7-.7 1.4-1.1 2.1-.1.3-.2.5-.1.7-1.3 2.8-2.7 5.5-4.4 8.2-1.3 2.1-2.8 4-4.6 5.8s-4.2 2.9-6.1 4.5c-1.3 1.1-.3 3.5 1.5 3.3 5.3-.5 9.8-5.3 12.8-9.1 3.8-4.8 6.3-10.5 8.6-16.1.5-1.1.9-2.3 1.4-3.5.6 0 1.2-.1 1.7-.5.5-.3.8-.7.9-1.2.8-1.5 1.1-3.3 1.3-5 .2-1.8.6-3.8.3-5.6.1-.3.1-.7.2-1 .2-1.3.2-2.5.1-3.7.2-2.9-.3-5.8-1.5-8.5-.6-2.3-1.3-4.6-2.4-6.6-.2-.4-.8-.5-1.2-.3-.4-1-2.3-1.3-2.5 0 0 .2-.1.5-.1.7-1.1-.1-2.2 0-3.2.5-1.2.5-2 1.4-2.5 2.5-3.2 1-5.6 3.1-7.7 5.5-.6.5-1.1 1.1-1.6 1.8-.2.3-.4.6-.4.9-1.2 1.7-2.2 3.4-3.2 5-3.4 5.3-11.1 10.2-10.8 17 0 .8.7 1.3 1.4 1.5-2.2 3.7-4.1 7.6-5.6 11.4-.5.8.9 1.3 1.5.5zM280 401.1c-.4 4.4-1.1 9.3 1.5 13.2 2.1 3.2 7.1 2.8 10.6 2.7 8.2-.3 16-.2 21.3 6.5 2.3 2.9 4.1 6.3 6.3 9.3 2.9 3.8 6.9 6.8 11.4 8.9s9.6 2.6 14.5 2.6c2.2 0 4.3-.2 6.4-.9 2-.6 3-2.1 4.7-3.1 1.4-.8 2.8.3 3 1.6.5 4.5-5.5 6.6-9.3 7.2-1.8.3-3.6.4-5.5.4-5.9 3-13.8 1.8-19.7-.5-6.6-2.6-12.2-7-16.1-12.6-3.4-4.9-4.1-11-11.6-11.3-3.3-.1-6.6.8-10 .9-3.9.1-7.2-1.5-10-3.9-.9-.7-1.2-2.3-.4-3.2l.3-.3c.2-.3.5-.5.8-.8-.6-.7-1.2-1.6-1.6-2.6-2.1-4.6-1.3-10.6.9-14.9.4-1.1 2.6-.6 2.5.8zM349 406.1c-5-7.1-10.4-14.2-16.3-20.7-2-.9-4.1-1.5-6.2-1.5-1.2.9-2.3 2-3.2 2.8-.6 1.5-1.3 3-1.8 4.6v1.6c0 .8.1 1.6.2 2.4.4.7.7 1.4 1.1 2.1.1.3.2.5.1.7 1.3 2.8 2.7 5.5 4.4 8.2 1.3 2.1 2.8 4 4.6 5.8s4.2 2.9 6.1 4.5c1.3 1.1.3 3.5-1.5 3.3-5.3-.5-9.8-5.3-12.8-9.1-3.8-4.8-6.3-10.5-8.6-16.1-.5-1.1-.9-2.3-1.4-3.5-.6 0-1.2-.1-1.7-.5-.5-.3-.8-.7-.9-1.2-.8-1.5-1.1-3.3-1.3-5-.2-1.8-.6-3.8-.3-5.6-.1-.3-.1-.7-.2-1-.2-1.3-.2-2.5-.1-3.7-.2-2.9.3-5.8 1.5-8.5.6-2.3 1.3-4.6 2.4-6.6.2-.4.8-.5 1.2-.3.4-1 2.3-1.3 2.5 0 0 .2.1.5.1.7 1.1-.1 2.2 0 3.2.5 1.2.5 2 1.4 2.5 2.5 3.2 1 5.6 3.1 7.7 5.5.6.5 1.1 1.1 1.6 1.8.2.3.4.6.4.9 1.2 1.7 2.2 3.4 3.2 5 3.4 5.3 11.1 10.2 10.8 17 0 .8-.7 1.3-1.4 1.5 2.2 3.7 4.1 7.6 5.6 11.4.5.8-1 1.3-1.5.5z" fill="#fdb8a9" opacity="1" data-original="#fdb8a9"></path></g><g fill="#7ad2f4"><path d="M305 300c-1.3-.1-2.8.7-4 .9-1.9.3-3.8.4-5.7.7-4.1.5-7.8 2.6-11.8 3.5-1.2.3-1 1.9 0 2.3 2.5.9 4.9.4 7.4.1 2-.3 4.1-.2 6.1-.3 3.2-.2 9.6.2 10.7-3.7.5-1.9-1-3.4-2.7-3.5zM221.3 303.9c-.3-1.2-1.7-1.5-2.6-.9-4.3-1.9-9.6-1.5-14.2-.3-2.7-1.4-4.8.9-5 3.6-.1 1.7 1.9 3.3 3.5 2.7 4.8-1.8 10.6-2.8 15.4-.6 2.1 1 4.5-1 3.3-3.3-.1-.4-.2-.8-.4-1.2zM232.9 301.5c-.2-.6-.6-1.1-1.1-1.4-.9-.5-2-.3-2.7.3-.1 0-.1.1-.2.1-.3.1-.6.3-.8.6-.9.9-1 2.1-.8 3.3.1.6.6 1.2 1.1 1.5.8.5 1.7.4 2.5 0 1-.5 1.7-1.5 2.1-2.5.2-.5.2-1.1 0-1.6-.1-.2-.1-.3-.1-.3zm-1.6 3.4c-.1 0-.1 0 0 0h-.1z" fill="#7ad2f4" opacity="1" data-original="#7ad2f4"></path></g><g fill="#fff"><path d="M201 302.8c-.3.6-.3 1.3.2 1.9.5.5 1.2.5 1.9.2-.4.2 0 0 0 0 .2 0 .3-.1.5-.1h.3c-.3-.1-.2-.1.3 0 .2 0 .4-.1.6-.1.6-.1 1-.7 1.2-1.2.2-.6 0-1.2-.4-1.6-1.4-1.4-3.8-.7-4.6.9zM220.4 302.5c-.5-.2-.9-.2-1.3-.1-.2 0-.5.1-.7.2-.9.4-.9 1.6 0 1.9.2.1.4.1.6.2.5.1.9.1 1.4-.1 1-.3 1-1.7 0-2.1zM303 299.7c-.9-.3-2.1-.2-3 .1-1.6.5-1.6 2.8 0 3.3.9.3 2.1.4 3 .1 1.8-.5 1.8-3 0-3.5z" fill="#ffffff" opacity="1" data-original="#ffffff"></path></g><path fill="#851919" d="M143.9 233c3.3.5 6.7-.4 9.9-.9 4.2-.7 8.3-1.4 12.5-2.1 4.1-.6 8.1-1.1 12.2-1.5 4-.4 8.6.1 12.4-1.1 1.4-.4 1.4-2.5 0-2.8-3.5-.9-7.7-.1-11.2.2-4 .3-8.1.9-12.1 1.5-4.2.6-8.3 1.4-12.5 2.1-3.8.7-8.1.8-11.6 2.6-.6.4-.5 1.8.4 2z" opacity="1" data-original="#851919"></path><path fill="#851919" d="M196.7 192.3c-3.7 4.6-5.3 11.5-6.3 17.2-1.1 6.1-1 12.2.1 18.3.4 2.2 3.6 1.2 3.3-.9-1-5.9-.9-11.8.1-17.6 1-5.5 3.5-10.9 4.1-16.4.1-.7-.8-1.1-1.3-.6z" opacity="1" data-original="#851919"></path><path fill="#851919" d="M192.7 229.4c2.1-.2 4.2-.5 6.3-.6 2-.1 4.5.3 5.7-1.4.3-.4.2-1.2-.2-1.5-1.6-1.3-4.3-.6-6.2-.4-2.4.1-4.6.3-6.5 2-.7.6-.1 2 .9 1.9z" opacity="1" data-original="#851919"></path><path fill="#851919" d="M216.1 184.7c-11.9 10.9-13.3 26.4-13.1 41.7 0 2.2 3.4 2.2 3.4 0-.1-7.3.1-14.6 1.8-21.7 1.6-6.9 5-13.4 8.9-19.3.3-.6-.6-1.2-1-.7z" opacity="1" data-original="#851919"></path><path fill="#851919" d="M216.4 185.1c-3.5 13.9.8 28.8 7.8 40.9 1.1 1.9 4 .2 2.9-1.7-3.7-6.5-6.4-13.3-7.7-20.7-1.1-6.1-.8-12.4-1.7-18.6-.1-.6-1.2-.5-1.3.1z" opacity="1" data-original="#851919"></path><path fill="#851919" d="M247.6 165c-5.1 2.6-8.8 7.6-11.9 12.3-3.4 5.3-5.7 11.1-7.5 17.1-1.7 5.7-2.7 11.6-3.1 17.5-.3 4.5-.7 10.2 1.1 14.5.6 1.5 3 .7 2.9-.8-.2-4.4-.9-8.5-.7-13 .3-5.6 1.3-11.1 2.8-16.5 1.6-5.8 3.9-11.2 6.7-16.5 2.7-5.2 6.7-9.2 10.6-13.4.6-.6-.1-1.5-.9-1.2z" opacity="1" data-original="#851919"></path><path fill="#851919" d="M248.4 165.5c-4.5 8.3-2.7 19.8 0 28.3 2.5 7.9 6.9 15.2 13.1 20.8 12.3 11 29.3 12.9 45 11 2.1-.3 2.2-3.7 0-3.4-14.1 1.7-29.7-.2-41.2-9.1-5.9-4.6-10.1-11-12.8-17.9-1.8-4.6-2.8-9.5-3.2-14.4-.4-5 .5-10 .3-14.9 0-.7-.8-1-1.2-.4z" opacity="1" data-original="#851919"></path><path fill="#851919" d="M299.7 196c-1.3 4.8-1.1 10.6-.5 15.5.6 5.1 2.7 9.6 6.1 13.5 1.4 1.7 3.8-.7 2.4-2.4-3.4-4-5-8.6-5.3-13.9-.3-4.2.6-8.6-.6-12.8-.3-.9-1.8-.9-2.1.1z" opacity="1" data-original="#851919"></path><path fill="#851919" d="M300.2 197.5c2.7 7.8 7.8 15.7 14.9 20.1 8.4 5.2 18.6 6.7 28 9.4 2.1.6 3-2.7.9-3.3-8.9-2.5-18.2-4.1-26.3-8.5-4-2.2-6.9-5.5-9.4-9.2-2.1-3.2-3.7-6.6-6.2-9.5-.8-.9-2.3 0-1.9 1zM243.4 170.6c-6.6 14.9-1.9 31.7 9.3 42.9 11.9 11.9 32.7 17.4 48.6 10.7 1.2-.5.8-2.1-.5-1.9-8.8 1.6-16.9 3-25.8 1-7.6-1.7-14.6-5.4-20.3-10.7-11.7-10.8-15-26.6-9.8-41.4.3-.9-1.1-1.5-1.5-.6zM217.6 258.8c-13.6.6-18.8 12.9-18.3 24.7.4 8.1 3.4 14.8 8.1 18.7.3-.1.5-.2.8-.2 5.7-1 11.7-1.5 16.5 2 6.5-3.7 10.9-12.1 10.8-20.9-.1-11.8-3.9-24.9-17.9-24.3zM285.4 302.2c5.1-2.1 10.6-2.9 16.1-3.5 3.5-4.3 5.7-10.2 5.6-16.4-.1-11.8-3.9-24.9-17.9-24.3-13.6.6-18.8 12.9-18.3 24.7.5 10.2 5.2 18.1 12 21.1.6-.6 1.5-1.2 2.5-1.6z" opacity="1" data-original="#851919"></path><path fill="#851919" d="M337.2 208.3c1.9 6.9 3 13.9 6.3 20.4 1.6 3 3.6 5.7 5.8 8.3 2.3 2.8 4.6 6.2 7.3 8.6 1.1 1 3 0 2.6-1.5-.9-2.9-3.1-5.2-5-7.5-2.4-2.8-4.9-5.6-6.8-8.8-3.8-6.4-4.9-13.7-8.1-20.4-.6-1-2.4-.2-2.1.9z" opacity="1" data-original="#851919"></path><path fill="#851919" d="M355.7 224.6c-2.2 4.3-1 9.6 0 14.1 1.1 5 2.4 9.9 3.1 15.1 1.2 9.4 2 18.8 2.4 28.2.5 11.7.3 23.5-.6 35.2-1.1 13.7-3.8 26.9-6.9 40.3-.5 2.1 2.5 2.9 3.2.9 3.9-12.1 5.6-25.1 6.9-37.7 1.2-12.2 1.4-24.5 1-36.7-.3-9.4-1.1-18.8-2.2-28.1-.5-4.3-1.2-8.6-2.2-12.9-.7-2.7-1.4-5.5-1.9-8.3-.6-3.2-.5-6.3-.8-9.5-.2-1-1.5-1.6-2-.6z" opacity="1" data-original="#851919"></path><path fill="#851919" d="M376.5 238c-.3 20.9.2 41.7-3.8 62.4-2 10.2-4.6 20.3-7.3 30.3-2.3 8.9-7.2 16.9-9.5 25.8-.6 2.1 2.7 3 3.3.9 2.4-8.9 7.2-16.8 9.6-25.8 2.8-10.5 5.4-20.9 7.5-31.6 3.9-20.1 5-41.7 2.4-62.1-.3-1.2-2.2-1.3-2.2.1z" opacity="1" data-original="#851919"></path><path fill="#851919" d="M381.8 249.6c3.2-4.7 6.9-8.7 12.4-10.6 5-1.7 10.5-1.3 15.3.9 11 5 12.3 17.6 11.8 28.3-.6 11.5-4.1 24.5-12.8 32.6-4.2 3.9-9.4 5.2-15 5.2-5.4 0-12.4-.9-15.6-5.8-1.1-1.7-4.1-.7-3.4 1.4 1.6 5.5 8.1 7.4 13.1 8.2 5.5.9 11.6.8 16.8-1.4 11.3-4.7 17-17.1 19.6-28.3 2.6-10.9 3.5-24.8-2.2-34.9-5.5-9.6-17.6-13.7-28-10.3-6.5 2.1-12.2 7.2-14 13.8-.4 1.3 1.3 1.9 2 .9z" opacity="1" data-original="#851919"></path><path fill="#851919" d="M404 260.1c-5.1-1.1-10.6.7-14.9 3.5-4 2.6-8.3 7.8-8.3 12.8 0 1.4 2 2 2.7.7 1-1.8 1.6-3.9 2.7-5.7 1.1-1.9 2.8-3.5 4.6-4.8 3.8-2.8 8.3-3.3 12.8-3.9 1.4-.2 2-2.3.4-2.6z" opacity="1" data-original="#851919"></path><path fill="#851919" d="M388.6 266.6c1 1.8 2.8 2.9 3.9 4.7 1.3 2.1 1.8 4.4 1 6.7-.6 1.8 2.1 2.8 3 1.3 1.6-2.7.7-5.9-.4-8.5-1-2.2-3.5-6.2-6.4-6-1 0-1.6 1-1.1 1.8zM152.8 229.4c-2.6 5.2-3.5 11.9-4.5 17.6-.8 4-1.1 8.2-1.5 12.3-.9 9.4-1.4 18.9-1.5 28.4-.1 11.8.5 23.7 1.8 35.4 1.4 12.5 3.5 25.3 7.6 37.2.7 2 3.7 1.2 3.2-.9-3.1-12.1-5.9-23.9-7.4-36.3-1.4-11.4-1.9-22.9-1.8-34.4 0-9.3.5-18.7 1.4-28 .4-4.3.8-8.6 1.5-12.8 1-5.8 3.7-12.1 3.1-18-.2-.9-1.5-1.5-1.9-.5z" opacity="1" data-original="#851919"></path><path fill="#851919" d="M130.3 240.6c-2.2 20.4-.6 41.9 3.7 62 2.2 10.2 4.9 20.2 7.8 30.2 2.7 9.3 7.8 17.5 10.5 26.7.6 2.1 3.9 1.2 3.3-.9-2.6-8.8-7.5-16.7-10.1-25.6-2.9-10-5.6-20-7.9-30.2-4.6-20.6-4.4-41.4-5.1-62.3-.2-1.3-2.1-1.2-2.2.1z" opacity="1" data-original="#851919"></path><path fill="#851919" d="M130.7 251.8c-3.3-10.9-15.8-15.8-26.3-13.6-11.8 2.5-17.4 13.3-18.2 24.5-.9 12.1 1.8 25.4 8.1 35.8 3 4.9 7.1 9.1 12.3 11.6 5.1 2.4 11 2.5 16.4 1.7 5.2-.8 12.3-2.7 13.8-8.5.6-2.1-2.3-3.2-3.4-1.4-3 4.8-9.6 5.7-14.8 6-5.4.2-10.3-1-14.6-4.4-9-7.3-12.5-20.3-13.5-31.3-1-10.6.2-22.6 10.6-28.1 4.5-2.4 9.8-2.7 14.6-1.4 5.6 1.5 9.4 5.6 12.7 10.1 1 .8 2.7.3 2.3-1z" opacity="1" data-original="#851919"></path><path fill="#851919" d="M105.8 265.8c4.3.5 8.3.9 12.1 3.1 1.9 1.1 3.6 2.7 5 4.5 1.5 1.9 2 4.3 3.3 6.4.7 1.2 2.7.7 2.7-.7 0-5.1-4.5-9.9-8.5-12.6-4.2-2.8-10-4.3-15-3.2-1.6.3-1 2.3.4 2.5z" opacity="1" data-original="#851919"></path><path fill="#851919" d="M119.8 267.6c-2.9-.2-5 3.6-6.1 5.8-1.3 2.7-2.1 6.2-.4 8.8.9 1.5 3.7.5 3-1.3-.9-2.3-.4-4.3.7-6.5 1-2 3-3.1 4-5 .3-.8-.2-1.8-1.2-1.8zM144.2 209.9c-1.9 4.8-2 10.5-2.1 15.6 0 1.6-.7 6.7 1.9 7 2.1.2 1.5-4.4 1.4-5.4-.1-5.7 1.1-11.2 1.5-16.8.3-1.8-2.1-1.8-2.7-.4zM151.1 338.8c7 6.8 17.8 10 27 12.6 12 3.4 24.5 5.4 37 6.6 28.2 2.7 57 1.2 84.9-3.5 20.8-3.5 43.1-8.7 61.5-19.5 2.2-1.3.3-4.7-2-3.5-22.7 11.9-48.2 17.7-73.5 21-27.9 3.6-56.7 4.1-84.6.2-9.3-1.3-18.5-3.3-27.5-6.2-7.5-2.4-14.2-6.1-21.3-9.6-1.2-.5-2.5 1-1.5 1.9zM259.2 166.5c.3 14.8 5.5 28.7 15.2 40 4 4.7 8.8 8.7 14.1 11.9 3.9 2.4 9.4 5.8 14.2 5.8.8 0 1.2-1.2.4-1.6-4-2.1-8.4-3.2-12.3-5.5-5.1-3-9.7-6.8-13.8-11-10.3-10.7-15.9-24.9-16.5-39.7-.2-.6-1.3-.7-1.3.1zM186.5 205c-1.5 3.6-2.3 7.4-2.8 11.2-.5 3.4-1.3 7.2-.9 10.7.1.8 1.2 1 1.4.2 1-2.9.8-6.4 1-9.5.2-4.2.8-8.4 2.1-12.4.1-.5-.6-.7-.8-.2zM154.9 231.3c-.9 8-1.9 16-2.8 24-.8 7.8-.9 15.6-1.4 23.4-.5 7.2-1.1 14.4-1.1 21.7 0 5.9.1 12.8 2.7 18.2.3.5 1 .1.9-.4-1.4-6.7-2.3-13-2.2-19.9s.7-13.7 1.2-20.6c.5-7.5.6-14.9 1.3-22.4.8-8 1.8-16 2.5-24 0-.7-1-.7-1.1 0z" opacity="1" data-original="#851919"></path><path fill="#851919" d="M363.3 227c6.1 15.5 5.2 33.6 4.3 50-.6 9.7-1 19.5-1.8 29.2-.5 5.6-1.5 11-2.6 16.6s-3.3 10.9-4.3 16.5c-.1.3.4.5.5.1 2.8-10.1 6.7-20.3 7.9-30.7 1.2-10.5 1.5-21.1 2.1-31.7 1-16.6 1.7-34.9-5-50.4-.3-.7-1.4-.3-1.1.4zM313.2 215.2c2.9 5.8 7 10 13 12.6 3.1 1.3 6.3 2.3 9.6 3.2 3.7 1.1 7.4 2.5 11.2 3.4.7.2 1.2-.9.5-1.3-5.3-3-12-3.7-17.8-5.7-6.8-2.3-12.6-6.2-16-12.6-.2-.2-.7.1-.5.4zM215.2 186.4c-2.1 4.6-3.2 9.4-3.8 14.4-.7 5.9-1.7 12.1-1.8 18.1 0 .6.9.7 1 .1 1.4-4.7 1.3-10.1 1.8-15 .6-5.8 1.4-11.7 3.7-17.1.3-.6-.6-1.1-.9-.5zM129 307.7c.8 7 4.3 13.5 6.9 20 2.4 6.1 7.3 9.3 11.2 14.2.4.5 1.3 0 1.1-.6-.9-2.2-2.6-3.7-4.3-5.2-2.9-2.5-4.9-5.3-6.4-8.8-2.7-6.5-5.4-13-7.4-19.7-.3-.6-1.2-.5-1.1.1zM376.2 304.6c0 8.8-1.7 17.2-4.7 25.4-2.9 7.9-7.6 15.1-10.1 23.1-.2.6.7 1 1 .4 4.5-6.9 7.8-15.3 10.6-23.1 3.1-8.3 4.9-17 4.4-25.9.1-.7-1.2-.7-1.2.1z" opacity="1" data-original="#851919"></path><g fill="#fff"><path d="M236.2 275.2c-.2-.3-.5-.5-.8-.8-.6-1.3-1.6-2.3-3.2-2.9-3-1-6 1.2-7.3 3.8-1.4 2.8-1.5 6.9.4 9.5 1.7 2.2 4.2 2.8 6.8 2.3 2.3-.4 4.5-2.1 5.5-4.2 1.3-2.7.4-5.5-1.4-7.7zM222.8 288c-1.6 0-1.6 2.5 0 2.5 1.6-.1 1.6-2.5 0-2.5z" fill="#ffffff" opacity="1" data-original="#ffffff"></path></g><g fill="#fff"><path d="M308.2 274.4c-.2-.3-.5-.5-.8-.8-.6-1.3-1.6-2.3-3.2-2.9-3-1-6 1.2-7.3 3.8-1.4 2.8-1.5 6.9.4 9.5 1.7 2.2 4.2 2.8 6.8 2.3 2.3-.4 4.5-2.1 5.5-4.2 1.4-2.7.4-5.5-1.4-7.7zM294.8 287.2c-1.6 0-1.6 2.5 0 2.5s1.6-2.5 0-2.5z" fill="#ffffff" opacity="1" data-original="#ffffff"></path></g><path fill="#851919" d="M131.6 248.3c1.6-8.5 3.1-16.4 6.9-24.3 5-10.4 12.2-19.6 20.5-27.6 21.6-20.9 51-32 80.6-34.4 16.1-1.3 32.6-.8 48.6 1.7 15.9 2.5 30.2 8 44 16.2 20.6 12.3 37.9 30.7 46.5 53.3 1.4 3.6 2.8 7.4 3.6 11.2.5 2.1 3.8 1.2 3.3-.9-3.9-17.4-12.9-32.8-25-45.8-10.3-11-23-19.8-36.4-26.6-13.6-6.9-27.9-10.4-43-12.2-30.8-3.6-62.8-1.1-91.2 12.1-22.6 10.5-42.8 28.1-54 50.6-3.8 7.7-8.2 17.9-6.2 26.6 0 1.1 1.6 1.1 1.8.1z" opacity="1" data-original="#851919"></path><path fill="#851919" d="M124.8 244c-.1-9.2 0-17.9 2.2-26.9 2.7-11.1 7.5-21.6 13.4-31.3 14.5-23.7 37-42.1 63-52 13.9-5.3 28.5-7.7 43.3-8.3 16-.7 32.1.4 47.8 3.8 16.2 3.5 30.2 10.8 44 19.9 13 8.6 25.2 19 34.8 31.4 12.5 16.2 18.7 35.2 18.8 55.6 0 2.2 3.3 2.2 3.4 0 1.4-22.1-7.5-43.4-21.2-60.4-9.7-12.1-21.9-22-34.8-30.5-13.5-8.9-27.3-15.9-43.1-19.5-15.3-3.5-31.2-4.6-46.8-4.2-14.5.4-28.9 2.4-42.7 7-26.2 8.8-48.9 26.1-64.8 48.6-7.7 10.9-13.7 23.1-17.4 35.9-2.7 9.5-5.3 21.5-1.8 31.1.3 1.2 1.9 1 1.9-.2z" opacity="1" data-original="#851919"></path><path fill="#851919" d="M118.6 239.3c-4-6.8-6.6-14.4-8.4-22.1-1.4-6.4-2.3-13.2-1.1-19.7 2.5-13.9 10.5-26.8 18.1-38.3 6.9-10.4 14.6-20.5 23.2-29.6 11.4-12.1 26-20.4 41.6-26 16.8-6 34.4-7.6 52.1-8.4 19.3-.9 38.9-.3 57.8 3.9 29.3 6.5 57.6 20.1 79.2 41.2 10.4 10.2 19.4 22.5 25 36 4 9.8 3.4 20.5 1.6 30.8-1.5 9-3.6 19.2-8 27.3-1.1 2.1 2.1 4 3.2 1.9 5.3-9.9 7.9-21.9 9.3-33 .9-6.9 1.1-13.8-.1-20.6-.7-4-2.4-7.8-4.1-11.4-8.3-18.1-22.1-33.4-37.9-45.4-25.7-19.5-58.1-30.7-90.1-33.7-19.1-1.7-38.4-.8-57.4 1-16.4 1.5-32.4 6.3-47.1 13.7-24.5 12.3-41.8 34.7-55.9 57.6-6.7 10.9-13.3 23.2-14.6 36.2-.7 6.5.6 13.3 2.1 19.6 1.8 7.3 4.5 14.6 8.9 20.7 1.2 1.1 3.5-.1 2.6-1.7z" opacity="1" data-original="#851919"></path><path fill="#851919" d="M210.9 97.3c-7.6 2.4-14.3 7-20.8 11.6-6.7 4.8-13.1 10-18.8 15.8-6.1 6.2-11.2 13.5-15.5 21-4.4 7.5-8.9 16.7-9.6 25.6-.1 1.5 2.2 1.8 2.6.4 1.1-3.9 1.9-7.7 3.3-11.5 1.7-4.5 3.8-8.8 6.2-13 4.2-7.3 9.2-14.4 14.9-20.6 11-11.8 24.7-19.9 38.1-28.5.3-.3.1-1-.4-.8zM268.2 94c3.8 1.7 6.6 3.9 8.7 7.5 1.1 1.8 1.8 3.7 2.4 5.7.5 1.4.7 2.9 1.9 3.9.4.3 1.1.4 1.4-.2 1.6-3.3-1.8-8.8-3.6-11.6-2.2-3.6-6-7.1-10.5-6.6-.5.1-1 1-.3 1.3zM336.9 109.5c6.5 2.8 11.9 8 16.5 13.3 2.5 2.9 4.8 6 6.9 9.2 1.2 1.8 2.2 5 4.3 5.9.3.1.6-.1.7-.4.6-2.4-2.3-5.5-3.5-7.4-2-3.1-4.3-6-6.8-8.7-4.8-5.5-10.5-10.4-17.5-12.8-.8-.3-1.2.7-.6.9zM370.1 149.3c4.1 7.5 8.3 14.9 11.3 23 1.6 4.4 2.9 8.9 3.9 13.4 1.2 5.6 1.6 11.3 2.3 17 .2 1.5 2.5 1.6 2.4 0-.1-19.4-8.5-38.1-18.9-54-.4-.6-1.4-.1-1 .6z" opacity="1" data-original="#851919"></path><path fill="#851919" d="M225 94.6c1.7-1.1 3.1-2.8 4.7-4.1 2.1-1.6 4.3-3.1 6.7-4.3 4.7-2.4 10.1-3.6 15.4-3.9 10.5-.6 21.1 3 27.1 11.9 1.2 1.8 4.1.2 3-1.7-5.8-10.2-18.2-14-29.3-13.6-6 .2-11.8 1.7-17.2 4.2-4.3 2-10.2 5.8-11.4 10.7-.3.5.4 1.2 1 .8zM264.3 6.5c-6.4-1-12.5 1.8-18.1 4.6-5.9 3-11.9 6.9-16.5 11.7-5.3 5.5-9.5 11.9-12.6 18.8-1.4 3.2-2.5 6.5-3.4 9.8s-1.7 7.4-1.2 10.8c.2 1.1 1.6.8 2 0 1.2-3 1.7-6.7 2.5-9.9.9-3.4 2-6.7 3.5-9.9 2.8-6.4 6.9-12.1 11.7-17.2 8.3-8.9 20.6-14.2 32.3-16.8.7-.3.7-1.8-.2-1.9z" opacity="1" data-original="#851919"></path><path fill="#851919" d="M251.9 37.2c1.7-5.5 3.2-11 5.1-16.4 1.7-4.8 4.9-11.6 10.8-11.3 4.5.3 8.5 5 11.2 8.1 2.7 3.2 4.7 8 8.3 10.1.4.3 1.1-.1 1.1-.6-.3-4.8-5-9.6-8-13.1-3.4-3.9-7.8-7.7-13.2-8-5.8-.3-9.8 5.4-12 10-3.2 6.7-4 13.7-4.8 21 0 .8 1.2.9 1.5.2zM249.2 59c-1.3 4.5-1.4 9.2-.8 13.8.4 2.8 1.1 8.8 4.6 9.2.4 0 1-.4 1-.8.2-1.5-.5-2.3-1.3-3.6-1-1.8-1.5-4-1.8-6-.7-4-.4-8.3 0-12.4.1-1-1.4-1.2-1.7-.2zM293.9 48.9c4.2 14.6 6.4 29.8-1.9 43.4-1.1 1.9 1.8 3.6 2.9 1.7 8.8-14.4 6.7-30.8-.1-45.5-.3-.5-1.1-.1-.9.4zM310.7 72.7c-1.6 3.7-3.5 7.3-5.4 10.8-2.2 3.9-4.9 7.3-7.3 11.1-1.1 1.8 1.6 3.3 2.8 1.6 4.8-6.9 8.7-15 11.3-22.9.2-.8-1-1.4-1.4-.6z" opacity="1" data-original="#851919"></path><path fill="#851919" d="M273.8 9.9c5 .9 10.1.8 15.1 2 4.8 1.2 9.4 3.3 13.5 5.9 8.5 5.4 15 13.8 18.8 23s4.9 19.5 2.8 29.3c-1.1 4.9-3.1 9.6-5.8 13.9-1.6 2.6-3.5 5-5.6 7.3-2.6 2.8-5.8 4.7-8.7 7.2-1 .9.1 2.6 1.3 2.2 6.2-1.8 11.1-8 14.7-13 3.3-4.6 5.6-9.8 7.1-15.2 2.8-10.5 1.7-21.8-2.2-31.9-3.9-10-10.7-18.7-19.5-24.9-8.3-5.8-21.4-10.8-31.5-7.4-.8.2-.9 1.5 0 1.6zM250 10c-4.9.3-9.4 2.2-14 4-5.3 2.1-10.3 4.6-15.3 7.2-10.3 5.4-20.1 12.6-27.5 21.6-6.3 7.7-10.1 17.1-8.2 27.1 2.6 13.3 14.5 22.9 26.4 27.6 2 .8 2.9-2.5.9-3.3-11.5-4.5-22.1-13.8-24.2-26.5-1.6-9.5 3.7-18.5 9.8-25.2 7.2-8 16.4-14.1 25.7-19.4 8.5-4.9 17.9-7.5 26.7-11.7.7-.4.4-1.5-.3-1.4z" opacity="1" data-original="#851919"></path><path fill="#851919" d="M215 74.3c.6 3.8 1.7 7.8 4.2 11 1.9 2.4 6 6.8 9.4 6.5.8-.1 1.3-.8.9-1.5-.8-1.4-1.9-1.8-3.3-2.6-1.7-1-3.2-2.3-4.5-3.8-2.6-2.8-4-6.4-5.2-9.9-.3-1.1-1.6-.7-1.5.3zM318.4 32.6c11.8 9 15.1 24.3 12.3 38.3-1.4 6.9-4.4 13.4-8.7 18.9-2.1 2.7-4.7 5-7.5 6.9-2.7 1.9-5.9 2.7-8.6 4.5-.5.3-.3 1.1.3 1.1 3.3-.1 6.6-2.3 9.2-4.1 2.9-2 5.4-4.6 7.7-7.3 4.7-5.9 7.7-13 9.1-20.3 2.8-14.2-1.4-29.8-13.3-38.6-.5-.5-.9.2-.5.6zM134.2 141.8c-10.2 17.7-24.3 32.6-32.7 51.4-3.7 8.2-6.5 17.6-4.8 26.7.8 4.1 2.8 7.8 5.6 10.9 3.1 3.5 8.1 7.3 12.7 8.3.5.1.7-.5.3-.8-2.1-1.5-4.6-2.4-6.7-3.8-2.2-1.4-4.1-3.1-5.8-5.1-2.9-3.3-4.6-7.6-5.2-12-1.2-9.5 2.7-19.2 6.8-27.5 4.5-9.2 10.3-17.8 16.1-26.3 4.8-7.1 10.1-14 14.4-21.5.1-.3-.5-.7-.7-.3z" opacity="1" data-original="#851919"></path><path fill="#851919" d="M299.4 97.1c13-1.2 24.4 3.5 36.4 7.7 12.8 4.5 25 11 36.1 18.7 9.8 6.7 18.7 14.9 25.7 24.5 3.5 4.8 6.5 9.9 8.7 15.4 1.1 2.7 1.9 5.6 2.6 8.5.7 3 .2 6.2 1.3 9.1.3.7 1.2.6 1.3-.2 1-11.9-4.6-23.6-11.4-33.1-7.1-10-16.4-18.4-26.4-25.4-11.2-7.8-23.6-14.2-36.3-18.9-11.7-4.3-25.4-10.7-38.1-7-.4.1-.4.8.1.7zM292.9 177.5c-.1 5.2 1.5 9.9 3.5 14.6 1.1 2.5 2.5 4.8 4 7.1 1.1 1.7 2.3 4.2 4.4 4.5.7.1 1.2-.3 1.3-1 .2-1.8-1.2-3.1-2.2-4.5-1.3-1.9-2.5-3.9-3.6-6-2.5-4.5-4.9-9.6-5.3-14.8-.2-1.2-2.1-1.2-2.1.1z" opacity="1" data-original="#851919"></path><path fill="#851919" d="M341.1 123.3c5.6 5 9.3 11.8 12.3 18.6 1.7 3.9 3.5 8.1 4.3 12.2.3 1.7.8 3.4 1.2 5.1.3 1.6.3 3.3 1.1 4.7.2.3.7.3.8-.1.9-2.9-.9-7.2-1.8-10-1.2-3.9-2.6-7.8-4.3-11.6-3.1-7.1-7.2-14.3-13.2-19.4-.2-.3-.8.2-.4.5zM308.1 165.1c-.4 11.5 3.1 22.4 8.8 32.3 2.8 4.9 6.2 9.4 9.8 13.6 3.3 4 7.1 8.4 11.3 11.4.6.5 1.2-.5.8-1-3.1-3.8-7-7.2-10.2-10.9-3.6-4.1-6.8-8.5-9.6-13.2-5.9-9.8-9.2-20.8-9.6-32.2-.1-.8-1.3-.8-1.3 0zM191.1 173.6c-7.2 6.1-12.8 14.2-17.1 22.5-4 7.9-7.5 17.6-6.7 26.6.1.8 1.2.8 1.2 0 .9-9.6 2.8-18.1 7.3-26.8 4.2-8.1 9.9-14.9 16-21.6.5-.4-.2-1.1-.7-.7zM252.9 93.5c-5.8 3.1-10.2 8.1-14.2 13.1-3.8 4.8-7.8 10.5-9.1 16.6-.2 1 1.2 1.3 1.5.4 3.8-11.6 11.8-22.8 22.3-29.2.5-.4 0-1.2-.5-.9zM131.4 172c-2.2 7.6-5 15-6.3 22.8-1 6-1.9 15.5 2.6 20.4.3.3.8 0 .7-.4-.9-3.5-2.3-6.5-2.6-10.2-.3-3.8.2-7.6.9-11.4 1.3-7.1 3.4-14.1 5.1-21.1 0-.3-.3-.4-.4-.1zM278.3 250.5c2.8 6.1 8.1 9.6 14.3 11.7 4.1 1.4 14.9 3.6 17.5-1.2.4-.7.2-1.6-.5-2-2-1.1-4.5-.3-6.7-.1-2.8.2-5.5-.2-8.2-.9-5.5-1.4-10.8-4.7-14.7-8.8-.8-1-2.2.2-1.7 1.3zM223.6 249.6c-4.2 4.1-8.2 7.7-13.7 9.9-2.6 1-5.4 1.7-8.2 2.2-2.3.4-5.5-.4-7.5 1.1-.8.5-1.1 1.7-.3 2.4 2.1 1.8 5.4 1.1 8 .7 3.4-.5 6.7-1.4 9.9-2.7 5.7-2.4 11.7-6.3 14.1-12.2.6-1.4-1.4-2.3-2.3-1.4zM212.3 332.8c7.2.2 14.5-5.7 21.7-3.8 1.9.5 3.7 2.5 5.4 3.3 2.8 1.4 6.1 1.9 9.2 1.8 5.7-.3 10.7-3.8 16.4-3.9 4.1 0 8.2 1.9 11.9 3.5 3.3 1.4 7 3.5 10.6 3.1.9-.1 1.6-1.2.8-1.9-2.7-2.5-6.9-3.7-10.3-5.3-3.6-1.6-7.4-3.6-11.3-3.9-6.2-.6-11.3 2.5-17.2 3.7-3.4.7-7-.3-10-1.9-1.9-1-3.4-2.3-5.6-2.4-7.6-.4-14.9 3.5-22 5.7-1 .2-.8 1.9.4 2z" opacity="1" data-original="#851919"></path><path fill="#52a3cc" d="M213 301.8c-4.6-2.1-15.8-3.4-15.2 4.4.2 3 3.2 4.8 6 4.6 1.6-.1 3.1-1.2 4.5-2 1.5-.9 3-.4 4.6-.1 4.3 1 11.8 2.8 11.9-3.8 0-6.2-10.4-4.6-14-3.9-1.2.2-.9 2.1.3 2.1 2.7-.1 10.2-2 11.4 1.6 1.6 4.8-8.1 2.1-10 1.7-1.3-.3-2.4-.4-3.7-.1-2.9.6-4.2 3.6-7.5 2-2.2-1.1-1.7-4.4 0-5.5 1.3-.8 3.3-.6 4.7-.5 2.2.1 4.7 1.2 6.9.8.5-.2.6-1 .1-1.3zM231.5 299.1c-5.5-1.2-6.4 7.6-1 8.1 2.7.3 5-1.2 4.6-4.1-.3-1.8-2.8-5.3-5-4.5-.6.2-.9 1-.4 1.5s1.2.7 1.7 1.1c.6.5 1 1 1.3 1.7.8 1.5-.3 2.3-1.8 2.4-1.4.1-2.4-1-2.4-2.4-.1-1.6 1.2-2.3 2.7-2.3 1 0 1.2-1.3.3-1.5zM306.8 298.9c-4.4-1.8-8.7-.5-12.9 1.1-2.6 1-5.3 1.6-7.9 2.3-1.7.5-4.5 1.1-5.5 2.8-1.1 1.9.8 3.3 2.3 4 4.6 2.3 8.4-.5 13-1 3.7-.4 7.3.9 10.7-1.1 5.3-3.1 2.1-9.9-3.6-8.8-.9.2-.8 1.5 0 1.7 1.9.5 5.2.8 3.9 3.6-1.3 2.6-4.6 2.5-7 2.4-2.5-.1-4.8-.1-7.2.4-3.5.8-6.9 2.8-10.1 0-.4-.3 8-3.1 8.9-3.3 1.7-.5 3.4-1.2 5-1.8 3.5-1.3 6.7-1.2 10.3-1.2.7.1.7-.8.1-1.1z" opacity="1" data-original="#52a3cc"></path><path fill="#851919" d="M304.5 386.1c-7.8-.5-15.5-.9-23.3-1.1-6.2-.1-13.1-.9-19 1.4-3.2 1.2-5.2 4.6-1.8 7.1 2.5 1.8 5.7 2.8 8.6 3.6 3 .9 6.4 2.1 9.6 2.2 1.5 0 2.1-2.1.8-2.8-4-2.1-9-2.5-13.3-4.1-1.1-.4-2.2-.9-3.2-1.5-1.2-.7-.8-.3.2-.9 1.7-1 4.1-1.2 6-1.3 11.8-.8 23.7.3 35.5-.4 1.2-.1 1.2-2.1-.1-2.2z" opacity="1" data-original="#851919"></path><path fill="#851919" d="M276.9 397.8c-1.5 4.9-1.7 11.1-1.7 16.2 0 4.7.9 10.2 5.1 13 4.1 2.8 9 2.3 13.7 1.7 2.6-.4 5.2-.8 7.8-.8 2.1 0 3.7 1.5 5.7 1.6.7 0 1.3-.6 1.3-1.3.1-3.8-5.6-4.4-8.3-4.3-4.8.1-9.6 1.9-14.4 1.2-12.2-1.6-4.6-19.9-6.7-27.3-.3-1.3-2.1-1.2-2.5 0zM296.2 388c5.2 1.5 10.3 1.4 14.5 5.4 4.3 4 5.1 10.5 7.8 15.5 2.5 4.6 7 7.7 11.8 9.6 2.7 1.1 5.6 1.8 8.3 2.9 2.4 1 3.9 2.8 6 4.3.6.4 1.5 0 1.6-.7 1.4-5-6.7-7.6-10.1-8.7-6.7-2.3-12.2-4.7-15.3-11.5-2.6-5.6-3.7-11.6-9-15.4-4.2-3.1-10.6-4.5-15.8-3.1-.7.3-.6 1.5.2 1.7z" opacity="1" data-original="#851919"></path><path fill="#851919" d="M304.5 427.3c.5 3.4 2.8 6.6 4.4 9.5 2 3.6 4.3 7 7.1 10 5.2 5.6 12.3 6.7 19.6 7.1 7.1.4 14.8-.6 20.8-4.7 5.7-3.9 9.2-12.6 5.9-19.2-.6-1.2-2.6-.6-2.5.7.5 7.1-1.3 13.1-7.9 16.5-5.6 2.9-12.6 3-18.7 2.5-3-.2-6.4-.6-9.2-1.8-3.1-1.3-5.4-3.9-7.5-6.4-2.2-2.7-4-5.8-5.8-8.8-1.4-2.4-2.7-4.9-5-6.5-.6-.4-1.3.4-1.2 1.1z" opacity="1" data-original="#851919"></path><path fill="#851919" d="M305.4 355.8c3.9.9 7.7 1.7 11.3 3.4 3.8 1.8 7.1 4.6 10.1 7.5 6.4 6.4 10.9 14.4 14.9 22.4 3.5 7.1 6.1 14.5 9.6 21.6 4.2 8.5 10.6 18.5 9.5 28.4-.1.8 1.1 1 1.4.4 4.5-9.3-2.4-20.2-6.5-28.5-4-8-7-16.5-11-24.5-4.2-8.5-9.3-16.9-16.2-23.6-5.9-5.7-14.6-10.7-23.1-9-.9.2-.8 1.7 0 1.9z" opacity="1" data-original="#851919"></path><path fill="#851919" d="M314.6 355.4c-4.2 4-5.7 10.8-6.3 16.3-.7 5.6-1.2 12.9 1.1 18.3.6 1.3 2.8.7 2.7-.7-.1-2.6-.8-5.2-1-7.9-.2-2.9 0-5.8.3-8.7.6-5.9 2.9-10.9 4.8-16.4.3-1-1-1.5-1.6-.9zM245.2 358.2c.6 0 .6-.9 0-.9s-.6.9 0 .9z" opacity="1" data-original="#851919"></path><path fill="#851919" d="M237.9 358.1c.4 9.9 13.1 13.1 21.1 13.9 5.5.6 10.9-.4 15.9-2.9 4.6-2.3 9.5-7.1 9.5-12.6 0-1.5-2.2-2.2-3-.8-2.2 4.2-4.3 7.3-8.7 9.7-4 2.2-8.6 2.7-13 2.4-6.7-.5-17-2.7-19.6-10-.5-1.1-2.3-1-2.2.3zM342.9 451c-.3 1.7.2 3.7.5 5.4l1.5 8.7c.6 3.6 1.2 7.3 1.7 10.9.5 3.5.4 8 2.4 11.1.6.9 2.1.8 2.4-.3.9-3.3-.4-7.2-.9-10.6l-1.8-11.1c-.5-3-1-6-1.7-8.9-.4-1.9-.8-4.2-2.2-5.7-.6-.6-1.8-.4-1.9.5zM216.1 388.3c11.8.7 23.7.2 35.5.4 1.8 0 3.6.5 5.2 1 .6.2 1.2.5 1.7.9.1-.6-.2-.5-.7.3-.7.5-1.5.9-2.4 1.2-4.5 1.9-9.9 2.2-14.2 4.5-1.3.7-.7 2.9.8 2.8 2.9-.1 5.8-1.1 8.6-1.9 3.1-.8 6.2-1.9 9-3.5 3.7-2.1 2.7-5.8-.8-7.3-5.5-2.5-12.4-1.7-18.2-1.6-8.2.1-16.3.6-24.5 1.1-1.4 0-1.4 2 0 2.1z" opacity="1" data-original="#851919"></path><path fill="#851919" d="M241.1 397.8c-2.2 7.7 5.4 24.4-6 27.2-4.6 1.1-9.8-.7-14.4-1.1-2.8-.2-9.1.3-9 4.3 0 .7.6 1.3 1.3 1.3 1.8-.1 3.2-1.4 5.1-1.6 2.6-.3 5.2.3 7.7.7 4.7.7 9.6 1.3 13.9-1.2 4.5-2.5 5.4-7.9 5.6-12.5.1-3.2-.2-6.3-.6-9.4-.3-2.5-.4-5.2-1.1-7.6-.4-1.3-2.2-1.4-2.5-.1zM224.4 386.4c-4.9-1.3-11-.1-15.2 2.7-5.2 3.5-7 9.4-9.1 14.9-2.7 6.9-8.1 9.9-14.9 12.1-3.5 1.1-12.4 3.8-10.9 9 .2.7 1 1.1 1.6.7 1.8-1.3 3.2-2.9 5.3-3.9 2.6-1.3 5.5-2 8.3-3 5.3-1.8 9.7-5 12.6-9.8s3.5-10.7 7.3-15c4-4.5 9.7-4.4 15-5.9.8-.4.8-1.6 0-1.8z" opacity="1" data-original="#851919"></path><path fill="#851919" d="M214.7 426.3c-2.1 1.5-3.3 3.7-4.6 5.8-1.7 2.9-3.5 5.8-5.5 8.6s-4.5 5.3-7.5 7c-2.7 1.5-6.1 1.8-9.1 2.1-6.2.7-13 .4-18.8-2.1-7.1-3.1-9.1-9.5-8.6-16.8.1-1.3-1.9-1.8-2.5-.7-3.4 6.8.3 15 5.9 19.2 5.8 4.3 13.9 5 20.8 4.7 7.4-.3 14.2-1.7 19.6-7.1 2.7-2.7 4.8-6 6.7-9.3 1.8-3.1 4.3-6.7 4.8-10.3.2-.8-.5-1.6-1.2-1.1z" opacity="1" data-original="#851919"></path><path fill="#851919" d="M211.7 355.1c-8-1.9-16.1 3.1-21.5 8.6-6.6 6.6-11.1 15.1-15 23.5-3.8 8.1-6.7 16.6-10.7 24.6-4.1 8.1-10.6 18.7-6.2 27.8.3.7 1.5.4 1.4-.4-1-9.3 4.7-19 8.8-27 3.7-7.2 6.3-15 9.7-22.3 3.5-7.7 7.6-15.4 13.2-21.8 2.6-2.9 5.5-5.5 8.9-7.5 3.6-2.1 7.5-2.8 11.4-3.6.9-.3.9-1.7 0-1.9z" opacity="1" data-original="#851919"></path><path fill="#851919" d="M204.4 356.3c1.9 5.5 4.1 10.5 4.8 16.4.3 2.9.4 5.8.3 8.7-.1 2.7-.8 5.2-1 7.9-.1 1.4 2.1 2.1 2.7.7 2.3-5.3 1.8-12.6 1.1-18.3-.7-5.5-2.1-12.4-6.3-16.3-.7-.6-1.9-.1-1.6.9zM175.8 450.5c-2.6 2.6-3.2 8.3-4.1 11.7-.8 2.9-1.5 5.9-2.3 8.8-.7 2.7-1.8 5.3-1.3 8 .2.9 1.6 1.3 2.2.6 1.8-2.2 2.1-4.9 2.8-7.6.7-2.9 1.5-5.9 2.3-8.8.9-3.5 3.2-8.5 2.4-12.2-.3-.9-1.5-1.1-2-.5z" opacity="1" data-original="#851919"></path></g></svg>