<svg xmlns="http://www.w3.org/2000/svg" version="1.1" xmlns:xlink="http://www.w3.org/1999/xlink" width="512" height="512" x="0" y="0" viewBox="0 0 512 512" style="enable-background:new 0 0 512 512" xml:space="preserve" class=""><g><path fill="#505578" d="M313.27 308.161c14.275 5.451 37.8 4.008 66.367-21.867s76.815-71.92 74.539-87.192c-2.277-15.273-54.847-21.163-63.502-4.482s-43.607 42.105-69.88 48.099c-26.274 5.993-23.377 59.389-7.524 65.442z" opacity="1" data-original="#505578" class=""></path><path fill="#24284a" d="M327.782 312.518c-6.789.001-11.946-1.397-15.171-2.629-9.921-3.788-14.161-21.659-13.115-36.55 1.237-17.602 9.045-29.723 20.885-32.425 26.523-6.05 60.483-31.405 68.65-47.146 5.318-10.249 25.116-12.772 41.914-9.972 14.652 2.445 24.021 8.064 25.061 15.033 1.812 12.154-23.464 42.043-75.128 88.836-22.048 19.971-40.415 24.853-53.096 24.853zm90.181-126.093c-11.52 0-22.37 2.73-25.648 9.046-8.516 16.413-43.704 42.798-71.11 49.05-10.165 2.32-16.901 13.189-18.018 29.076-1.084 15.429 3.734 30.158 10.743 32.835 8.613 3.29 32.136 7.772 64.466-21.511 48.546-43.971 75.5-75.152 73.95-85.548-.755-5.064-9.6-9.859-22.01-11.929a76.136 76.136 0 0 0-12.373-1.019z" opacity="1" data-original="#24284a" class=""></path><path fill="#505578" d="M198.731 308.161c-14.275 5.451-37.8 4.008-66.367-21.867s-76.815-71.92-74.539-87.192c2.277-15.273 54.847-21.163 63.502-4.482s43.607 42.105 69.88 48.099c26.274 5.993 23.376 59.389 7.524 65.442z" opacity="1" data-original="#505578" class=""></path><path fill="#24284a" d="M184.22 312.518c-12.681 0-31.048-4.88-53.098-24.854-51.664-46.792-76.94-76.682-75.128-88.836 1.041-6.969 10.409-12.589 25.065-15.034 16.797-2.8 36.592-.279 41.91 9.973 8.167 15.742 42.127 41.097 68.65 47.146 11.84 2.702 19.649 14.823 20.887 32.425 1.046 14.892-3.194 32.761-13.115 36.55-3.224 1.232-8.384 2.63-15.171 2.63zM94.037 186.425c-4.144 0-8.373.353-12.369 1.02-12.412 2.07-21.259 6.864-22.014 11.929-1.55 10.396 25.405 41.577 73.95 85.548 32.331 29.284 55.853 24.799 64.468 21.511 7.009-2.676 11.827-17.405 10.743-32.834-1.118-15.888-7.853-26.758-18.02-29.077-27.406-6.252-62.595-32.638-71.11-49.05-3.276-6.317-14.128-9.047-25.648-9.047zM198.732 308.16h.018z" opacity="1" data-original="#24284a" class=""></path><path fill="#505578" d="M178.198 396.537c-6.662 12.042-9.396 26.217-7.691 39.873 2.042 16.355 11.2 35.336 25.255 44.528l15.117 2.483c-2.642-15.256-.771-31.265 5.317-45.501 6.089-14.236 16.373-26.646 29.23-35.273z" opacity="1" data-original="#505578" class=""></path><path fill="#24284a" d="M210.879 485.27c-.099 0-.201-.008-.3-.024l-15.117-2.482a1.864 1.864 0 0 1-.714-.277c-15.31-10.015-24.129-30.243-26.077-45.848-1.754-14.05 1.053-28.61 7.907-40.997a1.876 1.876 0 0 1 1.787-.948l67.23 6.111a1.849 1.849 0 0 1 .862 3.379c-12.497 8.385-22.641 20.624-28.559 34.463-5.92 13.837-7.764 29.625-5.197 44.458a1.847 1.847 0 0 1-1.822 2.165zm-14.427-6.093 12.205 2.004c-2.065-14.774-.018-30.296 5.84-43.989 5.539-12.952 14.609-24.564 25.818-33.153l-61.07-5.55c-6.061 11.474-8.51 24.809-6.903 37.69 1.829 14.649 9.987 33.557 24.11 42.998z" opacity="1" data-original="#24284a" class=""></path><path fill="#9397b4" d="M170.897 467.665c-8.258-.65-25.94-1.329-26.791 9.588-.641 8.232 12.31 8.286 18.369 8.307 9.314.031 18.61-.832 27.926-.611 4.003.095 19.544 3.388 21.595-1.378 4.146-9.628-34.769-15.408-41.099-15.906z" opacity="1" data-original="#9397b4" class=""></path><path fill="#696f96" d="M204.234 487.983c-3.004 0-6.462-.359-10.039-.795-1.638-.199-3.053-.371-3.837-.39-5.051-.12-10.198.088-15.178.287-4.158.166-8.521.346-12.71.324-4.971-.016-14.224-.047-18.262-4.425-1.47-1.594-2.124-3.571-1.945-5.875.303-3.883 2.646-8.909 12.098-10.802 6.449-1.293 14.152-.685 16.681-.488.359.029 36.542 3.952 42.272 13.448.974 1.613 1.106 3.354.383 5.035-1.209 2.81-4.786 3.681-9.463 3.681zm-16.986-4.92c1.068 0 2.133.012 3.197.037.965.023 2.392.196 4.196.415 3.611.439 14.6 1.777 15.655-.675.249-.577.204-1.074-.152-1.661-3.736-6.192-31.482-11.047-39.392-11.671-2.406-.19-9.726-.765-15.666.426-8.689 1.74-9.025 6.047-9.135 7.462-.099 1.271.211 2.249.977 3.08 2.943 3.191 11.46 3.219 15.552 3.233 4.236.024 8.433-.156 12.551-.322 4.001-.158 8.111-.324 12.217-.324z" opacity="1" data-original="#696f96"></path><path fill="#696f96" d="m163.202 487.411-.067-.001c-3.413-.121-6.856-1.947-8.566-4.542-1.303-1.974-1.541-4.298-.672-6.542.844-2.175 2.715-3.994 5.136-4.992 1.864-.766 4.01-1.067 6.565-.936a1.85 1.85 0 0 1 1.749 1.947c-.058 1.021-.936 1.786-1.947 1.748-1.98-.105-3.613.109-4.957.663-1.488.612-2.616 1.673-3.094 2.908-.443 1.143-.341 2.18.311 3.169 1.05 1.592 3.407 2.803 5.607 2.88a1.85 1.85 0 0 1-.065 3.698z" opacity="1" data-original="#696f96"></path><path fill="#505578" d="M335.684 396.537c6.662 12.042 9.396 26.217 7.691 39.873-2.042 16.355-11.2 35.336-25.255 44.528l-15.117 2.483c2.642-15.256.771-31.265-5.317-45.501-6.089-14.236-16.373-26.646-29.23-35.273z" opacity="1" data-original="#505578" class=""></path><path fill="#24284a" d="M303.004 485.27a1.847 1.847 0 0 1-1.822-2.165c2.567-14.833.723-30.622-5.195-44.458-5.92-13.84-16.063-26.078-28.561-34.463a1.85 1.85 0 0 1 .862-3.379l67.23-6.111a1.866 1.866 0 0 1 1.787.948c6.854 12.387 9.661 26.947 7.907 40.997-1.947 15.604-10.767 35.833-26.077 45.848a1.848 1.848 0 0 1-.714.277l-15.117 2.482c-.1.016-.201.024-.3.024zm-29.437-81.23c11.209 8.589 20.28 20.201 25.82 33.153 5.857 13.693 7.903 29.214 5.839 43.989l12.205-2.004c14.123-9.441 22.281-28.349 24.109-42.997 1.608-12.881-.842-26.217-6.903-37.69z" opacity="1" data-original="#24284a" class=""></path><path fill="#9397b4" d="M342.985 467.665c8.258-.65 25.94-1.329 26.791 9.588.641 8.232-12.31 8.286-18.369 8.307-9.314.031-18.61-.832-27.926-.611-4.003.095-19.544 3.388-21.595-1.378-4.145-9.628 34.769-15.408 41.099-15.906z" opacity="1" data-original="#9397b4" class=""></path><path fill="#696f96" d="M309.648 487.983c-4.677 0-8.252-.871-9.462-3.681-.723-1.68-.591-3.421.383-5.034 5.73-9.497 41.912-13.419 42.272-13.448 2.527-.199 10.234-.806 16.681.488 9.452 1.893 11.795 6.919 12.098 10.802.179 2.303-.475 4.281-1.946 5.875-4.038 4.378-13.29 4.409-18.262 4.425-4.216.042-8.55-.157-12.71-.324-4.98-.2-10.127-.406-15.178-.287-.784.019-2.198.191-3.837.39-3.575.435-7.035.794-10.039.794zm33.481-18.474c-7.91.623-35.656 5.479-39.392 11.671-.356.587-.401 1.084-.152 1.66 1.057 2.454 12.046 1.115 15.655.676 1.805-.22 3.232-.393 4.197-.415 5.157-.122 10.371.086 15.413.288 4.121.165 8.384.336 12.551.322 4.092-.013 12.609-.042 15.552-3.233.766-.831 1.077-1.809.977-3.08-.11-1.415-.446-5.721-9.135-7.462-5.943-1.191-13.256-.616-15.666-.427z" opacity="1" data-original="#696f96"></path><path fill="#696f96" d="M350.68 487.411a1.85 1.85 0 0 1-.063-3.699c2.2-.078 4.558-1.289 5.607-2.88.652-.988.753-2.024.309-3.169-.47-1.218-1.626-2.303-3.093-2.908-1.342-.554-2.963-.767-4.957-.663-1.001.035-1.891-.727-1.947-1.748a1.851 1.851 0 0 1 1.749-1.947c2.56-.134 4.701.169 6.565.936 2.423.998 4.294 2.818 5.134 4.994.869 2.242.632 4.565-.67 6.54-1.711 2.596-5.154 4.421-8.566 4.542-.022.002-.044.002-.068.002z" opacity="1" data-original="#696f96"></path><path fill="#505578" d="M315.461 236.404H194.529c-11.335 19.837-48.583 110.046-48.615 130.355s15.07 34.089 44.837 38.256c23.615 3.306 105.842 2.361 128.489 0 29.895-3.117 44.868-17.947 44.836-38.256s-37.28-110.518-48.615-130.355z" opacity="1" data-original="#505578" class=""></path><path fill="#24284a" d="M249.183 409.011c-24.328 0-47.754-.633-58.689-2.164-29.975-4.197-46.465-18.435-46.43-40.091.033-20.956 37.297-111.036 48.858-131.269a1.85 1.85 0 0 1 1.606-.932h120.933a1.85 1.85 0 0 1 1.606.932c11.561 20.23 48.826 110.306 48.858 131.269.036 22.398-16.91 37.014-46.495 40.099-12.463 1.3-41.963 2.156-70.247 2.156zm-53.571-170.757c-11.74 21.282-47.819 108.842-47.848 128.507-.033 19.862 14.921 32.457 43.244 36.422 23.452 3.282 104.996 2.395 128.04-.008 27.473-2.865 43.211-16.137 43.179-36.414-.029-19.671-36.108-107.227-47.848-128.507z" opacity="1" data-original="#24284a" class=""></path><path fill="#9397b4" d="M294.417 373.371c20.13-3.039 31.172-11.807 31.644-24.56.472-12.752-10.391-50.536-18.892-71.317s-29.755-19.364-48.527-19.364-40.026-1.417-48.527 19.364-19.364 58.565-18.892 71.317 11.41 22.311 31.644 24.56c12.752 1.417 62.323 1.393 71.55 0z" opacity="1" data-original="#9397b4" class=""></path><path fill="#696f96" d="M259.807 376.271c-15.192 0-30.77-.353-37.145-1.062-20.316-2.257-32.761-12.1-33.288-26.33-.504-13.604 11.016-52.502 19.028-72.086 8.467-20.697 28.869-20.618 46.862-20.523l3.378.01 3.378-.01c17.985-.09 38.395-.173 46.862 20.523 8.012 19.584 19.532 58.482 19.028 72.086-.513 13.817-12.309 23.165-33.216 26.321-4.729.714-19.613 1.071-34.887 1.071zm34.611-2.9h.018zm-42.644-113.412c-16.522 0-32.918 1.054-39.947 18.235-8.637 21.113-19.199 58.563-18.757 70.549.461 12.416 11.395 20.723 30 22.791 12.633 1.403 61.784 1.409 71.071.009 18.954-2.861 29.632-10.958 30.073-22.8.442-11.986-10.12-49.435-18.757-70.549-7.518-18.384-25.732-18.309-43.421-18.224l-3.394.01-3.394-.01a670.14 670.14 0 0 0-3.474-.011z" opacity="1" data-original="#696f96"></path><path fill="#696f96" d="M258.785 308.151a1.85 1.85 0 0 1-1.826-1.564 162.192 162.192 0 0 1-.295-48.253 1.85 1.85 0 0 1 3.664.528 158.372 158.372 0 0 0 .287 47.153 1.851 1.851 0 0 1-1.83 2.136z" opacity="1" data-original="#696f96"></path><path fill="#696f96" d="M304.677 319.026c-.258 0-.52-.054-.771-.169-29.426-13.539-64.629-13.678-94.165-.376a1.85 1.85 0 1 1-1.521-3.373c30.501-13.737 66.849-13.59 97.232.387a1.849 1.849 0 0 1 .907 2.454 1.848 1.848 0 0 1-1.682 1.077zM258.653 342.862c-3.037 0-5.508-2.47-5.508-5.507s2.471-5.507 5.508-5.507 5.506 2.47 5.506 5.507-2.469 5.507-5.506 5.507zm0-7.314c-.997 0-1.808.811-1.808 1.807s.811 1.807 1.808 1.807c.995 0 1.806-.811 1.806-1.807s-.811-1.807-1.806-1.807z" opacity="1" data-original="#696f96"></path><path fill="#505578" d="M266.052 30.983c1.842-2.511 3.599-5.559 2.818-8.573-.62-2.393-2.803-4.169-5.192-4.803s-4.943-.272-7.3.472c-8.142 2.572-14.55 9.975-15.93 18.401-1.38 8.427 2.333 17.486 9.23 22.521l6.76 2.632c-3.344-4.697-2.715-11.274-.258-16.49s6.462-9.511 9.872-14.16z" opacity="1" data-original="#505578" class=""></path><path fill="#24284a" d="M256.438 63.482c-.226 0-.452-.041-.67-.126l-6.76-2.631a1.91 1.91 0 0 1-.421-.23c-7.45-5.438-11.455-15.21-9.965-24.313 1.49-9.104 8.402-17.088 17.2-19.867 3.089-.977 5.891-1.144 8.331-.497 3.21.853 5.764 3.258 6.507 6.127.999 3.857-1.142 7.441-3.116 10.132-.959 1.307-1.964 2.586-2.968 3.864-2.591 3.297-5.036 6.411-6.724 9.991-1.987 4.218-3.006 10.276.092 14.628a1.848 1.848 0 0 1-1.506 2.922zm-5.858-6.115 2.264.881c-1.284-4.764-.17-10.001 1.664-13.894 1.864-3.958 4.556-7.385 7.161-10.699a144.163 144.163 0 0 0 2.892-3.766l.002-.001c1.49-2.032 3.125-4.666 2.518-7.016-.408-1.573-1.965-2.971-3.877-3.478-1.747-.464-3.857-.314-6.267.449-7.501 2.369-13.393 9.175-14.661 16.937-1.26 7.683 2.073 15.924 8.304 20.587z" opacity="1" data-original="#24284a" class=""></path><path fill="#505578" d="M274.049 38.688c-2.255-.77-4.777-.288-6.938.717-4.075 1.896-7.17 5.587-8.822 9.767s-1.942 8.813-1.358 13.269l3.902 1.261c-.471-5.01 2.388-10.17 6.886-12.427 1.952-.979 4.13-1.438 6.094-2.394s3.805-2.622 4.052-4.792c.269-2.368-1.56-4.631-3.816-5.401z" opacity="1" data-original="#505578" class=""></path><path fill="#24284a" d="M260.833 65.552c-.191 0-.383-.03-.569-.089l-3.902-1.261a1.85 1.85 0 0 1-1.264-1.52c-.674-5.145-.164-10.051 1.472-14.19 1.913-4.844 5.472-8.768 9.76-10.764 2.899-1.348 5.849-1.632 8.317-.79 3.234 1.105 5.407 4.27 5.055 7.361-.289 2.54-2.141 4.817-5.08 6.248-1.06.515-2.141.888-3.187 1.248-1.028.354-2 .689-2.888 1.135-3.801 1.908-6.27 6.366-5.873 10.6a1.85 1.85 0 0 1-.683 1.617 1.857 1.857 0 0 1-1.158.405zm-2.196-4.504.37.119c.504-4.831 3.499-9.346 7.882-11.545 1.109-.556 2.244-.948 3.342-1.327.984-.339 1.915-.659 2.773-1.077 1.752-.854 2.881-2.101 3.024-3.339.154-1.359-1.001-2.903-2.576-3.441-2.096-.714-4.384.097-5.56.644-3.44 1.6-6.312 4.797-7.882 8.769-1.287 3.253-1.756 7.103-1.373 11.197z" opacity="1" data-original="#24284a" class=""></path><path fill="#9397b4" d="M347.504 171.801c9.364 6.283 22.048 3.786 28.331-5.578s3.786-22.048-5.578-28.331-22.048-3.786-28.331 5.578c-6.283 9.363-3.785 22.048 5.578 28.331z" opacity="1" data-original="#9397b4" class=""></path><path fill="#696f96" d="M358.835 177.121c-4.374 0-8.648-1.292-12.362-3.784-4.939-3.314-8.292-8.353-9.441-14.189s.043-11.77 3.358-16.709a22.12 22.12 0 0 1 14.188-9.441 22.128 22.128 0 0 1 16.71 3.357c4.939 3.314 8.292 8.353 9.441 14.189s-.043 11.77-3.358 16.709a22.12 22.12 0 0 1-14.188 9.441 22.452 22.452 0 0 1-4.348.427zm.085-40.848c-1.205 0-2.417.117-3.626.355a18.445 18.445 0 0 0-11.832 7.873 18.455 18.455 0 0 0-2.8 13.933 18.452 18.452 0 0 0 7.874 11.831 18.448 18.448 0 0 0 13.932 2.801 18.443 18.443 0 0 0 11.832-7.873 18.455 18.455 0 0 0 2.8-13.933 18.45 18.45 0 0 0-7.875-11.831 18.417 18.417 0 0 0-10.305-3.156z" opacity="1" data-original="#696f96"></path><path fill="#696f96" d="M357.289 167.331c-.571 0-1.163-.049-1.772-.155a1.848 1.848 0 0 1-1.51-2.136c.173-1.005 1.133-1.691 2.135-1.509 3.16.539 5.461-1.285 6.11-3.369.667-2.144-.41-4.106-2.881-5.248-2.202-1.016-5.087-.733-7.533.732a1.849 1.849 0 0 1-2.802-1.59c.011-4.372 2.672-8.566 6.621-10.439 3.956-1.87 8.884-1.274 12.273 1.487a1.85 1.85 0 0 1-2.337 2.869c-2.267-1.851-5.703-2.266-8.351-1.012-1.705.808-3.082 2.309-3.846 4.059 2.589-.672 5.273-.507 7.528.536 5.087 2.349 5.799 6.696 4.863 9.704-1 3.202-4.152 6.071-8.498 6.071z" opacity="1" data-original="#696f96"></path><path fill="#9397b4" d="M165.17 171.801c-9.364 6.283-22.048 3.786-28.331-5.578s-3.786-22.048 5.578-28.331 22.048-3.786 28.331 5.578c6.283 9.363 3.786 22.048-5.578 28.331z" opacity="1" data-original="#9397b4" class=""></path><path fill="#696f96" d="M153.839 177.121a22.53 22.53 0 0 1-4.348-.426 22.12 22.12 0 0 1-14.188-9.441c-6.841-10.196-4.112-24.056 6.082-30.898a22.106 22.106 0 0 1 16.71-3.357 22.12 22.12 0 0 1 14.188 9.441c3.315 4.939 4.507 10.873 3.358 16.709s-4.502 10.875-9.441 14.189c-3.714 2.49-7.988 3.783-12.361 3.783zm-.085-40.848a18.426 18.426 0 0 0-10.306 3.156c-8.503 5.705-10.777 17.263-5.074 25.764a18.45 18.45 0 0 0 11.833 7.873 18.448 18.448 0 0 0 13.932-2.801 18.448 18.448 0 0 0 7.874-11.831 18.457 18.457 0 0 0-2.8-13.933 18.45 18.45 0 0 0-11.833-7.873 18.754 18.754 0 0 0-3.626-.355z" opacity="1" data-original="#696f96"></path><path fill="#696f96" d="M155.387 167.331c-4.346.001-7.501-2.869-8.498-6.071-.934-3.009-.222-7.355 4.865-9.704 2.255-1.042 4.934-1.208 7.526-.536-.766-1.75-2.141-3.251-3.848-4.059-2.646-1.255-6.082-.839-8.349 1.012a1.85 1.85 0 1 1-2.337-2.869c3.389-2.76 8.324-3.359 12.271-1.487 3.951 1.872 6.612 6.067 6.623 10.439a1.847 1.847 0 0 1-2.802 1.59c-2.45-1.469-5.333-1.749-7.533-.732-2.471 1.142-3.548 3.104-2.881 5.247.65 2.085 2.952 3.909 6.111 3.37a1.84 1.84 0 0 1 2.135 1.509 1.848 1.848 0 0 1-1.51 2.136c-.61.105-1.202.155-1.773.155z" opacity="1" data-original="#696f96"></path><path fill="#505578" d="M318.271 236.404c31.071-7.933 41.562-34.006 36.367-47.702-5.195-13.697-42.507-102.961-51.008-119.02-8.501-16.058-85.958-16.058-94.46 0-8.501 16.058-45.813 105.323-51.008 119.02s4.866 41.702 36.367 47.702c19.836 3.778 101.544 5.668 123.742 0z" opacity="1" data-original="#505578" class=""></path><path fill="#24284a" d="M263.603 241.827c-28.662 0-58.817-1.586-69.421-3.606-20.462-3.898-30.121-16.285-34.058-23.322-5.102-9.119-6.516-19.41-3.691-26.854 4.57-12.051 42.422-102.83 51.102-119.229 5.091-9.616 29.505-13.027 48.865-13.027s43.775 3.412 48.865 13.027c8.68 16.398 46.531 107.178 51.102 119.229 2.59 6.829 1.517 15.951-2.872 24.401-3.776 7.266-13.31 20.271-34.768 25.75-10.25 2.617-32.209 3.631-55.124 3.631zM256.4 59.489c-23.399 0-42.149 4.547-45.596 11.058-8.191 15.471-45.393 104.26-50.914 118.81-2.408 6.352-1.049 15.67 3.463 23.737 3.622 6.474 12.532 17.876 31.521 21.493 20.98 3.998 101.506 5.495 122.938.025 20.059-5.122 28.909-17.154 32.397-23.871 3.913-7.53 4.921-15.524 2.699-21.384-5.521-14.549-42.723-103.339-50.914-118.81-3.445-6.511-22.194-11.058-45.594-11.058zm61.87 176.915h.018z" opacity="1" data-original="#24284a" class=""></path><path fill="#9397b4" d="M326.202 151.626c0-15.259-12.37-27.63-27.629-27.63-5.92 0-12.733 3.145-17.728 5.45-12.28 5.668-32.224 6.24-50.736-1.829-6.14-2.676-11.111-3.621-15.743-3.621-15.259 0-27.63 12.37-27.63 27.63s12.37 27.63 27.63 27.63c.092 0 .181-.013.273-.014-10.38 3.682-17.827 13.56-17.827 25.203 0 13.025 7.503 22.353 20.711 26.081 19.986 5.642 64.972 3.398 76.96.18 12.161-3.264 21.644-13.233 21.644-26.262 0-11.642-7.447-21.52-17.827-25.203.092.001.181.014.273.014 15.259.001 27.629-12.369 27.629-27.629z" opacity="1" data-original="#9397b4" class=""></path><path fill="#696f96" d="M254.097 235.853c-13.917 0-28.004-.986-37.076-3.547-14.018-3.956-22.059-14.111-22.059-27.861 0-9.825 5.073-18.825 13.102-24.016-13.238-2.894-23.179-14.709-23.179-28.803 0-16.255 13.225-29.479 29.48-29.479 5.336 0 10.573 1.2 16.482 3.776 18.91 8.242 38.346 6.863 49.221 1.845 5.138-2.372 12.174-5.621 18.504-5.621 16.255 0 29.478 13.224 29.478 29.479 0 14.093-9.941 25.909-23.177 28.803 8.03 5.191 13.103 14.192 13.103 24.016 0 13.082-9.249 24.353-23.015 28.048-6.998 1.878-23.804 3.36-40.864 3.36zm-39.459-58.461a1.848 1.848 0 0 1 .618 3.593c-9.925 3.522-16.594 12.949-16.594 23.46 0 12.147 6.877 20.777 19.364 24.301 19.293 5.445 63.91 3.413 75.979.174 12.125-3.255 20.272-13.091 20.272-24.475 0-10.511-6.67-19.938-16.594-23.46a1.847 1.847 0 0 1-1.203-2.066c.155-.89.896-1.487 1.839-1.527.042.001.215.01.257.013h.004c14.212 0 25.773-11.564 25.773-25.778 0-14.215-11.565-25.779-25.779-25.779-5.517 0-12.127 3.052-16.954 5.279-14.186 6.55-34.697 5.839-52.249-1.813-5.427-2.365-10.194-3.467-15.005-3.467-14.215 0-25.78 11.564-25.78 25.779s11.565 25.78 25.78 25.78l.255-.014z" opacity="1" data-original="#696f96"></path><circle cx="217.57" cy="152.677" r="20.094" fill="#ffffff" opacity="1" data-original="#ffffff"></circle><path d="M217.57 174.621c-12.1 0-21.943-9.843-21.943-21.943s9.844-21.944 21.943-21.944c12.1 0 21.945 9.844 21.945 21.944 0 12.099-9.845 21.943-21.945 21.943zm0-40.188c-10.06 0-18.244 8.184-18.244 18.245 0 10.059 8.183 18.244 18.244 18.244s18.245-8.184 18.245-18.244c0-10.061-8.185-18.245-18.245-18.245z" fill="#000000" opacity="1" data-original="#000000"></path><path d="M229.095 152.673c0 4.581-3.712 8.285-8.293 8.285a8.284 8.284 0 0 1-8.285-8.285 8.288 8.288 0 0 1 8.285-8.285c2.331 0 4.439.958 5.939 2.509-1.893 2.168-2.829 4.291-2.116 4.996.624.624 2.309-.008 4.172-1.433.194.706.298 1.448.298 2.213z" fill="#000000" opacity="1" data-original="#000000"></path><circle cx="295.367" cy="152.677" r="20.094" fill="#ffffff" opacity="1" data-original="#ffffff"></circle><path d="M295.368 174.621c-12.1 0-21.945-9.843-21.945-21.943s9.845-21.944 21.945-21.944 21.943 9.844 21.943 21.944c0 12.099-9.843 21.943-21.943 21.943zm0-40.188c-10.06 0-18.246 8.184-18.246 18.245 0 10.059 8.185 18.244 18.246 18.244s18.244-8.184 18.244-18.244c-.001-10.061-8.184-18.245-18.244-18.245z" fill="#000000" opacity="1" data-original="#000000"></path><path d="M300.418 152.673c0 4.581-3.712 8.285-8.285 8.285s-8.285-3.705-8.285-8.285a8.288 8.288 0 0 1 8.285-8.285c2.324 0 4.425.958 5.932 2.502-1.893 2.175-2.821 4.298-2.109 5.004.616.624 2.302-.008 4.165-1.425.193.704.297 1.439.297 2.204z" fill="#000000" opacity="1" data-original="#000000"></path><path fill="#242a4f" d="M248.929 102.978c1.332 4.827-6.206 11.117-16.835 14.05-10.63 2.933-20.326 1.398-21.658-3.429s6.206-11.117 16.835-14.05c10.63-2.933 20.326-1.398 21.658 3.429z" opacity="1" data-original="#242a4f"></path><path fill="#1b1e3b" d="M221.77 120.367c-1.505 0-2.941-.105-4.281-.317-4.849-.768-7.988-2.884-8.835-5.959-1.655-5.999 6.137-13.017 18.126-16.325 5.389-1.489 10.749-1.928 15.097-1.239 4.849.768 7.988 2.884 8.835 5.959 1.655 5.999-6.137 13.018-18.126 16.325-3.728 1.028-7.443 1.556-10.816 1.556zm15.808-20.461c-3.029 0-6.402.483-9.816 1.425-9.993 2.758-16.448 8.491-15.543 11.775.426 1.548 2.614 2.777 5.848 3.29 3.839.607 8.644.198 13.536-1.152 9.993-2.758 16.448-8.491 15.543-11.775-.426-1.547-2.614-2.777-5.848-3.289a23.965 23.965 0 0 0-3.72-.274z" opacity="1" data-original="#1b1e3b"></path><path fill="#242a4f" d="M263.016 102.978c-1.332 4.827 6.206 11.117 16.835 14.05 10.63 2.933 20.326 1.398 21.658-3.429s-6.206-11.117-16.835-14.05c-10.63-2.933-20.326-1.398-21.658 3.429z" opacity="1" data-original="#242a4f"></path><path fill="#1b1e3b" d="M290.219 120.391c-3.286 0-6.984-.511-10.859-1.581-11.99-3.308-19.783-10.326-18.128-16.325 1.658-6 11.946-8.027 23.932-4.719 11.99 3.308 19.783 10.326 18.128 16.325-1.119 4.059-6.195 6.3-13.073 6.3zm-25.421-16.921c-.905 3.283 5.549 9.016 15.545 11.775 9.995 2.757 18.477 1.144 19.384-2.138.905-3.283-5.549-9.016-15.545-11.775-9.992-2.755-18.473-1.148-19.384 2.138z" opacity="1" data-original="#1b1e3b"></path><path fill="#696f96" d="M274.223 186.603a1.85 1.85 0 0 1-.817-3.511c.918-.449 3.963-2.142 4.673-5.055.679-2.791-.882-6.056-3.483-7.277-1.642-.774-3.741-.875-5.905-.288-1.749.474-3.617 1.382-5.553 2.699l-.509.35c-1.767 1.219-3.293 2.273-6.16 2.273s-4.393-1.053-6.16-2.273l-.509-.35c-1.937-1.317-3.805-2.225-5.553-2.699-2.164-.589-4.26-.486-5.907.288-2.6 1.221-4.16 4.486-3.481 7.278.694 2.852 2.412 3.895 4.76 5.058a1.85 1.85 0 1 1-1.641 3.315c-2.813-1.392-5.647-3.117-6.715-7.498-1.091-4.486 1.326-9.539 5.502-11.502 2.437-1.146 5.438-1.329 8.449-.511 2.146.583 4.39 1.663 6.666 3.212l.529.363c1.561 1.077 2.345 1.618 4.059 1.618s2.498-.541 4.059-1.618l.529-.363c2.276-1.549 4.52-2.629 6.666-3.212 3.008-.817 6.01-.634 8.447.51 4.178 1.964 6.596 7.016 5.504 11.502-1.06 4.355-4.997 6.698-6.639 7.502-.26.129-.538.189-.811.189z" opacity="1" data-original="#696f96"></path><path fill="#696f96" d="M251.97 182.325c-.853 1.351-4.182.781-7.435-1.273s-5.199-4.814-4.347-6.165c.853-1.351 4.182-.781 7.435 1.273 3.254 2.054 5.2 4.814 4.347 6.165z" opacity="1" data-original="#696f96"></path><path fill="#505578" d="M250.189 184.912c-2.041 0-4.527-.96-6.642-2.295-3.589-2.267-6.662-5.961-4.923-8.717 1.741-2.755 6.395-1.571 9.986.695 3.591 2.267 6.664 5.961 4.924 8.717-.714 1.133-1.921 1.6-3.345 1.6zm1.782-2.587h.018zm-10.017-6.323c.322.695 1.353 2.087 3.57 3.486 2.188 1.381 3.871 1.723 4.652 1.723l.031-.001c-.321-.695-1.353-2.087-3.57-3.486-2.214-1.396-3.885-1.696-4.683-1.722z" opacity="1" data-original="#505578" class=""></path><path fill="#696f96" d="M261.088 182.325c.853 1.351 4.182.781 7.435-1.273s5.199-4.814 4.347-6.165c-.853-1.351-4.182-.781-7.435 1.273-3.254 2.054-5.2 4.814-4.347 6.165z" opacity="1" data-original="#696f96"></path><path fill="#505578" d="M262.869 184.912c-1.424 0-2.63-.467-3.346-1.6-1.74-2.756 1.333-6.45 4.923-8.717 3.591-2.266 8.247-3.45 9.988-.695 1.74 2.756-1.333 6.45-4.923 8.717-2.115 1.335-4.601 2.295-6.642 2.295zm-.016-3.701a.3.3 0 0 0 .031.001c.78 0 2.464-.342 4.652-1.723 2.217-1.399 3.248-2.791 3.57-3.486-.77-.033-2.47.326-4.684 1.723-2.218 1.397-3.248 2.789-3.569 3.485z" opacity="1" data-original="#505578" class=""></path><path fill="#6e0e1f" d="M284.584 196.628c-2.211-.853-4.713-1.17-6.953-.396s-4.126 2.796-4.292 5.16c-.127 1.814.746 3.593 2.013 4.898s2.896 2.195 4.549 2.952a40.206 40.206 0 0 0 7.827 2.65c1.199.273 2.517.476 3.609-.09 6.109-3.169-3.229-13.816-6.753-15.174z" opacity="1" data-original="#6e0e1f"></path><path d="M289.703 214.011c-.824 0-1.635-.145-2.385-.315a42.2 42.2 0 0 1-8.187-2.772c-1.559-.714-3.548-1.74-5.107-3.346-1.763-1.816-2.684-4.118-2.529-6.316.206-2.98 2.43-5.705 5.53-6.778 3.113-1.075 6.189-.366 8.223.417 3.183 1.227 9.661 7.986 9.952 13.249.13 2.339-.939 4.22-3.01 5.294-.807.419-1.655.567-2.487.567zm-9.334-16.368c-.764 0-1.483.112-2.135.337-1.664.575-2.946 2.065-3.048 3.54-.081 1.133.477 2.434 1.494 3.48 1.124 1.159 2.648 1.945 3.992 2.56a38.333 38.333 0 0 0 7.466 2.528c.854.193 1.803.353 2.347.071.784-.406 1.069-.912 1.021-1.806-.19-3.448-5.445-9.174-7.587-10.001-1.226-.47-2.434-.709-3.55-.709z" fill="#000000" opacity="1" data-original="#000000"></path><path fill="#505578" d="M57.825 199.101c13.171-40.368 88.089-59.833 110.239-82.942 17.515-7.19 18.572 9.353 6.946 26.153-11.625 16.8-31.41 64.655-78.39 64.131z" opacity="1" data-original="#505578" class=""></path><path fill="#24284a" d="M97.388 208.297c-.264 0-.522-.002-.788-.005a1.851 1.851 0 0 1 .02-3.7h.02c.244.003.491.005.734.005 38.117 0 58.019-33.403 69.945-53.412 2.32-3.893 4.323-7.255 6.171-9.925 7.45-10.767 8.669-20.054 6.037-23.327-2.269-2.819-7.349-1.413-10.407-.204-8.471 8.659-24.102 16.822-40.642 25.46-28.512 14.89-60.83 31.767-68.896 56.486a1.849 1.849 0 1 1-3.515-1.147c8.532-26.153 41.56-43.401 70.699-58.619 16.446-8.589 31.982-16.701 39.965-25.029.179-.186.394-.333.632-.432 8.765-3.597 13.021-1.352 15.046 1.165 4.285 5.326 1.924 16.479-5.877 27.751-1.776 2.568-3.75 5.879-6.035 9.714-12.328 20.686-32.913 55.215-73.109 55.219z" opacity="1" data-original="#24284a" class=""></path><path fill="#9397b4" d="M173.619 91.995c2.812-8.744 9.698-27.083 23.324-22.089 10.275 3.766 4.693 16.961 2.076 23.132-4.023 9.485-9.125 18.472-12.918 28.061-1.63 4.12-4.408 21.686-11.09 21.214-13.499-.955-3.547-43.616-1.392-50.318z" opacity="1" data-original="#9397b4" class=""></path><path fill="#696f96" d="M175.291 144.173c-.135 0-.271-.005-.41-.014-2.368-.168-4.37-1.366-5.788-3.464-7.215-10.672 1.239-44.523 2.766-49.266 4.012-12.47 8.873-19.954 14.864-22.878 3.384-1.652 7.038-1.78 10.857-.381 2.982 1.093 5.067 2.971 6.2 5.583 2.746 6.329-1.03 15.228-3.057 20.009-1.839 4.333-3.922 8.612-5.938 12.749-2.415 4.957-4.912 10.082-6.964 15.268-.316.801-.724 2.329-1.196 4.098-1.949 7.316-4.876 18.296-11.334 18.296zm17.156-73.267c-1.418 0-2.777.323-4.101.969-4.968 2.424-9.33 9.385-12.965 20.686-2.672 8.301-8.718 37.933-3.225 46.061.793 1.171 1.742 1.758 2.984 1.845.043.003.087.004.128.004 3.638.001 6.536-10.873 7.781-15.548.522-1.958.934-3.505 1.331-4.506 2.105-5.318 4.632-10.508 7.078-15.527 1.994-4.095 4.057-8.331 5.857-12.575 1.812-4.27 5.183-12.218 3.069-17.092-.722-1.669-2.057-2.84-4.077-3.58-1.342-.491-2.623-.737-3.86-.737zM173.62 91.995h.018z" opacity="1" data-original="#696f96"></path><path fill="#696f96" d="M176.967 108.214a1.85 1.85 0 0 1-1.822-2.172c3.033-17.151 8.543-26.039 16.374-26.416 2.997-.153 5.618 1.106 7.372 3.521 2.218 3.053 2.867 7.799 1.543 11.283a1.85 1.85 0 1 1-3.457-1.313c.773-2.038.582-5.511-1.078-7.797-1.024-1.411-2.46-2.096-4.202-1.998-5.79.279-10.254 8.359-12.909 23.365a1.851 1.851 0 0 1-1.821 1.527z" opacity="1" data-original="#696f96"></path><path fill="#505578" d="M454.175 199.101c-13.171-40.368-88.088-59.833-110.239-82.942-17.515-7.19-18.572 9.353-6.946 26.153 11.625 16.8 31.41 64.655 78.39 64.131z" opacity="1" data-original="#505578" class=""></path><path fill="#24284a" d="M414.612 208.297c-40.198 0-60.777-34.529-73.105-55.214-2.287-3.836-4.262-7.149-6.039-9.718-7.8-11.273-10.161-22.425-5.876-27.75 2.027-2.518 6.286-4.762 15.048-1.166.238.098.453.246.632.432 7.983 8.328 23.517 16.441 39.965 25.03 29.138 15.217 62.165 32.464 70.697 58.618a1.849 1.849 0 1 1-3.515 1.147c-8.066-24.719-40.382-41.596-68.896-56.486-16.538-8.637-32.17-16.8-40.64-25.46-3.058-1.209-8.144-2.613-10.407.204-2.634 3.273-1.414 12.561 6.035 23.327 1.848 2.671 3.853 6.035 6.174 9.928 11.925 20.008 31.832 53.409 69.942 53.409.244 0 .488-.002.733-.005h.02a1.85 1.85 0 0 1 .02 3.7c-.262.002-.526.004-.788.004z" opacity="1" data-original="#24284a" class=""></path><path fill="#9397b4" d="M338.381 91.995c-2.812-8.744-9.698-27.083-23.324-22.089-10.275 3.766-4.693 16.961-2.076 23.132 4.023 9.485 9.125 18.472 12.918 28.061 1.63 4.12 4.408 21.686 11.09 21.214 13.499-.955 3.548-43.616 1.392-50.318z" opacity="1" data-original="#9397b4" class=""></path><path fill="#696f96" d="M336.709 144.173c-6.458 0-9.385-10.983-11.336-18.301-.47-1.767-.876-3.292-1.192-4.093-2.054-5.187-4.55-10.314-6.966-15.271-2.016-4.137-4.099-8.415-5.938-12.747-2.027-4.781-5.802-13.68-3.056-20.009 1.133-2.612 3.217-4.49 6.2-5.583 3.813-1.399 7.472-1.271 10.857.381 5.992 2.925 10.853 10.408 14.865 22.878 1.525 4.741 9.975 38.602 2.764 49.266-1.418 2.098-3.42 3.296-5.788 3.463a5.126 5.126 0 0 1-.41.016zm-17.156-73.267c-1.237 0-2.518.246-3.86.737-2.02.741-3.355 1.911-4.077 3.58-2.113 4.874 1.257 12.822 3.069 17.092 1.799 4.243 3.862 8.477 5.857 12.571 2.446 5.02 4.973 10.211 7.08 15.53.396 1.001.807 2.545 1.328 4.501 1.247 4.676 4.146 15.554 7.782 15.554.042 0 .085-.002.128-.004 1.245-.088 2.193-.674 2.984-1.845 5.49-8.121-.553-37.757-3.223-46.061-3.635-11.3-7.997-18.261-12.967-20.686-1.324-.646-2.683-.969-4.101-.969z" opacity="1" data-original="#696f96"></path><path fill="#696f96" d="M335.035 108.214a1.85 1.85 0 0 1-1.819-1.527c-2.659-15.006-7.123-23.086-12.911-23.365-1.767-.086-3.176.586-4.2 1.997-1.66 2.287-1.852 5.76-1.078 7.798a1.85 1.85 0 1 1-3.457 1.313c-1.324-3.485-.676-8.23 1.543-11.284 1.754-2.413 4.37-3.661 7.371-3.52 7.829.378 13.337 9.266 16.376 26.416a1.85 1.85 0 0 1-1.825 2.172z" opacity="1" data-original="#696f96"></path></g></svg>