<svg xmlns="http://www.w3.org/2000/svg" version="1.1" xmlns:xlink="http://www.w3.org/1999/xlink" width="512" height="512" x="0" y="0" viewBox="0 0 512 512" style="enable-background:new 0 0 512 512" xml:space="preserve" class=""><g><path fill="#def5ff" d="M432.087 287.544c0 79.312-51.064 143.608-182.809 143.608-45.251 0-122.359-7.68-148.985-56.872-9.825-18.152-15.354-46.341-6.504-72.049 5.643-16.391 12.601-18.612 27.574-44.761 19.143-33.43 16.165-44.458 26.809-61.546 27.442-44.06 97.627-51.653 101.106-51.988 80.714-7.76 182.809 42.197 182.809 143.608z" opacity="1" data-original="#def5ff" class=""></path><path fill="#231f20" d="M249.278 432.652c-44.479 0-123.15-7.49-150.305-57.658-8.972-16.577-16.085-45.708-6.604-73.251 3.175-9.221 6.797-14.12 11.812-20.9 4.087-5.528 9.174-12.407 15.88-24.117 10.655-18.607 14.457-30.378 17.511-39.836 2.443-7.563 4.552-14.095 9.326-21.759 28.066-45.062 99.221-52.397 102.236-52.688 50.629-4.866 104.296 12.299 140.071 44.798 29.034 26.377 44.381 61.061 44.381 100.303 0 42.447-14.697 77.949-42.503 102.667-31.679 28.162-79.389 42.441-141.805 42.441zm17.034-288.026c-5.649 0-11.287.265-16.89.804-2.955.284-72.686 7.47-99.977 51.287-4.579 7.351-6.538 13.416-9.018 21.095-3.097 9.591-6.952 21.525-17.763 40.404-6.793 11.862-11.938 18.82-16.071 24.41-5.036 6.811-8.362 11.31-11.387 20.094-9.166 26.624-2.278 54.804 6.405 70.847 26.414 48.8 103.855 56.086 147.666 56.086 115.224 0 181.308-51.797 181.308-142.108 0-38.373-15.007-72.29-43.398-98.082-31.211-28.357-76.306-44.837-120.875-44.837z" opacity="1" data-original="#231f20" class=""></path><path fill="#ffffff" d="M400.827 266.804c0 63.321-44.655 114.653-159.863 114.653-39.571 0-107.001-6.131-130.285-45.405-8.592-14.492-5.574-34.889 2.165-55.413 4.935-13.086 11.189-16.044 24.283-36.92 16.74-26.689 6.114-36.418 15.421-50.061 23.997-35.176 85.373-41.239 88.416-41.506 70.582-6.197 159.863 33.687 159.863 114.652z" opacity="1" data-original="#ffffff"></path><ellipse cx="308.136" cy="265.725" fill="#fff3c0" rx="53.518" ry="73.837" transform="rotate(-4.07 308.782 266.223)" opacity="1" data-original="#fff3c0" class=""></ellipse><path fill="#231f20" d="M310.513 340.994c-8.408 0-16.763-2.636-24.586-7.814-15.982-10.581-27.797-30.91-31.603-54.381-6.616-40.798 12.08-79.895 41.677-87.154 11.618-2.85 23.493-.558 34.343 6.625 15.982 10.581 27.797 30.91 31.603 54.381 6.616 40.798-12.08 79.895-41.677 87.154a40.874 40.874 0 0 1-9.757 1.189zm-4.775-147.535a37.77 37.77 0 0 0-9.022 1.1c-28.114 6.896-45.803 44.47-39.431 83.76 3.675 22.659 15 42.233 30.297 52.359 10.134 6.71 21.19 8.856 31.973 6.213 28.114-6.896 45.803-44.47 39.431-83.76-3.675-22.659-15-42.233-30.297-52.359-7.319-4.846-15.12-7.313-22.951-7.313z" opacity="1" data-original="#231f20" class=""></path><ellipse cx="308.136" cy="265.725" fill="#231f20" rx="36.965" ry="56.437" transform="rotate(-3.04 305.282 263.394)" opacity="1" data-original="#231f20" class=""></ellipse><path fill="#ffffff" d="M294.229 276.446c2.272 9.032-10.187 21.796-17.532 24.591s-11.193-3.764-13.466-12.796c-2.272-9.032-2.108-17.118 5.236-19.912 7.345-2.796 23.489-.916 25.762 8.117z" opacity="1" data-original="#ffffff"></path><ellipse cx="151.972" cy="258.175" fill="#fff3c0" rx="69.525" ry="38.413" transform="rotate(-80.22 151.894 258.035)" opacity="1" data-original="#fff3c0" class=""></ellipse><path fill="#231f20" d="M143.804 328.518c-4.779 0-9.376-1.476-13.58-4.397-19.088-13.27-25.092-53.569-13.384-89.836 7.531-23.329 20.674-40.175 35.157-45.063 7.659-2.585 15.17-1.545 21.722 3.01 19.088 13.269 25.093 53.568 13.385 89.836-7.531 23.329-20.674 40.175-35.158 45.063-2.745.926-5.472 1.387-8.142 1.387zm16.307-137.674c-2.345 0-4.741.405-7.154 1.22-13.384 4.518-26.13 21.049-33.262 43.143-11.331 35.1-5.839 73.881 12.243 86.451 5.74 3.99 12.327 4.898 19.05 2.63 13.384-4.518 26.129-21.049 33.262-43.143 11.331-35.101 5.839-73.882-12.243-86.451-3.679-2.558-7.708-3.85-11.896-3.85zm-41.843 43.901h.01z" opacity="1" data-original="#231f20" class=""></path><ellipse cx="150.66" cy="258.175" fill="#231f20" rx="51.192" ry="29.545" transform="rotate(-79.16 150.681 258.224)" opacity="1" data-original="#231f20" class=""></ellipse><path fill="#ffffff" d="M159.641 271.177c-3.153 7.87 3.161 22.447 7.716 26.656s8.356-1.021 11.51-8.892c3.153-7.87 4.465-15.401-.09-19.61-4.556-4.208-15.982-6.024-19.136 1.846z" opacity="1" data-original="#ffffff"></path><ellipse cx="321.589" cy="240.267" fill="#ffffff" rx="12.736" ry="24.384" transform="rotate(-26.7 321.837 240.422)" opacity="1" data-original="#ffffff"></ellipse><ellipse cx="162.726" cy="239.436" fill="#ffffff" rx="13.896" ry="23.974" transform="rotate(-7.4 162.938 239.697)" opacity="1" data-original="#ffffff"></ellipse><path fill="#ad3c60" d="M244.7 359.371c-5.63 7.31-22.48 9.62-37.87 8.35-13.6-1.1-26.05-4.98-28.64-10.65-5.72-12.49 17.45-59.91 28.09-74.83 11.9-16.69 24.21 3.63 31.94 27.7 6.75 21 10.01 44.84 6.48 49.43z" opacity="1" data-original="#ad3c60"></path><path fill="#231f20" d="M214.749 369.545c-2.768 0-5.482-.118-8.042-.329-12.356-.999-26.697-4.551-29.881-11.521-6.22-13.58 18.341-62.453 28.233-76.324 3.594-5.041 7.525-7.271 11.688-6.621 10.758 1.674 18.967 22.479 22.902 34.732 6.45 20.067 10.497 45.271 6.241 50.804v.001c-5.316 6.899-18.758 9.258-31.141 9.258zm.644-91.901c-2.651 0-5.301 1.835-7.892 5.469-10.562 14.811-33.247 61.763-27.947 73.334 2.112 4.625 13.378 8.646 27.397 9.779 14.311 1.184 31.164-.764 36.561-7.77 2.787-3.627.411-25.871-6.72-48.057-6.243-19.44-13.909-31.66-20.507-32.687a5.954 5.954 0 0 0-.892-.068z" opacity="1" data-original="#231f20" class=""></path><ellipse cx="338.828" cy="363.852" fill="#ff598c" rx="48.924" ry="26.537" transform="rotate(-11.48 337.95 363.737)" opacity="1" data-original="#ff598c"></ellipse><ellipse cx="126.645" cy="352.133" fill="#ff598c" rx="23.885" ry="33.63" transform="rotate(-67.85 126.555 352.148)" opacity="1" data-original="#ff598c"></ellipse><g fill="#231f20"><path d="M297.931 381.881a1 1 0 0 1-.957-1.292l9.276-30.427a.995.995 0 0 1 1.248-.664 1 1 0 0 1 .665 1.248l-9.276 30.427a1 1 0 0 1-.956.708zM149.039 371.629a1 1 0 0 1-.997-.934l-1.841-27.679a1 1 0 0 1 .931-1.064 1.007 1.007 0 0 1 1.064.932l1.841 27.679a1 1 0 0 1-.931 1.064l-.067.002zM139.822 375.885a1 1 0 0 1-.997-.934l-2.71-40.742a1 1 0 0 1 .931-1.064 1.008 1.008 0 0 1 1.064.932l2.71 40.742a1 1 0 0 1-.931 1.064l-.067.002zM129.786 374.062a1 1 0 0 1-.997-.934l-2.763-41.539a1 1 0 0 1 .931-1.064 1.014 1.014 0 0 1 1.064.932l2.763 41.539a1 1 0 0 1-.931 1.064c-.022.002-.045.002-.067.002zM119.774 372.54a1 1 0 0 1-.997-.934l-2.764-41.54a1 1 0 0 1 .931-1.064 1.012 1.012 0 0 1 1.064.932l2.764 41.54a1 1 0 0 1-.931 1.064l-.067.002zM109.728 365.683a1 1 0 0 1-.997-.934l-2.091-31.439a1 1 0 0 1 .931-1.064 1.012 1.012 0 0 1 1.064.932l2.091 31.439a1 1 0 0 1-.998 1.066zM100.181 358.294a1 1 0 0 1-.997-.934l-1.199-18.021a1 1 0 0 1 .931-1.064c.544-.023 1.027.38 1.064.932l1.199 18.021a1 1 0 0 1-.931 1.064l-.067.002zM306.813 386.221a1 1 0 0 1-.957-1.292l12.027-39.446a1 1 0 0 1 1.913.584l-12.027 39.446c-.131.43-.528.708-.956.708zM316.279 388.646a1 1 0 0 1-.957-1.292l13.836-45.383a1 1 0 0 1 1.913.584l-13.836 45.383a.999.999 0 0 1-.956.708zM325.92 390.497a1 1 0 0 1-.957-1.292l15.023-49.276a.995.995 0 0 1 1.248-.664 1 1 0 0 1 .665 1.248l-15.023 49.276a1 1 0 0 1-.956.708zM336.242 389.49a1 1 0 0 1-.957-1.292l15.023-49.276a.996.996 0 0 1 1.248-.664 1 1 0 0 1 .665 1.248l-15.023 49.276a1 1 0 0 1-.956.708zM350.697 385.901a1 1 0 0 1-.957-1.292l12.922-42.383a1 1 0 0 1 1.913.584l-12.922 42.383a1 1 0 0 1-.956.708zM366.201 379.283a1 1 0 0 1-.957-1.292l9.276-30.427a1 1 0 0 1 1.913.584l-9.276 30.427a1 1 0 0 1-.956.708z" fill="#231f20" opacity="1" data-original="#231f20" class=""></path></g><path fill="#ff598c" d="M244.7 359.371c-5.63 7.31-22.48 9.62-37.87 8.35-6.77-4.12-11.56-10.19-13.07-17.57-3.49-17.02 11.83-34.53 34.21-39.11 3.47-.71 6.91-1.07 10.25-1.1 6.75 21 10.01 44.84 6.48 49.43z" opacity="1" data-original="#ff598c"></path><path fill="#231f20" d="M214.791 369.047c-2.768 0-5.483-.118-8.043-.329a1.017 1.017 0 0 1-.438-.143c-7.219-4.394-12.024-10.866-13.53-18.225-1.752-8.544.958-17.45 7.631-25.078 6.604-7.55 16.321-12.952 27.358-15.211a54.655 54.655 0 0 1 10.441-1.121h.009a1 1 0 0 1 .952.694c6.279 19.535 10.419 45.017 6.321 50.346v.001c-5.203 6.755-18.457 9.066-30.701 9.066zm-7.642-2.304c14.391 1.154 31.277-.865 36.759-7.982 2.889-3.76.701-25.363-6.415-47.809a52.963 52.963 0 0 0-9.323 1.068c-10.611 2.172-19.935 7.346-26.253 14.568-6.252 7.146-8.801 15.443-7.177 23.36 1.379 6.741 5.782 12.698 12.409 16.795zm37.551-7.372h.01z" opacity="1" data-original="#231f20" class=""></path><g fill="#231f20"><path d="M230.787 256.171c0 4.7-14.553 8.511-14.553 8.511s-14.553-3.81-14.553-8.511c0-4.7 6.516-6.213 14.553-6.213s14.553 1.513 14.553 6.213z" fill="#231f20" opacity="1" data-original="#231f20" class=""></path><path d="M215.234 262.022h2v15.234h-2z" fill="#231f20" opacity="1" data-original="#231f20" class=""></path></g><path fill="#ffffff" d="M267.174 49.585c-46.434 1.786-28.483 110.043-28.483 110.043l53.617 1.318c-.001-.001 41.249-113.914-25.134-111.361z" opacity="1" data-original="#ffffff"></path><path fill="#231f20" d="M292.307 162.446a1.5 1.5 0 0 1-1.411-2.011c.251-.694 24.894-69.75 4.45-97.733-5.988-8.197-15.446-12.112-28.115-11.618-7.155.275-13.136 3.3-17.776 8.991-21.149 25.936-9.406 98.577-9.285 99.308a1.5 1.5 0 0 1-2.96.491c-.503-3.038-12.083-74.709 9.918-101.693 5.208-6.388 11.933-9.784 19.987-10.094 13.724-.529 24.041 3.795 30.653 12.848 21.382 29.27-3.003 97.627-4.052 100.522a1.498 1.498 0 0 1-1.409.989z" opacity="1" data-original="#231f20" class=""></path><path fill="#ffffff" d="M328.308 47.287c-46.434 1.786-39.275 116.851-39.275 116.851l58.849 13.914s46.809-133.318-19.574-130.765z" opacity="1" data-original="#ffffff"></path><path fill="#231f20" d="M347.882 179.552a1.5 1.5 0 0 1-1.415-1.997c.304-.866 30.154-87.016 7.34-117.926-5.63-7.628-14.185-11.281-25.441-10.843-6.899.265-12.979 3.255-18.072 8.888-24.394 26.978-19.812 105.581-19.763 106.371a1.5 1.5 0 1 1-2.994.186c-.204-3.28-4.708-80.654 20.531-108.568 5.655-6.255 12.446-9.577 20.183-9.875 12.311-.466 21.715 3.585 27.971 12.061 23.752 32.183-5.66 117.101-6.924 120.7a1.503 1.503 0 0 1-1.416 1.003z" opacity="1" data-original="#231f20" class=""></path><g fill="#ffd0d3"><path d="M304.973 164.563s-7.474-61.703 18.824-59.32 4.851 64.247 4.851 64.247zM249.216 159.463s-13.606-63.73 12.692-61.346 10.669 62.234 10.669 62.234z" fill="#ffd0d3" opacity="1" data-original="#ffd0d3"></path></g></g></svg>