<svg xmlns="http://www.w3.org/2000/svg" version="1.1" xmlns:xlink="http://www.w3.org/1999/xlink" width="512" height="512" x="0" y="0" viewBox="0 0 512 512" style="enable-background:new 0 0 512 512" xml:space="preserve" class=""><g><path fill="#2cc96b" d="M294.613 286.576a98.974 98.974 0 0 1-16.286-2.363 6.34 6.34 0 0 1 2.868-12.35c19.896 4.62 41.781 2.019 60.041-7.138 18.259-9.159 33.432-25.142 41.627-43.852a6.335 6.335 0 0 1 8.35-3.263 6.339 6.339 0 0 1 3.263 8.35c-9.363 21.375-26.696 39.636-47.556 50.098-15.968 8.009-34.362 11.629-52.307 10.518z" opacity="1" data-original="#2cc96b"></path><path fill="#17733c" d="M300.874 288.58c-2.129 0-4.255-.065-6.373-.196a101.21 101.21 0 0 1-16.583-2.406 8.105 8.105 0 0 1-5.075-3.629 8.098 8.098 0 0 1-1.021-6.155c1.015-4.371 5.404-7.106 9.78-6.096 19.494 4.528 40.934 1.978 58.823-6.992 17.888-8.972 32.752-24.63 40.779-42.96 1.803-4.114 6.62-6 10.736-4.196 4.117 1.802 5.999 6.619 4.196 10.736-9.531 21.758-27.173 40.343-48.404 50.991-14.171 7.108-30.592 10.903-46.858 10.903zm-6.148-3.811c17.669 1.097 35.921-2.574 51.382-10.33 20.487-10.275 37.512-28.209 46.709-49.206 1.001-2.287-.044-4.963-2.331-5.964s-4.964.045-5.964 2.331c-8.361 19.091-23.842 35.4-42.474 44.745-18.63 9.343-40.96 11.996-61.263 7.283-2.424-.554-4.869.959-5.435 3.387a4.534 4.534 0 0 0 3.387 5.435 97.59 97.59 0 0 0 15.989 2.319z" opacity="1" data-original="#17733c"></path><path fill="#2cc96b" d="M407.84 206.157c4.544-10.61 9.585-18.93 14.839-29.871.617-1.285 1.062-2.677 1.11-4.101.048-1.425-.451-2.947-1.619-3.838-1.266-.965-3.09-1.001-4.561-.42-1.472.581-2.646 1.688-3.664 2.863-3.603 4.159-11.686 24.506-14.62 29.755l-.323-.088c-1.764-4.91-1.979-21.818-1.922-24.758.044-2.242.584-4.823-.442-6.929-1.128-2.314-3.37-3.516-5.891-2.407-3.781 1.664-3.672 5.799-3.589 9.246.12 4.984.483 24.832-1.443 28.906-3.202 6.774-5.952 17.366-4.278 19.432 3.377 4.168 7.214 6.713 12.311 7.037 4.121.263 10.875-5.727 14.793-11.801 3.776-5.85-.516-12.855-.701-13.026z" opacity="1" data-original="#2cc96b"></path><path fill="#17733c" d="M393.991 232.805c-.12 0-.239-.005-.356-.011-5.296-.337-9.618-2.786-13.604-7.705-2.876-3.55 2.032-17.083 4.047-21.347 1.127-2.382 1.625-13.406 1.271-28.088-.085-3.52-.212-8.799 4.67-10.947 3.225-1.422 6.619-.074 8.249 3.271.997 2.045.843 4.262.707 6.217-.036.524-.072 1.042-.082 1.541-.065 3.355.15 13.326.94 19.664.814-1.764 1.733-3.822 2.68-5.938 3.567-7.98 7.61-17.024 10.065-19.858.925-1.067 2.383-2.578 4.367-3.361 2.215-.875 4.639-.621 6.324.663 1.534 1.168 2.405 3.164 2.332 5.34-.052 1.529-.485 3.152-1.288 4.824-2.147 4.473-4.261 8.514-6.306 12.421-2.865 5.476-5.579 10.663-8.144 16.554 1.401 2.571 3.713 8.68.203 14.121-4.068 6.304-11.109 12.638-16.075 12.639zm-1.371-65.047a2.83 2.83 0 0 0-1.142.263c-2.476 1.09-2.601 3.684-2.508 7.518.225 9.374.316 25.663-1.616 29.75-3.436 7.27-5.213 16.099-4.466 17.58 3.307 4.072 6.706 6.037 10.977 6.308 3.073.182 9.324-5.036 13.156-10.975 3.052-4.731-.368-10.537-.611-10.933a1.81 1.81 0 0 1-.235-1.824c2.727-6.365 5.59-11.838 8.622-17.634 2.03-3.881 4.129-7.893 6.25-12.309.585-1.218.899-2.354.933-3.379.027-.775-.198-1.796-.907-2.336-.661-.505-1.785-.574-2.798-.175-.959.378-1.871 1.107-2.959 2.364-2.105 2.429-6.377 11.986-9.497 18.965-2.036 4.555-3.795 8.489-4.912 10.488a1.808 1.808 0 0 1-2.061.863l-.226-.062c-.573-.154-1.121-.601-1.32-1.16-1.944-5.412-2.076-22.946-2.029-25.404.011-.558.05-1.135.091-1.721.115-1.649.223-3.206-.349-4.38-.3-.612-1.053-1.807-2.393-1.807z" opacity="1" data-original="#17733c"></path><path fill="#2cc96b" d="M399.629 215.583c-3.654-.014-6.126 3.469-8.837 5.407-1.391.994-3.274 1.958-4.95 2.302-1.912.393-4.109-1.036-5.121-2.552-1.214-1.821-1.385-4.229-.682-6.302.959-2.826 3.483-4.336 6.125-5.359 3.167-1.227 6.336-2.206 9.681-2.826 3.842-.713 7.847-1.204 11.758-.88 1.835.152 5.451.522 5.804 2.898.883 5.949-8.694 7.332-13.778 7.312z" opacity="1" data-original="#2cc96b"></path><path fill="#17733c" d="M385.193 225.168c-2.409 0-4.793-1.644-5.979-3.423-1.48-2.219-1.813-5.168-.89-7.889 1.288-3.798 4.718-5.51 7.186-6.467 3.541-1.372 6.813-2.326 10.004-2.918 3.069-.569 7.673-1.282 12.239-.904 1.879.156 6.871.57 7.446 4.437.281 1.894-.222 3.646-1.454 5.069-3.597 4.152-12.455 4.27-14.123 4.321h-.014c-1.933 0-3.6 1.493-5.365 3.074-.768.687-1.561 1.397-2.398 1.995-1.774 1.269-3.883 2.242-5.64 2.603a5.029 5.029 0 0 1-1.012.102zm19.84-18.09c-2.55 0-5.382.309-8.858.954-2.967.55-6.028 1.445-9.357 2.735-2.884 1.118-4.446 2.429-5.065 4.252-.555 1.638-.373 3.445.474 4.716.679 1.018 2.215 1.99 3.249 1.783 1.266-.26 2.899-1.027 4.262-2.001.675-.482 1.361-1.097 2.087-1.748 2.092-1.874 4.464-3.997 7.78-3.997h.03c4.208.033 9.523-.937 11.37-3.07.542-.626.736-1.314.609-2.166-.046-.309-.543-1.059-4.161-1.359a29.25 29.25 0 0 0-2.42-.099z" opacity="1" data-original="#17733c"></path><path fill="#2cc96b" d="M217.386 286.576a98.974 98.974 0 0 0 16.286-2.363 6.34 6.34 0 0 0-2.868-12.35c-19.896 4.62-41.781 2.019-60.041-7.138-18.259-9.159-33.432-25.142-41.627-43.852a6.335 6.335 0 0 0-8.35-3.263 6.339 6.339 0 0 0-3.263 8.35c9.363 21.375 26.696 39.636 47.556 50.098 15.968 8.009 34.362 11.629 52.307 10.518z" opacity="1" data-original="#2cc96b"></path><path fill="#17733c" d="M211.126 288.58c-16.267 0-32.686-3.796-46.859-10.903-21.231-10.648-38.873-29.234-48.403-50.99-1.802-4.118.079-8.934 4.195-10.737 4.12-1.803 8.934.081 10.737 4.196 8.028 18.33 22.892 33.988 40.779 42.96 17.889 8.972 39.329 11.523 58.82 6.993 4.381-1.006 8.769 1.725 9.783 6.095a8.098 8.098 0 0 1-1.021 6.155 8.098 8.098 0 0 1-5.074 3.629 101.238 101.238 0 0 1-16.584 2.406c-2.117.131-4.245.196-6.373.196zm6.261-2.004h.018zm-94.064-67.687c-.606 0-1.221.122-1.81.379a4.534 4.534 0 0 0-2.33 5.965c9.197 20.995 26.221 38.93 46.709 49.205 15.461 7.754 33.712 11.422 51.383 10.33a97.59 97.59 0 0 0 15.989-2.319 4.533 4.533 0 0 0 3.386-5.435 4.533 4.533 0 0 0-5.438-3.386c-20.298 4.715-42.628 2.059-61.26-7.284-18.632-9.344-34.113-25.653-42.474-44.744a4.537 4.537 0 0 0-4.155-2.711z" opacity="1" data-original="#17733c"></path><path fill="#2cc96b" d="M104.16 206.157c-4.544-10.61-9.586-18.93-14.839-29.871-.617-1.285-1.062-2.677-1.11-4.101-.048-1.425.451-2.947 1.619-3.838 1.266-.965 3.09-1.001 4.561-.42 1.472.581 2.646 1.688 3.664 2.863 3.603 4.159 11.686 24.506 14.62 29.755l.323-.088c1.764-4.91 1.979-21.818 1.922-24.758-.044-2.242-.584-4.823.442-6.929 1.128-2.314 3.369-3.516 5.89-2.407 3.782 1.664 3.672 5.799 3.589 9.246-.12 4.984-.482 24.832 1.443 28.906 3.202 6.774 5.951 17.366 4.278 19.432-3.377 4.168-7.214 6.713-12.311 7.037-4.121.263-10.875-5.727-14.793-11.801-3.776-5.85.517-12.855.702-13.026z" opacity="1" data-original="#2cc96b"></path><path fill="#17733c" d="M118.008 232.805c-4.968 0-12.007-6.335-16.074-12.639-3.509-5.44-1.198-11.55.203-14.121-2.566-5.891-5.279-11.078-8.144-16.554-2.045-3.907-4.158-7.948-6.306-12.421-.804-1.671-1.237-3.294-1.289-4.824-.073-2.176.799-4.172 2.331-5.34 1.685-1.285 4.107-1.539 6.324-.663 1.984.783 3.443 2.294 4.368 3.361 2.455 2.834 6.498 11.877 10.064 19.857a566.053 566.053 0 0 0 2.681 5.941c.792-6.341 1.005-16.314.939-19.667-.01-.501-.046-1.018-.082-1.544-.135-1.954-.289-4.17.708-6.215 1.631-3.345 5.025-4.693 8.248-3.271 4.883 2.149 4.755 7.429 4.671 10.923-.355 14.707.143 25.731 1.269 28.112 2.015 4.264 6.923 17.798 4.047 21.347-3.986 4.92-8.308 7.368-13.603 7.705a5.891 5.891 0 0 1-.355.013zm-12.418-25.536c-.243.394-3.664 6.2-.611 10.933 3.83 5.938 10.064 11.183 13.156 10.975 4.271-.271 7.669-2.237 11.019-6.369.706-1.419-1.073-10.248-4.509-17.519-1.931-4.085-1.84-20.376-1.615-29.723.093-3.859-.032-6.455-2.509-7.546-2.07-.911-3.158.777-3.532 1.543-.572 1.174-.464 2.729-.35 4.377.041.587.08 1.166.091 1.724.048 2.457-.081 19.984-2.029 25.406-.2.558-.661.982-1.235 1.136l-.262.071c-.808.218-1.705-.122-2.112-.849-1.117-1.999-2.876-5.933-4.912-10.489-3.119-6.979-7.391-16.536-9.496-18.964-1.088-1.256-2.001-1.985-2.96-2.364-1.013-.4-2.136-.33-2.797.175-.709.539-.934 1.561-.907 2.337.035 1.025.348 2.16.933 3.378 2.121 4.417 4.22 8.429 6.25 12.31 3.032 5.795 5.895 11.269 8.622 17.634a1.81 1.81 0 0 1-.235 1.824z" opacity="1" data-original="#17733c"></path><path fill="#2cc96b" d="M112.371 215.583c3.654-.014 6.126 3.469 8.837 5.407 1.391.994 3.274 1.958 4.95 2.302 1.912.393 4.109-1.036 5.121-2.552 1.215-1.821 1.385-4.229.682-6.302-.959-2.826-3.484-4.336-6.125-5.359-3.167-1.227-6.336-2.206-9.68-2.826-3.843-.713-7.847-1.204-11.759-.88-1.835.152-5.451.522-5.803 2.898-.884 5.949 8.692 7.332 13.777 7.312z" opacity="1" data-original="#2cc96b"></path><path fill="#17733c" d="M126.806 225.168c-.338 0-.677-.033-1.013-.102-1.756-.36-3.864-1.334-5.639-2.603-.837-.598-1.63-1.308-2.397-1.995-1.765-1.58-3.433-3.074-5.366-3.074h-.014c-1.664.018-10.525-.168-14.122-4.321-1.232-1.423-1.735-3.176-1.454-5.069.575-3.867 5.566-4.281 7.446-4.437 4.559-.379 9.171.335 12.239.904 3.192.593 6.464 1.548 10.003 2.918 2.468.957 5.898 2.667 7.187 6.467.923 2.72.59 5.67-.89 7.889-1.186 1.779-3.571 3.423-5.98 3.423zm-14.413-11.397c3.317 0 5.688 2.123 7.781 3.998.726.65 1.412 1.265 2.087 1.747 1.363.975 2.996 1.741 4.261 2.001 1.037.21 2.572-.767 3.25-1.783.847-1.271 1.029-3.078.474-4.716-.619-1.823-2.181-3.134-5.066-4.252-3.327-1.289-6.387-2.184-9.356-2.735-4.614-.856-8.091-1.118-11.279-.856-3.618.3-4.115 1.051-4.161 1.359-.126.852.067 1.54.609 2.166 1.847 2.133 7.184 3.069 11.369 3.07a.342.342 0 0 0 .031.001z" opacity="1" data-original="#17733c"></path><path fill="#2cc96b" d="M213.517 359.322c.925 32.987 11.715 97.729 14.798 102.045s9.557 1.542 8.632-2.775c-2.147-10.021-1.521-64.644 4.933-86.939 3.391-11.715-28.363-12.331-28.363-12.331z" opacity="1" data-original="#2cc96b"></path><path fill="#17733c" d="M232.353 465.343c-1.955 0-4.019-.832-5.511-2.924-3.435-4.808-14.227-70.659-15.135-103.047a1.812 1.812 0 0 1 .524-1.326c.348-.351.805-.512 1.321-.536 2.379.047 23.403.669 28.969 8.228 1.388 1.885 1.769 4.105 1.098 6.42-6.284 21.71-6.973 76.386-4.901 86.056.582 2.716-.846 5.344-3.552 6.539-.85.375-1.817.59-2.813.59zM215.39 361.202c1.304 34.694 11.978 95.453 14.402 99.118 1.141 1.595 2.821 1.601 3.911 1.119.883-.391 1.734-1.243 1.472-2.467-2.177-10.165-1.597-65.154 4.965-87.822.359-1.243.189-2.279-.536-3.263-3.468-4.712-17.233-6.337-24.214-6.685z" opacity="1" data-original="#17733c"></path><path fill="#2cc96b" d="M223.962 456.062c4.151-2.948 10.141-1.782 12.563 2.697 1.296 2.397.359 3.963-2.715 7.051-7.022 7.054-29.752 20.531-32.336 17.04-2.116-2.86 11.242-18.801 22.488-26.788z" opacity="1" data-original="#2cc96b"></path><path fill="#17733c" d="M203.007 485.226c-.137 0-.269-.004-.396-.013-1.434-.105-2.202-.758-2.593-1.287-.51-.689-.684-1.569-.517-2.615.866-5.428 13.119-19.416 23.412-26.726a10.666 10.666 0 0 1 8.594-1.679c2.845.662 5.255 2.482 6.612 4.991 1.996 3.692-.09 6.242-3.025 9.191-5.868 5.892-25.034 18.138-32.087 18.138zm.056-3.161h.018zm.034-.425c.033.002.066.002.1.002 4.204 0 22.312-10.063 29.329-17.11 3.279-3.295 2.969-3.869 2.406-4.912-.876-1.62-2.385-2.752-4.248-3.186a7.03 7.03 0 0 0-5.673 1.105c-10.794 7.665-21.202 20.645-21.914 24.101z" opacity="1" data-original="#17733c"></path><path fill="#2cc96b" d="M299.121 359.322c-.925 32.987-11.715 97.729-14.798 102.045s-9.557 1.542-8.632-2.775c2.147-10.021 1.521-64.644-4.933-86.939-3.391-11.715 28.363-12.331 28.363-12.331z" opacity="1" data-original="#2cc96b"></path><path fill="#17733c" d="M280.284 465.343a7.017 7.017 0 0 1-2.813-.591c-2.706-1.195-4.134-3.823-3.552-6.539 2.073-9.671 1.383-64.347-4.901-86.056-.67-2.314-.29-4.534 1.098-6.42 5.567-7.558 26.59-8.181 28.969-8.228.542.025.974.185 1.321.536.349.352.539.831.524 1.326-.908 32.388-11.7 98.24-15.135 103.047-1.491 2.092-3.555 2.925-5.511 2.925zm16.963-104.141c-6.98.348-20.744 1.973-24.214 6.685-.725.984-.895 2.022-.536 3.263 6.562 22.666 7.143 77.656 4.965 87.822-.263 1.223.588 2.076 1.473 2.466 1.089.483 2.771.476 3.915-1.123 2.42-3.66 13.093-64.418 14.397-99.113z" opacity="1" data-original="#17733c"></path><path fill="#2cc96b" d="M288.228 456.062c-4.151-2.948-10.141-1.782-12.562 2.697-1.296 2.397-.359 3.963 2.715 7.051 7.022 7.054 29.752 20.531 32.336 17.04 2.115-2.86-11.242-18.801-22.489-26.788z" opacity="1" data-original="#2cc96b"></path><path fill="#17733c" d="M309.183 485.226c-7.053 0-26.219-12.246-32.085-18.139-2.935-2.949-5.022-5.497-3.026-9.191 1.357-2.509 3.767-4.328 6.612-4.991a10.672 10.672 0 0 1 8.594 1.679c10.294 7.311 22.548 21.299 23.413 26.726.167 1.047-.007 1.927-.517 2.616-.391.528-1.159 1.181-2.593 1.286-.129.01-.262.014-.398.014zm-26.066-28.978a7.05 7.05 0 0 0-1.611.186c-1.863.433-3.371 1.565-4.247 3.186-.563 1.043-.874 1.617 2.406 4.912 7.073 7.105 25.471 17.338 29.428 17.108-.712-3.456-11.12-16.436-21.913-24.101a7.018 7.018 0 0 0-4.063-1.291z" opacity="1" data-original="#17733c"></path><path fill="#2cc96b" d="M278.092 261.13h-45.689c-14.677 36.07-35.115 79.078-22.601 100.35s35.538 19.423 45.445 19.423 32.932 1.85 45.445-19.423c12.515-21.273-7.923-64.28-22.6-100.35z" opacity="1" data-original="#2cc96b"></path><path fill="#33e87b" d="M300.691 361.482c-12.516 21.264-35.536 19.417-45.444 19.417-.398 0-.833 0-1.286.018 11.356-.254 27.875-2.59 37.782-19.435 12.515-21.282-7.915-64.281-22.586-100.36h8.929c14.69 36.079 35.121 79.078 22.605 100.36z" opacity="1" data-original="#33e87b"></path><path fill="#0da14d" d="M288.103 285.41c-11.411 4.456-23.637 7.01-36.352 7.01-10.469 0-20.63-1.739-30.248-4.836 3.604-8.947 7.426-17.895 10.904-26.462h45.679c3.207 7.86 6.684 16.065 10.017 24.288z" opacity="1" data-original="#0da14d"></path><path fill="#17733c" d="M260.322 382.753c-1.03 0-1.993-.012-2.877-.022a178.94 178.94 0 0 0-4.396 0c-10.591.132-32.622.384-44.809-20.333-11.628-19.765 3.235-55.539 17.608-90.134 1.66-3.996 3.302-7.946 4.877-11.817a1.812 1.812 0 0 1 1.678-1.128h45.689c.737 0 1.4.447 1.678 1.128 1.575 3.872 3.217 7.824 4.877 11.821 14.372 34.594 29.234 70.365 17.606 90.13-11.168 18.989-30.611 20.355-41.931 20.355zm-5.075-3.662c.687 0 1.436.009 2.24.019 10.666.128 30.523.358 41.644-18.547 10.711-18.208-4.452-54.704-17.829-86.905a1932.333 1932.333 0 0 1-4.428-10.716h-43.253c-1.437 3.517-2.925 7.096-4.426 10.713-13.379 32.202-28.544 68.699-17.832 86.908 11.122 18.905 30.969 18.667 41.644 18.547a166.89 166.89 0 0 1 2.24-.019z" opacity="1" data-original="#17733c"></path><path fill="#2cc96b" d="M355.715 118.636c8.534 56.225-29.978 140.063-91.759 149.44-61.78 9.377-123.434-59.258-131.967-115.484-10.706-70.538 25.566-110.968 95.976-121.654 61.78-9.377 115.471 6.796 127.75 87.698z" opacity="1" data-original="#2cc96b"></path><path fill="#33e87b" d="M355.72 118.627c5.642 37.176-9.272 86.411-37.881 118.196 18.23-30.045 26.831-67.404 22.327-97.076-12.28-80.905-65.976-97.084-127.756-87.707-31.105 4.721-55.558 15.247-72.216 31.625 14.645-28.677 44.867-46.215 87.773-52.728 61.78-9.376 115.476 6.803 127.753 87.69z" opacity="1" data-original="#33e87b"></path><path fill="#17733c" d="M252.314 270.759c-25.442 0-51.859-11.977-75.557-34.512-24.439-23.24-42.28-55.19-46.559-83.383-5.322-35.068.72-63.561 17.958-84.688 16.657-20.415 43.417-33.546 79.538-39.028 34.495-5.236 62.625-1.799 83.609 10.214 24.862 14.232 40.407 40.813 46.203 79.003 4.279 28.193-3.277 63.997-19.721 93.442-18.452 33.042-44.575 53.66-73.557 58.059a79.286 79.286 0 0 1-11.914.893zm4.915-240.365c-9.063 0-18.732.777-28.993 2.335-72.01 10.928-104.672 52.282-94.456 119.592 4.164 27.436 21.588 58.588 45.474 81.301 26.595 25.291 56.581 36.891 84.431 32.662 27.851-4.227 53.044-24.201 70.938-56.244 16.068-28.775 23.465-63.697 19.302-91.133-5.622-37.042-20.567-62.747-44.421-76.403-14.085-8.062-31.597-12.11-52.275-12.11z" opacity="1" data-original="#17733c"></path><path d="M280.589 200.457c-6.37-40.428 23.467-68.811 61.191-59.101 4.714 41.849-35.427 62.441-61.191 59.101z" fill="#000000" opacity="1" data-original="#000000"></path><path d="M286.289 202.627c-2.012 0-3.995-.123-5.933-.374a1.81 1.81 0 0 1-1.556-1.514c-3.215-20.405 2.451-38.931 15.546-50.829 12.334-11.209 29.785-14.968 47.884-10.308a1.81 1.81 0 0 1 1.349 1.551c2.44 21.654-6.851 35.841-15.075 43.929-11.078 10.893-27.402 17.545-42.215 17.545zm-4.112-3.814c14.884 1.434 32.309-5.024 43.786-16.314 7.492-7.367 15.934-20.186 14.143-39.69-16.45-3.874-32.184-.342-43.325 9.782-11.886 10.8-17.171 27.588-14.604 46.222z" fill="#000000" opacity="1" data-original="#000000"></path><path fill="#ffffff" d="M333.76 162.101a6.3 6.3 0 1 1-12.459 1.891 6.3 6.3 0 0 1 12.459-1.891zM323.567 173.909a3.843 3.843 0 1 1-7.601 1.153 3.843 3.843 0 1 1 7.601-1.153z" opacity="1" data-original="#ffffff"></path><path fill="#4d4d4d" d="M304.357 155.552c-7.963 9.65-13.469 20.673-15.816 32.993-.364 1.958-3.293 1.927-3.623-.022-1.806-10.4 2.013-21.467 8.955-29.284 2.344-2.618 5.088-4.893 8.198-6.498a1.85 1.85 0 0 1 2.286 2.811z" opacity="1" data-original="#4d4d4d"></path><path d="M231.992 207.833c-5.913-40.498-42.828-58.749-75.971-38.284 7.915 41.363 52.358 49.118 75.971 38.284z" fill="#000000" opacity="1" data-original="#000000"></path><path d="M210.179 214.066c-9.802 0-19.884-2.257-28.506-6.699-10.253-5.283-23.335-16.074-27.431-37.477a1.812 1.812 0 0 1 .828-1.882c15.899-9.818 33.681-11.406 48.787-4.365 16.036 7.478 26.944 23.489 29.928 43.928a1.813 1.813 0 0 1-1.037 1.908c-6.694 3.071-14.538 4.587-22.569 4.587zm-52.13-43.625c4.077 19.157 15.943 28.893 25.284 33.706 14.313 7.377 32.863 8.365 46.655 2.588-3.078-18.557-13.107-33.021-27.662-39.807-13.643-6.364-29.716-5.07-44.277 3.513z" fill="#000000" opacity="1" data-original="#000000"></path><path fill="#ffffff" d="M215.955 179.981a6.3 6.3 0 1 1-12.459 1.891 6.3 6.3 0 0 1 12.459-1.891zM205.762 191.789a3.843 3.843 0 1 1-7.601 1.153 3.843 3.843 0 1 1 7.601-1.153z" opacity="1" data-original="#ffffff"></path><path fill="#4d4d4d" d="M165.669 174.324c8.012 8.788 14.906 18.372 24.394 25.637 1.571 1.192.266 3.775-1.614 3.234-6.355-1.751-11.668-6.062-16.023-10.807-4.236-4.776-7.719-10.177-9.861-16.196a1.852 1.852 0 0 1 3.104-1.868z" opacity="1" data-original="#4d4d4d"></path><path fill="#128240" d="M302.324 122.922c-7.488-2.573-16.117-1.58-22.825 2.626s-11.361 11.541-12.306 19.402c9.238-10.163 22.012-17.961 35.131-22.028z" opacity="1" data-original="#128240"></path><path fill="#0e6932" d="M267.191 146.761a1.811 1.811 0 0 1-1.797-2.028c1.017-8.452 5.93-16.198 13.142-20.72 7.213-4.524 16.327-5.573 24.376-2.805a1.812 1.812 0 0 1-.051 3.442c-13.069 4.053-25.582 11.895-34.329 21.517a1.805 1.805 0 0 1-1.341.594zm26.607-23.423c-4.689 0-9.405 1.28-13.337 3.744-4.4 2.759-7.891 7.049-9.86 11.906 7.098-6.462 15.787-11.884 24.985-15.587a25.364 25.364 0 0 0-1.788-.063z" opacity="1" data-original="#0e6932"></path><path fill="#128240" d="M184.248 140.843c6.388-4.679 14.922-6.291 22.576-4.265s14.273 7.65 17.509 14.877c-11.839-6.964-26.35-10.62-40.085-10.612z" opacity="1" data-original="#128240"></path><path fill="#0e6932" d="M224.333 153.266c-.316 0-.633-.082-.918-.25-11.197-6.585-25.455-10.362-39.124-10.362h-.044a1.81 1.81 0 0 1-1.07-3.272c6.868-5.03 15.884-6.735 24.11-4.555 8.229 2.178 15.219 8.118 18.699 15.887a1.812 1.812 0 0 1-1.653 2.552zm-33.508-13.965c9.882.807 19.789 3.407 28.485 7.472-3.321-4.053-7.928-7.115-12.949-8.444-5.057-1.339-10.619-.941-15.536.972z" opacity="1" data-original="#0e6932"></path><path fill="#ffffff" d="M285.108 209.25c2.357 15.529-7.915 29.967-22.944 32.248-15.028 2.281-29.122-8.459-31.479-23.989 0 0 12.271 3.301 27.299 1.02 15.029-2.28 27.124-9.279 27.124-9.279z" opacity="1" data-original="#ffffff"></path><path d="M258.146 243.613c-14.312 0-26.974-10.825-29.252-25.832a1.812 1.812 0 0 1 2.261-2.021c.118.032 12.112 3.17 26.558.978 14.49-2.199 26.37-8.989 26.488-9.057a1.811 1.811 0 0 1 2.697 1.296c1.211 7.977-.66 15.938-5.267 22.414-4.621 6.494-11.438 10.72-19.196 11.897a28.507 28.507 0 0 1-4.289.325zm-25.139-23.74c3.305 13.08 15.734 21.829 28.886 19.834 6.779-1.029 12.74-4.728 16.787-10.415 3.562-5.007 5.267-11.026 4.909-17.184-4.324 2.176-13.949 6.484-25.332 8.212-11.139 1.691-20.71.414-25.25-.447z" fill="#000000" opacity="1" data-original="#000000"></path><path fill="#ffffff" d="M269.751 227.435c4.948-1.325 9.842-3.134 14.481-5.454z" opacity="1" data-original="#ffffff"></path><path d="M269.75 229.247a1.81 1.81 0 0 1-.468-3.561c4.987-1.335 9.744-3.127 14.139-5.325a1.811 1.811 0 1 1 1.62 3.24c-4.613 2.306-9.6 4.185-14.822 5.583a1.765 1.765 0 0 1-.469.063z" fill="#000000" opacity="1" data-original="#000000"></path><path fill="#ffffff" d="M234.895 228.78c4.747 1.079 10.117 1.571 15.775 1.431z" opacity="1" data-original="#ffffff"></path><path d="M248.757 232.046c-5.087 0-9.877-.503-14.263-1.499a1.811 1.811 0 1 1 .803-3.533c4.652 1.057 9.806 1.518 15.328 1.386a1.797 1.797 0 0 1 1.856 1.765 1.81 1.81 0 0 1-1.765 1.855 71.67 71.67 0 0 1-1.959.026z" fill="#000000" opacity="1" data-original="#000000"></path></g></svg>