<svg xmlns="http://www.w3.org/2000/svg" version="1.1" xmlns:xlink="http://www.w3.org/1999/xlink" width="512" height="512" x="0" y="0" viewBox="0 0 512 512" style="enable-background:new 0 0 512 512" xml:space="preserve" class=""><g><path fill="#808285" d="M163.676 153.944c-20.23-4.255-31.291-5.739-44.684-17.968-13.402-12.228-16.394-20.31-22.422-19.165-5.597 1.052.935 45.464 5.862 59.104.377 1.057.746 1.922 1.105 2.577 4.937 9.081 16.102 21.899 38.163 20.994 22.06-.915 41.662-2.743 41.662-2.743l4.018-18.396c.001.001-3.463-20.14-23.704-24.403z" opacity="1" data-original="#808285"></path><path fill="#231f20" d="M187.085 178.399c-2.198-9.986-9.144-19.256-18.946-22.733l-.954-.381-.992-.27c-10.665-2.701-21.908-3.942-32.202-8.48-13.046-5.538-21.932-17.033-31.506-26.918-1.596-1.418-3.445-2.648-5.601-2.274-.395.004-.589.199-.82.584-1.095 2.294-.999 5.312-1.06 7.883.007 2.751.171 5.512.391 8.266a240.056 240.056 0 0 0 5.046 32.805c1.001 3.968 1.823 8.111 3.738 11.731 3.315 5.988 8.073 11.247 13.945 14.805 4.662 2.901 10.011 4.593 15.449 5.327 5.455.774 11.012.164 16.555-.029a930.35 930.35 0 0 0 33.208-2.27l.056.597c-15.153 2.741-30.468 4.969-45.847 5.875-15.838.396-30.781-8.322-38.342-22.232-2.04-3.944-3.143-8.394-4.254-12.522-2.666-11.057-9.148-43.966-3.902-53.24 1.578-2.842 4.85-3.844 7.975-3.372 2.844.268 5.82 2.351 7.33 3.786 6.189 6.154 10.653 12.526 17.048 18.155 5.705 5.3 12.315 9.24 19.731 11.675 7.938 2.728 15.854 4.226 23.979 6.804 5.731 1.979 10.757 5.793 14.282 10.476 3.395 4.702 5.607 10.135 6.286 15.851-.002-.001-.593.101-.593.101z" opacity="1" data-original="#231f20"></path><path fill="#808285" d="M432.087 287.544c0 79.312-51.064 143.608-182.809 143.608-45.251 0-122.359-7.68-148.985-56.872-9.825-18.152-15.354-46.341-6.504-72.049 5.643-16.391 12.601-18.612 27.574-44.761 19.143-33.43 16.165-44.458 26.809-61.546 27.442-44.06 97.627-51.653 101.106-51.988 80.714-7.76 182.809 42.197 182.809 143.608z" opacity="1" data-original="#808285"></path><path fill="#231f20" d="M249.278 432.652c-44.479 0-123.15-7.49-150.305-57.658-8.972-16.577-16.085-45.708-6.604-73.251 3.175-9.221 6.797-14.12 11.812-20.9 4.087-5.528 9.174-12.407 15.88-24.117 10.655-18.607 14.457-30.378 17.511-39.836 2.443-7.563 4.552-14.095 9.326-21.759 28.066-45.062 99.221-52.397 102.236-52.688 50.629-4.866 104.296 12.299 140.071 44.798 29.034 26.377 44.381 61.061 44.381 100.303 0 42.447-14.697 77.949-42.503 102.667-31.679 28.162-79.389 42.441-141.805 42.441zm17.034-288.026c-5.649 0-11.287.265-16.89.804-2.955.284-72.686 7.47-99.977 51.287-4.579 7.351-6.538 13.416-9.018 21.095-3.097 9.591-6.952 21.525-17.763 40.404-6.793 11.862-11.938 18.82-16.071 24.41-5.036 6.811-8.362 11.31-11.387 20.094-9.166 26.624-2.278 54.804 6.405 70.847 26.414 48.8 103.855 56.086 147.666 56.086 115.224 0 181.308-51.797 181.308-142.108 0-38.373-15.007-72.29-43.398-98.082-31.211-28.357-76.306-44.837-120.875-44.837z" opacity="1" data-original="#231f20"></path><path fill="#939598" d="M400.827 271.804c0 60.559-44.655 109.652-159.863 109.652-39.571 0-107.001-5.864-130.285-43.425-8.592-13.86-5.574-33.367 2.165-52.996 4.935-12.515 11.189-15.344 24.283-35.31 16.74-25.525 6.114-34.83 15.421-47.878 23.997-33.642 85.373-39.44 88.416-39.695 70.582-5.926 159.863 32.219 159.863 109.652z" opacity="1" data-original="#939598"></path><ellipse cx="308.136" cy="265.725" fill="#b8ffd0" rx="53.518" ry="73.837" transform="rotate(-4.07 308.782 266.223)" opacity="1" data-original="#b8ffd0"></ellipse><path fill="#231f20" d="M310.513 340.994c-8.408 0-16.763-2.636-24.586-7.814-15.982-10.581-27.797-30.91-31.603-54.381-6.616-40.798 12.08-79.895 41.677-87.154 11.618-2.85 23.493-.558 34.343 6.625 15.982 10.581 27.797 30.91 31.603 54.381 6.616 40.798-12.08 79.895-41.677 87.154a40.874 40.874 0 0 1-9.757 1.189zm-4.775-147.535a37.77 37.77 0 0 0-9.022 1.1c-28.114 6.896-45.803 44.47-39.431 83.76 3.675 22.659 15 42.233 30.297 52.359 10.134 6.71 21.19 8.856 31.973 6.213 28.114-6.896 45.803-44.47 39.431-83.76-3.675-22.659-15-42.233-30.297-52.359-7.319-4.846-15.12-7.313-22.951-7.313z" opacity="1" data-original="#231f20"></path><ellipse cx="308.136" cy="265.725" fill="#231f20" rx="36.965" ry="56.437" transform="rotate(-3.04 305.282 263.394)" opacity="1" data-original="#231f20"></ellipse><path fill="#ffffff" d="M294.229 276.446c2.272 9.032-10.187 21.796-17.532 24.591s-11.193-3.764-13.466-12.796c-2.272-9.032-2.108-17.118 5.236-19.912 7.345-2.796 23.489-.916 25.762 8.117z" opacity="1" data-original="#ffffff"></path><ellipse cx="151.972" cy="258.175" fill="#b8ffd0" rx="69.525" ry="38.413" transform="rotate(-80.22 151.894 258.035)" opacity="1" data-original="#b8ffd0"></ellipse><path fill="#231f20" d="M143.804 328.518c-4.779 0-9.376-1.476-13.58-4.397-19.088-13.27-25.092-53.569-13.384-89.836 7.531-23.329 20.674-40.175 35.157-45.063 7.659-2.585 15.17-1.545 21.722 3.01 19.088 13.269 25.093 53.568 13.385 89.836-7.531 23.329-20.674 40.175-35.158 45.063-2.745.926-5.472 1.387-8.142 1.387zm16.307-137.674c-2.345 0-4.741.405-7.154 1.22-13.384 4.518-26.13 21.049-33.262 43.143-11.331 35.1-5.839 73.881 12.243 86.451 5.74 3.99 12.327 4.898 19.05 2.63 13.384-4.518 26.129-21.049 33.262-43.143 11.331-35.101 5.839-73.882-12.243-86.451-3.679-2.558-7.708-3.85-11.896-3.85zm-41.843 43.901h.01z" opacity="1" data-original="#231f20"></path><ellipse cx="150.66" cy="258.175" fill="#231f20" rx="51.192" ry="29.545" transform="rotate(-79.16 150.681 258.224)" opacity="1" data-original="#231f20"></ellipse><path fill="#ffffff" d="M159.641 271.177c-3.153 7.87 3.161 22.447 7.716 26.656s8.356-1.021 11.51-8.892c3.153-7.87 4.465-15.401-.09-19.61-4.556-4.208-15.982-6.024-19.136 1.846z" opacity="1" data-original="#ffffff"></path><ellipse cx="321.589" cy="240.267" fill="#ffffff" rx="12.736" ry="24.384" transform="rotate(-26.7 321.837 240.422)" opacity="1" data-original="#ffffff"></ellipse><ellipse cx="162.726" cy="239.436" fill="#ffffff" rx="13.896" ry="23.974" transform="rotate(-7.4 162.938 239.697)" opacity="1" data-original="#ffffff"></ellipse><path fill="#ad3c60" d="M244.7 359.371c-5.63 7.31-22.48 9.62-37.87 8.35-13.6-1.1-26.05-4.98-28.64-10.65-5.72-12.49 17.45-59.91 28.09-74.83 11.9-16.69 24.21 3.63 31.94 27.7 6.75 21 10.01 44.84 6.48 49.43z" opacity="1" data-original="#ad3c60"></path><path fill="#231f20" d="M214.749 369.545c-2.768 0-5.482-.118-8.042-.329-12.356-.999-26.697-4.551-29.881-11.521-6.22-13.58 18.341-62.453 28.233-76.324 3.594-5.041 7.525-7.271 11.688-6.621 10.758 1.674 18.967 22.479 22.902 34.732 6.45 20.067 10.497 45.271 6.241 50.804v.001c-5.316 6.899-18.758 9.258-31.141 9.258zm.644-91.901c-2.651 0-5.301 1.835-7.892 5.469-10.562 14.811-33.247 61.763-27.947 73.334 2.112 4.625 13.378 8.646 27.397 9.779 14.311 1.184 31.164-.764 36.561-7.77 2.787-3.627.411-25.871-6.72-48.057-6.243-19.44-13.909-31.66-20.507-32.687a5.954 5.954 0 0 0-.892-.068z" opacity="1" data-original="#231f20"></path><ellipse cx="338.828" cy="363.852" fill="#ff598c" rx="48.924" ry="26.537" transform="rotate(-11.48 337.95 363.737)" opacity="1" data-original="#ff598c"></ellipse><ellipse cx="126.645" cy="352.133" fill="#ff598c" rx="23.885" ry="33.63" transform="rotate(-67.85 126.555 352.148)" opacity="1" data-original="#ff598c"></ellipse><g fill="#231f20"><path d="M297.931 381.881a1 1 0 0 1-.957-1.292l9.276-30.427a.995.995 0 0 1 1.248-.664 1 1 0 0 1 .665 1.248l-9.276 30.427a1 1 0 0 1-.956.708zM149.039 371.629a1 1 0 0 1-.997-.934l-1.841-27.679a1 1 0 0 1 .931-1.064 1.007 1.007 0 0 1 1.064.932l1.841 27.679a1 1 0 0 1-.931 1.064l-.067.002zM139.822 375.885a1 1 0 0 1-.997-.934l-2.71-40.742a1 1 0 0 1 .931-1.064 1.008 1.008 0 0 1 1.064.932l2.71 40.742a1 1 0 0 1-.931 1.064l-.067.002zM129.786 374.062a1 1 0 0 1-.997-.934l-2.763-41.539a1 1 0 0 1 .931-1.064 1.014 1.014 0 0 1 1.064.932l2.763 41.539a1 1 0 0 1-.931 1.064c-.022.002-.045.002-.067.002zM119.774 372.54a1 1 0 0 1-.997-.934l-2.764-41.54a1 1 0 0 1 .931-1.064 1.012 1.012 0 0 1 1.064.932l2.764 41.54a1 1 0 0 1-.931 1.064l-.067.002zM109.728 365.683a1 1 0 0 1-.997-.934l-2.091-31.439a1 1 0 0 1 .931-1.064 1.012 1.012 0 0 1 1.064.932l2.091 31.439a1 1 0 0 1-.998 1.066zM100.181 358.294a1 1 0 0 1-.997-.934l-1.199-18.021a1 1 0 0 1 .931-1.064c.544-.023 1.027.38 1.064.932l1.199 18.021a1 1 0 0 1-.931 1.064l-.067.002zM306.813 386.221a1 1 0 0 1-.957-1.292l12.027-39.446a1 1 0 0 1 1.913.584l-12.027 39.446c-.131.43-.528.708-.956.708zM316.279 388.646a1 1 0 0 1-.957-1.292l13.836-45.383a1 1 0 0 1 1.913.584l-13.836 45.383a.999.999 0 0 1-.956.708zM325.92 390.497a1 1 0 0 1-.957-1.292l15.023-49.276a.995.995 0 0 1 1.248-.664 1 1 0 0 1 .665 1.248l-15.023 49.276a1 1 0 0 1-.956.708zM336.242 389.49a1 1 0 0 1-.957-1.292l15.023-49.276a.996.996 0 0 1 1.248-.664 1 1 0 0 1 .665 1.248l-15.023 49.276a1 1 0 0 1-.956.708zM350.697 385.901a1 1 0 0 1-.957-1.292l12.922-42.383a1 1 0 0 1 1.913.584l-12.922 42.383a1 1 0 0 1-.956.708zM366.201 379.283a1 1 0 0 1-.957-1.292l9.276-30.427a1 1 0 0 1 1.913.584l-9.276 30.427a1 1 0 0 1-.956.708z" fill="#231f20" opacity="1" data-original="#231f20"></path></g><path fill="#ff598c" d="M244.7 359.371c-5.63 7.31-22.48 9.62-37.87 8.35-6.77-4.12-11.56-10.19-13.07-17.57-3.49-17.02 11.83-34.53 34.21-39.11 3.47-.71 6.91-1.07 10.25-1.1 6.75 21 10.01 44.84 6.48 49.43z" opacity="1" data-original="#ff598c"></path><path fill="#231f20" d="M214.791 369.047c-2.768 0-5.483-.118-8.043-.329a1.017 1.017 0 0 1-.438-.143c-7.219-4.394-12.024-10.866-13.53-18.225-1.752-8.544.958-17.45 7.631-25.078 6.604-7.55 16.321-12.952 27.358-15.211a54.655 54.655 0 0 1 10.441-1.121h.009a1 1 0 0 1 .952.694c6.279 19.535 10.419 45.017 6.321 50.346v.001c-5.203 6.755-18.457 9.066-30.701 9.066zm-7.642-2.304c14.391 1.154 31.277-.865 36.759-7.982 2.889-3.76.701-25.363-6.415-47.809a52.963 52.963 0 0 0-9.323 1.068c-10.611 2.172-19.935 7.346-26.253 14.568-6.252 7.146-8.801 15.443-7.177 23.36 1.379 6.741 5.782 12.698 12.409 16.795zm37.551-7.372h.01z" opacity="1" data-original="#231f20"></path><path fill="#ffffff" d="M253.036 282.057s11.031 11.744 27.299 3.392c7.466-3.084.336 27.788-23.673 22.903s-28.258-16.076-28.258-16.076z" opacity="1" data-original="#ffffff"></path><path fill="#4e2800" d="M261.235 310.302c11.74.266 17.936-7.962 20.207-11.866 3.183-5.472 4.075-11.326 2.074-13.617-.903-1.035-2.259-1.283-3.721-.679l-.106.049c-15.083 7.742-25.199-2.658-25.622-3.104l-.67-.708-.903.371-25.901 10.746.488 1.285c.185.487 4.808 11.979 29.3 16.962 1.713.348 3.33.526 4.854.561zm20.077-23.653c.027.001.039.004.04.004.435.256.869 2.794-.739 6.986-2.979 7.763-10.967 15.909-23.668 13.326-18.145-3.692-24.627-11.08-26.535-13.987l22.327-9.263c2.828 2.487 13.599 10.475 28.187 3.025.208-.081.331-.092.388-.091z" opacity="1" data-original="#4e2800"></path><path fill="#ffffff" d="M176.686 280.329s-11.551 11.233-27.425 2.154c-7.319-3.419-1.593 27.744 22.612 23.951 24.205-3.794 28.956-14.781 28.956-14.781z" opacity="1" data-original="#ffffff"></path><path fill="#4e2800" d="M172.092 307.833c24.692-3.87 29.831-15.141 30.037-15.618l.545-1.261-25.388-11.907-.885-.412-.702.676c-.443.426-11.019 10.358-25.736 1.941l-.103-.054c-1.433-.669-2.799-.484-3.748.51-2.102 2.198-1.476 8.087 1.456 13.697 2.092 4.002 7.91 12.502 19.649 12.768a27.365 27.365 0 0 0 4.875-.34zm-23.477-24.088c14.236 8.103 25.357.61 28.295-1.746l21.885 10.264c-2.038 2.817-8.847 9.904-27.14 12.772-12.804 2.006-20.416-6.493-23.041-14.383-1.417-4.26-.868-6.776-.422-7.012 0 0 .013-.002.04-.002.056 0 .178.016.383.107z" opacity="1" data-original="#4e2800"></path><ellipse cx="216.567" cy="262.421" fill="#bcbec0" rx="36.17" ry="46.056" transform="matrix(.023 -1 1 .023 -50.688 472.994)" opacity="1" data-original="#bcbec0"></ellipse><path fill="#231f20" d="M215.706 300.47c26.43.598 48.319-15.984 48.794-36.964s-20.641-38.536-47.072-39.134c-26.43-.598-48.319 15.984-48.794 36.964-.475 20.981 20.641 38.536 47.072 39.134zm1.637-72.321c24.348.551 43.808 16.374 43.38 35.272s-20.584 33.824-44.932 33.273-43.808-16.374-43.38-35.272 20.584-33.824 44.932-33.273z" opacity="1" data-original="#231f20"></path><path fill="#231f20" d="M233.473 284.444c6.101.138 10.378-9.538 11.448-19.168 1.281-11.522-1.908-20.672-7.419-21.285a5.185 5.185 0 0 0-.465-.031c-6.101-.138-10.378 9.538-11.448 19.167-1.281 11.522 1.908 20.673 7.419 21.286.154.017.31.027.465.031z" opacity="1" data-original="#231f20"></path><path fill="#808285" d="M233.214 282.534c.961.107 1.922-.202 2.854-.861 3.254-2.269 6.102-8.742 6.979-16.61.926-8.339-.657-15.649-3.659-18.221-.639-.553-1.34-.89-2.094-.973-4.297-.475-8.697 7.342-9.823 17.462-1.128 10.13 1.446 18.728 5.743 19.203z" opacity="1" data-original="#808285"></path><path fill="#231f20" d="M194.693 283.511c.217.005.433-.004.65-.025 2.885-.29 5.224-2.864 6.588-7.249 1.198-3.851 1.573-8.808 1.055-13.958-.953-9.481-5.058-19.15-11.061-19.286a5.434 5.434 0 0 0-.65.025c-5.516.555-8.802 9.671-7.643 21.206.953 9.482 5.059 19.151 11.061 19.287z" opacity="1" data-original="#231f20"></path><path fill="#808285" d="M185.511 264.035c1.017 10.14 5.336 18.003 9.644 17.572.71-.069 1.378-.366 1.984-.853 3.097-2.452 4.813-9.82 3.966-18.284-.787-7.783-3.504-14.221-6.681-16.598-.956-.73-1.959-1.074-2.963-.974-4.308.432-6.968 9.006-5.95 19.137z" opacity="1" data-original="#808285"></path><g fill="#58595b"><path d="M236.067 281.673c3.254-2.269 6.102-8.742 6.979-16.61.926-8.339-.657-15.649-3.659-18.221-3.245 2.279-6.093 8.742-6.97 16.601-.925 8.34.657 15.649 3.65 18.23zM190.458 264.147c.787 7.783 3.513 14.221 6.681 16.607 3.097-2.452 4.813-9.82 3.966-18.284-.787-7.783-3.504-14.221-6.681-16.598-3.097 2.452-4.813 9.82-3.966 18.275z" fill="#58595b" opacity="1" data-original="#58595b"></path></g><path fill="#231f20" d="M234.486 176.11s-44.597-24.511-39.83-60.936c9.192 12.596 24.708 23.149 24.708 23.149s-3.261-35.064 12.058-43.234c1.021 19.404 11.691 35.404 11.691 35.404l1.585-16 6.757 11.915s3.16-19.064 22.712-25.191c-3.597 9.872-1.476 28.936-1.476 28.936s8.177-10.213 15.964-13.617c-5.49 6.809-4.469 17.702-4.469 17.702s9.426-3.404 19.181-3.745c-8.287 4.085-8.287 10.479-8.287 10.479l24.022 7.626c.002.001-75.765-4.147-84.616 27.512z" opacity="1" data-original="#231f20"></path><path fill="#808285" d="M392.77 158.113c20.23-4.255 31.291-5.739 44.684-17.968 13.402-12.228 16.394-20.31 22.422-19.165 5.597 1.052-.935 45.464-5.862 59.104-.377 1.057-.746 1.922-1.105 2.577-4.937 9.081-16.102 21.899-38.163 20.994-22.06-.915-41.662-2.743-41.662-2.743l-4.018-18.396c-.001.001 3.463-20.14 23.704-24.403z" opacity="1" data-original="#808285"></path><path fill="#231f20" d="M369.361 182.568c2.198-9.986 9.143-19.256 18.946-22.733l.954-.381.992-.27c10.665-2.701 21.908-3.942 32.202-8.48 13.046-5.538 21.932-17.033 31.506-26.918 1.596-1.418 3.445-2.648 5.601-2.274.395.004.589.199.82.584 1.095 2.294.999 5.312 1.06 7.883-.007 2.751-.171 5.512-.391 8.266a240.056 240.056 0 0 1-5.046 32.805c-1.001 3.968-1.823 8.111-3.738 11.731-3.315 5.988-8.073 11.247-13.945 14.805-4.662 2.901-10.011 4.593-15.449 5.327-5.455.774-11.012.164-16.555-.029a930.35 930.35 0 0 1-33.208-2.27l-.056.597c15.153 2.741 30.468 4.969 45.847 5.875 15.838.396 30.781-8.322 38.342-22.232 2.04-3.944 3.143-8.394 4.254-12.522 2.666-11.057 9.148-43.966 3.902-53.24-1.578-2.842-4.85-3.844-7.975-3.372-2.844.268-5.82 2.351-7.329 3.786-6.189 6.154-10.653 12.526-17.048 18.155-5.705 5.3-12.315 9.24-19.731 11.675-7.938 2.728-15.854 4.226-23.979 6.804-5.731 1.979-10.757 5.793-14.282 10.476-3.395 4.702-5.607 10.135-6.286 15.851.001-.001.592.101.592.101z" opacity="1" data-original="#231f20"></path><path fill="#fff9c3" d="M454.013 180.085c-6.098 10.518-15.975 21.038-30.603 18.988-27.977-3.923-27.959-8.742-36.389-7.56 0 0 .182-13.051 15.441-18.559s31.276-15.029 34.199-18.563c2.921-3.524 13.695-34.803 23.214-33.41 5.597 1.051-.934 45.464-5.862 59.104z" opacity="1" data-original="#fff9c3"></path></g></svg>