<svg xmlns="http://www.w3.org/2000/svg" version="1.1" xmlns:xlink="http://www.w3.org/1999/xlink" width="512" height="512" x="0" y="0" viewBox="0 0 512 512" style="enable-background:new 0 0 512 512" xml:space="preserve" class=""><g><path fill="#414042" d="M358.367 388.715s57.407 19.404 67.002 15.319-31.26-50.723-31.26-50.723z" opacity="1" data-original="#414042"></path><path fill="#231f20" d="M421.48 406.061c-15.965 0-58.292-14.133-63.593-15.925l-2.3-.777 38.6-38.236 1.051 1.2c3.609 4.12 35.202 40.542 32.959 50.368-.293 1.283-1.067 2.225-2.239 2.724-1.047.444-2.577.646-4.478.646zm-60.327-17.994c22.923 7.629 57.19 17.327 63.628 14.587.236-.101.401-.241.49-.631 1.395-6.113-17.995-31.248-31.243-46.522z" opacity="1" data-original="#231f20"></path><ellipse cx="409.738" cy="388.077" fill="#808285" rx="5.494" ry="10.66" transform="rotate(-43.1 409.664 388.116)" opacity="1" data-original="#808285"></ellipse><path fill="#fbffe3" d="M402.326 265.404s89.339-7.39 70.302 37.052c-17.697 41.315-72.947-30.428-72.947-30.428z" opacity="1" data-original="#fbffe3"></path><path fill="#231f20" d="M456.188 316.777c-23.657 0-56.272-41.986-57.694-43.833l-.521-.677 3.306-8.281.925-.077c2.296-.189 56.431-4.422 71 15.801 4.495 6.238 4.765 14.091.804 23.338-3.495 8.158-8.7 12.729-15.471 13.585-.771.097-1.558.144-2.349.144zm-54.792-44.995c4.459 5.613 36.172 44.504 56.765 41.874 5.719-.724 10-4.58 13.088-11.79 3.518-8.212 3.356-15.076-.48-20.401-12.599-17.492-60.159-15.101-67.398-14.631z" opacity="1" data-original="#231f20"></path><path fill="#fbffe3" d="M405.72 257.491s31.246-84.022 63.399-47.915c29.89 33.566-58.524 53.122-58.524 53.122z" opacity="1" data-original="#fbffe3"></path><path fill="#231f20" d="m410.084 264.348-6.093-6.509.324-.87c.803-2.161 19.96-52.969 44.455-57.572 7.558-1.417 14.78 1.669 21.47 9.183 5.902 6.628 7.831 13.281 5.73 19.775-7.376 22.809-62.699 35.288-65.051 35.809zm-2.626-7.195 3.641 3.888c6.976-1.653 55.628-13.854 62.017-33.61 1.773-5.485.1-10.999-5.116-16.857-5.941-6.672-12.225-9.44-18.675-8.229-21.189 3.98-39.222 48.058-41.867 54.808z" opacity="1" data-original="#231f20"></path><path fill="#754c29" d="M425.372 277.796c0 6.42-.33 12.74-1.02 18.93-1.8 16.33-6.04 31.8-13 45.92-23.01 46.73-75.81 78.76-168.79 78.76-37.65 0-97.35-5.32-131.69-35.44-6.34-5.55-11.81-11.96-16.12-19.33-.4-.69-.8-1.39-1.18-2.1-9.82-18.15-15.35-46.34-6.5-72.05 5.64-16.39 12.6-18.61 27.57-44.76 19.15-33.43 16.17-44.46 26.81-61.55 27.44-44.06 97.63-51.65 101.11-51.99 80.71-7.761 182.81 42.2 182.81 143.61z" opacity="1" data-original="#754c29" class=""></path><path fill="#ffde17" d="M384.732 354.806c-34.09 26.79-85.85 40.37-153.83 40.37-37.7 0-98.02-4.27-136.15-28.54 4.31 7.37 9.78 13.78 16.12 19.33 38.77 16.03 87.51 19.21 120.03 19.21 70.28 0 124.11-14.3 160-42.51 7.71-6.05 14.54-12.75 20.45-20.02 6.96-14.12 11.2-29.59 13-45.92-6.83 23.11-20.19 42.82-39.62 58.08z" opacity="1" data-original="#ffde17" class=""></path><path fill="#231f20" d="M242.561 422.905c-44.479 0-123.15-7.491-150.305-57.658-8.972-16.577-16.085-45.708-6.604-73.25 3.175-9.221 6.797-14.12 11.811-20.901 4.088-5.527 9.175-12.407 15.88-24.118 10.655-18.607 14.457-30.377 17.511-39.835 2.443-7.563 4.552-14.094 9.326-21.758 28.072-45.073 99.221-52.398 102.236-52.688 50.624-4.867 104.295 12.298 140.071 44.798 29.034 26.376 44.381 61.06 44.381 100.302 0 42.447-14.697 77.949-42.503 102.667-31.678 28.162-79.389 42.441-141.804 42.441zm17.033-288.026c-5.649 0-11.287.265-16.89.803-2.955.284-72.679 7.459-99.977 51.288-4.579 7.351-6.538 13.416-9.018 21.095-3.097 9.59-6.952 21.525-17.763 40.404-6.793 11.862-11.938 18.82-16.071 24.41-5.036 6.81-8.362 11.309-11.387 20.094-9.166 26.624-2.278 54.804 6.405 70.846 26.414 48.799 103.855 56.086 147.666 56.086 115.224 0 181.308-51.796 181.308-142.108 0-38.374-15.007-72.29-43.398-98.082-31.211-28.356-76.305-44.836-120.875-44.836z" opacity="1" data-original="#231f20"></path><path fill="#ffde17" d="M394.109 260.688c0 61.316-44.655 111.022-159.863 111.022-39.571 0-107.001-5.937-130.285-43.967-8.592-14.033-5.574-33.784 2.165-53.658 4.935-12.672 11.189-15.536 24.283-35.751 16.74-25.844 6.114-35.265 15.421-48.476 23.997-34.062 85.373-39.933 88.416-40.191 70.582-6.001 159.863 32.621 159.863 111.021z" opacity="1" data-original="#ffde17" class=""></path><path fill="#231f20" d="M208.579 142.822s-35.063-72.405-66.041-73.766-23.83 27.234-10.894 28.255 18.723-6.128 18.723-6.128 28.47 20.542 45.554 55.973c1.447 4.113 6.059 5.905 9.424 4.282 2.898-1.397 4.462-5.128 3.234-8.616zM298.303 141.273s-17.544-78.511-47.387-86.933-29.435 21.051-17.076 25.009c12.358 3.957 19.629-1.676 19.629-1.676s23.007 26.518 31.521 64.92c.466 4.335 4.545 7.136 8.193 6.327 3.139-.696 5.517-3.97 5.12-7.647z" opacity="1" data-original="#231f20"></path><g fill="#808285"><ellipse cx="137.346" cy="75.544" rx="8.17" ry="4.021" fill="#808285" opacity="1" data-original="#808285"></ellipse><ellipse cx="240.325" cy="60.396" rx="8.17" ry="4.021" fill="#808285" opacity="1" data-original="#808285"></ellipse></g><ellipse cx="308.136" cy="262.159" fill="#fbffe3" rx="53.518" ry="73.837" transform="rotate(-4.07 308.781 262.66)" opacity="1" data-original="#fbffe3"></ellipse><path fill="#231f20" d="M310.513 337.429c-8.408 0-16.763-2.636-24.586-7.814-15.982-10.581-27.797-30.91-31.603-54.381-6.616-40.798 12.08-79.895 41.677-87.154 11.618-2.85 23.493-.558 34.343 6.625 15.982 10.581 27.797 30.91 31.603 54.381 6.616 40.798-12.08 79.895-41.677 87.154a40.925 40.925 0 0 1-9.757 1.189zm-4.775-147.536a37.77 37.77 0 0 0-9.022 1.1c-28.114 6.896-45.803 44.47-39.431 83.76 3.675 22.659 15 42.233 30.297 52.359 10.134 6.71 21.19 8.856 31.973 6.213 28.114-6.896 45.803-44.47 39.431-83.76-3.675-22.659-15-42.233-30.297-52.359-7.319-4.846-15.12-7.313-22.951-7.313z" opacity="1" data-original="#231f20"></path><ellipse cx="308.136" cy="262.159" fill="#231f20" rx="36.965" ry="56.437" transform="rotate(-3.04 305.281 259.866)" opacity="1" data-original="#231f20"></ellipse><path fill="#ffffff" d="M294.229 272.88c2.272 9.032-10.187 21.796-17.532 24.591s-11.193-3.764-13.466-12.796c-2.272-9.032-2.108-17.118 5.236-19.912 7.345-2.795 23.489-.915 25.762 8.117z" opacity="1" data-original="#ffffff"></path><ellipse cx="151.972" cy="254.61" fill="#fbffe3" rx="69.525" ry="38.413" transform="rotate(-80.22 151.894 254.472)" opacity="1" data-original="#fbffe3"></ellipse><path fill="#231f20" d="M143.804 324.952c-4.779 0-9.376-1.476-13.58-4.397-19.088-13.27-25.092-53.569-13.384-89.836 7.531-23.329 20.674-40.175 35.157-45.063 7.659-2.585 15.17-1.545 21.722 3.01 19.088 13.269 25.093 53.568 13.385 89.836-7.531 23.329-20.674 40.175-35.158 45.063-2.745.926-5.472 1.387-8.142 1.387zm16.307-137.674c-2.345 0-4.741.405-7.154 1.22-13.384 4.518-26.13 21.049-33.262 43.143-11.331 35.1-5.839 73.881 12.243 86.451 5.74 3.99 12.327 4.898 19.05 2.63 13.384-4.518 26.129-21.049 33.262-43.143 11.331-35.101 5.839-73.882-12.243-86.451-3.679-2.558-7.708-3.85-11.896-3.85zm-41.843 43.902h.01z" opacity="1" data-original="#231f20"></path><ellipse cx="150.66" cy="254.61" fill="#231f20" rx="51.192" ry="29.545" transform="rotate(-79.16 150.681 254.658)" opacity="1" data-original="#231f20"></ellipse><path fill="#ffffff" d="M159.641 267.612c-3.153 7.87 3.161 22.447 7.716 26.656s8.356-1.021 11.51-8.892c3.153-7.87 4.465-15.401-.09-19.61-4.556-4.209-15.982-6.025-19.136 1.846z" opacity="1" data-original="#ffffff"></path><ellipse cx="321.589" cy="236.701" fill="#ffffff" rx="12.736" ry="24.384" transform="rotate(-26.7 321.838 236.855)" opacity="1" data-original="#ffffff"></ellipse><ellipse cx="162.726" cy="235.871" fill="#ffffff" rx="13.896" ry="23.974" transform="rotate(-7.4 162.936 236.123)" opacity="1" data-original="#ffffff"></ellipse><path fill="#ad3c60" d="M244.7 355.805c-5.63 7.31-22.48 9.62-37.87 8.35-13.6-1.1-26.05-4.98-28.64-10.65-5.72-12.49 17.45-59.91 28.09-74.83 11.9-16.69 24.21 3.63 31.94 27.7 6.75 21 10.01 44.84 6.48 49.43z" opacity="1" data-original="#ad3c60"></path><path fill="#231f20" d="M214.749 365.979c-2.768 0-5.482-.118-8.042-.329-12.356-.999-26.697-4.551-29.881-11.521-6.22-13.58 18.341-62.453 28.233-76.324 3.594-5.041 7.525-7.271 11.688-6.621 10.758 1.674 18.967 22.479 22.902 34.732 6.45 20.067 10.497 45.271 6.241 50.804v.001c-5.316 6.899-18.758 9.258-31.141 9.258zm.644-91.901c-2.651 0-5.301 1.835-7.892 5.469-10.562 14.811-33.247 61.763-27.947 73.334 2.112 4.625 13.378 8.646 27.397 9.779 14.311 1.184 31.164-.764 36.561-7.77 2.787-3.627.411-25.871-6.72-48.057-6.243-19.44-13.909-31.66-20.507-32.687a5.954 5.954 0 0 0-.892-.068z" opacity="1" data-original="#231f20"></path><ellipse cx="338.828" cy="360.286" fill="#ff598c" rx="48.924" ry="26.537" transform="rotate(-11.48 337.957 360.177)" opacity="1" data-original="#ff598c"></ellipse><ellipse cx="126.645" cy="348.567" fill="#ff598c" rx="23.885" ry="33.63" transform="rotate(-67.85 126.555 348.583)" opacity="1" data-original="#ff598c"></ellipse><g fill="#231f20"><path d="M297.931 378.315a1 1 0 0 1-.957-1.292l9.276-30.427a.995.995 0 0 1 1.248-.664 1 1 0 0 1 .665 1.248l-9.276 30.427a1 1 0 0 1-.956.708zM149.039 368.063a1 1 0 0 1-.997-.934l-1.841-27.679a1 1 0 0 1 .931-1.064 1.007 1.007 0 0 1 1.064.932l1.841 27.679a1 1 0 0 1-.931 1.064l-.067.002zM139.822 372.319a1 1 0 0 1-.997-.934l-2.71-40.742a1 1 0 0 1 .931-1.064 1.008 1.008 0 0 1 1.064.932l2.71 40.742a1 1 0 0 1-.931 1.064l-.067.002zM129.786 370.497a1 1 0 0 1-.997-.934l-2.763-41.539a1 1 0 0 1 .931-1.064 1.014 1.014 0 0 1 1.064.932l2.763 41.539a1 1 0 0 1-.998 1.066zM119.774 368.974a1 1 0 0 1-.997-.934l-2.764-41.54a1 1 0 0 1 .931-1.064 1.012 1.012 0 0 1 1.064.932l2.764 41.54a1 1 0 0 1-.931 1.064c-.022.002-.044.002-.067.002zM109.728 362.117a1 1 0 0 1-.997-.934l-2.091-31.439a1 1 0 0 1 .931-1.064 1.012 1.012 0 0 1 1.064.932l2.091 31.439a1 1 0 0 1-.998 1.066zM100.181 354.728a1 1 0 0 1-.997-.934l-1.199-18.021a1 1 0 0 1 .931-1.064c.544-.023 1.027.38 1.064.932l1.199 18.021a1 1 0 0 1-.931 1.064l-.067.002zM306.813 382.655a1 1 0 0 1-.957-1.292l12.027-39.446a1 1 0 0 1 1.913.584l-12.027 39.446a1 1 0 0 1-.956.708zM316.279 385.081a1 1 0 0 1-.957-1.292l13.836-45.383a1 1 0 0 1 1.913.584l-13.836 45.383a.999.999 0 0 1-.956.708zM325.92 386.932a1 1 0 0 1-.957-1.292l15.023-49.276a.995.995 0 0 1 1.248-.664 1 1 0 0 1 .665 1.248l-15.023 49.276c-.131.43-.528.708-.956.708zM336.242 385.925a1 1 0 0 1-.957-1.292l15.023-49.276a.996.996 0 0 1 1.248-.664 1 1 0 0 1 .665 1.248l-15.023 49.276c-.131.43-.528.708-.956.708zM350.697 382.336a1 1 0 0 1-.957-1.292l12.922-42.383a1 1 0 0 1 1.913.584l-12.922 42.383c-.132.43-.528.708-.956.708zM366.201 375.718a1 1 0 0 1-.957-1.292l9.276-30.427a1 1 0 0 1 1.913.584l-9.276 30.427c-.132.43-.528.708-.956.708z" fill="#231f20" opacity="1" data-original="#231f20"></path></g><path fill="#ff598c" d="M244.7 355.805c-5.63 7.31-22.48 9.62-37.87 8.35-6.77-4.12-11.56-10.19-13.07-17.57-3.49-17.02 11.83-34.53 34.21-39.11 3.47-.71 6.91-1.07 10.25-1.1 6.75 21 10.01 44.84 6.48 49.43z" opacity="1" data-original="#ff598c"></path><path fill="#231f20" d="M214.791 365.481c-2.768 0-5.483-.118-8.043-.329a1.017 1.017 0 0 1-.438-.143c-7.219-4.394-12.024-10.866-13.53-18.225-1.752-8.544.958-17.45 7.631-25.078 6.604-7.55 16.321-12.952 27.358-15.211a54.655 54.655 0 0 1 10.441-1.121h.009a1 1 0 0 1 .952.694c6.279 19.535 10.419 45.017 6.321 50.346v.001c-5.203 6.756-18.457 9.066-30.701 9.066zm-7.642-2.303c14.391 1.154 31.277-.865 36.759-7.982 2.889-3.76.701-25.363-6.415-47.809a52.963 52.963 0 0 0-9.323 1.068c-10.611 2.172-19.935 7.346-26.253 14.568-6.252 7.146-8.801 15.443-7.177 23.36 1.379 6.741 5.782 12.697 12.409 16.795zm37.551-7.372h.01z" opacity="1" data-original="#231f20"></path></g></svg>