<svg xmlns="http://www.w3.org/2000/svg" version="1.1" xmlns:xlink="http://www.w3.org/1999/xlink" width="512" height="512" x="0" y="0" viewBox="0 0 128 128" style="enable-background:new 0 0 512 512" xml:space="preserve" class=""><g><path fill="#ffffff" d="M106 72.445c-3.543-3.425-9.191-4.068-13.715-2.534-1.16-.9-8.659-.378-10.081-.435l.031-2.043c8.1-13.808 10.571-31.768-4.78-37.38l-.156-.907C87.625 21.47 83.856 9.752 70.907 9.93c-3.561-10.225-15.87-9.162-18.886.853-11.344.074-15.09 11.645-5.966 18.362-.86 3.641-1.237 7.986 1.58 10.878-12.9 5.182-6.848 21.3 2.788 26.557a28.97 28.97 0 0 1 .02 3.6 9.512 9.512 0 0 0-1.254.525c-4.351-2.127-7.623-2.418-12.507 1.888-6.343-5.572-18.263-3.983-18.8 5.681.382 9.326-2.77 22.329 8.265 25.316-.858 13.655.789 28.684 18.137 21.141a9.274 9.274 0 0 0 7.514.056c4.468 1.516 10.986.276 15.751.556 2.371 0 5.165.308 7.256-1.012A15.791 15.791 0 0 0 87.988 124c6.627 3.826 14.344-.215 14.71-7.7.114-1.685.076-12.389-.07-15.35 9.52-3.658 11.184-22.85 3.372-28.505z" opacity="1" data-original="#ffffff" class=""></path><path fill="#e946e6" d="m61.675 11.795 3.263 6.611 9.239 1.064-6.665 6.497 1.378 8.034-7.575-2.686-6.855 2.686 1.378-8.034-5.837-5.69 8.066-1.172z" opacity="1" data-original="#e98046" class=""></path><path fill="#505594" d="M68.89 35a.983.983 0 0 1-.334-.058l-7.223-2.56-6.508 2.549a1 1 0 0 1-1.351-1.1l1.289-7.516-5.463-5.322a1 1 0 0 1 .554-1.7l7.546-1.1 3.375-6.837a1.041 1.041 0 0 1 1.794 0l3.021 6.123 8.7 1a1 1 0 0 1 .584 1.709l-6.289 6.129 1.289 7.517A1 1 0 0 1 68.89 35zm-7.575-4.686a1.007 1.007 0 0 1 .334.058l5.966 2.115-1.089-6.352a1 1 0 0 1 .287-.885l5.159-5.028-7.149-.822a1 1 0 0 1-.782-.55l-2.366-4.794-2.711 5.492a1 1 0 0 1-.753.547l-6.061.882 4.386 4.275a1 1 0 0 1 .288.885l-1.079 6.288 5.205-2.039a1 1 0 0 1 .365-.071z" opacity="1" data-original="#945f50" class=""></path><path fill="#af8aef" d="M59.462 71.723s.569-6.29-.667-9.323-9.1-6.177-9.435-10.783 3.707-3.032 4.605-1.8 4.6 3.707 5.616 2.921c0 0-1.615-23.194 2.158-23.826s3.346 13.267 3.234 18.322c0 0-.516-8.869 2.676-9.3 3.978-.533 2.742 9.182 2.742 9.182s.441-8.783 2.987-8.755c3.369.038 2.153 8.533 2.153 8.533s.047-5.592 2.585-5.646c3.034-.063 1.009 17.1-4.944 22.943l-.112 7.526" opacity="1" data-original="#efb28a" class=""></path><path fill="#505594" d="M73.06 72.723h-.015a1 1 0 0 1-.985-1.015l.112-7.525a1 1 0 0 1 .3-.7c3.972-3.9 6.191-13.508 6.033-18.682a5.428 5.428 0 0 0-.467-2.535c-.634.129-1.087 1.354-1.322 2.7a24.435 24.435 0 0 1-.195 2.078 1 1 0 0 1-1.99-.15 14.854 14.854 0 0 1 .195-2.165c.09-1.978-.058-4.223-.793-5.081a.7.7 0 0 0-.567-.278c-.476 0-1.4 2.155-1.813 5.8a26.481 26.481 0 0 1-.169 2.078 1 1 0 0 1-1.991-.176c.029-.583.08-1.319.167-2.125.083-2.33-.149-4.928-1.006-5.778a.829.829 0 0 0-.771-.237c-.973.13-1.532 2.216-1.747 4.578a205.051 205.051 0 0 1-.053 3.288l-.009.462a1 1 0 0 1-.982.977 1.023 1.023 0 0 1-1.017-.942 28.4 28.4 0 0 1 .065-4.044c.025-4.829-.186-11.85-1.788-13.237a.374.374 0 0 0-.352-.114c-1.506.58-2.129 11.222-1.325 22.77a1 1 0 0 1-.384.858 1.981 1.981 0 0 1-1.548.333 11.028 11.028 0 0 1-5.49-3.454 2.6 2.6 0 0 0-2.246-.826c-.613.225-.591 1.447-.553 1.962.167 2.283 2.834 4.366 5.188 6.205 1.915 1.5 3.57 2.789 4.175 4.274 1.313 3.22.761 9.523.737 9.789a.988.988 0 0 1-1.085.907 1 1 0 0 1-.907-1.086c.006-.061.532-6.085-.6-8.856-.4-.991-2.006-2.242-3.555-3.452-2.68-2.1-5.719-4.468-5.951-7.635-.2-2.8 1.077-3.7 1.86-3.986a4.509 4.509 0 0 1 4.551 1.528 10.368 10.368 0 0 0 3.742 2.561c-.585-9.081-.854-23.209 3.058-23.864a2.356 2.356 0 0 1 1.987.573c1.506 1.306 2.148 4.81 2.374 9.236a2.735 2.735 0 0 1 1.582-.789 2.829 2.829 0 0 1 2.446.8 4.365 4.365 0 0 1 .957 1.583c.576-1.167 1.365-1.966 2.444-1.966h.025a2.693 2.693 0 0 1 2.062.977 5.451 5.451 0 0 1 1.052 2.49 2.551 2.551 0 0 1 1.593-.579 2 2 0 0 1 1.898 1.447c.832 1.978.672 6.326-.408 11.079-1.164 5.126-3.126 9.405-5.413 11.834l-.106 7.126a1 1 0 0 1-1 .984z" opacity="1" data-original="#945f50" class=""></path><g fill="#efb28a"><path d="M37.066 88.222a10.382 10.382 0 0 0-2.8-6.92 13.312 13.312 0 0 0-6.24-3.874 1.706 1.706 0 0 0-.49-.036 1.664 1.664 0 0 0-1.461 1.133c-.082 2.631-.124 4.443-.124 5.387a63.083 63.083 0 0 0 .455 8.006.907.907 0 0 0-.258.642.938.938 0 0 0 .394.734l.3 1.4a.924.924 0 0 0 .925.846 1.779 1.779 0 0 0 1.1-.356 1.057 1.057 0 0 0 .5-.822 1.918 1.918 0 0 0-.014-.246 11.239 11.239 0 0 0 1.7.116A7.6 7.6 0 0 0 33.3 93.9c2.5-.769 3.766-2.677 3.766-5.678zm-8.5-8.141a10.376 10.376 0 0 1 4.4 3.541 9.522 9.522 0 0 1 1.675 5.544c0 .242-.025.588-.073 1.043-.042.518-.442.906-1.221 1.187a7.66 7.66 0 0 1-2.624.456 9.137 9.137 0 0 1-1.792-.128 64.952 64.952 0 0 1-.472-8.01c-.004-.669.032-1.891.104-3.633zM39.189 94.157c.846 0 1.1-.354 1.163-.666.674-4.94 1.019-5.742 1.126-5.85a1.322 1.322 0 0 1 .5-.047c.351 0 1.085.065 2.181.2a10.884 10.884 0 0 1 1.83.3 15.842 15.842 0 0 1 .724 3.141c.182.94.3 1.568.372 1.889a1.274 1.274 0 0 0 .485.831 1.446 1.446 0 0 0 .86.253 1.187 1.187 0 0 0 .818-.268.777.777 0 0 0 .311-.564 1.448 1.448 0 0 0-.028-.322A72.411 72.411 0 0 0 46.483 80.4a10.453 10.453 0 0 0-1.118-2.3 1.489 1.489 0 0 0-1.217-.632c-.911 0-1.759.747-2.52 2.219a36.821 36.821 0 0 0-2.19 6.685 33.16 33.16 0 0 0-1.316 6.845c0 .35.138.94 1.067.94zm6.377-8.414a2.6 2.6 0 0 1-.307.013c-.2 0-.676-.025-1.777-.145-1.191-.131-1.391-.258-1.4-.294a10.283 10.283 0 0 1 .895-2.614 6.046 6.046 0 0 1 1.074-2.031c.089.071.369.427.866 2.2a19.163 19.163 0 0 1 .658 2.653 2.68 2.68 0 0 1-.009.218zM51.33 93.523c.181.626.561.758.847.758a1.482 1.482 0 0 0 1.005-.416 1.293 1.293 0 0 0 .469-.978l-.134-4.3a23.385 23.385 0 0 1 3.142 2.485A8.455 8.455 0 0 1 58.7 93.8a1.191 1.191 0 0 0 .954.479 1.356 1.356 0 0 0 .928-.342 1.028 1.028 0 0 0 .4-.775c0-.74-.577-1.722-1.763-3a24.778 24.778 0 0 0-3.68-3.224 12.807 12.807 0 0 0 2.329-1.219 10.048 10.048 0 0 0 2.373-2.12 3.85 3.85 0 0 0 .987-2.339 2.917 2.917 0 0 0-.915-2.058 6.128 6.128 0 0 0-2-1.384 5.4 5.4 0 0 0-2.1-.474 7.714 7.714 0 0 0-3.247.634 2.771 2.771 0 0 0-1.793 2.779l.075 6.214q-.001 3.209.082 6.552zm2.223-8.277q0-3.865.021-5.174a6.236 6.236 0 0 1 2.033-.275 4.851 4.851 0 0 1 2.346.538 1.545 1.545 0 0 1 .918 1.417c0 .605-.676 1.352-1.955 2.164a7.955 7.955 0 0 1-3.363 1.33zM63.183 85.584l.1 3.509v1.727a17.74 17.74 0 0 1-.1 2.221 1.144 1.144 0 0 0 .294.868 1.335 1.335 0 0 0 .946.273l6.363-.1a1.687 1.687 0 0 0 .9-.54 1.342 1.342 0 0 0 .39-.891c0-.337-.169-.763-1.019-.894l-5.47.07c.033-.42.049-1.02.049-1.822l-.094-4.043c.117-.011.253-.017.406-.017l4.328.066a1.1 1.1 0 0 0 .315-.113 1.285 1.285 0 0 0 .844-1.181c0-.372-.186-.852-1.116-1.029q-3.447 0-4.822-.022c-.053-.765-.08-2.03-.082-3.769 1.285.117 2.058.175 2.362.175h1.6c.433 0 .832-.008 1.2-.027 1.481-.124 2.231-.608 2.231-1.435 0-.365-.194-.841-1.165-1.041-2.512 0-4.883-.05-7.086-.147a1.845 1.845 0 0 0-1.022.4 1.9 1.9 0 0 0-.534 1.035c0 1.808.032 3.536.095 5.136a1.43 1.43 0 0 0-.268.836.944.944 0 0 0 .355.755zM82.806 86.144c0 3.457.05 5.85.148 7.114a.979.979 0 0 0 1.017 1.023 2.593 2.593 0 0 0 .808-.11c.368-.114.555-.486.555-1.107l-.1-8.659v-1.369c0-.678.037-1.679.111-2.978 1.3-.059 2.544-.089 3.708-.089.463 0 1.239-.19 1.239-1.461 0-.3-.152-.71-.947-.943l-10.017.149a1.383 1.383 0 0 0-.895.47 1.274 1.274 0 0 0-.365.854 1.1 1.1 0 0 0 .28.758 1.011 1.011 0 0 0 .782.322q1.507.023 2.521.023.784 0 1.274-.014c-.08.896-.119 2.873-.119 6.017zM100.461 78.488a4.436 4.436 0 0 0-3.092-1.17 5.986 5.986 0 0 0-5.192 2.288 8.828 8.828 0 0 0-1.55 5.342 14.494 14.494 0 0 0 .564 3.9 10.04 10.04 0 0 0 1.909 3.67 4.683 4.683 0 0 0 3.828 1.689h.016a5.154 5.154 0 0 0 3.28-1.5 9.984 9.984 0 0 0 2.681-7.353c-.005-3.103-.825-5.414-2.444-6.866zm-6.92 9.358a11.049 11.049 0 0 1-.484-2.973 7.613 7.613 0 0 1 .239-2.089 3.616 3.616 0 0 1 3.9-2.963 2.494 2.494 0 0 1 2.425 1.358 9 9 0 0 1 .751 4.089 14.372 14.372 0 0 1-.315 2.988 5.111 5.111 0 0 1-1.132 2.376 2.325 2.325 0 0 1-1.779.9 2.723 2.723 0 0 1-1.718-.551 5.63 5.63 0 0 1-1.887-3.135zM36.355 100.509a1.735 1.735 0 0 0-.49-.035 1.663 1.663 0 0 0-1.461 1.133c-.082 2.636-.123 4.449-.123 5.387a63.226 63.226 0 0 0 .454 8.006.909.909 0 0 0-.257.642.937.937 0 0 0 .393.734l.3 1.4a.924.924 0 0 0 .925.844 1.789 1.789 0 0 0 1.1-.355 1.057 1.057 0 0 0 .5-.823 2.105 2.105 0 0 0-.014-.246 11.225 11.225 0 0 0 1.7.116 7.6 7.6 0 0 0 2.251-.332c2.5-.769 3.763-2.677 3.763-5.677a10.377 10.377 0 0 0-2.8-6.921 13.341 13.341 0 0 0-6.241-3.873zm.538 2.654a10.382 10.382 0 0 1 4.4 3.541 9.527 9.527 0 0 1 1.674 5.545c0 .241-.024.588-.073 1.043-.042.518-.441.905-1.22 1.185a7.647 7.647 0 0 1-2.625.457 9.144 9.144 0 0 1-1.792-.128 65.149 65.149 0 0 1-.472-8.01c-.001-.669.035-1.891.108-3.633zM56.108 106.68a3.846 3.846 0 0 0 .987-2.339 2.919 2.919 0 0 0-.915-2.059 6.151 6.151 0 0 0-2-1.383 5.42 5.42 0 0 0-2.1-.474 7.714 7.714 0 0 0-3.247.634 2.77 2.77 0 0 0-1.793 2.779l.074 6.215q0 3.212.084 6.553c.182.625.561.757.847.757a1.482 1.482 0 0 0 1.005-.416 1.294 1.294 0 0 0 .469-.979l-.134-4.3a23.4 23.4 0 0 1 3.142 2.485 8.454 8.454 0 0 1 2.041 2.731 1.192 1.192 0 0 0 .954.478 1.359 1.359 0 0 0 .929-.342 1.033 1.033 0 0 0 .4-.774c0-.741-.577-1.723-1.763-3a24.9 24.9 0 0 0-3.68-3.223 12.807 12.807 0 0 0 2.329-1.219 10.051 10.051 0 0 0 2.371-2.124zm-6.686 1.648q0-3.865.022-5.175a6.247 6.247 0 0 1 2.032-.274 4.858 4.858 0 0 1 2.347.538 1.545 1.545 0 0 1 .918 1.417c0 .6-.677 1.353-1.956 2.165a7.965 7.965 0 0 1-3.363 1.329zM67.45 100.647c-2.512 0-4.883-.05-7.086-.147a1.6 1.6 0 0 0-1.556 1.435c0 1.811.032 3.539.1 5.136a1.424 1.424 0 0 0-.269.836.946.946 0 0 0 .348.759l.1 3.509v1.725a17.718 17.718 0 0 1-.1 2.221 1.148 1.148 0 0 0 .294.869 1.337 1.337 0 0 0 .946.272l6.365-.1a1.693 1.693 0 0 0 .9-.539 1.339 1.339 0 0 0 .392-.893c0-.336-.171-.763-1.02-.893l-5.471.07c.034-.42.05-1.019.05-1.822l-.094-4.043c.117-.011.253-.017.4-.017l4.329.066a1.1 1.1 0 0 0 .315-.114 1.283 1.283 0 0 0 .845-1.18c0-.372-.186-.852-1.117-1.029q-3.447 0-4.822-.021c-.052-.764-.08-2.029-.083-3.77 1.286.117 2.06.175 2.364.175h1.6c.431 0 .829-.008 1.2-.026 1.48-.126 2.231-.609 2.231-1.436.004-.367-.189-.844-1.161-1.043zM77.483 103.481a10.516 10.516 0 0 0-1.118-2.3 1.49 1.49 0 0 0-1.216-.632c-.912 0-1.76.747-2.521 2.219a36.871 36.871 0 0 0-2.191 6.685 33.206 33.206 0 0 0-1.315 6.845c0 .352.139.942 1.066.942.847 0 1.1-.354 1.164-.666.674-4.94 1.018-5.742 1.125-5.85a1.369 1.369 0 0 1 .5-.047c.348 0 1.082.066 2.181.195a10.884 10.884 0 0 1 1.83.3 15.929 15.929 0 0 1 .725 3.141c.181.939.3 1.57.371 1.889a1.281 1.281 0 0 0 .486.832 1.451 1.451 0 0 0 .859.252 1.182 1.182 0 0 0 .818-.268.776.776 0 0 0 .31-.564 1.317 1.317 0 0 0-.028-.323 72.434 72.434 0 0 0-3.046-12.65zm-1.224 5.358c-.29 0-.887-.049-1.776-.146-1.192-.13-1.393-.258-1.4-.294a10.283 10.283 0 0 1 .895-2.614 6.032 6.032 0 0 1 1.075-2.031c.089.071.368.427.865 2.2a19.181 19.181 0 0 1 .658 2.652c0 .105 0 .173-.008.217a2.116 2.116 0 0 1-.309.016zM93.457 100.375c-.664 0-1.144.417-1.425 1.239a20.119 20.119 0 0 1-1.267 3 4.947 4.947 0 0 1-.93 1.274 4.607 4.607 0 0 1-1.223.787 4.233 4.233 0 0 1-1.769.337 2.014 2.014 0 0 1-1.679-1.222 8.678 8.678 0 0 1-.856-3.968.981.981 0 0 0-.448-.806 1.49 1.49 0 0 0-.828-.246 1.027 1.027 0 0 0-.85.488 1.6 1.6 0 0 0-.327.948v7.008q0 4.81-.025 7.032c0 .907.56 1.042.893 1.042a1.823 1.823 0 0 0 1.057-.325 1.244 1.244 0 0 0 .5-1.09q-.026-2.268-.025-4.328 0-1.689.033-3a3.715 3.715 0 0 0 2.65 1.071 5.668 5.668 0 0 0 3.212-.963 7.415 7.415 0 0 0 1.881-1.806l.035 1.07q.049 1.426.049 2.781v5.576c0 .884.545 1.017.869 1.017a1.5 1.5 0 0 0 1.155-.371 1.9 1.9 0 0 0 .38-1.174c.034-.5.05-2.3.05-5.506 0-3.163-.042-6.116-.128-8.817-.169-.867-.629-1.048-.984-1.048z" fill="#af8aef" opacity="1" data-original="#efb28a" class=""></path></g></g></svg>