<svg xmlns="http://www.w3.org/2000/svg" version="1.1" xmlns:xlink="http://www.w3.org/1999/xlink" width="512" height="512" x="0" y="0" viewBox="0 0 512 512" style="enable-background:new 0 0 512 512" xml:space="preserve" class=""><g><path d="M512 256.003c0 141.385-114.616 255.996-256.001 255.996C114.616 511.999 0 397.388 0 256.003S114.616.001 255.999.001C397.384.001 512 114.618 512 256.003z" style="" fill="#f9d555" data-original="#f9d555"></path><path d="M247.735 212.147c-5.162 48.81-48.907 84.208-97.723 79.049-48.821-5.148-84.214-48.894-79.057-97.712 5.154-48.819 48.902-84.208 97.709-79.055 48.827 5.146 84.219 48.902 79.071 97.718z" style="" fill="#ffffff" data-original="#ffffff"></path><path d="M231.71 210.452c-3.817 36.086-36.161 62.269-72.261 58.455-36.089-3.814-62.261-36.161-58.455-72.25 3.82-36.103 36.161-62.267 72.253-58.461 36.1 3.817 62.263 36.164 58.463 72.256z" style="" fill="#074785" data-original="#074785"></path><path d="M221.638 181.248c-6.555-10.996-14.871-20.261-26.607-25.767-5.273-2.483-8.527 5.933-3.298 8.397 9.426 4.435 16.416 12.244 21.681 21.074 2.94 4.939 11.206 1.297 8.224-3.704zM181.246 148.579c-1.37-.43-2.729-.904-4.094-1.337-2.347-.738-4.904.144-5.859 2.549-.843 2.169.216 5.112 2.552 5.845 1.378.441 2.727.918 4.097 1.346 2.355.746 4.904-.141 5.859-2.555.846-2.172-.213-5.107-2.555-5.848zM226.578 197.489c-.813-2.327-3.886-3.201-5.97-2.255-2.38 1.076-3.062 3.631-2.261 5.953.003-.056.003-.083.009-.15-.122 2.444 1.462 4.683 4.008 4.957 2.344.238 4.835-1.562 4.963-4.02.078-1.628-.222-2.956-.749-4.485z" style="" fill="#ffffff" data-original="#ffffff"></path><path d="M218.315 201.173c.011.064.02.139.022.214a2.87 2.87 0 0 0 .011-.2c-.419-1.218-.1-.325-.033-.014zM218.337 201.387c-.025.66.028.338 0 0zM218.348 201.203v-.016.016zM441.043 214.438c-5.148 48.805-48.899 84.206-97.715 79.055-48.807-5.157-84.206-48.899-79.058-97.723 5.16-48.813 48.899-84.203 97.715-79.055 48.833 5.159 84.212 48.902 79.058 97.723z" style="" fill="#ffffff" data-original="#ffffff"></path><path d="M412.155 213.043c-3.806 36.1-36.15 62.269-72.25 58.463-36.1-3.811-62.267-36.161-58.458-72.261 3.811-36.092 36.161-62.269 72.261-58.452 36.092 3.808 62.261 36.158 58.447 72.25z" style="" fill="#074785" data-original="#074785"></path><path d="M402.091 183.836c-6.549-10.988-14.877-20.253-26.597-25.759-5.287-2.48-8.544 5.939-3.307 8.4 9.429 4.422 16.416 12.238 21.681 21.071 2.939 4.94 11.199 1.295 8.223-3.712zM361.7 151.175c-1.376-.433-2.727-.907-4.097-1.34-2.347-.738-4.91.147-5.847 2.552-.849 2.172.211 5.104 2.547 5.845 1.376.438 2.729.913 4.094 1.34 2.341.738 4.912-.141 5.853-2.547.848-2.171-.206-5.112-2.55-5.85zM407.029 200.086c-.81-2.322-3.878-3.21-5.967-2.258-2.383 1.076-3.06 3.636-2.261 5.95.003-.047.005-.083.005-.164-.116 2.463 1.459 4.702 4.014 4.971 2.338.247 4.841-1.553 4.963-4.011.078-1.626-.222-2.963-.754-4.488z" style="" fill="#ffffff" data-original="#ffffff"></path><path d="M398.768 203.764c.017.066.017.139.025.219.003-.059 0-.133.011-.197-.422-1.22-.108-.324-.036-.022zM398.793 203.983c-.022.669.028.333 0 0z" style="" fill="#ffffff" data-original="#ffffff"></path><path d="M398.807 203.8c0-.011 0-.014-.005-.022l.003.008c-.001 0 .002.003.002.014z" style="" fill="#ffffff" data-original="#ffffff"></path><path d="M393.511 138.268c-1.792-.089-3.52-.61-5.143-1.553-14.963-8.721-30.427-13.764-47.276-15.42-1.692-.172-3.246-.668-4.605-1.476-4.566-2.699-6.369-8.558-4.502-14.585 2.15-6.918 7.82-11.365 14.105-11.065.205.008.416.025.621.044 19.146 1.884 37.725 8.011 55.229 18.211 6.083 3.598 7.648 11.298 3.698 18.291-2.748 4.888-7.397 7.781-12.127 7.553zM104.098 139.883c1.792-.086 3.52-.61 5.143-1.55 14.963-8.724 30.427-13.767 47.274-15.426 1.695-.169 3.246-.666 4.605-1.473 4.569-2.699 6.374-8.56 4.505-14.585-2.147-6.918-7.817-11.368-14.105-11.068a11.55 11.55 0 0 0-.621.047c-19.149 1.884-37.729 8.014-55.232 18.211-6.08 3.598-7.645 11.298-3.695 18.292 2.747 4.886 7.396 7.779 12.126 7.552z" style="" fill="#074785" data-original="#074785"></path><path d="M114.345 290.391c2.041.885 4.253 1.248 6.569 1.085 21.415-1.54 41.384 1.29 61.04 8.641 1.978.732 3.975 1.026 5.931.874 6.555-.513 11.764-6.047 12.974-13.775 1.387-8.874-2.497-16.921-9.659-20.017a10.094 10.094 0 0 0-.716-.288c-22.342-8.358-46.364-11.681-71.412-9.889-8.738.691-14.68 8.408-14.103 18.344.391 6.942 3.989 12.695 9.376 15.025zM393.619 294.893c-2.042.885-4.252 1.246-6.569 1.082-21.42-1.537-41.387 1.293-61.043 8.646-1.978.73-3.975 1.027-5.931.871-6.552-.513-11.764-6.047-12.971-13.775-1.39-8.877 2.494-16.921 9.656-20.02.236-.103.477-.2.719-.288 22.338-8.353 46.363-11.678 71.412-9.884 8.732.691 14.68 8.402 14.103 18.344-.393 6.941-3.989 12.697-9.376 15.024z" style="" fill="#29aefd" data-original="#29aefd"></path><path d="M273.264 23.292c-41.207-11.296-87.044-1.132-123.158 20.513-13.326 7.986-1.204 28.846 12.172 20.829 30.788-18.452 69.668-27.648 104.572-18.083 15.03 4.119 21.398-19.157 6.414-23.259zM309.619 39.261c-15.556 0-15.556 24.128 0 24.128s15.556-24.128 0-24.128zM120.492 62.423c-15.556 0-15.556 24.125 0 24.125s15.556-24.125 0-24.125zM359.525 455.125c-3.165-5.404-11.037-7.994-16.502-4.324-25.709 17.257-61.764 22.472-91.06 15.509-15.126-3.592-21.545 19.67-6.413 23.262 35.859 8.516 78.758 2.793 109.648-17.942 5.447-3.656 7.803-10.564 4.327-16.505zM380.632 427.923c-15.556 0-15.556 24.125 0 24.125s15.556-24.125 0-24.125zM207.585 454.298c-15.556 0-15.556 24.125 0 24.125 15.559 0 15.559-24.125 0-24.125z" style="" fill="#ffffff" data-original="#ffffff"></path><path d="M490.707 244.125c-.033-15.556-24.155-15.559-24.122 0 .039 19.675 1.814 40.311-7.04 58.563-2.868 5.917-1.664 12.993 4.328 16.502 5.34 3.132 13.637 1.587 16.505-4.327 10.954-22.588 10.379-46.256 10.329-70.738z" style="" fill="#f1854f" data-original="#f1854f"></path><path d="M60.841 292.902c-1.004-1.057-3.013-15.92-4.838-15.803-1.831.122-3.42 14.863-4.277 15.836-1.712 1.942-14.25 3.32-14.147 5.215.105 1.881 12.416 2.771 14.155 4.613.971 1.024 3.01 15.928 4.838 15.809 1.828-.116 3.39-14.813 4.28-15.817 1.653-1.884 14.286-3.334 14.183-5.226-.102-1.898-12.522-2.846-14.194-4.627zM446.074 357.693c-1.004-1.057-3.012-15.92-4.838-15.8-1.831.122-3.42 14.86-4.275 15.831-1.711 1.947-14.252 3.323-14.15 5.215.105 1.886 12.416 2.774 14.155 4.616.971 1.024 3.012 15.928 4.838 15.809 1.828-.114 3.39-14.813 4.278-15.814 1.656-1.884 14.288-3.337 14.189-5.232-.105-1.893-12.524-2.844-14.197-4.625z" style="" fill="#074785" data-original="#074785"></path><path d="M278.573 398.877c-1.004-1.06-3.013-15.92-4.838-15.798-1.828.119-3.423 14.857-4.272 15.828-1.715 1.947-14.253 3.323-14.15 5.215.103 1.884 12.413 2.774 14.153 4.613.971 1.029 3.013 15.928 4.835 15.814 1.834-.122 3.39-14.816 4.28-15.82 1.656-1.884 14.289-3.334 14.189-5.229-.103-1.893-12.522-2.842-14.197-4.623zM278.573 90.834c-1.004-1.063-3.013-15.923-4.838-15.8-1.828.122-3.423 14.854-4.272 15.828-1.715 1.947-14.253 3.323-14.15 5.215.103 1.886 12.413 2.777 14.153 4.613.971 1.026 3.013 15.931 4.835 15.814 1.834-.119 3.39-14.816 4.28-15.82 1.656-1.883 14.289-3.331 14.189-5.229-.103-1.894-12.522-2.843-14.197-4.621z" style="" fill="#ffffff" data-original="#ffffff"></path><path d="M221.973 344.184c-2.574 0-5.071-1.032-6.843-2.816-1.772-1.784-2.738-4.18-2.724-6.752.158-24.718 11.598-51.323 36.353-51.323.721 0 1.453.025 2.186.069 8.336.53 19.723 4.555 26.63 20.707 3.917 9.162 5.409 19.554 6.43 29.42.28 2.696-.533 5.257-2.297 7.21-1.764 1.959-4.327 3.076-7.04 3.076-5.037 0-9.221-3.739-9.734-8.702-1.564-15.054-4.641-32.363-14.638-32.574h-.372c-17.953 0-18.353 30.899-18.364 32.214-.033 5.31-4.244 9.471-9.587 9.471z" style="" fill="#074785" data-original="#074785"></path><path d="M180.118 395.746c0 33.126-21.523 37.945-35.648 37.945-14.119 0-35.648-4.818-35.648-37.945 0-33.121 35.648-82.009 35.648-82.009s35.648 48.888 35.648 82.009zM391.309 375.318c0 24.877-16.164 28.494-26.771 28.494-10.602 0-26.766-3.617-26.766-28.494 0-24.874 26.766-61.582 26.766-61.582s26.771 36.708 26.771 61.582z" style="" fill="#29aefd" data-original="#29aefd"></path><path d="M146.861 426.262c-5.26-.053-12.938-.627-18.88-5.015-4.583-3.382-8.058-7.975-11.268-14.888-.635-1.362-.538-2.86.261-4.114.818-1.282 2.23-2.075 3.689-2.075 1.531 0 2.849.866 3.523 2.319 2.219 4.766 4.841 9.534 8.982 12.108 3.512 2.18 7.751 3.179 13.74 3.237 2.366.025 4.141 1.856 4.128 4.253-.011 2.383-1.786 4.175-4.125 4.175h-.05zM159.526 426.645c-2.366 0-4.15-1.811-4.15-4.214a4.3 4.3 0 0 1 1.018-2.813c.777-.904 1.889-1.404 3.132-1.404 2.369 0 4.153 1.811 4.153 4.216 0 1.051-.361 2.05-1.018 2.816-.777.902-1.889 1.399-3.135 1.399zM117.257 396.126c-2.364 0-4.153-1.811-4.153-4.214 0-1.051.363-2.05 1.021-2.816.774-.904 1.889-1.398 3.132-1.398 2.369 0 4.15 1.809 4.15 4.214 0 1.049-.36 2.05-1.015 2.813-.777.904-1.889 1.401-3.135 1.401zM366.063 397.549c-3.906-.042-9.609-.472-14.02-3.728-3.406-2.513-5.986-5.925-8.372-11.057a3.132 3.132 0 0 1 .194-3.06c.608-.949 1.659-1.54 2.741-1.54 1.137 0 2.116.646 2.618 1.722 1.645 3.542 3.592 7.082 6.669 8.993 2.608 1.62 5.759 2.361 10.205 2.405 1.756.019 3.076 1.376 3.065 3.162-.009 1.767-1.326 3.101-3.063 3.101h-.037zM375.472 397.832c-1.759 0-3.085-1.348-3.085-3.132 0-.782.272-1.523.757-2.092.577-.668 1.404-1.04 2.327-1.04 1.759 0 3.085 1.346 3.085 3.132 0 .782-.269 1.523-.76 2.089-.573.674-1.397 1.043-2.324 1.043zM344.08 375.16c-1.761 0-3.087-1.346-3.087-3.129 0-.782.272-1.523.76-2.091.574-.671 1.401-1.038 2.327-1.038 1.756 0 3.082 1.346 3.082 3.129 0 .779-.269 1.523-.754 2.091-.578.669-1.408 1.038-2.328 1.038z" style="" fill="#ffffff" data-original="#ffffff"></path></g></svg>