<svg xmlns="http://www.w3.org/2000/svg" version="1.1" xmlns:xlink="http://www.w3.org/1999/xlink" width="512" height="512" x="0" y="0" viewBox="0 0 512 496.9" style="enable-background:new 0 0 512 512" xml:space="preserve" class=""><g><path fill="#ffffff" d="M204.6 434.9c-8.9 8.4-28.6 28.7-31.8 32-5.5 5.6-13.5 7.2-20.4 4.7-2.6-.9-5-2.4-7-4.4-7.7-7.5-7.8-19.8-.3-27.5 3.2-3.2 22.5-23.2 32.1-32.3" opacity="1" data-original="#ffffff" class=""></path><path fill="#b3b3b3" d="M158.9 475.5c-2.5 0-5-.4-7.4-1.3-3-1.1-5.7-2.8-8-5-4.2-4.1-6.6-9.7-6.6-15.6-.1-5.9 2.2-11.5 6.3-15.7l2.4-2.5c6.5-6.6 21.6-22.2 29.8-29.9 1.1-1 2.8-1 3.8.1s1 2.8-.1 3.8c-8.1 7.7-23.2 23.1-29.6 29.7l-2.4 2.5c-3.1 3.2-4.8 7.4-4.8 11.9s1.8 8.6 5 11.8c1.7 1.7 3.8 3 6.1 3.8 6.1 2.2 13 .6 17.6-4l2.3-2.3c6.6-6.7 21.9-22.5 29.6-29.8 1.1-1 2.8-1 3.8.1s1 2.8-.1 3.8c-7.6 7.2-22.9 22.9-29.4 29.6l-2.3 2.3c-4.4 4.3-10.1 6.7-16 6.7z" opacity="1" data-original="#b3b3b3"></path><path fill="#ffffff" d="M335.9 407.5c9.6 9 28.9 29.1 32.1 32.3 7.5 7.7 7.4 20-.3 27.5-2.1 2-4.5 3.5-7 4.4-6.9 2.5-14.9.9-20.4-4.7-3.2-3.3-22.9-23.6-31.8-32" opacity="1" data-original="#ffffff" class=""></path><path fill="#b3b3b3" d="M354.1 475.5c-5.9 0-11.6-2.3-15.8-6.6l-2.3-2.4c-6.5-6.7-21.8-22.4-29.4-29.6-1.1-1-1.1-2.8-.1-3.8 1-1.1 2.8-1.1 3.8-.1 7.7 7.3 23 23 29.6 29.7l2.3 2.4c4.5 4.6 11.4 6.2 17.6 4 2.3-.8 4.3-2.1 6.1-3.8 6.6-6.4 6.7-17 .2-23.6l-2.4-2.5c-6.4-6.6-21.5-22.1-29.6-29.7-1.1-1-1.1-2.8-.1-3.8 1-1.1 2.8-1.1 3.8-.1 8.2 7.7 23.3 23.3 29.8 29.9l2.4 2.5c8.6 8.7 8.4 22.8-.3 31.3-2.3 2.3-5 4-8 5-2.6.7-5.1 1.2-7.6 1.2z" opacity="1" data-original="#b3b3b3"></path><path fill="#ffffff" d="M189.6 457.9h134.6c9.3-4.4 25.4-18.4 29.3-30 0-16.3 1.4-27.7 0-43.4-2.4-26.5-9-47.5-27.6-69.4-15.3-18-30.2-39.1-34.3-65.3h-70c-4 26.2-19 47.2-34.3 65.3-18.7 21.9-25.3 42.9-27.7 69.4-1.4 15.7 0 26.6 0 43.4 4 11.9 20.4 25.8 30 30z" opacity="1" data-original="#ffffff" class=""></path><path fill="#b3b3b3" d="M324.1 460.6H189.6c-.4 0-.7-.1-1.1-.2-9.9-4.3-27.1-18.8-31.4-31.6-.1-.3-.1-.6-.1-.9 0-5.8-.2-10.9-.3-15.9-.3-9-.6-17.4.3-27.8 2.7-29.9 10.8-50.4 28.2-70.9 14.4-17 29.6-37.8 33.7-63.9.2-1.3 1.3-2.3 2.7-2.3h70c1.3 0 2.5 1 2.7 2.3 4 26.1 19.3 46.9 33.7 63.9 17.4 20.5 25.6 41.1 28.2 70.9.9 10.4.6 19.1.3 28.2-.2 4.9-.3 9.9-.3 15.5 0 .3 0 .6-.1.9-4.2 12.5-20.7 26.8-30.7 31.6-.5.1-.9.2-1.3.2zm-133.9-5.4h133.3c8.7-4.4 23.4-17.2 27.2-27.7 0-5.5.2-10.4.3-15.2.3-9 .6-17.4-.3-27.5-2.5-28.6-10.4-48.3-27-67.9-14.5-17-29.8-38-34.5-64.3h-65.4c-4.7 26.3-20.1 47.2-34.5 64.3-16.6 19.6-24.4 39.3-27 67.9-.9 10.1-.6 18-.3 27.2.2 4.8.3 9.8.3 15.6 4 10.8 19.1 23.5 27.9 27.6z" opacity="1" data-original="#b3b3b3"></path><circle cx="256.5" cy="384.9" r="44" fill="#ffffff" opacity="1" data-original="#ffffff" class=""></circle><path fill="#b3b3b3" d="M256.5 431.6c-25.7 0-46.7-20.9-46.7-46.7s20.9-46.7 46.7-46.7 46.7 20.9 46.7 46.7-20.9 46.7-46.7 46.7zm0-87.9c-22.7 0-41.2 18.5-41.2 41.2s18.5 41.2 41.2 41.2 41.2-18.5 41.2-41.2-18.4-41.2-41.2-41.2z" opacity="1" data-original="#b3b3b3"></path><path fill="#ffffff" d="M236.3 483.5c-.6-7.4-4.6-6.7-4.9-11.4l-8.6-84.7-11.3.2-16.2-.2-8.6 84.7c-.3 4.6-4.3 3.9-4.9 11.4-.3 3.6 1.1 5.5 5.8 7.2 6.1 2.2 17.6 1.8 21.5-2.1v-.1.1c3.8 3.9 15.3 4.3 21.5 2.1 4.6-1.6 6-3.5 5.7-7.2z" opacity="1" data-original="#ffffff" class=""></path><path fill="#b3b3b3" d="M221.4 494.8c-4.5 0-9.2-.8-12.4-2.7-5.9 3.5-16.7 3.3-22.4 1.3-4.1-1.5-8.2-3.8-7.6-10 .4-5 2.3-7.1 3.6-8.7.9-1 1.2-1.5 1.3-2.6l8.6-84.8c.1-1.4 1.4-2.5 2.7-2.4l16.2.2 11.2-.2c1.4 0 2.6 1 2.8 2.4L234 472c.1 1.2.5 1.7 1.3 2.7 1.3 1.6 3.1 3.7 3.6 8.7.5 6.2-3.6 8.6-7.6 10-2.5.9-6.2 1.4-9.9 1.4zm-10.2-7.8c3 2.6 12.7 3.2 18.4 1.2 4.3-1.5 4.2-2.7 4-4.4-.3-3.3-1.2-4.4-2.3-5.6-1.1-1.3-2.4-2.8-2.6-5.8l-8.4-82.2-8.8.2-13.8-.2-8.4 82.3c-.2 2.9-1.5 4.4-2.6 5.7s-2 2.4-2.3 5.6c-.2 1.8-.3 2.9 4 4.4 5.7 2 15.6 1.3 18.5-1.3.5-.6 1.3-1 2.1-1 .9 0 1.7.4 2.2 1.1z" opacity="1" data-original="#b3b3b3"></path><path fill="#b3b3b3" d="M186.6 474.9c-1.5 0-2.7-1.2-2.7-2.7s1.2-2.7 2.7-2.7c1.5 0 2.7 1.2 2.7 2.7s-1.2 2.7-2.7 2.7z" opacity="1" data-original="#b3b3b3"></path><path fill="#cccccc" d="M209 482.6c-8.6-9.6-22.4-10.4-22.4-10.4-3.2 2.6-4.9 6.6-4.9 11.4 0 3.6 1.1 8.2 5.8 9.9 6.2 2.2 17.6-.9 21.5-4.8z" opacity="1" data-original="#cccccc"></path><path fill="#b3b3b3" d="M231.4 474.9c-1.5 0-2.7-1.2-2.7-2.7s1.2-2.7 2.7-2.7c1.5 0 2.7 1.2 2.7 2.7s-1.2 2.7-2.7 2.7z" opacity="1" data-original="#b3b3b3"></path><path fill="#cccccc" d="M209 482.6c9.2-9.3 22.4-10.4 22.4-10.4 3.2 2.6 4.9 6.6 4.9 11.4 0 3.6-1.1 8.2-5.8 9.9-6.2 2.2-17.6-.9-21.5-4.8z" opacity="1" data-original="#cccccc"></path><path fill="#ffffff" d="M331.4 483.5c-.6-7.4-4.6-6.7-4.9-11.4l-8.6-84.7-11.3.2-16.2-.2-8.6 84.7c-.3 4.6-4.3 3.9-4.9 11.4-.3 3.6 1.1 5.5 5.8 7.2 6.1 2.2 17.6 1.8 21.5-2.1v-.1.1c3.8 3.9 15.3 4.3 21.5 2.1 4.6-1.6 6-3.5 5.7-7.2z" opacity="1" data-original="#ffffff" class=""></path><path fill="#b3b3b3" d="M291.7 494.8c-3.8 0-7.4-.6-10-1.5-4.1-1.5-8.2-3.8-7.6-10 .4-5 2.3-7.1 3.6-8.7.9-1 1.2-1.5 1.3-2.6l8.6-84.8c.1-1.4 1.4-2.5 2.7-2.4l16.2.2 11.2-.2c1.4 0 2.6 1 2.8 2.4l8.6 84.7c.1 1.2.5 1.7 1.3 2.7 1.3 1.6 3.1 3.7 3.6 8.7.5 6.2-3.6 8.6-7.6 10-5.7 2-16.5 2.3-22.4-1.3-3.1 2-7.8 2.8-12.3 2.8zm1.1-104.6-8.4 82.3c-.2 2.9-1.5 4.4-2.6 5.7s-2 2.4-2.3 5.6c-.2 1.7-.3 2.9 4 4.4 5.7 2 15.6 1.3 18.5-1.3.5-.6 1.2-1.1 2.1-1 .9 0 1.6.4 2.1 1.1 3 2.6 12.7 3.2 18.4 1.2 4.3-1.5 4.2-2.7 4-4.4-.3-3.3-1.2-4.4-2.3-5.6-1.1-1.3-2.4-2.8-2.6-5.8l-8.4-82.2-8.8.2z" opacity="1" data-original="#b3b3b3"></path><path fill="#b3b3b3" d="M281.7 474.9c-1.5 0-2.7-1.2-2.7-2.7s1.2-2.7 2.7-2.7c1.5 0 2.7 1.2 2.7 2.7s-1.2 2.7-2.7 2.7z" opacity="1" data-original="#b3b3b3"></path><path fill="#cccccc" d="M304.1 482.6c-10.4-10.2-22.4-10.4-22.4-10.4-3.2 2.6-4.9 6.6-4.9 11.4 0 3.6 1.1 8.2 5.8 9.9 6.2 2.2 17.6-.9 21.5-4.8z" opacity="1" data-original="#cccccc"></path><path fill="#b3b3b3" d="M326.5 474.9c-1.5 0-2.7-1.2-2.7-2.7s1.2-2.7 2.7-2.7c1.5 0 2.7 1.2 2.7 2.7s-1.2 2.7-2.7 2.7z" opacity="1" data-original="#b3b3b3"></path><path fill="#cccccc" d="M304.1 482.6c10.6-10.2 22.4-10.4 22.4-10.4 3.2 2.6 4.9 6.6 4.9 11.4 0 3.6-1.1 8.2-5.8 9.9-6.2 2.2-17.6-.9-21.5-4.8z" opacity="1" data-original="#cccccc"></path><ellipse cx="156.1" cy="61.8" fill="#fee370" rx="22.9" ry="63.2" transform="rotate(-22.48 156.04 61.692)" opacity="1" data-original="#fee370"></ellipse><path fill="#ad9b4c" d="M176.9 123.6c-13.3 0-31.6-20.9-44.4-52-14.4-34.7-15.1-65.2-1.6-70.7 13.5-5.6 34.5 16.4 48.9 51.1 14.4 34.7 15.1 65.2 1.6 70.7-1.4.6-2.9.9-4.5.9zM135.3 5.4c-.9 0-1.7.1-2.4.4-8.8 3.6-9.1 30.7 4.5 63.6 13.7 33 33 51.9 41.8 48.2 8.8-3.6 9.1-30.7-4.5-63.6-12.5-30.1-29.8-48.6-39.4-48.6z" opacity="1" data-original="#ad9b4c"></path><ellipse cx="355.9" cy="61.8" fill="#fee370" rx="63.2" ry="22.9" transform="rotate(-67.48 355.916 61.707)" opacity="1" data-original="#fee370"></ellipse><path fill="#ad9b4c" d="M335.1 123.6c-1.6 0-3-.3-4.4-.9-13.5-5.6-12.8-36 1.6-70.7S367.7-4.7 381.2.9s12.8 36-1.6 70.7c-13 31.1-31.2 52-44.5 52zM376.7 5.4c-9.6 0-26.9 18.4-39.4 48.7-13.6 33-13.3 60-4.5 63.6 8.8 3.7 28.1-15.3 41.8-48.2 13.6-33 13.3-60 4.5-63.6-.8-.3-1.6-.5-2.4-.5z" opacity="1" data-original="#ad9b4c"></path><path fill="#ffffff" d="M91.6 172.9H64.2c-33.9 0-61.5-27.5-61.5-61.5v-8.6c0-5.6 4.5-10.2 10.2-10.2h105.6c5.6 0 10.2 4.5 10.2 10.2v33.1c-.1 20.4-16.7 37-37.1 37z" opacity="1" data-original="#ffffff" class=""></path><path fill="#b3b3b3" d="M65.7 175.6C29.5 175.6 0 146.1 0 109.9c0-11 9-20 20-20h91.3c11 0 20 9 20 20 0 36.2-29.4 65.7-65.6 65.7zM20 95.4c-8 0-14.6 6.5-14.6 14.6 0 33.2 27 60.2 60.2 60.2s60.2-27 60.2-60.2c0-8-6.5-14.6-14.6-14.6z" opacity="1" data-original="#b3b3b3"></path><path fill="#ffffff" d="M420.4 172.9h26.5c34.5 0 62.4-27.9 62.4-62.4v-7.6c0-5.6-4.5-10.2-10.2-10.2H393.5c-5.6 0-10.2 4.5-10.2 10.2V136c.1 20.3 16.7 36.9 37.1 36.9z" opacity="1" data-original="#ffffff" class=""></path><path fill="#b3b3b3" d="M446.3 175.6c-36.2 0-65.7-29.5-65.7-65.7 0-11 9-20 20-20H492c11 0 20 9 20 20 0 36.2-29.5 65.7-65.7 65.7zm-45.6-80.2c-8 0-14.6 6.5-14.6 14.6 0 33.2 27 60.2 60.2 60.2s60.2-27 60.2-60.2c0-8-6.5-14.6-14.6-14.6z" opacity="1" data-original="#b3b3b3"></path><path fill="#ffffff" d="M64.5 261.9v-33c0-105.8 85.7-191.5 191.5-191.5s191.5 85.7 191.5 191.5v33c10.7 13.6 17.1 30.8 17.1 49.5 0 44.3-35.9 80.3-80.3 80.3H127.7c-44.3 0-80.3-35.9-80.3-80.3 0-18.7 6.4-35.8 17.1-49.5z" opacity="1" data-original="#ffffff" class=""></path><path d="M447.5 261.9v-33c0-105.8-85.7-191.5-191.5-191.5v33c0 105.8 85.7 191.5 191.5 191.5z" fill="#000000" opacity="1" data-original="#000000"></path><path fill="#b3b3b3" d="M384.3 394.4H127.7c-45.8 0-83-37.2-83-83 0-18.4 5.9-35.9 17.1-50.5v-32.1c0-107.1 87.1-194.2 194.2-194.2s194.2 87.1 194.2 194.2V261c11.2 14.6 17.1 32 17.1 50.5 0 45.7-37.2 82.9-83 82.9zM256 40.1c-104.1 0-188.8 84.7-188.8 188.8v33c0 .6-.2 1.2-.6 1.7-10.8 13.8-16.5 30.3-16.5 47.8 0 42.8 34.8 77.6 77.6 77.6h256.6c42.8 0 77.6-34.8 77.6-77.6 0-17.5-5.7-34.1-16.5-47.8-.4-.5-.6-1.1-.6-1.7v-33c0-104.1-84.7-188.8-188.8-188.8z" opacity="1" data-original="#b3b3b3"></path><circle cx="98.5" cy="313.6" r="40.8" fill="#ffe0e0" opacity="1" data-original="#ffe0e0" class=""></circle><ellipse cx="98.5" cy="283.2" fill="#ffffff" rx="10" ry="5.1" opacity="1" data-original="#ffffff" class=""></ellipse><circle cx="413.5" cy="313.6" r="40.8" fill="#ffe0e0" opacity="1" data-original="#ffe0e0" class=""></circle><ellipse cx="413.5" cy="283.2" fill="#ffffff" rx="10" ry="5.1" opacity="1" data-original="#ffffff" class=""></ellipse><ellipse cx="256" cy="311.6" fill="#ffe0e0" rx="91.8" ry="71.2" opacity="1" data-original="#ffe0e0" class=""></ellipse><circle cx="227.5" cy="268" r="10.2" fill="#a88888" opacity="1" data-original="#a88888"></circle><path fill="#6e5959" d="M227.5 280.9c-7.1 0-12.9-5.8-12.9-12.9s5.8-12.9 12.9-12.9 12.9 5.8 12.9 12.9c-.1 7.1-5.8 12.9-12.9 12.9zm0-20.3c-4.1 0-7.4 3.3-7.4 7.4s3.3 7.4 7.4 7.4 7.4-3.3 7.4-7.4-3.3-7.4-7.4-7.4z" opacity="1" data-original="#6e5959"></path><circle cx="284.5" cy="268" r="10.2" fill="#a88888" opacity="1" data-original="#a88888"></circle><path fill="#6e5959" d="M284.5 280.9c-7.1 0-12.9-5.8-12.9-12.9s5.8-12.9 12.9-12.9 12.9 5.8 12.9 12.9-5.8 12.9-12.9 12.9zm0-20.3c-4.1 0-7.4 3.3-7.4 7.4s3.3 7.4 7.4 7.4 7.4-3.3 7.4-7.4c.1-4.1-3.3-7.4-7.4-7.4z" opacity="1" data-original="#6e5959"></path><path d="M267.4 321.2c-.4 0-.7-.1-1.1-.2-2.5-1.1-6.1-1.7-9.9-1.7s-7.4.6-9.9 1.7c-1.4.6-3 0-3.6-1.4s0-3 1.4-3.6c3.2-1.4 7.5-2.1 12.1-2.1s8.9.8 12.1 2.1c1.4.6 2 2.2 1.4 3.6-.5 1-1.5 1.6-2.5 1.6zM117.2 250.8c0 17.8 14.4 32.3 32.2 32.3s32.3-14.4 32.3-32.3c0-17.8-14.5-32.3-32.3-32.3-17.8.1-32.3 14.5-32.2 32.3z" fill="#000000" opacity="1" data-original="#000000"></path><circle cx="149.4" cy="250.8" r="23.9" fill="#000000" opacity="1" data-original="#000000"></circle><circle cx="149.4" cy="232.6" r="3.6" fill="#ffffff" opacity="1" data-original="#ffffff" class=""></circle><path d="M331 250.8c0 17.8 14.4 32.3 32.2 32.3s32.3-14.4 32.3-32.3c0-17.8-14.5-32.3-32.3-32.3-17.8.1-32.2 14.5-32.2 32.3z" fill="#000000" opacity="1" data-original="#000000"></path><circle cx="363.3" cy="250.8" r="23.9" fill="#000000" opacity="1" data-original="#000000"></circle><g fill="#fff"><path d="M162.3 239.4c-.8 5.5-5.3 10-10.8 10.9-8.9 1.4-16.6-6.2-15.1-15.2.9-5.5 5.5-10 11-10.8 8.9-1.2 16.3 6.3 14.9 15.1zM138.7 262.3c1.1 4.8-3.1 9.1-7.9 8-2.3-.5-4.2-2.4-4.8-4.7-1.3-5 3.1-9.4 8-8.1 2.3.7 4.1 2.5 4.7 4.8zM172.4 262.3c1.1 4.8-3.1 9.1-7.9 8-2.3-.5-4.2-2.4-4.8-4.6-1.3-5 3.1-9.4 8-8.1 2.3.6 4.2 2.5 4.7 4.7z" fill="#ffffff" opacity="1" data-original="#ffffff" class=""></path></g><path fill="#ffffff" d="M205.9 180.8c1.1.1 2.1-.2 3.2-.6 6.8-2.3 12.6-7.5 15.7-14" opacity="1" data-original="#ffffff" class=""></path><path fill="#b3b3b3" d="M206.1 183.6h-.4c-1.5-.1-2.6-1.4-2.6-2.9.1-1.5 1.4-2.6 2.9-2.6.6 0 1.4-.2 2.1-.4 6.1-2.1 11.4-6.8 14.1-12.6.6-1.4 2.3-1.9 3.6-1.3 1.4.6 1.9 2.3 1.3 3.6-3.4 7.2-9.7 12.8-17.3 15.4-1 .4-2.2.8-3.7.8z" opacity="1" data-original="#b3b3b3"></path><path fill="#ffffff" d="M203.1 179.4c.6.9 1.7 1.4 2.8 1.4" opacity="1" data-original="#ffffff" class=""></path><path fill="#b3b3b3" d="M205.9 183.6h-.1c-2-.1-3.9-1.1-4.9-2.6-.8-1.2-.5-2.9.7-3.8 1.2-.8 2.9-.5 3.8.7 0 .1.3.2.7.2 1.5.1 2.6 1.4 2.6 2.9-.2 1.4-1.4 2.6-2.8 2.6zM309.6 183.6c-1.4 0-2.7-.4-3.8-.7-7.5-2.6-13.8-8.2-17.3-15.4-.6-1.4-.1-3 1.3-3.6s3-.1 3.6 1.3c2.8 5.8 8.1 10.5 14.1 12.6.7.2 1.5.5 2.1.4.4 0 .6-.2.7-.2.8-1.2 2.5-1.6 3.8-.7 1.2.8 1.6 2.5.7 3.8-1 1.5-2.9 2.5-4.9 2.6 0-.1-.2-.1-.3-.1zM257.9 183.7c-1.5 0-2.7-1.2-2.7-2.7v-14.6c0-1.5 1.2-2.7 2.7-2.7s2.7 1.2 2.7 2.7V181c0 1.5-1.2 2.7-2.7 2.7z" opacity="1" data-original="#b3b3b3"></path><g fill="#fff"><path d="M376.5 239.3c-.8 5.5-5.3 10-10.8 10.9-8.9 1.4-16.6-6.2-15.1-15.2.9-5.5 5.5-10 11-10.8 8.8-1.2 16.2 6.3 14.9 15.1zM352.8 262.2c1.1 4.8-3.1 9.1-7.9 8-2.3-.5-4.2-2.4-4.8-4.7-1.3-5 3.1-9.4 8-8.1 2.3.7 4.2 2.6 4.7 4.8zM386.5 262.3c1.1 4.8-3.1 9.1-7.9 8-2.3-.5-4.2-2.4-4.8-4.6-1.3-5 3.1-9.4 8-8.1 2.4.5 4.2 2.4 4.7 4.7z" fill="#ffffff" opacity="1" data-original="#ffffff" class=""></path></g><path fill="#ace0f150" d="M403.3 465.5c-.5-8.2-.7-19.5-1.9-27.4-4-25.4-14.7-28.9-19.3-49.2-2.1-9.3-2-19.7-1.9-29.8.1-13.7.5-23-1-36.4s-5.1-30.8-10.4-40h-10.2c-5.3 9.2-8.9 26.7-10.4 40-1.5 13.4-1.1 22.7-1 36.4.1 10.1.2 20.6-1.9 29.8-4.6 20.3-15.3 23.8-19.3 49.2-1.2 7.9-1.4 19.2-1.9 27.4-.7 12.4-5.1 23.8-11.1 28.8h101.6c-6.2-5-10.6-16.4-11.3-28.8zM189.1 465.6c-.5-8.2-.7-19.5-1.9-27.4-4-25.4-14.7-28.9-19.3-49.2-2.1-9.3-2-19.7-1.9-29.8.1-13.7.5-23-1-36.4s-5.1-30.8-10.4-40h-10.2c-5.3 9.2-8.9 26.7-10.4 40-1.5 13.4-1.1 22.7-1 36.4.1 10.1.2 20.6-1.9 29.8-4.6 20.3-15.3 23.8-19.3 49.2-1.2 7.9-1.4 19.2-1.9 27.4-.7 12.4-5.1 23.8-11.1 28.8h101.6c-6.1-5-10.6-16.4-11.3-28.8z" opacity="1" data-original="#ace0f150" class=""></path></g></svg>