<svg xmlns="http://www.w3.org/2000/svg" version="1.1" xmlns:xlink="http://www.w3.org/1999/xlink" width="512" height="512" x="0" y="0" viewBox="0 0 512 509.7" style="enable-background:new 0 0 512 512" xml:space="preserve" class=""><g><radialGradient id="a" cx="256.898" cy="199.783" r="131.366" gradientUnits="userSpaceOnUse"><stop offset=".377" stop-color="#ff71a7" stop-opacity=".381"></stop><stop offset=".468" stop-color="#ff76aa" stop-opacity=".326"></stop><stop offset=".575" stop-color="#ff85b3" stop-opacity=".26"></stop><stop offset=".692" stop-color="#ff9dc2" stop-opacity=".188"></stop><stop offset=".815" stop-color="#ffbed7" stop-opacity=".113"></stop><stop offset=".942" stop-color="#ffe9f1" stop-opacity=".035"></stop><stop offset="1" stop-color="#fff" stop-opacity="0"></stop></radialGradient><path fill="#ffffff" d="M80.7 388.2c8.3 8.3 8.3 21.7 0 30s-21.7 8.3-30 0c-2.2-2.2-3.8-4.8-4.8-7.5-.5.6-1 1.2-1.6 1.8-8.3 8.3-21.7 8.3-30 0s-8.3-21.7 0-30c.6-.6 1.2-1.1 1.8-1.6-2.7-1-5.3-2.6-7.5-4.8-8.3-8.3-8.3-21.7 0-30s21.7-8.3 30 0" opacity="1" data-original="#ffffff" class=""></path><path fill="#ffffff" d="m62.9 386.6 24.2-38.4-8.9-8.9-38 24.7M431.3 388.2c-8.3 8.3-8.3 21.7 0 30s21.7 8.3 30 0c2.2-2.2 3.8-4.8 4.8-7.5.5.6 1 1.2 1.6 1.8 8.3 8.3 21.7 8.3 30 0s8.3-21.7 0-30c-.6-.6-1.2-1.1-1.8-1.6 2.7-1 5.3-2.6 7.5-4.8 8.3-8.3 8.3-21.7 0-30s-21.7-8.3-30 0" opacity="1" data-original="#ffffff" class=""></path><path fill="#ffffff" d="m449.1 386.6-24.2-38.4 8.9-8.9 38 24.7" opacity="1" data-original="#ffffff" class=""></path><g fill="#ccc"><path d="M40.2 366.3c-.8 0-1.6-.4-2-1.1-.7-1.1-.4-2.6.7-3.3l38-24.7c1.1-.7 2.6-.4 3.3.7s.4 2.6-.7 3.3l-38 24.7c-.4.3-.8.4-1.3.4zM62.9 389c-.4 0-.9-.1-1.3-.4-1.1-.7-1.5-2.2-.7-3.3l24.2-38.4c.7-1.1 2.2-1.5 3.3-.7 1.1.7 1.5 2.2.7 3.3l-24.2 38.4c-.5.7-1.2 1.1-2 1.1z" fill="#cccccc" opacity="1" data-original="#cccccc"></path></g><g fill="#ccc"><path d="M65.7 426.8c-6 0-12.1-2.3-16.7-6.9-1.5-1.5-2.8-3.2-3.8-5-4.4 4-10 6.2-15.9 6.2-6.3 0-12.2-2.5-16.7-6.9-4.5-4.5-6.9-10.4-6.9-16.7 0-6 2.2-11.6 6.2-15.9-1.8-1-3.5-2.3-5-3.8-9.2-9.2-9.2-24.2 0-33.4s24.2-9.2 33.4 0c.9.9.9 2.5 0 3.4s-2.5.9-3.4 0c-7.3-7.3-19.3-7.3-26.6 0s-7.3 19.3 0 26.6c1.9 1.9 4.1 3.3 6.7 4.3.8.3 1.4 1 1.5 1.9s-.2 1.7-.9 2.2c-.6.5-1.2 1-1.6 1.4-3.6 3.6-5.5 8.3-5.5 13.3s2 9.7 5.5 13.3c3.6 3.6 8.3 5.5 13.3 5.5s9.7-2 13.3-5.5c.5-.5.9-1 1.4-1.6.5-.7 1.4-1 2.2-.9.9.1 1.6.7 1.9 1.5 1 2.5 2.4 4.8 4.3 6.7 7.3 7.3 19.3 7.3 26.6 0s7.3-19.3 0-26.6c-.9-.9-.9-2.5 0-3.4s2.5-.9 3.4 0c9.2 9.2 9.2 24.2 0 33.4-4.6 4.6-10.6 6.9-16.7 6.9zM446.3 426.8c-6.3 0-12.2-2.5-16.7-6.9-4.5-4.5-6.9-10.4-6.9-16.7s2.5-12.2 6.9-16.7c.9-.9 2.5-.9 3.4 0s.9 2.5 0 3.4c-3.6 3.6-5.5 8.3-5.5 13.3s2 9.7 5.5 13.3c3.6 3.6 8.3 5.5 13.3 5.5s9.7-2 13.3-5.5c1.9-1.9 3.3-4.1 4.3-6.7.3-.8 1-1.4 1.9-1.5.8-.1 1.7.2 2.3.9.5.6 1 1.2 1.4 1.6 7.3 7.3 19.3 7.3 26.6 0s7.3-19.3 0-26.6c-.5-.5-1-.9-1.6-1.4-.7-.5-1-1.4-.9-2.2.1-.9.7-1.6 1.5-1.9 2.5-1 4.8-2.4 6.7-4.3 7.3-7.3 7.3-19.3 0-26.6s-19.3-7.3-26.6 0c-.9.9-2.5.9-3.4 0s-.9-2.5 0-3.4c9.2-9.2 24.2-9.2 33.4 0s9.2 24.2 0 33.4c-1.5 1.5-3.2 2.8-5 3.8 8.5 9.2 8.2 23.7-.7 32.6-9 9-23.4 9.2-32.6.7-1 1.8-2.3 3.5-3.8 5-4.6 4.5-10.5 6.9-16.8 6.9z" fill="#cccccc" opacity="1" data-original="#cccccc"></path><path d="M471.8 366.3c-.4 0-.9-.1-1.3-.4l-38-24.7c-1.1-.7-1.4-2.2-.7-3.3s2.2-1.4 3.3-.7l38 24.7c1.1.7 1.4 2.2.7 3.3-.5.8-1.2 1.1-2 1.1zM449.1 389c-.8 0-1.6-.4-2-1.1l-24.2-38.4c-.7-1.1-.4-2.6.7-3.3s2.6-.4 3.3.7l24.2 38.4c.7 1.1.4 2.6-.7 3.3-.4.3-.8.4-1.3.4z" fill="#cccccc" opacity="1" data-original="#cccccc"></path></g><path fill="#ffffff" d="M80.7 78.1c8.3-8.3 8.3-21.7 0-30s-21.7-8.3-30 0c-2.2 2.2-3.8 4.8-4.8 7.5-.5-.6-1-1.2-1.6-1.8-8.3-8.3-21.7-8.3-30 0C6 62 6 75.5 14.3 83.7c.6.6 1.2 1.1 1.8 1.6-2.7 1-5.3 2.6-7.5 4.8-8.3 8.3-8.3 21.7 0 30s21.7 8.3 30 0" opacity="1" data-original="#ffffff" class=""></path><path fill="#ffffff" d="m62.9 79.7 24.2 38.4-8.9 8.9-38-24.7M431.3 78.1c-8.3-8.3-8.3-21.7 0-30s21.7-8.3 30 0c2.2 2.2 3.8 4.8 4.8 7.5.5-.6 1-1.2 1.6-1.8 8.3-8.3 21.7-8.3 30 0s8.3 21.7 0 30c-.6.6-1.2 1.1-1.8 1.6 2.7 1 5.3 2.6 7.5 4.8 8.3 8.3 8.3 21.7 0 30s-21.7 8.3-30 0" opacity="1" data-original="#ffffff" class=""></path><path fill="#ffffff" d="m449.1 79.7-24.2 38.4 8.9 8.9 38-24.7" opacity="1" data-original="#ffffff" class=""></path><g fill="#ccc"><path d="M78.2 129.4c-.4 0-.9-.1-1.3-.4l-38-24.7c-1.1-.7-1.4-2.2-.7-3.3s2.2-1.4 3.3-.7l38 24.7c1.1.7 1.4 2.2.7 3.3-.5.7-1.2 1.1-2 1.1zM87.1 120.5c-.8 0-1.6-.4-2-1.1L60.8 81c-.7-1.1-.4-2.6.7-3.3s2.6-.4 3.3.7L89 116.8c.7 1.1.4 2.6-.7 3.3-.3.3-.8.4-1.2.4z" fill="#cccccc" opacity="1" data-original="#cccccc"></path></g><g fill="#ccc"><path d="M23.6 128.8c-6.3 0-12.2-2.5-16.7-6.9-4.4-4.5-6.9-10.4-6.9-16.7S2.5 93 6.9 88.5c1.5-1.5 3.2-2.8 5-3.8-4-4.4-6.2-10-6.2-15.9 0-6.3 2.5-12.2 6.9-16.7 4.5-4.5 10.4-6.9 16.7-6.9 6 0 11.6 2.2 15.9 6.2 1-1.8 2.3-3.5 3.8-5 9.2-9.2 24.2-9.2 33.4 0s9.2 24.2 0 33.4c-.9.9-2.5.9-3.4 0s-.9-2.5 0-3.4c7.3-7.3 7.3-19.3 0-26.6s-19.3-7.3-26.6 0c-1.9 1.9-3.3 4.1-4.3 6.7-.3.8-1 1.4-1.9 1.5s-1.7-.2-2.2-.9c-.5-.6-1-1.2-1.4-1.6C39 51.9 34.3 50 29.3 50s-9.7 2-13.3 5.5c-3.6 3.6-5.5 8.3-5.5 13.3s2 9.7 5.5 13.3c.5.5 1 .9 1.6 1.4.7.5 1 1.4.9 2.3s-.7 1.6-1.5 1.9c-2.5 1-4.8 2.4-6.7 4.3-3.6 3.6-5.5 8.3-5.5 13.3s2 9.7 5.5 13.3c3.6 3.6 8.3 5.5 13.3 5.5s9.7-2 13.3-5.5c.9-.9 2.5-.9 3.4 0s.9 2.5 0 3.4c-4.5 4.3-10.4 6.8-16.7 6.8zM488.4 128.8c-6 0-12.1-2.3-16.7-6.9-.9-.9-.9-2.5 0-3.4s2.5-.9 3.4 0c7.3 7.3 19.3 7.3 26.6 0s7.3-19.3 0-26.6c-1.9-1.9-4.1-3.3-6.7-4.3-.8-.3-1.4-1-1.5-1.9s.2-1.7.9-2.3c.6-.5 1.2-1 1.6-1.4 7.3-7.3 7.3-19.3 0-26.6s-19.3-7.3-26.6 0c-.5.5-.9 1-1.4 1.6-.5.7-1.4 1-2.3.9s-1.6-.7-1.9-1.5c-1-2.5-2.4-4.8-4.3-6.7-3.6-3.6-8.3-5.5-13.3-5.5s-9.7 2-13.3 5.5c-3.6 3.6-5.5 8.3-5.5 13.3s2 9.7 5.5 13.3c.9.9.9 2.5 0 3.4s-2.5.9-3.4 0c-4.5-4.5-6.9-10.4-6.9-16.7s2.5-12.2 6.9-16.7c4.5-4.5 10.4-6.9 16.7-6.9s12.2 2.5 16.7 6.9c1.5 1.5 2.8 3.2 3.8 5 9.2-8.5 23.7-8.2 32.6.7 9 9 9.2 23.4.7 32.6 1.8 1 3.5 2.3 5 3.8 9.2 9.2 9.2 24.2 0 33.4-4.5 4.7-10.5 7-16.6 7z" fill="#cccccc" opacity="1" data-original="#cccccc"></path><path d="M433.8 129.4c-.8 0-1.6-.4-2-1.1-.7-1.1-.4-2.6.7-3.3l38-24.7c1.1-.7 2.6-.4 3.3.7s.4 2.6-.7 3.3l-38 24.7c-.4.3-.8.4-1.3.4zM424.9 120.5c-.4 0-.9-.1-1.3-.4-1.1-.7-1.5-2.2-.7-3.3l24.2-38.4c.7-1.1 2.2-1.5 3.3-.7 1.1.7 1.5 2.2.7 3.3l-24.2 38.4c-.4.7-1.2 1.1-2 1.1z" fill="#cccccc" opacity="1" data-original="#cccccc"></path></g><path fill="#fff280" d="M190.4 481.6h133.1c8.2-3.9 15.2-16.2 18.7-26.5 4.3-12.8 6.4-24.4 5.2-38.3-2.1-23.4-13.1-41.9-29.5-61.2-13.5-15.9-26.7-34.5-30.2-57.6h-61.8c-3.6 23.1-16.8 41.7-30.2 57.6-16.4 19.4-27.4 37.9-29.5 61.2-1.2 13.9.9 25.5 5.2 38.3 3.3 10.6 10.5 22.9 19 26.5z" opacity="1" data-original="#fff280"></path><path fill="#968f4c" d="M323.4 484h-133c-.3 0-.7-.1-1-.2-9.7-4.2-17.1-17.6-20.5-27.9-4.9-14.5-6.4-26.2-5.3-39.3 1.9-21.2 10.9-40 30.1-62.6 12.7-15 26.1-33.4 29.7-56.4.2-1.2 1.2-2 2.4-2h61.8c1.2 0 2.2.9 2.4 2 3.6 23 17 41.4 29.7 56.4 19.2 22.6 28.2 41.3 30.1 62.6 1.2 13.1-.4 24.8-5.3 39.3-3.4 10.1-10.6 23.5-19.9 27.9-.5.1-.8.2-1.2.2zm-132.5-4.8h132c7.2-3.8 13.7-15.1 16.9-24.8 4.6-13.8 6.1-25 5-37.3-1.8-20.2-10.4-38.1-29-59.9-12.8-15-26.3-33.5-30.4-56.7h-57.7c-4.2 23.2-17.7 41.7-30.4 56.7-18.5 21.8-27.2 39.7-28.9 59.9-1.1 12.3.4 23.5 5 37.3 3.3 9.9 10 21.3 17.5 24.8z" opacity="1" data-original="#968f4c"></path><path fill="#ff9159" d="M217.8 478c-7.5-4.5-17.1-4.5-24.6 0-.4.3-.8.5-1.2.8-5.7 3.8-12.2 14-6.2 20.4 2.7 2.9 7.7 2.5 10.9.3.4 3.6 3.3 6.9 6.8 7.7.6.1 1.3.2 2 .2s1.3 0 2-.2c3.6-.8 6.5-4 6.8-7.7 3.3 2.2 8.2 2.6 10.9-.3 6-6.4-.5-16.6-6.2-20.4-.4-.3-.8-.6-1.2-.8z" opacity="1" data-original="#ff9159"></path><path fill="#a35d3a" d="M205.7 509.7h-.4c-.7 0-1.5-.1-2.2-.2-3.5-.8-6.4-3.3-7.9-6.6-3.8 1.3-8.3 1-11.2-2.1-2.3-2.5-3.3-5.7-2.9-9.2.7-6 5.3-12 9.5-14.8.4-.3.9-.6 1.4-.9 8.4-4.9 18.7-4.9 27.1 0 .5.3.9.6 1.4.9 4.2 2.9 8.9 8.9 9.5 14.8.4 3.5-.6 6.7-2.9 9.2-2.9 3.1-7.4 3.4-11.2 2.1-1.4 3.2-4.4 5.8-7.9 6.6-.8.1-1.6.2-2.3.2zm-.3-4.8c.6 0 1 0 1.5-.1 2.6-.6 4.7-3 5-5.6.1-.8.6-1.6 1.4-1.9.8-.4 1.7-.3 2.4.2 2.3 1.6 6 2 7.8.1 1.4-1.5 1.9-3.2 1.7-5.4-.5-4.5-4.2-9.2-7.5-11.4-.4-.2-.7-.5-1.1-.7-6.7-4-15.5-4-22.2 0-.4.2-.8.5-1.1.7-3.2 2.2-7 6.9-7.5 11.4-.2 2.2.3 3.9 1.7 5.4 1.8 1.9 5.5 1.5 7.8-.1.7-.5 1.6-.5 2.4-.2.8.4 1.3 1.1 1.4 1.9.3 2.6 2.4 5 5 5.6.4.1.9.1 1.3.1z" opacity="1" data-original="#a35d3a"></path><path fill="#ff9159" d="M318.4 478c-7.5-4.5-17.1-4.5-24.6 0-.4.3-.8.5-1.2.8-5.7 3.8-12.2 14-6.2 20.4 2.7 2.9 7.7 2.5 10.9.3.4 3.6 3.3 6.9 6.8 7.7.6.1 1.3.2 2 .2s1.3 0 2-.2c3.6-.8 6.5-4 6.8-7.7 3.3 2.2 8.2 2.6 10.9-.3 6-6.4-.5-16.6-6.2-20.4-.4-.3-.8-.6-1.2-.8z" opacity="1" data-original="#ff9159"></path><path fill="#a35d3a" d="M306.2 509.7h-.4c-.7 0-1.5-.1-2.2-.2-3.5-.8-6.4-3.3-7.9-6.6-3.8 1.3-8.3 1-11.2-2.1-2.3-2.5-3.3-5.7-2.9-9.2.7-6 5.3-12 9.5-14.8.4-.3.9-.6 1.4-.9 8.4-4.9 18.7-4.9 27.1 0 .5.3.9.6 1.4.9 4.2 2.9 8.9 8.9 9.5 14.8.4 3.5-.6 6.7-2.9 9.2-2.9 3.1-7.4 3.4-11.2 2.1-1.4 3.2-4.4 5.8-7.9 6.6-.7.1-1.5.2-2.3.2zm-.2-4.8c.6 0 1 0 1.5-.1 2.6-.6 4.7-3 5-5.6.1-.8.6-1.6 1.4-1.9.8-.4 1.7-.3 2.4.2 2.3 1.6 6 2 7.8.1 1.4-1.5 1.9-3.2 1.7-5.4-.5-4.5-4.2-9.2-7.5-11.4-.4-.2-.7-.5-1.1-.7-6.7-4-15.5-4-22.2 0-.4.2-.8.5-1.1.7-3.2 2.2-7 6.9-7.5 11.4-.2 2.2.3 3.9 1.7 5.4 1.8 1.9 5.5 1.5 7.8-.1.7-.5 1.6-.5 2.4-.2.8.4 1.3 1.1 1.4 1.9.3 2.6 2.4 5 5 5.6.4.1.8.1 1.3.1z" opacity="1" data-original="#a35d3a"></path><path fill="#fff280" d="M425.5 234v-29.1c0-93.3-75.6-168.9-168.9-168.9-93.3 0-168.9 75.6-168.9 168.9V234c-9.4 12-15.1 27.2-15.1 43.7 0 39.1 31.7 70.8 70.8 70.8H369.7c39.1 0 70.8-31.7 70.8-70.8.1-16.6-5.5-31.7-15-43.7z" opacity="1" data-original="#fff280"></path><path fill="#968f4c" d="M369.8 350.9H143.4c-40.4 0-73.2-32.8-73.2-73.2 0-16.3 5.2-31.6 15.1-44.5v-28.3c0-94.5 76.8-171.3 171.3-171.3s171.3 76.8 171.3 171.3v28.3c9.9 12.9 15.1 28.2 15.1 44.5 0 40.3-32.8 73.2-73.2 73.2zM256.6 38.3c-91.8 0-166.5 74.7-166.5 166.5V234c0 .5-.2 1.1-.5 1.5C80 247.6 75 262.2 75 277.6c0 37.7 30.7 68.4 68.4 68.4h226.4c37.7 0 68.4-30.7 68.4-68.4 0-15.5-5-30-14.6-42.2-.3-.4-.5-.9-.5-1.5v-29.1c0-91.8-74.7-166.5-166.5-166.5z" opacity="1" data-original="#968f4c"></path><circle cx="117.7" cy="279.5" r="36" fill="#ffce80" opacity="1" data-original="#ffce80"></circle><ellipse cx="117.7" cy="252.7" fill="#ffffff" rx="8.8" ry="4.5" opacity="1" data-original="#ffffff" class=""></ellipse><circle cx="395.5" cy="279.5" r="36" fill="#ffce80" opacity="1" data-original="#ffce80"></circle><ellipse cx="395.5" cy="252.7" fill="#ffffff" rx="8.8" ry="4.5" opacity="1" data-original="#ffffff" class=""></ellipse><path fill="#fff280" d="M211.6 42.2c8.6-13.7 15.4-20.4 28.8-29.4 8.7-5.9 26.2-13.9 35.2-8.6 8.5 5 7.5 17.1 4.1 26.3s-8.1 15.4-13.1 21.3c5.1-.4 12.8-.2 18.9.8 6.8 1.1 18.8 6.3 19.2 13.4.4 6.2-5.5 12-10.9 15.1s-10 4.6-15.7 5.5c3.3 5.3 9.2 19.4 3.3 24.6-5.7 5.1-21.4-2.7-24.5-7.5" opacity="1" data-original="#fff280"></path><path fill="#968f4c" d="M276.2 115.2c-.8 0-1.7-.1-2.6-.2-7-1-16.1-5.9-18.7-10.1-.7-1.1-.4-2.6.7-3.3s2.6-.4 3.3.7c1.6 2.5 9.1 7 15.3 7.9 2.5.4 4.5 0 5.5-.9 4.2-3.7-.1-15.8-3.7-21.5-.4-.7-.5-1.5-.2-2.3.3-.7 1-1.3 1.8-1.4 5.6-.9 9.9-2.4 14.8-5.2 5-2.8 10-7.9 9.7-12.8-.3-5.2-10.4-10.1-17.2-11.2-6.3-1-13.9-1.1-18.3-.8-1 .1-1.9-.4-2.3-1.3s-.3-1.9.3-2.6c4.6-5.3 9.2-11.5 12.7-20.6 3.1-8.1 4.1-19.1-3-23.4-7.4-4.4-23.6 2.3-32.6 8.5-13.6 9.3-19.9 15.7-28.1 28.7-.7 1.1-2.2 1.5-3.3.8s-1.5-2.2-.8-3.3c8.5-13.5 15.4-20.6 29.5-30.2C247.4 5 266.2-4.2 276.8 2c9.7 5.7 9 18.8 5.1 29.2-2.8 7.5-6.4 13.1-10.1 17.9 4.3 0 9.5.3 14 1 6.4 1 20.7 6.4 21.3 15.6.4 7.5-6.2 14-12.1 17.3-4.4 2.5-8.5 4.1-13.1 5.1 3.7 7.2 7.3 19.2 1.2 24.6-1.8 1.7-4 2.5-6.9 2.5z" opacity="1" data-original="#968f4c"></path><ellipse cx="257.1" cy="265.1" fill="#ff9159" rx="35.3" ry="32.2" opacity="1" data-original="#ff9159"></ellipse><path fill="#a35d3a" d="M257.1 299.6c-21.4 0-37.6-14.8-37.6-34.5s16.2-34.5 37.6-34.5 37.6 14.8 37.6 34.5-16.2 34.5-37.6 34.5zm0-64.4c-18.8 0-33 12.8-33 29.9 0 17 14.2 29.9 33 29.9s33-12.8 33-29.9c0-17-14.2-29.9-33-29.9z" opacity="1" data-original="#a35d3a"></path><path fill="#fff280" d="M329.4 390.4c-6.8 10-18.6 16.4-30.7 16.7s-24.2-5.5-31.5-15.2c-2.2-2.9-3.3-6.3-3.3-9.8 0-4 1.5-8 4.4-11.1 5.4-5.7 14.2-6.7 20.8-2.3l1.6 1.1c1.7 1.2 3.2 2.6 4.3 4.2.9.5 1.9.7 2.9.7 1.8 0 3.8-1.1 4.8-2.6" opacity="1" data-original="#fff280"></path><path fill="#968f4c" d="M297.7 409.5c-12.6 0-25-6.1-32.6-16.2-2.5-3.3-3.8-7.1-3.8-11.2 0-4.8 1.8-9.3 5.1-12.8 6.3-6.6 16.3-7.7 23.9-2.6l1.6 1.1c1.7 1.2 3.3 2.6 4.5 4.3.4.2.9.2 1.3.2 1 0 2.3-.7 2.9-1.6.7-1.1 2.2-1.4 3.3-.6 1.1.7 1.4 2.2.6 3.3-1.5 2.1-4.2 3.6-6.7 3.7-1.4 0-2.8-.3-4.1-1-.4-.2-.7-.4-.9-.8-1-1.4-2.2-2.6-3.6-3.6l-1.6-1.1c-5.6-3.8-13.1-3-17.7 2-2.4 2.6-3.8 5.9-3.8 9.5 0 3 1 5.9 2.8 8.3 6.9 9.1 18.2 14.5 29.6 14.2s22.4-6.3 28.8-15.7c.7-1.1 2.2-1.4 3.3-.6 1.1.7 1.4 2.2.6 3.3-7.3 10.7-19.8 17.5-32.7 17.8-.1.1-.4.1-.8.1z" opacity="1" data-original="#968f4c"></path><path fill="#fff280" d="M241.5 394.9c6.8 10 22.3 12.9 34.4 13.2s24.8-6.5 32.1-16.2c2.2-2.9 3.3-6.3 3.3-9.8 0-4-1.5-8-4.4-11.1-5.4-5.7-14.2-6.7-20.8-2.3l-1.6 1.1c-1.7 1.2-3.2 2.6-4.3 4.2-.9.5-1.9.7-2.9.7-1.8 0-3.8-1.1-4.8-2.6" opacity="1" data-original="#fff280"></path><path fill="#968f4c" d="M276.7 410.5h-.9c-10.1-.3-28.3-2.4-36.3-14.2-.7-1.1-.5-2.6.6-3.3s2.6-.5 3.3.6c6.8 10 23.3 11.9 32.5 12.2 10.9.3 23.1-5.8 30.1-15.2 1.8-2.4 2.8-5.3 2.8-8.3 0-3.5-1.3-6.9-3.8-9.5-4.7-4.9-12.1-5.7-17.7-2l-1.6 1.1c-1.4 1-2.7 2.2-3.6 3.6-.2.3-.5.6-.9.8-1.3.7-2.7 1-4.1 1-2.6-.1-5.3-1.5-6.7-3.7-.7-1.1-.5-2.6.6-3.3s2.6-.5 3.3.6c.6.9 1.9 1.6 2.9 1.6.4 0 .8-.1 1.3-.2 1.2-1.7 2.8-3.1 4.5-4.3l1.6-1.1c7.6-5.1 17.6-4 23.9 2.6 3.3 3.5 5.1 8 5.1 12.8 0 4.1-1.3 8-3.8 11.2-7.8 10.3-20.8 17-33.1 17z" opacity="1" data-original="#968f4c"></path><ellipse cx="274" cy="372.8" fill="#fff280" rx="16" ry="10.2" opacity="1" data-original="#fff280"></ellipse><path fill="#968f4c" d="M274 385.4c-10.3 0-18.4-5.5-18.4-12.6s8.1-12.6 18.4-12.6 18.4 5.5 18.4 12.6-8.1 12.6-18.4 12.6zm0-20.5c-7.4 0-13.6 3.6-13.6 7.8s6.2 7.8 13.6 7.8 13.6-3.6 13.6-7.8-6.2-7.8-13.6-7.8z" opacity="1" data-original="#968f4c"></path><path d="M184.2 241.3c-.7 0-1.4-.1-2.1-.4l-43.7-16.3c-3.1-1.2-4.7-4.6-3.5-7.7s4.6-4.7 7.7-3.5l43.7 16.3c3.1 1.2 4.7 4.6 3.5 7.7-.9 2.4-3.2 3.9-5.6 3.9zM327.8 240.7c-2.2 0-4.2-1.3-5.1-3.5-1-2.8.4-5.9 3.2-6.9l43.7-16.3c2.8-1 5.9.4 6.9 3.2s-.4 5.9-3.2 6.9l-43.7 16.3c-.5.2-1.2.3-1.8.3z" fill="#000000" opacity="1" data-original="#000000"></path><g fill="#e70600"><path d="M136.6 144.7h-3.5c-1.3 0-2.4-1.1-2.4-2.4s1.1-2.4 2.4-2.4h3.5c5.4 0 9.8-4.4 9.8-9.8v-3.5c0-1.3 1.1-2.4 2.4-2.4s2.4 1.1 2.4 2.4v3.5c0 8-6.6 14.6-14.6 14.6zM162.5 174c-1.3 0-2.4-1.1-2.4-2.4v-3.5c0-8 6.5-14.6 14.6-14.6h3.5c1.3 0 2.4 1.1 2.4 2.4s-1.1 2.4-2.4 2.4h-3.5c-5.4 0-9.8 4.4-9.8 9.8v3.5c0 1.3-1.1 2.4-2.4 2.4zM148.8 174c-1.3 0-2.4-1.1-2.4-2.4v-3.5c0-5.4-4.4-9.8-9.8-9.8h-3.5c-1.3 0-2.4-1.1-2.4-2.4s1.1-2.4 2.4-2.4h3.5c8 0 14.6 6.5 14.6 14.6v3.5c0 1.3-1.1 2.4-2.4 2.4zM178.1 144.7h-3.5c-8 0-14.6-6.5-14.6-14.6v-3.5c0-1.3 1.1-2.4 2.4-2.4s2.4 1.1 2.4 2.4v3.5c0 5.4 4.4 9.8 9.8 9.8h3.5c1.3 0 2.4 1.1 2.4 2.4s-1 2.4-2.4 2.4z" fill="#e70600" opacity="1" data-original="#e70600"></path></g><path d="M236.6 280.3c-.6 0-1.2-.2-1.7-.7-.9-.9-.9-2.5 0-3.4 5.1-5.1 5.1-13.5 0-18.6-.9-.9-.9-2.5 0-3.4s2.5-.9 3.4 0c7 7 7 18.4 0 25.4-.4.5-1 .7-1.7.7zM278.6 280.3c-.6 0-1.2-.2-1.7-.7-3.4-3.4-5.3-7.9-5.3-12.7s1.9-9.3 5.3-12.7c.9-.9 2.5-.9 3.4 0s.9 2.5 0 3.4c-2.5 2.5-3.9 5.8-3.9 9.3s1.4 6.8 3.9 9.3c.9.9.9 2.5 0 3.4-.5.5-1.1.7-1.7.7z" fill="#000000" opacity="1" data-original="#000000"></path><path d="M274.1 269.3h-32.4c-1.3 0-2.4-1.1-2.4-2.4s1.1-2.4 2.4-2.4h32.4c1.3 0 2.4 1.1 2.4 2.4s-1 2.4-2.4 2.4z" fill="#000000" opacity="1" data-original="#000000"></path><path fill="#fff280" d="m314.9 147.7-29.5 30.6" opacity="1" data-original="#fff280"></path><path fill="#968f4c" d="M285.4 180.7c-.6 0-1.2-.2-1.7-.7-1-.9-1-2.4-.1-3.4L313 146c.9-1 2.4-1 3.4-.1s1 2.4.1 3.4L287.2 180c-.5.5-1.1.7-1.8.7z" opacity="1" data-original="#968f4c"></path><path fill="#fff280" d="m198.2 147.7 29.4 30.6" opacity="1" data-original="#fff280"></path><path fill="#968f4c" d="M227.6 180.7c-.6 0-1.3-.2-1.7-.7l-29.4-30.6c-.9-1-.9-2.5.1-3.4s2.5-.9 3.4.1l29.4 30.6c.9 1 .9 2.5-.1 3.4-.5.4-1.1.6-1.7.6zM254.4 182.4c-1.3 0-2.4-1.1-2.4-2.4v-8.3c0-1.3 1.1-2.4 2.4-2.4s2.4 1.1 2.4 2.4v8.3c0 1.3-1.1 2.4-2.4 2.4z" opacity="1" data-original="#968f4c"></path><circle cx="256.9" cy="199.8" r="131.4" fill="url(#a)" opacity="1" data-original="url(#a)"></circle></g></svg>