<svg xmlns="http://www.w3.org/2000/svg" version="1.1" xmlns:xlink="http://www.w3.org/1999/xlink" width="512" height="512" x="0" y="0" viewBox="0 0 128 128" style="enable-background:new 0 0 512 512" xml:space="preserve" class=""><g><path fill="#4d4d4d" d="M41.345 106.687A14.546 14.546 0 0 1 27.833 86.13c1.867-4.112 9.9-11.978 9.027-26.281-.4-6.615-1.979-13.479-6.232-18.56s-12.316-7.516-17.692-3.641c-2.453 1.768-4.058 5.188-2.679 7.879 1.4 2.733 4.942 3.386 7.482 5.112 4.76 3.236 5.547 10.072 4.175 15.661s-4.381 10.688-5.607 16.311a26.708 26.708 0 0 0 30.429 32.041" opacity="1" data-original="#4d4d4d"></path><path fill="#666666" d="M13.915 48.642a31.43 31.43 0 0 1 3.82 2 9.888 9.888 0 0 1 3.42 4.09 36.657 36.657 0 0 0 12.59-8.49 22.072 22.072 0 0 0-3.12-4.95 14.006 14.006 0 0 0-1.66-1.68 29.133 29.133 0 0 1-15.05 9.03zM19.875 72.4a39.582 39.582 0 0 0 16.62-5.13 32.826 32.826 0 0 0 .36-7.42c-.05-.78-.11-1.57-.2-2.36a31.093 31.093 0 0 1-14.32 6.55 20.461 20.461 0 0 1-.42 2.26 47.458 47.458 0 0 1-2.04 6.1zM15.745 87.532A49.288 49.288 0 0 0 28 85.792c1.2-2.359 4.14-5.89 6.32-11.01a41.677 41.677 0 0 1-17.15 4.7 30.825 30.825 0 0 0-.86 3.13 24.734 24.734 0 0 0-.565 4.92zM17.465 97.683a26.551 26.551 0 0 0 3.87 7.01 76.8 76.8 0 0 0 7.77-4.311c-.07-.08-.12-.17-.18-.25a14.581 14.581 0 0 1-2.35-7.66 69.585 69.585 0 0 1-9.11 5.211zM28.185 110.862a27.368 27.368 0 0 0 8.09 3.37 49.447 49.447 0 0 0 3.98-5.37l.69-1.03c.23-.34.44-.62.61-.84l-.21-.309a14.608 14.608 0 0 1-7.82-2.161 36.169 36.169 0 0 1-3.64 4.84 11.7 11.7 0 0 1-1.7 1.5z" opacity="1" data-original="#666666"></path><path fill="#4d4d4d" d="M117.881 92.688a48.618 48.618 0 0 0-2.49-10.55c-.43-1.21-.91-2.4-1.44-3.55a43.485 43.485 0 0 0-3.08-5.71c-7.26-11.45-19.21-18.92-32.72-18.92-13.08 0-24.69 6.99-32.01 17.82a45.85 45.85 0 0 0-3.45 6.04c-.37.79-.73 1.6-1.06 2.41a48.943 48.943 0 0 0-3.1 11.51 50.7 50.7 0 0 0-.48 6.08c-.01.33-.01.65-.01.98 0 1.43.08 2.85.19 4.25.3 3.888 1.222 8.77 2.14 9.3a14.037 14.037 0 0 0 12.37 7.38h.01c2.62 2.43 50.96-.01 50.96-.01a13.971 13.971 0 0 0 13.59-11.18l.09-.47a48.867 48.867 0 0 0 .83-7.82c.02-.48.03-.96.03-1.45a51.274 51.274 0 0 0-.37-6.11zM49.722 3.848a1.481 1.481 0 0 1 2.3-.838c10.625 7.529 17.845 18.584 17.845 18.584S58.76 54.876 52.212 39.157c-6.401-15.364-3.784-30.069-2.49-35.309zM105.937 2.388a1.591 1.591 0 0 0-2.427-1.013C91.732 8.937 83.437 20.451 83.437 20.451s10.29 36.279 18.092 19.725c7.627-16.182 5.54-32.099 4.408-37.788z" opacity="1" data-original="#4d4d4d"></path><path fill="#eeb8b9" d="M105.281 7.234a1.192 1.192 0 0 0-1.822-.777 63.363 63.363 0 0 0-15.023 14.526s7.774 27.7 13.6 15.081c5.693-12.337 4.103-24.487 3.245-28.83zM50.193 8.793a1.193 1.193 0 0 1 1.822-.777 63.363 63.363 0 0 1 15.023 14.526s-7.774 27.7-13.6 15.082c-5.693-12.337-4.102-24.487-3.245-28.831z" opacity="1" data-original="#eeb8b9"></path><path fill="#4d4d4d" d="M111.469 49.859a38.308 38.308 0 0 1-.69 4.11 22.166 22.166 0 0 1-3.07 7.58 3.712 3.712 0 0 1-.23.32c-2.31 3.27-6.051 1.09-9.611 2.42-3.68 1.37-7.344-1.294-11.214-.894-6.76.69-11.831 1.21-18.471-.29-6.21-1.4-13.964 2.814-18.094-2.456q-.435-.555-.84-1.14a25.739 25.739 0 0 1-2.87-5.54 31.1 31.1 0 0 1-1.74-13.99 35.529 35.529 0 0 1 1.64-7.52 27.108 27.108 0 0 1 23.07-18.11c1.47-.14 2.95-.26 4.42-.35a67.214 67.214 0 0 1 8.75.03 43.692 43.692 0 0 1 5.56.76c8.12 1.66 16.13 6.3 20.32 14.15 3.301 6.2 3.92 13.78 3.07 20.92z" opacity="1" data-original="#4d4d4d"></path><path fill="#f2f2f2" d="M107.481 61.868a19.556 19.556 0 0 1-9.27 6.8 46.058 46.058 0 0 1-11.44 2.27c-6.76.69-13.63 1.07-20.27-.43a28.659 28.659 0 0 1-16.41-9.86 14.762 14.762 0 0 1 14.46-2.56c3.33-7.03 9.93-7.98 13.59-7.92 3.67-.06 10.27.89 13.6 7.92a14.714 14.714 0 0 1 15.74 3.78z" opacity="1" data-original="#f2f2f2"></path><path fill="#ffffff" d="m95.393 45.3-5.121 1.4-4.606-1.4h-.426c1.278 2.367 3.33 3.906 5.649 3.906s4.372-1.539 5.65-3.906z" opacity="1" data-original="#ffffff"></path><path fill="#1a1a1a" d="M85.666 45.3a4.981 4.981 0 0 0 9.727 0z" opacity="1" data-original="#1a1a1a"></path><path fill="#ffffff" d="M70.622 45.3 65.4 46.541 60.9 45.3h-1.151c1.278 2.367 3.33 3.906 5.65 3.906s4.371-1.539 5.649-3.906z" opacity="1" data-original="#ffffff"></path><path fill="#1a1a1a" d="M60.9 45.3a4.981 4.981 0 0 0 9.727 0z" opacity="1" data-original="#1a1a1a"></path><path fill="#666666" d="M117.881 92.688c-11.98 9.15-29.52 4.26-29.52 4.26 21.96-2.66 26.23-11.09 27.03-14.81a48.618 48.618 0 0 1 2.49 10.55zM118.221 100.248a48.867 48.867 0 0 1-.83 7.82c-9.22 3.88-19.8.93-19.8.93 12.82-1.55 18.3-5.498 20.63-8.75zM69.211 96.948s-18.71 5.21-30.68-5.21a48.943 48.943 0 0 1 3.1-11.51l.149-.359S40.741 93.5 69.211 96.948zM59.981 109s-11.652 3.343-21.132-1.367c-.924-3.077-.808-9.483-.8-9.813 1.192 3.358 5.632 9.208 21.932 11.18z" opacity="1" data-original="#666666"></path><path fill="#eeb8b9" d="M79.968 53.112h-3.455A2.451 2.451 0 0 0 74.528 57l1.727 2.385a2.451 2.451 0 0 0 3.971 0L81.953 57a2.451 2.451 0 0 0-1.985-3.888z" opacity="1" data-original="#eeb8b9"></path><path fill="#666666" d="M82.519 14.029c-1.42 3.78-3.26 10.53-4.37 21.71-1.11-11.21-2.96-17.96-4.38-21.74a67.214 67.214 0 0 1 8.75.03zM111.579 48.809a26.8 26.8 0 0 1-11.64-.6c6.22-.73 9.76-3.7 11.77-6.77a43.189 43.189 0 0 1-.13 7.37zM111.289 51.179q-.195 1.41-.51 2.79c-.08.36-.17.73-.27 1.08a25.166 25.166 0 0 1-6.99-.92 15.328 15.328 0 0 0 7.77-2.95zM56.349 48.209a26.852 26.852 0 0 1-11.37.65 31.375 31.375 0 0 1-.45-7.5c2 3.1 5.55 6.12 11.82 6.85zM52.779 54.129a24.8 24.8 0 0 1-5.97.91c-.15-.35-.29-.71-.43-1.07a23.655 23.655 0 0 1-.76-2.34 15.7 15.7 0 0 0 7.16 2.5z" opacity="1" data-original="#666666"></path><path fill="#3f3f3f" d="M65.452 105.16H52.284s-5.183 19.825 4.805 21.582c9.799 1.725 11.772-12.986 8.363-21.582z" opacity="1" data-original="#3f3f3f"></path><path fill="#4d4d4d" d="m64.78 102.632-12.061.4s-2.988 19.761 4.787 21.429c7.628 1.639 9.927-13.674 7.274-21.829z" opacity="1" data-original="#4d4d4d"></path><path fill="#3f3f3f" d="M102.874 105.16H89.706s-5.183 19.825 4.8 21.582c9.803 1.725 11.777-12.986 8.368-21.582z" opacity="1" data-original="#3f3f3f"></path><path fill="#4d4d4d" d="m102.2 102.632-12.061.4s-2.988 19.761 4.787 21.429c7.629 1.639 9.929-13.674 7.274-21.829z" opacity="1" data-original="#4d4d4d"></path><path fill="#333333" d="M70.634 68.052a1 1 0 0 1-.68-1.734c5.285-4.9 11.26-4.893 16.391.011a1 1 0 0 1-1.381 1.446c-4.394-4.2-9.114-4.193-13.651.01a1 1 0 0 1-.679.267z" opacity="1" data-original="#333333"></path><g fill="#1a1a1a"><path d="M109.884 64.289a.119.119 0 0 1-.045-.008c-10.745-4.138-18.33-.922-18.4-.888a.125.125 0 0 1-.164-.064.124.124 0 0 1 .064-.165c.075-.034 7.746-3.294 18.6.883a.126.126 0 0 1 .071.162.124.124 0 0 1-.126.08z" fill="#1a1a1a" opacity="1" data-original="#1a1a1a"></path><path d="M109.533 68.9a.123.123 0 0 1-.066-.019C99.692 62.79 91.64 64.52 91.561 64.54a.126.126 0 1 1-.055-.245c.08-.017 8.226-1.774 18.094 4.376a.126.126 0 0 1 .04.172.128.128 0 0 1-.107.057z" fill="#1a1a1a" opacity="1" data-original="#1a1a1a"></path><path d="M107.806 72.191a.128.128 0 0 1-.079-.027C99.306 65.319 91.571 65.987 91.5 66a.119.119 0 0 1-.137-.113.124.124 0 0 1 .112-.136c.081-.008 7.907-.692 16.414 6.222a.125.125 0 0 1 .017.176.12.12 0 0 1-.1.042zM46.409 64.289a.124.124 0 0 1-.116-.08.126.126 0 0 1 .071-.162c10.85-4.179 18.52-.917 18.6-.883a.125.125 0 0 1-.1.229c-.075-.034-7.66-3.251-18.4.888a.119.119 0 0 1-.055.008z" fill="#1a1a1a" opacity="1" data-original="#1a1a1a"></path><path d="M46.76 68.9a.128.128 0 0 1-.107-.059.126.126 0 0 1 .04-.172c9.867-6.149 18.013-4.393 18.094-4.376a.128.128 0 0 1 .095.15.126.126 0 0 1-.15.1c-.08-.019-8.133-1.748-17.906 4.343a.123.123 0 0 1-.066.014z" fill="#1a1a1a" opacity="1" data-original="#1a1a1a"></path><path d="M48.487 72.191a.12.12 0 0 1-.1-.046.124.124 0 0 1 .017-.176c8.507-6.913 16.332-6.23 16.414-6.222a.124.124 0 0 1 .112.136.118.118 0 0 1-.13.117c-.076-.01-7.81-.678-16.231 6.168a.128.128 0 0 1-.082.023z" fill="#1a1a1a" opacity="1" data-original="#1a1a1a"></path></g><path fill="#3f3f3f" d="M81.856 86.676c2.658 8.067 18.468 1.4 18.468 1.4l-.021-.143C96.1 88.979 85.55 91.037 83.7 86.064c-2.052-5.54 7.892-9.133 15.053-8.863l-.005-.034c-7.536-1.804-19.494 1.597-16.892 9.509zM74.437 86.676c-2.658 8.067-18.468 1.4-18.468 1.4l.021-.143c4.208 1.047 14.753 3.105 16.6-1.868 2.051-5.54-7.892-9.133-15.053-8.863v-.034c7.544-1.805 19.501 1.596 16.9 9.508z" opacity="1" data-original="#3f3f3f"></path></g></svg>