<svg xmlns="http://www.w3.org/2000/svg" version="1.1" xmlns:xlink="http://www.w3.org/1999/xlink" width="512" height="512" x="0" y="0" viewBox="0 0 512 512" style="enable-background:new 0 0 512 512" xml:space="preserve" class=""><g><g fill="#ffeee6"><path d="M411.4 136.2c-28.5 3.1-56 10.4-84.7 12.3s-57.5 1.5-86.3 1.2c-28.5-.3-57 1-85.4-.1-12.5-.5-25-2-37.4-3-10.5-.9-21.8-1.9-31.9-5.1-5-1.6-8.6 6.1-4.5 9.1 1.4 1 2.8 1.9 4.2 2.7 0 4 .4 8 .7 12 .5 5.3.4 11.5 1.5 17 .1.7.1 1.4.1 2.2.2 2.1 1.1 3.7 2.5 4.8 1.1 1.3 2.6 1.9 4 1.6.3 0 .6.1 1 .1 13 .6 25.8 4.5 38.5 7 13 2.6 26.5 3 39.7 3.5 30 1 59.4 1.2 89.3-1.9 28.9-3 57.7-8.1 86.8-9.3 15.7-.7 37.1 2 52.4-5 5.1 3.2 13.4.7 12.5-6.9-1.1-8.4-1.4-21.3 4-28.4 4.1-5.4.7-14.7-7-13.8zM367.5 383.3c-9.8 2.4-20.7 2.5-30.7 3.9-10.3 1.4-20.6 2.8-30.9 4.1-19.6 2.4-39.2 4.1-58.9 4.1-.1-1.7-1-3.3-2.5-3.9-6-2.2-12.2-1.9-18.5-2.7-7.8-1.1-15.4-1.5-23.2-1.6-14.4-.3-28.7-.1-42.8 2.7-6.6-1.4-13.2-2.7-20-3.5h-.2c-1.7-1.6-3.6-2.9-6.1-3.4-2-.5-4.7 1-4.9 3.3-.9 9.3 5.4 21.1 8.5 29.8 3.4 9.8 9.7 18.8 17.4 25.8 18.6 17 49.8 14.5 73.1 14.9 29 .5 57.8-2.6 86.8-2.8 13-.1 45.4-5.3 38.1-25.8 8.8-9.9 15-22.2 23.5-32.3 5.2-6.5-1.4-14.4-8.7-12.6z" fill="#ffeee6" opacity="1" data-original="#ffeee6"></path></g><g fill="#f4c1b8"><path d="M410.9 139.9c-13.9 2.2-27.9 4.3-41.8 6.4-11.2 1.7-22.9 2.4-34 5.1-9-.4-18-.9-27.1-1.2-27.4-1-57.9-5.6-85 1.3-.7-.8-1.7-1.5-3.1-1.7-9.7-1.8-20.6.7-30.5 1.1-11.2.4-22.2.4-33.4-.1-4.8-.2-9.6-.5-14.3-.9-2.9-.3-5.6-.6-8.1-1-8.3-1.2-16.7-1.2-25-2-8-.7-16.3-2.2-24.3-1.1-1.5.2-2.3 2.5-.6 3.2 2.4.9 4.9 1.6 7.4 2.3-.3 1 .3 2.3 1.4 2.7 48.7 15.2 103 15.8 153.7 17.2 25.6.7 51.2.3 76.8-.6 11.4-.4 23.2-2 34.6-.8 11 1.2 8.5 7.4 6.5 16.2-1.9 8.4 9.8 11.7 13.8 4.7.2-.4.4-.7.6-1.1 2.3.8 5 .8 7.1-.6 3.3-2.1 6.6-3.2 10.1-4.3.7.3 1.4.6 2.2.7v.1c-.2 6.3 9 7.4 11.5 2.3 6-12.3 8.4-27.9 8.8-41.5.1-3.6-3.9-6.9-7.3-6.4zM368.7 381.1c-9.7 2.7-19.2 4.9-29.2 5.7-2.8.2-5.4 2.1-6.7 4.6-1-.7-2-1.3-3-1.9-14.6-8-34.7-3.6-50.3-3.2-25.1.6-50.5 1.1-75.6.2-11.7-.5-23.2-2.2-34.9-2.9-9.9-.6-20.7.9-30.3-1.9-3.5-1-4.5 3.9-1.9 5.6 13.4 8.7 32.2 8.6 47.6 10.9 23.2 3.5 46.4 2.6 69.8 3.2 11.4.3 22.7.8 34.1.9h1.7c.1 0 .2 0 .3.1 5.9 1.3 11.6 3.2 16.9 6.1 5 2.7 7.8 7.4 8.3 13 .1 1 .1 2 0 3-2.2 5.8-5.1 11.4-9.1 16.1-.5.6-1.1 1.2-1.7 1.7-.7.1-1.4.3-2.1.4-13.7 2.4-27.9 2.1-41.8 1.9-13.5-.2-26.8-.2-40.2 1.5-16 2-32.5 5.1-48.7 3.7-2.6-.2-3.4 3.3-.8 4 28.9 7.9 61 3.8 90.7 5.4 13.3.7 26.6 1.2 39.8-.2 1.4.1 2.8-.1 4.2-.5.2 0 .4-.1.6-.1 4.6-.7 11.3-1.9 17.5-4.2 14.7 13.5 50.3-52.6 54.3-62.1 3-6.6-2.8-12.8-9.5-11zm-19.9 20.6c.6-.1 1.1-.2 1.7-.3-.6.5-1.1.9-1.7 1.4v-1.1z" fill="#f4c1b8" opacity="1" data-original="#f4c1b8"></path></g><path fill="#ef9152" d="M417.8 189c-12.4 5.3-25.4 7.1-38.5 8-1.2-.3-2.5-.3-4 .1-.2.1-.4.1-.6.2-17 .9-34.1.7-50.5 4.9-.1-2.7-2.5-5.2-5-5.8-9.1-2.4-21.3 3.8-30.5 5.3-11.2 1.8-22.6 2.3-34 2.4-9.9-.4-19.7-.9-29.5-1.6-26-1.8-51.9-3.7-77.8-6-20.7-1.9-42.4-7.4-63.2-4.2-.9-.6-1.8-1.2-2.7-1.9-3.1-2.5-7.6.5-6.4 4.3.4 1.3 1 2.5 1.7 3.7-7.9 9.4 1.7 32.5 3.9 41.5 6.4 25.8 4.9 52.9 11.4 78.9 4.5 18.2 5 41.1 21.7 51-.7 3.3 1.4 6.6 5.2 6.4 9.8-.5 19.4 1.8 28.9 4h.2c.1 0 .2 0 .3.1 1.2.3 2.5.5 3.7.8 10 2.1 20.2 3.4 30.1 3.4 23.4 1.5 47 3.8 70.5 2.9 11.2-.4 22.5-1.3 33.8-2.4 6.4.5 12.8.9 19.1 1.1 25.2.9 48.9-4.1 72.5-11.7 2.9 4 9.5 5.4 12.8.9 2.3-3.2 4.1-6.7 5.6-10.5.2-.1.4-.2.7-.3 2.8-1.6 3.3-5.3 2.2-8.1 1.4-5 2.5-10.1 3.5-14.9 3.1-14.2 5.7-28.5 8.7-42.7 3.1-14.7 6.2-29.3 8.4-44.1 1.9-12.9 4.1-27.6.5-40.5 2.1-4.8 5-9.5 6.8-14.1 2.4-6.1-2.6-14.1-9.5-11.1z" opacity="1" data-original="#ef9152"></path><path fill="#dd673e" d="M416.6 189.3c-8 3.9-16.8 4.4-25.2 6.7-.2-1-.4-2-.7-2.9-.9-3.5-6.6-3-7 .5-2 14.3-2.1 28.7-3.5 43.1-1.6 16.6-4.7 33.1-8.4 49.4-3.7 16.4-8.5 32.6-14.2 48.4-4.2 6.5-8.6 12.7-14.9 17.9-6.5 5.4-13.9 9.4-21.6 12.9-21.9 2.4-44 3.2-66 3.6-23.7.4-47.4-.1-71.2-.3-11.8-.1-23.5-.3-35.3 0s-23.1 2.2-34.9 3.1c-2.6.2-3.1 4.6-.3 4.8 11.5.8 22.8 2.9 34.4 3.7 9.5.6 18.9 1.1 28.4 1.6.4 1.2 1.3 2.3 2.7 2.7 19.9 6.1 43 4 63.4 2.8 20.3-1.2 40.6-3.8 61-3.2 16.8.5 33.6 2 50.5 1 11.2-.7 33.5-2.5 38.8-14.3.1-.2.1-.4.2-.6 2.5-.9 4.6-2.9 5-5.8 4.3-30.9 22.8-63.8 17-95.3-.3-1.8-1.4-3.1-2.7-3.8 4.6-21.9 4.5-44.9 13.4-65.8 2.2-5.3-2.7-13.2-8.9-10.2z" opacity="1" data-original="#dd673e"></path><path fill="#f9c26b" d="M386 191.7c-12.3.4-24.8 2.8-37.1 3.9-12.5 1-25 2.3-37.5 3.6-26.4 2.7-53.5-.4-80-.3-26.3.2-52.2.4-78.4-2.2-21.3-2.1-45-7.7-66.8-5.3-.4-1.1-.9-2.1-1.5-3.2-1.5-2.6-5.6-2.1-6.8.5-.8 1.7-1.3 3.4-1.8 5.3-.5.8-.7 1.8-.5 2.8-1.8 12.4 2.4 27.2 4.6 38.6 3.2 17.1 7.4 34 10.5 51.1 2.9 15.6 7.3 30.2 12.6 45.2 2.7 7.6 5.2 15.3 7.1 23.1 1.7 6.7 1.7 13.7 5.4 19.7 2 3.3 6.7 2.4 8.4-.6 6.5-11.6-1-29-4.8-40.5-5.3-16-11.1-31.3-14-47.9-2.9-16.5-6.9-32.8-10.4-49.2-1.1-5.1-2.1-10.2-3-15.4 1-2.3 1.2-4.9 1.8-7.3.6-2.5 1.7-4.9 3.4-6.9.7-.8 1.7-1.2 2.7-1.5 5.5.6 11 1.1 16.4 1.7 12.5 1.5 25.1 2.8 37.7 4.1 26.2 2.6 52.1 2.2 78.3 2.1 26.9-.2 52.9-3.4 79.6-5.7 12.5-1.1 25-2.5 37.6-3.1 12.4-.6 26.3-.5 38-5.1 4-1.8 2.8-7.6-1.5-7.5z" opacity="1" data-original="#f9c26b"></path><path fill="#a54b28" d="M454.7 113c-6.1-10.4-9.4-22.2-7.8-34.2.9-6.7-6.1-12.1-12.1-8-10 6.7-23.5 5.6-35.1 6.9-15.4 1.8-30.8 3.7-46.3 5.3-31.5 3.3-62.9 4-94.6 2.9-31.9-1.1-63.7-1.5-95.6-1.2-30.5.3-61-3.8-91.4-3.3v-.6c-.4-2.9-4-3.5-5.4-1.1-2.8 4.6-4.8 10.6-3.2 16-2 7-2.9 14.4-4.5 21.4-2.3 1.3-3.4 3.4-3.5 5.5h-.1c-3.5-.8-4.8 4.1-1.9 5.7 13.3 7.5 25.2 11.1 40.4 12.7 15.1 1.6 30.2 1.6 45.3 2.8 17.1 1.3 34.3 1.8 51.4 1.9 5.9.1 11.7-.1 17.6-.2 15.3 1.4 30.5 2.7 45.9 3.6 34.1 2 67.2-1 101-5.4 29.8-3.9 63.6-5.6 91.3-18.5 5.6 1.5 12.6-5.4 8.6-12.2z" opacity="1" data-original="#a54b28"></path><path fill="#a54b28" d="M428.1 56.3c-.4-.4-.7-.8-1-1.3.3-.3.6-.7.8-1.1 6.5-10.1-8.9-20-16.4-23.3-1.9-.8-3.8-1.5-5.7-2.2-1.1-1.4-2.6-2.4-4.8-2.9-15.6-3.6-31.7-5.3-47.9-6.2-11-1.9-21.9-3.9-33.1-4.6-16.9-1.1-33.8-.1-50.6 1.3-18.2-1.1-36.3-2.2-54.5-2-30.9.4-63.2.5-93.6 6.3-6.9 1.3-13.5 3.5-18.5 7.7-1 0-2.1.5-3 1.4-5.8 5.8-10.2 11.9-12.6 19.7-1.1 3.7-1.2 7.8-1.6 11.7-3.6 2-5.6 5.3-7.7 9.1-1.4 2.4-.4 5.5 1.5 7.3 11.9 11.2 36 8.2 51.1 9.4 23.7 1.9 47.3 1.9 71.1 2.2 24.9.2 49.9.4 74.8.1 11.9-.2 23.7-.5 35.5-1 11.4-.5 25 .5 35.7-4 2.6-1.1 4-3.2 4.4-5.4h7c21.6-.2 43.5-5.1 64.8-8.6 6.7-1.4 8.9-8.6 4.3-13.6z" opacity="1" data-original="#a54b28"></path><g fill="#cc814e"><path d="M400 18.5c-4.8-1.6-10.1-2.2-15.1-1.3-12.9-4.2-26-3.8-39.6-3.2-18.2.8-36.1-1.7-54.2-3.3-3.7-.3-7.4-.5-11.1-.7-18.7-2.6-38.9-1.3-56.9-1-25.3.3-50.8 1.5-75.8 5-32.8 4.6-63.2 21.6-66.8 57.7-.4 4.2 4.2 7.3 7.4 5.6 4.6 3.7 12.4 4.1 17.6 3.4 3.6-.5 5.7-2.6 6.7-5.9 1.9-6.1 3-12.4 4.2-18.7.6-2.9 1.4-5.5 2.4-7.9 18.1-.3 36.5 3.1 54.6 2.7 18.4-.5 40.8-.4 58.2-8.2 3.7-.2 7.5-.4 11.2-.5 43.4-1.3 87.6 6.5 130-3.9 10.3.9 22.2-3.5 29.7-7.9 5.4-3.2 2.3-10.3-2.5-11.9zm-247.1 8.8c-.2 0-.5 0-.7-.1.2 0 .5-.1.7-.1zm-28.5 11.4c.4-.5.8-1.1 1.2-1.6.5-.7.8-1.4 1-2.2 2.3 1.3 4.7 2.4 7.1 3.3-3.1 0-6.2.1-9.3.5zM323.9 86.6c-19.5-4.1-41-.5-60.9-.6-21.2-.1-42.5-1.1-63.8-1.4-21.2-.2-42.3-.4-63.5-.5-17.6-.1-36.3-1.3-53.8 1.9-.9-2.2-3.7-3.2-5.9-1.8-1-2.4-4.6-2.1-6-.1-2-.4-4.4.7-5.1 3.2-1 3.6-1.2 7.6-1.8 11.4-.5 3.1-1.2 6.3-1.4 9.5-1.8 5.2-3.5 10.6-3.2 16.1.1 1.7.8 2.9 1.9 3.6-.4 3.9 3.8 6.3 7.3 5.8 1 2.4 4.6 2.9 6.3.9 4-4.8 4.3-11.3 6.4-17.1 1.8-4.9 4.4-9.3 8-13.1 2.3-2.4 5.2-4.2 8.5-5.7 13.2.6 26.8-.2 39.7-.2l63.5.3c21.2.1 42.3-1.2 63.5-2.3 19.6-1 41.7.7 60.4-6 2-.8 1.8-3.5-.1-3.9zm-244 11.9c.1-.5.3-1.1.4-1.6.3.1.7.1 1 .2-.5.4-.9.9-1.4 1.4z" fill="#cc814e" opacity="1" data-original="#cc814e"></path></g><path fill="#851919" d="M64.1 80c11.6 5.7 25.1 7.2 37.8 8.7 17.1 2 34.3 2.9 51.5 3.5 38.3 1.3 76.6.4 114.8-1.5 35.6-1.8 71.2-4.6 106.6-8.6 22-2.5 45.7-3.9 66.9-10.7 5.7-1.8 3.4-10.1-2.5-8.9-56 11.6-113.9 15.6-171 18.5-37.5 1.9-75 2.8-112.5 1.8-16.6-.5-33.3-1.4-49.8-3.1-13.5-1.4-27-4.2-40.5-4.3-2.4 0-3.6 3.5-1.3 4.6z" opacity="1" data-original="#851919"></path><path fill="#851919" d="M61.9 78c-8.5 14.4-8.7 34-12.3 50-1.1 4.9 6 6.9 7.5 2.1 5.1-15.8 6.7-33.8 9.5-50.2.4-2.7-3.2-4.5-4.7-1.9zM440.3 67.5c-2.7 18.8 7.3 38.4 12.7 55.9 1.7 5.5 10.3 3.2 8.6-2.4-2.7-9-5.7-17.8-8.6-26.7-2.8-8.9-4.6-18.2-8.2-26.8-.6-1.9-4.1-2.6-4.5 0z" opacity="1" data-original="#851919"></path><path fill="#851919" d="M49.9 132c16.4 12.8 43.1 14.1 62.9 16.6 36.1 4.5 72.6 5.8 109 6 41.8.2 83.7-1.7 125.3-6 37.5-3.8 77.2-8.3 112.9-20.8 5.3-1.9 3.2-9.8-2.3-8.4-35.8 8.8-71.3 15.9-108 19.9-40.7 4.4-81.8 6.2-122.7 6.3-57.5.1-118.9-.6-174.1-18.5-2.8-.9-5.4 3-3 4.9zM77.3 80.2c7.4-10.5 9-24.6 14.2-36.2 2.7-6 6.2-12.3 11.9-15.8 3-1.9 8.5-1.9 7.6-6.7-.3-1.8-2.1-2.6-3.7-2.8C83.8 15.8 73.2 63 73.6 79.3c.1 1.9 2.6 2.4 3.7.9z" opacity="1" data-original="#851919"></path><path fill="#851919" d="M97.8 27.2c8.3 3.1 21.3-1.5 29.9-2.8 14.1-2.1 28.3-3.5 42.5-4.6 32.7-2.6 65.5-3.5 98.2-3.4 30.1.1 60.2 1.2 90.1 4.3 18.8 1.9 38.3 4.3 55.8 11.9 4.5 1.9 10.1-3.6 5.7-7.4-13.3-11.3-37.6-12.1-54.1-14.1-30.7-3.7-61.8-4.7-92.8-5-33.6-.3-67.3.6-100.8 3.3-14.6 1.2-29.2 2.7-43.8 4.8-9.2 1.3-25.4 1.8-31.7 9.5-1 1.2-.5 2.9 1 3.5z" opacity="1" data-original="#851919"></path><path fill="#851919" d="M412.3 28.6c3.5 5.9 7.2 11 9.6 17.5 2.4 6.4 2.7 12.8 4.1 19.3.9 3.9 7.6 4.2 8.2 0 1.2-7.7-1.8-16.4-4.6-23.5-2.6-6.5-6.9-15.4-14.4-17.2-2.2-.5-4.2 1.8-2.9 3.9zM113.3 37.3c11.5 6.8 26 7.5 39 8.7 24.6 2.2 49.7 2 74.4 1.9 29.2-.1 58.5-.8 87.6-2.1 14.5-.6 29-1.3 43.4-2.6 11.3-1 25.1-.4 35.5-5.3 2-1 1.5-4.2-.6-4.7-10.9-2.4-23.8.8-34.9 1.5-13.6.9-27.1 2.2-40.7 3-28.4 1.8-56.7 2.9-85.1 3.3-24.6.3-49.3.2-73.9-1-8.9-.4-17.8-.8-26.7-1.6-5.9-.6-12-.1-17.8-1.7-.3-.1-.5.4-.2.6zM70.3 187.2c11.1 5.9 24.2 7.8 36.5 9.8 14.8 2.4 29.6 4.1 44.5 5.4 32.1 2.9 64.4 3.6 96.7 3.2 31.8-.4 63.7-2.1 95.4-4.9 26.3-2.3 53.7-4.2 79.5-10.1 5-1.1 4-9.6-1.2-9.1-26.2 2.9-52.1 7.2-78.3 9.5-30.7 2.7-61.6 4.3-92.4 4.8-31.3.5-62.7-.1-94-2.5-15.1-1.1-30.1-2.8-45.1-5-13.3-2-26.9-5.7-40.4-5.8-2.3 0-3.4 3.5-1.2 4.7zM108.3 375.6c17.9 11.7 44.7 13.1 65.4 15.5 26.1 3.1 52.4 3.9 78.6 3.6 25.9-.3 51.7-1.9 77.5-4.6 21.3-2.2 43.6-4.1 64.4-9.4 4.5-1.1 3.6-8.8-1.1-8.2-21.1 2.7-42 6.7-63.3 8.9-24.7 2.6-49.6 4-74.5 4.5-25.3.5-50.7-.3-75.9-2.8-12.4-1.2-24.7-3-36.9-5.4-10.9-2.1-21.9-5.8-32.9-6.3-2.5 0-3 3.1-1.3 4.2z" opacity="1" data-original="#851919"></path><path fill="#851919" d="M70.4 185.6c-.6 11.6 1.6 23.5 3.1 34.9 2.5 18 5.7 36 9.1 53.9 6.5 34.5 13.3 70 26.1 102.8 1.8 4.5 9 2.5 7.3-2-12.6-32-19.2-66.6-25.7-100.2-5.8-29.9-8.7-60.3-14.8-90.1-.7-3-5-2.1-5.1.7zM422.8 187.2c-3 12.6-2.4 26.6-3.9 39.5-2.3 20-5.3 40-8.6 59.8-5.2 31.1-12.3 61-20.6 91.3-1 3.8 4.2 5.9 6.2 2.6 6.2-9.9 8-24.2 10.5-35.4 4.3-18.8 7.9-37.6 11.2-56.6 3.3-19.2 6.1-38.4 8.3-57.8 1.5-13.4 5.5-30.5 1.5-43.6-.5-2-4-2.2-4.6.2zM78.3 141.5c.3 7.3.9 14.5 1.6 21.8s.6 15.2 3 22.1c1.1 3.3 5.5 2.6 5.9-.8 1.3-13.6-3.2-30.7-7.1-43.6-.5-1.8-3.5-1.5-3.4.5zM418.1 137.2c-1.9 7-2.1 14.3-2.9 21.6-1 9.3-3 18.5-3.8 27.8-.3 3.9 5.8 4.6 6.8.9 4-15.1 7-34.8 4.3-50.3-.4-2.2-3.8-2-4.4 0zM124.1 381.3c4 27.8 9.3 65.5 40.4 74.9 28.5 8.7 61.1 8.2 90.6 8.2 15.8 0 31.6-.5 47.3-1.8 10.9-.9 22.4-1.8 32.8-5.5 13.6-4.9 23-19.3 30.3-30.9 8.8-13.9 16.5-30.2 18.9-46.6.8-5.6-7.7-8.1-8.6-2.4-2.4 14.9-9.3 29.4-16.4 42.5-6.3 11.6-15 25.8-28.4 29.8-23.9 7-51.3 6.4-75.9 6.5-27.9.1-57.1-.2-84.4-6.6-34.4-8.1-28.4-45-42.5-69.7-1.3-2.5-4.4-.8-4.1 1.6z" opacity="1" data-original="#851919"></path><path fill="#f9c26b" d="M180.1 357.2c8.9 8.3 28.7 15 39.9 8.9 5-2.7 8.2-8.4 10.4-13.5 3.4-7.8 5.3-7.2 13.2-9.4 8.1-2.3 7.2-12.9 0-15.6-12-4.4-23 3.6-27.9 14.2-2.1 4.6-2.9 9.1-7.8 11.2-8.6 3.7-16.8-1.6-25.4-1.5-2.8.2-4.5 3.7-2.4 5.7zM270.7 376.3c-3.6-5.9-5-14-4.9-20.8 0-3.3 1.1-6.3 2.5-9.3.6-1.3 1.2-2.4 2.2-3.4.1-.1-.8.5-1 .4 3.7.9 7.3 5.8 10.2 8 2.4 1.7 4.6 2.7 7.6 2.1.2 0 .5-.1.7-.1 1.7-.7 1.9-.8.5-.2 1 .4 2.1.6 3.1.9 2.8.8 4.1-2.9 1.9-4.5-.7-.5-1.3-1.2-1.8-1.9-.5 3.3-.4 3.8.4 1.5.5-1.8.4-4.4-.7-5.9-2.2-3.2-4.7-5.9-7.6-8.4-5.5-4.8-13.7-9.6-20.9-5.2-8.1 4.8-11.2 15.2-11.6 24.1-.2 5 1.9 9.8 3.9 14.2 2.5 5.4 6.3 8.3 10.8 12 2.6 1.9 6.5-.6 4.7-3.5z" opacity="1" data-original="#f9c26b"></path><g fill="#dd673e" opacity=".5"><path d="M325.2 372.1c-8.2-3.2-19.6.4-28.3.7-10.1.3-20.9-.7-30.9 1-2.4.4-3.3 4-1.5 5.5 7.9 6.5 18.9 7.6 28.8 8.2 10 .6 26.8.9 34.1-7 2.9-2.9 1.3-7-2.2-8.4zM242.5 356.6c-4.2 1.6-6.1 3.5-8.9 7-4 4.9-10 7.4-15.8 9.3-10.9 3.5-22.7 3.4-33.4 7.6-1.9.8-3 3.8-.6 4.9 12.6 5.8 27.8 4.8 40.9 1.2 11.2-3.1 27.8-12.2 25.2-25.8-.7-3.1-4.5-5.3-7.4-4.2z" fill="#dd673e" opacity="1" data-original="#dd673e"></path></g><path fill="#f0618c" d="M214.7 306.4c10.4-5.6 17.3-12.1 29.3-14.9 7.3-1.7 14-1 20.7 2.3 5.3 2.6 7.3 5.5 13.4 5 2.7-.2 4.8-2 4.8-4.8.4-16.1-24-20.9-36.5-19-14.4 2.2-32 13.6-36.1 28.3-.5 2.3 2.2 4.3 4.4 3.1z" opacity="1" data-original="#f0618c"></path><path fill="#ff93b8" d="M281.7 298.3c-18.5-15.4-43.7-12.2-62.6.6l-1.5.3c-2.6.7-4.3 2.6-5.1 4.8-.4.3-.7.6-1.1.9-1.5 1.4-.7 3.5.8 4.2.6 2.5 2.4 4.6 5.4 5.2 18.9 4 39.1-3.4 58.4-2.5 6.7.4 11-9.1 5.7-13.5z" opacity="1" data-original="#ff93b8"></path><g fill="#ffeee6"><path d="M206.7 462.6c-10.9-1.7-22-1.2-32.7-4.2-2.3-.6-3.8 2.2-2.3 3.9-.2.6-.1 1.2.3 1.7.2.3.5.6.7.9-4.2 3.6-6.4 10.2-6.2 15.4.3 8.1 4.7 16.1 12.6 18.9 8.1 2.9 15.2-2.5 19.4-8.9 3.1-4.6 4.7-9.8 5.3-15.2h.9c3.3 0 5.3-2.3 5.7-4.9.5-1.2.5-2.3.3-3.7-.2-1.6-2.3-3.6-4-3.9zM336.8 456.7c-8.4 2.7-17.3 3.7-25.9 5-4.7.7-9.4 1.5-14.1 1.9.3.5.6.9 1 1.2 2.1 1.6 4.4 2.2 6.7 2.4-3.7 8.4 1 18.2 9.4 22.7 9.7 5.1 23.5 2.6 26.9-9.1 2.1-7 0-16.2-4.8-22.3.4-.6.6-1.2.8-1.8z" fill="#ffeee6" opacity="1" data-original="#ffeee6"></path></g><g fill="#f4c1b8"><path d="M214.9 462.7c-5.2-3.5-12.2-2.2-18.2-2.6-7.3-.5-14.8-1.5-21.8-3.5-3.4-1-4.8 3.5-2.3 5.4.7.5 1.5 1.1 2.2 1.6.1.4.3.7.6 1 5.6 4.6 11.3 6 18.2 7.2-.2 3.5 0 6.5-1.9 9.9-1.9 3.3-4.7 5.9-6.7 9.2-.6.9-2.7 6.3-1.6 6.2 9.1-.3 20-14.4 21-23.5 4.9.5 9.7.1 12.4-4.2.6-1 .7-2.3.2-3.4-.2-1.4-.9-2.5-2.1-3.3zM333.8 457.6c-7.5 2-15.3 2.9-22.9 4.1-3.9.6-7.9 1.2-11.8 1.7 4 4 11.3 3.6 16.4 2.5 1.4-.3 2.9-.7 4.6-1.1.1 0 .1.1.2.2 4.8 2.9 6.8 7.1 7.1 12.7.3 5.2-2.9 10.2-1.7 15.3.4 1.6 2.1 2.5 3.6 2.1 7.3-2 8.3-12.6 8.4-18.9.1-6.1-1.9-12.1-5.5-16.9.6-.6 1.1-1.2 1.6-1.7z" fill="#f4c1b8" opacity="1" data-original="#f4c1b8"></path></g><path fill="#851919" d="M185.4 350.8c6.4 3.1 23.8 11.7 30.3 4.3 3.2-3.6 4.8-8.6 6.3-13.2 1.1-3.4 1.6-6.7 4.8-9 6-4.3 14.4-3.3 18.4 2.8 4.1 6.1 3.7 15.4 3.4 22.4-.5 9.8-4.2 18.6-13.9 22.3-7.8 3.1-17.5 2.2-25.7 2-9-.2-18.6-3.4-27.4-.6-3.5 1.1-3.9 6.6 0 7.4 10.4 2.4 22.1 2.4 32.8 2.3 10.2-.1 19.2-1.2 28-6.7 13.5-8.5 15.5-28.2 13.2-42.5-2.8-17.5-17.2-23.7-32.5-15.8-5.7 2.9-6.8 10.1-8.6 15.5-1.5 4.9-2.5 8.6-7.9 8.5-6.6 0-13.5-1.5-19.8-3.5-2-.4-3.4 2.9-1.4 3.8z" opacity="1" data-original="#851919"></path><path fill="#851919" d="M318.9 347.3c-5.7 1.8-11.6 2.9-17.5 3.4s-7.2-.7-9.4-6.1c-2.8-6.8-3.2-13.2-9.4-17.8-14.9-11.1-29.3 1-32.5 15.8-3.2 15 .7 33.1 13.2 42.5 7.3 5.5 16.4 6.3 25.2 6.6 11.5.4 24.3.3 35.5-2.3 3.9-.9 3.5-6.3 0-7.4-7.7-2.5-16.2-.3-24.1.4-8.8.8-17.7.2-26.4-1.2-18.7-3.2-18.9-28.9-14.3-42.9 4.1-12.4 20.5-9 23.8 1.6 1.4 4.6 2.9 10.6 6.2 14.3 7.2 8.2 23.5.3 31.1-3.4 2.1-.9.7-4.2-1.4-3.5zM168.3 454c-5.4 13.5-17.9 44.7 3.7 51 24 7 40.9-26.3 50-42.9 2.4-4.5-3.9-8-6.7-3.9-7.7 11.1-22.1 40.9-38.8 38.3-15.4-2.4-1.9-32.3-1.4-41.6.2-4.1-5.4-4.2-6.8-.9zM293.6 459.9c.9 13.9 16.3 47.2 34.8 41.8 21.3-6.3 17.2-35.2 9.7-51-1.7-3.6-7.7-1.8-7.4 2 .6 10.7 11.5 33.6-2.8 39.6-13.9 5.8-22.7-26.3-28.3-34-1.7-2.3-6.2-1.8-6 1.6zM338.5 236.9c0 21.3-14.7 41-32.8 41s-32-17.2-32.8-41c-.7-21.3 9-43.4 33.6-44.2 25.4-.9 32 22.9 32 44.2z" opacity="1" data-original="#851919"></path><g fill="#fff"><path d="M327.9 213.2c-.6-.7-1.2-1.3-1.9-1.9-1.3-3.3-3.9-5.9-8-7.3-7.5-2.7-15 2.9-18.4 9.2-3.7 6.9-3.9 17.2.9 23.6 4.1 5.5 10.4 7.1 16.9 6 5.7-1 11.3-5.1 13.9-10.3 3.4-6.8 1.1-13.8-3.4-19.3zM294.2 244.7c-4 0-4 6.1 0 6.1s4-6.1 0-6.1z" fill="#ffffff" opacity="1" data-original="#ffffff"></path></g><path fill="#851919" d="M227.2 236.9c0 21.3-14.7 41-32.8 41s-32-17.2-32.8-41c-.7-21.3 9-43.4 33.6-44.2 25.5-.9 32 22.9 32 44.2z" opacity="1" data-original="#851919"></path><g fill="#fff"><path d="M216.6 215.1c-.6-.7-1.2-1.3-1.9-1.9-1.3-3.3-3.9-5.9-8-7.3-7.5-2.7-15 2.9-18.4 9.2-3.7 6.9-3.9 17.2.9 23.6 4.1 5.5 10.4 7.1 16.9 6 5.7-1 11.3-5.1 13.9-10.3 3.4-6.8 1.1-13.8-3.4-19.3zM182.9 246.6c-4 0-4 6.1 0 6.1s4-6.1 0-6.1z" fill="#ffffff" opacity="1" data-original="#ffffff"></path></g><path fill="#851919" d="M207.2 168.9c-6.4 9.6-12.4 16.7-22.6 22.5-4.9 2.8-10.3 4.5-15.7 5.9-4.6 1.2-9.2.8-13.3 3.4-2.9 1.9-3.6 7 0 8.7 11 5.2 27.8-3.1 37.5-8.7 10.5-6.1 20.8-17.2 21.1-29.9 0-3.9-5-4.9-7-1.9zM297.9 165.1c.6 13 6 24.5 15.2 33.7 7.2 7.2 25.3 19 34.7 11.4 1.7-1.4 1.5-3.8.7-5.6-2.3-4.9-6.9-5.2-11.7-6.8-5.4-1.7-10.5-4.3-14.9-7.9-8.3-6.9-12.6-17.6-18.7-26.3-1.5-2.2-5.5-1.6-5.3 1.5zM209.1 311.6c9.1-10.9 16-23 29.1-29.8 15.6-8.1 30 3.4 38.8 15.7 1.5 2 3.6 4.9 3.9 7.5-.1-.5-1.3.2-2.9.6-5.8 1.4-12.3.8-18.1.8-16.5 0-33.5 1.8-49.6-2.8 1.6 2.1 3.2 4.3 4.9 6.4-.3-2.8.6-4.8.5-7.6-.1-1.8-1.5-3.3-3.3-3.3-5.7 0-8.8 4-10.2 9.2-1 3.5 1.1 7.2 4.6 8.2 21.2 5.9 45.6 3.8 67.4 2.6 16.4-.9 24.5-10.8 15.7-26-10.4-18-29.1-30.7-50.2-25.6-18.4 4.4-34.3 23.2-36.5 41.6-.5 3 4.1 4.8 5.9 2.5z" opacity="1" data-original="#851919"></path><path fill="#f48ca3" d="M361.4 325.7c-19.8 4-40.7-5-43.8-20.7s10.5-30.9 32.5-36c19.7-4.6 42-.3 47 20.8 5.1 21.8-15.9 32-35.7 35.9zM134.4 329.4c19.8 4 40.7-5.1 43.8-20.7 3.1-15.7-10.5-30.9-32.5-36-19.7-4.6-42-.3-47 20.8-5.1 21.9 15.9 32 35.7 35.9z" opacity="1" data-original="#f48ca3"></path><g fill="#f34d65"><path d="M345.6 296.6c-1-.3-2.2.3-2.5 1.4-.1.6-.3 1.2-.5 1.8-.2.8-.7 1.4-.9 2.2-.3.9.2 1.9 1 2.4 1.1.6 2.2.2 2.9-.8 1-1.3 1.7-3.5 1.4-5.1-.1-.8-.5-1.6-1.4-1.9zM353.7 297.8c-.1.8-.2 1.6-.4 2.3-.3.9-.6 1.8 0 2.7.3.6 1 .8 1.6.6 2.4-.4 2-4 1.9-5.7-.3-1.8-2.9-1.8-3.1.1zM370 295.9c-.3-1.9-3.3-1.7-3.6 0-.2.7-.4 1.5-.7 2.2-.5 1.1-1.1 2.4-.3 3.5.3.5.8.9 1.4.8 1.5-.1 2.3-1.4 2.8-2.6.5-1.4.6-2.5.4-3.9z" fill="#f34d65" opacity="1" data-original="#f34d65"></path></g><g fill="#f34d65"><path d="M150.2 300.4c1-.3 2.2.3 2.5 1.4.1.6.3 1.2.5 1.8.2.8.7 1.4.9 2.2.3.9-.2 1.9-1 2.4-1.1.6-2.2.2-2.9-.8-1-1.3-1.7-3.5-1.4-5.1.1-.9.5-1.7 1.4-1.9zM142.1 301.5c.1.8.2 1.6.4 2.3.3.9.5 1.8 0 2.7-.3.6-.9.8-1.6.6-2.4-.4-2-4-1.9-5.7.3-1.8 2.9-1.8 3.1.1zM125.8 299.6c.3-1.9 3.3-1.7 3.6 0 .2.7.4 1.5.7 2.2.5 1.1 1 2.4.3 3.5-.3.5-.8.9-1.4.8-1.5-.1-2.3-1.4-2.8-2.6-.5-1.4-.6-2.5-.4-3.9z" fill="#f34d65" opacity="1" data-original="#f34d65"></path></g><g fill="#f2f5fe"><path d="M375.7 284.7c-.1 0-.2-.1-.2-.1.6.3.5.2.2.1zM376.4 275.4c-1.7-.7-3.6-.5-4.6 1.2-.9 1.6-.3 3.6 1.2 4.5l.2.2s0 .1.1.1c0 .1.6 1.5.5 1.4.2.4.3.7.7 1.1.1.1.8.5 1.2.7.7.3 1.4.3 2 .1.1 0 .2-.1.3-.1 1.3-.6 1.9-1.6 2.1-3 .3-2.5-1.5-5.2-3.7-6.2zm-3.1 6c.2.2.2.2 0 0zM120.1 288.4c.1 0 .2-.1.2-.1-.6.3-.5.3-.2.1zM115.6 285.3c.2 1.4.8 2.5 2.1 3.1.1 0 .2.1.3.1.6.2 1.3.2 2-.1.4-.2 1.1-.7 1.2-.7.4-.4.5-.7.7-1.1 0 .1.5-1.3.5-1.4 0 0 0-.1.1-.1l.2-.2c1.5-1 2.1-2.9 1.2-4.5-1-1.7-2.9-1.9-4.6-1.2-2.1.9-3.9 3.6-3.7 6.1zm6.9-.2c-.2.3-.2.3 0 0z" fill="#f2f5fe" opacity="1" data-original="#f2f5fe"></path></g></g></svg>