<svg xmlns="http://www.w3.org/2000/svg" version="1.1" xmlns:xlink="http://www.w3.org/1999/xlink" width="512" height="512" x="0" y="0" viewBox="0 0 508.4 510" style="enable-background:new 0 0 512 512" xml:space="preserve" class=""><g><clipPath id="h"><path d="M-14.2-8.7h535.9v519.2H-14.2z" fill="#000000" opacity="1" data-original="#000000"></path></clipPath><linearGradient id="a"><stop offset=".594"></stop><stop offset=".745" stop-color="#020202"></stop><stop offset=".8" stop-color="#090909"></stop><stop offset=".839" stop-color="#141414"></stop><stop offset=".87" stop-color="#252525"></stop><stop offset=".897" stop-color="#3b3b3b"></stop><stop offset=".921" stop-color="#575757"></stop><stop offset=".942" stop-color="#777"></stop><stop offset=".962" stop-color="#9d9d9d"></stop><stop offset=".981" stop-color="#c8c8c8"></stop><stop offset=".997" stop-color="#f6f6f6"></stop><stop offset="1" stop-color="#fff"></stop></linearGradient><linearGradient xlink:href="#a" id="i" x1="7719.093" x2="7719.093" y1="-3201.94" y2="-3249.868" gradientTransform="rotate(180 4048.721 -1481.22)" gradientUnits="userSpaceOnUse"></linearGradient><linearGradient xlink:href="#a" id="j" x1="7968.143" x2="7968.143" y1="-3203.714" y2="-3251.636" gradientTransform="rotate(180 4048.721 -1481.22)" gradientUnits="userSpaceOnUse"></linearGradient><clipPath id="b"><path d="M1 1h1L1 2z" fill="#000000" opacity="1" data-original="#000000"></path></clipPath><clipPath id="f" clip-path="url(#b)"><path d="M-1-1h-1l1-1z" fill="#000000" opacity="1" data-original="#000000"></path></clipPath><filter id="c" width="148.7" height="49.9" x="178.6" y="226"><feColorMatrix values="1 0 0 0 0 0 1 0 0 0 0 0 1 0 0 0 0 0 1 0"></feColorMatrix></filter><mask id="k" width="148.7" height="49.9" x="178.6" y="226" maskUnits="userSpaceOnUse"><g filter="url(#c)"><path fill="url(#e)" d="M327.3 251c0 13.8-33.3 24.9-74.4 24.9-41 0-74.3-11.2-74.3-24.9 0-13.8 33.3-25 74.3-25 41.1 0 74.4 11.2 74.4 25z" clip-path="url(#d)" opacity="1" data-original="url(#e)"></path></g></mask><clipPath id="g" clip-path="url(#f)"><path d="M1 1h1L1 2z" fill="#000000" opacity="1" data-original="#000000"></path></clipPath><clipPath id="d" clip-path="url(#g)"><path d="M-1-1h-1l1-1z" fill="#000000" opacity="1" data-original="#000000"></path></clipPath><radialGradient id="e" cx="501.735" cy="1159.495" r="36.747" gradientTransform="matrix(2.023 0 0 -.679 -762.16 1038.247)" gradientUnits="userSpaceOnUse"><stop offset="0" stop-color="#fff"></stop><stop offset=".085" stop-color="#f5f5f5"></stop><stop offset=".232" stop-color="#d9d9d9"></stop><stop offset=".423" stop-color="#acacac"></stop><stop offset=".65" stop-color="#6e6e6e"></stop><stop offset=".905" stop-color="#1f1f1f"></stop><stop offset="1"></stop></radialGradient><g clip-path="url(#h)"><path fill="#a87c4f" d="M309.8 436.8H197.7s-32.2 50.3-17 144.5h146c15.3-94.1-16.9-144.5-16.9-144.5z" opacity="1" data-original="#a87c4f"></path><path d="M326.7 586.4h-146c-2.5 0-4.6-1.8-5-4.3-15.4-95 16.3-145.9 17.7-148 .9-1.5 2.6-2.3 4.3-2.3h112.1c1.7 0 3.3.9 4.3 2.3 1.4 2.1 33.1 53.1 17.7 148-.4 2.5-2.6 4.3-5.1 4.3zm-141.6-10.2h137.3c11.5-77.5-9.9-123.7-15.6-134.3H200.6c-5.6 10.7-27 57.1-15.5 134.3z" fill="#000000" opacity="1" data-original="#000000"></path><circle cx="96.2" cy="56" r="50" fill="#a87c4f" opacity="1" data-original="#a87c4f"></circle><path d="M96.2 111.1c-30.4 0-55.1-24.7-55.1-55.1S65.8.9 96.2.9s55.1 24.7 55.1 55.1-24.7 55.1-55.1 55.1zm0-100c-24.8 0-44.9 20.2-44.9 44.9s20.2 44.9 44.9 44.9 44.9-20.2 44.9-44.9S121 11.1 96.2 11.1z" fill="#000000" opacity="1" data-original="#000000"></path><circle cx="96.2" cy="56" r="20" fill="#4a3723" opacity="1" data-original="#4a3723"></circle><path d="M96.2 77.7c-12 0-21.7-9.7-21.7-21.7s9.7-21.7 21.7-21.7S117.9 44 117.9 56s-9.7 21.7-21.7 21.7zm0-40c-10.1 0-18.3 8.2-18.3 18.3s8.2 18.3 18.3 18.3 18.3-8.2 18.3-18.3-8.2-18.3-18.3-18.3z" fill="#000000" opacity="1" data-original="#000000"></path><circle cx="411.4" cy="56" r="50" fill="#a87c4f" opacity="1" data-original="#a87c4f"></circle><path d="M411.4 111.1c-30.4 0-55.1-24.7-55.1-55.1S381 .9 411.4.9s55.1 24.7 55.1 55.1-24.8 55.1-55.1 55.1zm0-100c-24.8 0-44.9 20.2-44.9 44.9s20.2 44.9 44.9 44.9 44.9-20.2 44.9-44.9-20.2-44.9-44.9-44.9z" fill="#000000" opacity="1" data-original="#000000"></path><circle cx="411.4" cy="56" r="20" fill="#4a3723" opacity="1" data-original="#4a3723"></circle><path d="M411.4 77.7c-12 0-21.7-9.7-21.7-21.7s9.7-21.7 21.7-21.7S433.1 44 433.1 56s-9.8 21.7-21.7 21.7zm0-40c-10.1 0-18.3 8.2-18.3 18.3s8.2 18.3 18.3 18.3 18.3-8.2 18.3-18.3-8.2-18.3-18.3-18.3z" fill="#000000" opacity="1" data-original="#000000"></path><path fill="#a87c4f" d="m465.5 265.1-8.4-57.9C448.5 101.3 360 19.8 253.8 19.8c-106.2 0-194.7 81.5-203.4 187.3l-8.4 58c-23 18.2-36.3 39.6-36.3 62.6 0 66.3 111.1 120 248.1 120s248.1-53.7 248.1-120c0-23-13.3-44.4-36.4-62.6z" opacity="1" data-original="#a87c4f"></path><path d="M253.8 452.8c-67 0-130.1-12.7-177.7-35.7C27.4 393.5.6 361.8.6 327.7c0-23.2 12.7-45.8 36.7-65.3l8.1-55.9c4.3-52.2 28-100.7 66.7-136.4s89.1-55.3 141.7-55.3 103 19.6 141.7 55.3 62.4 84.2 66.7 136.7l8.1 55.6c24 19.5 36.7 42 36.7 65.3 0 34.1-26.8 65.9-75.5 89.4-47.6 23-110.7 35.7-177.7 35.7zm0-427.9C151 24.9 63.9 105.1 55.5 207.6l-8.4 58.2c-.2 1.3-.9 2.5-1.9 3.3-22.5 17.8-34.4 38.1-34.4 58.6 0 63.4 109 114.9 243 114.9s243-51.6 243-114.9c0-20.5-11.9-40.8-34.4-58.6-1-.8-1.7-2-1.9-3.3l-8.4-57.9c-8.4-102.8-95.5-183-198.3-183z" fill="#000000" opacity="1" data-original="#000000"></path><circle cx="253.8" cy="327.9" r="73.2" fill="#ffffff" opacity="1" data-original="#ffffff"></circle><path fill="#ffffff" d="M241.6 347.2c0 7.5 6.1 13.6 13.6 13.6s13.6-6.1 13.6-13.6-6.1-13.6-13.6-13.6c7.5 0 13.6-6.1 13.6-13.5 0-7.5-6.1-13.6-13.6-13.6s-13.6 6.1-13.6 13.6" opacity="1" data-original="#ffffff"></path><path d="M255.2 365.9c-10.3 0-18.6-8.4-18.6-18.6 0-2.8 2.3-5.1 5.1-5.1s5.1 2.3 5.1 5.1c0 4.7 3.8 8.5 8.5 8.5s8.5-3.8 8.5-8.5c0-2.3-.9-4.4-2.5-6s-3.7-2.5-6-2.5c-2.8 0-5.1-2.3-5.1-5.1s2.3-5.1 5.1-5.1c2.3 0 4.4-.9 6-2.5s2.5-3.7 2.5-6-.9-4.4-2.5-6-3.7-2.5-6-2.5-4.4.9-6 2.5-2.5 3.7-2.5 6c0 2.8-2.3 5.1-5.1 5.1s-5.1-2.3-5.1-5.1c0-5 1.9-9.7 5.5-13.2 3.5-3.5 8.2-5.5 13.2-5.5s9.6 1.9 13.2 5.5c3.5 3.5 5.5 8.2 5.5 13.2s-1.9 9.7-5.5 13.2l-.4.4c.1.1.3.2.4.4 3.5 3.5 5.5 8.2 5.5 13.2-.2 10.2-8.6 18.6-18.8 18.6zM144.4 236h-1.1c-2.8-.1-5-2.4-4.9-5.3.1-2.8 2.4-5 5.3-4.9 7.9.2 13.3-3.3 16.4-6.3 4-3.9 6.1-8.7 6.1-11.5s2.3-5.1 5.1-5.1 5.1 2.3 5.1 5.1c0 6-3.6 13.4-9.2 18.8-6.2 6-14.2 9.2-22.8 9.2zM367.6 236c-8.6 0-16.6-3.2-22.7-9.2-5.6-5.4-9.2-12.8-9.2-18.8 0-2.8 2.3-5.1 5.1-5.1s5.1 2.3 5.1 5.1 2.1 7.6 6.1 11.5c3.1 3 8.5 6.5 16.4 6.3 2.7-.1 5.2 2.1 5.3 4.9s-2.1 5.2-4.9 5.3h-1.2z" fill="#000000" opacity="1" data-original="#000000"></path><g opacity=".8"><path fill="#ffffff" d="M120.1 300.8c-3.2 5.3-6 9-6 15 0 9.7 6.8 15.2 15.2 15.2 8.4 0 15.2-6.1 15.2-15.2 0-5.6-2.8-9.7-6-15" opacity="1" data-original="#ffffff"></path><path fill="#babcbe" d="M129.3 334.4c-11 0-18.6-7.7-18.6-18.6 0-6.2 2.7-10.5 5.5-15l1.1-1.7c1-1.6 3.1-2.1 4.7-1.1s2.1 3.1 1.1 4.7l-1.1 1.8c-2.6 4.1-4.4 7.1-4.4 11.4 0 7.2 4.6 11.8 11.8 11.8 6.9 0 11.8-5 11.8-11.8 0-4.2-2-7.4-4.7-12l-.8-1.3c-1-1.6-.4-3.7 1.2-4.7s3.7-.4 4.7 1.2l.8 1.3c2.9 4.8 5.7 9.4 5.7 15.5-.2 10.5-8.2 18.5-18.8 18.5z" opacity="1" data-original="#babcbe"></path></g><path fill="#a87c4f" d="M200.8 438s-26.2 2.5-27.3 25.1c-.9 18.1 10.2 25.2 18.7 28.7 18.6 7 35.4-7.1 35.4-25.4l-.3-7z" opacity="1" data-original="#a87c4f"></path><path d="M201.8 498.7c-3.8 0-7.7-.7-11.5-2.1-15.4-6.4-22.7-17.7-22-33.7 1-21.4 21.3-28.9 31.9-29.9 1.3-.1 2.6.3 3.7 1.1l26.5 21.4c1.1.9 1.8 2.3 1.9 3.8l.3 7c0 11.1-5.1 21.2-13.8 27.2-5 3.4-10.9 5.2-17 5.2zm-2.5-55.4c-5.4 1-20.1 5.1-20.8 20-.7 15 7.9 20.6 15.5 23.8 6.6 2.5 13.4 1.8 19-2.1 5.9-4.1 9.4-11.1 9.4-18.7l-.2-4.5z" fill="#000000" opacity="1" data-original="#000000"></path><path fill="#a87c4f" d="m226.2 476.1 7.9-42.9 9.1-8.3c1-.8 2.9-3.5 2.9-5.5v-5.5h3.3c2.6 0 4.7-2.1 4.7-4.7s-2.1-4.7-4.7-4.7h-8.1c-.9 0-3.6.5-4.3.8l-23.6 15-28.5 38.1" opacity="1" data-original="#a87c4f"></path><path d="M226.2 481.2c-.3 0-.6 0-.9-.1-2.8-.5-4.6-3.2-4.1-5.9l7.9-42.9c.2-1.1.8-2.1 1.6-2.8l9.1-8.3c.5-.4 1.2-1.5 1.3-2V414c0-1.8.9-3.3 2.2-4.2h-2c-.3 0-1.5.2-2.1.4l-22.3 14.1-28 37.3c-1.7 2.3-4.9 2.7-7.1 1s-2.7-4.9-1-7.1l28.5-38.1c.4-.5.8-.9 1.3-1.2l23.6-15c.2-.1.3-.2.5-.3 1.7-.8 5.4-1.3 6.5-1.3h8.1c5.4 0 9.7 4.4 9.7 9.7 0 4.8-3.4 8.7-8 9.6v.6c0 4.3-3.5 8.3-4.7 9.4l-7.7 7-7.6 41.3c-.3 2.3-2.4 4-4.8 4z" fill="#000000" opacity="1" data-original="#000000"></path><path fill="#a87c4f" d="M309 438s26.2 2.5 27.3 25.1c.9 18.1-10.2 25.2-18.7 28.7-18.6 7-35.4-7.1-35.4-25.4l.3-7z" opacity="1" data-original="#a87c4f"></path><path d="M308 498.7c-6.1 0-11.9-1.8-17-5.3-8.6-6-13.8-16.1-13.8-27l.3-7.2c.1-1.5.7-2.8 1.9-3.8l26.5-21.4c1-.8 2.3-1.2 3.7-1.1 10.6 1 30.9 8.6 31.9 29.9.8 16-6.6 27.3-21.8 33.7-3.9 1.5-7.9 2.2-11.7 2.2zm-20.4-36.8-.2 4.7c0 7.4 3.5 14.4 9.4 18.5 5.5 3.8 12.3 4.6 19.1 2 7.5-3.1 16.1-8.7 15.4-23.7s-15.4-19-20.8-20z" fill="#000000" opacity="1" data-original="#000000"></path><path fill="#a87c4f" d="m283.7 476.1-7.9-42.9-9.1-8.3c-1-.8-2.9-3.5-2.9-5.5v-5.5h-3.3c-2.6 0-4.7-2.1-4.7-4.7s2.1-4.7 4.7-4.7h8.1c.9 0 3.6.5 4.3.8l23.6 15 28.5 38.1" opacity="1" data-original="#a87c4f"></path><path d="M283.7 481.2c-2.4 0-4.5-1.7-5-4.2l-7.6-41.3-7.8-7.1c-1.2-1-4.6-4.9-4.6-9.3v-.6c-4.5-.8-8-4.8-8-9.6 0-5.4 4.4-9.7 9.7-9.7h8.1c1.2 0 4.9.5 6.5 1.3.2.1.3.2.5.3l23.6 15c.5.3 1 .8 1.3 1.2l28.5 38.1c1.7 2.2 1.2 5.4-1 7.1s-5.4 1.2-7.1-1l-28-37.3-22.3-14.1c-.6-.1-1.8-.3-2.2-.4h-1.9c1.4.9 2.3 2.5 2.3 4.2v5.5c.1.2.8 1.3 1.2 1.7l9.1 8.3c.8.7 1.4 1.7 1.6 2.8l7.9 42.9c.5 2.8-1.3 5.4-4.1 5.9-.1.3-.4.3-.7.3zM348.4 263.5c0 16.6 13.4 30 30 30 16.5 0 30-13.4 30-30s-13.4-30-30-30-30.1 13.4-30 30z" fill="#000000" opacity="1" data-original="#000000"></path><path fill="url(#a)" d="M354.4 263.5c0 13.3 10.7 24 23.9 24s24-10.7 24-24-10.7-24-24-24c-13.2 0-24 10.7-23.9 24z" opacity="1" data-original="url(#a)"></path><path fill="#ffffff" d="M372.8 245c0 3 2.4 5.5 5.5 5.5 3 0 5.5-2.5 5.5-5.5s-2.5-5.5-5.5-5.5-5.5 2.5-5.5 5.5z" opacity="1" data-original="#ffffff"></path><path d="M99.3 265.2c0 16.6 13.4 30 30 30s30-13.4 30-30-13.4-29.9-30-30c-16.6.1-30 13.5-30 30z" fill="#000000" opacity="1" data-original="#000000"></path><path fill="url(#a)" d="M105.3 265.2c0 13.2 10.7 24 24 24 13.2 0 24-10.7 24-24 0-13.2-10.8-24-24-24-13.3.1-24 10.8-24 24z" opacity="1" data-original="url(#a)"></path><path fill="#ffffff" d="M123.8 246.8c0 3 2.4 5.5 5.5 5.5 3 0 5.5-2.5 5.5-5.5s-2.5-5.5-5.5-5.5c-3.1 0-5.5 2.4-5.5 5.5z" opacity="1" data-original="#ffffff"></path><path d="m274.6 291-20.8 20.8L233 291c-9-9-2.6-24.4 10.1-24.4h21.4c12.7 0 19.1 15.4 10.1 24.4z" fill="#000000" opacity="1" data-original="#000000"></path><path fill="url(#e)" d="M327.3 251c0 13.8-33.3 24.9-74.4 24.9-41 0-74.3-11.2-74.3-24.9 0-13.8 33.3-25 74.3-25 41.1 0 74.4 11.2 74.4 25z" clip-path="url(#f)" mask="url(#k)" opacity="1" data-original="url(#e)"></path></g></g></svg>