<svg xmlns="http://www.w3.org/2000/svg" version="1.1" xmlns:xlink="http://www.w3.org/1999/xlink" width="512" height="512" x="0" y="0" viewBox="0 0 452.4 508.2" style="enable-background:new 0 0 512 512" xml:space="preserve" class=""><g><clipPath id="a"><path d="M1 1h1L1 2z" fill="#000000" opacity="1" data-original="#000000"></path></clipPath><clipPath id="e" clip-path="url(#a)"><path d="M-1-1h-1l1-1z" fill="#000000" opacity="1" data-original="#000000"></path></clipPath><filter id="b" width="261.2" height="41.8" x="96.7" y="466.4"><feColorMatrix values="1 0 0 0 0 0 1 0 0 0 0 0 1 0 0 0 0 0 1 0"></feColorMatrix></filter><mask id="bT" width="261.2" height="41.8" x="96.7" y="466.4" maskUnits="userSpaceOnUse"><g filter="url(#b)"><path fill="url(#d)" d="M357.9 487.3c0 11.5-58.5 20.9-130.6 20.9s-130.6-9.3-130.6-20.9c0-11.5 58.5-20.9 130.6-20.9 72.1.1 130.6 9.4 130.6 20.9z" clip-path="url(#c)" opacity="1" data-original="url(#d)"></path></g></mask><clipPath id="f" clip-path="url(#e)"><path d="M1 1h1L1 2z" fill="#000000" opacity="1" data-original="#000000"></path></clipPath><clipPath id="g" clip-path="url(#e)"><path d="M1 1h1L1 2z" fill="#000000" opacity="1" data-original="#000000"></path></clipPath><clipPath id="h" clip-path="url(#g)"><path d="M-1-1h-1l1-1z" fill="#000000" opacity="1" data-original="#000000"></path></clipPath><clipPath id="i" clip-path="url(#e)"><path d="M1 1h1L1 2z" fill="#000000" opacity="1" data-original="#000000"></path></clipPath><clipPath id="j" clip-path="url(#e)"><path d="M1 1h1L1 2z" fill="#000000" opacity="1" data-original="#000000"></path></clipPath><clipPath id="k" clip-path="url(#j)"><path d="M-1-1h-1l1-1z" fill="#000000" opacity="1" data-original="#000000"></path></clipPath><clipPath id="l" clip-path="url(#e)"><path d="M1 1h1L1 2z" fill="#000000" opacity="1" data-original="#000000"></path></clipPath><clipPath id="m" clip-path="url(#l)"><path d="M-1-1h-1l1-1z" fill="#000000" opacity="1" data-original="#000000"></path></clipPath><clipPath id="n" clip-path="url(#m)"><path d="M1 1h1L1 2z" fill="#000000" opacity="1" data-original="#000000"></path></clipPath><clipPath id="o" clip-path="url(#e)"><path d="M1 1h1L1 2z" fill="#000000" opacity="1" data-original="#000000"></path></clipPath><clipPath id="p" clip-path="url(#e)"><path d="M1 1h1L1 2z" fill="#000000" opacity="1" data-original="#000000"></path></clipPath><clipPath id="q" clip-path="url(#p)"><path d="M-1-1h-1l1-1z" fill="#000000" opacity="1" data-original="#000000"></path></clipPath><clipPath id="r" clip-path="url(#e)"><path d="M1 1h1L1 2z" fill="#000000" opacity="1" data-original="#000000"></path></clipPath><clipPath id="s" clip-path="url(#r)"><path d="M-1-1h-1l1-1z" fill="#000000" opacity="1" data-original="#000000"></path></clipPath><clipPath id="t" clip-path="url(#s)"><path d="M1 1h1L1 2z" fill="#000000" opacity="1" data-original="#000000"></path></clipPath><clipPath id="u" clip-path="url(#e)"><path d="M1 1h1L1 2z" fill="#000000" opacity="1" data-original="#000000"></path></clipPath><clipPath id="v" clip-path="url(#u)"><path d="M-1-1h-1l1-1z" fill="#000000" opacity="1" data-original="#000000"></path></clipPath><clipPath id="w" clip-path="url(#v)"><path d="M1 1h1L1 2z" fill="#000000" opacity="1" data-original="#000000"></path></clipPath><clipPath id="x" clip-path="url(#w)"><path d="M-1-1h-1l1-1z" fill="#000000" opacity="1" data-original="#000000"></path></clipPath><clipPath id="y" clip-path="url(#e)"><path d="M1 1h1L1 2z" fill="#000000" opacity="1" data-original="#000000"></path></clipPath><clipPath id="z" clip-path="url(#y)"><path d="M-1-1h-1l1-1z" fill="#000000" opacity="1" data-original="#000000"></path></clipPath><clipPath id="A" clip-path="url(#z)"><path d="M1 1h1L1 2z" fill="#000000" opacity="1" data-original="#000000"></path></clipPath><clipPath id="B" clip-path="url(#A)"><path d="M-1-1h-1l1-1z" fill="#000000" opacity="1" data-original="#000000"></path></clipPath><clipPath id="C" clip-path="url(#B)"><path d="M1 1h1L1 2z" fill="#000000" opacity="1" data-original="#000000"></path></clipPath><clipPath id="c" clip-path="url(#C)"><path d="M-1-1h-1l1-1z" fill="#000000" opacity="1" data-original="#000000"></path></clipPath><radialGradient id="d" cx="279.27" cy="-8392.5" r="138.621" gradientTransform="matrix(.942 0 0 -.15 -35.772 -774.161)" gradientUnits="userSpaceOnUse"><stop offset="0" stop-color="#fff"></stop><stop offset=".135" stop-color="#e3e3e3"></stop><stop offset=".427" stop-color="#9b9b9b"></stop><stop offset=".851" stop-color="#292929"></stop><stop offset="1"></stop></radialGradient><radialGradient id="bU" cx="279.27" cy="-8392.5" r="138.621" gradientTransform="matrix(.942 0 0 -.15 -35.772 -774.161)" gradientUnits="userSpaceOnUse"><stop offset="0"></stop><stop offset=".141" stop-color="#040404" stop-opacity=".859"></stop><stop offset=".269" stop-color="#0f0f0f" stop-opacity=".731"></stop><stop offset=".391" stop-color="#212121" stop-opacity=".609"></stop><stop offset=".51" stop-color="#3b3b3b" stop-opacity=".49"></stop><stop offset=".628" stop-color="#5d5d5d" stop-opacity=".372"></stop><stop offset=".743" stop-color="#868686" stop-opacity=".257"></stop><stop offset=".857" stop-color="#b6b6b6" stop-opacity=".143"></stop><stop offset=".967" stop-color="#ededed" stop-opacity=".033"></stop><stop offset="1" stop-color="#fff" stop-opacity="0"></stop></radialGradient><clipPath id="D"><path d="M1 1h1L1 2z" fill="#000000" opacity="1" data-original="#000000"></path></clipPath><clipPath id="H" clip-path="url(#D)"><path d="M-1-1h-1l1-1z" fill="#000000" opacity="1" data-original="#000000"></path></clipPath><filter id="E" width="148.2" height="148.2" x="266.2" y="179"><feColorMatrix values="1 0 0 0 0 0 1 0 0 0 0 0 1 0 0 0 0 0 1 0"></feColorMatrix></filter><mask id="bV" width="148.2" height="148.2" x="266.2" y="179" maskUnits="userSpaceOnUse"><g filter="url(#E)"><circle cx="340.3" cy="253.1" r="74.1" fill="url(#G)" clip-path="url(#F)" opacity="1" data-original="url(#G)"></circle></g></mask><clipPath id="I" clip-path="url(#H)"><path d="M1 1h1L1 2z" fill="#000000" opacity="1" data-original="#000000"></path></clipPath><clipPath id="J" clip-path="url(#H)"><path d="M1 1h1L1 2z" fill="#000000" opacity="1" data-original="#000000"></path></clipPath><clipPath id="K" clip-path="url(#J)"><path d="M-1-1h-1l1-1z" fill="#000000" opacity="1" data-original="#000000"></path></clipPath><clipPath id="L" clip-path="url(#H)"><path d="M1 1h1L1 2z" fill="#000000" opacity="1" data-original="#000000"></path></clipPath><clipPath id="M" clip-path="url(#H)"><path d="M1 1h1L1 2z" fill="#000000" opacity="1" data-original="#000000"></path></clipPath><clipPath id="N" clip-path="url(#M)"><path d="M-1-1h-1l1-1z" fill="#000000" opacity="1" data-original="#000000"></path></clipPath><clipPath id="O" clip-path="url(#H)"><path d="M1 1h1L1 2z" fill="#000000" opacity="1" data-original="#000000"></path></clipPath><clipPath id="P" clip-path="url(#O)"><path d="M-1-1h-1l1-1z" fill="#000000" opacity="1" data-original="#000000"></path></clipPath><clipPath id="Q" clip-path="url(#P)"><path d="M1 1h1L1 2z" fill="#000000" opacity="1" data-original="#000000"></path></clipPath><clipPath id="R" clip-path="url(#H)"><path d="M1 1h1L1 2z" fill="#000000" opacity="1" data-original="#000000"></path></clipPath><clipPath id="S" clip-path="url(#H)"><path d="M1 1h1L1 2z" fill="#000000" opacity="1" data-original="#000000"></path></clipPath><clipPath id="T" clip-path="url(#S)"><path d="M-1-1h-1l1-1z" fill="#000000" opacity="1" data-original="#000000"></path></clipPath><clipPath id="U" clip-path="url(#H)"><path d="M1 1h1L1 2z" fill="#000000" opacity="1" data-original="#000000"></path></clipPath><clipPath id="V" clip-path="url(#U)"><path d="M-1-1h-1l1-1z" fill="#000000" opacity="1" data-original="#000000"></path></clipPath><clipPath id="W" clip-path="url(#V)"><path d="M1 1h1L1 2z" fill="#000000" opacity="1" data-original="#000000"></path></clipPath><clipPath id="X" clip-path="url(#H)"><path d="M1 1h1L1 2z" fill="#000000" opacity="1" data-original="#000000"></path></clipPath><clipPath id="Y" clip-path="url(#X)"><path d="M-1-1h-1l1-1z" fill="#000000" opacity="1" data-original="#000000"></path></clipPath><clipPath id="Z" clip-path="url(#Y)"><path d="M1 1h1L1 2z" fill="#000000" opacity="1" data-original="#000000"></path></clipPath><clipPath id="aa" clip-path="url(#Z)"><path d="M-1-1h-1l1-1z" fill="#000000" opacity="1" data-original="#000000"></path></clipPath><clipPath id="ab" clip-path="url(#H)"><path d="M1 1h1L1 2z" fill="#000000" opacity="1" data-original="#000000"></path></clipPath><clipPath id="ac" clip-path="url(#ab)"><path d="M-1-1h-1l1-1z" fill="#000000" opacity="1" data-original="#000000"></path></clipPath><clipPath id="ad" clip-path="url(#ac)"><path d="M1 1h1L1 2z" fill="#000000" opacity="1" data-original="#000000"></path></clipPath><clipPath id="ae" clip-path="url(#ad)"><path d="M-1-1h-1l1-1z" fill="#000000" opacity="1" data-original="#000000"></path></clipPath><clipPath id="af" clip-path="url(#ae)"><path d="M1 1h1L1 2z" fill="#000000" opacity="1" data-original="#000000"></path></clipPath><clipPath id="F" clip-path="url(#af)"><path d="M-1-1h-1l1-1z" fill="#000000" opacity="1" data-original="#000000"></path></clipPath><linearGradient id="ag"><stop offset="0" stop-color="#fff"></stop><stop offset=".085" stop-color="#f5f5f5"></stop><stop offset=".232" stop-color="#d9d9d9"></stop><stop offset=".423" stop-color="#acacac"></stop><stop offset=".65" stop-color="#6e6e6e"></stop><stop offset=".905" stop-color="#1f1f1f"></stop><stop offset="1"></stop></linearGradient><radialGradient xlink:href="#ag" id="G" cx="312.069" cy="-2267.473" r="78.662" gradientTransform="matrix(.942 0 0 -.942 46.331 -1882.859)" gradientUnits="userSpaceOnUse"></radialGradient><clipPath id="ah"><path d="M1 1h1L1 2z" fill="#000000" opacity="1" data-original="#000000"></path></clipPath><clipPath id="al" clip-path="url(#ah)"><path d="M-1-1h-1l1-1z" fill="#000000" opacity="1" data-original="#000000"></path></clipPath><filter id="ai" width="148.2" height="148.2" x="38" y="180"><feColorMatrix values="1 0 0 0 0 0 1 0 0 0 0 0 1 0 0 0 0 0 1 0"></feColorMatrix></filter><mask id="bW" width="148.2" height="148.2" x="38" y="180" maskUnits="userSpaceOnUse"><g filter="url(#ai)"><path fill="url(#ag)" d="M186.2 254.1c0 40.9-33.2 74.1-74.1 74.1C71.2 328.1 38 295 38 254.1S71.2 180 112.1 180s74.1 33.1 74.1 74.1z" clip-path="url(#aj)" opacity="1" data-original="url(#ag)"></path></g></mask><clipPath id="am" clip-path="url(#al)"><path d="M1 1h1L1 2z" fill="#000000" opacity="1" data-original="#000000"></path></clipPath><clipPath id="an" clip-path="url(#al)"><path d="M1 1h1L1 2z" fill="#000000" opacity="1" data-original="#000000"></path></clipPath><clipPath id="ao" clip-path="url(#an)"><path d="M-1-1h-1l1-1z" fill="#000000" opacity="1" data-original="#000000"></path></clipPath><clipPath id="ap" clip-path="url(#al)"><path d="M1 1h1L1 2z" fill="#000000" opacity="1" data-original="#000000"></path></clipPath><clipPath id="aq" clip-path="url(#al)"><path d="M1 1h1L1 2z" fill="#000000" opacity="1" data-original="#000000"></path></clipPath><clipPath id="ar" clip-path="url(#aq)"><path d="M-1-1h-1l1-1z" fill="#000000" opacity="1" data-original="#000000"></path></clipPath><clipPath id="as" clip-path="url(#al)"><path d="M1 1h1L1 2z" fill="#000000" opacity="1" data-original="#000000"></path></clipPath><clipPath id="at" clip-path="url(#as)"><path d="M-1-1h-1l1-1z" fill="#000000" opacity="1" data-original="#000000"></path></clipPath><clipPath id="au" clip-path="url(#at)"><path d="M1 1h1L1 2z" fill="#000000" opacity="1" data-original="#000000"></path></clipPath><clipPath id="av" clip-path="url(#al)"><path d="M1 1h1L1 2z" fill="#000000" opacity="1" data-original="#000000"></path></clipPath><clipPath id="aw" clip-path="url(#al)"><path d="M1 1h1L1 2z" fill="#000000" opacity="1" data-original="#000000"></path></clipPath><clipPath id="ax" clip-path="url(#aw)"><path d="M-1-1h-1l1-1z" fill="#000000" opacity="1" data-original="#000000"></path></clipPath><clipPath id="ay" clip-path="url(#al)"><path d="M1 1h1L1 2z" fill="#000000" opacity="1" data-original="#000000"></path></clipPath><clipPath id="az" clip-path="url(#ay)"><path d="M-1-1h-1l1-1z" fill="#000000" opacity="1" data-original="#000000"></path></clipPath><clipPath id="aA" clip-path="url(#az)"><path d="M1 1h1L1 2z" fill="#000000" opacity="1" data-original="#000000"></path></clipPath><clipPath id="aB" clip-path="url(#al)"><path d="M1 1h1L1 2z" fill="#000000" opacity="1" data-original="#000000"></path></clipPath><clipPath id="aC" clip-path="url(#aB)"><path d="M-1-1h-1l1-1z" fill="#000000" opacity="1" data-original="#000000"></path></clipPath><clipPath id="aD" clip-path="url(#aC)"><path d="M1 1h1L1 2z" fill="#000000" opacity="1" data-original="#000000"></path></clipPath><clipPath id="aE" clip-path="url(#aD)"><path d="M-1-1h-1l1-1z" fill="#000000" opacity="1" data-original="#000000"></path></clipPath><clipPath id="aF" clip-path="url(#al)"><path d="M1 1h1L1 2z" fill="#000000" opacity="1" data-original="#000000"></path></clipPath><clipPath id="aG" clip-path="url(#aF)"><path d="M-1-1h-1l1-1z" fill="#000000" opacity="1" data-original="#000000"></path></clipPath><clipPath id="aH" clip-path="url(#aG)"><path d="M1 1h1L1 2z" fill="#000000" opacity="1" data-original="#000000"></path></clipPath><clipPath id="aI" clip-path="url(#aH)"><path d="M-1-1h-1l1-1z" fill="#000000" opacity="1" data-original="#000000"></path></clipPath><clipPath id="aJ" clip-path="url(#aI)"><path d="M1 1h1L1 2z" fill="#000000" opacity="1" data-original="#000000"></path></clipPath><clipPath id="aj" clip-path="url(#aJ)"><path d="M-1-1h-1l1-1z" fill="#000000" opacity="1" data-original="#000000"></path></clipPath><radialGradient xlink:href="#ag" id="ak" cx="69.819" cy="-2268.534" r="78.662" gradientTransform="matrix(.942 0 0 -.942 46.331 -1882.859)" gradientUnits="userSpaceOnUse"></radialGradient><linearGradient id="aK"><stop offset=".57" stop-color="#fff"></stop><stop offset="1" stop-color="#fff" stop-opacity="0"></stop></linearGradient><radialGradient xlink:href="#aK" id="bX" cx="5099.1" cy="-3852.522" r="60.916" gradientTransform="rotate(180 2567.334 -1710.912) scale(.942)" gradientUnits="userSpaceOnUse"></radialGradient><linearGradient id="aL"><stop offset=".594"></stop><stop offset=".745" stop-color="#020202"></stop><stop offset=".8" stop-color="#090909"></stop><stop offset=".839" stop-color="#141414"></stop><stop offset=".87" stop-color="#252525"></stop><stop offset=".897" stop-color="#3b3b3b"></stop><stop offset=".921" stop-color="#575757"></stop><stop offset=".942" stop-color="#777"></stop><stop offset=".962" stop-color="#9d9d9d"></stop><stop offset=".981" stop-color="#c8c8c8"></stop><stop offset=".997" stop-color="#f6f6f6"></stop><stop offset="1" stop-color="#fff"></stop></linearGradient><linearGradient xlink:href="#aL" id="bY" x1="5269.449" x2="5269.449" y1="-3856.94" y2="-3911.94" gradientTransform="rotate(180 2800.374 -1839.22)" gradientUnits="userSpaceOnUse"></linearGradient><radialGradient xlink:href="#aK" id="bZ" cx="5322.154" cy="-3852.575" r="60.828" gradientTransform="rotate(180 2567.334 -1710.912) scale(.942)" gradientUnits="userSpaceOnUse"></radialGradient><linearGradient xlink:href="#aL" id="ca" x1="5479.548" x2="5479.548" y1="-3858.94" y2="-3913.94" gradientTransform="rotate(180 2800.374 -1839.22)" gradientUnits="userSpaceOnUse"></linearGradient><clipPath id="aM"><path d="M1 1h1L1 2z" fill="#000000" opacity="1" data-original="#000000"></path></clipPath><clipPath id="aQ" clip-path="url(#aM)"><path d="M-1-1h-1l1-1z" fill="#000000" opacity="1" data-original="#000000"></path></clipPath><filter id="aN" width="34.7" height="34.8" x="179.8" y="236.5"><feColorMatrix values="1 0 0 0 0 0 1 0 0 0 0 0 1 0 0 0 0 0 1 0"></feColorMatrix></filter><mask id="cb" width="34.7" height="34.8" x="179.8" y="236.5" maskUnits="userSpaceOnUse"><g filter="url(#aN)"><path fill="url(#bp)" d="M214.5 253.9c0 9.6-7.8 17.4-17.3 17.4-9.6 0-17.4-7.8-17.4-17.4s7.8-17.4 17.4-17.4c9.5.1 17.3 7.9 17.3 17.4z" clip-path="url(#aO)" opacity="1" data-original="url(#bp)"></path></g></mask><clipPath id="aR" clip-path="url(#aQ)"><path d="M1 1h1L1 2z" fill="#000000" opacity="1" data-original="#000000"></path></clipPath><clipPath id="aS" clip-path="url(#aQ)"><path d="M1 1h1L1 2z" fill="#000000" opacity="1" data-original="#000000"></path></clipPath><clipPath id="aT" clip-path="url(#aS)"><path d="M-1-1h-1l1-1z" fill="#000000" opacity="1" data-original="#000000"></path></clipPath><clipPath id="aU" clip-path="url(#aQ)"><path d="M1 1h1L1 2z" fill="#000000" opacity="1" data-original="#000000"></path></clipPath><clipPath id="aV" clip-path="url(#aQ)"><path d="M1 1h1L1 2z" fill="#000000" opacity="1" data-original="#000000"></path></clipPath><clipPath id="aW" clip-path="url(#aV)"><path d="M-1-1h-1l1-1z" fill="#000000" opacity="1" data-original="#000000"></path></clipPath><clipPath id="aX" clip-path="url(#aQ)"><path d="M1 1h1L1 2z" fill="#000000" opacity="1" data-original="#000000"></path></clipPath><clipPath id="aY" clip-path="url(#aX)"><path d="M-1-1h-1l1-1z" fill="#000000" opacity="1" data-original="#000000"></path></clipPath><clipPath id="aZ" clip-path="url(#aY)"><path d="M1 1h1L1 2z" fill="#000000" opacity="1" data-original="#000000"></path></clipPath><clipPath id="ba" clip-path="url(#aQ)"><path d="M1 1h1L1 2z" fill="#000000" opacity="1" data-original="#000000"></path></clipPath><clipPath id="bb" clip-path="url(#aQ)"><path d="M1 1h1L1 2z" fill="#000000" opacity="1" data-original="#000000"></path></clipPath><clipPath id="bc" clip-path="url(#bb)"><path d="M-1-1h-1l1-1z" fill="#000000" opacity="1" data-original="#000000"></path></clipPath><clipPath id="bd" clip-path="url(#aQ)"><path d="M1 1h1L1 2z" fill="#000000" opacity="1" data-original="#000000"></path></clipPath><clipPath id="be" clip-path="url(#bd)"><path d="M-1-1h-1l1-1z" fill="#000000" opacity="1" data-original="#000000"></path></clipPath><clipPath id="bf" clip-path="url(#be)"><path d="M1 1h1L1 2z" fill="#000000" opacity="1" data-original="#000000"></path></clipPath><clipPath id="bg" clip-path="url(#aQ)"><path d="M1 1h1L1 2z" fill="#000000" opacity="1" data-original="#000000"></path></clipPath><clipPath id="bh" clip-path="url(#bg)"><path d="M-1-1h-1l1-1z" fill="#000000" opacity="1" data-original="#000000"></path></clipPath><clipPath id="bi" clip-path="url(#bh)"><path d="M1 1h1L1 2z" fill="#000000" opacity="1" data-original="#000000"></path></clipPath><clipPath id="bj" clip-path="url(#bi)"><path d="M-1-1h-1l1-1z" fill="#000000" opacity="1" data-original="#000000"></path></clipPath><clipPath id="bk" clip-path="url(#aQ)"><path d="M1 1h1L1 2z" fill="#000000" opacity="1" data-original="#000000"></path></clipPath><clipPath id="bl" clip-path="url(#bk)"><path d="M-1-1h-1l1-1z" fill="#000000" opacity="1" data-original="#000000"></path></clipPath><clipPath id="bm" clip-path="url(#bl)"><path d="M1 1h1L1 2z" fill="#000000" opacity="1" data-original="#000000"></path></clipPath><clipPath id="bn" clip-path="url(#bm)"><path d="M-1-1h-1l1-1z" fill="#000000" opacity="1" data-original="#000000"></path></clipPath><clipPath id="bo" clip-path="url(#bn)"><path d="M1 1h1L1 2z" fill="#000000" opacity="1" data-original="#000000"></path></clipPath><clipPath id="aO" clip-path="url(#bo)"><path d="M-1-1h-1l1-1z" fill="#000000" opacity="1" data-original="#000000"></path></clipPath><linearGradient id="bp"><stop offset=".309" stop-color="#fff"></stop><stop offset=".715" stop-color="#fff"></stop><stop offset="1"></stop></linearGradient><radialGradient xlink:href="#bp" id="aP" cx="160.105" cy="-2268.322" r="18.413" gradientTransform="matrix(.942 0 0 -.942 46.331 -1882.859)" gradientUnits="userSpaceOnUse"></radialGradient><clipPath id="bq"><path d="M1 1h1L1 2z" fill="#000000" opacity="1" data-original="#000000"></path></clipPath><clipPath id="bu" clip-path="url(#bq)"><path d="M-1-1h-1l1-1z" fill="#000000" opacity="1" data-original="#000000"></path></clipPath><filter id="br" width="34.8" height="34.8" x="237.9" y="236.5"><feColorMatrix values="1 0 0 0 0 0 1 0 0 0 0 0 1 0 0 0 0 0 1 0"></feColorMatrix></filter><mask id="cc" width="34.8" height="34.8" x="237.9" y="236.5" maskUnits="userSpaceOnUse"><g filter="url(#br)"><path fill="url(#bp)" d="M272.7 253.9c0 9.6-7.8 17.4-17.4 17.4s-17.4-7.8-17.4-17.4 7.8-17.4 17.4-17.4c9.6.1 17.4 7.9 17.4 17.4z" clip-path="url(#bs)" opacity="1" data-original="url(#bp)"></path></g></mask><clipPath id="bv" clip-path="url(#bu)"><path d="M1 1h1L1 2z" fill="#000000" opacity="1" data-original="#000000"></path></clipPath><clipPath id="bw" clip-path="url(#bu)"><path d="M1 1h1L1 2z" fill="#000000" opacity="1" data-original="#000000"></path></clipPath><clipPath id="bx" clip-path="url(#bw)"><path d="M-1-1h-1l1-1z" fill="#000000" opacity="1" data-original="#000000"></path></clipPath><clipPath id="by" clip-path="url(#bu)"><path d="M1 1h1L1 2z" fill="#000000" opacity="1" data-original="#000000"></path></clipPath><clipPath id="bz" clip-path="url(#bu)"><path d="M1 1h1L1 2z" fill="#000000" opacity="1" data-original="#000000"></path></clipPath><clipPath id="bA" clip-path="url(#bz)"><path d="M-1-1h-1l1-1z" fill="#000000" opacity="1" data-original="#000000"></path></clipPath><clipPath id="bB" clip-path="url(#bu)"><path d="M1 1h1L1 2z" fill="#000000" opacity="1" data-original="#000000"></path></clipPath><clipPath id="bC" clip-path="url(#bB)"><path d="M-1-1h-1l1-1z" fill="#000000" opacity="1" data-original="#000000"></path></clipPath><clipPath id="bD" clip-path="url(#bC)"><path d="M1 1h1L1 2z" fill="#000000" opacity="1" data-original="#000000"></path></clipPath><clipPath id="bE" clip-path="url(#bu)"><path d="M1 1h1L1 2z" fill="#000000" opacity="1" data-original="#000000"></path></clipPath><clipPath id="bF" clip-path="url(#bu)"><path d="M1 1h1L1 2z" fill="#000000" opacity="1" data-original="#000000"></path></clipPath><clipPath id="bG" clip-path="url(#bF)"><path d="M-1-1h-1l1-1z" fill="#000000" opacity="1" data-original="#000000"></path></clipPath><clipPath id="bH" clip-path="url(#bu)"><path d="M1 1h1L1 2z" fill="#000000" opacity="1" data-original="#000000"></path></clipPath><clipPath id="bI" clip-path="url(#bH)"><path d="M-1-1h-1l1-1z" fill="#000000" opacity="1" data-original="#000000"></path></clipPath><clipPath id="bJ" clip-path="url(#bI)"><path d="M1 1h1L1 2z" fill="#000000" opacity="1" data-original="#000000"></path></clipPath><clipPath id="bK" clip-path="url(#bu)"><path d="M1 1h1L1 2z" fill="#000000" opacity="1" data-original="#000000"></path></clipPath><clipPath id="bL" clip-path="url(#bK)"><path d="M-1-1h-1l1-1z" fill="#000000" opacity="1" data-original="#000000"></path></clipPath><clipPath id="bM" clip-path="url(#bL)"><path d="M1 1h1L1 2z" fill="#000000" opacity="1" data-original="#000000"></path></clipPath><clipPath id="bN" clip-path="url(#bM)"><path d="M-1-1h-1l1-1z" fill="#000000" opacity="1" data-original="#000000"></path></clipPath><clipPath id="bO" clip-path="url(#bu)"><path d="M1 1h1L1 2z" fill="#000000" opacity="1" data-original="#000000"></path></clipPath><clipPath id="bP" clip-path="url(#bO)"><path d="M-1-1h-1l1-1z" fill="#000000" opacity="1" data-original="#000000"></path></clipPath><clipPath id="bQ" clip-path="url(#bP)"><path d="M1 1h1L1 2z" fill="#000000" opacity="1" data-original="#000000"></path></clipPath><clipPath id="bR" clip-path="url(#bQ)"><path d="M-1-1h-1l1-1z" fill="#000000" opacity="1" data-original="#000000"></path></clipPath><clipPath id="bS" clip-path="url(#bR)"><path d="M1 1h1L1 2z" fill="#000000" opacity="1" data-original="#000000"></path></clipPath><clipPath id="bs" clip-path="url(#bS)"><path d="M-1-1h-1l1-1z" fill="#000000" opacity="1" data-original="#000000"></path></clipPath><radialGradient xlink:href="#bp" id="bt" cx="221.836" cy="-2268.322" r="18.426" gradientTransform="matrix(.942 0 0 -.942 46.331 -1882.859)" gradientUnits="userSpaceOnUse"></radialGradient><path fill="#ecc1c7" d="M200.4 434.3c-.4.6-.9 1.6-1.5 2.9-.4.8-.7 1.6-1.1 2.5-.4.8-.8 1.6-1.2 2.5-1.2 2.3-2.4 4.2-3.9 6.2s-3.2 4-5.3 5.9c-4 3.7-9.5 7.2-16.3 8.6-3.4.7-7.3.6-10.6-.1-3.9-.8-7.1-2.3-10.1-4.4-5.9-4.1-10-9.9-12.5-16.4-2.3-6.4-3.4-14.1-.1-21.3.7-1.5.6-1.2 1.5-2.6.7-1 1.4-1.7 2.1-2.5 1.5-1.4 3.3-2.5 5-3.2 3.6-1.4 6.9-1.8 10.6-1.7l1.1.1 1.6.3c1 .2 1.9.5 2.7.8 1.7.7 3.3 1.7 4.7 2.9 2.7 2.4 4.5 5.4 5.5 8.5 1 3.2 1 6.4.6 9.4-.4 2.9-1.2 5.7-2.2 8.1-2 4.9-4.6 9.3-7.6 12.9s-6.5 6.2-10.1 7.6c-3.5 1.4-7.2 1.2-9.6.1-2.5-1-4-2.8-4.4-4.1-.4-1.4-.3-2.1-.3-2.1s-.1.8.5 2c.5 1.2 2.1 2.7 4.5 3.4s5.5.6 8.6-1c3.1-1.5 6-4.2 8.4-7.8 2.4-3.5 4.3-7.8 5.7-12.5 1.3-4.6 1.8-9.7.1-13.9-1.8-4.2-5.7-7.2-10.1-6.8-2.2.1-4.8.7-6.6 1.8-.9.5-1.7 1.1-2.2 1.8-.3.3-.6.8-.7 1 .1-.2-.7 1.5-.6 1.3-1.3 3.9-.4 8.9 1.8 13.1 2.1 4.2 5.4 7.8 9 9.7 1.7.9 3.6 1.5 5.1 1.6 2 .2 3.4 0 5-.5 3.1-1.1 6-3.2 8.1-5.7 2.2-2.4 3.9-5.6 4.7-7.7.3-.8.6-1.6.9-2.3 0-.1-.2.5-.1.2v-.2l.1-.3.2-.6c.1-.4.3-.8.4-1.2.6-1.6 1.2-3.3 2-4.9 1.5-3.3 4.3-6.6 7-8.3 1.2-.9 3.6-1.8 3.4-1.7.3-.1.5-.2.5-.2 5-2 10.7.4 12.7 5.4s-.4 10.7-5.4 12.7c-.3.1-.6.2-1 .3 0 0-.2.1-.5.2" opacity="1" data-original="#ecc1c7"></path><path fill="#b09299" d="M165.9 467.2c-2.1 0-4.3-.2-6.3-.6-1.8-.4-3.6-.9-5.3-1.6-4 1.5-8.6 1.5-12.2-.1-3.2-1.3-5.7-3.8-6.6-6.5-.5-1.5-.5-2.7-.5-3.2 0-.9.3-1.7.8-2.5.6-.8 1.4-1.2 2.3-1.4-1.6-2.4-2.9-5.1-4-7.9-3.2-8.8-3.2-17.2 0-24.3.7-1.5.8-1.7 1.3-2.4l.4-.7c.9-1.4 1.8-2.3 2.7-3.2 1.8-1.7 3.9-3 6.2-4 3.9-1.6 7.7-2.2 12.2-2l3.1.4c1.5.3 2.6.6 3.6 1.1 2 .8 4 2 5.7 3.5 3.1 2.7 5.4 6.2 6.7 10.3 1.3 4 1.1 7.8.8 10.5l.4-.9c0-.1 0-.1.1-.2.1-.2.1-.4.2-.5l.5-1.5c.6-1.8 1.3-3.7 2.3-5.7 1.8-4 5.1-7.9 8.5-9.9 1.6-1.1 3-1.9 4.3-2.1l.2-.1c3.4-1.4 7.1-1.3 10.4.1 3.4 1.4 6 4.1 7.3 7.5 2.8 7-.6 14.9-7.5 17.8-.1 0-.2.1-.3.1-.2.5-.5 1-.8 1.7L200 444c-1.5 2.7-2.8 4.8-4.3 6.8-1.8 2.4-3.7 4.5-5.8 6.4-5.3 4.9-11.5 8.2-18.2 9.6-1.8.2-3.8.4-5.8.4zm-2.5-7.9c2.3.2 4.7.1 6.8-.3 5.3-1.1 10.1-3.7 14.5-7.7 1.7-1.6 3.3-3.3 4.9-5.3 1.3-1.7 2.4-3.4 3.6-5.7l2.2-4.7c.7-1.5 1.3-2.6 1.8-3.4.5-1 1.3-1.8 2.5-2.1l.6-.2c.1 0 .4-.1.6-.2 3-1.2 4.4-4.6 3.2-7.6-.6-1.4-1.7-2.6-3.1-3.2s-3-.6-4.5 0l-.5.2h-.1c-.6.2-1.9.8-2.4 1.2-2.3 1.4-4.5 4.1-5.7 6.8-.8 1.7-1.4 3.3-1.8 4.6l-.5 1.6c0 .2-.1.4-.2.5l-.9 2.3c-.5 1.3-2.4 5.5-5.5 8.9-2.4 2.9-5.6 5.1-8.9 6.5-1 1.6-2.1 3.1-3.3 4.5-1.2 1.3-2.3 2.3-3.3 3.3zm-7.9-44.8c-2.8 0-5.1.4-7.6 1.4-1.4.6-2.7 1.4-3.8 2.4-.6.6-1.1 1.1-1.6 1.8l-.4.7c-.3.5-.3.5-.8 1.4-2.9 6.6-1.5 13.6.2 18.3 2.3 6 6.1 11.1 10.9 14.5 1.5-1 2.9-2.4 4.2-4-.4-.2-.7-.3-1.1-.5-4.3-2.2-8.1-6.4-10.6-11.4-2.7-5.3-3.5-11-2.2-15.5.1-.8.5-1.7 1.1-2.7.4-.7.8-1.2 1-1.5.9-1 2-2 3.3-2.7 2.1-1.2 5.2-2.1 8.2-2.3h.7-.5c-.2.1-.6.1-1 .1zm-5.1 10.9c0 .1 0 .1-.1.2-.9 2.6-.3 6.5 1.6 10.1 1.7 3.5 4.5 6.5 7.3 8 .5.3 1 .5 1.4.6.9-1.9 1.7-4 2.3-6.2.9-3.2 1.7-7.8.2-11.3-1.2-2.9-3.7-4.6-6.2-4.5-1.9.1-3.9.6-5 1.3-.7.4-1 .7-1.2.9.1.4-.1.7-.3.9z" opacity="1" data-original="#b09299"></path><path fill="url(#d)" d="M357.9 487.3c0 11.5-58.5 20.9-130.6 20.9s-130.6-9.3-130.6-20.9c0-11.5 58.5-20.9 130.6-20.9 72.1.1 130.6 9.4 130.6 20.9z" clip-path="url(#e)" mask="url(#bT)" opacity="1" data-original="url(#d)"></path><path fill="url(#bU)" d="M357.9 487.3c0 11.5-58.5 20.9-130.6 20.9s-130.6-9.3-130.6-20.9c0-11.5 58.5-20.9 130.6-20.9 72.1.1 130.6 9.4 130.6 20.9z" opacity="1" data-original="url(#bU)"></path><path fill="#ecc1c6" d="M285.3 415.9c0 35.7-26.4 39.8-59 39.8s-59-4-59-39.8c0-35.7 11.1-89.6 59-89.6s59 53.8 59 89.6z" opacity="1" data-original="#ecc1c6"></path><path fill="#b09299" d="M226.2 326.3c47.9 0 59 53.9 59 89.6s-26.4 39.8-59 39.8-59-4-59-39.8 11.1-89.6 59-89.6m0-7.8c-49.3 0-66.8 50.3-66.8 97.4 0 47.6 43.5 47.6 66.8 47.6 23.4 0 66.8 0 66.8-47.6 0-47.1-17.5-97.4-66.8-97.4z" opacity="1" data-original="#b09299"></path><path fill="#fcdedc" d="M261.2 403c0 21.8-13.2 30.5-35 30.5s-35-8.7-35-30.5 13.2-48.4 35-48.4 35 26.6 35 48.4z" opacity="1" data-original="#fcdedc"></path><path fill="#ecc1c7" d="M399.9 197.9C393.8 91.7 339.4 7.8 226.2 7.8S58.7 91.7 52.5 197.9c-13.5 14.6-21.7 34.2-21.7 55.7 0 45.5 36.9 82.3 82.3 82.3H173.9c16.3 5.9 33.9 9.1 52.2 9.1 18.4 0 35.9-3.2 52.2-9.1H339.1c45.5 0 82.3-36.9 82.3-82.3.2-21.5-8-41.1-21.5-55.7z" opacity="1" data-original="#ecc1c7"></path><path fill="#b09299" d="M226.2 7.8c113.2 0 167.5 83.9 173.7 190.1 13.5 14.7 21.7 34.2 21.7 55.7 0 45.5-36.9 82.3-82.3 82.3H278.5c-16.3 5.9-33.9 9.1-52.2 9.1-18.3 0-35.9-3.2-52.2-9.1H113.3C67.8 335.9 31 299 31 253.6c0-21.5 8.2-41 21.7-55.7C58.7 91.7 113 7.8 226.2 7.8m0-7.8C120.5 0 52.9 72.7 44.9 194.7 30.8 211.1 23 231.9 23 253.5c0 49.7 40.4 90.1 90.1 90.1h59.5c17.2 6.1 35.2 9.1 53.6 9.1s36.4-3.1 53.6-9.1H339.4c49.7 0 90.1-40.4 90.1-90.1 0-21.7-7.8-42.5-21.9-58.8C399.5 72.7 331.9 0 226.2 0z" opacity="1" data-original="#b09299"></path><path fill="url(#ag)" d="M414.4 253.1c0 40.9-33.2 74.1-74.1 74.1s-74.1-33.2-74.1-74.1 33.2-74.1 74.1-74.1c41 0 74.1 33.2 74.1 74.1z" clip-path="url(#H)" mask="url(#bV)" opacity="1" data-original="url(#ag)"></path><path fill="url(#ag)" d="M186.2 254.1c0 40.9-33.2 74.1-74.1 74.1C71.2 328.1 38 295 38 254.1S71.2 180 112.1 180s74.1 33.1 74.1 74.1z" clip-path="url(#al)" mask="url(#bW)" opacity="1" data-original="url(#ag)"></path><path fill="url(#aK)" d="M273.9 207.3c0 31.7 25.7 57.3 57.3 57.3 31.7 0 57.3-25.7 57.3-57.3 0-31.7-25.7-57.4-57.3-57.4-31.6.1-57.3 25.7-57.3 57.4z" opacity="1" data-original="url(#aK)"></path><path fill="#211f1f" d="M296.9 206c0 19 15.4 34.4 34.4 34.4s34.4-15.4 34.4-34.4-15.4-34.4-34.4-34.4-34.5 15.4-34.4 34.4z" opacity="1" data-original="#211f1f"></path><path fill="url(#aL)" d="M303.8 206c0 15.2 12.3 27.5 27.5 27.5s27.6-12.3 27.5-27.5c0-15.2-12.3-27.5-27.5-27.5-15.2-.1-27.6 12.3-27.5 27.5z" opacity="1" data-original="url(#aL)"></path><path fill="#ffffff" d="M325 184.8c0 3.5 2.8 6.3 6.3 6.3s6.3-2.8 6.3-6.3-2.8-6.3-6.3-6.3c-3.5-.1-6.3 2.8-6.3 6.3z" opacity="1" data-original="#ffffff"></path><path fill="url(#aK)" d="M63.9 207.3c0 31.7 25.7 57.3 57.3 57.3 31.7 0 57.3-25.7 57.3-57.3 0-31.7-25.7-57.3-57.3-57.3-31.7 0-57.3 25.6-57.3 57.3z" opacity="1" data-original="url(#aK)"></path><path fill="#211f1f" d="M86.8 208c0 19 15.4 34.4 34.4 34.4s34.4-15.4 34.4-34.4-15.4-34.4-34.4-34.4S86.8 189 86.8 208z" opacity="1" data-original="#211f1f"></path><path fill="url(#aL)" d="M93.7 208c0 15.2 12.3 27.5 27.5 27.5s27.5-12.3 27.5-27.5-12.4-27.5-27.6-27.5c-15.1 0-27.4 12.3-27.4 27.5z" opacity="1" data-original="url(#aL)"></path><path fill="#ffffff" d="M114.9 186.8c0 3.5 2.8 6.3 6.3 6.3s6.3-2.8 6.3-6.3-2.9-6.3-6.3-6.3c-3.5-.1-6.3 2.8-6.3 6.3z" opacity="1" data-original="#ffffff"></path><path fill="#ecc1c6" d="M132.3 34.5h-21.4s-28.8 2.1-41.2 7.3L24.5 60.5C1.5 70 1.1 83.4 7.3 98.5c11.1 26.8 42.7 39 70.7 27.4 21.6-9 34.7-29.5 34.5-50.8" opacity="1" data-original="#ecc1c6"></path><path fill="#b09299" d="M56.2 134.2c-7.2 0-14.4-1.3-21.3-4C20.6 124.7 9.5 114 3.7 100-1.6 87.1-5.4 68.7 23 56.9l45.1-18.7c12.9-5.3 41.2-7.5 42.4-7.6h21.7c2.2 0 3.9 1.7 3.9 3.9s-1.7 3.9-3.9 3.9h-21.4s-28 2.1-39.8 7L26 64.1C5.6 72.5 5.1 83 10.9 97c4.9 11.9 14.5 21.2 26.8 25.9 12.4 4.8 26.2 4.6 38.8-.6 19.4-8.1 32.3-27 32.1-47.1 0-2.1 1.7-3.9 3.8-3.9h.1c2.1 0 3.9 1.7 3.9 3.8.3 23.3-14.5 45.2-36.9 54.4-7.5 3.2-15.4 4.7-23.3 4.7z" opacity="1" data-original="#b09299"></path><path fill="#ecc1c6" d="M320.1 34.5h21.4s28.8 2.1 41.2 7.3l45.1 18.7c23.1 9.6 23.5 22.9 17.2 38.1-11.1 26.8-42.7 39-70.7 27.4-21.6-9-34.7-29.5-34.5-50.8" opacity="1" data-original="#ecc1c6"></path><path fill="#b09299" d="M396.1 134.2c-7.7 0-15.6-1.5-23.2-4.7-22.4-9.3-37.2-31.1-36.9-54.4 0-2.2 1.7-3.9 3.9-3.8 2.2 0 3.9 1.8 3.8 3.9-.3 20.1 12.6 39.1 32.1 47.1 26 10.7 55.4-.6 65.6-25.3 5.8-14.1 5.3-24.5-15.1-33l-45.1-18.7c-11.7-4.9-39.8-7-40-7H320c-2.2 0-3.9-1.7-3.9-3.9s1.7-3.9 3.9-3.9h21.4c1.5.1 29.9 2.3 42.7 7.6l45.1 18.7c28.4 11.8 24.6 30.3 19.3 43.2-8.6 21.4-29.8 34.2-52.4 34.2z" opacity="1" data-original="#b09299"></path><path fill="#eca5ae" d="M252.7 283.7c27.1 0 33.1-13.8 33.1-32.5 0-32.9-26.7-59.6-59.6-59.6s-59.6 26.7-59.6 59.6c0 18.6 6 32.5 33.1 32.5z" opacity="1" data-original="#eca5ae"></path><path fill="#b09299" d="M252.7 287.5h-53c-33.1 0-36.9-20.8-37-36.4 0-35 28.5-63.5 63.5-63.5s63.4 28.5 63.5 63.5c0 15.7-3.9 36.4-37 36.4zm-53-7.7h53c24.2 0 29.2-11.4 29.2-28.6 0-30.7-25-55.7-55.7-55.7s-55.7 25-55.7 55.7c.1 17.1 5 28.6 29.2 28.6z" opacity="1" data-original="#b09299"></path><path fill="url(#bp)" d="M214.5 253.9c0 9.6-7.8 17.4-17.3 17.4-9.6 0-17.4-7.8-17.4-17.4s7.8-17.4 17.4-17.4c9.5.1 17.3 7.9 17.3 17.4z" clip-path="url(#aQ)" mask="url(#cb)" opacity="1" data-original="url(#bp)"></path><path fill="#211f1f" d="M211 253.9c0 7.7-6.2 13.9-13.8 13.9-7.7 0-13.9-6.2-13.9-13.9s6.2-13.9 13.9-13.9c7.6.1 13.8 6.3 13.8 13.9z" opacity="1" data-original="#211f1f"></path><path fill="url(#bp)" d="M272.7 253.9c0 9.6-7.8 17.4-17.4 17.4s-17.4-7.8-17.4-17.4 7.8-17.4 17.4-17.4c9.6.1 17.4 7.9 17.4 17.4z" clip-path="url(#bu)" mask="url(#cc)" opacity="1" data-original="url(#bp)"></path><path fill="#211f1f" d="M269.2 253.9c0 7.7-6.2 13.9-13.9 13.9s-13.9-6.2-13.9-13.9 6.2-13.9 13.9-13.9c7.7.1 13.9 6.3 13.9 13.9z" opacity="1" data-original="#211f1f"></path><path fill="#ecc1c7" d="M71.3 145.5 58.9 200l44.9-17.8 34.4-36.1z" opacity="1" data-original="#ecc1c7"></path><path fill="#ecc1c7" d="M57.8 202.5c33.1-4.6 63.5-25.4 79.7-54.6" opacity="1" data-original="#ecc1c7"></path><path fill="#b09299" d="M57.8 206.4c-1.9 0-3.6-1.4-3.9-3.4-.3-2.1 1.2-4.1 3.3-4.4 31.8-4.4 61.3-24.6 76.9-52.7 1-1.9 3.4-2.6 5.3-1.5 1.9 1 2.6 3.4 1.5 5.3-16.7 30.2-48.4 51.9-82.6 56.6-.1.1-.3.1-.5.1z" opacity="1" data-original="#b09299"></path><path fill="#ecc1c7" d="m382.7 145.5 12.4 54.5-44.9-17.8-34.4-36.1z" opacity="1" data-original="#ecc1c7"></path><path fill="#ecc1c7" d="M396.2 202.5c-33.1-4.6-63.5-25.4-79.7-54.6" opacity="1" data-original="#ecc1c7"></path><path fill="#b09299" d="M396.2 206.4h-.5c-34.2-4.7-65.9-26.4-82.6-56.6-1-1.9-.4-4.3 1.5-5.3 1.9-1.1 4.3-.4 5.3 1.5 15.6 28.1 45 48.3 76.9 52.7 2.1.3 3.6 2.3 3.3 4.4-.3 1.9-2 3.3-3.9 3.3zM133.5 149.6s-1.2-.2-3.4-.8c-1.1-.3-2.4-.5-3.9-.7s-3.1-.4-5-.4c-1.8-.2-3.8 0-5.9.1s-4.2.6-6.5.9c-2.2.5-4.5 1.1-6.7 1.9-2.3.7-4.4 1.8-6.6 2.8-2.1 1.1-4.3 2.3-6.2 3.7-2 1.3-3.8 2.8-5.6 4.2-1.6 1.6-3.4 2.9-4.8 4.5-1.5 1.5-2.8 3-3.9 4.4-1.2 1.4-2.2 2.8-3 4-.9 1.2-1.6 2.3-2.1 3.3-1.1 1.9-1.8 2.9-1.8 2.9l1.1-3.3c.3-1.1.9-2.3 1.6-3.7s1.4-3 2.5-4.6c.5-.8 1-1.7 1.6-2.5s1.3-1.7 2-2.5c1.3-1.8 3-3.4 4.7-5.1 1.8-1.5 3.6-3.4 5.8-4.7 2-1.5 4.3-2.8 6.6-4 2.4-1.1 4.7-2.2 7.2-2.9 2.4-.9 4.9-1.3 7.3-1.8 2.4-.3 4.8-.6 7-.5 2.2 0 4.3.2 6.2.6 1.9.2 3.6.7 5.1 1.2 1.5.4 2.8.9 3.7 1.4 1.8 1 3 1.6 3 1.6z" opacity="1" data-original="#b09299"></path><path fill="#b09299" d="M319 149.6s1.1-.6 3.1-1.5c1-.5 2.2-1 3.6-1.4 1.4-.5 3.1-1.1 5-1.4.9-.2 1.9-.4 2.9-.6 1-.1 2.1-.2 3.1-.3 2.2-.3 4.5-.1 6.8-.1 2.3.3 4.8.5 7.2 1.2 2.5.5 4.8 1.4 7.2 2.3 2.3 1.1 4.6 2.1 6.7 3.5 2.2 1.2 4.1 2.9 6 4.3 1.7 1.7 3.5 3.1 4.8 4.9.7.8 1.4 1.6 2 2.4.6.9 1.1 1.7 1.6 2.5 1.1 1.5 1.8 3.1 2.5 4.5.7 1.3 1.2 2.6 1.6 3.6.7 2 1.1 3.2 1.1 3.2s-.7-1-1.8-2.9c-.5-.9-1.2-2-2.1-3.2s-1.8-2.5-3.1-3.9l-1.8-2.1-2.1-2.1c-1.4-1.5-3.2-2.7-4.8-4.2-1.8-1.2-3.7-2.6-5.7-3.7-2-1.3-4.2-2.1-6.3-3.2-2.2-.8-4.4-1.7-6.7-2.2-2.2-.7-4.5-1-6.7-1.4-2.2-.1-4.4-.5-6.4-.5h-3c-1 .1-1.9.1-2.8.2-1.8.1-3.4.4-4.9.6s-2.7.4-3.8.8c-2 .4-3.2.7-3.2.7z" opacity="1" data-original="#b09299"></path><path fill="#ecc1c6" d="m168.6 433.4-.7 16.2v.4l-.5 26.2c-.1 7.4 5.8 13.5 13.1 13.6 7.4.1 13.5-5.8 13.6-13.1l.5-22.3" opacity="1" data-original="#ecc1c6"></path><path fill="#b09299" d="M180.8 493.6h-.3c-4.6-.1-8.9-1.9-12.1-5.3-3.2-3.3-4.9-7.7-4.8-12.3l.5-26.2v-.4l.7-16.2c.1-2.1 1.9-3.8 4.1-3.7 2.1.1 3.8 1.9 3.7 4.1l-.7 16V450.2l-.5 26c0 2.5.9 4.9 2.7 6.7s4.1 2.8 6.7 2.9c2.5 0 4.9-.9 6.7-2.7s2.8-4.1 2.9-6.6l.5-22.3c0-2.1 1.8-3.9 4-3.8 2.2 0 3.9 1.8 3.8 4l-.5 22.3c-.1 4.6-2 8.9-5.3 12.1-3.4 3.1-7.6 4.8-12.1 4.8z" opacity="1" data-original="#b09299"></path><path fill="#ecc1c6" d="M258.8 453.5v.3l-.5 22.3c-.1 7.4 5.8 13.5 13.1 13.6 7.4.1 13.5-5.8 13.6-13.1l.5-26.2v-.4l.2-16.7" opacity="1" data-original="#ecc1c6"></path><path fill="#b09299" d="M271.7 493.6h-.3c-4.6-.1-8.9-1.9-12.1-5.3-3.2-3.3-4.9-7.7-4.8-12.3l.5-22.3c0-2.1 1.8-4 3.9-4 2.1 0 3.9 1.6 3.9 3.7v.5l-.5 22.3c0 2.5.9 4.9 2.7 6.7s4.1 2.8 6.7 2.9c5.3.2 9.6-4.1 9.6-9.3l.5-26v-.7l.2-16.5c0-2.1 1.8-3.9 3.9-3.9 2.2 0 3.9 1.8 3.9 3.9l-.2 16.7v.4l-.5 26.1c-.3 9.6-8.1 17.1-17.4 17.1z" opacity="1" data-original="#b09299"></path><path fill="#ecc1c6" d="m193.9 363.1 8 7.1.1.1.1.1 18.8 18.2c5.3 5.1 5.5 13.6.3 18.9-5.1 5.3-13.6 5.5-18.9.3l-18.8-18.2-.1-.1-.1-.1-8-7.8" opacity="1" data-original="#ecc1c6"></path><path fill="#b09299" d="M211.7 415.5c-4.3 0-8.6-1.6-12-4.8l-18.8-18.2-.3-.3-8-7.7c-1.5-1.5-1.6-4-.1-5.5s4-1.6 5.5-.1l7.9 7.6.2.2.3.3 18.7 18.1c3.8 3.6 9.8 3.5 13.4-.2 3.6-3.8 3.5-9.8-.2-13.4l-18.7-18.1c-.1-.1-.3-.2-.4-.3l-.1-.1-7.8-6.9c-1.6-1.4-1.8-3.9-.4-5.5s3.9-1.8 5.5-.4l8 7.1.2.2.1.1 18.9 18.3c6.8 6.6 7 17.6.4 24.4-3.2 3.4-7.8 5.2-12.3 5.2z" opacity="1" data-original="#b09299"></path><path fill="#ecc1c6" d="m257 363.1-8 7.1-.1.1-.1.1-18.8 18.2c-5.3 5.1-5.5 13.6-.3 18.9 5.1 5.3 13.6 5.5 18.9.3l18.8-18.2.1-.1.1-.1 8-7.8" opacity="1" data-original="#ecc1c6"></path><path fill="#b09299" d="M239.2 415.5c-4.5 0-9-1.8-12.4-5.3-6.6-6.8-6.4-17.8.4-24.4l18.8-18.2.1-.1.1-.1 8.2-7.2c1.6-1.4 4.1-1.3 5.5.4 1.4 1.6 1.3 4.1-.4 5.5l-7.9 6.9-.2.2c-.1.1-.2.2-.3.2l-18.7 18.1c-3.8 3.6-3.9 9.6-.2 13.4 3.6 3.8 9.6 3.9 13.4.2l18.7-18.1c0-.1.1-.1.1-.2.1-.1.2-.2.4-.3l7.9-7.6c1.5-1.5 4-1.5 5.5.1 1.5 1.5 1.5 4-.1 5.5l-8 7.8-.3.3-18.8 18.2c-3.2 3.1-7.5 4.7-11.8 4.7z" opacity="1" data-original="#b09299"></path></g></svg>