<svg xmlns="http://www.w3.org/2000/svg" version="1.1" xmlns:xlink="http://www.w3.org/1999/xlink" width="512" height="512" x="0" y="0" viewBox="0 0 512 512" style="enable-background:new 0 0 512 512" xml:space="preserve" class=""><g><ellipse cx="251.942" cy="464.578" fill="#c7d1ea" rx="123.09" ry="21.836" opacity="1" data-original="#c7d1ea"></ellipse><path fill="#ed7e97" d="m297.612 392.388-16.242 59.117c-2.421 8.903-16.007 6.013-14.62-3.073l8.932-60.653c.903-6.133 6.608-10.373 12.741-9.47 6.622.926 10.997 7.65 9.189 14.079z" opacity="1" data-original="#ed7e97"></path><path fill="#bf4b6f" d="M274.358 458.387a9.937 9.937 0 0 1-2.035-.211c-3.999-.847-7.91-4.327-7.049-9.97l8.931-60.646a12.634 12.634 0 0 1 4.996-8.354 12.648 12.648 0 0 1 9.441-2.376c3.567.5 6.772 2.55 8.782 5.628 2.013 3.081 2.607 6.845 1.628 10.329l-16.241 59.114c-1.254 4.609-4.941 6.486-8.453 6.486zm12.411-78.706a9.66 9.66 0 0 0-5.787 1.923 9.668 9.668 0 0 0-3.822 6.391l-8.933 60.654c-.573 3.753 1.954 6.018 4.712 6.603 2.758.58 5.99-.469 6.988-4.139l16.243-59.121.002-.009c.747-2.655.29-5.53-1.252-7.891-1.539-2.355-3.983-3.923-6.706-4.304a9.77 9.77 0 0 0-1.445-.107z" opacity="1" data-original="#bf4b6f"></path><path fill="#3a4668" d="m281.943 449.968-3.926 13.604a1.39 1.39 0 0 1-2.221.687l-4.412-3.641-5.024 2.953c-1.023.601-2.281-.272-2.074-1.441l2.654-15.023s6.103 3.433 15.003 2.861z" opacity="1" data-original="#3a4668"></path><path fill="#22213f" d="M276.678 466.071c-.66 0-1.308-.228-1.833-.66l-3.605-2.975-4.122 2.424a2.862 2.862 0 0 1-3.108-.118 2.854 2.854 0 0 1-1.194-2.871l2.654-15.024a1.495 1.495 0 0 1 2.203-1.042c.055.031 5.868 3.217 14.175 2.672a1.497 1.497 0 0 1 1.531 1.905l-3.927 13.603a2.878 2.878 0 0 1-2.774 2.086zm-5.294-6.946c.339 0 .677.115.951.341l4.29 3.539 3.314-11.478h-.011c-5.388 0-9.584-1.327-11.853-2.251l-2.278 12.893 4.831-2.839c.234-.137.495-.205.756-.205z" opacity="1" data-original="#22213f"></path><path fill="#ed7e97" d="m204.026 392.388 16.242 59.117c2.421 8.903 16.007 6.013 14.62-3.073l-8.932-60.653c-.903-6.133-6.608-10.373-12.741-9.47-6.622.926-10.997 7.65-9.189 14.079z" opacity="1" data-original="#ed7e97"></path><path fill="#bf4b6f" d="M227.281 458.387c-3.512.001-7.2-1.877-8.454-6.49l-16.24-59.112c-.977-3.483-.384-7.247 1.628-10.327 2.01-3.076 5.215-5.128 8.793-5.629 6.929-1.018 13.404 3.793 14.427 10.731l8.933 60.653c.86 5.636-3.051 9.116-7.05 9.963a9.971 9.971 0 0 1-2.037.211zm-12.425-78.705c-.47 0-.946.034-1.424.104-2.733.382-5.178 1.951-6.716 4.306-1.542 2.36-1.998 5.237-1.251 7.891l.002.009 16.242 59.117c.998 3.672 4.23 4.722 6.989 4.142 2.758-.584 5.285-2.85 4.713-6.596l-8.934-60.66c-.711-4.828-4.877-8.313-9.621-8.313z" opacity="1" data-original="#bf4b6f"></path><path fill="#3a4668" d="m219.695 449.968 3.926 13.604a1.39 1.39 0 0 0 2.221.687l4.412-3.641 5.024 2.953c1.023.601 2.281-.272 2.074-1.441l-2.654-15.023s-6.103 3.433-15.003 2.861z" opacity="1" data-original="#3a4668"></path><path fill="#22213f" d="M224.96 466.071a2.888 2.888 0 0 1-2.774-2.086l-3.927-13.603a1.493 1.493 0 0 1 1.531-1.905c8.311.548 14.12-2.642 14.178-2.674a1.495 1.495 0 0 1 2.201 1.043l2.654 15.024a2.856 2.856 0 0 1-1.194 2.871 2.86 2.86 0 0 1-3.108.118l-4.123-2.424-3.606 2.975a2.866 2.866 0 0 1-1.832.661zm-3.26-14.544 3.314 11.478 4.29-3.539a1.492 1.492 0 0 1 1.708-.136l4.831 2.839-2.278-12.893c-2.269.924-6.465 2.251-11.853 2.251h-.012z" opacity="1" data-original="#22213f"></path><path fill="#e6ecff" d="M107.541 297.779c-6.704 7.488-10.783 17.378-10.783 28.224 0 23.384 18.954 42.338 42.338 42.338 0 23.384 18.954 42.338 42.338 42.338 10.824 0 20.691-4.06 28.179-10.741 7.485 11.948 20.762 19.896 35.903 19.896 13.976 0 26.368-6.771 34.077-17.214a42.155 42.155 0 0 0 24.852 8.06c23.384 0 42.342-18.954 42.342-42.338 0-.254-.007-.508-.011-.762 2.596.497 5.277.762 8.019.762 23.384 0 42.338-18.954 42.338-42.338 0-11.869-4.885-22.596-12.751-30.282 12.112-7.451 20.191-20.826 20.191-36.086 0-23.384-18.954-42.342-42.338-42.342-.377 0-.754.007-1.128.019a42.512 42.512 0 0 0 1.128-9.744c0-23.384-18.958-42.338-42.338-42.338-14.319 0-26.973 7.107-34.637 17.987-5.953-16.176-21.502-27.713-39.743-27.713-16.643 0-31.037 9.602-37.957 23.567-7.746-8.504-18.906-13.841-31.313-13.841-23.38 0-42.338 18.954-42.338 42.338 0 3.72.482 7.328 1.386 10.768a42.437 42.437 0 0 0-9.356-1.042c-23.384 0-42.338 18.958-42.338 42.342 0 16.786 9.774 31.296 23.94 38.142z" opacity="1" data-original="#e6ecff"></path><path fill="#c7d1ea" d="M107.541 297.779c-6.704 7.488-10.783 17.378-10.783 28.224 0 23.384 18.954 42.338 42.338 42.338 0 23.384 18.954 42.338 42.338 42.338 10.824 0 20.691-4.06 28.179-10.741 7.485 11.948 20.762 19.896 35.903 19.896 13.976 0 26.368-6.771 34.077-17.214a42.155 42.155 0 0 0 24.852 8.06c23.384 0 42.342-18.954 42.342-42.338 0-.254-.007-.508-.011-.762-18.891 51.111-69.267 14.495-69.267 14.495s-9.49 17.546-31.612 20.979c-22.125 3.432-34.712-18.308-34.712-18.308s-15.638 13.729-34.939 7.627c-19.298-6.103-17.315-35.855-17.315-35.855s-26.7 6.865-40.433-15.44c-13.729-22.308 2.67-48.639 2.67-48.639s-29.752-16.403-16.784-41.195c12.971-24.792 41.961-20.844 41.961-20.844-14.114-57.461 29.901-65.169 29.901-65.169-23.38 0-42.338 18.954-42.338 42.338 0 3.72.482 7.328 1.386 10.768a42.437 42.437 0 0 0-9.356-1.042c-23.384 0-42.338 18.958-42.338 42.342.001 16.786 9.775 31.296 23.941 38.142z" opacity="1" data-original="#c7d1ea"></path><path fill="#f5f8ff" d="M285.26 183.216s28.15-10.932 46.462 1.737c18.308 12.665 15.055 43.022 15.055 43.022s29.954-4.575 40.25 19.455c10.301 24.03-11.444 48.441-11.444 48.441 26.319 56.071-28.807 71.709-28.807 71.709 2.596.497 5.277.762 8.019.762 23.384 0 42.338-18.954 42.338-42.338 0-11.869-4.885-22.596-12.751-30.282 12.112-7.451 20.191-20.826 20.191-36.086 0-23.384-18.954-42.342-42.338-42.342-.377 0-.754.007-1.128.019a42.512 42.512 0 0 0 1.128-9.744c0-23.384-18.958-42.338-42.338-42.338-14.319-.002-26.973 7.106-34.637 17.985z" opacity="1" data-original="#f5f8ff"></path><path fill="#8196c9" d="M245.517 421.329c-14.618 0-28.032-7.125-36.223-19.146a43.763 43.763 0 0 1-27.858 9.992c-23.678 0-43.032-18.869-43.809-42.362-23.493-.778-42.363-20.13-42.363-43.81a43.748 43.748 0 0 1 9.911-27.756c-14.077-7.595-23.07-22.544-23.07-38.613 0-24.17 19.664-43.832 43.833-43.832 2.474 0 4.946.208 7.375.619a44.098 44.098 0 0 1-.896-8.853c0-24.17 19.664-43.832 43.833-43.832 11.602 0 22.766 4.64 30.954 12.799 7.746-13.949 22.239-22.526 38.314-22.526 17.392 0 33.194 10.42 40.138 26.195 8.291-10.359 20.9-16.468 34.241-16.468 24.169 0 43.833 19.662 43.833 43.832 0 2.768-.26 5.53-.775 8.239 23.839.385 43.114 19.897 43.114 43.826 0 14.721-7.192 28.174-19.333 36.351 7.685 8.157 11.895 18.745 11.895 30.018 0 24.17-19.664 43.833-43.833 43.833-2.18 0-4.368-.163-6.528-.486-.537 23.706-19.988 42.824-43.822 42.824-8.826 0-17.277-2.59-24.536-7.508-8.282 10.462-21.03 16.664-34.395 16.664zm-35.904-22.882a1.493 1.493 0 0 1 1.266.7c7.529 12.018 20.478 19.194 34.638 19.194 12.907 0 25.197-6.21 32.878-16.609a1.497 1.497 0 0 1 2.08-.321c7.004 5.087 15.294 7.776 23.973 7.776 22.522 0 40.845-18.324 40.845-40.845 0-.221-.004-.44-.008-.659-.008-.451.186-.919.531-1.208.344-.29.799-.445 1.243-.362 2.543.489 5.147.737 7.738.737 22.522 0 40.845-18.324 40.845-40.846 0-11.085-4.369-21.46-12.302-29.212a1.495 1.495 0 0 1 .261-2.341c12.197-7.501 19.478-20.516 19.478-34.815 0-22.521-18.323-40.845-40.845-40.845-.365 0-.728.006-1.09.015-.466 0-.905-.191-1.197-.551a1.491 1.491 0 0 1-.294-1.285 41.088 41.088 0 0 0 1.088-9.399c0-22.521-18.323-40.845-40.845-40.845-13.27 0-25.762 6.488-33.415 17.352a1.494 1.494 0 0 1-2.623-.344c-5.887-15.992-21.295-26.735-38.341-26.735-15.637 0-29.668 8.712-36.618 22.736a1.496 1.496 0 0 1-2.443.343 40.95 40.95 0 0 0-30.206-13.352c-22.522 0-40.845 18.324-40.845 40.845 0 3.516.449 7.011 1.334 10.387a1.494 1.494 0 0 1-1.775 1.836 41.084 41.084 0 0 0-9.026-1.003c-22.522 0-40.845 18.324-40.845 40.845 0 15.574 9.067 30.019 23.099 36.799a1.496 1.496 0 0 1 .463 2.342 40.769 40.769 0 0 0-10.403 27.228c0 22.523 18.323 40.846 40.845 40.846.825 0 1.494.669 1.494 1.493 0 22.521 18.323 40.845 40.845 40.845a40.78 40.78 0 0 0 27.182-10.361c.276-.248.631-.381.995-.381z" opacity="1" data-original="#8196c9"></path><path fill="#ed7e97" d="M350.202 254.029c-1.659 20.237-6.336 40.274-12.774 59.499-1.188 3.228-2.876 8.181-4.221 11.317-2.896 7.51-6.424 14.78-10.08 21.947a7.469 7.469 0 0 1-10.047 3.26c-3.586-1.821-5.041-6.152-3.41-9.747 3.245-7.762 6.157-15.672 8.531-23.751a246.742 246.742 0 0 0 5.286-21.813c2.514-13.114 4.152-26.674 4.321-40.02-1.51-16.41 23.12-17.186 22.394-.692z" opacity="1" data-original="#ed7e97"></path><path fill="#bf4b6f" d="M315.106 352.009a5.884 5.884 0 0 1-2.705-.628c-4.393-2.231-4.711-10.499-2.773-14.769 3.23-7.728 4.815-12.568 7.139-20.481a244.615 244.615 0 0 0 5.252-21.676c2.688-14.017 4.132-27.368 4.293-39.678-.454-5.198 1.543-9.624 5.489-12.153 4.123-2.642 9.724-2.787 13.935-.365 4.075 2.346 6.191 6.549 5.958 11.834l-.003.056c-1.547 18.881-5.869 39.019-12.846 59.852-.343.934-.71 1.959-1.097 3.04-1.021 2.852-2.179 6.084-3.168 8.392-2.785 7.227-5.063 11.69-8.511 18.446l-.439.86c-1.075 2.106-3.18 4.281-5.494 5.677-1.753 1.057-3.469 1.593-5.03 1.593zM339.1 243.514c-1.997 0-4 .544-5.686 1.626-3.037 1.947-4.5 5.3-4.119 9.443.005.052.007.104.006.156-.158 12.508-1.621 26.061-4.348 40.282a248 248 0 0 1-5.319 21.95c-2.357 8.025-3.966 12.937-7.268 20.834-1.427 3.146-1.268 9.564 1.39 10.914 1.173.596 2.936.283 4.837-.862 1.835-1.106 3.552-2.864 4.375-4.477l.439-.86c3.405-6.672 5.655-11.081 8.405-18.214.974-2.275 2.115-5.461 3.122-8.272.391-1.091.76-2.123 1.092-3.023 6.882-20.554 11.154-40.443 12.684-59.077.172-4.101-1.413-7.328-4.465-9.084-1.55-.892-3.344-1.336-5.145-1.336zm11.102 10.514h.012z" opacity="1" data-original="#bf4b6f"></path><path fill="#3a4668" d="M324.3 344.06s-4.049-.214-13.311-6.83c0 0-3.319 6.065-5.715 11.404-.436.97.299 2.06 1.362 2.019l5.883-.227 3.644 4.995a1.432 1.432 0 0 0 2.433-.193z" opacity="1" data-original="#3a4668"></path><path fill="#22213f" d="M317.314 357.503a2.907 2.907 0 0 1-2.358-1.201l-3.175-4.352-5.087.196a2.886 2.886 0 0 1-2.539-1.288 2.908 2.908 0 0 1-.244-2.834c2.393-5.332 5.735-11.449 5.768-11.51a1.49 1.49 0 0 1 2.292-.409c4.52 3.944 12.688 6.504 12.771 6.529a1.496 1.496 0 0 1 .888 2.107l-5.704 11.167a2.905 2.905 0 0 1-2.612 1.595zm-4.795-8.571c.476 0 .925.226 1.207.614l3.644 4.995 4.826-9.619c-2.45-.885-7.111-2.768-10.736-5.411-1.135 2.14-3.205 6.126-4.824 9.735l5.825-.313.058-.001z" opacity="1" data-original="#22213f"></path><path fill="#e6ecff" d="M314.084 255.702s25.371 23.818 50.635-4.247l-21.214-16.873-33.825 4.199z" opacity="1" data-original="#e6ecff"></path><path fill="#8196c9" d="M337.667 267.051c-14.206 0-24.213-9.865-24.64-10.293a1.493 1.493 0 0 1 2.114-2.111c.098.097 9.966 9.831 23.322 9.404 8.859-.255 17.318-4.828 25.142-13.59a1.493 1.493 0 1 1 2.229 1.989c-8.403 9.411-17.594 14.319-27.319 14.588-.283.009-.568.013-.848.013z" opacity="1" data-original="#8196c9"></path><path fill="#ed7e97" d="M176.749 260.952c-1.141 22.055 2.117 44.329 7.329 65.758 1.688 7.086 4.061 14.776 6.294 21.717 3.08 9.095-10.186 14.168-13.956 5.33-3.773-8.965-7.413-18.742-10.346-28.016-6.402-21.023-11.087-42.853-11.705-64.906-.853-16.207 23.534-16.11 22.384.117z" opacity="1" data-original="#ed7e97"></path><path fill="#bf4b6f" d="M181.719 357.034c-2.956 0-6.007-1.49-7.616-5.26-3.959-9.408-6.61-16.578-9.458-25.582-7.371-24.203-11.221-45.563-11.775-65.314-.269-5.119 1.868-9.433 5.866-11.803 4.192-2.487 9.783-2.444 13.913.107 3.969 2.451 5.954 6.664 5.59 11.862-1.013 19.617 1.371 40.982 7.29 65.314 1.676 7.037 2.798 11.34 5.022 18.253 1.904 5.623-1.369 10.21-5.591 11.822a9.148 9.148 0 0 1-3.241.601zm-16.107-106.82c-1.87 0-3.742.476-5.351 1.43-3.054 1.81-4.618 5.046-4.405 9.112.548 19.518 4.355 40.621 11.643 64.549 2.813 8.894 5.438 15.993 9.355 25.302 1.549 3.631 4.764 3.907 7.041 3.034 2.887-1.103 5.126-4.238 3.82-8.095-2.261-7.03-3.397-11.383-5.09-18.49-5.987-24.616-8.398-46.266-7.368-66.181l.002-.028c.286-4.043-1.198-7.283-4.179-9.124-1.626-1.005-3.546-1.509-5.468-1.509z" opacity="1" data-original="#bf4b6f"></path><path fill="#3a4668" d="M175.477 351.187s4.055-.001 13.652-6.12c0 0 2.995 6.232 5.107 11.689a1.433 1.433 0 0 1-1.467 1.944l-5.863-.536-3.902 4.796a1.432 1.432 0 0 1-2.419-.321z" opacity="1" data-original="#3a4668"></path><path fill="#22213f" d="M181.901 364.984a2.91 2.91 0 0 1-2.681-1.735l-5.107-11.453a1.494 1.494 0 0 1 1.001-2.057c.072-.019 7.246-1.848 13.172-5.903a1.494 1.494 0 0 1 2.189.585c.031.063 3.046 6.348 5.154 11.797.368.951.221 2.006-.394 2.82s-1.586 1.244-2.603 1.151l-5.07-.463-3.399 4.179a2.909 2.909 0 0 1-2.262 1.079zm-4.359-12.836 4.408 9.883 3.798-4.809a1.49 1.49 0 0 1 1.295-.544l5.863.536c-1.485-3.668-3.379-7.789-4.396-9.963-4.22 2.595-8.623 4.167-10.968 4.897z" opacity="1" data-original="#22213f"></path><path fill="#e6ecff" d="M188.586 259.176s-23.035 26.083-50.81.502l19.545-18.781 34.069 1.021z" opacity="1" data-original="#e6ecff"></path><path fill="#8196c9" d="M163.324 272.811c-9.028 0-17.954-4.043-26.565-12.039a1.495 1.495 0 0 1 2.033-2.189c8.618 8.003 17.476 11.759 26.332 11.182 13.355-.881 22.222-11.433 22.31-11.539a1.493 1.493 0 1 1 2.303 1.902c-.393.475-9.79 11.653-24.417 12.617a30.24 30.24 0 0 1-1.996.066z" opacity="1" data-original="#8196c9"></path><path fill="#ffa6bd" d="M266.666 237.962c-5.49 1.879-11.406 3.147-17.646 3.81-37.93 4.032-69.336-17.155-70.351-70.02-1.01-52.813 19.902-98.394 52.083-101.816 19.16-2.037 36.188 10.14 49.346 30.15 10.318 15.688 18.255 36.193 22.979 58.44 9.214 43.381-7.839 69.66-36.411 79.436z" opacity="1" data-original="#ffa6bd"></path><ellipse cx="211.615" cy="163.7" fill="#ffffff" rx="20.804" ry="13.752" transform="rotate(-80.62 211.598 163.637)" opacity="1" data-original="#ffffff"></ellipse><ellipse cx="212.405" cy="171.128" fill="#22213f" rx="13.517" ry="8.935" transform="rotate(-80.62 212.388 171.063)" opacity="1" data-original="#22213f"></ellipse><circle cx="210.796" cy="164.639" r="3.476" fill="#ffffff" transform="rotate(-8.75 210.928 164.736)" opacity="1" data-original="#ffffff"></circle><path fill="#bf4b6f" d="M209.707 185.841c-.572 0-1.145-.046-1.719-.141-8.295-1.367-13.416-12.349-11.416-24.481 2-12.131 10.373-20.891 18.67-19.52 8.295 1.367 13.416 12.349 11.416 24.481-1.862 11.293-9.248 19.661-16.951 19.661zm-10.187-24.136c-1.732 10.506 2.285 19.947 8.954 21.048 6.681 1.099 13.504-6.555 15.236-17.059 1.732-10.506-2.285-19.947-8.954-21.048-6.672-1.095-13.504 6.555-15.236 17.059z" opacity="1" data-original="#bf4b6f"></path><ellipse cx="269.164" cy="157.178" fill="#ffffff" rx="13.752" ry="20.804" transform="rotate(-23.36 269.457 157.142)" opacity="1" data-original="#ffffff"></ellipse><ellipse cx="269.954" cy="164.606" fill="#22213f" rx="8.935" ry="13.517" transform="rotate(-23.36 270.252 164.573)" opacity="1" data-original="#22213f"></ellipse><path fill="#ffffff" d="M264.654 155.455a3.475 3.475 0 1 1 1.077 6.867 3.475 3.475 0 0 1-1.077-6.867z" opacity="1" data-original="#ffffff"></path><path fill="#bf4b6f" d="M273.616 178.543c-2.699 0-5.554-.927-8.348-2.75-4.187-2.733-7.772-7.193-10.095-12.558-4.885-11.284-2.582-23.181 5.133-26.521 3.849-1.662 8.376-1.008 12.755 1.849 4.187 2.732 7.772 7.193 10.095 12.558 4.885 11.284 2.582 23.181-5.133 26.521a11.035 11.035 0 0 1-4.407.901zm-8.908-39.737c-1.13 0-2.21.216-3.215.651-6.203 2.685-7.808 12.819-3.579 22.591 2.092 4.833 5.284 8.826 8.986 11.243 3.511 2.29 7.04 2.863 9.934 1.608 6.203-2.684 7.808-12.819 3.579-22.591-2.092-4.835-5.284-8.827-8.986-11.243-2.292-1.495-4.592-2.259-6.719-2.259z" opacity="1" data-original="#bf4b6f"></path><ellipse cx="205.542" cy="130.276" fill="#e6ecff" rx="11.391" ry="5.229" transform="rotate(-34.45 205.52 130.233)" opacity="1" data-original="#e6ecff"></ellipse><path fill="#8196c9" d="M199.405 139.516c-1.992 0-3.587-.637-4.487-1.949-2.168-3.159.764-8.677 6.82-12.835 6.057-4.155 12.26-4.906 14.428-1.749 2.169 3.161-.763 8.678-6.82 12.836-3.542 2.431-7.135 3.697-9.941 3.697zm12.319-15.505c-1.939 0-4.997.921-8.296 3.185-4.981 3.419-6.908 7.425-6.047 8.679.861 1.258 5.293.899 10.274-2.52 4.981-3.419 6.908-7.425 6.047-8.68-.291-.424-.989-.664-1.978-.664zm-3.223 10.577h.012z" opacity="1" data-original="#8196c9"></path><ellipse cx="265.625" cy="123.888" fill="#e6ecff" rx="5.229" ry="11.391" transform="rotate(-73.09 265.537 123.86)" opacity="1" data-original="#e6ecff"></ellipse><path fill="#8196c9" d="M270.367 131.385c-2.082 0-4.392-.364-6.698-1.065-3.112-.946-5.889-2.41-7.817-4.12-2.233-1.98-3.14-4.133-2.554-6.061.586-1.926 2.538-3.21 5.496-3.611 2.552-.348 5.675-.019 8.788.929 7.028 2.138 11.487 6.516 10.371 10.182-.587 1.926-2.539 3.21-5.496 3.611-.662.09-1.362.135-2.09.135zm-9.501-12.003c-.588 0-1.148.035-1.669.106-1.658.225-2.823.808-3.04 1.52-.217.713.426 1.845 1.678 2.956 1.59 1.41 4.034 2.685 6.704 3.497 2.67.812 5.41 1.115 7.516.828 1.658-.225 2.823-.808 3.04-1.522.443-1.456-2.602-4.695-8.382-6.454-2.01-.608-4.059-.931-5.847-.931z" opacity="1" data-original="#8196c9"></path><path fill="#f492ae" d="M266.666 237.962a.175.175 0 0 1 .039-.019c17.278-7.621 38.759-31.708 30.894-69.614s-24.509-60.4-24.509-60.4l7.008-7.844c10.318 15.688 18.255 36.193 22.979 58.44 9.214 43.382-7.839 69.661-36.411 79.437z" opacity="1" data-original="#f492ae"></path><path fill="#ffbdd0" d="M231.149 241.738a.17.17 0 0 0-.042-.01c-18.494-3.818-44.559-22.85-44.84-61.562s11.263-64.203 11.263-64.203l-8.501-6.195c-6.789 17.507-10.238 39.222-10.179 61.965.114 44.348 22.31 66.455 52.299 70.005z" opacity="1" data-original="#ffbdd0"></path><path fill="#bf4b6f" d="M240.069 243.751c-16.132 0-30.089-4.857-40.748-14.26-14.001-12.35-21.659-32.307-22.145-57.712-.504-26.297 4.379-51.2 13.75-70.121 9.773-19.735 23.861-31.529 39.669-33.209 37.066-3.954 63.852 42.244 73.944 89.764 5.239 24.668 2.254 45.636-8.635 60.639-10 13.778-26.156 22.216-46.726 24.403a85.662 85.662 0 0 1-9.109.496zm-5.061-172.549c-1.353 0-2.715.072-4.097.218-29.965 3.186-51.781 46.306-50.747 100.303.47 24.544 7.778 43.746 21.134 55.527 11.973 10.563 28.414 15.066 47.566 13.035 19.704-2.095 35.135-10.113 44.623-23.188 10.378-14.299 13.189-34.446 8.131-58.262-9.43-44.394-33.499-87.633-66.61-87.633z" opacity="1" data-original="#bf4b6f"></path><path fill="#ffa6bd" d="M329.593 147.284a46.281 46.281 0 0 1-1.654 2.259c0 .004-.004.007-.008.01-6.352 8.166-13.104 10.698-19.49 5.733-4.027-3.133-7.909-9.25-11.452-18.812-8.409-22.708-23.728-30.089-27.521-31.607-.557-.226-.864-.321-.864-.321l.231-12.121s2.902.088 7.576.531c6.459.603 16.308 1.879 26.564 4.511 26.896 6.898 37.401 34.115 26.618 49.817z" opacity="1" data-original="#ffa6bd"></path><path fill="#f492ae" d="M329.593 147.284a46.281 46.281 0 0 1-1.654 2.259c0 .004-.004.007-.008.01-6.352 8.166-13.104 10.698-19.49 5.733l.007.001c18.895.671 25.102-25.699 11.745-41.123-13.358-15.428-43.367-16.03-43.367-16.03l-.416-5.178c6.459.603 16.308 1.879 26.564 4.511 26.897 6.898 37.402 34.115 26.619 49.817z" opacity="1" data-original="#f492ae"></path><path fill="#bf4b6f" d="M315.207 159.323c-.458 0-.914-.029-1.372-.086-6.962-.865-13.101-8.348-18.248-22.245-9.288-25.074-27.251-30.966-27.431-31.022a1.493 1.493 0 0 1-1.046-1.454l.229-12.119c.008-.399.174-.779.463-1.054.289-.276.675-.404 1.076-.412.166.006 16.83.561 34.466 5.087 13.975 3.585 25.09 13.113 29.731 25.484 3.6 9.595 2.779 19.3-2.253 26.626-5.106 7.436-10.353 11.195-15.615 11.195zm-45.09-55.814c4.226 1.691 19.69 9.279 28.272 32.446 4.662 12.585 10.13 19.611 15.814 20.317 5.631.689 10.81-4.963 14.157-9.835 4.471-6.511 5.17-15.216 1.918-23.886-4.299-11.458-14.645-20.295-27.676-23.639-14.255-3.657-27.861-4.674-32.305-4.921z" opacity="1" data-original="#bf4b6f"></path><path fill="#ffa6bd" d="M199.261 114.833s-.103.058-.29.176c-2.254 1.421-17.071 11.657-20.67 37.047-2.483 17.521-8.168 25.114-15.555 24.945-3.604-.084-7.611-2.016-11.85-5.547a47.062 47.062 0 0 1-2.161-1.912c-13.875-13.056-9.386-41.875 15.437-54.332 10.002-5.018 19.874-8.458 26.019-10.373 3.881-1.204 6.271-1.802 6.271-1.802z" opacity="1" data-original="#ffa6bd"></path><path fill="#ffbdd0" d="M158.895 131.956c-9.07 13.547-12.291 35.438 3.844 45.041.004 0 .003.004.007.004-3.604-.084-7.611-2.016-11.85-5.547a47.062 47.062 0 0 1-2.161-1.912c-13.875-13.056-9.386-41.875 15.437-54.332 10.002-5.018 19.874-8.458 26.019-10.373.625 1.429.98 2.406.98 2.406s-23.209 11.166-32.276 24.713z" opacity="1" data-original="#ffbdd0"></path><path fill="#bf4b6f" d="M162.946 178.51c-4.56 0-9.665-2.637-15.234-7.879-6.472-6.091-9.335-15.4-7.854-25.541 1.909-13.075 10.748-24.743 23.644-31.213 16.274-8.166 32.439-12.247 32.6-12.288a1.497 1.497 0 0 1 1.816 1.105l2.797 11.794a1.492 1.492 0 0 1-.712 1.641c-.186.108-16.486 9.778-20.223 36.141-2.08 14.672-6.491 23.289-13.111 25.61a11.16 11.16 0 0 1-3.723.63zm32.419-73.632c-4.29 1.186-17.37 5.068-30.524 11.668-12.024 6.034-20.258 16.866-22.027 28.975-1.338 9.161 1.194 17.521 6.945 22.934 4.305 4.051 10.56 8.483 15.921 6.605 5.405-1.896 9.258-9.923 11.141-23.211 3.468-24.461 16.97-35.16 20.741-37.708z" opacity="1" data-original="#bf4b6f"></path><path fill="#e6ecff" d="M283.015 74.097c6.086 7.428 6.573 18.306.557 26.33-7.072 9.439-20.46 11.358-29.9 4.283a20.36 20.36 0 0 1-1.722-1.432c.235 10.976-7.974 20.487-19.094 21.669-9.857 1.048-18.86-4.789-22.224-13.641a21.287 21.287 0 0 1-13.757 7.111c-11.732 1.247-22.255-7.253-23.502-18.981-.888-8.356 3.171-16.097 9.818-20.312a21.23 21.23 0 0 1-4.739-11.301c-1.247-11.729 7.253-22.251 18.982-23.498a21.243 21.243 0 0 1 12.144 2.307c.841-10.005 8.673-18.331 19.024-19.431 11.339-1.205 21.546 6.697 23.341 17.819l.003-.004c3.438-4.366 8.562-7.397 14.523-8.03 11.729-1.247 22.251 7.253 23.498 18.982.752 7.075-2.044 13.705-6.952 18.129z" opacity="1" data-original="#e6ecff"></path><path fill="#c7d1ea" d="M283.015 74.097c6.086 7.428 6.573 18.306.557 26.33-7.072 9.439-20.46 11.358-29.9 4.283a20.36 20.36 0 0 1-1.722-1.432c.235 10.976-7.974 20.487-19.094 21.669-9.857 1.048-18.86-4.789-22.224-13.641 0 0 12.309 9.726 24.812 1.877 12.499-7.853 10.662-21.847 10.662-21.847s11.881 11.071 24.232 4.549c12.347-6.522 3.544-24.396 3.544-24.396s10.198-8.187 4.65-21.193c-5.548-13.003-26.589-5.275-26.589-5.275l.003-.004c3.438-4.366 8.562-7.397 14.523-8.03 11.729-1.247 22.251 7.253 23.498 18.982.752 7.074-2.044 13.704-6.952 18.128z" opacity="1" data-original="#c7d1ea"></path><path fill="#f5f8ff" d="M251.942 45.02s-11.402-11.017-24.402-6.18c-13.004 4.834-10.907 19.571-10.907 19.571s-15.473-5.645-23.736 2.523c-8.263 8.165 3.607 18.775 3.607 18.775s-10.571 8.816-8.442 21.63 22.569 9.965 22.569 9.965a21.287 21.287 0 0 1-13.757 7.111c-11.732 1.247-22.255-7.253-23.502-18.981-.888-8.356 3.171-16.097 9.818-20.312a21.23 21.23 0 0 1-4.739-11.301c-1.247-11.729 7.253-22.251 18.982-23.498a21.243 21.243 0 0 1 12.144 2.307c.841-10.005 8.673-18.331 19.024-19.431 11.339-1.203 21.547 6.7 23.341 17.821z" opacity="1" data-original="#f5f8ff"></path><path fill="#8196c9" d="M230.591 126.562c-8.64 0-16.577-4.9-20.436-12.629a22.783 22.783 0 0 1-13.124 5.969c-6.069.649-12.028-1.112-16.777-4.948a22.71 22.71 0 0 1-8.365-15.362c-.868-8.165 2.617-15.995 9.16-20.81a22.76 22.76 0 0 1-4.081-10.8c-.645-6.071 1.112-12.029 4.948-16.778s9.292-7.719 15.363-8.365a22.72 22.72 0 0 1 11.085 1.578c1.762-9.902 9.908-17.618 20.082-18.699 11.068-1.187 21.212 5.765 24.309 16.16 3.657-3.591 8.375-5.827 13.554-6.377 12.525-1.337 23.81 7.778 25.142 20.309.722 6.792-1.671 13.582-6.434 18.436a22.798 22.798 0 0 1-.249 27.077 22.702 22.702 0 0 1-15.048 8.917 22.677 22.677 0 0 1-16.419-3.95c-1.2 10.427-9.605 19.007-20.287 20.142-.811.088-1.62.13-2.423.13zm-19.958-16.752a1.496 1.496 0 0 1 1.397.963c3.199 8.423 11.701 13.644 20.67 12.689 10.174-1.083 17.974-9.936 17.757-20.155a1.493 1.493 0 0 1 2.508-1.129c.513.475 1.052.924 1.602 1.339a19.725 19.725 0 0 0 14.73 3.766 19.73 19.73 0 0 0 13.08-7.752 19.816 19.816 0 0 0-.517-24.488 1.497 1.497 0 0 1 .155-2.057c4.718-4.255 7.135-10.557 6.464-16.86-1.158-10.893-10.96-18.807-21.855-17.655-5.367.57-10.163 3.224-13.507 7.472a1.494 1.494 0 0 1-2.648-.686c-1.681-10.406-11.212-17.668-21.708-16.569-9.457 1.005-16.898 8.604-17.693 18.068a1.493 1.493 0 0 1-2.182 1.198 19.792 19.792 0 0 0-11.293-2.145 19.74 19.74 0 0 0-13.354 7.271 19.735 19.735 0 0 0-4.301 14.584 19.794 19.794 0 0 0 4.406 10.512 1.496 1.496 0 0 1-.353 2.21c-6.438 4.083-9.937 11.32-9.131 18.888 1.158 10.895 10.964 18.808 21.854 17.656a19.806 19.806 0 0 0 12.796-6.616 1.507 1.507 0 0 1 1.123-.504z" opacity="1" data-original="#8196c9"></path><circle cx="205.435" cy="198.649" r="8.926" fill="#ed7e97" transform="rotate(-61.51 205.48 198.636)" opacity="1" data-original="#ed7e97"></circle><circle cx="279.966" cy="190.726" r="8.926" fill="#ed7e97" transform="rotate(-39.91 280.113 190.647)" opacity="1" data-original="#ed7e97"></circle><path fill="#22213f" d="M245.085 203.504a1.494 1.494 0 0 1-1.482-1.322l-1.391-11.935a1.495 1.495 0 0 1 1.311-1.657 1.49 1.49 0 0 1 1.657 1.312l1.391 11.935a1.495 1.495 0 0 1-1.486 1.667z" opacity="1" data-original="#22213f"></path><path fill="#22213f" d="M232.833 209.923a1.492 1.492 0 0 1-1.116-2.486c.107-.12 10.872-11.911 27.458-3.324a1.494 1.494 0 1 1-1.374 2.654c-14.546-7.528-23.76 2.553-23.851 2.655a1.49 1.49 0 0 1-1.117.501z" opacity="1" data-original="#22213f"></path><path fill="#ed7e97" d="M255.635 180.963c.523 4.923-5.987 12.107-11.636 12.707-5.823.619-13.525-5.054-14.048-9.977s7.514-7.357 12.153-7.85c4.739-.503 13.008.197 13.531 5.12z" opacity="1" data-original="#ed7e97"></path><path fill="#bf4b6f" d="M243.109 195.211c-6.385 0-14.052-5.793-14.644-11.359-.67-6.303 8.525-8.968 13.48-9.494 4.955-.534 14.505.144 15.176 6.447.291 2.737-1.161 6.154-3.885 9.14-2.687 2.945-6.081 4.893-9.079 5.211-.344.036-.694.055-1.048.055zm1.73-18.015c-.892 0-1.766.047-2.578.133-4.579.488-11.187 2.798-10.825 6.207.413 3.891 7.138 9.201 12.405 8.65 2.258-.241 5.012-1.871 7.187-4.255 2.125-2.329 3.321-4.938 3.121-6.809-.303-2.855-5.019-3.926-9.31-3.926z" opacity="1" data-original="#bf4b6f"></path><path fill="#e6ecff" d="M343.017 107.118c11.458-55.534 94.328-39.903 84.769 15.985-4.84 28.588-38.582 44.141-63.505 29.626l-29.211 7.146 11.832-25.321a42.944 42.944 0 0 1-3.885-27.436z" opacity="1" data-original="#e6ecff"></path><g fill="#8196c9"><path d="M335.071 161.203a1.329 1.329 0 0 1-1.204-1.89l11.56-24.742c-4.22-8.644-5.506-18.206-3.715-27.7l.004-.022c6.086-29.495 31.125-38.721 51.813-34.827 20.688 3.902 40.643 21.622 35.566 51.305-2.333 13.781-11.622 25.708-24.847 31.899-13.131 6.147-28.105 5.736-40.168-1.08l-28.695 7.02a1.284 1.284 0 0 1-.314.037zm9.25-53.828c-1.718 9.123-.415 18.313 3.767 26.579.184.364.191.792.018 1.161l-10.658 22.811 26.518-6.488c.336-.082.687-.031.984.143 11.39 6.633 25.661 7.095 38.173 1.238 12.435-5.821 21.166-17.013 23.354-29.938 4.775-27.917-13.987-44.579-33.44-48.249-19.45-3.668-42.991 5.013-48.716 32.743z" fill="#8196c9" opacity="1" data-original="#8196c9"></path><path d="M361.259 136.269c-2.882 0-5.998-2.468-8.816-6.997a1.494 1.494 0 0 1 2.536-1.579c2.647 4.254 5.035 5.697 6.413 5.583.759-.05 1.364-.564 1.797-1.525 1.364-3.027.473-9.34-4.704-16.047-6.627-8.584-7.796-14.809-3.473-18.502 1.354-1.156 2.931-1.551 4.555-1.15 3.206.798 6.049 4.717 7.446 8.25a1.492 1.492 0 1 1-2.778 1.098c-1.278-3.23-3.594-6.002-5.389-6.448-.678-.17-1.28-.002-1.893.521-3.598 3.074.134 9.53 3.897 14.405 5.963 7.723 6.84 15.157 5.063 19.099-.883 1.96-2.459 3.155-4.323 3.279-.109.009-.22.013-.331.013zM373.853 136.449a3.22 3.22 0 0 1-1.657-.469c-3.146-1.871-4.755-9.119-4.305-19.388-.285-10.212 1.348-17.435 4.368-19.212a3.025 3.025 0 0 1 3.148.002c3.012 1.781 4.632 8.979 4.337 19.261.489 10.221-1.088 17.444-4.222 19.328a3.209 3.209 0 0 1-1.669.478zm-.034-36.526c-.849.185-3.273 4.654-2.942 16.694-.467 10.753 1.498 15.993 2.847 16.795.117.07.139.072.259-.001 1.346-.809 3.29-6.054 2.774-16.68a1.496 1.496 0 0 1-.001-.116c.354-12.035-2.064-16.506-2.937-16.692zM382.835 136.472a1.494 1.494 0 0 1-1.494-1.493V98.338a1.493 1.493 0 0 1 2.988 0v36.641c0 .824-.668 1.493-1.494 1.493z" fill="#8196c9" opacity="1" data-original="#8196c9"></path><path d="M391.165 136.473a1.494 1.494 0 0 1-1.326-.804l-8.328-15.952a1.496 1.496 0 0 1 .969-2.142c4.238-1.037 6.871-4.044 7.046-8.042.157-3.604-1.999-8.026-7.17-9.781a1.494 1.494 0 1 1 .961-2.83c6.637 2.252 9.4 8.022 9.195 12.741-.206 4.718-3.039 8.511-7.526 10.251l7.504 14.373a1.494 1.494 0 0 1-1.325 2.186zM395.555 136.472a1.494 1.494 0 0 1-1.494-1.493V98.338a1.493 1.493 0 0 1 2.988 0v36.641c0 .824-.668 1.493-1.494 1.493z" fill="#8196c9" opacity="1" data-original="#8196c9"></path><path d="M403.885 136.473a1.494 1.494 0 0 1-1.326-.804l-8.328-15.952a1.496 1.496 0 0 1 .969-2.142c4.237-1.037 6.871-4.044 7.045-8.042.157-3.604-1.999-8.026-7.17-9.781a1.494 1.494 0 0 1 .961-2.83c6.637 2.254 9.4 8.022 9.194 12.741-.206 4.718-3.039 8.511-7.525 10.251l7.504 14.373a1.494 1.494 0 0 1-1.324 2.186zM412.683 116.285a1.492 1.492 0 0 1-1.385-.936l-6.61-16.454a1.494 1.494 0 0 1 2.772-1.115l5.008 12.465 3.637-12.33a1.487 1.487 0 0 1 1.856-1.01 1.493 1.493 0 0 1 1.01 1.855l-4.854 16.454a1.496 1.496 0 0 1-1.362 1.07l-.072.001z" fill="#8196c9" opacity="1" data-original="#8196c9"></path><path d="M412.683 136.472a1.494 1.494 0 0 1-1.494-1.493v-20.187a1.493 1.493 0 0 1 2.988 0v20.187c0 .824-.669 1.493-1.494 1.493z" fill="#8196c9" opacity="1" data-original="#8196c9"></path></g></g></svg>