<svg xmlns="http://www.w3.org/2000/svg" version="1.1" xmlns:xlink="http://www.w3.org/1999/xlink" width="512" height="512" x="0" y="0" viewBox="0 0 512 512" style="enable-background:new 0 0 512 512" xml:space="preserve" class=""><g><path fill="#f29222" d="M469.207 75.884c.68-33.458-33.211-61.282-75.697-62.145s-77.48 25.559-78.16 59.018c-.482 23.732 16.439 44.617 41.473 55.069-3.978 5.086-6.557 10.251-2.961 12.381 6.887 4.08 42.868-3.871 53.503-6.347 34.779-5.183 61.251-28.921 61.842-57.976z" opacity="1" data-original="#f29222" class=""></path><g fill="#fff"><path d="M427.609 59.491a6.334 6.334 0 0 0-2.08-1.892 8.414 8.414 0 0 0-2.706-.962 10.891 10.891 0 0 0-2.939-.116c-1.965.191-3.535.823-4.712 1.896-1.176 1.074-2.211 2.437-3.107 4.092a13.708 13.708 0 0 0-.42-2.014 10.096 10.096 0 0 0-.823-2.054 5.268 5.268 0 0 0-1.291-1.596c-.518-.424-1.126-.617-1.823-.578-1.272.07-2.25.454-2.931 1.149a6.29 6.29 0 0 0-1.497 2.521 10.957 10.957 0 0 0-.507 3.146 41.087 41.087 0 0 0 .043 3.023c.079 1.437.211 2.881.394 4.331.183 1.451.335 2.894.455 4.327.024.452.047 1.047.066 1.787.021.74.065 1.551.134 2.431.069.882.163 1.812.278 2.794.115.981.261 1.961.439 2.939.175.938.399 1.851.675 2.741.275.89.605 1.664.993 2.322.385.658.846 1.177 1.383 1.56.534.381 1.15.554 1.849.516.902-.05 1.626-.358 2.172-.922a5.985 5.985 0 0 0 1.277-2.046c.305-.798.516-1.643.632-2.535a19.87 19.87 0 0 0 .18-2.325c.049-.62.043-1.463-.016-2.531a94.398 94.398 0 0 1-.124-3.389 54.34 54.34 0 0 1-.087-3.237c.006-1.009.058-1.763.153-2.262.165-.75.411-1.514.739-2.294.327-.779.729-1.491 1.209-2.135a7.605 7.605 0 0 1 1.64-1.634c.613-.445 1.328-.711 2.148-.798.447-.065.86-.037 1.238.086.377.124.756.257 1.133.4.419.142.839.273 1.257.394.417.122.913.146 1.486.073 1.229-.108 2.254-.535 3.077-1.281.824-.745 1.157-1.771 1.004-3.08-.102-1.106-.431-2.054-.991-2.847zM344.544 74.32a11.019 11.019 0 0 0-1.776-1.446 31.752 31.752 0 0 1-1.765-1.23 6.578 6.578 0 0 1-1.373-1.375c-.379-.514-.589-1.141-.629-1.88-.077-1.394.267-2.463 1.027-3.205a13.712 13.712 0 0 1 2.577-1.963 21.818 21.818 0 0 0 2.588-1.779c.77-.618 1.12-1.522 1.055-2.713-.043-.779-.231-1.417-.567-1.914a3.635 3.635 0 0 0-1.269-1.165 4.922 4.922 0 0 0-1.728-.553 10.226 10.226 0 0 0-1.949-.078 12.954 12.954 0 0 0-4.873 1.225 13.864 13.864 0 0 0-4.009 2.845 12.687 12.687 0 0 0-2.679 4.068c-.636 1.538-.904 3.189-.808 4.953.079 1.437.489 2.731 1.232 3.883a27.068 27.068 0 0 0 2.432 3.231c.877 1.001 1.681 1.945 2.409 2.831s1.115 1.76 1.163 2.622c.05.903-.139 1.613-.562 2.13-.426.517-.978.949-1.658 1.295a14.51 14.51 0 0 1-2.204.893c-.788.25-1.522.578-2.199.986a4.884 4.884 0 0 0-1.64 1.603c-.416.661-.593 1.566-.529 2.715.045.821.266 1.478.663 1.97.397.493.882.868 1.451 1.124s1.205.417 1.909.482a14.62 14.62 0 0 0 2.102.039c1.683-.093 3.364-.577 5.045-1.451a16.948 16.948 0 0 0 4.476-3.365 17.006 17.006 0 0 0 3.142-4.618c.79-1.711 1.138-3.428 1.043-5.151-.065-1.19-.295-2.185-.689-2.987-.393-.802-.863-1.475-1.408-2.022z" fill="#ffffff" opacity="1" data-original="#ffffff"></path><path d="M456.524 74.437c-.04-.739-.127-1.753-.259-3.042s-.324-2.699-.572-4.228c-.25-1.53-.57-3.065-.964-4.608-.394-1.542-.883-2.946-1.467-4.21s-1.268-2.276-2.05-3.036c-.783-.759-1.688-1.111-2.713-1.055-.822.045-1.476.308-1.964.787-.488.48-.865 1.088-1.134 1.822-.268.736-.45 1.548-.545 2.438a19.003 19.003 0 0 0-.099 2.691c.027.904.066 1.767.111 2.587l.115 2.093c.046.821.053 1.695.021 2.623s-.18 1.8-.442 2.617c-.264.817-.7 1.51-1.307 2.078-.606.569-1.442.882-2.509.941-.945.052-1.684-.071-2.213-.372-.532-.3-.936-.72-1.212-1.261-.277-.54-.455-1.157-.534-1.854a36.534 36.534 0 0 1-.177-2.089c-.026-.492-.056-1.201-.085-2.125a55.335 55.335 0 0 0-.199-3.045 38.281 38.281 0 0 0-.462-3.339 16.95 16.95 0 0 0-.849-3.071c-.359-.926-.803-1.694-1.33-2.303s-1.183-.912-1.965-.911c-1.194-.016-2.135.478-2.82 1.483-.686 1.005-1.195 2.217-1.528 3.634a27.357 27.357 0 0 0-.657 4.327c-.104 1.467-.152 2.653-.144 3.558a30.77 30.77 0 0 0 .216 3.908c.16 1.411.413 2.848.762 4.311s.826 2.867 1.436 4.212c.609 1.346 1.353 2.529 2.233 3.55a9.756 9.756 0 0 0 3.128 2.421c1.205.592 2.587.845 4.146.76 2.052-.113 3.753-.793 5.105-2.041 1.352-1.247 2.684-2.997 4.002-5.252-.001.741-.01 1.709-.025 2.903a58.21 58.21 0 0 1-.191 3.838 42.033 42.033 0 0 1-.543 4.135c-.254 1.393-.615 2.668-1.086 3.826-.473 1.158-1.068 2.106-1.788 2.846a3.843 3.843 0 0 1-2.62 1.194 5.348 5.348 0 0 1-1.645-.156 28.507 28.507 0 0 1-1.6-.468 15.103 15.103 0 0 0-1.477-.443 4.937 4.937 0 0 0-1.458-.136c-.452.025-.877.141-1.277.348s-.767.474-1.098.802a3.555 3.555 0 0 0-.772 1.123 2.709 2.709 0 0 0-.238 1.248c.059 1.067.488 1.989 1.294 2.769.804.779 1.776 1.424 2.916 1.938 1.14.513 2.342.89 3.611 1.129s2.396.331 3.381.277c2.297-.126 4.237-.769 5.821-1.926 1.58-1.158 2.889-2.65 3.919-4.476 1.032-1.827 1.834-3.878 2.41-6.152a46.072 46.072 0 0 0 1.193-6.918 73.41 73.41 0 0 0 .335-6.81 102.8 102.8 0 0 0-.137-5.89zM401.946 59.491a6.344 6.344 0 0 0-2.08-1.892 8.414 8.414 0 0 0-2.706-.962 10.893 10.893 0 0 0-2.939-.116c-1.965.191-3.535.823-4.712 1.896-1.176 1.074-2.211 2.437-3.106 4.092a13.84 13.84 0 0 0-.42-2.014 10.096 10.096 0 0 0-.823-2.054 5.268 5.268 0 0 0-1.291-1.596c-.519-.424-1.126-.617-1.823-.578-1.271.07-2.25.454-2.931 1.149a6.268 6.268 0 0 0-1.497 2.521c-.316.985-.485 2.034-.507 3.146s-.007 2.121.043 3.023c.079 1.437.211 2.881.394 4.331.184 1.451.335 2.894.455 4.327.024.452.047 1.047.066 1.787.021.74.064 1.551.134 2.431.069.882.163 1.812.278 2.794.114.981.261 1.961.438 2.939.175.938.399 1.851.675 2.741s.605 1.664.993 2.322c.385.658.846 1.177 1.383 1.56.534.381 1.15.554 1.85.516.901-.05 1.626-.358 2.172-.922a5.967 5.967 0 0 0 1.276-2.046c.306-.798.517-1.643.633-2.535a20.09 20.09 0 0 0 .18-2.325c.049-.62.043-1.463-.016-2.531a89.968 89.968 0 0 1-.124-3.389 53.509 53.509 0 0 1-.087-3.237c.006-1.009.058-1.763.152-2.262.165-.75.411-1.514.739-2.294.327-.779.729-1.491 1.209-2.135a7.605 7.605 0 0 1 1.64-1.634c.613-.445 1.328-.711 2.148-.798.447-.065.86-.037 1.238.086.377.124.756.257 1.133.4.419.142.839.273 1.257.394.417.122.913.146 1.486.073 1.229-.108 2.254-.535 3.077-1.281.823-.745 1.156-1.771 1.004-3.08-.102-1.106-.431-2.054-.991-2.847zM371.498 62.062c-1.089-1.812-2.479-3.3-4.166-4.463-1.691-1.162-3.685-1.68-5.982-1.553-2.381.131-4.397.85-6.056 2.155-1.655 1.306-2.985 2.943-3.989 4.912-1.002 1.969-1.707 4.128-2.111 6.475-.406 2.348-.55 4.61-.43 6.784.112 2.052.494 4.12 1.145 6.203.648 2.085 1.556 3.958 2.717 5.623 1.162 1.665 2.552 3.008 4.174 4.03 1.619 1.022 3.479 1.475 5.569 1.36 2.257-.124 4.175-.786 5.756-1.984 1.58-1.198 2.855-2.709 3.825-4.532.969-1.822 1.671-3.858 2.103-6.104.433-2.247.65-4.46.653-6.642.016-1.977-.244-4.061-.777-6.255-.534-2.193-1.344-4.195-2.431-6.009zm-5.79 15.939a17.308 17.308 0 0 1-.444 3.142c-.235.96-.572 1.76-1.01 2.401-.438.642-.987.98-1.643 1.017-.615.034-1.179-.253-1.685-.864-.507-.61-.952-1.388-1.332-2.334a19.189 19.189 0 0 1-.943-3.128 20.244 20.244 0 0 1-.453-3.185c-.043-.779-.013-1.697.095-2.753.107-1.056.288-2.063.544-3.024.256-.96.602-1.782 1.037-2.465.435-.682.961-1.041 1.577-1.075.615-.034 1.176.244 1.682.833.506.59.939 1.348 1.299 2.275.359.927.65 1.93.876 3.008.224 1.079.36 2.069.41 2.972.053.985.051 2.045-.01 3.18z" fill="#ffffff" opacity="1" data-original="#ffffff"></path></g><g fill="#f29222"><path d="M350.341 486.663c-3.726-5.589-12.257-7.93-21.791-8.611 5.601-1.298 8.891-3.268 5.74-6.262-6.076-5.773-24.415.595-35.688 5.339l-19.905-68.526-19.248 8.554c0 5.445 22.844 50.674 29.76 64.241-1.749.807-15.5 7.382-10.156 12.393 5.703 5.346 16.04-5.703 16.04-5.703s65.941 14.614 55.248-1.425zM176.328 484.428c6.915-13.567 29.76-58.796 29.76-64.241l-19.248-8.554-19.905 68.526c-11.273-4.744-29.612-11.112-35.688-5.339-3.151 2.994.139 4.964 5.74 6.262-9.534.681-18.065 3.022-21.791 8.611-10.693 16.04 55.248 1.426 55.248 1.426s10.337 11.049 16.04 5.703c5.345-5.012-8.406-11.587-10.156-12.394z" fill="#f29222" opacity="1" data-original="#f29222" class=""></path></g><path fill="#005995" d="M412.937 229.735a9.254 9.254 0 0 0-.024-1.047l-.025-.261-.168-.866-.015-.036-.279-.541-.089-.103-.405-.231c-3.509-4.469-12.84 6.873-15.076 9.721.149-.195.335-.441.54-.717l.221-.3c.147-.2.302-.411.469-.643l.36-.502c.158-.219.322-.449.493-.695l.409-.587c.182-.262.368-.535.562-.817l.446-.665c.194-.289.394-.595.593-.901a80.538 80.538 0 0 0 1.118-1.755c.156-.25.308-.491.463-.749.246-.4.486-.813.729-1.228l.38-.644c.364-.634.726-1.283 1.078-1.942l.203-.395c.28-.533.558-1.071.824-1.613.117-.243.228-.49.343-.734.206-.435.408-.87.6-1.305.121-.278.232-.557.348-.835.169-.406.332-.812.485-1.219.109-.287.208-.575.308-.861a29.87 29.87 0 0 0 .63-2.032c.104-.389.193-.772.276-1.156l.165-.814c.068-.387.111-.765.154-1.142l.072-.744a12.24 12.24 0 0 0 0-1.181l-.015-.596a9.074 9.074 0 0 0-.291-1.645 7.59 7.59 0 0 0-.435-1.142l-.164-.309-.409-.66-.218-.282-.523-.538-.195-.18a4.497 4.497 0 0 0-.816-.516l-.174-.066-.737-.251-.314-.062-.691-.069-.327-.009-.855.089-.192.026a7.3 7.3 0 0 0-1.078.315l-.295.128c-.268.111-.541.24-.813.388l-.371.213c-.263.158-.524.334-.786.524l-.337.244c-.367.287-.731.596-1.092.947l-.019.021c-.351.344-.696.727-1.034 1.132l-.314.395c-.235.298-.467.613-.693.941l-.392.593c-.208.324-.41.667-.608 1.02l-.356.646c-.205.397-.403.821-.595 1.251l-.278.612a28.081 28.081 0 0 0-.77 2.062l-.081-.348c.321-1.591.563-3.117.742-4.587.06-.499.077-.955.121-1.441.091-.942.19-1.892.225-2.782.022-.551 0-1.053.003-1.583.004-.769.022-1.552-.013-2.276-.025-.532-.086-1.021-.131-1.529-.057-.665-.104-1.341-.191-1.967-.07-.495-.173-.944-.259-1.415-.108-.579-.204-1.17-.337-1.711-.111-.447-.244-.854-.369-1.276-.147-.502-.289-1.014-.459-1.479-.141-.396-.304-.75-.459-1.119-.183-.43-.361-.87-.558-1.266-.169-.338-.353-.641-.534-.952-.207-.362-.412-.729-.633-1.053-.189-.285-.39-.53-.588-.786-.228-.292-.452-.589-.688-.845-.202-.225-.41-.416-.619-.613-.239-.223-.478-.45-.72-.64-.212-.165-.424-.298-.635-.437a7.902 7.902 0 0 0-.731-.433l-.634-.264-.715-.224-.615-.087-.678-.014-.579.09-.616.19-.229.12c-.074-4.027.012-8.062.346-12.067.036-.453.03-.844-.005-1.192l-.06-.291-.147-.597-.244-.431-.079-.128-.454-.345-.156-.044-.41-.093-.239.007-.416.046-.28.074-.448.162-.305.137-.487.275-.3.188-.572.427-.242.191c-.273.229-.547.481-.819.756l-.155.171c-.22.228-.438.469-.652.725l-.279.353-.499.662-.295.438-.439.695-.28.483-.395.762-.244.502-.362.875-.184.47c-.047.133-.082.273-.126.408-.084-.075-.172-.148-.257-.222.024-.75.035-1.49.024-2.216l-.018-.777a38.981 38.981 0 0 0-.223-3.171l-.031-.207a36.757 36.757 0 0 0-.463-2.816l-.134-.653a35.878 35.878 0 0 0-.706-2.721l-.102-.306a34.932 34.932 0 0 0-.815-2.286l-.211-.529a33.13 33.13 0 0 0-1.039-2.274l-.169-.314a31.419 31.419 0 0 0-1.012-1.798l-.281-.462c-.395-.627-.8-1.231-1.21-1.79l-.174-.226a28.18 28.18 0 0 0-1.108-1.381l-.31-.36a23.773 23.773 0 0 0-1.233-1.302l-.145-.136a19.337 19.337 0 0 0-1.076-.955l-.302-.248a15.534 15.534 0 0 0-1.102-.804l-.1-.059a9.141 9.141 0 0 0-.912-.513l-.238-.112-.83-.297-.039-.005-.608-.036-.134.024-.405.23c-5.633.738-.638 14.55.671 17.926a78.917 78.917 0 0 0-.341-.831l-.146-.344c-.097-.229-.199-.47-.314-.731l-.248-.566a49.625 49.625 0 0 0-.346-.778l-.296-.651c-.133-.29-.273-.59-.417-.9l-.344-.723c-.149-.314-.311-.642-.472-.97a62.886 62.886 0 0 0-.94-1.857c-.135-.261-.265-.515-.408-.78-.218-.415-.451-.833-.684-1.254l-.36-.655a72.602 72.602 0 0 0-1.121-1.918l-.236-.376a66.628 66.628 0 0 0-.967-1.532c-.149-.225-.304-.446-.456-.669-.27-.399-.54-.795-.816-1.181-.177-.246-.36-.483-.541-.725-.263-.352-.529-.7-.801-1.039-.192-.24-.388-.472-.583-.704a30.26 30.26 0 0 0-1.427-1.579c-.281-.289-.566-.56-.853-.827l-.616-.557a18.12 18.12 0 0 0-.904-.715l-.603-.441a12.024 12.024 0 0 0-1.016-.602l-.521-.291a9.134 9.134 0 0 0-1.563-.589 7.414 7.414 0 0 0-1.204-.207l-.35-.016-.777.015-.354.044-.729.175-.254.076a4.546 4.546 0 0 0-.86.438l-.146.116-.592.506-.213.239-.412.559-.174.277-.359.781-.076.178a7.303 7.303 0 0 0-.279 1.088l-.041.319a8.765 8.765 0 0 0-.081.897l-.007.428c.002.306.02.621.05.943l.038.414c.06.462.14.933.257 1.422l.009.027c.116.477.27.97.446 1.467l.18.472c.136.354.288.714.455 1.076l.31.639c.116.231.25.465.38.699-21.777-16.406-30.778-40.339-35.207-47.103-8.308 17.347-4.135 35.723 1.428 48.918-.073.03-.145.055-.217.086 0 0-3.076 2.576-10.256-3.185-9.572-7.68-24.333-24.56-28.463-27.798-11.032 29.233 18.034 50.72 18.072 50.753 4.245 3.757-10.989 10.854-44.462-7.955-2.443 22.82 22.122 33.692 41.135 35.087 15.571 3.524 15.443 13.906 15.51 14.037-20.837 1.869-24.425 10.216-19.192 24.522-17.114-8.15-38.506-12.003-64.432-9.567-29.684 2.789-46.622 6.56-61.05 21.743-48.417-12.744-85.882 25.03-85.882 25.03l-.111.101-.112.224-.143.286-.014.162-.016.421.051.234.122.4.063.131.062.131.06.102.182.307.144.206.048.069.601.688.525.483.232.202c.095.078.208.152.308.228.191.147.377.294.587.436l.197.12c.265.174.541.343.834.507l.398.209.742.368.162.07.323.14.765.303.527.186.822.246.49.133.049.013.463.097.464.096.496.094c.457.071.921.127 1.392.158l.071.009c-.278.033-.543.079-.815.118-.826.119-1.635.257-2.421.415l-.154.029-.212.045-.548.117c-.53.119-1.054.244-1.567.378s-1.018.276-1.508.429l-.198.068c-.233.074-.456.156-.684.234a36.95 36.95 0 0 0-1.341.488c-.219.085-.442.167-.657.254l-.616.253c-.441.189-.875.383-1.3.582s-.84.404-1.244.616l-.258.143-.024.013a35.11 35.11 0 0 0-2.096 1.225l-.328.208-.153.097c-.716.468-1.399.948-2.043 1.442l-.095.077-.182.147c-.555.436-1.081.88-1.579 1.328l-.201.181-.201.181a31.14 31.14 0 0 0-1.535 1.521l-.189.213c-.413.453-.796.901-1.152 1.345l-.297.371c-.382.493-.74.982-1.051 1.453l-.107.168c-.277.426-.519.835-.739 1.234l-.188.342c-.225.43-.426.846-.586 1.232l-.039.109c-.142.355-.25.684-.335.992l-.066.254-.138.871.002.039.026.201.052.403.048.127.301.355c.11.337.263.625.454.866.142.181.312.328.495.459.199.143.417.263.658.352.72.266 1.615.306 2.615.178.411-.053.839-.133 1.279-.237.441-.104.894-.231 1.355-.377.23-.073.463-.15.696-.232.934-.327 1.889-.72 2.823-1.143a49.352 49.352 0 0 0 2.705-1.323 70.648 70.648 0 0 0 4.41-2.521 58.02 58.02 0 0 0-.548.355l-.204.133-.311.207c-.207.137-.424.283-.66.444l-.511.349c-.224.152-.456.312-.701.484l-.585.412c-.175.123-.358.255-.54.385l-.268.191-.647.472c-.281.205-.573.425-.865.644a78.871 78.871 0 0 0-1.651 1.268c-.232.181-.457.356-.691.545-.368.291-.735.598-1.105.904l-.577.475c-.559.471-1.121.958-1.677 1.457l-.326.302c-.445.405-.89.815-1.327 1.234-.193.188-.382.382-.573.572a53.79 53.79 0 0 0-1.009 1.021c-.208.22-.408.444-.613.666-.298.324-.59.649-.873.979-.2.233-.392.469-.584.704-.088.109-.168.217-.254.326-.172.217-.347.434-.51.651-.179.238-.354.478-.523.718-.231.33-.445.66-.654.992l-.433.708c-.197.341-.366.681-.535 1.021l-.189.396-.133.278c-.162.371-.284.741-.403 1.11l-.095.283-.095.283a9.093 9.093 0 0 0-.29 1.645 7.01 7.01 0 0 0 .019 1.222l.049.347.079.38.079.38.109.34.307.685.121.236c.173.277.367.535.59.764l.141.122.607.488.273.165.626.301.203.08.101.04.063.016.771.193.19.041c.03.004.064.002.094.006.33.043.67.07 1.027.066l.224-.013.097-.006c.193-.009.396-.035.597-.058.101-.011.197-.013.299-.029l.422-.073c.2-.039.407-.096.612-.149.103-.027.202-.045.306-.075l.4-.114c.443-.144.891-.31 1.35-.516l.025-.013c.448-.203.903-.445 1.359-.71l.43-.264c.194-.12.389-.257.584-.388.13-.088.26-.166.389-.259l.571-.423c.307-.233.614-.487.921-.75l.185-.162.37-.324c.329-.303.659-.633.987-.972l.47-.48a28.74 28.74 0 0 0 1.429-1.674l-.043.355a60.111 60.111 0 0 0-2.266 4.057c-.114.224-.213.442-.311.659-.097.217-.192.433-.296.653-.204.427-.41.855-.607 1.28a27.88 27.88 0 0 0-.555 1.258c-.105.255-.195.503-.281.748-.087.246-.171.49-.263.738l-.268.721c-.179.481-.354.96-.497 1.422-.159.508-.268.989-.4 1.482l-.124.458c-.134.492-.268.984-.369 1.455-.052.244-.092.481-.129.715s-.072.467-.112.702c-.049.29-.101.583-.148.871a15.3 15.3 0 0 0-.121.852c-.049.458-.063.886-.089 1.325-.018.29-.037.581-.052.868-.012.23-.022.458-.022.678-.002.42.029.808.049 1.209.011.208.021.418.033.626.014.257.031.511.059.754.043.376.112.723.176 1.077.035.205.07.412.108.615s.079.401.127.591c.08.333.185.632.283.94.057.176.12.342.178.515s.112.354.178.515c.076.187.163.354.249.525.042.086.081.177.124.263.05.097.103.186.153.283.1.193.197.391.305.565.143.227.296.425.447.628.176.23.352.459.539.657l.506.465.595.455.547.292.633.245.575.114.644.032.585-.08.639-.189.573-.276c.31-.177.621-.358.919-.625.797 3.268 1.985 6.383 3.542 9.416a54.721 54.721 0 0 0 3.593 5.973 68.982 68.982 0 0 0 3.466 4.603 102.474 102.474 0 0 0 4.31 4.921c.503.54 1.041 1.085 1.565 1.628.294.34.573.624.845.88a161.926 161.926 0 0 0 3.319 3.286c6.112 5.877 13.356 12.067 21.543 19.065l.015.012a8.56 8.56 0 0 0 1.107.771l.377.218c.368.204.77.404 1.204.599l.33.154c.549.233 1.15.457 1.789.67l.504.157c.526.163 1.075.322 1.649.469l.613.156c.746.178 1.518.345 2.335.492l.424.067c.703.12 1.428.227 2.174.32l.817.096a53.3 53.3 0 0 0 2.366.207l.456.035c.937.054 1.902.079 2.879.086l.887-.005a58.447 58.447 0 0 0 2.346-.067l.839-.039a57.584 57.584 0 0 0 3.093-.275l.769-.103a56.45 56.45 0 0 0 2.523-.387 53.225 53.225 0 0 0 4.196-.896l.242-.07a51 51 0 0 0 3.962-1.233 47.842 47.842 0 0 0 2.62-1.017l.653-.27c1.048-.46 2.085-.97 3.107-1.518.26-.139.515-.291.773-.437.58-.325 1.146-.684 1.713-1.039 6.028 6.7 12.853 12.737 20.407 17.877-.84 12.767 5.398 23.892 15.321 26.052 7.783 1.694 15.797-2.571 21.084-10.26 7.296 1.629 14.964 2.538 22.982 2.607 9.496.081 18.334-1.132 26.499-3.424 6.837 6.978 15.925 9.831 23.464 6.466 8.37-3.735 12.308-14.009 10.478-25.038 28.64-25.413 40.484-68.646 32.68-106.946 1.4 1.797 2.764 3.622 4.049 5.499.258.374.51.673.757.921l.23.188.491.37.461.181.142.049.57-.02.149-.065.377-.187.181-.156.294-.298.17-.234.245-.408.149-.299.204-.521.114-.335.175-.692.067-.301c.067-.351.12-.719.157-1.104l.011-.23c.026-.316.044-.639.048-.974l-.006-.45-.031-.828-.047-.526-.099-.816-.088-.552-.175-.84-.128-.544-.272-.907-.154-.48a15.75 15.75 0 0 0-.525-1.299l-.026-.066a40.918 40.918 0 0 0 2.111 2.712l.505.591a38.934 38.934 0 0 0 2.175 2.318l.155.141c.705.677 1.42 1.302 2.137 1.891l.516.421a35.663 35.663 0 0 0 2.266 1.664l.272.174a35.14 35.14 0 0 0 2.076 1.258l.498.277c.753.406 1.5.777 2.241 1.108l.33.137c.648.28 1.289.53 1.92.755l.51.181c.702.237 1.398.45 2.069.624l.277.065c.595.147 1.171.27 1.732.371l.467.084a23.97 23.97 0 0 0 1.779.231l.198.014c.506.041.981.058 1.437.061l.391.002c.486-.007.947-.029 1.363-.073l.115-.017c.38-.044.721-.106 1.031-.178l.255-.063.832-.294.033-.021.494-.356.089-.103.169-.434c3.902-4.129-8.692-11.685-11.84-13.477.215.119.485.266.789.428l.33.175c.219.116.451.238.705.369l.55.282c.24.124.492.252.76.385l.641.318c.286.142.584.285.892.435.233.112.476.227.723.343.314.15.647.302.978.454.261.121.523.241.798.363.356.16.732.322 1.104.483.27.117.531.232.809.347.431.184.875.36 1.322.541l.693.281c.68.267 1.376.528 2.08.78l.421.143a65.23 65.23 0 0 0 1.717.577c.257.08.518.154.776.231.461.139.92.275 1.379.4.293.079.585.147.877.221.426.107.852.209 1.277.301.3.065.599.121.897.178a30.029 30.029 0 0 0 2.103.324c.401.046.792.077 1.184.102l.829.043c.393.01.773-.003 1.152-.017l.747-.039a11.63 11.63 0 0 0 1.168-.175l.587-.103a9.147 9.147 0 0 0 1.584-.53 7.1 7.1 0 0 0 1.065-.599l.281-.208.593-.502.247-.257.455-.596.149-.219c.161-.284.295-.578.39-.883l.04-.182.139-.766.015-.32-.034-.694-.04-.324-.214-.833-.054-.186a7.25 7.25 0 0 0-.471-1.02l-.17-.273c-.15-.248-.317-.5-.504-.746l-.265-.336a11.293 11.293 0 0 0-.634-.7l-.291-.297a13.276 13.276 0 0 0-1.098-.94l-.024-.016a15.088 15.088 0 0 0-1.273-.856l-.438-.252a18.488 18.488 0 0 0-1.032-.547l-.644-.3c-.351-.158-.72-.307-1.099-.451l-.691-.256a25.28 25.28 0 0 0-1.325-.404l-.646-.185a28.384 28.384 0 0 0-2.153-.457l.333-.132c1.621.083 3.166.097 4.646.057.502-.014.956-.065 1.442-.093.945-.049 1.9-.092 2.785-.188.548-.06 1.042-.156 1.566-.231.761-.109 1.538-.207 2.249-.349.522-.103.997-.236 1.493-.355.649-.155 1.31-.301 1.917-.479.479-.142.908-.31 1.361-.465.556-.192 1.127-.374 1.643-.586.426-.176.809-.368 1.208-.554.475-.22.96-.435 1.395-.672.37-.198.697-.411 1.039-.619.398-.244.807-.486 1.169-.739.31-.217.582-.444.863-.668.327-.258.66-.515.948-.781.254-.229.467-.464.691-.697.256-.268.516-.534.735-.805.192-.233.35-.468.515-.703.185-.27.375-.539.527-.807.132-.234.232-.463.339-.692.119-.264.236-.528.32-.787l.167-.666.116-.74-.004-.62-.086-.673-.174-.559-.279-.582-.349-.477-.471-.472-.516-.372c-.303-.188-.611-.376-.988-.51.302-.274-15.648-2.363-15.648-2.363s7.6-2.324 6.837-7.911c-.047-.345-.255-.683-.572-1.013 5.408-3.711 11.056-7.179 16.97-10.05.408-.2.741-.405 1.023-.613l.22-.2.438-.431.247-.43.07-.133.065-.567-.042-.157-.129-.401-.128-.202-.252-.334-.206-.203-.368-.302-.274-.192-.485-.279-.315-.162-.659-.275-.287-.111a11.82 11.82 0 0 0-1.069-.318l-.226-.045a13.81 13.81 0 0 0-.956-.191l-.446-.06-.823-.092-.527-.031-.822-.023-.559.006-.857.05-.557.046-.937.136-.499.082c-.454.09-.908.196-1.362.327l-.07.016a41.194 41.194 0 0 0 2.994-1.688l.659-.412a39.09 39.09 0 0 0 2.614-1.809l.162-.132a36.74 36.74 0 0 0 2.186-1.835l.493-.448a36.429 36.429 0 0 0 1.98-1.995l.212-.244a35.305 35.305 0 0 0 1.551-1.867l.348-.451c.512-.685.99-1.37 1.426-2.054l.184-.306c.372-.6.715-1.197 1.03-1.788l.254-.478a30.7 30.7 0 0 0 .923-1.954l.105-.265c.233-.567.439-1.118.623-1.658l.152-.45c.191-.594.359-1.176.491-1.725l.043-.194c.115-.495.202-.962.272-1.412l.06-.386c.065-.481.111-.941.129-1.358zm-94.614 2.097c-.022.362-.003.607.036.645.15 0 .308.003.462.005 1.17 1.574 2.502 3.702 3.793 6.442-4.674 1.529-10.193 2.818-16.672 3.647-2.35.301-4.831.538-7.438.707l-.501.032c-1.212.074-2.453.133-3.722.175-.199.007-.401.011-.601.017-1.311.038-2.645.063-4.018.065-4.714.006-8.185.984-10.513 2.657a88.159 88.159 0 0 0-2.101-1.154c15.735-17.046 40.343-14.419 41.275-13.238z" opacity="1" data-original="#005995"></path><path fill="#005995" d="M169.796 428.083s-55.404 3.455-58.029-17.791c-1.507-12.193 15.983-12.338 15.983-12.338s-5.73-8.585.396-13.146c7.1-5.285 14.565.594 14.565.594s.234-9.742 8.446-10.359c11.359-.854 22.344 42.64 52.656 34.557 30.311-8.084 1.17 17.362-34.017 18.483z" opacity="1" data-original="#005995"></path><ellipse cx="240.994" cy="335.712" fill="#99bdd5" rx="62.198" ry="65.56" opacity="1" data-original="#99bdd5"></ellipse><path fill="#005995" d="M262.915 265.673c-63.342-28.474-68.069 29.01-68.069 29.01s-2.02 23.712 5.634 23.1c7.042-.564 11.549-15.775 11.549-15.775 3.663 13.521 9.725 28.648 13.855 27.629 6.806-1.679 12.062-22.395 12.062-22.395s16.79 29.643 24.225 27.725c7.956-2.052 8.093-35.803 8.093-35.803s8.811 9.614 13.576 7.371c4.766-2.244-4.586-35.227-20.925-40.862z" opacity="1" data-original="#005995"></path><path fill="#ffffff" d="M162.231 358.89c2.518-10.792-3.219-19.648-8.742-22.287-8.528-4.073-19.248 1.96-19.248 1.96-11.168-13.307-.713-33.802-.713-33.802-17.584 16.634-1.901 43.723-1.901 43.723s5.703-6.178 17.109-7.129c6.507-.542 10.088 8.092 9.03 13.307l-2.956 2.464c-1.193-1.317-3.155-2.273-6.073-2.464 0 0 5.941 5.703 1.901 13.307 3.076-.549 5.233-3.282 5.589-6.133l8.669 12.371c-5.881 19.782-18.059 35.109-53.188 35.384 56.594 7.879 59.366-36.869 59.366-36.869l-8.843-13.832z" opacity="1" data-original="#ffffff"></path><path fill="#d33a22" d="m217.169 305.01.447.748-.323-.086c-.077-.427-.124-.662-.124-.662z" opacity="1" data-original="#d33a22"></path><path fill="#005995" d="M303.501 207.073c8.786-18.376 10.126-31.221 6.821-38.932-1.426-3.327-7.525-1.079-7.525-1.079-2.334-16.561-7.565-29.686-14.468-40.065 3.875-10.04 8.913-32.214-7.436-57.955l-35.091 25.94a100.674 100.674 0 0 0-9.84-2.83 1257.76 1257.76 0 0 1 13.103-3.637c-.653-2.284-7.674-10.637-18.641-8.113 2.239-5.529 1.028-11.029.104-12.376l-57.712 29.91a218.901 218.901 0 0 0-5.188 1.759c-5.847 2.072-11.098 4.663-15.818 7.628l-34.361-28.776c-17.615 27.735-3.902 55.464 2.683 65.95-8.518 18.397-9.693 34.803-9.693 34.803s-16.591 3.859-15.208 11.406c7.132 38.928 41.39 44.206 41.39 44.206s-14.307 1.781-8.122 7.714c29.228 28.04 123.604 19.604 123.604 19.604s49.148-24.119 58.178-50.733c2.061-6.068-6.894-3.877-6.78-4.424z" opacity="1" data-original="#005995"></path><path fill="#99bdd5" d="M278.094 204.461c15.061-12.15 15.304-33.68 10.812-49.188-3.942-13.609-26.365-43.654-43.248-39.208-14.936 3.933-17.719 37.545-29.475 37.545-16.497 0-42.287-54.653-66.762-13.545-16.382 27.515-14.257 52.752-14.257 52.752s14.97 35.168 52.04 30.178c33.353-4.49 22.455-25.188 38.376-29.228 15.92-4.038 30.596 28.376 52.514 10.694z" opacity="1" data-original="#99bdd5"></path><path fill="#ffffff" d="M197.394 172.631c-3.172-10.912-10.361-19.184-18.499-22.539-4.361 5.775-11.432 9.62-18.691 9.62a22.63 22.63 0 0 1-6.181-.854c-4.111 7.128-5.245 17.06-2.339 27.058 4.83 16.616 18.977 27.112 31.6 23.444 12.622-3.669 18.939-20.113 14.11-36.729z" opacity="1" data-original="#ffffff"></path><ellipse cx="178.69" cy="181.959" fill="#99bdd5" rx="16.111" ry="22.821" transform="rotate(-12.94 178.698 181.95)" opacity="1" data-original="#99bdd5"></ellipse><ellipse cx="179.49" cy="183.067" fill="#002d4b" rx="10.441" ry="14.631" transform="rotate(-12.94 179.497 183.06)" opacity="1" data-original="#002d4b"></ellipse><path fill="#ffffff" d="M183.899 174.796c-.077.017-.152.04-.23.054a7.351 7.351 0 0 1-8.676-7.379 7.348 7.348 0 0 1 5.599-6.983c.142-.035.281-.074.427-.101a7.352 7.352 0 0 1 8.556 5.907 7.302 7.302 0 0 1-.359 3.914 7.34 7.34 0 0 1-5.317 4.588zM266.823 142.123c-3.019 1.445-6.324 2.263-9.668 2.263-5.952 0-11.189-2.244-15.166-5.881-9.646 5.806-13.986 20.245-9.75 34.818 4.83 16.616 18.977 27.112 31.6 23.444 12.622-3.669 18.939-20.113 14.11-36.729-2.164-7.443-6.199-13.651-11.126-17.915z" opacity="1" data-original="#ffffff"></path><ellipse cx="253.304" cy="168.175" fill="#99bdd5" rx="16.111" ry="22.821" transform="rotate(-12.94 253.31 168.162)" opacity="1" data-original="#99bdd5"></ellipse><ellipse cx="251.965" cy="169.283" fill="#002d4b" rx="10.441" ry="14.631" transform="rotate(-12.94 251.97 169.273)" opacity="1" data-original="#002d4b"></ellipse><path fill="#ffffff" d="M256.374 161.014c-.077.017-.152.04-.23.054a7.351 7.351 0 0 1-8.676-7.379 7.348 7.348 0 0 1 5.599-6.983c.142-.035.281-.074.427-.101a7.352 7.352 0 0 1 8.556 5.907 7.302 7.302 0 0 1-.359 3.914 7.34 7.34 0 0 1-5.317 4.588z" opacity="1" data-original="#ffffff"></path><path fill="#f29222" d="M228.905 169.931c-6.045-.079-10.954 2.575-13.721 6.907-5.465 8.554-13.01 27.267-13.01 27.267-10.693 3.921 2.851 12.119 2.851 12.119-1.069 18.891 19.105 27.867 33.149 23.885 21.385-6.064 15.69-26.94 10.98-21.98-6.941-10.103 10.94-18.836 10.94-18.836s-7.307-29.05-31.189-29.362z" opacity="1" data-original="#f29222" class=""></path><path fill="#002d4b" d="M240.402 221.029c.713 12.58-27.089 17.926-30.95-8.88 1.58-.21 9.727 5.553 21.117-3.411 14.495-11.406 20.436-7.604 20.436-7.604-11.168 1.901-13.782 9.03-13.782 9.03s2.602 9.529 3.179 10.865z" opacity="1" data-original="#002d4b"></path><ellipse cx="237.277" cy="178.441" fill="#ffffff" rx="2.981" ry="7.688" transform="matrix(.4 -.917 .917 .4 -21.1 324.67)" opacity="1" data-original="#ffffff"></ellipse><ellipse cx="247.092" cy="183.867" fill="#ffffff" rx="2.293" ry="2.62" transform="matrix(.4 -.917 .917 .4 -20.181 336.926)" opacity="1" data-original="#ffffff"></ellipse><ellipse cx="274.34" cy="192.603" fill="#e30613" rx="11.055" ry="3.79" transform="rotate(-7.87 274.986 192.983)" opacity="1" data-original="#e30613"></ellipse><ellipse cx="171.334" cy="208.29" fill="#e30613" rx="11.055" ry="3.79" transform="rotate(-7.87 171.758 208.721)" opacity="1" data-original="#e30613"></ellipse><g fill="#002d4b"><path d="m274.264 143.43-4.99-4.99c-6.416 4.99-19.01 6.772-30.839-2.306 1.276 3.453 3.202 6.724 6.087 9.048 8.836 7.119 24.395 6.803 29.742-1.752zM181.004 145.663c-6.78 12.738-24.012 12.382-29.381 9.78l-5.615 7.931c32.731 11.423 36.043-19.678 34.996-17.711z" fill="#002d4b" opacity="1" data-original="#002d4b"></path></g></g></svg>