<svg xmlns="http://www.w3.org/2000/svg" version="1.1" xmlns:xlink="http://www.w3.org/1999/xlink" width="512" height="512" x="0" y="0" viewBox="0 0 512 512" style="enable-background:new 0 0 512 512" xml:space="preserve" class=""><g><path fill="#f4c9d9" d="M480.2 303.5c-36.8-39.4-35.3-63.2-26.4-81.1 8.9-17.8 32.8-66.9 17.5-118.7-12-40.2-88.5-93.5-147-60.7s-52.8 12.1-110.4-4.2-115 12-128.5 48.7c-20.6 56.4 40 94.2-21.3 133.2C11.7 246-8.1 360.4 74 398.9s78.2-15.6 146.9-1.4c68.7 14.1 40.7 14.5 148.2 34.2s147.8-88.8 111.1-128.2zM53.9 327.4c-.4 3.5-2.9 6.2-5.6 5.9s-4.5-3.4-4.1-7.1c.4-3.5 2.9-6.2 5.6-5.9 2.7.4 4.5 3.6 4.1 7.1zm10-31.1c-3 8.3-10.5 13.2-16.6 11-6.2-2.2-8.7-10.8-5.7-19 3-8.3 10.5-13.2 16.6-11 6.2 2.2 8.7 10.7 5.7 19zm87.6-204.4c-8.7 5.6-19 4.8-23.1-1.6s-.4-16.1 8.2-21.7c8.7-5.6 19-4.8 23.1 1.6 4.2 6.4.5 16.1-8.2 21.7zm29.4-9.2c-4.1 2.6-8.9 2.2-10.8-.7-1.9-3-.2-7.5 3.8-10.1 4.1-2.6 8.9-2.2 10.8.7 2 2.9.3 7.5-3.8 10.1zM364.5 106c-3.8 5.6-13 5.8-20.5.6s-10.5-13.9-6.6-19.4c3.8-5.6 13-5.8 20.5-.6s10.4 13.8 6.6 19.4zm75.3 37.6c-13.6 9.9-35.4 3.1-48.7-15.3-13.4-18.4-13.2-41.2.3-51.1 13.6-9.9 35.4-3.1 48.7 15.3 13.5 18.3 13.2 41.1-.3 51.1z" opacity="1" data-original="#f4c9d9"></path><path fill="#2f3a59" d="M117.8 188.9c12.8-19.8 13.1-42.6.6-55.6-15.9-16.3-46.7-12.3-68.7 9.1s-27 52-11.2 68.4c6.5 6.7 15.7 10 25.8 10 11.9 0 25.1-4.6 36.7-13.6l28.4.4zm4.7 14.8-22-.3h-.6l-.4.4c-20.1 15.8-45 17.7-57.9 4.3-6.9-7.2-9.6-17.7-7.5-29.5 2.1-12 8.7-23.8 18.6-33.4 11.6-11.3 26.6-18 40.2-18h.7c9.1.2 16.8 3.3 22.3 9 11.4 11.7 10.6 32.9-1.9 51.6l-.6 1.1z" opacity="1" data-original="#2f3a59"></path><path fill="#ffffff" d="M116.1 135.7c11.6 12.1 11 33.7-1.7 52.5l-.4.7 9.5 15.4-23-.3h-.5l-.3.3c-20.3 16-45.5 17.8-58.7 4.3-14.5-15.1-9.6-43.7 11.1-63.7 20.6-20.2 49.3-24.3 64-9.2z" opacity="1" data-original="#ffffff"></path><g fill="#2f3a59"><path d="M62.9 191.7c-1.4-.5-2.9-.6-4.8-.3-.4 0-1.4.1-2.8.3-1.3.2-2.4.2-3.2.2-.5 0-.9-.1-1.4-.3-.4-.2-.8-.4-1.2-.8-.6-.6-.9-1.3-.9-2.1s.3-1.4.9-2.1c.6-.6 1.4-.9 2.2-.8.9.1 1.9.6 2.9 1.6l.4.3 2.4-2.4-.4-.4c-1.6-1.6-3.3-2.5-5-2.6s-3.4.5-4.9 2c-1.2 1.2-1.9 2.7-1.9 4.3 0 1.8.6 3.2 1.9 4.4 1 1 2.2 1.7 3.4 2.1 1.3.3 3.1.3 5.7 0s4.2-.4 5.2-.2c.9.2 1.8.7 2.5 1.4.8.8 1.2 1.7 1.2 2.5s-.4 1.6-1 2.3c-.8.8-1.6 1.1-2.4 1-1-.1-2-.7-3-1.7l-.4-.4-2.5 2.5.4.4c1.6 1.5 3.3 2.5 5.2 3h.4c1.7 0 3.3-.7 4.7-2.1 1.4-1.5 2.1-3.1 2.1-4.8 0-1.8-.8-3.6-2.3-5.1-.9-1.1-2.2-1.9-3.4-2.2zM74 177.3c-3-3.1-5.8-5.1-8.3-5.9-2.6-.8-4.9-.3-6.6 1.4s-2.2 3.9-1.5 6.5c.6 2.4 2.6 5.2 5.7 8.5 3.1 3.2 5.9 5.2 8.3 6 .9.3 1.7.5 2.5.5 1.6 0 2.9-.6 4.1-1.8 1.8-1.8 2.3-4 1.5-6.6s-2.7-5.5-5.7-8.6zm1.6 12.7c-.9.9-2.1 1-3.6.2-1.7-.9-3.9-2.7-6.6-5.4-2.4-2.6-3.9-4.7-4.5-6.1-.4-1-.6-2.3.5-3.4.5-.5 1-.7 1.7-.7.5 0 1.1.2 1.7.5 1.6.7 3.7 2.4 6.2 5 2.6 2.7 4.2 4.8 4.9 6.4s.6 2.7-.3 3.5zM83.7 165.4c-.2-1.4-.9-2.7-2.1-3.8-1.5-1.6-3.4-2.4-5.3-2.3-1.8.1-3.9 1.2-5.9 3.2l-3.7 3.6L85.1 185l2.4-2.6-8.3-8.5 2-2 11.1 6 2.9-2.7-12-6.3c.5-1.2.7-2.4.5-3.5zm-3.5 1.7c-.1 1.1-.7 2.1-1.9 3.2l-1.2 1.1-5.4-5.6 1.2-1.1c1.1-1.1 2.2-1.7 3.2-1.8.9-.1 1.8.4 2.8 1.3 1 1 1.4 1.9 1.3 2.9zM95.6 154c-.2-1.4-.9-2.7-2.1-3.8-1.5-1.6-3.4-2.4-5.3-2.3-1.8.1-3.9 1.2-5.9 3.2l-3.7 3.6L97 173.6l2.4-2.6-8.3-8.5 2-2 11.1 6 2.9-2.7-12-6.3c.5-1.2.7-2.4.5-3.5zm-3.7 1.8c-.1 1.1-.7 2.1-1.9 3.2l-1.2 1.1-5.4-5.6 1.2-1.1c1.1-1.1 2.2-1.7 3.2-1.8.9-.1 1.8.4 2.8 1.3 1 1 1.4 1.9 1.3 2.9zM105.6 149.5l-6.2-15-2.8 2.8 4.5 10.2-10.1-4.9-2.8 2.7 14.7 6.7 7.9 8.1 2.7-2.5z" fill="#2f3a59" opacity="1" data-original="#2f3a59"></path></g><path fill="#e8effe" d="m154.6 272.6-4.2 25.2 4.2 34.1 4.6 17.8s9.3 13.2 10 13.7c.9.4 4-3.3 4-3.3l3.2-23.8s-3.8-30.2-4-30.6c-.1-.3-12.5-28.5-12.5-28.5z" opacity="1" data-original="#e8effe"></path><path fill="#2f3a59" d="M227.3 305.7c-13.6 10.8-24.1 25.4-31.4 41.3l-2.6 6.1c-.9 1.9-1.6 3.8-2.7 5.7-2 3.5-4.9 6.7-8.4 7.4s-7.3-1.2-10.3-3.8c-3-2.7-5.6-6.1-7.7-9.7-4.3-7.3-7.1-15.4-8.4-23.7-1.6-8.4-2.6-17-3-25.5-.3-8.5-.1-17.2 1.2-25.6.6-4.3 1.6-8.4 2.9-12.6 1.4-4.1 3-8.1 5-12-2.4 3.6-4.3 7.6-5.9 11.6-1.5 4.1-2.8 8.3-3.7 12.6-1.8 8.5-2.5 17.3-2.4 26.1s1.1 17.4 2.5 26.1c1.4 8.8 4.3 17.3 8.8 25 2.2 3.8 5 7.5 8.4 10.6 1.7 1.5 3.7 2.9 6 3.7 2.2 1 4.9 1.3 7.4.7 2.6-.5 4.7-1.9 6.4-3.6s3.1-3.5 4.2-5.6c1.2-2 2-4.1 2.8-6.2l2.4-6c3.3-7.9 7.4-15.5 12.2-22.6 4.4-7.3 9.9-14.1 16.3-20z" opacity="1" data-original="#2f3a59"></path><path fill="#e8effe" d="M152.6 409.6c2.7-1.5 5.7-2.4 8.9-2.6 15.7-1 38.5 13.1 76.1 46.9 41.3 37.2 63.5 25.9 118.1-32.6 46.9-50.1 78.4-44.3 87.8-40.8-7.2-120.6-86.2-222.4-95.3-233.8l-.1-.2c-37.6-47.1-105.8-56.7-155.1-22-49 34.5-63 101.6-31.9 152.9 7.3 12 12.2 24 14.4 36 4.5 23 4.2 58.2-22.4 95.8-.3 0-.4.1-.5.4z" opacity="1" data-original="#e8effe"></path><path fill="#81a5e3" d="M365.4 416.4c19.2 6 36.1 5.4 50-1.5 17.6-8.8 25.5-25.5 27.6-30.7-6.3-2.4-34.5-9.9-77.6 32.2zM166.3 446.5c23.8 14.6 50.5 4.5 58.2 1-30.4-26.4-49.6-37.4-62.7-36.6-4.7.2-8.7 2.1-11.9 5.8-.6 2.8-1 6.1-.2 9.8 1.5 7.2 7.2 14.1 16.6 20z" opacity="1" data-original="#81a5e3"></path><path fill="#ffffff" d="M174.1 141.1s-39.7 68.5-17.2 114.3c22.5 45.7 48.5 91.6-2.2 151.2l11.6-26.7 7.8-25.4-.1-26.3-1.5-22.2-9.1-20.7-13.6-25.9-6.5-24.3-.9-27.5 5.8-26.5L160 156z" opacity="1" data-original="#ffffff"></path><path fill="#6391d3" d="M443.2 383.8c-7.6-2.9-35.6-9.3-78.1 32.3l-.6.6.9.3c8.9 2.8 17.3 4.2 25.2 4.2 9.2 0 17.6-1.9 25.2-5.7 18-8.9 25.8-25.9 27.8-30.9l.2-.5zM224.9 447c-30.2-26.2-49.7-37.5-63.1-36.8-4.8.2-8.9 2.2-12.2 5.9l-.1.1v.1c-.8 3.5-.9 6.8-.2 10.1 1.5 7.5 7.2 14.4 16.8 20.4 9.5 5.8 19.4 7.8 28.4 7.8 13.9 0 25.7-4.6 30.3-6.8l.8-.3z" opacity="1" data-original="#6391d3"></path><path fill="#d3e1f8" d="M280.2 479.1c-5 .1-10-.9-15.2-2.7-12.6-7.9-27-19.9-44.7-35.6-13.1-11.8-25-20-35.5-25.5-1-.5-1.9-1-2.8-1.5l-1.8-.9s.6.1 1.8.1c.5 0 1.2.1 1.8.1h2.6c12.6-.2 40.7-4.7 48.3-38.2-.2 2.8-4.5 60 40.8 100.2 1.4 1.4 3 2.8 4.7 4z" opacity="1" data-original="#d3e1f8"></path><path fill="#2f3a59" d="M243.8 198.8c5.3-2.7 12.9 1.9 17.1 10.1s3.2 17.1-2.1 19.8-12.9-1.9-17.1-10.1-3.2-17 2.1-19.8z" opacity="1" data-original="#2f3a59"></path><path fill="#2f3a59" d="M263.5 197.4c.3 1.4.2 3.1-.3 4.6s-1.6 2.9-2.9 4.1c-.6.5-1.3 1-1.9 1.5l-2 1.2-2.2-7.9h1.5c.4-.1 1-.1 1.4-.1 1-.1 1.8-.4 2.6-1 1.5-1.1 2.5-3.5 2.1-6.1.7 1.2 1.4 2.4 1.7 3.7z" opacity="1" data-original="#2f3a59"></path><path fill="#ffffff" d="M244.7 204.4c2.7-.6 5.9 2.2 7.2 6.4s.1 8.1-2.6 8.9c-2.7.6-5.9-2.2-7.2-6.4-1.2-4.3-.2-8.3 2.6-8.9z" opacity="1" data-original="#ffffff"></path><path fill="#2f3a59" d="M192.2 224.8c-5.3 2.7-6.2 11.5-2.1 19.8 4.2 8.2 11.9 12.7 17.2 10s6.2-11.5 2.1-19.8c-4.1-8.2-11.8-12.7-17.2-10z" opacity="1" data-original="#2f3a59"></path><path fill="#2f3a59" d="M179.4 239.6c1 1.1 2.4 2 4 2.5 1.6.4 3.3.4 4.9.1.9-.1 1.6-.4 2.4-.6l2.1-.9-5-6.5-.9 1.3c-.3.3-.6.7-1 1.1-.6.6-1.4 1.2-2.2 1.5-1.7.6-4.3-.1-6.1-1.9.3 1.2 1 2.4 1.8 3.4z" opacity="1" data-original="#2f3a59"></path><path fill="#ffffff" d="M196.2 228.6c-2.1 1.8-1.7 6.1.9 9.6s6.5 5 8.7 3.2c2.1-1.8 1.7-6.1-.9-9.6-2.7-3.5-6.6-4.9-8.7-3.2z" opacity="1" data-original="#ffffff"></path><path fill="#e0d2f0" d="M263.8 236.1c2.2 4.5 9.4 5.3 15.9 2 6.6-3.3 10.1-9.6 7.9-14.1s-9.4-5.3-16-2c-6.5 3.4-10 9.7-7.8 14.1zM182.8 276.8c2.2 4.5 9.4 5.3 16 2s10.1-9.6 7.9-14.1-9.4-5.3-15.9-2c-6.7 3.3-10.2 9.6-8 14.1z" opacity="1" data-original="#e0d2f0"></path><path fill="#e8effe" d="m174.1 239.5 13.2 6.3s8.3-8.2 8.7-8.2c.3 0 5.9-16 5.9-16s-6.8-1.3-7.2-1.1c-.3.2-19.2 11.1-19.2 11.3-.2.2-1.4 7.7-1.4 7.7zM267.2 192.9l-2.9 14.4s-11.5 1.7-11.8 1.9-16.3-4.9-16.3-4.9 3.1-6.2 3.4-6.4 20.4-8.7 20.6-8.5c.4 0 7 3.5 7 3.5z" opacity="1" data-original="#e8effe"></path><g fill="#2f3a59"><path d="M187.3 245.8c3.3-3.7 6-7.5 8.2-11.4 1.1-2 2.2-4.1 3.2-6.2.5-1.1 1-2.1 1.5-3.2s1-2.2 1.6-3.3c.2 1.3.2 2.6.2 3.7-.1 1.3-.2 2.6-.5 3.7-.5 2.5-1.5 4.9-2.7 7.1-1.3 2.2-2.9 4.3-4.8 5.9-2 1.7-4.2 3.1-6.7 3.7zM264.4 207.3c-5 .4-9.5.2-14.1-.3-2.2-.3-4.6-.6-6.8-1.2-1.2-.2-2.4-.5-3.5-.7-1.2-.2-2.4-.5-3.6-.7.9.9 1.9 1.7 2.9 2.5 1.1.6 2.1 1.4 3.3 1.8 2.2 1.1 4.8 1.7 7.3 2.1 2.6.3 5.1.2 7.6-.3 2.5-.7 4.9-1.5 6.9-3.2zM220.1 258.2c1.3-14.4 20.1-23.8 32.4-16.2-13.3-1.7-25.9 4.6-32.4 16.2zM184.2 416c6.7-8.5 10.6-19 11.2-29.7-1.8 10-6.7 19.9-13.9 27.1zM174.3 411.8c4.4-5.9 6.2-12.9 7.9-19.9-2.7 6.1-5.7 12.6-10.5 17.3z" fill="#2f3a59" opacity="1" data-original="#2f3a59"></path></g><path fill="#d3e1f8" d="M366.2 410.7c41-38.6 68.5-33.4 77.2-30.2-7.2-120.6-86.2-222.4-95.3-233.8l-.1-.2c-35.3-44.1-97.4-55.4-145.7-28 0 0 66.6 2.4 115.3 62.1s67.2 180.8 48.6 230.1z" opacity="1" data-original="#d3e1f8"></path><path fill="#2f3a59" d="M382.2 260c-13.6 10.8-24.1 25.4-31.4 41.3l-2.6 6.1c-.9 1.9-1.6 3.8-2.7 5.7-2 3.5-4.9 6.7-8.4 7.4s-7.3-1.2-10.3-3.8c-3-2.7-5.6-6.1-7.7-9.7-4.3-7.3-7.1-15.4-8.4-23.7-1.6-8.4-2.6-17-3-25.5-.3-8.5-.1-17.2 1.2-25.6.6-4.3 1.6-8.4 2.9-12.6 1.4-4.1 3-8.1 5-12-2.4 3.6-4.3 7.6-5.9 11.6-1.5 4.1-2.8 8.3-3.7 12.6-1.8 8.5-2.5 17.3-2.4 26.1s1.1 17.4 2.5 26.1c1.4 8.8 4.3 17.3 8.8 25 2.2 3.8 5 7.5 8.4 10.6 1.7 1.5 3.7 2.9 6 3.7 2.2 1 4.9 1.3 7.4.7 2.6-.5 4.7-1.9 6.4-3.6s3.1-3.5 4.2-5.6c1.2-2 2-4.1 2.8-6.2l2.4-6c3.3-7.9 7.4-15.5 12.2-22.6 4.5-7.4 10-14.1 16.3-20z" opacity="1" data-original="#2f3a59"></path><path fill="#2f3a59" d="M376.4 265.7c.7 1 1.7 1.9 2.7 2.8s2 1.6 3.2 2.4c1.2.6 2.4 1.2 3.6 1.5 1.3.3 2.6.4 4 .3-1.3.3-2.7.4-4.1.3s-2.8-.5-4.1-1-2.6-1.2-3.7-1.9c-1.2-.7-2.4-1.5-3.4-2.6z" opacity="1" data-original="#2f3a59"></path><path fill="#ffffff" d="M187.2 313.4c1.2 8.1-.6 15.1-4.2 15.6-3.5.5-7.4-5.6-8.7-13.7-1.2-8.1.6-15.1 4.2-15.6 3.7-.5 7.5 5.6 8.7 13.7zM187.8 344.2c-.4 6.4-3 11.4-5.8 11.3-2.8-.2-4.7-5.6-4.4-12 .4-6.4 3-11.4 5.8-11.3 2.9.3 4.8 5.6 4.4 12z" opacity="1" data-original="#ffffff"></path><path fill="#2f3a59" d="M164.4 449.6c27.1 16.7 57.5 3.2 63.1.4.5-.3.9-.4 1-.4l-1.8-3.2s-.9.4-2.1 1.1c-7.7 3.5-34.4 13.8-58.2-1-9.5-5.9-15.1-12.6-16.7-20.2-.7-3.6-.4-7.1.2-9.8.9-3.5 2.2-6 2.8-6.8.1-.2.2-.3.2-.3 26.6-37.5 26.9-72.9 22.4-95.8-2.2-12-7.2-24-14.4-36-31.1-51.2-17.1-118.3 31.9-152.9 49.4-34.7 117.5-25.1 155.1 22l.1.2c9.1 11.3 88.1 113.1 95.3 233.8.1.9.1 1.8.1 2.7-.1.2-.2.6-.4 1.2-2 5.1-10 21.8-27.6 30.7-14 6.9-30.8 7.5-50 1.5-1.1-.3-2.1-.6-3.2-1l-1.2 3.5c.4.2 1 .3 1.4.4 20.9 6.8 39.3 6.4 54.7-1.2 2.6-1.3 5-2.8 7.3-4.4 16.7-11.8 22.4-29.2 22.8-29.9l.1-.3v-.3c-2.7-53.5-19.4-103.4-38.2-143.7-.6-1.3-1.3-2.7-1.8-4-14.5-30.3-30-54.9-41.2-71-.7-1.1-1.5-2.1-2.2-3.2-6.3-8.9-10.9-14.8-12.7-17.1l-.1-.2C312 95.6 241.7 85.6 190.7 121.5c-50.6 35.7-65.1 104.9-33 157.8 7.1 11.5 11.8 23.3 13.9 34.8 4.3 22.3 4.1 56.5-21.8 92.9-.2.3-6.1 8.9-3.8 19.9 1.8 8.7 8 16.2 18.4 22.7z" opacity="1" data-original="#2f3a59"></path><path fill="#2f3a59" d="m424.2 380.9-1.7-22.3-2.1 22.3zM408 385.6l-1.7-13.4-2 13.3z" opacity="1" data-original="#2f3a59"></path><path fill="#2f3a59" d="m446.3 381.8-1.8 3.2s-.5-.3-1.4-.6c-6.4-2.6-34.6-9.9-77.6 32.2l-3 3c-1.4 1.4-2.8 2.9-4.3 4.4-34 36.2-56.2 55-78.2 55.2-5 .1-10-.9-15.2-2.7-9.3-3.3-19-9.9-29.9-19.8-2.6-2.4-5.1-4.6-7.5-6.6-1.1-.9-2-1.8-3.1-2.7-30.3-26.4-49.5-37.4-62.6-36.6-4.7.2-8.7 2.1-11.9 5.7l-.3.3-2.8-2.5c1.7-2 3.7-3.6 5.9-4.8 2.7-1.5 5.7-2.4 9-2.6s6.9.2 10.9 1.4c1.1.3 2.2.7 3.3 1.2 2.1.7 4.4 1.7 6.7 2.9.4.2.9.4 1.3.6.6.3 1.2.6 1.8 1 13.4 7.3 30.1 20.2 51.9 39.7 14.2 12.7 26.1 19.8 37.8 21.2 22.4 2.7 44.3-15.4 80.2-53.8 46.9-50.1 78.3-44.3 87.8-40.8 1.8.8 2.8 1.3 3 1.5z" opacity="1" data-original="#2f3a59"></path></g></svg>