<svg xmlns="http://www.w3.org/2000/svg" version="1.1" xmlns:xlink="http://www.w3.org/1999/xlink" width="512" height="512" x="0" y="0" viewBox="0 0 512 512" style="enable-background:new 0 0 512 512" xml:space="preserve"><g><path fill="#c4544e" d="M456.3 214.7c-7.4-25.9-16.3-51.2-24.8-76.7-7.3-22-13.4-44.7-29.4-62.2-14.5-15.7-33.9-28.2-54.1-35.1-11.5-4-23.7-6.1-35.6-8.1-12.7-2.1-26.5-3.4-39 .5-2.4-5-7.9-7.2-13-8.9-7.6-2.4-15.8-3.3-23.7-3.8-16.7-1-33.8-.4-50.3 2.6-22.1 4-44.7 12.3-62.5 26.3-6.6 5.2-12 11.5-16.7 18.3-15 9.6-23.1 27.7-29.3 43.7-3.4 8.9-6 18-8.6 27.1-3.3 11.4-7.1 22.7-11.1 33.9-4.1 11.7-8.1 23.3-11.3 35.3-3.1 11.7-5 23.7-6.3 35.7-2.8 24.7-2.7 49.7.1 74.3 1.6 13.6 4 27.1 7.4 40.3 3 11.5 6.6 22.5 12.5 32.8 5.7 9.8 13 18.8 21.4 26.3 7.7 6.9 17 13.2 27.4 14.8 4.1.6 6-5 1.8-6.4-1.7-.6-3.4-1.3-5.1-2-.3-1.7-.7-3.4-.8-4.8-.3-4-.5-7.9-1.1-11.9-.5-3.5-1-7-1.4-10.5.6.9 1.2 1.7 1.8 2.5 3.4 4.5 6.2 8.9 8.5 14 3.8 8.3 7.9 15.1 16.9 18.1 10.3 3.5 22.5 3.1 33.2 1.9 11.4-1.2 22.6-3.9 33.7-6.8 24.3-6.4 48.8-12.8 73.5-17.7 13-2.6 26.1-3.8 39.3-5.4 13-1.6 25.2-5.3 37.5-10 12.2-4.7 25.1-7.7 37.2-12.7 8.9-3.7 16.1-9.2 20.8-17.8 4-7.2 5.5-15.5 6.7-23.6.5-3.2.9-6.5 1.3-9.7.2.6.3 1.2.4 1.7 1.1 4.4 1.9 8.8 2.6 13.3 1.4 9.8 0 19.4-4.3 28.4-.7 1.5-.8 3.4.6 4.7.5.5 1 .9 1.7 1 .8.2 1.8.1 2.6-.2 5.9-.1 11.8-4.3 16.3-7.5 6.5-4.8 10.4-9.9 12.5-17.7.7-2.6 1.2-5.2 2-7.8.5-.3.9-.7 1.3-1.2 1.4-1.9 3.1-3.7 4.9-5.3.4-.1.8-.2 1.3-.3 5.2-1.3 15.5-4.7 12.7-12.2-.2-.4-.4-.8-.6-1.1.9-1.1 1.7-2.3 2.5-3.5 6.5-9.5 7.2-20.2 5.4-31.2-2.1-12.4-5.3-24.7-8.3-36.9-3.1-12.7-6.8-25.6-10.5-38.5z" opacity="1" data-original="#c4544e"></path><g fill="#b23e3b"><path d="M152.4 398.5c-1.2-1.3-3.3-1.9-4.7-.5-.1-.1-.2-.1-.3-.2-.9-1.5-1.8-2.9-2.9-4-1.4-1.4-4-1-4.9.7-1.2-1.8-2.5-3.5-3.9-5.1.7-.9 1-2.3.5-3.4.4-1 .2-2.2-.5-3-2.2-2.4-6.5-3.7-9.5-4.7-3.3-1.1-6.6-1.5-10.1-1.1-1.4-.6-2.7-1.3-4.1-2-8.4-4.4-15.8-10.5-21.4-18.2-.9-1.3-2.9-.2-2.2 1.2 4.4 8.5 10.5 15.5 18.4 21 4 2.8 8.3 5.1 12.7 7 3.9 1.7 8.7 4.2 13.1 4.2 3.7 5.7 7 11.6 8.3 18.4 1.7 8.4.5 17 .9 25.5.1 2.9 4.4 3 4.5.1.1-1.8.1-3.7.2-5.5.1 0 .1 0 .2-.1 8.5-4.6 8.6-18.6 11.4-26.6 1.2-3.3-3.2-5.6-5.7-3.7zM86 368.3c.2 1.6 1 3.2 2 4.7-.7.5-1.2 1.4-1 2.6 1 7.5 3.2 14.7 5.2 21.9 2.2 7.8 4.5 15.5 7 23.1 1 3.1 5.1 2.5 5.6-.6 1.3-9.5-.6-19.9-2.8-29.1-2.2-8.9-8.5-16.6-14.2-23.5-.8-1-1.9-.1-1.8.9zM85.6 291.8c.8.8 2.2.7 2.8-.3 1.9-3.4.5-7.1-.4-10.6-1.3-5.1-2.8-10.1-4.1-15.2-1.2-4.9-1.9-9.9-2.9-14.9-.8-4.4-1.5-9.5-4-13.4-1.1-1.6-3.4-1-3.6.9-.4 4.1.9 8.4 1.6 12.5.9 4.9 1.5 9.9 2.6 14.8 1 4.6 2.4 9.1 3.7 13.7 1 4 1.1 9.6 4.3 12.5zM239.7 185.3c-2-6-.1-11.3-.4-17.2-.1-1.7-2.4-3.3-3.8-1.6-4.3 5.2-4 13-2.7 19.2 1.5 7.3 6.2 14.8 11.8 19.6 3.4 2.9 7.9-1.4 5-4.9-4.2-4.8-7.9-9.1-9.9-15.1zM176.7 129.7c-14.2 4.7-20.4 19.2-22.3 33.1-1.1 7.5-.9 15.2-.5 22.8.4 7.3.8 14.9 2.6 22 .6 2.3 4 1.8 4.1-.5.4-6.5-.7-13-1.2-19.4-.5-6.9-.7-13.9-.1-20.9 1.1-14.4 6.6-26 18.5-34.4 1.3-1 .6-3.3-1.1-2.7zM145.3 163.8c.1-.4.2-.7.3-1.1.4-1.5-1.6-2.3-2.4-1-.2.3-.3.5-.5.8-.6.1-1.2.4-1.5 1.2-7.5 17-14.4 39.9-7.6 58.2.3.9 1.3 1.3 2.1 1.2 1.5.8 3.8 0 3.7-2-.1-4.6-1-9.2-1.3-13.8-.3-5-.1-9.9.4-14.9.3-3.7 1-7.2 1.9-10.7 1.7-5.4 3.8-10.7 5.3-16.2.1-.6-.1-1.2-.4-1.7zM121 184.2c-3 6.4-4.3 14.2-5 21.2-.4 3.9-.3 7.8.1 11.7.4 3.5.4 7.3 3.3 9.6.6.5 1.8.2 2.1-.5 1.3-2.8.2-5.3-.3-8.3-.6-3.7-.6-7.5-.4-11.2.5-7.2 3.4-14.2 3.6-21.4 0-1.9-2.6-2.8-3.4-1.1zM365.9 179.1c-.1.3-.1.6-.1 1 1.1 7 4.1 13.4 6.4 20 1.3 3.7 2.4 7.6 2.8 11.6.3 2.9-.3 6.2 2 8.3.6.5 1.4.7 2.1.3 2-1.2 2.8-3.5 2.9-6 1.1-.1 2.2-.8 2.6-2.3 1.3-5-.6-10.6-2.3-15.3-2.1-6-5-11.6-8.2-17-3-5-6.3-10-10.1-14.5-3-3.5-6.2-9.4-10.8-10.9-.6-.2-1.5.3-1.4 1 .4 4 4 8.1 6.2 11.3 2.9 4 5.5 8.2 7.9 12.5zM423.7 286.9c3.8-4.1 5.9-9.3 7.2-14.6.9-2 1.4-4 1.2-5.9.3-2.1.6-4.2.7-6.3.1-3.4-.9-7.9 0-11.1.3-1-1.3-1.4-1.5-.4-.6 2.7-2.3 5-3.2 7.6-1.2 3.4-1.7 6.9-2.6 10.4-.1.3-.2.6-.2 1-.9 1.2-1.8 2.5-2.6 3.8-2.4 3.3-5.5 6.2-8.7 8.7-5.6 4.5-12.4 7.6-19.5 8.9-.3-.4-.8-.6-1.3-.6.5-5.2 1-12-1.6-16.4-1.3-2.2-4.6-1.8-5.3.6-.5 1.6-.5 3.2-.4 4.8-1.1-.2-2.4.8-2.5 2-.4 4.3.4 8.4-.4 12.7-.8 4.5-2.6 8.8-4.3 13-3.5 8.5-7.8 16.9-8.9 26.1-.4 3.1 3.2 4.2 5.5 3.2.5-.2 1-.5 1.5-.8-.3 2.3-.2 4.5.5 6.4.3.9 1.4 1.3 2.1.6 3.5-3.5 4.3-10.2 5.7-14.7 1.9-5.9 3.5-12 5-18.1.1-.3.1-.7.2-1 .7-1.1 1.4-2.2 2.3-3.2 3.1-3.8 6.4-6 11.1-7.4 7.3-2.1 14.4-3.3 20-9.3z" fill="#b23e3b" opacity="1" data-original="#b23e3b"></path><path d="M454.6 205.2c-3-9.2-6.1-18.4-9.2-27.6-1.6-4.8-3.1-9.6-4.6-14.4-1.4-4.4-2.4-9-4.6-13.1-.9-1.6-3.3-.9-3.4.9-.3 8.4 3 17.3 5.2 25.3 2.4 8.8 5.2 17.6 8 26.3 5.5 17.5 10.9 35.1 14.4 53.2 2.8 14.4 3.4 28.9 3.7 43.5 0 1 0 2 .1 3.1-.5 2.8-1 5.5-1.6 8.3-.3 1.5-.7 3-1.2 4.5.2-3.8-.2-7.7-.6-10.9-1-8.2-3.3-15.9-6-23.6-.1-.2-.2-.3-.3-.5-.6-6.1-1.4-12.2-3.2-18.2-.4-1.3-2.2-.8-2 .5 2 11.5 1.4 23.4 2.4 35 .5 5.5 1.2 11 1.7 16.5 0 .5.1.9.1 1.4-1.4-11.4-5.6-22.7-9.4-33.2-.6-1.6-2.7-1-2.5.6 1.4 9.2 2.6 18.5 3.8 27.8 1.1 8.6 1.3 16.9-1.3 25.2-2 6.4-5.8 12.1-10.1 17.2-4.7 5.5-10.8 9.6-15.5 15-2.7 3.1.7 8.3 4.5 5.9 6.2-3.8 11.8-9.9 16.5-15.3 5.1-5.8 9.2-12.3 11.8-19.6l.6-1.8c.7 1 2.1 1.6 3.6.9 1.4-.6 2.7-1.7 3.7-3 1 .4 2.1.5 3.2 0 4-1.9 6.3-5.7 7.7-10.2 1.8-1.9 2.9-4.9 3.8-7 1.8-4.3 2.5-9.1 2.7-13.8.5-8.7-.4-19.8-4.8-27.5-.1-.3-.3-.5-.5-.6-.4-5.1-1-10.1-1.8-15.1-2.9-18.8-8.8-37.3-14.9-55.7z" fill="#b23e3b" opacity="1" data-original="#b23e3b"></path><path d="M414.8 307.6c1 7.6 1 15.2.2 22.7-.4 3.8-.9 7.6-1.4 11.4-.5 3.9-1.3 7.7.1 11.5.5 1.3 2.3 1.9 3.1.4 1.7-3.3 1.9-6.8 2.4-10.4.5-4.3 1.1-8.5 1.5-12.8.8-8.2 1-16.6-2.9-24.1-.9-1.6-3.2-.4-3 1.3zM359.4 97.1c6.3 8.2 10.9 16.8 15.6 25.9 2.4 4.6 5.7 8.7 8.3 13.2s4.7 9.2 6.3 14.2c1.6 4.9 2.4 10.1 3 15.2.5 4.8-.5 9.8.6 14.5.4 1.8 2.7 1.5 3.3.1 1.8-4.4 1.3-9.8 1.1-14.4-.2-4.7-.9-9.2-2-13.8-2.2-9-6.6-18.1-12.4-25.3-6.6-8-10.4-17.7-16.5-26-5.8-7.8-11.9-14.8-16-23.7-.3-.7-1-.9-1.6-.6-.6.1-1.1.5-1.1 1.3.2 3.1 2.3 6.3 3.8 8.9 2.2 3.5 4.9 7 7.6 10.5zM399.1 146c1.4 3 2.6 6.1 3.5 9.3.7 2.4.6 5.2 2 7.3.6.8 1.9 1 2.5 0 2.3-4.3-1.1-10.9-2.9-14.9-2.7-6.3-6.5-11.9-10.4-17.5-.9-1.3-2.9-.2-2.2 1.2 2.5 4.8 5.1 9.7 7.5 14.6zM127.3 137.1c1.4-3.1 2-6.5 3.5-9.6 1.7-3.6 3.9-7 6.2-10.3 2.4-3.5 5.1-6.8 7.7-10.1 1.4-1.8 3.8-4 3.3-6.5-.1-.4-.5-.7-.9-.7-2.8.3-4.5 3.7-6.1 5.7-2.7 3.5-5.4 7-7.9 10.7-3.5 5-9.8 13.9-7.9 20.5.2.9 1.6 1.3 2.1.3zM126.3 122.8c3.8-6.7 10.4-11.4 14.1-18.2.3-.6-.4-1-.8-.7-5.8 4.7-11.2 11.4-14.7 17.9-.6 1.1.8 2 1.4 1zM228.5 98.7c-1.1 10.9-3.9 21.3-3.9 32.3 0 5.7.5 11.5 1 17.2.4 5.3 0 10.9 1.5 16.1.3 1 1.6 1 1.9 0 1.6-4.6.9-9.6.6-14.4-.4-5.7-.9-11.5-1.1-17.2-.4-11.4 2.6-22.5 2.5-33.9-.1-1.6-2.3-1.6-2.5-.1zM220.5 119.7c0-1.1-1.7-1.3-1.9-.3-1.3 7.3-3.2 16.2.4 23.1.5 1 2.1.6 2.1-.5.1-3.5-.7-6.9-.8-10.3-.1-4 0-8 .2-12zM95.8 134.4c1.9-2.4 2.6-5.7 3.9-8.5 1.5-3.3 3.6-6 6-8.8.5-.6-.1-1.5-.9-1.1-3.2 1.5-5 5-6.6 8s-3.5 6.7-3.6 10.1c0 .6.8.7 1.2.3z" fill="#b23e3b" opacity="1" data-original="#b23e3b"></path></g><g fill="#e08c6e"><path d="M88.3 147.1c-9.7 10-13.3 27-14.4 40.6-1.3 15.3.7 30.6 1.4 45.8.2 4.3 6.9 4.4 6.6.1-.7-14.5-2.4-29-2.2-43.6.1-7 .8-13.9 2.5-20.6 1.9-7.4 5.5-14.1 7.5-21.4.3-.9-.7-1.5-1.4-.9zM125.3 183.1c-.4.7-.6 1.4-.8 2.2-.5 0-.9.3-1 1-.1 2.3-.1 4.6-.2 6.9-.4 3.4-.8 6.8-1 10.1-.5 7.5.2 15 3.6 21.8 1.3 2.6 5.4.3 4-2.3-.9-1.7-1.6-3.4-2.1-5.1-.6-3.4-.8-6.9-1-10.4l-.3-6.6c.2-2.7.4-5.5.7-8.2.3-3 1-6.2 0-9.1-.3-.9-1.5-1.2-1.9-.3zM146.7 162.3c-.4-1.3-2.6-1.1-2.4.3.9 8 2.7 15.7 4.6 23.5 2 7.9 3.1 16.4 5.8 24.1.8 2.2 4.7 2.2 4.4-.5-.7-7.7-3.8-15.6-5.9-23.1-2.2-8.1-4.3-16.2-6.5-24.3zM244.9 201.3c-3.3-1.2-7.3-.9-10.8-1.3-3.6-.4-7.1-.8-10.7-1.7-7.2-1.8-13.7-5.4-19-10.5-7.1-6.8-11.9-16.2-15.5-25.2-4-9.9-6.8-20.7-9.4-31-.3-1.2-2.2-1-2.1.2.4 5.4.6 10.6 1.2 16 .7 6 2.8 12.1 4.8 17.7 3.5 9.8 8.8 19.5 16.2 27 5.8 5.8 13.2 9.8 21 12 7.2 2 17.7 4 24.8.9 1.9-.8 1.1-3.5-.5-4.1zM264.2 189.7c-3.2-1.8-6.2-4.1-9-6.4s-5.4-4.9-7.9-7.5c-1.9-1.9-3.8-4.8-6.2-6.1-.6-.4-1.5.1-1.5.8 0 2.6 2.2 5.1 3.7 7.1 2.5 3.3 5.6 6.2 8.7 8.9s6.3 5.2 9.8 7.3c2.3 1.4 5.3 3.1 8 1.8.7-.3 1-1.4.6-2-1.6-2-4.1-2.7-6.2-3.9zM323.3 218.3c-4.1-3-7.6-6.7-11.1-10.4-7.1-7.4-12.9-16.1-17.9-25.1-5-9.1-9-18.8-12.6-28.5-3.3-9.1-5.3-19-9.7-27.7-.6-1.3-2.7-.7-2.7.7.3 10 4 20.2 7.2 29.6 3.3 10 7.5 19.7 12.5 29 4.9 9.2 11 17.8 18.1 25.4 3.5 3.7 7.5 7 11.5 10.1 4.3 3.2 9.1 7.2 14.4 8.3 1.7.4 3.2-1.7 1.8-3.1-3.2-3.4-7.7-5.5-11.5-8.3z" fill="#e08c6e" opacity="1" data-original="#e08c6e"></path><path d="M346.6 224.7c-4.1-5.8-8.1-11.8-12.4-17.5-4.1-5.4-8.3-11.4-13.8-15.5-1.3-.9-2.6.8-2 2 2.7 5.6 6.8 10.7 10.1 15.9 3.4 5.3 6.8 10.6 10.4 15.9 7.1 10.5 14.7 20.6 20.7 31.8l.6 1.2c-.3.2-.6.5-.6.9-.5 6.1 2.2 12.5 4 18.3 1.1 3.4 2.1 6.7 2.9 10.2.8 3.2 1 6.6 3 9.3.1.2.3.3.5.5v4.3c-.1 2.4-.5 4.8 0 7-1.2 3.8-2.9 7.4-3.9 11.3-.3 1.3 1.1 2.6 2.4 1.9 8.7-5.3 10.8-17.2 10.4-26.5-.5-12.9-4.6-25.2-10.1-36.7-5.9-12.5-14.3-23.2-22.2-34.3zM410.3 314.1c-.6-1-2.7-.8-2.5.6.9 8.2 6.2 14.5 8.8 22.2 1.5 4.3 1.9 8.9 2.2 13.4.5 5.6.5 11.4-.4 16.9-.4 2.3-.9 4.6-1.9 6.7-.8 1.8-2.3 2.8-3.4 4.4-1.9 2.5 1.1 5.5 3.7 4.9 4.8-1.1 7-7.4 8-11.5 1.5-6 1.5-12.3 1.2-18.4-.3-5.5-1-11.1-2.6-16.4-2.3-8.2-8.5-15.7-13.1-22.8zM449.5 289c-.6-.7-1.9-.2-1.8.7.4 3.9 2 7.6 3.2 11.3 1.5 4.2 2.8 8.5 3.7 12.8 1 4.4 1.5 8.9 1.3 13.5s-2.5 8.3-3.3 12.6c-.4 2.1 1.9 3.7 3.6 2.1 6.2-5.8 5-18.4 3.7-25.8-.9-5.2-2.6-10.2-4.5-15.1-1.5-4.1-3.1-8.6-5.9-12.1zM428.5 125.7c-3-7.2-6.5-14.2-10.4-21-.8-1.5-1.7-3-2.6-4.5-.1-1-.2-2-.8-3.3-1-2.4-3.5-4.5-5.3-6.2-.1-.1-.2-.1-.2-.2-1.1-1.5-2.2-2.9-3.4-4.3-5.1-5.9-10.9-11-16.7-16.1-3.7-3.2-7.4-6.6-11.2-9.8-1.1-1.1-2.2-2.2-3.3-3.2-.5-.4-1-.7-1.6-.8-5.7-4.6-11.6-8.8-18.1-12.1s-13.3-6-20.2-8.3c-6.4-2.2-14.1-4.6-20.9-4.1-1.1.1-1.3 1.4-.3 1.8 6.1 2.3 12.4 4 18.4 6.6 6.7 2.8 13.3 5.9 19.8 9.2 6.1 5.1 16 12.2 10.8 20.4-3.9 6.1-14 8.3-20.4 10.3-11.9 3.7-23.5 7.4-35.7 9.5-6.8 1.2-13.7 2.1-20.6 2.7-5.7.5-12.3.1-17.8 2-.5.2-.6 1 0 1.2.3.1.6.1.9.2 3.5 3.9 9.3 5.6 14.2 6.8 6.2 1.4 12.7 2 19.1 2.2 14.1.5 28.3-.9 42.2-3.3 6.7-1.1 12.8-3.6 19-6.3 6.5-2.9 13.2-6.4 20.5-6.5 5.9-.1 11.6 1.7 17 4.2.9.4 1.9 1 2.8 1.5 3.5 4.2 6.7 8.6 9.5 13.4 3.8 6.3 7.1 12.8 10.1 19.5 2.9 6.5 5.3 13.1 8 19.7.7 1.8 3 .4 2.8-1.1-.7-6.9-3-14-5.6-20.1zM211.6 99.6c.7-.2 1.3-.5 1.9-.8 1.3-.8 1-2.6-.4-3.1-1.9-.7-4-.5-6.1-.5-2.9 0-5.7-.2-8.6-.5-5.9-.6-11.6-1.9-17.4-3.4-9.7-2.4-19.9-6-27.7-12.4-5.7-4.7-10.3-11.3-12.1-18.5-.3-1.1-.5-2.3-.5-3.5.1-.2.1-.3.2-.5.9-2 2.2-3.9 3.7-5.6 11.7-7.1 24.2-12.9 37.3-17.7 6.9-2.6 13.8-4.9 21-6.2 7.5-1.3 15.2-1.2 22.8-.8s15.3 1.6 22.8 2.9c7 1.2 14.7 2 20.6 6.2 3.2 2.3 6-2.8 3-5.1-4.4-3.4-9.4-4.7-14.7-5.9-6.2-1.5-12.4-2.9-18.7-3.9-12-1.9-24.1-2.5-36.2-.8-4 .5-8 1.5-12 2.6-4.7-5.2-15.1-1-20.5.7-9.5 3.1-17.7 7.5-25.8 13.4-3 2.2-6 4.4-8.8 6.7-6.7.8-12 4.4-17.1 8.5-4.8 3.9-9.4 8.3-13.3 13-4 4.9-7.5 10.3-10.5 15.8-2.1 3.8-5.9 10.4-4.4 15-1.1 1.9-2.2 3.8-3.4 5.7-1 .8-2 1.6-2.9 2.5-.8.8-.8 1.9-.2 2.7-3 4.9-5.9 9.9-8.5 14.9-5.3 10.2-9.2 21-12 32.1-2.1 8.5-3.8 17.1-5.8 25.6s-4.6 16.8-7 25.2c-2.4 8.5-4.7 17.1-6.3 25.8-1.5 8.7-1.4 17.4-2 26.2-.6 8.3-3.1 16.4-4.4 24.6-1.2 7.7-1.4 15.3-.6 23.1 1.8 17.2 5 34.8 10.1 51.4.1.2.2.4.3.5.8 2.6 1.6 5.2 2.5 7.8 5.3 15.1 13.4 29.7 22.7 42.7 4.3 6 9.1 11.5 14.7 16.3 5.4 4.6 12.3 9.7 19.4 10.8 2.8.4 3.3-3.5 1.4-4.8-2.8-1.9-6-3.1-9-4.9-3.4-2-6.4-4.4-9.4-7-5.4-4.8-10-10.6-14.1-16.5-8.6-12.5-16-26.3-20.9-40.7-9.4-27.7-10.8-58.1-9.4-87.4.8-3 1.6-6 2.2-9.1 1.3-6 1.5-12.3 1.9-18.5.9-13.1 4-25.7 7.7-38.3 3.6-12.3 7.1-24.6 9.9-37.1 2.6-11.8 5.4-23.4 10.1-34.6 4.5-10.8 11.2-20.2 16.9-30.3.3-.5.5-.9.8-1.4 1.6-1 3.2-2.1 4.8-3.1 4.7-3 9.6-5.5 15.1-6.7 2.4-.5 4.7-.6 7.1-.5.4.1.8.2 1.3.2h.8c3.1.4 6.2 1.1 9.3 2.1.8.5 1.5.9 2.3 1.3s1.7.5 2.6.3c3 1 6 2 9 2.7 5.2 1.3 10.6 1.6 15.9 2.3 5.6.7 11.3 1.4 16.9 1.9 11 1 21.8.7 31.7-3.4z" fill="#e08c6e" opacity="1" data-original="#e08c6e"></path></g><g fill="#fff6f1"><path d="M355.6 254c-4.7-13.1-14.7-21-26.5-27.3-5.8-3.1-11.6-6.2-17-9.9-5.3-3.6-9.4-8.3-14.2-12.5.3-1.8-.9-3.9-2.6-4.5-3.3-1.2-8-.5-11.5-.9-5-.5-10-1.5-14.8-2.8-4.9-1.4-9.8-3.2-14.2-5.9-2-1.2-3.8-2.6-5.4-4.3l-.3-.3c-1-1.7-2.2-3.2-3.7-4.3-.2-.1-.3-.3-.5-.4s-.4-.2-.6-.2l-1.2-.6c-1.2-.4-2.1.8-1.9 1.8.9 4.8 3.5 9.9 5.5 14.3 1.1 2.5 2.7 4.9 4.6 6.8-2.5.6-5.1 1.3-7.5 1.7-5.6.9-11.3 1.3-17 1.2-9-.1-17.4-2.2-25.7-5.1-.4-.4-.8-.9-1.3-1.3-3.3-3.6-5.9-7.6-8.6-11.7-2.9-4.4-6.5-8.3-9.6-12.6-7.2-9.8-6.1-22.1-6.5-33.7 0-.4-.2-.7-.4-.9 0-.5 0-1.1-.1-1.6-.2-1.1-1.6-1.3-2.3-.7-4.2 3.6-6.2 10.8-8.2 15.8-2.8 7-4.3 14.1-5 21.6-.8 8.2-.4 16.4.6 24.5.5 4.2 1.1 8.3 1.9 12.4.4 2 .7 4.2 1.1 6.4-5.6-3.7-9.4-10.4-12.2-16.3-2.3-4.7-3.9-9.7-5.1-14.8-.9-3.7-.6-8.5-2.4-11.9-.3-.7-1.3-.8-1.9-.3-3 3-2.3 8.8-1.8 12.8-2.3 10.8-.7 22.6.1 33.7-1.9.2-3.9.8-5.3 1.1-2.8.6-5.6 1.1-8.3 2.1-.4-.2-.9-.3-1.4-.3-7.1.3-13.8 2.9-20.4 5.4-7.1 2.6-14.5 5-22 6.1-1.3.2-1.7 2.4-.4 3l.9.3c-1.2 3.6-.6 8.5-.7 11.9-.2 5.2.1 10.2 1.2 15.3.5 2.3 1.4 4.7 2.5 7-.5 3.9.2 7.7 1.2 11.7.7 2.7 1.4 5.4 2 8.2.1.6.2 1.2.2 1.7-6 5.9-8.4 15.1-9.9 23.1-1.9 9.8-2.2 21.6 2.7 30.7 5.9 10.8 18.4 16.3 29.3 20.5 5.1 2 10.2 3.1 15.7 3.9 2.9.4 5.8.8 8.7 1.3l-.6 1.2c15 .8 30.1 2.6 44.9 5.4 10-2 19.9-4.3 29.9-6 7.4-1.3 14.8-1.9 22.2-2.6 1.6-.1 3.1-.3 4.7-.4.5-.1.9-.1 1.1-.1h.2c2.6-.4 5.2-.8 7.8-1.3 11.8-2.4 23.1-6.3 34.3-10.8.5-.2.8-.3 1-.4 0 0 .1 0 .1-.1 1.4-.6 2.9-1.2 4.3-1.8l7.5-3c.6-.2 5.5-2.2 1.3-.5 6.4-2.6 12.9-5.2 19.4-7.7 3-1.2 6-2.3 8.9-3.5.4-.1 2.3-.9 2.9-1.2 1-.4 1.9-.8 2.9-1.2 5.2-2.1 10.3-4.3 15.3-6.9 4.2-2.2 8.4-4.6 12.7-6.8l.9-.6h.2c1.9-.9 3.7-1.8 5.7-2.7 4.7-6.1 3-20.7 1.9-26-1.5-6.9-3.8-13.5-4.8-20.5-.8-7.8-1.7-15.9-4.5-23.7zM422.6 196.2c-9.2-5.1-19.4-3.8-28.5.7-3.7 1.8-12.5 9.2-16.1 15.9-1 .3-1.9 1.1-1.9 2.4-.1 5.8.7 11.5 1.5 17.2.9 6.3 1.4 12.5 1.6 18.9.3 9.5-.3 21.6 6.4 29.2 5 5.6 13.6 4.8 20 2.7 8.3-2.7 15.9-7.8 21.7-14.3 6.2-7 9.5-15.8 10.1-25 .5-8.9.7-18.3-.8-27.1-1.4-8.8-6.2-16.3-14-20.6z" fill="#fff6f1" opacity="1" data-original="#fff6f1"></path></g><path fill="#f9a5b4" d="M330.5 328.1c-15.8 7.3-35.2 4-41-8.6-5.8-12.5 2.6-28.1 20-36.8 15.6-7.9 35.3-8.8 43.7 8 8.8 17.3-6.8 30.1-22.7 37.4zM110.9 325.6c-14.2-2.8-29.7 1.2-31.9 17.6-.1.4-.1.8-.1 1.1 2.8 8.7 9.1 16.1 16.2 22.1 3.6 1.4 7.5 2.4 11.3 3 14.2 2.3 28.4-5.3 29.7-17.4 1.2-12.1-9.4-23.2-25.2-26.4z" opacity="1" data-original="#f9a5b4"></path><g fill="#f34d65"><path d="M311.4 306.8c-.9 0-1.8.7-1.8 1.7 0 .5 0 1.1-.1 1.6-.1.7-.3 1.3-.3 2 0 .8.5 1.6 1.3 1.8 1 .3 1.9-.3 2.3-1.2.6-1.3.7-3.2.2-4.6-.3-.7-.8-1.2-1.6-1.3zM318.5 306.2c.1.7.2 1.3.1 2 0 .8-.1 1.7.5 2.3.4.4 1 .4 1.5.2 1.9-.8.9-3.7.4-5.2-.6-1.5-2.8-1-2.5.7zM331.8 301.3c-.6-1.5-3.1-.8-3.1.7 0 .7 0 1.4-.2 2-.2 1-.4 2.2.4 3 .4.3.9.6 1.4.4 1.2-.4 1.6-1.6 1.8-2.8.3-1.2.2-2.2-.3-3.3z" fill="#f34d65" opacity="1" data-original="#f34d65"></path></g><g fill="#f34d65"><path d="M115.7 346.6c.7-.2 1.6.2 1.8 1 .1.5.3.9.5 1.4.2.6.6 1.1.8 1.6.2.7 0 1.5-.5 1.9-.7.5-1.6.2-2.1-.5-.8-1-1.4-2.6-1.3-3.9-.1-.7.1-1.3.8-1.5zM110 347.8c.1.6.2 1.2.4 1.8.2.7.5 1.4.2 2.1-.2.5-.6.6-1.1.5-1.7-.2-1.7-3-1.7-4.3.1-1.5 2-1.6 2.2-.1zM98.3 346.9c.1-1.4 2.2-1.4 2.6-.1.2.6.4 1.2.6 1.7.4.8.9 1.8.5 2.6-.2.4-.5.7-1 .7-1.1 0-1.7-1-2.1-1.9-.4-1.1-.6-1.9-.6-3z" fill="#f34d65" opacity="1" data-original="#f34d65"></path></g><g fill="#f2f5fe"><path d="M334.3 290.7h-.2c.6.1.5.1.2 0z" fill="#f2f5fe" opacity="1" data-original="#f2f5fe"></path><path d="M333 282.8c-1.5-.3-3.1.3-3.6 1.9-.5 1.5.4 3.1 1.9 3.6.1 0 .1.1.2.1 0 0 0 .1.1.1 0 .1.8 1.1.7 1.1.3.3.4.5.8.8.1 0 .8.3 1.2.4.6.1 1.2 0 1.7-.3.1-.1.2-.1.3-.2 1-.7 1.3-1.7 1.1-3-.3-2.2-2.3-4.2-4.4-4.5zm-1.4 5.6c.2.2.2.2 0 0z" fill="#f2f5fe" opacity="1" data-original="#f2f5fe"></path></g><g fill="#f2f5fe"><path d="M93.7 338.5c.1 0 .1-.1.2-.1-.5.3-.4.3-.2.1zM90.3 336.3c.2 1.1.7 1.9 1.6 2.3.1 0 .2.1.2.1.5.1.9.1 1.4-.2.3-.2.8-.6.8-.6.3-.3.3-.5.4-.9 0 .1.3-1 .3-1.1v-.1c0-.1.1-.1.1-.1 1-.8 1.3-2.3.5-3.5-.8-1.3-2.2-1.4-3.3-.8-1.2.9-2.3 3.1-2 4.9zm4.9-.3c-.2.1-.2.1 0 0z" fill="#f2f5fe" opacity="1" data-original="#f2f5fe"></path></g><g fill="#fdb8a9"><path d="M163.4 215.7c.2-2 .4-3.9.6-5.8.3 3.4 1.1 6.6 2.8 9.2.9 1.3 3 .9 3-.8.1-2.7-.7-5.2-1.2-7.8-.7-3.8-1.3-7.6-1.4-11.4-.1-3.1 0-6.2.2-9.4l2.1-9.9c.7-3.4 1.3-6.9 1.9-10.4 2.1 13.4 5.5 28.3 17.3 35.7 5.3 3.3 11.7 4.5 17.8 4.9 5.4.4 13 .6 17.7-2.5.6-.4.3-1.2-.3-1.2-5.3-.5-10.8 1.1-16.3 1-6.1-.1-12.3-1.3-17.6-4.3-6.6-3.7-10.2-11.3-12.9-18.1-2.3-5.8-4-12.2-5.3-18.4.3-1.7.5-3.3.8-5 .5-2.8 1-5.6 1.7-8.4.7-3 2.1-5.9 1.9-9-.1-2.3-3-4-4.8-2.1-1.3 1.4-2.2 3.1-2.9 5.1-4.7 6.6-6.1 15.3-7 23.2-.6 5.1-.9 10.3-1.3 15.4-.3 4.2-1.8 9.4-.5 13.5.1.4.3.7.6.9-.3 5.3.4 10.5 1.2 15.8.2 1.2 1.8.8 1.9-.2zM122.5 234.4c5.8 1.4 13.3-2.5 18.4-4.2 1.5-.5 2.2-1.8 2.3-3.1.3 0 .6-.1 1-.3.9-.5 1.1-1.4 1-2.3-.4-3-1.2-6-2.5-8.8l-.1-.1c0-2.4-.1-4.9.1-7.3.4-4.7 1.4-9.4 2.5-14 .5-2.2 6.7-21.1 0-19.3-3.5 1-3.6 5.3-4.3 8.3-1 4.4-2.1 8.8-3 13.2-1.5 7.9-3.2 18.3 1.5 25.4.3.5.8.7 1.3.8.1.4.1.8.2 1.3-.2-.1-.5-.1-.8-.1-4.7-.1-9.3.8-13.9 1.3-.7.1-1.3.3-1.8.7h-.2c-.6-.5-1.4-.7-2.3-.4-4.3 1.5-8.5 2.9-13 4-4 1-8.4 1.9-11.6 4.6-5.3.8-10.9 1.7-15 4.8-1.1.8-1.4 3.1.4 3.4 7.3 1.2 15.5-1.1 22.6-2.4 4.9-1 12.3-2.3 17.2-5.5zM416.7 222.6c-2.2-3.4-6.5-3.5-9.6-1.3-1.4 1-1.3 2.7-.3 3.5 0 .1-.1.3-.1.4-3.9 1.6-7.3 6.4-8.6 9.2-2.8 6-4.2 14-1.1 20.1.8 1.5 2.6 2.1 4.2 1.8 9.8-2.1 15.3-13.3 16.9-22.3.6-3.7.8-8-1.4-11.4zM380.1 220.2c-.7-1.1-2.4-.7-2.4.6-.6 8.7 3.1 17.8 5.1 26.3-.6 5.2-.6 10.5-.7 15.7 0 3.8-.7 9.5 1.2 13.1-.1.9-.3 1.8-.3 2.7-.3 3.4 4.5 4.4 6.2 1.8 5.2-8.2 3.3-21.1 1.5-30.1-1.1-5.4-2.7-10.6-4.5-15.8-1.8-4.9-3.3-9.9-6.1-14.3zM363.9 283.5c-.3-7.4-3.9-15.5-7.7-21.6-3.9-6.3-9.7-11-15.8-15.1-4.2-2.8-8.6-5.2-12.9-7.9-5.1-3.3-9.9-7.1-14.4-11.1-8.4-7.5-15.7-16-23.6-24 2.3-.4 4.5-.9 6.7-1.5 2-.6 1.2-3.7-.8-3.2-14.2 3.7-30.1 2.5-42.1-6-.5-1.9-1-3.7-1.5-5.4-1-3.8-1.9-10.9-6.4-11.9-1-.2-2.2.1-2.7 1.1-2 3.8 1.2 8.8 2.3 12.6 1.3 4.8 1.9 10.5 5.3 14.3 1.5 1.7 3.8.3 4.1-1.6.2-1.7.1-3.6-.2-5.4 9.6 6.8 22.1 8.9 33.9 7.3 13.1 16.6 28 31.1 46.1 42.1 7 4.3 13.3 9.2 18.2 15.9 2.4 3.3 4.2 7.1 5.7 10.8.9 2.2 1.5 4.5 2.2 6.7 0 .1-.1.2-.1.3-.2 7.7.7 14.7-1.8 22.1-1.1 3.2-2.7 6.3-4.6 9.1-1.6 1.4-3.2 2.8-4.9 4.1-6.5 4.8-13.5 8.9-20.6 12.8-15 8.1-30.5 15.7-46.2 22.3-8.3 3.5-16.9 6.5-25.5 9.2-4.9 1.3-9.8 2.8-14.7 4.2-5.6 1.5-11.3 2.9-17 4.3-4.7 1.1-9.4 2.2-14 3.4-6.4 1.3-12.8 2.4-19.3 3.3-12.9 1.9-25.7 2.9-38.7 2.3-4.8-.2-9.4-.7-14.1-1.3-3.1-.4-6.8-.8-9.7.7-.1 0-.1.1-.2.1 17.1.6 34.2 2.5 51.1 5.6 10-2 19.9-4.3 29.9-6 7.4-1.3 14.8-1.9 22.2-2.6 1.6-.1 3.1-.3 4.7-.4.5-.1.9-.1 1.1-.1h.2c2.6-.4 5.2-.8 7.8-1.3 4.3-.9 8.5-1.9 12.7-3.1-5.1.8-10.2 1.5-15.3 2.2 14.4-3.7 28.6-8.3 42.4-13.8l8.7-3.6c.5.6 1.1 1.1 1.9 1.2 5.9-2.4 11.7-4.7 17.6-7 3-1.2 6-2.3 8.9-3.5.4-.1 2.3-.9 2.9-1.2 1-.4 1.9-.8 2.9-1.2 5.2-2.1 10.3-4.3 15.3-6.9 5.9-3.1 11.8-6.5 17.9-9.3.1-.1.2-.3.2-.5l.1-.3c6-4.8 10.2-11 4.7-18.3.2-.6.3-1.1.5-1.7.3-1.5-1.1-2.7-2.5-1.9-.4.2-.9.5-1.3.7 2-6.6 2.4-13.4.4-20z" fill="#fdb8a9" opacity="1" data-original="#fdb8a9"></path><path d="M234.1 303.6c-2-.3-4.4.1-6.2 1.2-1.6-.2-3.3 1.8-2.3 3.5 2.4 4.1 7.6 3.2 10.3 0 1.6-2 .7-4.3-1.8-4.7z" fill="#fdb8a9" opacity="1" data-original="#fdb8a9"></path></g><path fill="#f7d581" d="M132.9 506h295.6c.3-.3.6-.5.8-.8.3 0 .5-.1.7-.3.1 0 .1-.1.2-.1.6-.4.9-1.1.9-1.8v-.3c1.1-1.8 1.9-3.8 2.5-6 .9-1.3 1.5-2.9 2-4.9.6-2.4 1.3-6.4.5-9.4 0-.2.1-.5.1-.7 1.4-9.9 4.4-19.3 5.9-29.2 3.1-20.1 1.1-41.3-6.1-60.3-2-5.3-4.6-10.4-7.6-15.2 1.1-.2 1.9-1.3 1.6-2.5-1.6-7.4-9.7-13.3-15.3-17.8-6.9-5.5-14.4-9.9-22.4-13.6-14.1-6.4-33.4-12.2-48.5-5.8-.6.3-.9.8-.9 1.3-2.8.5-5.5 1.2-8 2-10.4 2.8-20.5 7.9-30.4 11.8-12.4 5-25.4 8.8-38.2 12.6-26.3 7.7-52.9 15.1-79.9 19.6-11.2 1.9-23 2.8-33.8 6.4-6.8 2.3-12.5 6.3-16.4 12.4-4.7 7.4-6.1 16.8-7.8 25.3-2.2 11.5-4.2 23.1-4.7 34.9-.6 14.2 1.5 28.5 8.3 41.2.3.6.6.9.9 1.2z" opacity="1" data-original="#f7d581"></path><g fill="#fceed0"><path d="M444.7 412.4c-.1-.8-.2-1.6-.3-2.3.1.8.2 1.6.3 2.3zM444.9 414.7c-.4-2.3-1-4.5-1.5-6.8-2.6-1.8-5.8-2.8-9.2-2.8-9.1 0-16.5 7.4-16.5 16.5s7.4 16.5 16.5 16.5c4.8 0 9.1-2.1 12.1-5.3-.5-6-.7-12.1-1.4-18.1zM411.1 354.6c-2.1-1.8-4.3-3.6-6.2-5.6-8.6.6-15.3 7.7-15.3 16.4 0 9.1 7.4 16.5 16.5 16.5s16.5-7.4 16.5-16.5c0-.4 0-.9-.1-1.3-3.6-3.4-7.6-6.4-11.4-9.5z" fill="#fceed0" opacity="1" data-original="#fceed0"></path></g><g fill="#fceed0"><circle cx="406.1" cy="477.9" r="16.5" fill="#fceed0" opacity="1" data-original="#fceed0"></circle><path d="M444.9 414.7c-.4-2.3-1-4.5-1.5-6.8-2.6-1.8-5.8-2.8-9.2-2.8-9.1 0-16.5 7.4-16.5 16.5s7.4 16.5 16.5 16.5c4.8 0 9.1-2.1 12.1-5.3-.5-6-.7-12.1-1.4-18.1zM444.7 412.4c-.1-.8-.2-1.6-.3-2.3.1.8.2 1.6.3 2.3z" fill="#fceed0" opacity="1" data-original="#fceed0"></path></g><g fill="#fceed0"><circle cx="378" cy="421.6" r="16.5" fill="#fceed0" opacity="1" data-original="#fceed0"></circle><circle cx="321.7" cy="421.6" r="16.5" fill="#fceed0" opacity="1" data-original="#fceed0"></circle><path d="M411.1 354.6c-2.1-1.8-4.3-3.6-6.2-5.6-8.6.6-15.3 7.7-15.3 16.4 0 9.1 7.4 16.5 16.5 16.5s16.5-7.4 16.5-16.5c0-.4 0-.9-.1-1.3-3.6-3.4-7.6-6.4-11.4-9.5z" fill="#fceed0" opacity="1" data-original="#fceed0"></path><circle cx="349.8" cy="365.4" r="16.5" fill="#fceed0" opacity="1" data-original="#fceed0"></circle><path d="M302.7 351.6c-2.4 1.1-4.8 2.1-7.3 3.1-3.4 1.4-6.9 2.7-10.5 3.8-2.3.7-4.6 1.3-7 1.8-.5 1.6-.8 3.3-.8 5.1 0 9.1 7.4 16.5 16.5 16.5s16.5-7.4 16.5-16.5c0-5.8-3-10.8-7.4-13.8z" fill="#fceed0" opacity="1" data-original="#fceed0"></path></g><g fill="#fceed0"><circle cx="406.1" cy="477.9" r="16.5" fill="#fceed0" opacity="1" data-original="#fceed0"></circle><circle cx="349.8" cy="477.9" r="16.5" fill="#fceed0" opacity="1" data-original="#fceed0"></circle><circle cx="293.6" cy="477.9" r="16.5" fill="#fceed0" opacity="1" data-original="#fceed0"></circle><circle cx="378" cy="421.6" r="16.5" fill="#fceed0" opacity="1" data-original="#fceed0"></circle><circle cx="321.7" cy="421.6" r="16.5" fill="#fceed0" opacity="1" data-original="#fceed0"></circle></g><g fill="#fceed0"><circle cx="265.5" cy="421.6" r="16.5" fill="#fceed0" opacity="1" data-original="#fceed0"></circle><circle cx="209.2" cy="421.6" r="16.5" fill="#fceed0" opacity="1" data-original="#fceed0"></circle><path d="M302.7 351.6c-2.4 1.1-4.8 2.1-7.3 3.1-3.4 1.4-6.9 2.7-10.5 3.8-2.3.7-4.6 1.3-7 1.8-.5 1.6-.8 3.3-.8 5.1 0 9.1 7.4 16.5 16.5 16.5s16.5-7.4 16.5-16.5c0-5.8-3-10.8-7.4-13.8zM238.6 373.5c-1.9.5-3.8 1-5.7 1.2-2.5.4-5.5 1-8.3 1.1 3 3.7 7.6 6 12.8 6 8.2 0 14.9-5.9 16.2-13.7-4.9 2.1-9.9 4-15 5.4z" fill="#fceed0" opacity="1" data-original="#fceed0"></path></g><g fill="#fceed0"><circle cx="293.6" cy="477.9" r="16.5" fill="#fceed0" opacity="1" data-original="#fceed0"></circle><circle cx="237.4" cy="477.9" r="16.5" fill="#fceed0" opacity="1" data-original="#fceed0"></circle><circle cx="181.1" cy="477.9" r="16.5" fill="#fceed0" opacity="1" data-original="#fceed0"></circle><circle cx="265.5" cy="421.6" r="16.5" fill="#fceed0" opacity="1" data-original="#fceed0"></circle><circle cx="209.2" cy="421.6" r="16.5" fill="#fceed0" opacity="1" data-original="#fceed0"></circle></g><circle cx="153" cy="421.6" r="16.5" fill="#fceed0" opacity="1" data-original="#fceed0"></circle><g fill="#fceed0"><circle cx="181.1" cy="477.9" r="16.5" fill="#fceed0" opacity="1" data-original="#fceed0"></circle><path d="M125.1 461.4c-.2 7.1-.2 14.3.6 21.4.4 3.8.9 7.6 1.4 11.4 8.1-1.1 14.3-8 14.3-16.3-.1-9.1-7.3-16.4-16.3-16.5z" fill="#fceed0" opacity="1" data-original="#fceed0"></path><circle cx="153" cy="421.6" r="16.5" fill="#fceed0" opacity="1" data-original="#fceed0"></circle></g><path fill="#dd9d6450" d="M443.7 413.9c-.8-4.1-2.7-8.3-4.5-11.5-.1-.5-.2-1.1-.3-1.6-.9-4.1-2.7-7.9-4.3-11.7-1.2-2.8-3.9-6.9-3.8-10.1.1-1.7-1.3-2.4-2.6-2.3-1.8-4.8-4.4-9.3-8.1-13.4-1.1-1.3-3.3.4-2.3 1.8 10.9 16.7 7 38.7 5.7 57.4-.8 11.9-2.8 23.6-4.7 35.4-.7 4.3-1.5 8.5-2.5 12.7-.4 1.8-1 3.7-1.6 5.5-5.4-1.6-11.2-2.4-16-3.4-5.3-1.1-10.5-2.4-15.6-3.9-5.6-1.7-12.5-3.1-18.2-1.1-1.8.6-2 3.3 0 3.9 5.4 1.5 10.7 2.9 16.1 4.8 4.7 1.7 9.4 3.1 14.2 4.2 5 1.1 10 2 14.9 3.4.9.2 1.7.5 2.5.8.3 1.6 1.6 2.8 3.1 3.1.3 1.4 1.2 2.8 2.7 3.1 2.8.6 6.8 1.9 8.1 4.7.1.8.3 1.6.5 2.4 1.3 4.6 7.9 2.6 7.1-2-1.1-4.9.3-10 1.6-14.8 1.4-5.1 2.7-10.2 3.9-15.4 1.6-6.7 4.1-13.7 4.3-20.6.1-.4.3-.9.4-1.3 1.6-5.2 2.3-10.6 2.3-16 0-4.5-.8-9.3-2.6-13.4-.1-.3-.2-.5-.3-.7zM349.7 457.9c-4.1 4.7-10.7 7.1-16.2 9.7-3.2 1.5-6.5 2.8-9.9 3.8-2.7.8-6.5.7-8.5 2.8-1 1.1-1 2.6 0 3.7 4.1 4.8 15.4-.8 19.9-2.7 3-1.3 6.2-2.7 9.2-4.2.9.7 2.1 1.1 3.5.8 3.8-.8 7.5-2.3 11.4-2.5 2.2-.1 3.8-1.7 3.9-3.9.3-6.5.4-13 1.4-19.4.1-.4 0-.9-.1-1.3.2-.7.5-1.5.7-2.2 2.8-8.6 4.9-17.9 3.7-26.9-.2-1.9-2.8-2-3 0-.7 7.7-2.8 15.4-5.5 22.6-2.7 6.8-5.6 14.1-10.5 19.7zM296.2 483.7c2 2.4 6.4 2.9 7-1 .8-5.9.6-11.9.9-17.9.3-6.7.7-13.4.8-20.1.1-9-1-17.9-.5-26.9.4-7.5 1-15.2.1-22.6-.1-.5-.2-1.2-.3-2 11.9 4.2 26.5.7 36.1-6.9 5.8-4.5 9-10.8 9.6-18.1.3-3.3-1.3-9.6-4.5-12.7 3.6-4.8 10.6-6.5 16-8.4 2-.7 3.3-2.6 2.7-4.7-2.9-9.8-14.7-8.3-21.7-4.2-.4.2-.8.5-1.2.7-3.1.1-6 1.6-8.8 3-4 1.9-7.9 4.1-11.8 6.3-2 1.2-2.3 3.2-1.6 4.8-3.6 1-6.8 2.7-9.4 5.4-1.6 1.7 0 5.1 2.4 4.2 9-3.5 17.6-4 27.1-1.8.3.1.7.1 1 .1 1 2.3 1.2 4.9 1.2 7.3-.1 5.6-4 10-8.4 12.9-10.5 7.1-22.2 6-33.5 2.1-.9-.5-1.9-.6-3-.2-.4.1-.8.4-.9.9s-.1 1-.1 1.5c-.2.9-.1 1.9.4 2.7.1.3.1.6.2.9.5 3 .8 6 .8 9 .1 7.2-.3 14.4-.7 21.6-.2 4.2-.1 8.4.1 12.6-.3.3-.5.6-.6 1.1-2.7 9.9-2.8 20.1-4.1 30.2-.6 5-2.8 18.9 4.7 20.2zM241.2 391.5c4-.9 8-4 12.2-5.5 3.2.1 6.4.3 9.7.6 3.8.3 8.3 1.5 11.8-.5 1.1-.6 1.2-2.4 0-3-3.2-1.5-7.1-1.2-10.7-1.3-.1-1.4-.9-2.8-2.5-3.3-1.1-.3-2.2-.4-3.4-.4-3.8-.8-7-2.9-9.6-6-1.4-1.7-4.7-1.3-5.6.7-1.4 2.8-2.4 5.5-2.6 8.7-.1 1.2.6 2.3 1.6 3-1 .7-1.9 1.3-2.8 2-2.6 1.8-1.2 5.7 1.9 5zM231.1 481.4c.1-.1.1-.2.2-.3 1.9.3 3.7.9 5.5 1.9.9.5 1.9.6 2.9.4-.5 4-1.1 8.3-.3 12.3.5 2.5 4.2 2.3 4.9 0 1.2-4.4.9-9.2 1.4-13.7.4-3.8.9-7.6 1.4-11.4 2-6.9 2.8-14.1 3.6-21.1 1.4-11.6 4.7-23.7 3.3-35.5 11.3-.4 23-6.3 22.8-18.5 0-2.2-3.4-3.4-4.4-1.2-5.1 10.5-17.2 14.4-27.9 10.2-1.6-.6-3.7.4-4.5 1.8-.2.3-.3.6-.4.9-.5 1.7.2 3.1 1.4 4.1-5.6 6.9-4.5 17.9-7.4 26-4.8 13.4-11.8 25.8-13.4 40.2-.2 2 1.3 3.3 3 3.7-.5.8-.8 1.7-.8 2.7-.1 2.6 3 4.3 5.2 3 1-.6 1.7-1.6 1.8-2.6.4-1.1 1.3-2.1 1.7-2.9zM168.2 433.5c.8-.4 1.5-1.2 1.9-2.4.5-1.6 1.1-3.3 1.7-5.2 2.6-3.9 5.4-7.6 8.2-11.4 1.9-2.6 5.1-6.1 6.8-9.7.3-.1.7-.2 1.1-.3 4.2-1 3.3-8.1-1-7.6-7.5.9-15.2 1.1-22.7 2.5-.9-1.4-2-2.4-3.5-2.9-1.4-.5-3.5.5-3.8 2.1v.3c-1.1-1-2.2-1.9-3.4-2.7-1.5-1-3.5 1-2.5 2.5 2.8 4.1 5.4 8.1 7.5 12.5.4 1.5.8 2.9 1.2 4.3 0 1.7-.1 3.4-.1 5.1-.4 8.7-2 17.5-4.4 25.8-3.1 10.3-7.6 20.4-13.7 29.3-3.7 5.4-12.8 10.1-13.2 17.2-.1 1.8 2.3 2.8 3.5 1.5.7-.8 1.4-1.5 2.2-2.2 3.9 0 8-3.1 11.3-4.8 1.4-.8 3.7-1.4 5.6-2.3.7-.1 1.4-.4 1.9-.9 2.2-2.6 2.8-5.6 3.8-8.8 1.3-4.1 2.5-8.2 3.8-12.3 2.4-7.6 4.9-15.2 6.4-23.1.3-1.6.6-3.3.8-5 .1-.3.4-.9.6-1.5z" opacity="1" data-original="#dd9d6450"></path><path fill="#fff" d="M339.1 361.7c-5.6 2-6.4 9.8-11.5 12.8-8.8 5.2-19.3-1.1-28.6-.1-2.7.3-3.5 4.1-.7 4.9 10.1 3.1 20.9 6.9 31.3 2.5 3.4-1.4 6-3.8 8-6.9 1.8-2.7 4.4-8 4-11.2 0-1.2-1.1-2.5-2.5-2zM416.9 366.5c1.3.3 3.1-.7 2.9-2.2-1.2-9.4-14.9-12.3-21.6-16.8-4.1-2.8-8.8-4.8-13.4-6.5-4.7-1.7-10.9-3.4-15.9-2.7-1.9.2-2.8 2.6-1 3.7 3.9 2.4 8.7 3.3 12.9 5.1 4.3 1.8 8.4 3.9 12.3 6.4s7.9 4.4 12 6.5c2 1 3.8 2.1 5.8 3.2 2 1 3.5 2.7 6 3.3zM369.5 387.8c-1-1.8-4-1-3.9 1.1.2 5.7 1.5 11.6 2.4 17.2 1 6.5 1.6 13.1 1.8 19.7.5 13.3-1 25.8-4.3 38.7-1.5 5.2 6.1 7 7.9 2.2 4.7-12.1 4.9-26.6 4.2-39.4s-1.9-28.1-8.1-39.5zM275.4 482.8c0-3.2-.7-6.1-.6-9.4.2-3.4.8-6.8 1.2-10.2 1.1-8.8 1.1-17.7 2-26.5.8-8.3 2.1-16.5 3.2-24.8 1.1-8.1 2.5-16.7-.1-24.6-.5-1.5-2.7-1.6-3.1 0-2.1 8.2-2.5 16.8-3.8 25.2-1.3 8.6-2.7 17.1-3.6 25.8-.9 8.8-.9 17.6-2.1 26.4-.8 5.6-3.2 14.9.6 19.8 2 2.4 6.4 1.9 6.3-1.7zM128.3 500.5c1.6 3.2 6.3 1.5 6.4-1.7.1-4-1.1-8-1.6-12-.6-4.3-.9-8.6-1.1-12.9-.4-8.3.2-16.7 1.5-24.9 1.2-8.1 3.3-16 5.8-23.8 2.6-8.3 7-16.3 8.7-24.8.4-2.2-2.3-4.2-4-2.3-5.5 6.2-8.3 14.5-11.1 22.2-3.2 8.7-5.4 17.6-6.9 26.7-1.5 8.9-2.1 18-1.8 27 0 8.3.3 19 4.1 26.5z" opacity=".6"></path><path fill="#fff6f1" d="M141.3 391.6c8.4 6.3 20.1 6.8 30.2 6 1.2-.1 2.5-.2 3.7-.4 4.6.1 11.2-.3 16.2-2.6-2.9 4.5-5 9.6-7 13.8-5.9 12.3-11.9 24.6-18.8 36.5-5.7 9.8-12.6 18.8-17 29.4-2.1 5-3.6 11.9-2.9 18.2-4.2-.6-8.2.6-11.5 3.3-3.3 2.6-4.7 6.4-3.3 10.2h300.5c-.2-.1-.4-.2-.7-.3l-1.5-.3c-4.1-11.1-15.2-18.5-25.6-23.2-6.5-3-13.3-5.2-20-7.5-8.6-3-17.3-5.6-26.4-6.3-8.6-.6-17.5 1.4-25.8 3.3-9.2 2.2-18.3 4.5-27.5 6.7-8.7 2.1-17.3 4.2-26 6-8.6 1.8-17.4 2.7-26.1 4.5-.3.1-.6.2-.8.4-2.8-4.4-8.8-7.2-13.4-8.7-3.9-1.3-7.9-2.1-11.9-3-1.4-.3-3.6-1.1-5.7-1.5 1.1-2.4 1.8-5.3 2.3-7.5.7-3.2 1.2-6.5 2.1-9.7 1.3-4.6 3.5-9.1 5.4-13.5 3.6-8.5 6.6-17 8.5-26.1 1.4-7 3.3-15.1 2.8-22.5 3-6.2 3.6-14.6 3.6-20.7 0-9.7-2.9-20.4-10.6-26.8-8.3-7-19.7-6.4-29.8-5-10.4 1.5-21.5 4.7-30.8 10-4-3.9-9.1-6.7-13.9-9.3-3.9-2.1-9.7-5.3-14.1-2.8-5.6 3.2-7.2 10-7.1 17-.5 0-1.1.1-1.6.4-7.3 3.9-11.3 13.7-7.6 21.3 2.7 5.2 7.1 8.6 12.1 10.7z"></path><g fill="#fdb8a9"><path d="M291.9 380.4c11.3-5 23.3-15.3 25-28.2.4-3-1.7-5.5-4.9-4.9-18.4 3.8-35.4 12.2-52.8 18.9-1.1.4-1.9 1.4-2.4 2.5-.3-.1-.6-.3-.9-.4-2.4-1.1-5.3 1.9-3 3.9 10.9 9.7 25 14.3 39 8.2zM378.6 488c3.2 4.4 8.6 12.3 6 18h46.6l-.3-.3c-4.1-3.8-6.4-8.8-10.8-12.4-4.8-4-10.3-7.4-15.7-10.6-7.2-4.3-18.9-12.2-27.6-8.1-.5.3-.8.6-.9 1.1-3.4-3-7.2-5.5-11.1-7.5-1.6-.8-3.7 1.4-2.1 2.7 6.1 4.6 11.5 11 15.9 17.1zM170.4 506c1.9-2.3 3.6-4.6 5.4-7 1-1.4-.7-3.7-2.3-3.1-3.6 1.4-6.1 3.9-8.6 6.7-1.1 1.2-2.3 2.3-3.5 3.4zM188.1 506c.3-.9.7-1.8 1.3-2.4 1.7-2-.6-5.7-3-3.9-2 1.5-3.3 3.6-4.6 5.7-.1.2-.3.4-.4.7h6.7z"></path><path d="M129.7 501.3c5.2.4 10 1 14.7 3.2.9.4 1.8.5 2.6.2-.2.4-.3.9-.5 1.3h6.7c.6-.9 1.5-1.8 1.9-2.3 1.6-1.8 3.2-3.5 4.8-5.2s-.4-4.3-2.5-3.2c-2.7 1.4-6.1 3.6-8.4 6.2 0-.2 0-.4-.1-.6-.1-.8-.3-1.6-.4-2.4 1.3-.8 2.5-1.7 3.7-2.6.4-.3.9-.6 1.4-.9.5.1 1.1.1 1.7-.2 7.4-4.2 15.5-7 23-11 2.5-1.4 5-2.8 7.4-4.3 6.6-2.8 15.2-1.6 22.2-1.8 3.6-.1 18.4-1.8 14.3-8.8-.2-.3-.4-.5-.5-.7 2.6-4 4.7-9.1 5.2-14 2.9-6.3 5.8-12.7 8.5-19.1 5-11.5 5.3-24.2 6.1-36.5 0-.6-.1-1.1-.4-1.5 3.7-17.6 2.3-35.8-9.5-49.8-1.1-1.3-2.9.4-2.3 1.7 6.1 13.2 8.5 26.9 6.2 41.3-2.3 14.7-8.7 28.6-16.3 41.3-7.1 11.9-15.9 24.1-26.5 33.2-6.1 5.3-13.3 10.3-20.3 14.3-5.8 3.3-12 5.8-17.5 9.6-2.1 0-3.7 1.4-5.3 2.8-1 .8-1.9 1.7-2.7 2.6-.5-.7-1-1.3-1.8-1.8-2.6-1.6-6.9.1-9.6.7-1.6.3-2.3 1.4-2.4 2.5-1.7.2-3.2.7-4.6 1.5-1.7 1.6-.7 4.1 1.2 4.3z"></path><path d="M140 368.4c-.7-.9-1.9-.8-2.5-.1-.4-.4-.7-.8-.8-1.3.3-1.8.4-3.5.2-5.1-.5-3.1-4.9-2.5-5.7 0-.6 1.9-.7 3.8-.3 5.5-.6 3-1.7 5.9-2.2 8.9-.8 4.5.6 8.4 3.4 11.9 4.9 6.1 14.5 8.6 21.9 9s14.8 1.3 22.2 1.2c6.3-.1 15.7-.5 19.6-6.5.7-1.1.6-2.4-.1-3.4.7-1 1.3-2 2-2.9 3.8-5.2 10.1-10.2 16.9-8.3 2.4.7 4.1-3 1.7-4.1-3.8-1.8-6.2-3.8-10.5-4.5-4-.7-8-.5-12-.1-6.8.7-13.5 2.4-20.2 3.9-10.7 2.5-25.8 6.3-33.6-4.1z"></path><path d="M183 350.6c-1.1.5-2 1.2-3 1.9-.4-.1-.9-.1-1.4.1-1.2.5-2.4 1.1-3.7 1.7-.5-2.1-2.8-3.8-4.9-2.2-2.9 2.2-4.7 3.9-8.4 4.9-3.7.9-7.8.7-11.2-1.2-1.9-1.1-3.8 1-2.9 2.9 1.7 3.3 5.2 4.9 8.8 5.4.1.2.3.3.5.4 5.2 2.7 12.6 1.8 17.9-.1 5.4-2 12.1-6.4 10.3-12.8 0-1-1.1-1.4-2-1z"></path></g><path fill="#851919" d="M88.6 142.9c-10.9 12.5-16 28.4-18.5 44.6-2.5 16.5-2.4 34.6 2.2 50.8.7 2.6 4.6 1.5 4-1.1-6.7-30.2-4.6-66.9 14.3-92.7.9-1.3-1-2.8-2-1.6z"></path><path fill="#851919" d="M73.4 240.3c3.7.1 7.2-1.6 10.7-2.8 4.3-1.5 8.6-3 12.9-4.4s8.7-2.8 13.1-3.9c4.5-1.2 9.4-1.7 13.8-3.2 1.9-.7 1.6-3.6-.5-3.6-8.6-.1-18 3.6-26.1 6.2-4.3 1.4-8.6 2.9-12.9 4.4-4 1.4-8.6 2.4-11.9 5.1-1 .7-.1 2.1.9 2.2z"></path><path fill="#851919" d="M123.7 181.5c-3.2 6.1-3.6 14.2-3.8 21-.2 8 1.1 16 3.4 23.7.8 2.6 4.9 1.5 4.1-1.1-2.1-6.9-3.2-13.8-3.3-21-.1-7.3 1.8-14.8 1.3-22 0-1-1.3-1.5-1.7-.6z"></path><path fill="#851919" d="M126.5 228c3.7-.9 7.6-1.8 11.3-2.8.7-.2 1.3-.8 1.5-1.5.9-3.8-4.2-2.2-6-1.8-3.2.7-6.5 1.2-8.5 3.9-.8 1.2.5 2.5 1.7 2.2z"></path><path fill="#851919" d="M142.7 166c-8.7 17.7-8.9 37.7-5.9 56.8.4 2.7 4.5 1.5 4.1-1.1-1.5-9.3-2-18.5-1.4-27.9.6-9.2 2.7-18.3 4.5-27.3.2-.7-.9-1.3-1.3-.5z"></path><path fill="#851919" d="M143.2 159.7c-4.3 20.4 5.1 42.5 16.8 58.9 1.6 2.2 5.2.1 3.6-2.1-5.8-8.1-10.4-16.8-13.5-26.2-3.3-9.8-4.1-20.1-5.3-30.4-.1-.9-1.4-1.2-1.6-.2z"></path><path fill="#851919" d="M179 127.6c-12.5 9.6-18.2 27.6-20.7 42.5-1.4 8.4-1.7 16.9-1.1 25.4.5 7.5 1.5 16.6 5.1 23.2 1.1 2 4 .6 3.6-1.5-1.5-7.4-3.8-14.1-4.5-21.7-.7-8.1-.3-16.3.9-24.3 1.2-7.7 3.3-15.5 6.2-22.8 2.9-7.2 7.3-13.3 11.7-19.5.6-.8-.5-1.9-1.2-1.3z"></path><path fill="#851919" d="M176.8 130c-4.7 10.2-2.9 23.4-.1 33.9 3 11.2 9 22.1 17.3 30.2 15.3 14.9 37.6 16.4 57.2 10.8 2.6-.7 1.5-4.8-1.1-4.1-18.1 5.1-37.7 4-52.3-8.9-8.2-7.2-13.5-17.5-16.7-27.8-1.7-5.3-2.5-10.7-2.8-16.2-.3-5.8.5-11.7 0-17.5 0-.7-1.1-1.2-1.5-.4z"></path><path fill="#851919" d="M237.8 169.6c-.7 5.9.7 12.5 2.1 18.3 1.5 6.3 4.7 11.9 9.3 16.4 1.9 1.9 4.9-1.1 3-3-4.5-4.5-7.1-9.6-8.5-15.8-1.3-5.5-1.1-11.4-3.4-16.6-.7-1.3-2.4-.4-2.5.7z"></path><path fill="#851919" d="M238.7 171.3c3.9 8.4 10.6 17 18.7 21.6 10.1 5.8 22.6 5.9 33.8 7.8 2.7.4 3.8-3.6 1.1-4.1-10.6-1.8-21.7-2.2-31.6-6.8-9.2-4.3-12.7-13.7-19.8-20.2-1.3-1-2.9.3-2.2 1.7z"></path><path fill="#851919" d="M267.5 125.3c.3 10.2 1.7 20.1 3.9 30.1 3.2 14.3 8.7 26.8 16.8 39 7.7 11.6 17.3 21.3 29.3 28.5 10.6 6.4 24.8 12.3 29.1 24.9.9 2.6 4.9 1.5 4.1-1.1-3.9-11.5-14.3-17.9-24.3-23.7-5.2-3-10.4-6-15.3-9.6-6.6-4.9-12.1-11.2-16.9-17.8-8.6-11.9-14.6-24.6-18.1-38.9-2.6-10.5-3.4-21.3-6.4-31.7-.5-1.2-2.3-1-2.2.3z"></path><path fill="#851919" d="M316.9 192.7c12 24.6 28.8 46.4 39.3 71.8 5.3 12.7 8.9 26.2 9.5 40 .3 7-.5 13.9-1.7 20.8-1.4 7.7-5 15-6.4 22.7-.3 1.9 2.1 3.1 3.2 1.3 3.8-6.1 5.5-14.4 7-21.3 1.5-6.8 2.2-13.8 2.2-20.7 0-14.1-3.6-28.1-8.7-41.2-10.2-26.5-26.1-51.5-42.9-74.2-.6-1-2-.3-1.5.8z"></path><path fill="#851919" d="M351.7 153c11.3 31.6 22.7 63.3 26.1 96.9 1.7 16.8 1.3 33.8-1.7 50.4-3 16.2-10.9 31.2-18.2 45.8-1.2 2.4 2.4 4.6 3.6 2.1 7.2-14.5 15-29.4 18.3-45.4 3.5-16.9 3.8-34.3 2.3-51.5-3-34.3-13.3-68.5-29-99.1-.4-.6-1.8 0-1.4.8z"></path><path fill="#851919" d="M377.2 222.2c.8-8.1 3.7-14.4 9.7-20 5.8-5.5 13.6-9.2 21.6-9.6 16.2-.8 25.6 16.9 26.9 30.7 1.5 15-3.2 31-11.5 43.5-4 5.9-9.7 9.5-16.1 12.4-6.3 2.9-16.4 6-22.1.4-2.1-2.1-5.1 1-3.2 3.2 5 5.7 13.5 4.9 20.1 3.1 7.5-2 15-5.9 20.7-11.1 5.4-4.9 8.9-12.5 11.6-19.2 3.1-7.7 4.9-16.1 5.3-24.4.8-15.7-4.7-31.8-18.9-39.9-14.2-8.2-32.9.8-41.9 12.8-3.9 5.1-7.1 11.9-5.4 18.4.4 2.1 3.1 1.5 3.2-.3z"></path><path fill="#851919" d="M412.1 216.1c-7 1.9-12.4 9.4-15 15.9-2.8 7-4.9 17.4-2.1 24.7.7 1.9 3.5 1.6 3.6-.5.2-3.2-.4-6.5-.4-9.8.1-3.8.9-7.5 2.1-11.1 1.1-3.4 3-6.5 5.2-9.2 2.3-2.9 5.5-4.9 8-7.5 1-1.1.1-2.8-1.4-2.5z"></path><path fill="#851919" d="M398.7 233.8c1.3 1.3 3 2.1 4.1 3.6 1.2 1.7 1.5 3.8 1.7 5.7.1 2.7 4.4 2.7 4.2 0-.3-4.6-2.9-12.6-8.9-11.9-1.3.2-2.1 1.6-1.1 2.6zM80.8 234.2c-3.9 9.5-3.2 21-1.9 30.9 1.4 10.2 4.2 20.2 6.6 30.2.6 2.6 4.7 1.5 4.1-1.1-2.3-9.4-4.8-18.7-6.4-28.2-.8-5.2-1.1-10.5-1-15.8s1.2-10.4 1.7-15.6c.1-1.9-2.5-1.9-3.1-.4zM244.6 373.4c26.7-5.5 53.1-14.9 78.1-25.5 15.8-6.7 32.1-13.9 45.7-24.5 1.9-1.5-.6-4.7-2.6-3.3-13.2 9.8-29.4 16.6-44.4 23.1-25.3 11-51.4 18.9-78 26.2-2.5.7-1.4 4.5 1.2 4z"></path><path fill="#851919" d="M84.8 294.5c-9.5 14.2-12.7 35.3-7.3 51.6 6.5 19.5 30.1 29 48.6 32.7 2.6.5 3.8-3.3 1.1-4.1-17.3-4.9-39.1-12.1-45.6-30.9-5.3-15.6-1-33.3 6.7-47.2 1.3-2.4-2.1-4.3-3.5-2.1zM274.5 32.9c36.5-2.8 73.8 4.4 104 25.8 8.2 5.8 16.4 12.7 23 20.4 7.4 8.7 12.7 19.3 17.5 29.7 5.1 11.1 9.6 22.6 13.8 34 14.5 39 24.7 79.5 35.6 119.5 3.8 13.8 7.3 27.9 5.9 42.3-1.6 16.5-12.3 30.1-24.7 40.3-2.1 1.7.9 4.7 3 3 14.7-12.1 25.6-26.7 27.1-46.2 1.4-18.1-5.1-36.4-9.8-53.6-13.6-49.3-26.2-99.3-48.1-145.7-6.6-14-14.8-26.4-26.3-36.7-7.2-6.5-14.9-12.4-23.2-17.4-29.4-17.8-64-22.5-97.8-19.6-2.7.2-2.7 4.4 0 4.2z"></path><path fill="#851919" d="M445.8 289.7c-1 6.4 1.6 13.5 2.7 19.8 1.4 7.3 2.3 14.6 2.2 22s-1.8 14.5-5 21.2c-4 8.4-10.9 13.7-17.6 19.8-1.6 1.5.5 4.1 2.3 3 14.2-8.1 23.7-23.6 24.8-39.8.6-7.7-.6-15.4-1.9-22.9-.7-4-1.5-8.1-2.3-12.1-.7-3.8-1.1-7.8-2.9-11.2-.4-1.1-2.1-1-2.3.2zM275.6 29c-11.9-7.8-26.1-11-40.1-12.3-17.3-1.6-34.9 0-51.9 3.4-17.3 3.5-34.3 9.4-49.6 18.1-13.4 7.6-24.1 17.7-33.1 30.1-19.1 26.2-32.2 56.9-42.4 87.4-11.9 35.6-19.6 72.9-21.9 110.4-3.1 48.6 2.7 102.5 34.7 141.4 1.7 2.1 4.7-.9 3-3-21.3-25.9-30-60.5-32.7-93.3-3.1-37.5 1.3-75.6 9.7-112.2 8-34.8 19.8-69 36.6-100.5 6.8-12.8 14.5-25.2 23.7-36.3 10.7-12.9 25.9-21.7 41.2-28 20.7-8.5 43.3-12.9 65.7-13.4 18.3-.4 39.4 1.4 55.1 11.7 2.1 1.6 4.2-2.1 2-3.5z"></path><path fill="#851919" d="M174.5 135.7c-9.4 20.3-4.3 44.2 11.4 59.8 14.9 14.8 40.9 20.4 59.3 8.5 1.1-.7.4-2.7-.9-2.2-10.2 3.9-19.8 6.8-30.9 5.1-9.7-1.5-18.6-6.4-25.7-13.1-15.8-15.1-18.6-37.3-11.2-57.2.3-1.2-1.5-1.9-2-.9zM278.7 182.1c3.7 12.3 9.2 23.4 17.2 33.4 8.3 10.3 18.3 18.9 28.3 27.5 10 8.5 20.3 15.9 28.3 26.6 8.5 11.4 12 24.3 13.8 38.3.1 1 1.6 1.1 1.6 0 1.6-26.5-16.2-47-35.8-62.3-10.8-8.4-21.6-17.1-31-27.1-9.7-10.5-17-23-21.6-36.6-.1-.6-1-.4-.8.2zM97.7 73.1c-2.8 7.3-8 13.2-11.6 20-.3.5.4.9.7.4 4.4-6.4 8.9-12.8 12.2-19.9.5-.9-.9-1.5-1.3-.5zM37.4 257.9c-4.6 27.8-10.7 55.5-7.9 83.8 3.2 32.2 20.8 62.8 52 75.2.4.1.8.3 1.1.4 1.1.4 1.9-1.4.8-2-15.5-8.2-29-17.6-38.5-32.8-8.2-13.1-12-28.5-13.4-43.7-2.4-27.2 3.2-53.9 6.8-80.7.2-.6-.8-.9-.9-.2zM427.4 125.4c4.4 14.2 9.4 28.2 15.3 42 5.8 13.8 13 26.1 21.8 38.2 8.3 11.5 13.9 24.7 15.3 38.9 1.5 14.2-1.3 28.6-4.5 42.4-.3 1.2 1.5 1.7 1.9.5 4-13.2 6.6-26.7 5.9-40.6-.7-13.2-5.2-25.7-12-37-3.8-6.2-8.5-11.7-12.4-17.8-4.2-6.6-7.7-13.7-11-20.8-6.9-15.1-12.3-30.9-18.5-46.3-.6-.9-2.1-.6-1.8.5zM450.7 264.5c6.9 24.7 13.5 53.5-.4 76.9-.7 1.1 1 2.5 1.9 1.4 8.7-10 9.1-25.2 8.5-37.8-.7-14-3.8-27.8-8.5-40.9-.4-.8-1.7-.5-1.5.4zM346.7 76.6c8.8 16.3 19.5 31.4 28.5 47.5 4.7 8.6 9 17.4 12.4 26.6 3.4 9 5.3 18.3 7.4 27.7.2 1.1 2 .8 1.9-.3-1.2-18.5-9.6-36.7-18.2-52.8-9.1-17.1-19.8-33.5-30.8-49.5-.4-.7-1.6 0-1.2.8zM391.1 137c4.2 7.2 6.3 15.1 9.8 22.5.3.6 1.3.3 1.2-.3-.9-8.2-5.1-16.3-9.5-23.1-.7-.9-2.1-.1-1.5.9zM226.7 102.8c-1.9 9.8-3.5 19.7-4.2 29.7-.4 5-.4 10.1-.2 15.2.2 4.2.3 9.1 2 13 .3.6 1.1.2 1.2-.3.5-4.6-.7-9.6-.9-14.2-.2-4.5-.1-9.1.1-13.6.5-9.8 2-19.6 3.5-29.3.1-1-1.3-1.5-1.5-.5zM219.4 121.1c-1.6 6.6-2.6 13.6-1.9 20.4.1 1.2 1.8 1.2 1.8 0 .3-6.7.4-13.3 1.8-19.9.3-1.1-1.4-1.6-1.7-.5zM154.3 96.8c-5.6 6.7-11.1 13.5-15.9 20.8-4.7 7.2-9.4 16.1-9.5 24.9 0 1.2 1.7 1.4 2 .3 2.3-8.6 4.6-16.5 9-24.2 4.3-7.5 9.7-14.2 15.1-20.9.6-.6-.2-1.5-.7-.9zM135.1 113.9c-3.4 4.8-6.1 9.8-8.4 15.2-.1.3.3.5.4.3 2.5-5.2 5.3-10.3 8.7-15.1.3-.4-.4-.8-.7-.4zM80.2 156.7c-9.8 12.5-15.6 27.1-18.2 42.7-1.3 7.9-1.9 15.9-2.6 23.9-1.1 12.8-1.9 25.6-2.2 38.5-.1 6.1-.1 12.3.1 18.4.2 4.7.3 9.6 2 14 .3.7 1.3.6 1.3-.2.1-10.3-1.1-20.7-.9-31.1.2-12.2.9-24.4 1.9-36.6.7-8.4 1.4-16.8 2.5-25.1 2-15.6 8-30.8 17.3-43.5.5-.8-.7-1.7-1.2-1z"></path><path fill="#851919" d="M329.9 132.8c21 24.7 27.7 58.4 33.7 89.4 3.6 18.6 6.5 37.4 7.1 56.4.3 8.9-.1 17.8-1 26.7-.5 5-1.3 9.9-2.2 14.9-.9 4.9-2.5 9.7-2.9 14.7-.1 1.1 1.6 1.6 2.1.6 3.7-8.1 4.5-18.3 5.7-27.1 1.2-9.4 1.6-18.8 1.4-28.2-.4-19.3-3.5-38.5-7.2-57.4-6-31.3-13.7-66.3-35.8-90.6-.6-.6-1.3.1-.9.6zM273.3 28.8c21.6-11 46.4-7.5 68.2.8 11.5 4.3 22.2 10.5 32.2 17.6 4.9 3.5 9.5 7 13.8 11.2 3.7 3.6 6.8 7.7 10.4 11.6.3.4.9-.1.6-.5-4.9-9.2-14.3-17.5-22.5-23.8-10.2-7.9-21.7-14-33.7-18.6-21.6-8.4-48.7-11.6-69.3 1.1-.5.1-.1.8.3.6z"></path><path fill="#851919" d="M115.7 50.7c33.2-21.6 70-42.9 111-41.8 10.7.3 21.6 2.3 31.2 7.1 5.1 2.5 10.8 6 13.3 11.3.3.5.6 1.5.4 2.1-.4 1.4 1.7 1.9 2.1.6 1.3-4.2-2.7-8-5.6-10.5C261.9 14.2 254 11 246.3 9c-29.8-7.9-62 1.7-88.8 14.7-15 7.3-29.3 16.3-42.3 26.7-.1 0 .2.5.5.3zM417.8 306.8c1 6.7 2.6 13.3 3.4 20 .4 2.9.4 5.8.3 8.6-.1 3.3-1.3 6.3-.8 9.6.2 1.2 1.7 1 2.2.3 3.4-4.6 2.6-13.1 1.9-18.5-.9-7.1-3.3-13.6-5.7-20.3-.3-.9-1.4-.6-1.3.3zM132.7 279c21.8-5.1 43.8-9.8 65.5-15.4 2.8-.7 1.6-5.1-1.2-4.4-21.7 5.6-43.9 9.5-65 17.2-1.7.6-1.1 3 .7 2.6z"></path><path fill="#851919" d="M180.5 266.1c-2.4 6.7 4.2 12.2 10.4 11 6.7-1.3 10.8-9.8 7.9-15.9-.9-2-3.7-.8-3.8 1-.3 4.2 0 8.7-4.9 10.4s-5.4-3.2-6.5-6.5c-.5-1.5-2.5-1.5-3.1 0zM251.6 248.9c11.9-.9 23.6-3.8 35.3-6 10.1-1.9 20.9-2.6 29.7-8.4 2.3-1.5.3-4.9-2.1-3.6-9.2 4.8-18.6 6.2-28.7 7.9-11.6 2-23.3 4.4-34.5 7.8-1.3.3-1.1 2.4.3 2.3z"></path><path fill="#851919" d="M298.7 239.5c2.4 5.2 8.9 9.1 14.6 7.5s7.5-10.3 4.3-14.9c-1.1-1.6-3.4-1-3.5 1-.2 3.3 2.1 8.5-2.4 9.9-4.1 1.2-7.8-3-10.3-5.5-1.5-1.5-3.5.3-2.7 2z"></path><path fill="#851919" d="M312 235.6c-.6 2-1.1 3.8-1.9 5.7 1.5.6 3 1.2 4.4 1.9.6-1.9.1-3.7-.3-5.6-.2-.9-1-1.6-1.8-1.8-.1-.1-.2-.2-.4-.2-1-.3-2.6.2-3 1.3-.7 1.7-2 3.1-2.6 4.9 1.6-.4 3.2-.8 4.8-1.3-1.3-1.2-2.9-1.9-4.2-3.1-2.9-2.6-6.6 1.3-4.2 4.2 2 2.5 6.8 4 9.2 1.1.9-1.1.8-2.5-.4-3.3-1.5-1-3.3-.5-4.5-2l-4.2 4.2c1.3 1.2 3.1 1.8 4.4 2.9 1.6 1.4 4.2.9 4.8-1.3.5-1.5 1.7-2.7 2-4.3l-1.9 1.9c.1 0 .3-.1.4-.1-1.1-.6-2.1-1.2-3.2-1.8.3.9.8 2 .6 3-.7 3.1 3.6 4.2 4.7 1.3.9-2.4 1.8-5 1.3-7.6-.6-2-3.5-1.8-4 0zM184.2 268.2c-.2 3.5 2.5 6.4 6 5.4 3.4-.9 5.4-4.9 5.9-8 .4-2.4-1.9-4.9-4.4-3.4-2.4 1.5-3.4 3.3-4 6.1-.3 1.5.4 3.4 2.1 3.7 1.6.3 3 .5 4.5-.2 1.4-.6 2.1-2.1 2.7-3.3.6-1.1.6-2.7-.5-3.6-1.2-1.1-2.6-1.8-4.3-1.7-1.6.1-3.2.9-4 2.5-.8 1.8.1 3.9 2.2 3.9.6 0 1.1-.1 1.7-.2 1-.2.2-.2.1-.3-.2-1.2-.3-2.4-.5-3.6-.2.4-.4.7-.6 1.1-.1.1-.6.8-.1.3.2-.3 1.8-.5 1-.5h-.1c-.3 0-.5-.1-.8-.1.7 1.2 1.4 2.4 2.1 3.7.1-.7.3-1.4.5-2.1-.2.5.3-.3 0 .1.2-.2.4-.3.7-.5-1.5-1.1-2.9-2.2-4.4-3.4-.3 1.7-.7 3.3-1.8 4.2.2-.2.2-.2-.1 0 .3-.1.3-.1 0 0h.1c.2 0 .5 0 .7.2.2.1.3.2.4.4-.1-.3-.2-.3-.1 0-.2-.4-.3-.8-.3-1.2-.2-3.2-4.5-2.3-4.7.5zM148.8 361.2c3.5 5.1 9.8 6.3 15.5 4.6 4-1.2 12.3-7.2 9-12.1-.6-1-1.8-1.1-2.7-.3-1.3 1.1-1.4 2.6-2.2 4-1.1 2-3.3 3.2-5.4 4-4 1.5-8.8 1.1-12.2-1.7-1-1-2.9.2-2 1.5z"></path><path fill="#851919" d="M174.1 351.8c-1.8-6.9-11.8-10.8-17.7-13-3.5-1.3-7.3-2.2-11.1-1.7-2.7.4-5.4 3.2-4.1 6 .3.7 1.5 1 2.1.6 1.6-1.2 2-2.2 4.3-2.2 3.2 0 6.5 1.3 9.4 2.5s5.7 2.7 8.4 4.4c1.9 1.2 4.6 2.6 5.8 4.6 1.1 1.4 3.4.5 2.9-1.2z"></path><path fill="#851919" d="M142.7 339.7c-3.4 3-5.2 8.5-6.3 12.7-1.4 5.1-1.8 10.6-1.3 15.8.4 5.1 1.9 9.9 4.5 14.3 2 3.5 6 8.5 10.3 8.7 1.1.1 1.8-1.2 1.2-2.1-.9-1.6-2.5-2.5-3.9-3.7-1.8-1.7-3.3-3.6-4.5-5.8-2.3-4-3.3-8.8-3.6-13.4s.4-9.2 1.6-13.6c1.1-4 3.3-7.4 4.8-11.3.6-1.6-1.7-2.6-2.8-1.6zM171.4 355.4c8.2 1.2 17.1-3.9 24.4-6.8 8.7-3.5 18.1-6 27.4-3.6 7.1 1.9 12.3 7.6 15.1 14.3 2.7 6.4 2 12.7 2.8 19.3.3 2.1 2.9 2.5 3.7.5 2.5-6.3.5-15-1.8-21.1-2.8-7.2-7.9-13.2-15-16.4-8.6-3.8-18.6-2.5-27.2.4-5 1.6-9.7 3.8-14.5 5.8-5 2-10.3 3.1-15.2 5.1-1.1.4-.8 2.3.3 2.5z"></path><path fill="#851919" d="M136.3 355.1c-11.5 9.4-15.6 28-2.2 37.7 7.9 5.7 17.8 7.7 27.4 8.2 5.3.3 10.6-.2 15.9-.9 4.9-.7 10.4-1.5 14.7-4.1 1.4-.8.9-3.4-.9-3.3-3.7.4-7.2 1.6-10.9 2.3-4.3.9-8.8 1.3-13.2 1.5-9 .4-18.5-.9-26.7-4.9-6.7-3.3-11.3-9.1-11.1-16.8.2-7.1 4.7-13.1 8.7-18.6.7-.9-.9-1.8-1.7-1.1z"></path><path fill="#851919" d="M219.7 376.6c-6.4-3.6-14.4 2.2-19 6.2-6.5 5.6-12.1 12.9-16.6 20.2-6.5 10.6-11.2 22.1-17.5 32.8-6.4 10.8-14.9 21.6-18.8 33.6-.7 2 2.1 2.9 3.2 1.4 6.5-8.9 11.5-19.1 17.2-28.5 6-9.9 11-20 16.2-30.3 4-7.8 8.8-14.9 14.6-21.4 2.8-3.1 5.8-6.1 9.3-8.4s6.6-2.8 10.6-3c1.5-.1 2.1-1.9.8-2.6zM316 346c-2.9 6.4-5.5 12.4-9.9 18-4.8 6.1-10.7 11.3-17.5 15-6.4 3.5-14 2.7-20.7.6-7-2.2-11.6-6.7-17.3-10.9-1.6-1.2-3.7 1.1-2.7 2.7 3.6 5.8 11.5 9.6 17.7 12 7.1 2.7 15.9 3.6 23.1.4 7.7-3.5 14.3-9.3 19.8-15.7 4.9-5.8 10-13.6 10.5-21.4-.1-1.4-2.4-2.1-3-.7z"></path><path fill="#851919" d="M295.1 380.8c8.6 3.4 16.5 7.3 25.9 6.3 7.9-.8 16-3.9 20.6-10.7 6.4-9.5 4.5-30.5-6-36.7-2.1-1.3-4.6 1.8-2.7 3.5 7.7 7.1 10.2 21.6 4.7 30.9-3.9 6.6-13.4 8.4-20.4 8.7-7.6.3-14.3-4.5-21.8-4.4-1.4.1-1.5 1.9-.3 2.4zM276.1 384.6c-2.3 5.8-7.6 10.5-12.8 13.8-2.8 1.8-5.8 3-9 3.8-3.6.8-6.5-.4-9.9-1-1.8-.3-3.1 1.7-1.8 3.1 5.4 6.1 16.5 2 22.3-1.2 6.6-3.7 13.7-10.2 14.7-18 .2-2.1-2.8-2.1-3.5-.5z"></path><path fill="#851919" d="M241.9 375.9c-1.4 7.7-.7 15.8-1.4 23.5-.7 9.1-2.5 18-4.8 26.8-4.3 16.4-11.4 31.8-16.8 47.9-.9 2.8 3.3 3.8 4.3 1.2 6.1-15.8 12.6-31.5 17.1-47.8 2.2-8.1 3.7-16.4 4.6-24.8 1-8.5 2-18.3.1-26.8-.3-1.6-2.8-1.7-3.1 0zM363 470.4c12.6 5.5 26.4 7.9 39.2 13 6.5 2.6 12.8 5.8 18.1 10.3 2.4 2.1 4.5 4.5 6.2 7.2 1 1.6 1.7 3.4 2.3 5.1h5.2c-1.8-12.2-16-20.9-26-25.4-13.7-6.1-29.1-9.8-43.8-12.8-1.6-.3-2.8 1.9-1.2 2.6zM346.1 335.9c5.3.6 12.5 3.9 17.7 1.7 1.2-.5 1.1-2.6 0-3.1-2.5-1.2-5.4-1-8.1-1.3-3.5-.4-6.4-.3-9.9.5-1.4.3-.9 2.1.3 2.2z"></path><path fill="#851919" d="M367.1 338c9.2 1.1 17.9 1.8 26.5 5.7 6.6 3 12.4 7.3 17.7 12.2 12.5 11.5 21.8 25.9 27.2 42 12.2 36.1-1.1 72.4-8.1 108.1h4.5c3.4-9.3 5-19.5 7-29.1 1.7-8.7 3.2-17.5 4.8-26.3 3.4-19.5 1.9-39.2-4.9-57.9-5.9-16-15.8-30.2-28.5-41.5-12.1-10.9-30-19.9-46.6-16.2-1.8.5-1.2 2.8.4 3zM146.2 506c1.5-4 12.7-9.9 14.5-10.9 9.9-5.4 20.5-9.8 31.3-13.1 10.1-3.1 21.3-3.4 31.7-3.1 11.5.4 24.8 3.7 24.2 17.6-.1 2.5 3.7 2.5 3.9 0 1-14.3-10.7-20.2-23.2-21.7s-26.5-.6-38.5 3.1c-12.7 3.9-25.4 9.3-36.7 16.3-3.2 1.9-10.8 7-11.9 11.8z"></path><path fill="#851919" d="M162.4 506c3.7-3.9 8.9-6.7 13.6-8.6 1.5-.6.9-2.7-.7-2.4-4.3.8-8 2.5-11.7 4.9-2.3 1.5-5 3.6-6.5 6.1zM182.9 506c1.9-1.7 4.1-3 6.3-4.2 1.4-.8.4-3.2-1.1-2.6-3 1.1-5.7 2.4-8.2 4.4-.8.6-1.7 1.4-2.6 2.4zM150.3 465.7c-4 3.8-5.6 11.4-6.7 16.6-1.4 6.3-1.7 13 .5 19.2.9 2.5 4.9 1.4 4-1.1-2-6-1.5-12.3-.3-18.4 1.1-5.2 4.2-10.2 4.7-15.4.1-1.2-1.5-1.6-2.2-.9zM132.2 506c-3.7-10.4-6.1-20.5-6.5-31.7-.3-9.1.6-18.3 1.3-27.3 1.3-17.9 4.4-35.7 16.1-50 .8-1-.3-2.9-1.5-2-14.3 10.6-16.7 32.3-18.2 48.6-1.9 20.2-4.4 43.5 4.8 62.4zM368.8 337.5c0 .1.1.3.1.4.1.3.6.3.7 0 0-.1.1-.3.1-.4.1-.7-1-.7-.9 0z"></path><path fill="#851919" d="M367.6 337.5c-3.3 6.6-3.9 14.8-4.3 22-.2 4.2-.1 8.3.1 12.5.1 3.7-.1 7.7 1 11.2.3.9 1.8 1 2 0 1.2-6.5-.4-13.9-.4-20.5 0-8.5 1.9-16.2 3.4-24.4.1-1.1-1.3-1.9-1.8-.8zM366.6 389.5c-.7 7 .1 14-.1 21-.3 7.6-1 15.2-1.7 22.7-.5 5.8-.8 11.5-.8 17.4 0 6.1-1.3 11.5-2.2 17.4-.2 1.4 1.4 2.7 2.5 1.5 3.3-3.5 3.6-9.3 3.8-13.8.4-6.4.1-12.8.6-19.2.6-7.6 1.2-15.1 1.5-22.7.3-8.2-1.7-16.1-1.9-24.3.1-1.2-1.5-1.1-1.7 0z"></path><path fill="#851919" d="M367.6 458.8c3.5.8 7.5 2.3 11.1 1.9 1-.1 1.6-1.5.6-2-3.2-1.7-7.3-1.9-10.9-2.6-1.8-.3-2.6 2.3-.8 2.7zM396.5 463.4c7.6 2.2 15.6 3.5 22.7 7 7.7 3.7 10.8 11.6 17.4 16.3.7.5 1.5-.5 1.2-1.2-3.7-6.9-9.1-13.3-15.8-17.3-7.5-4.4-16.7-5-25-6.5-1.1-.2-1.6 1.4-.5 1.7zM130 498.9c2-1.5 4.2-2.7 6.5-3.8s5.8-1.4 7.5-3.3c.7-.7.5-2.1-.6-2.3-2.6-.6-5.5 1.3-7.7 2.4-2.6 1.3-5.1 2.9-7.3 4.9-1.3.9.3 3 1.6 2.1zM249.1 489.2c4.6.1 9.4-1.1 14-1.6 5.2-.6 10.3-1.4 15.4-2.4 11.9-2.4 23.8-5 35.7-7.4 9.9-2 19.9-4.2 29.9-5.5 4.9-.7 9.9-1 14.9-.8s9.3 1.4 14.1 2.4c1.6.3 2.5-1.7 1.1-2.6-7.4-5.3-18.8-4.5-27.4-3.6-9.9 1-19.7 3.3-29.4 5.2-12.3 2.3-24.6 5.1-36.8 7.7-5.5 1.2-11 2.2-16.6 3-5.1.7-11.1 1-15.5 3.8-.8.4-.5 1.8.6 1.8z"></path><path fill="#851919" d="M275.4 385.2c-2.2 15-3.4 30.3-5.1 45.3-2 17.3-4.6 35.1-3.4 52.6.2 2.5 4 2.5 3.9 0-1-17.1 1.3-34.4 3.2-51.4 1-8.8 2-17.6 2.9-26.4.7-6.4 1.7-13.3.8-19.8-.2-1.2-2.1-1.8-2.3-.3zM294.9 378.5c.7 16.3-.5 32.6-1.6 48.8-1.2 17.3-3.4 35-2.5 52.4.1 2.6 4.2 2.6 4 0-1-17.4 1.2-35.1 2.3-52.4.6-9.7 1.2-19.5 1.5-29.2.2-6.4.7-13.7-1.1-19.9-.3-1.5-2.6-1.2-2.6.3zM265.3 345c3.5-4.3 7.7-8 13-10 6.2-2.3 10.1.6 15.4 3.1 1.5.7 3.7-.9 2.5-2.5-3.6-5.4-10.9-6.5-16.9-5.4-7.1 1.4-12.8 7-16.7 12.8-1 1.5 1.5 3.5 2.7 2zM67.2 401.8c1.5 3.2 4.5 6.1 6.6 9 2.3 3.1 5.3 5.3 8.5 7.4 7.4 5.1 17.3 10.5 26.4 10.7 1.3 0 1.8-1.9.7-2.5-3.6-1.8-7.5-3-11.2-4.5-4.8-1.9-9.4-4.5-13.8-7.4-4.2-2.7-6.9-5.8-9.9-9.7-1.6-2.1-3.7-4.5-6.6-4.3-.7.1-1 .7-.7 1.3z"></path><path fill="#851919" d="M100.1 388c.4 7.9.3 15.8 1.4 23.7.6 4.3 2.8 17.1 9.3 16.6 1-.1 1.5-1 1.1-1.9-1.2-2.6-3.6-4.4-4.7-7.2-1.4-3.5-2-7.4-2.4-11.1-.9-6.8-.8-13.7-2.2-20.4-.3-1.4-2.5-1.1-2.5.3z"></path><path fill="#851919" d="M101.2 396c1.8 6.4 5.1 12.1 9.6 16.9 3.7 4 11.2 9.9 17.1 7.7 1-.4 1.4-1.9.3-2.5-2.3-1.3-4.9-1.6-7.2-2.7-2.7-1.3-5.1-3.3-7.3-5.4-4.4-4.1-8.1-9.4-10.5-14.9-.5-1-2.3-.2-2 .9zM118.5 382.2c.9 6.4 1 12.5 3 18.7 1.2 3.8 4.7 11.4 9.6 11.1.9-.1 1.6-1 1.1-1.8-1.3-2-3.7-3.1-5.1-5.1-1.7-2.4-2.7-5.2-3.6-7.9-1.6-5-2.6-10.2-3.8-15.2-.3-.8-1.3-.5-1.2.2z"></path></g></svg>