<svg xmlns="http://www.w3.org/2000/svg" version="1.1" xmlns:xlink="http://www.w3.org/1999/xlink" width="512" height="512" x="0" y="0" viewBox="0 0 512 512" style="enable-background:new 0 0 512 512" xml:space="preserve" class=""><g><ellipse cx="209.773" cy="356.524" rx="179.205" ry="94.884" style="" fill="#65e2ea" data-original="#65e2ea"></ellipse><path d="M461.591 221.481c-17.732 6.022-36.228 4.086-51.642-3.895-6.476 24.256-22.225 45.477-44.76 58.572-50.997 29.656-105.769 48.105-164.365 55.394-.956.119-1.936.215-2.892.311-23.587 2.199-46.815-4.708-65.287-18.568-.43-.287-.86-.621-1.267-.932-7.384 15.581-20.838 28.27-38.451 34.245-34.579 11.734-72.122-6.787-83.855-41.366-11.734-34.579 6.787-72.122 41.366-83.879a65.844 65.844 0 0 1 29.083-3.035c-11.734-61.75 20.504-124.767 79.458-151.532a426.74 426.74 0 0 1 82.66-27.745c61.966-13.956 125.174 16.752 152.655 72.361 6.811-6.643 15.175-11.901 24.781-15.151 34.579-11.734 72.146 6.787 83.879 41.366 11.736 34.578-6.784 72.12-41.363 83.854z" style="" fill="#c9adb5" data-original="#c9adb5"></path><path d="M333.831 209.535c-36.641 20.623-75.8 33.826-117.478 39.608-25.576 3.548-50.503-7.09-63.945-27.162-7.032-10.501-12.607-21.496-16.726-32.985-16.127-44.987 8.118-95.387 55.097-116.32a327.627 327.627 0 0 1 59.081-19.847c48.344-11.272 96.93 13.194 111.755 56.876 4.017 11.837 6.506 24.192 7.467 37.066 1.876 25.121-11.775 49.55-35.251 62.764z" style="" fill="#ffefc5" data-original="#ffefc5"></path><path d="M413.605 188.718c-.956-2.939-2.533-5.927-5.018-9.057-15.151-18.974-33.815-4.063-48.965-23.037-15.151-18.974 3.537-33.886-11.614-52.861-15.151-18.951-33.838-4.039-48.965-23.013l16.991-11.495c19.142 14.912 38.475-3.561 57.616 11.351.43.335.836.669 1.242 1.028 3.609 3.083 5.879 6.333 7.36 9.654 5.64 12.618 4.26 19.179 19.076 30.697 1.721 1.338-.651 9.713.998 10.55 5.425 17.086 9.105 34.723 11.017 52.98.119 1.076.214 2.128.262 3.203zM197.933 331.862c-23.587 2.199-46.815-4.708-65.287-18.568-3.011-16.585-20.504-21.34-18.21-42.226 2.653-24.136 26.406-21.508 29.059-45.644 2.676-24.136-21.077-26.741-18.425-50.877 2.653-24.112 26.406-21.507 29.059-45.644l23.037-7.767c3.059 24.088-20.671 27.076-17.612 51.164 3.035 24.088 26.741 21.077 29.8 45.166 3.035 24.088-20.671 27.076-17.636 51.164 3.059 24.088 26.765 21.101 29.8 45.166.979 7.743-.813 13.287-3.585 18.066z" style="" fill="#b5f6f8" data-original="#b5f6f8"></path><path d="M504.58 190.56c-8.46 17.15-23.1 29.99-41.23 36.14-16.53 5.61-34.03 5.06-49.95-1.46-7.88 23.52-23.83 43.14-45.44 55.7a453.51 453.51 0 0 1-19.24 10.54c-2.71 1.4-6.03.34-7.43-2.36a5.509 5.509 0 0 1 2.37-7.43c6.37-3.29 12.68-6.75 18.76-10.28 20.464-11.893 35.245-30.892 41.759-53.627.152-.529 1.151-3.736 1.384-4.525 2.71-9.163 3.515-21.285 2.327-35.288-.26-3.03 1.99-5.69 5.02-5.95s5.7 1.99 5.96 5.02c1.23 14.49.45 27.36-2.25 37.6 13.72 5.88 28.88 6.48 43.19 1.62 15.34-5.2 27.73-16.06 34.89-30.58 7.15-14.51 8.23-30.95 3.02-46.29-10.74-31.65-45.22-48.66-76.87-37.92-7.25 2.46-13.83 6.17-19.6 11.06 2.79 5.25 5.4 11.36 7.79 18.23 1 2.88-.52 6.02-3.4 7.01-.6.21-1.21.31-1.81.31-2.28 0-4.41-1.43-5.2-3.7-2.73-7.85-10.5-22.95-11.06-24.01-12.98-24.32-33.82-44.21-59.05-56.26-26.6-12.7-57.02-16.14-85.65-9.69a421.865 421.865 0 0 0-81.6 27.39c-27.29 12.39-49.89 33.76-63.64 60.18-13.65 26.22-18.17 56.51-12.7 85.29.32 1.73-.19 3.51-1.39 4.79s-2.94 1.92-4.69 1.71c-9.01-1.08-17.97-.14-26.64 2.8-15.34 5.21-27.73 16.07-34.9 30.59-7.16 14.52-8.24 30.96-3.04 46.29 10.74 31.65 45.24 48.66 76.9 37.91 15.62-5.3 28.14-16.44 35.25-31.37a5.493 5.493 0 0 1 3.7-2.99c1.62-.39 3.33-.02 4.65 1 18.8 14.57 42.01 20.98 65.37 18.08 20.86-2.6 41.45-6.68 61.19-12.12a5.51 5.51 0 1 1 2.93 10.62c-20.26 5.58-41.37 9.77-62.76 12.43-24.12 3.01-48.1-2.83-68.22-16.48-8.7 14.73-22.19 25.71-38.57 31.27a71.375 71.375 0 0 1-22.97 3.81c-29.86 0-57.79-18.81-67.9-48.61-6.15-18.12-4.88-37.55 3.59-54.71 8.47-17.17 23.11-30.01 41.24-36.16 7.93-2.69 16.06-3.96 24.28-3.81-3.99-29.07 1.21-59.14 14.9-85.43 14.89-28.59 39.35-51.72 68.86-65.12 26.8-12.18 54.98-21.63 83.73-28.11 31.04-7 64.01-3.27 92.83 10.49 26.47 12.65 48.49 33.26 62.63 58.5 6.4-5.07 13.57-8.97 21.4-11.63 37.41-12.69 78.16 7.41 90.86 44.82 6.15 18.12 4.88 37.55-3.58 54.71z" style="" fill="#ab8d96" data-original="#ab8d96"></path><path d="m225.509 213.003-.008-.023M275.067 196.183l-.008-.023M225.509 213.003l-.008-.023M275.067 196.183l-.008-.023" style="" fill="#ff80a7" data-original="#ff80a7"></path><circle cx="441.451" cy="158.955" r="24.046" style="" transform="rotate(-18.522 441.456 158.99)" fill="#ab8d96" data-original="#ab8d96"></circle><circle cx="68.02" cy="285.693" r="24.046" style="" transform="rotate(-30.413 68.02 285.709)" fill="#ab8d96" data-original="#ab8d96"></circle><path d="M415.273 327.31s-10.399-41.266-63.135-52.406c-30.488-6.441-51.91 2.036-64.574 10.335l-54.502-4.827c-17.373 18.138-37.925 45.596-34.34 71.142 4.548 32.484 52.118 49.179 80.684 44.923 9.486 25.662 36.552 86.061 79.189 79.223 45.553-7.305 27.35-57.912 12.316-87.641.001.001 70.421 73.557 100.87 43.108 30.448-30.45-56.508-103.857-56.508-103.857z" style="" fill="#c9adb5" data-original="#c9adb5"></path><path d="M483.727 413.607c-.661-15.671-11.908-35.757-33.429-59.699-13.236-14.726-26.166-26.219-30.203-29.721-2.74-8.512-17.039-44.159-66.818-54.675-55.498-11.723-82.781 22.911-83.915 24.391a5.5 5.5 0 0 0 1.012 7.705c2.403 1.856 5.858 1.41 7.723-.984.975-1.253 24.438-30.566 72.903-20.328 48.504 10.246 58.532 46.828 58.93 48.361a5.515 5.515 0 0 0 1.789 2.864c16.588 14.003 59.883 56.132 60.997 82.551.227 5.402-1.353 9.719-4.832 13.198-3.948 3.948-8.857 5.843-15.047 5.769-12.615-.135-29.978-8.483-50.211-24.141-15.746-12.186-27.618-24.527-27.736-24.651a5.488 5.488 0 0 0-1.922-1.29c-5.121-11.109-9.267-18.711-9.54-19.211a5.51 5.51 0 0 0-9.667 5.293c15.681 28.651 36.35 80.138 25.056 96.322-4.923 7.055-15.827 5.424-19.408 4.888-19.827-2.966-59.151-43.714-72.257-69.823 8.894-2.725 14.444-7.559 17.009-12.69 3.642-7.283 3.977-14.681.997-21.99-3.848-9.436-13.176-18.328-27.729-26.429-10.422-5.802-19.715-9.04-20.106-9.175a5.51 5.51 0 0 0-3.6 10.416c9.475 3.276 35.351 14.934 41.229 29.349 1.753 4.3 1.541 8.519-.65 12.9-3.757 7.515-19.059 10.689-37.21 7.717-23.341-3.821-49.856-17.886-52.915-39.737-1.438-10.245 1.478-21.988 8.668-34.903a5.511 5.511 0 0 0-9.629-5.361c-8.383 15.059-11.731 29.121-9.953 41.793 1.803 12.878 9.628 24.497 22.628 33.599 10.857 7.601 24.857 13.1 39.421 15.485 5.515.903 10.536 1.31 15.087 1.31a69.1 69.1 0 0 0 5.534-.233c12.623 27.542 55.435 74.72 81.844 78.671 2.811.421 5.461.63 7.953.63 10.009 0 17.433-3.387 22.126-10.114 8.266-11.848 6.626-33.607-4.862-64.669a284.238 284.238 0 0 0 12.766 10.524c22.511 17.443 41.672 26.371 56.949 26.538.147.002.293.002.438.002 8.977 0 16.555-3.026 22.528-8.999 5.703-5.699 8.411-12.917 8.052-21.453z" style="" fill="#ab8d96" data-original="#ab8d96"></path><ellipse cx="388.978" cy="293.889" rx="33.455" ry="21.254" style="" fill="#c9adb5" data-original="#c9adb5"></ellipse><path d="M388.978 320.654c-21.849 0-38.965-11.757-38.965-26.765 0-15.008 17.116-26.765 38.965-26.765 21.85 0 38.965 11.756 38.965 26.765 0 15.008-17.115 26.765-38.965 26.765zm0-42.509c-14.886 0-27.944 7.357-27.944 15.744s13.058 15.744 27.944 15.744 27.944-7.357 27.944-15.744-13.058-15.744-27.944-15.744z" style="" fill="#ab8d96" data-original="#ab8d96"></path><path d="M226.233 116.914a5.512 5.512 0 0 1-1.898-10.686l47.503-17.42a5.512 5.512 0 0 1 3.795 10.348l-47.502 17.42a5.5 5.5 0 0 1-1.898.338zM177.172 121.136c2.111 6.258-1.336 13.071-7.7 15.218-6.363 2.146-13.233-1.187-15.344-7.445-2.111-6.258 1.336-13.071 7.7-15.218 6.363-2.147 13.233 1.187 15.344 7.445zM314.745 68.253c5.375 3.838 7.004 10.77 3.638 15.483-3.365 4.713-10.451 5.422-15.826 1.584-5.375-3.838-7.004-10.77-3.638-15.483 3.366-4.713 10.451-5.423 15.826-1.584z" style="" fill="#5f5c5d" data-original="#5f5c5d"></path></g></svg>