<svg xmlns="http://www.w3.org/2000/svg" version="1.1" xmlns:xlink="http://www.w3.org/1999/xlink" width="512" height="512" x="0" y="0" viewBox="0 0 512 512" style="enable-background:new 0 0 512 512" xml:space="preserve" class=""><g><linearGradient id="b" x1="272.517" x2="272.517" y1="141.705" y2="386.729" gradientUnits="userSpaceOnUse"><stop offset="0" stop-color="#2a2428"></stop><stop offset="1" stop-color="#4d4449"></stop></linearGradient><linearGradient id="c" x1="278.139" x2="278.649" y1="345.49" y2="406.511" gradientUnits="userSpaceOnUse"><stop offset="0" stop-color="#f7bfa4"></stop><stop offset=".316" stop-color="#f7c2a7"></stop><stop offset=".561" stop-color="#f8cab1"></stop><stop offset=".782" stop-color="#fad7c1"></stop><stop offset=".988" stop-color="#fdebd8"></stop><stop offset="1" stop-color="#fdecda"></stop></linearGradient><linearGradient id="a"><stop offset="0" stop-color="#f7bfa4"></stop><stop offset=".289" stop-color="#f8c8af"></stop><stop offset=".796" stop-color="#fbe1cc"></stop><stop offset="1" stop-color="#fdecda"></stop></linearGradient><radialGradient xlink:href="#a" id="d" cx="263.667" cy="139.062" r="191.22" gradientTransform="matrix(.993 -.121 .098 .803 -23.295 57.912)" gradientUnits="userSpaceOnUse"></radialGradient><radialGradient id="e" cx="-2143.454" cy="-208.113" r="62.293" gradientTransform="matrix(-.605 -.43 -.324 .456 -1206.606 -530.862)" gradientUnits="userSpaceOnUse"><stop offset="0" stop-color="#f7bfa4"></stop><stop offset=".786" stop-color="#fdecda"></stop></radialGradient><radialGradient xlink:href="#a" id="f" cx="415.954" cy="239.38" r="46.176" gradientTransform="rotate(2.87 412.027 210.595)" gradientUnits="userSpaceOnUse"></radialGradient><radialGradient xlink:href="#a" id="g" cx="400.052" cy="284.826" r="38.131" gradientTransform="rotate(2.87 412.027 210.595)" gradientUnits="userSpaceOnUse"></radialGradient><linearGradient id="h" x1="273.449" x2="273.449" y1="-64.726" y2="194.895" gradientTransform="rotate(6.95 -764.793 157.796)" gradientUnits="userSpaceOnUse"><stop offset="0" stop-color="#4d4449"></stop><stop offset="1" stop-color="#795c58"></stop></linearGradient><radialGradient id="i" cx="313.381" cy="496.365" r="62.293" gradientTransform="matrix(.988 -.156 .087 .553 -19.308 88.956)" gradientUnits="userSpaceOnUse"><stop offset="0" stop-color="#f7bfa4"></stop><stop offset="1" stop-color="#fdecda"></stop></radialGradient><radialGradient xlink:href="#a" id="j" cx="137.338" cy="384.945" r="52.639" gradientTransform="translate(-1.578 -1.459)" gradientUnits="userSpaceOnUse"></radialGradient><radialGradient xlink:href="#a" id="k" cx="116.817" cy="409.022" r="58.904" gradientTransform="translate(-1.578 -1.459)" gradientUnits="userSpaceOnUse"></radialGradient><clipPath id="l"><path d="M257.703 263.609s4.324-58.932 54.739-38.084 42.21 75.452 30.904 84.982c-20.337 17.143-88.743 5.007-85.643-46.898z" fill="#000000" opacity="1" data-original="#000000"></path></clipPath><clipPath id="m"><path d="M202.837 256.149s1.713-53.838-37.288-39.12-37.485 64.953-29.922 74.543c13.604 17.251 65.177 11.937 67.21-35.423z" fill="#000000" opacity="1" data-original="#000000"></path></clipPath><path fill="url(#b)" d="M85.178 215.4s-4.23 63.046 21.754 101.115c-10.273-41.896-6.848-55.593-6.848-55.593s1.007 22.962 32.631 40.688c29.408 5.036 177.177 80.223 177.177 80.223s124.936-34.383 147.721-133.802c9.804-42.78-12.409-116.552-12.409-116.552l-239.17-26.662-34.645 8.057c-.001.001-72.514.404-86.211 102.526z" opacity="1" data-original="url(#b)"></path><path fill="#231f20" d="M309.892 382.333a.515.515 0 0 1-.227-.054c-1.478-.751-148.038-75.21-177.035-80.176a.487.487 0 0 1-.16-.057c-24.202-13.565-30.621-30.408-32.301-37.592-.402 6.28-.126 21.866 7.249 51.943a.502.502 0 0 1-.282.576.502.502 0 0 1-.617-.175C80.736 279.023 84.637 216 84.679 215.368l.003-.033c7.101-52.942 30.275-78.116 48.465-89.912 19.176-12.436 37.017-13.022 38.179-13.046l34.593-8.045a.53.53 0 0 1 .168-.01l239.171 26.662a.5.5 0 0 1 .423.353c.223.739 22.14 74.389 12.418 116.808-11.809 51.525-51.452 85.265-82.629 104.496-33.753 20.82-65.134 29.589-65.446 29.675a.537.537 0 0 1-.132.017zm-177.008-81.201c28.887 5.041 171.206 77.194 177.059 80.167 2.639-.754 32.74-9.605 65.024-29.524 31.006-19.13 70.429-52.676 82.157-103.855 9.338-40.745-10.748-110.667-12.308-115.98l-238.755-26.615-34.562 8.038a.453.453 0 0 1-.11.013c-.18.001-18.252.257-37.748 12.917-17.992 11.685-40.919 36.64-47.967 89.158-.082 1.28-3.622 60.903 20.095 98.388-9.366-39.363-6.31-52.485-6.172-53.037a.506.506 0 0 1 .535-.376.501.501 0 0 1 .45.475c.011.226 1.389 22.87 32.302 40.231z" opacity="1" data-original="#231f20"></path><path fill="#ffde17" d="M408.027 491.17h-253.48c0-60.17 21.66-68.43 59.88-88.7v-.01c4.11-2.17 8.41-4.49 12.89-7.03 25.72-14.56 66.76-16.83 90.21-4.24 2.85 1.52 5.69 3.08 8.54 4.65a762.126 762.126 0 0 1 32.17 18.73c18.64 11.49 27.83 21.2 36.51 36.77 8.5 15.26 11.75 29.11 13.28 39.83z" opacity="1" data-original="#ffde17" class=""></path><path fill="#231f20" d="M409.757 492.67h-256.71v-1.5c0-58.096 20.749-69.012 55.125-87.096 1.555-.818 3.14-1.652 4.755-2.507v-.001l.8-.432a482.324 482.324 0 0 0 12.851-7.008c26.729-15.131 67.845-17.041 91.66-4.257a714.756 714.756 0 0 1 8.507 4.632 758.964 758.964 0 0 1 32.281 18.793c18.257 11.254 27.947 21.019 37.033 37.316 6.962 12.5 11.363 25.698 13.455 40.349zm-253.705-3h250.234c-2.13-13.599-6.341-25.916-12.85-37.6-8.804-15.792-18.221-25.272-35.986-36.223-10.327-6.364-20.78-12.453-31.956-18.613-.027-.016-.041-.022-.009-.011l-.142-.069a708.257 708.257 0 0 0-8.522-4.64c-22.623-12.146-63.27-10.212-88.765 4.222a476.247 476.247 0 0 1-12.225 6.679l-.701.38c-1.895 1.005-3.748 1.98-5.561 2.934-34.201 17.993-53.179 27.98-53.517 82.941zm169.454-92.439h.002z" opacity="1" data-original="#231f20"></path><path fill="url(#c)" d="m310.962 353.616-5.489 38.011c-.775 5.367-3.268 10.366-7.204 14.094-5.854 5.545-15.797 11.94-29.701 10.535-23.752-2.399-22.806-26.533-22.806-26.533l4.441-33.959z" opacity="1" data-original="url(#c)"></path><path fill="#231f20" d="m306.958 391.841 5.742-39.761a.023.023 0 0 0-.023-.026l-63.777 2.255c-.011 0-.02.009-.022.02l-4.411 33.734a1.5 1.5 0 0 0 2.975.39l4.082-31.216c.001-.011.011-.019.022-.02l57.649-2.038c.014 0 .025.012.023.026l-5.228 36.207a19.8 19.8 0 0 1-.169.984 1.477 1.477 0 0 0 1.039 1.72l.028.008c.818.227 1.67-.266 1.852-1.095.086-.397.161-.793.218-1.188z" opacity="1" data-original="#231f20"></path><path fill="#ffffff" d="M240.504 398.381s34.124-5.971 53.911-3.82c19.786 2.152-43.911 46.137-43.911 46.137s-10.147-24.56-10-42.317z" opacity="1" data-original="#ffffff"></path><path fill="#231f20" d="M250.504 442.199a1.498 1.498 0 0 1-1.386-.928c-.419-1.014-10.261-25.047-10.113-42.902a1.5 1.5 0 0 1 1.241-1.465c1.402-.245 34.558-5.987 54.332-3.833 3.545.385 4.688 2.04 5.021 3.36.737 2.914-.89 8.883-23.446 27-12.108 9.726-24.67 18.416-24.796 18.503a1.51 1.51 0 0 1-.853.265zm-8.493-42.549c.271 14.406 6.998 33.025 9.193 38.736 20.25-14.134 46.908-35.603 45.486-41.219-.192-.76-1.609-1.024-2.438-1.114-17.239-1.876-45.933 2.562-52.241 3.597z" opacity="1" data-original="#231f20"></path><path fill="#231f20" d="M253.273 407.047a1.5 1.5 0 0 1-.146-2.993c1.038-.102 25.566-2.498 37.412-1.232.824.088 1.42.827 1.332 1.651s-.846 1.409-1.65 1.333c-11.549-1.234-36.547 1.209-36.798 1.234a1.927 1.927 0 0 1-.15.007z" opacity="1" data-original="#231f20"></path><path fill="#fbb040" d="M251.694 438.144s-6.242-26.376-4.052-46.464-14.643-4.048-16.871.997-2.151 17.492 2.713 29.231 15.79 21.429 15.79 21.429z" opacity="1" data-original="#fbb040"></path><path fill="#231f20" d="M249.274 444.838c-.363 0-.718-.132-.995-.378-.457-.405-11.241-10.056-16.181-21.977-4.888-11.796-5.21-24.726-2.699-30.411 1.514-3.427 10.291-13.097 15.978-11.574 3.22.864 4.483 4.681 3.757 11.345-2.137 19.593 3.958 45.695 4.02 45.956.078.328.042.673-.1.979l-2.419 5.194a1.497 1.497 0 0 1-1.361.866zm-5.261-61.515c-3.54 0-10.476 6.805-11.87 9.961-1.851 4.191-2.265 16.004 2.727 28.051 3.627 8.755 10.825 16.431 13.924 19.481l1.322-2.837c-.882-3.878-6.017-27.646-3.965-46.461.519-4.758-.047-7.718-1.552-8.123a2.295 2.295 0 0 0-.586-.072z" opacity="1" data-original="#231f20"></path><path fill="#ffde17" d="M235.038 383.865s-3.381 21.11 4.638 38.037 11.563 18.242 8.285 21.438-38.657-11.957-44.668-21.653c-6.011-9.695-3.144-14.422-.72-16.531 2.423-2.109 13.974-4.611 13.974-4.611s3.874-16.983 18.491-16.68z" opacity="1" data-original="#ffde17" class=""></path><path fill="#231f20" d="M246.257 445.273c-.426 0-.895-.032-1.409-.095-9.274-1.134-37.243-13.688-42.831-22.7-6.597-10.641-3.101-16.129-.431-18.453 2.31-2.01 10.603-4.035 13.756-4.75 1.126-3.714 6.163-17.167 19.726-16.91a1.499 1.499 0 0 1 1.451 1.736c-.033.207-3.207 20.864 4.512 37.159 2.826 5.965 5.064 9.927 6.698 12.819 2.984 5.283 4.219 7.469 1.278 10.335-.592.578-1.482.859-2.75.859zm-12.937-59.858c-11.831.979-15.17 14.849-15.312 15.465a1.502 1.502 0 0 1-1.144 1.13c-4.321.937-11.754 2.926-13.307 4.277-4.32 3.759-1.834 10.02 1.011 14.609 5.92 9.549 38.665 22.837 42.406 21.31 1.108-1.082 1.172-1.29-1.857-6.652-1.656-2.932-3.925-6.947-6.797-13.01-6.855-14.47-5.633-31.6-5-37.129z" opacity="1" data-original="#231f20"></path><path fill="#231f20" d="M215.093 414.121a1.5 1.5 0 0 1-1.497-1.612c.028-.377.707-9.286 1.846-13.573a1.501 1.501 0 0 1 2.899.771c-1.068 4.019-1.747 12.938-1.754 13.027a1.5 1.5 0 0 1-1.494 1.387z" opacity="1" data-original="#231f20"></path><path fill="#fbb040" d="M247.695 438.83s24.815-32.879 52.373-47.547 35.05-12.294 39.484-4.64 9.887 13.606 9.887 13.606l-91.152 40.441z" opacity="1" data-original="#fbb040"></path><path fill="#231f20" d="M258.287 442.19c-.087 0-.174-.007-.26-.022l-10.592-1.861a1.5 1.5 0 0 1-.938-2.382c.25-.331 25.333-33.312 52.865-47.968 28.03-14.919 36.437-12.788 41.487-4.067 4.295 7.414 9.643 13.286 9.696 13.345a1.499 1.499 0 0 1-.498 2.384l-91.152 40.442a1.485 1.485 0 0 1-.608.129zm-7.868-4.405 7.677 1.349 88.877-39.432c-1.925-2.281-5.554-6.843-8.72-12.307-3.439-5.937-8.89-10.007-37.481 5.212-23.105 12.298-44.558 37.926-50.353 45.178z" opacity="1" data-original="#231f20"></path><path fill="#ffde17" d="M248.808 444.616s-2.898-3.508-1.113-5.786c1.785-2.277 35.377-24.55 65.324-33.775s45.098-7.539 48.336-3.798 2.073 8.189 3.799 10.74 9.972 7.874 5.952 14.1c-.311.481-1.865.327-1.865.327s-28.625-1.484-67.594 7.921-47.13 16.647-52.839 10.271z" opacity="1" data-original="#ffde17" class=""></path><path fill="#231f20" d="M254.237 448.551c-2.729 0-4.706-.878-6.547-2.935l-.039-.045c-1.361-1.649-3.133-5.119-1.137-7.667 2.312-2.95 36.438-25.157 66.064-34.283 30.773-9.48 46.119-7.728 49.911-3.346 2.178 2.516 2.618 5.294 2.972 7.527.219 1.381.408 2.574.936 3.354.302.445.99 1.132 1.719 1.86 3.007 3.002 8.039 8.028 4.251 13.894-.668 1.034-2.152 1.116-3.273 1.005-.215-.008-28.813-1.352-67.094 7.886-14.212 3.43-24.319 6.574-31.699 8.869-7.586 2.36-12.475 3.881-16.064 3.881zm-4.288-4.909c2.854 3.162 6.411 2.224 19.46-1.835 7.419-2.308 17.579-5.468 31.887-8.92 38.73-9.347 67.736-7.975 68.023-7.961.256.023.534.026.735.013 1.902-3.401-.713-6.457-4.06-9.798-.869-.868-1.62-1.618-2.083-2.302-.901-1.333-1.15-2.903-1.414-4.566-.324-2.048-.66-4.166-2.276-6.034-1.931-2.229-14.094-5.812-46.761 4.25-29.758 9.167-62.568 30.923-64.594 33.276-.833 1.065.614 3.291 1.083 3.877z" opacity="1" data-original="#231f20"></path><circle cx="258.987" cy="439.825" r="6.085" fill="#ffffff" opacity="1" data-original="#ffffff"></circle><path fill="#231f20" d="M258.983 447.41c-4.01 0-7.369-3.156-7.572-7.205-.102-2.023.59-3.965 1.949-5.468s3.222-2.387 5.246-2.488c4.17-.206 7.745 3.017 7.956 7.195.21 4.177-3.017 7.747-7.194 7.957a8.275 8.275 0 0 1-.385.009zm.006-12.171a4.56 4.56 0 0 0-3.403 1.51 4.554 4.554 0 0 0-1.178 3.306 4.584 4.584 0 1 0 9.159-.461 4.593 4.593 0 0 0-4.578-4.355z" opacity="1" data-original="#231f20"></path><circle cx="239.07" cy="435.842" r="6.085" fill="#ffffff" opacity="1" data-original="#ffffff"></circle><path fill="#231f20" d="M239.065 443.427c-4.009 0-7.367-3.156-7.571-7.204-.21-4.177 3.017-7.746 7.195-7.957a7.587 7.587 0 0 1 7.956 7.194c.21 4.177-3.017 7.747-7.194 7.957-.129.006-.258.01-.386.01zm.008-12.171a4.59 4.59 0 0 0-4.582 4.816c.127 2.525 2.295 4.473 4.81 4.349a4.59 4.59 0 0 0 4.349-4.81 4.592 4.592 0 0 0-4.577-4.355zM283.365 499.783a4.003 4.003 0 0 1-3.969-2.656c-9.619-27.046-22.673-52.686-22.804-52.942a4 4 0 1 1 7.124-3.641c.133.26 13.418 26.348 23.218 53.902a4 4 0 0 1-3.569 5.337z" opacity="1" data-original="#231f20"></path><path fill="#ffffff" d="M283.265 497.786a2.013 2.013 0 0 1-1.984-1.328c-9.641-27.108-22.776-52.924-22.907-53.181a1.992 1.992 0 0 1-.122-1.527c.165-.508.517-.922.993-1.165.255-.131.526-.204.807-.218a2.005 2.005 0 0 1 1.884 1.088c.133.259 13.292 26.045 23.115 53.662a2.003 2.003 0 0 1-1.786 2.669z" opacity="1" data-original="#ffffff"></path><path fill="#231f20" d="M221.087 497.675a4.001 4.001 0 0 0 3.682-3.04c6.856-27.874 17.271-54.696 17.376-54.963a4 4 0 0 0-7.453-2.908c-.107.272-10.706 27.561-17.692 55.96a4 4 0 0 0 4.087 4.951z" opacity="1" data-original="#231f20"></path><path fill="#ffffff" d="M220.986 495.678a2.012 2.012 0 0 0 1.84-1.521c6.872-27.939 17.349-54.943 17.454-55.212.194-.498.183-1.042-.032-1.531s-.607-.866-1.104-1.059a1.985 1.985 0 0 0-.825-.136c-.787.04-1.48.539-1.765 1.272-.106.271-10.611 27.248-17.613 55.711a2.003 2.003 0 0 0 2.045 2.476z" opacity="1" data-original="#ffffff"></path><path fill="url(#a)" d="M271.44 386.899c-51.902 4.864-98.586-14.901-124.734-46.307-7.818-9.376-13.807-19.79-17.544-30.9a84.956 84.956 0 0 1-4.373-22.567c-.553-10.026.714-19.831 3.582-29.225 4.409-14.457 4.35-29.701 5.43-44.782 12.441-173.405 257.261-170.062 278.728-21.033 13.078 90.836-8.513 182.367-141.089 194.814z" opacity="1" data-original="url(#a)"></path><path fill="url(#e)" d="M130.729 270.93c-12.051 16.933-4.333 43.105 17.239 58.456s48.827 14.069 60.878-2.865c12.051-16.933 4.333-43.105-17.239-58.456s-48.827-14.069-60.878 2.865z" opacity="1" data-original="url(#e)"></path><path fill="#231f20" d="M247.448 388.923c-67.107-3.386-121.184-47.281-124.161-101.715-.547-10.005.68-20.013 3.646-29.745 3.463-11.364 4.148-23.516 4.811-35.268.17-3.011.345-6.125.565-9.187 2.908-40.555 18.873-74.553 46.17-98.318 24.13-21.007 56.426-33.256 90.937-34.489 34.012-1.216 67.038 8.232 92.996 26.601 28.662 20.282 46.504 49.697 51.597 85.066 7.008 48.663 2.894 89.166-12.226 120.384-18.589 38.38-53.912 62.806-104.988 72.596a1.5 1.5 0 1 1-.565-2.947c91.766-17.591 130.394-81.384 114.809-189.607C399.803 114.263 329.8 81.047 269.523 83.197c-62.329 2.228-128.003 43.296-134.222 130.024a601.854 601.854 0 0 0-.562 9.141c-.672 11.93-1.368 24.265-4.936 35.974-2.863 9.395-4.048 19.054-3.521 28.707 2.969 54.29 58.525 97.79 126.494 99.061.822.036 1.487.7 1.472 1.527a1.5 1.5 0 0 1-1.527 1.472 161.252 161.252 0 0 1-5.273-.18z" opacity="1" data-original="#231f20"></path><path fill="url(#a)" d="M435.181 256.192c-30.391-20.866-49.139 11.228-49.139 11.228-2.501 2.796-7.225 8.849-9.291 17.93-2.572 11.305.529 20.469 1.896 23.915 1.046 2.836 3.572 8.665 9.509 13.01 4.561 3.338 11.14 5.876 20.496 5.377 35.089-1.296 56.92-50.594 26.529-71.46z" opacity="1" data-original="url(#a)"></path><path fill="#231f20" d="M404.249 329.165c-21.744-1.097-26.995-19.306-27.049-19.502a1.5 1.5 0 1 1 2.893-.793c.21.754 5.436 18.511 28.479 17.285 19.987-.739 33.664-16.879 37.924-31.563 4.364-15.045-.183-28.938-12.164-37.164-8.555-5.873-16.942-7.949-24.929-6.167-13.813 3.08-21.985 16.778-22.066 16.916a1.5 1.5 0 0 1-2.589-1.515c.355-.608 8.881-14.945 23.979-18.325 8.841-1.978 18.028.247 27.304 6.617 13.1 8.994 18.09 24.125 13.347 40.473-5.563 19.177-22.287 33.044-40.67 33.724a42.887 42.887 0 0 1-4.459.014z" opacity="1" data-original="#231f20"></path><path fill="url(#a)" d="M402.619 279.327c-.964 4.078.033 6.233-1.66 9.646-1.137 2.292-4.212 5.396-10.615 6.479-3.231 24.092 20.952 25.045 32.729 17.61 8.892-5.615 12.699-19.024 12.223-29.444-.155-1.649-.531-5.95-3.282-9.262-2.773-3.339-5.617-4.526-8.198-5.356-3.489-1.122-10.538-2.404-15.433.819-4.165 2.741-5.414 8.026-5.764 9.508z" opacity="1" data-original="url(#a)"></path><path fill="#231f20" d="m390.278 296.323-.034-.002a1 1 0 0 1 .124-1.997c.073.016 4.444.206 7.664-2.96 2.6-2.555 3.806-6.591 3.586-11.997-.174-4.28 1.728-7.878 5.357-10.132 5.453-3.387 14.092-3.288 20.541.236 5.57 3.043 8.687 8.061 8.778 14.131a1 1 0 0 1-2 .03c-.08-5.317-2.828-9.723-7.737-12.406-5.856-3.198-13.647-3.321-18.526-.292-2.115 1.314-4.598 3.829-4.413 8.352.244 6.008-1.171 10.559-4.206 13.526-3.764 3.681-8.641 3.536-9.134 3.511z" opacity="1" data-original="#231f20"></path><path fill="url(#h)" d="M363.101 231.394s11.799 25.204 41.159 43.44c-97.566-2.554-126.484-88.71-126.484-88.71s29.609 62.096 50.578 74.484c-84.187-8.731-94.047-60.63-94.047-60.63s10.777 39.752 30.153 60.676c-37.593.638-63.387-45.456-63.387-45.456s-1.905 29.98 8.053 51.989c-37.261-25.57-48.037-63.28-32.274-148.285-23.906 33.748-35.675 106.238-31.906 124.153-15.531-15.876-12.685-38.312-12.685-38.312s-3.392 36.114 7.866 67.815c-9.376-8.443-16.15-31.18-16.15-31.18s1.216 32.835 11.506 58.228C90.277 255.859 108.55 177.72 108.55 177.72c-21.605 29.075-21.544 63.255-21.544 63.255-6.22-50.776 12.393-98.043 12.393-98.043-12.905 6.358-28.975 6.141-28.975 6.141 14.65-4.413 38.985-37.614 70.272-70.961s66.798-36.219 66.798-36.219-12.74-15.413-31.283-12.587c0 0 39.56-23.986 39.206 11.072l5.761-26.045 16.106 1.955-16.798 22.105s91.537-33.465 164.675 18.87 75.799 143.662 101.133 155.28c0 0-30.39-1.583-41.008-37.54 5.284 23.795 12.085 70.803-23.275 120.372 8.201-21.663 5.437-35.618 5.437-35.618s-2.561 17.023-15.856 29.649c7.384-24.115 8.825-43.131 8.825-43.131l-12.768 27.671c0-.002-26.096-14.776-44.548-42.552z" opacity="1" data-original="url(#h)"></path><path fill="#231f20" d="M135.485 301.771a2.163 2.163 0 0 1-1.507-.61c-18.891-18.279-29.637-45.531-31.078-78.809-.615-14.21.55-26.577 1.706-34.758-15.259 25.927-15.434 53.078-15.434 53.379a2.169 2.169 0 0 1-2.034 2.165 2.157 2.157 0 0 1-2.283-1.898c-5.08-41.473 6.391-81.042 10.851-94.368-12.063 4.486-24.715 4.377-25.312 4.369a2.166 2.166 0 0 1-.595-4.24c9.583-2.886 24.899-20.376 42.634-40.628 8.018-9.156 17.105-19.533 26.682-29.741 25.362-27.033 53.141-34.376 63.774-36.273-4.591-4.07-14.214-10.757-26.353-8.909a2.172 2.172 0 0 1-2.363-1.402 2.167 2.167 0 0 1 .914-2.592c.894-.542 22.035-13.195 34.3-6.206 2.877 1.639 5.003 4.167 6.369 7.561l3.305-14.942a2.174 2.174 0 0 1 2.376-1.683l16.106 1.955a2.167 2.167 0 0 1 1.464 3.461L226.356 34.25c9.061-2.637 26.734-6.947 48.918-8.21 29.563-1.682 72.853 2.059 111.147 29.462 45.439 32.515 63.877 79.622 77.339 114.019 8.076 20.636 14.456 36.936 23.437 41.054a2.167 2.167 0 0 1-1.016 4.132c-.265-.014-22.079-1.441-35.771-22.957 4.858 38.588-3.923 73.043-26.636 104.883a2.166 2.166 0 0 1-3.79-2.026c3.119-8.238 4.606-15.346 5.264-20.929-2.494 5.461-6.334 11.761-12.164 17.297a2.167 2.167 0 0 1-3.564-2.206 236.64 236.64 0 0 0 6.784-28.414l-6.688 14.496a2.163 2.163 0 0 1-3.034.977l-.315-.182a2.175 2.175 0 0 1-2.063 1.351c-43.941-1.15-73.897-19.328-92.89-37.272 6.206 8.57 12.528 15.698 18.143 19.015a2.167 2.167 0 0 1-1.325 4.02c-44.161-4.58-67.858-21.167-79.962-34.274a79.359 79.359 0 0 1-2.187-2.468c4.949 11.403 11.714 24.142 20.068 33.162a2.165 2.165 0 0 1-1.553 3.637c-.275.005-.55.007-.823.007-29.853.001-51.947-27.571-60.564-40.314.095 10.103 1.274 28.937 7.991 43.781a2.165 2.165 0 0 1-3.199 2.679c-37.694-25.868-47.604-64.194-35.124-139.407-20.018 36.429-28.878 97.982-25.709 113.043a2.167 2.167 0 0 1-3.668 1.96c-4.096-4.187-6.975-8.78-8.989-13.316.798 12.112 2.875 26.824 7.76 40.579a2.166 2.166 0 0 1-3.491 2.335c-4.439-3.998-8.265-10.859-11.138-17.223 1.45 11.692 4.332 27.981 9.951 41.847a2.167 2.167 0 0 1-.796 2.609 2.162 2.162 0 0 1-1.214.374zm-26.934-126.217a2.166 2.166 0 0 1 2.109 2.659c-.169.725-15.484 68.732 19.244 112.049-7.057-23.117-8.046-47.625-8.09-48.806a2.166 2.166 0 0 1 4.241-.698c.046.156 3.375 11.192 8.431 20.458-5.855-23.695-5.036-46.819-4.562-54.254.062-1.433.168-2.318.19-2.492a2.166 2.166 0 0 1 4.305.474c-.004.047-.064.718-.139 1.919-.208 4.767.046 17.891 7.838 29.327-.288-11.713 2.032-30.576 6.289-49.745 3.762-16.939 12.231-48.401 26.678-68.796a2.168 2.168 0 0 1 3.898 1.648c-7.854 42.355-9.051 72.716-3.767 95.547 4.49 19.398 13.6 33.901 29.195 46.193-6.983-20.967-5.571-44.858-5.5-45.977a2.167 2.167 0 0 1 4.053-.922c.24.429 23.351 40.97 56.606 44.157-13.904-17.259-22.773-42.781-25.999-53.161-1.007-2.81-1.354-4.559-1.392-4.753a2.166 2.166 0 0 1 4.219-.971c.021.077.453 1.648 1.277 4.277 1.744 4.817 5.676 13.263 13.879 22.079 10.878 11.69 31.577 26.299 69.244 31.725-10.193-9.502-21.243-26.703-29.845-41.738-10.696-15.674-15.001-28.257-15.23-28.941a2.166 2.166 0 0 1 4.009-1.622c.135.282 6.359 13.26 15.004 28.381a145 145 0 0 0 11.431 14.64c16.497 18.517 45.31 40.645 90.353 44.06-24.756-17.707-34.926-38.989-35.38-39.959a2.166 2.166 0 0 1 3.766-2.117c14.998 22.578 35.381 36.575 41.796 40.634l11.749-25.463a2.166 2.166 0 0 1 4.127 1.071c-.013.167-1.157 14.641-6.228 34.106 7.261-10.378 8.937-20.979 8.956-21.11a2.168 2.168 0 0 1 2.093-1.844h.051c1.031 0 1.923.729 2.124 1.746.089.451 1.646 8.729-1.231 22.285 18.697-32.042 23.542-66.915 14.829-106.147a2.167 2.167 0 0 1 4.192-1.083c6.571 22.25 21.072 30.781 30.435 34.027-6.482-7.705-11.617-20.826-18.072-37.317-13.264-33.892-31.431-80.308-75.825-112.074-37.267-26.667-79.504-30.304-108.38-28.66-31.344 1.786-54.064 9.98-54.29 10.062a2.168 2.168 0 0 1-2.469-3.346l14.513-19.099-10.406-1.263-5.336 24.125a2.166 2.166 0 0 1-4.281-.489c.079-7.863-1.94-13.025-6.004-15.343-5.914-3.374-15.15-.694-21.796 2.109 14.169 2.047 23.257 12.838 23.714 13.391a2.167 2.167 0 0 1-1.495 3.539c-.346.029-35.097 3.25-65.393 35.542-9.526 10.153-18.588 20.501-26.583 29.631-14.151 16.16-26.078 29.779-35.699 36.978 5.432-.729 12.347-2.208 18.448-5.214a2.166 2.166 0 0 1 2.973 2.737c-.155.396-13.143 33.958-13.496 74.29 2.85-12.12 8.336-27.382 18.892-41.587a2.155 2.155 0 0 1 1.737-.875z" opacity="1" data-original="#231f20"></path><path fill="url(#i)" d="M397.304 304.365c3.238 20.53-22.698 41.677-57.93 47.234s-66.418-6.58-69.656-27.11 22.698-41.677 57.93-47.234 66.418 6.58 69.656 27.11z" opacity="1" data-original="url(#i)"></path><path fill="url(#a)" d="M144.502 349.509s-1.307-12.062 14.251-8.846c15.559 3.217 28.088 28.702 22.869 33.63s-15.778 5.909-21.558 1.694c-5.781-4.213-15.23-12.775-15.562-26.478z" opacity="1" data-original="url(#a)"></path><path fill="#231f20" d="M169.333 380.127c-3.77 0-7.445-.953-10.153-2.927-10.311-7.517-15.904-17.061-16.176-27.603-.057-.665-.321-5.302 3.068-8.38 2.801-2.544 7.17-3.226 12.985-2.022 12.305 2.544 21.876 17.256 24.47 26.398 1.312 4.626 1.01 8.012-.875 9.791-3.295 3.112-8.387 4.743-13.319 4.743zm-15.424-38.514c-2.521 0-4.463.604-5.801 1.809-2.454 2.209-2.117 5.895-2.114 5.932l.008.119c.235 9.731 5.264 18.245 14.946 25.303 5.119 3.731 14.851 2.953 19.645-1.573.753-.711 1.161-2.868.048-6.791-2.488-8.77-11.584-22.086-22.191-24.28-1.677-.346-3.192-.519-4.541-.519z" opacity="1" data-original="#231f20"></path><path fill="#ffde17" d="M129.354 412.477s-2.29 73.586 7.667 78.693h53s-5.077-72.177-23.954-103.459c-15.135-25.081-36.713 24.766-36.713 24.766z" opacity="1" data-original="#ffde17" class=""></path><path fill="#231f20" d="M190.021 492.67h-53c-.238 0-.473-.057-.685-.166-10.281-5.272-8.87-67.627-8.482-80.074.006-.189.048-.375.123-.549.562-1.297 13.908-31.772 27.743-32.704 4.423-.291 8.345 2.312 11.632 7.758 18.847 31.231 23.958 101.167 24.166 104.128.029.416-.115.824-.399 1.128a1.492 1.492 0 0 1-1.098.479zm-52.587-3h50.965c-.892-10.803-6.691-73.138-23.616-101.184-2.659-4.406-5.638-6.528-8.862-6.315-9.88.665-21.332 22.089-25.078 30.641-.844 27.719.216 72.374 6.591 76.858z" opacity="1" data-original="#231f20"></path><path fill="url(#a)" d="M161.706 365.18s-2.036-19.958-19.392-22.514-30.082 8.291-39.168 30.253c-9.085 21.962 29.164 42.042 29.164 42.042 2.383.742 11.135 3.154 20.837-.997 11.786-5.043 15.866-15.875 16.526-17.719 1.224-1.879 2.924-6.958 2.571-13.307-.635-11.407-9.606-17.208-10.538-17.758z" opacity="1" data-original="url(#a)"></path><path fill="#231f20" d="M130.715 416.469a1.485 1.485 0 0 1-.701-.172c-1.611-.846-39.352-20.981-29.853-43.944 9.616-23.246 23.333-33.729 40.772-31.164 16.092 2.37 19.847 18.847 20.533 22.933 2.146.955 7.669 3.949 10.351 10.394 2.582 6.207 1.778 13.739-2.391 22.388a1.499 1.499 0 1 1-2.702-1.302c3.772-7.826 4.559-14.52 2.338-19.897-2.76-6.683-9.382-9.078-9.448-9.101a1.508 1.508 0 0 1-.998-1.263c-.08-.768-2.145-18.832-18.119-21.184-16.121-2.379-28.413 7.223-37.563 29.343-8.457 20.443 28.105 39.946 28.476 40.141a1.5 1.5 0 0 1-.695 2.828z" opacity="1" data-original="#231f20"></path><path fill="#ffffff" d="M253.828 263.011s4.688-63.895 59.349-41.292 45.765 81.806 33.507 92.139c-22.05 18.588-96.217 5.43-92.856-50.847z" opacity="1" data-original="#ffffff"></path><g clip-path="url(#l)"><path fill="#231f20" d="M330.134 310.12c-2.237 5.512-5.301 10.021-8.89 13.651-12.069 12.037-30.338 13.143-46.196.907-13.307-10.238-21.649-27.337-23.159-44.622-.873-9.399.297-18.879 3.738-27.306 9.835-23.887 34.448-30.414 55.033-14.557 20.584 15.856 29.31 48.041 19.474 71.927z" opacity="1" data-original="#231f20"></path><path fill="#231f20" d="M324.903 306.111c-1.666 4.109-3.858 7.708-6.49 10.669-5.609 6.476-13.126 10.173-21.406 10.218-6.862.067-13.753-2.388-19.936-7.175-12.104-9.3-19.329-25.467-19.857-41.563-.294-7.444.865-14.81 3.646-21.492 5.347-13.002 15.753-20.827 27.859-20.943 6.862-.067 13.751 2.428 19.973 7.232 17.644 13.568 24.928 41.85 16.211 63.054z" opacity="1" data-original="#231f20"></path><path fill="#a2eeff" d="M318.413 316.78c-5.609 6.476-13.126 10.173-21.406 10.218-6.862.067-13.753-2.388-19.936-7.175-12.104-9.3-19.329-25.467-19.857-41.563 8.216-1.922 18.232-.453 28.685 4.861 14.258 7.247 26.069 20.002 32.514 33.659z" opacity="1" data-original="#a2eeff"></path><ellipse cx="292.87" cy="281.43" fill="#231f20" rx="15.082" ry="19.733" transform="rotate(-15.63 293.24 281.951)" opacity="1" data-original="#231f20"></ellipse><g fill="#fff"><ellipse cx="282.831" cy="250.15" rx="19.371" ry="15.646" transform="rotate(-17.33 282.666 250.017)" fill="#ffffff" opacity="1" data-original="#ffffff"></ellipse><ellipse cx="302.601" cy="309.093" rx="19.371" ry="15.646" transform="rotate(-17.33 302.427 308.928)" fill="#ffffff" opacity="1" data-original="#ffffff"></ellipse><circle cx="314.154" cy="268.842" r="13.538" fill="#ffffff" opacity="1" data-original="#ffffff"></circle><circle cx="320.952" cy="283.517" r="8.817" fill="#ffffff" opacity="1" data-original="#ffffff"></circle></g></g><path fill="#231f20" d="M356.472 260.417a95.956 95.956 0 0 0-.85-6.112c4.3 1.306 13.103 3.265 17.644-.829-6.941.329-15.807-6.803-20.64-11.259-5.2-15.795-15.917-31.364-36.848-39.598-7.317-2.879-13.836-4.197-19.691-4.529-5.679-3.483-13.521-8.904-16.67-13.969.388 7.332 2.696 11.959 4.89 14.75-19.385 3.973-27.823 19.838-27.823 19.838l11.608.015-1.758 10.417s28.661-18.058 54.255-3.93 33.188 40.5 35.725 58.223c.479-3.673.819-8.514.717-14.015 2.689 2.571 10.048 8.396 17.32 3.326-8.516.681-14.483-6.529-17.879-12.328z" opacity="1" data-original="#231f20"></path><circle cx="283.75" cy="287.679" r="8.817" fill="#ffffff" opacity="1" data-original="#ffffff"></circle><path fill="#61daff" d="M331.609 324.256c-.309-.24-13.524 1.219-11.522-8.05s17.287-3.321 21.111-8.289 7.142-13.946 13.191-10.324c6.05 3.623 2.451 12.593 1.537 14.643s-2.445 10.308 4.271 12.028 11.396 7.687 11.106 12.675c0 0-1.267 15.518-21.331 29.906-1.634-13.392-11.003-13.647-16.561-18.409s5.573-18.446-1.802-24.18z" opacity="1" data-original="#61daff"></path><path fill="#ffffff" d="M205.751 255.93s1.858-58.372-40.428-42.414-40.642 70.423-32.442 80.82c14.749 18.704 70.666 12.942 72.87-38.406z" opacity="1" data-original="#ffffff"></path><g clip-path="url(#m)"><path fill="#231f20" d="M145.376 293.281c1.194 5.188 3.083 9.535 5.434 13.128 7.918 11.928 21.33 14.454 34.07 4.671 10.688-8.182 18.279-23.004 20.835-38.563 1.428-8.456 1.354-17.157-.488-25.09-5.28-22.495-22.929-30.469-39.465-17.795-16.535 12.675-25.666 41.154-20.386 63.649z" opacity="1" data-original="#231f20"></path><path fill="#231f20" d="M149.577 290.078c.889 3.868 2.209 7.316 3.908 10.223 3.606 6.344 8.855 10.325 14.971 11.055 5.066.632 10.365-1.021 15.334-4.85 9.721-7.431 16.409-21.499 18.139-36.063.838-6.731.594-13.512-.905-19.807-2.869-12.244-9.909-20.212-18.847-21.326-5.066-.632-10.367 1.058-15.365 4.899-14.172 10.844-21.912 35.901-17.235 55.869z" opacity="1" data-original="#231f20"></path><path fill="#a2eeff" d="M153.485 300.301c3.606 6.344 8.855 10.325 14.971 11.055 5.066.632 10.365-1.021 15.334-4.85 9.721-7.431 16.409-21.499 18.139-36.063-5.913-2.428-13.439-1.93-21.608 2.022-11.141 5.389-20.934 15.979-26.836 27.836z" opacity="1" data-original="#a2eeff"></path><ellipse cx="175.31" cy="270.35" fill="#231f20" rx="17.778" ry="11.345" transform="rotate(-76.77 175.275 270.22)" opacity="1" data-original="#231f20"></ellipse><g fill="#fff"><ellipse cx="185.337" cy="242.801" rx="13.326" ry="15.413" transform="rotate(-33.6 185.094 242.725)" fill="#ffffff" opacity="1" data-original="#ffffff"></ellipse><ellipse cx="165.813" cy="294.642" rx="13.326" ry="15.413" transform="rotate(-33.6 165.559 294.521)" fill="#ffffff" opacity="1" data-original="#ffffff"></ellipse><ellipse cx="160.627" cy="257.154" rx="12.342" ry="10.063" transform="rotate(-87.14 160.5 257.067)" fill="#ffffff" opacity="1" data-original="#ffffff"></ellipse><ellipse cx="154.38" cy="269.904" rx="8.038" ry="6.554" transform="rotate(-87.14 154.252 269.81)" fill="#ffffff" opacity="1" data-original="#ffffff"></ellipse></g></g><path fill="#231f20" d="M130.098 245.024c.325-1.795.699-3.624 1.137-5.476-3.287.827-9.957 1.871-12.973-2.223 5.103.877 12.25-4.856 16.194-8.498 5.159-13.9 14.378-27.135 30.535-32.863 5.648-2.003 10.577-2.656 14.932-2.47 4.488-2.688 10.736-6.953 13.485-11.287-.897 6.621-2.989 10.628-4.843 12.978 13.998 5.22 18.913 20.32 18.913 20.32l-8.581-.954.431 9.6s-19.681-18.774-39.775-8.086c-20.095 10.688-27.905 33.987-31.256 49.858-.048-3.373.104-7.794.637-12.778-2.202 2.109-8.126 6.782-13.079 1.576 6.238 1.329 11.25-4.717 14.243-9.697z" opacity="1" data-original="#231f20"></path><ellipse cx="181.579" cy="275.822" fill="#ffffff" rx="8.038" ry="6.554" transform="rotate(-87.14 181.438 275.73)" opacity="1" data-original="#ffffff"></ellipse><path fill="#61daff" d="M157.762 306.963c-6.808 6.398 5.559 18.978.466 24.241-3.266 3.379-8.261 5.053-11.522 9.388-7.818-9.376-13.807-19.79-17.544-30.9l.135-.047c6.525-2.344 4.234-10.427 3.13-12.378-1.103-1.951-5.523-10.551.155-14.726 5.689-4.166 9.829 4.457 14.104 9.045 4.274 4.588 18.935-2.763 21.796 6.278 2.862 9.041-10.432 8.822-10.72 9.099z" opacity="1" data-original="#61daff"></path><g fill="#231f20"><path d="M200.519 322.727c1.362-4.239 6.312-6.915 10.087-8.916 8.727-3.986 18.735-.789 26.631 3.754 3.112 2.051 8.417 5.61 8.709 9.424a3.702 3.702 0 0 0 2.187 4.757c4.34 1.265 6.608-3.641 3.52-6.692-8.485-13.322-27.738-21.346-42.749-15.099-5.46 2.156-8.764 6.533-13.147 10.189-4.695 4.098 3.883 8.759 4.762 2.583zM332.275 492.67a1.501 1.501 0 0 1-1.487-1.718c.207-1.407 5.292-34.606 24.671-47.394 7.414-4.892 15.95-6.112 25.366-3.625a1.499 1.499 0 0 1 1.067 1.833 1.497 1.497 0 0 1-1.833 1.067c-8.553-2.258-16.272-1.173-22.943 3.226-18.257 12.042-23.311 44.999-23.359 45.33a1.5 1.5 0 0 1-1.482 1.281zM275.624 153.02s-6.011.888-4.605 6.74c1.405 5.851 39.421 30.945 89.147 45.441 4.601.876 1.52-2.466-6.663-6.058-64.597-28.36-70.106-49.196-77.879-46.123zM204.873 149.509s5.891 1.489 3.903 7.169c-1.987 5.68-20.576 16.557-71.509 25.973-4.666.409-1.309-2.751 7.239-5.357 47.255-14.401 52.944-31.624 60.367-27.785z" fill="#231f20" opacity="1" data-original="#231f20"></path></g></g></svg>