<svg xmlns="http://www.w3.org/2000/svg" version="1.1" xmlns:xlink="http://www.w3.org/1999/xlink" width="512" height="512" x="0" y="0" viewBox="0 0 538.9 418.4" style="enable-background:new 0 0 512 512" xml:space="preserve" class=""><g><clipPath id="a"><path d="M374.8 329.5H0L4.4 2.9l374.8 5.4z" fill="#000000" opacity="1" data-original="#000000"></path></clipPath><g opacity=".5"><path fill="#8ae9ff" d="M325.5 383.1c-4.5 0-7.6 0-11.8.2-2 .1-1.8-3 0-3.3 45.1-5.7 73.6-16.2 73.6-28.2 0-18.1-69.3-32.9-154.9-32.9-85.5 0-154.9 14.7-154.9 32.9 0 18.1 69.3 32.9 154.9 32.9 21.1 0 41.2-1.6 59.5-2.5 3.8-.2 3.6 2.4 2.5 2.5-26.2 2.3-46.4 8.3-46.4 14.9 0 9.1 34.7 16.4 77.4 16.4s77.4-7.4 77.4-16.4c.1-9.2-34.5-16.5-77.3-16.5z" opacity="1" data-original="#8ae9ff"></path><path d="M325.5 418.4c-32.1 0-79.9-5-79.9-18.9 0-6.7 11.8-11 24-13.7-12 .7-24.3 1.3-37.1 1.3-76.3 0-157.3-12.4-157.3-35.3s81.1-35.3 157.3-35.3c76.3 0 157.3 12.4 157.3 35.3 0 16-37.8 24.7-63.3 28.8 32.1.1 78.9 5.2 78.9 18.9 0 13.8-47.8 18.9-79.9 18.9zm-33.1-38.7c3.9 0 5.2 2.4 5.3 3.8.1 1.8-1.2 3.4-2.9 3.5-31.2 2.8-44.2 9.5-44.2 12.5 0 5.7 29.2 14 75 14s75-8.3 75-14-29.2-14-75-14c-4.5 0-7.6 0-11.7.2-2.1 0-3.8-1.4-3.9-3.5-.2-2.3 1.4-4.3 3.6-4.6 52.8-6.7 71.5-18.1 71.5-25.8 0-14.4-62.6-30.4-152.4-30.4s-152.4 16-152.4 30.4 62.6 30.4 152.4 30.4c15.5 0 30.3-.9 44.6-1.7 5-.3 10-.6 14.8-.8h.3z" fill="#000000" opacity="1" data-original="#000000"></path></g><g opacity=".5"><ellipse cx="390.1" cy="316.5" fill="#8ae9ff" rx="41.3" ry="8.8" opacity="1" data-original="#8ae9ff"></ellipse><path d="M390.1 327.7c-1.8 0-43.8-.1-43.8-11.2s42-11.2 43.8-11.2 43.8.1 43.8 11.2c-.1 11.1-42.1 11.2-43.8 11.2zm-38.9-11.2c1.6 2.4 15.4 6.3 38.8 6.3s37.2-4 38.8-6.3c-1.6-2.4-15.4-6.3-38.8-6.3s-37.2 4-38.8 6.3z" fill="#000000" opacity="1" data-original="#000000"></path></g><circle cx="483.5" cy="151.1" r="16.6" fill="#a87c4f" opacity="1" data-original="#a87c4f"></circle><path d="M483.5 171.4c-11.2 0-20.2-9.1-20.2-20.2s9.1-20.2 20.2-20.2 20.2 9.1 20.2 20.2-9.1 20.2-20.2 20.2zm0-33.1c-7.1 0-12.9 5.8-12.9 12.9s5.8 12.9 12.9 12.9 12.9-5.8 12.9-12.9c-.1-7.2-5.8-12.9-12.9-12.9z" fill="#000000" opacity="1" data-original="#000000"></path><path fill="#a87c4f" d="m432 211.9 71.1 19.4-2.2 15.8-73.7-.1" opacity="1" data-original="#a87c4f"></path><path d="m500.9 250.7-73.7-.1c-2 0-3.7-1.6-3.7-3.7 0-2 1.6-3.7 3.7-3.7l70.5.1 1.3-9.4-68-18.6c-2-.5-3.1-2.6-2.6-4.5.5-2 2.6-3.1 4.5-2.6l71.1 19.4c1.8.5 2.9 2.2 2.7 4l-2.2 15.8c-.2 2-1.7 3.3-3.6 3.3z" fill="#000000" opacity="1" data-original="#000000"></path><path fill="#a87c4f" d="m360.9 150.5-2.5 83.5s12.7 8.1 37 12.5c0 0 51 1 67.4 0s28.9-36.4 28.9-36.4l5.7-19s-1.2-26-15.1-38.4c-15.5-13.8-41.8-20.8-61.1-20.4-43.6.8-60.3 18.2-60.3 18.2z" opacity="1" data-original="#a87c4f"></path><path d="M438 250.6c-19.4 0-41.2-.4-42.6-.4-.2 0-.4 0-.6-.1-24.8-4.5-37.8-12.7-38.3-13-1.1-.7-1.7-1.9-1.7-3.2l2.5-83.5c0-.9.4-1.8 1-2.4.7-.8 18.2-18.5 63-19.4 18.7-.4 46.6 6.2 63.6 21.3 14.9 13.3 16.3 39.9 16.3 41 0 .4 0 .8-.2 1.2l-5.7 19c-1.4 4-13.9 37.9-32.2 39-5.6.4-15 .5-25.1.5zm-42.2-7.8c4.2.1 51.4.9 66.8 0 11.4-.7 22.7-25.4 25.7-34l5.5-18.2c-.3-3.8-2.4-25-13.8-35.3-15.5-13.9-41.3-19.8-58.6-19.5-35.8.7-52.8 12.8-56.9 16.3l-2.3 79.7c4.1 2.3 15.6 7.7 33.6 11z" fill="#000000" opacity="1" data-original="#000000"></path><path fill="#a87c4f" d="m473.7 225.6 12.7 15.2c4.9 7 10.7 11.2 18.4 10.7l25.3.1c.8-.1 3.1-.1 3.4-2.3l1.8-11.1c0-1.2-1.7-2.3-2.5-2.4l-25.3-6.6-11.6-48.1" opacity="1" data-original="#a87c4f"></path><path d="m530 255.3-25.2-.1c-8.4.5-15.3-3.5-21.4-12.1L470.8 228c-1.3-1.6-1.1-3.9.5-5.2s3.9-1.1 5.2.5l12.7 15.2c.1.1.1.2.2.3 4.6 6.7 9.3 9.5 15.1 9.1h.3l25.1.1h.1l1.4-8.7-24.8-6.4c-1.3-.3-2.3-1.4-2.6-2.7l-11.6-48.1c-.5-2 .7-4 2.7-4.4 2-.5 4 .7 4.4 2.7l11.1 46 23.1 6c2.1.4 5.4 2.8 5.3 6.1v.5l-1.8 11.1c-.2 1.7-1.3 4.8-6.3 5.3-.3-.1-.7-.1-.9-.1z" fill="#000000" opacity="1" data-original="#000000"></path><g clip-path="url(#a)"><path fill="#a87c4f" d="M80.9 272.7c20 0 36.1 16.2 36.1 36.1 0 4.1-.7 8-1.9 11.7-1.7 4.9-6.8 7.6-13.1 7.6-6.6 7.1-10.7 16.8-21.1 16.8-11.6 0-14-17.6-24.7-17.6-5.4 0-8.5-3.5-9.8-7.6-1.1-3.4-1.7-7.1-1.7-10.9.1-19.9 16.3-36.1 36.2-36.1z" opacity="1" data-original="#a87c4f"></path><path d="M80.9 348.7c-7.7 0-12.2-5.8-15.8-10.5-3.4-4.4-5.7-7.1-8.9-7.1-6.4 0-11.3-3.7-13.3-10.2-1.2-3.9-1.8-7.9-1.8-12 0-22 17.9-39.8 39.8-39.8s39.8 17.9 39.8 39.8c0 4.4-.7 8.7-2.1 12.9-2 5.8-7.6 9.5-14.9 10-1.2 1.3-2.3 2.8-3.4 4.2-4.5 5.9-9.7 12.7-19.4 12.7zm0-72.3c-17.9 0-32.5 14.6-32.5 32.5 0 3.3.5 6.6 1.5 9.8 1.6 5.1 5.1 5.1 6.3 5.1 7.1 0 11.2 5.3 14.8 10s6.1 7.6 9.9 7.6c5.8 0 8.9-3.7 13.7-9.8 1.5-1.9 3-3.9 4.8-5.8.7-.7 1.7-1.2 2.7-1.2 4.8 0 8.5-2 9.6-5.1 1.2-3.4 1.7-6.9 1.7-10.5 0-18-14.6-32.6-32.5-32.6z" fill="#000000" opacity="1" data-original="#000000"></path><circle cx="80.9" cy="308.9" r="14.5" fill="#4a3723" opacity="1" data-original="#4a3723"></circle><path d="M80.9 324.5c-8.6 0-15.7-7-15.7-15.7 0-8.6 7-15.7 15.7-15.7s15.7 7 15.7 15.7-7 15.7-15.7 15.7zm0-28.9c-7.3 0-13.2 5.9-13.2 13.2S73.6 322 80.9 322s13.2-5.9 13.2-13.2c0-7.2-5.9-13.2-13.2-13.2z" fill="#000000" opacity="1" data-original="#000000"></path><circle cx="80.9" cy="81.1" r="36.1" fill="#a87c4f" opacity="1" data-original="#a87c4f"></circle><path d="M80.9 120.9c-22 0-39.8-17.9-39.8-39.8 0-22 17.9-39.8 39.8-39.8s39.8 17.9 39.8 39.8-17.8 39.8-39.8 39.8zm0-72.3c-17.9 0-32.5 14.6-32.5 32.5s14.6 32.5 32.5 32.5 32.5-14.6 32.5-32.5-14.6-32.5-32.5-32.5z" fill="#000000" opacity="1" data-original="#000000"></path><circle cx="80.9" cy="81.1" r="14.5" fill="#4a3723" opacity="1" data-original="#4a3723"></circle><path d="M80.9 96.8c-8.6 0-15.7-7-15.7-15.7s7-15.7 15.7-15.7 15.7 7 15.7 15.7-7 15.7-15.7 15.7zm0-29c-7.3 0-13.2 5.9-13.2 13.2s5.9 13.2 13.2 13.2S94.1 88.3 94.1 81c0-7.2-5.9-13.2-13.2-13.2z" fill="#000000" opacity="1" data-original="#000000"></path><path fill="#a87c4f" d="M232 41.9 190.2 48c-76.5 6.3-135.4 70.2-135.4 147s58.9 140.7 135.4 147l41.8 6c13.2 16.7 28.6 26.3 45.2 26.3 18.3 0 20.5-45.1 35.9-45.1s26.2-8 31.4-21.3c12.1-30.8 19.4-70.2 19.4-113 0-99-38.8-179.3-86.7-179.3-16.5 0-32 9.7-45.2 26.3z" opacity="1" data-original="#a87c4f"></path><path d="M277.2 378c-16.8 0-33.1-9.2-47.2-26.5l-40.4-5.8c-37.7-3.1-72.8-20.2-98.6-48.2s-40-64.4-40-102.4c0-38.1 14.2-74.4 40-102.4s60.9-45.1 98.8-48.2l40.2-5.8C244.2 21.1 260.4 12 277.2 12c24.7 0 47.6 19.4 64.6 54.6 16.6 34.4 25.8 80 25.8 128.4 0 41.5-7 82.1-19.6 114.3-6 15.2-18.4 23.6-34.9 23.6-4.9 0-9.1 10-12.9 18.8-5.1 12.3-11 26.3-23 26.3zm0-358.7c-14.8 0-29.5 8.6-42.3 24.9-.6.7-1.4 1.2-2.4 1.4l-41.9 6.1c-74.2 6-132.2 69-132.2 143.3s58 137.2 132 143.3l42.1 6.1c.9.1 1.8.6 2.4 1.4 12.9 16.3 27.5 24.9 42.3 24.9 7.1 0 11.8-11.1 16.3-21.7 5.1-12 9.8-23.3 19.6-23.3 13.5 0 23.2-6.5 28-18.9 12.3-31.4 19.1-71 19.1-111.6.1-97.1-37.2-175.9-83-175.9z" fill="#000000" opacity="1" data-original="#000000"></path></g><circle cx="279.7" cy="193.4" r="52.9" fill="#ffffff" opacity="1" data-original="#ffffff"></circle><path d="m253.1 178.4 15 15-15 15c-6.5 6.5-17.6 1.9-17.6-7.3v-15.4c-.1-9.2 11.1-13.8 17.6-7.3zM185 136.8c-1.4 0-2.7-.8-3.3-2.1-.8-1.8 0-4 1.8-4.9 5.3-2.4 11-7.5 14.1-12.6 4.4-7.2 6.5-14.3 5.8-18.9-.3-2 1-3.9 3-4.2s3.9 1 4.2 3c1.4 8.8-3.6 18.7-6.7 23.9-3.9 6.4-10.6 12.4-17.3 15.5-.6.2-1.1.3-1.6.3zM206.9 288.8h-.6c-2-.3-3.4-2.2-3-4.2.8-4.6-1.4-11.7-5.8-18.9-3.1-5.1-8.8-10.2-14.1-12.6-1.8-.8-2.7-3-1.8-4.9.8-1.8 3-2.7 4.9-1.8 6.6 3 13.4 9.1 17.3 15.5 3.1 5.2 8.2 15.1 6.7 23.9-.3 1.8-1.8 3-3.6 3z" fill="#000000" opacity="1" data-original="#000000"></path><path d="M301.9 232.5c-1.5 0-3-.6-4.2-1.7-2.5-2.3-2.6-6.2-.3-8.7.9-.9 1-1.3.6-2.1-.4-.3-1.3-.8-2.3-1-6.8-1.5-12-2.6-18.5-6.6-4.9-3.1-8.3-6.6-10.4-10.7-2.2-4.4-2.5-6.6-2.5-10.4s.4-6.1 2.5-10.4c2-4.1 5.4-7.6 10.4-10.7 6.4-4 11.7-5.1 18.3-6.6 1.2-.3 2.1-.7 2.5-1 .3-.8.2-1.2-.6-2.1-2.3-2.5-2.2-6.3.3-8.7 2.5-2.3 6.3-2.2 8.7.3 4.5 4.8 5.3 10.6 2.4 16.5-1.8 3.6-6.5 6.1-10.4 7-6.3 1.4-10 2.2-14.6 5-2.9 1.8-4.9 3.8-5.9 5.8-1.2 2.5-1.2 2.9-1.2 5 0 2 0 2.5 1.2 5 1 2 3 3.9 5.9 5.8 4.6 2.9 8.3 3.7 14.4 5 4 .9 8.8 3.4 10.6 7 2.9 5.8 2.1 11.7-2.4 16.5-1.3 1.2-2.9 1.8-4.5 1.8z" fill="#000000" opacity="1" data-original="#000000"></path><g opacity=".5"><path fill="#8ae9ff" d="M230.5 145.2h7.7v134.3h-7.7z" opacity="1" data-original="#8ae9ff"></path><path d="M238.2 282h-7.7c-1.4 0-2.5-1.1-2.5-2.5V145.2c0-1.4 1.1-2.5 2.5-2.5h7.7c1.4 0 2.5 1.1 2.5 2.5v134.3c0 1.4-1.1 2.5-2.5 2.5zm-5.3-4.9h2.8V147.7h-2.8z" fill="#000000" opacity="1" data-original="#000000"></path></g><path d="M38.1 216.2c-.2 0-.5 0-.7-.1-1.3-.4-2-1.8-1.6-3.1 1.2-4.1.1-10.3-1.7-13.3-.7-1.2-.3-2.7.8-3.4 1.2-.7 2.7-.3 3.4.8 2.4 4 3.9 11.6 2.2 17.2-.3 1.3-1.3 1.9-2.4 1.9zM39.2 164.2c-.7 0-1.4-.3-1.9-.9-.8-1.1-.7-2.6.4-3.4 3.8-3 5.4-7.5 5-13.3-.1-1.3.9-2.5 2.2-2.6 1.4-.2 2.5.9 2.7 2.2.8 9.4-3.2 14.8-6.8 17.6-.5.2-1.1.4-1.6.4zM43.3 50.5c-1.1 0-2-.7-2.4-1.8-.4-1.3.4-2.7 1.7-3 8-2.3 14-6.5 19.1-13.4.8-1.1 2.3-1.3 3.4-.5s1.3 2.3.5 3.4C60 42.9 53.1 47.8 44 50.4c-.2 0-.5.1-.7.1zM181.2 34.7c-2.4 0-5-.2-7.8-.5-1.3-.2-2.3-1.4-2.2-2.7.2-1.3 1.4-2.3 2.7-2.2 9.7 1.1 14.7.4 20.9-3.1 1.2-.7 2.7-.2 3.3.9.7 1.2.2 2.7-.9 3.3-5.5 3.2-10.4 4.3-16 4.3zM343.4 45.9c-.7 0-1.4-.3-1.9-.9-3-3.5-4.4-8.3-3.8-12.9.2-1.3 1.4-2.3 2.8-2.1 1.3.2 2.3 1.4 2.1 2.8-.4 3.2.6 6.6 2.7 9.1.9 1 .8 2.6-.3 3.5-.5.3-1 .5-1.6.5zM277.4 7.4c-3.2 0-6.4-.6-9.8-1.8-1.3-.5-1.9-1.9-1.5-3.2.5-1.3 1.9-1.9 3.1-1.5C275.4 3.2 281 3 285.9.2c1.2-.7 2.7-.2 3.3 1 .7 1.2.2 2.7-1 3.3-3.2 2-6.9 2.9-10.8 2.9z" fill="#000000" opacity="1" data-original="#000000"></path><path fill="#a87c4f" d="m365.2 202.2 13.7 14.2-13.9 17.8-4.3 10.9c-.2.8.2 1.7 1 2l8.2 4.4c.8.3 1.6 0 2-.8l5.3-7.6 25.5-17.1c5.1-3.4 6.4-10.3 3-15.4L395 182.2" opacity="1" data-original="#a87c4f"></path><path d="M370.5 255.3c-.7 0-1.3-.1-2-.4-.1 0-.2-.1-.3-.2l-8.1-4.3c-2.3-1.1-3.6-3.7-2.9-6.2 0-.2.1-.3.1-.5l4.3-10.9c.1-.3.3-.6.5-.9l11.9-15.3-11.5-11.9c-1.4-1.5-1.4-3.8.1-5.2s3.8-1.4 5.2.1l13.7 14.2c1.3 1.3 1.4 3.4.3 4.8L368.3 236l-3.4 8.6 5 2.6 4.4-6.3c.3-.4.6-.7 1-1l25.5-17.1c3.4-2.3 4.3-6.9 2-10.3-.2-.2-.3-.5-.4-.7l-10.8-28.4c-.7-1.9.2-4 2.1-4.7s4 .2 4.7 2.1l10.7 28c4.2 6.7 2.3 15.6-4.3 20.1l-25 16.7-4.8 6.9c-.9 1.8-2.7 2.8-4.5 2.8zM324.1 331.2H138.3c-2 0-3.7-1.6-3.7-3.7s1.6-3.7 3.7-3.7h185.8c2 0 3.7 1.6 3.7 3.7s-1.7 3.7-3.7 3.7zM105.8 331.2H54.9c-2 0-3.7-1.6-3.7-3.7s1.6-3.7 3.7-3.7h50.9c2 0 3.7 1.6 3.7 3.7s-1.7 3.7-3.7 3.7z" fill="#000000" opacity="1" data-original="#000000"></path><path fill="#5d5d5d" d="M368.8 118.1c1.9 4.8 5.8 4.8 9.7 4.8" opacity="1" data-original="#5d5d5d"></path><path d="M378.5 124.1c-4 0-8.6 0-10.8-5.6-.3-.6.1-1.3.7-1.6s1.3.1 1.6.7c1.5 3.9 4.3 4.1 8.5 4.1.7 0 1.2.5 1.2 1.2s-.5 1.2-1.2 1.2z" fill="#000000" opacity="1" data-original="#000000"></path><path fill="#5d5d5d" d="M508.1 180.9c3.9-3.9 1.9-8.7 3.9-12.6" opacity="1" data-original="#5d5d5d"></path><path d="M508.1 182.2c-.3 0-.6-.1-.9-.4-.5-.5-.5-1.3 0-1.7 2-2 2.2-4.3 2.4-6.8.2-1.8.3-3.7 1.2-5.4.3-.6 1-.9 1.6-.5.6.3.9 1 .5 1.6-.7 1.3-.8 2.9-1 4.6-.2 2.7-.5 5.7-3.1 8.3 0 .1-.3.3-.7.3z" fill="#000000" opacity="1" data-original="#000000"></path><path fill="#5d5d5d" d="M524.6 223.5c-4.8-2.9-7.7-6.8-7.7-12.6" opacity="1" data-original="#5d5d5d"></path><path d="M524.6 224.7c-.2 0-.4-.1-.6-.2-5.6-3.4-8.3-7.8-8.3-13.6 0-.7.5-1.2 1.2-1.2s1.2.5 1.2 1.2c0 4.9 2.3 8.6 7.1 11.5.6.3.8 1.1.4 1.7-.2.4-.6.6-1 .6zM479.2 126.1h-6.8c-.7 0-1.2-.5-1.2-1.2s.5-1.2 1.2-1.2h6.8c.7 0 1.2.5 1.2 1.2 0 .6-.5 1.2-1.2 1.2z" fill="#000000" opacity="1" data-original="#000000"></path><g opacity=".5"><path fill="#8ae9ff" d="M273.1 361.5c-17 0-31.2-12-34.7-28l-.2-68.6h-7.7v68.8c-3.5 16-17.7 28-34.7 28" opacity="1" data-original="#8ae9ff"></path><path d="M195.8 364.1c-1.4 0-2.5-1.1-2.5-2.5s1.1-2.5 2.5-2.5c15.4 0 28.9-10.8 32.2-25.8v-68.5c0-1.4 1.1-2.5 2.5-2.5h7.7c1.4 0 2.4 1.1 2.5 2.4l.2 68.3c3.4 14.9 16.9 25.8 32.2 25.8 1.4 0 2.5 1.1 2.5 2.5s-1.1 2.5-2.5 2.5c-17.7 0-33.3-12.6-37.1-29.9 0-.2-.1-.3-.1-.5l-.2-66.1h-2.8v66.3c0 .2 0 .3-.1.5-3.7 17.4-19.3 30-37 30z" fill="#000000" opacity="1" data-original="#000000"></path></g><path d="M233.2 294.4c-4.1 0-7.4-3.3-7.4-7.4v-42.1c0-4.1 3.3-7.4 7.4-7.4s7.4 3.3 7.4 7.4V287c0 4.1-3.3 7.4-7.4 7.4z" fill="#000000" opacity="1" data-original="#000000"></path><path d="M233.2 145.3c-4.1 0-7.4-3.3-7.4-7.4V95.8c0-4.1 3.3-7.4 7.4-7.4s7.4 3.3 7.4 7.4V138c0 4-3.3 7.3-7.4 7.3z" fill="#000000" opacity="1" data-original="#000000"></path></g></svg>