<svg xmlns="http://www.w3.org/2000/svg" version="1.1" xmlns:xlink="http://www.w3.org/1999/xlink" width="512" height="512" x="0" y="0" viewBox="0 0 512 512" style="enable-background:new 0 0 512 512" xml:space="preserve" class=""><g><linearGradient id="a"><stop offset="0" stop-color="#f4eccd"></stop><stop offset=".569" stop-color="#f4daa7"></stop><stop offset="1" stop-color="#d19c7d"></stop></linearGradient><linearGradient xlink:href="#a" id="c" x1="233.718" x2="233.718" y1="182.669" y2="447.85" gradientUnits="userSpaceOnUse"></linearGradient><linearGradient id="d" x1="257.602" x2="258.113" y1="345.49" y2="406.511" gradientUnits="userSpaceOnUse"><stop offset="0" stop-color="#f7bfa4"></stop><stop offset=".316" stop-color="#f7c2a7"></stop><stop offset=".561" stop-color="#f8cab1"></stop><stop offset=".782" stop-color="#fad7c1"></stop><stop offset=".988" stop-color="#fdebd8"></stop><stop offset="1" stop-color="#fdecda"></stop></linearGradient><linearGradient id="b"><stop offset="0" stop-color="#f7bfa4"></stop><stop offset=".289" stop-color="#f8c8af"></stop><stop offset=".796" stop-color="#fbe1cc"></stop><stop offset="1" stop-color="#fdecda"></stop></linearGradient><radialGradient xlink:href="#b" id="e" cx="243.28" cy="136.586" r="191.22" gradientTransform="matrix(.993 -.121 .098 .803 -23.352 57.443)" gradientUnits="userSpaceOnUse"></radialGradient><radialGradient id="f" cx="-2120.914" cy="-198.105" r="62.293" gradientTransform="matrix(-.605 -.43 -.324 .456 -1210.265 -525.722)" gradientUnits="userSpaceOnUse"><stop offset="0" stop-color="#f7bfa4"></stop><stop offset=".786" stop-color="#fdecda"></stop></radialGradient><radialGradient xlink:href="#b" id="g" cx="395.443" cy="240.415" r="46.176" gradientTransform="rotate(2.87 412.027 210.595)" gradientUnits="userSpaceOnUse"></radialGradient><radialGradient xlink:href="#b" id="h" cx="379.541" cy="285.861" r="38.131" gradientTransform="rotate(2.87 412.027 210.595)" gradientUnits="userSpaceOnUse"></radialGradient><radialGradient id="i" cx="293.096" cy="493.676" r="62.293" gradientTransform="matrix(.988 -.156 .087 .553 -19.573 87.281)" gradientUnits="userSpaceOnUse"><stop offset="0" stop-color="#f7bfa4"></stop><stop offset="1" stop-color="#fdecda"></stop></radialGradient><radialGradient xlink:href="#b" id="j" cx="116.802" cy="384.871" r="52.639" gradientTransform="translate(-1.578 -1.459)" gradientUnits="userSpaceOnUse"></radialGradient><radialGradient xlink:href="#b" id="k" cx="96.385" cy="414.319" r="66.218" gradientUnits="userSpaceOnUse"></radialGradient><radialGradient xlink:href="#b" id="l" cx="96.281" cy="408.948" r="58.904" gradientTransform="translate(-1.578 -1.459)" gradientUnits="userSpaceOnUse"></radialGradient><clipPath id="m"><path d="M237.167 263.609s4.324-58.932 54.739-38.084 42.21 75.452 30.904 84.982c-20.337 17.143-88.743 5.007-85.643-46.898z" fill="#000000" opacity="1" data-original="#000000"></path></clipPath><clipPath id="n"><path d="M182.3 256.149s1.713-53.838-37.288-39.12-37.485 64.953-29.922 74.543c13.604 17.251 65.178 11.937 67.21-35.423z" fill="#000000" opacity="1" data-original="#000000"></path></clipPath><linearGradient xlink:href="#a" id="o" x1="258.602" x2="486.328" y1="68.939" y2="459.885" gradientUnits="userSpaceOnUse"></linearGradient><linearGradient xlink:href="#a" id="p" x1="193.027" x2="433.396" y1="65.248" y2="477.899" gradientUnits="userSpaceOnUse"></linearGradient><path fill="url(#a)" d="M147.696 111.297S81.742 135.522 98.975 239.01c-12.384 33.532-83.893 122.469-47.462 253.66h374.653s-39.153-437.426-278.47-381.373z" opacity="1" data-original="url(#a)"></path><path fill="#231f20" d="M426.166 494.17H51.513a1.499 1.499 0 0 1-1.445-1.099C20.215 385.572 62.857 305.524 85.766 262.52c5.227-9.812 9.377-17.603 11.664-23.659-8.856-53.747 5.022-85.898 18.246-103.418 14.434-19.125 30.813-25.299 31.503-25.553a1.35 1.35 0 0 1 .175-.052c48.73-11.415 92.863-3.163 131.176 24.522 28.613 20.676 54.259 52.404 76.226 94.302 17.536 33.448 32.786 73.427 45.328 118.828 21.342 77.255 27.517 144.378 27.576 145.047a1.502 1.502 0 0 1-1.494 1.633zm-373.511-3h371.857c-1.083-10.721-7.904-72.612-27.334-142.931-19.601-70.935-56.4-165.201-120.409-211.451-37.552-27.133-80.828-35.227-128.632-24.054-1.234.482-16.775 6.827-30.178 24.662-12.84 17.088-26.3 48.545-17.504 101.367.043.257.018.521-.072.766-2.327 6.299-6.582 14.287-11.969 24.4-22.635 42.49-64.701 121.445-35.759 227.241z" opacity="1" data-original="#231f20"></path><path fill="#ffffff" d="M390.682 491.17h-253.48c0-60.17 21.66-68.43 59.88-88.7v-.01c4.11-2.17 8.41-4.49 12.89-7.03 25.72-14.56 66.76-16.83 90.21-4.24 2.85 1.52 5.69 3.08 8.54 4.65a762.126 762.126 0 0 1 32.17 18.73c18.64 11.49 27.83 21.2 36.51 36.77 8.5 15.26 11.75 29.11 13.28 39.83z" opacity="1" data-original="#ffffff"></path><path fill="#231f20" d="M392.412 492.67h-256.71v-1.5c0-58.096 20.749-69.012 55.125-87.096 1.555-.818 3.14-1.652 4.755-2.507v-.001l.8-.432a482.324 482.324 0 0 0 12.851-7.008c26.729-15.131 67.845-17.041 91.66-4.257a714.756 714.756 0 0 1 8.507 4.632 758.964 758.964 0 0 1 32.281 18.793c18.257 11.254 27.947 21.019 37.033 37.316 6.962 12.5 11.363 25.698 13.455 40.349zm-253.705-3h250.234c-2.13-13.599-6.341-25.916-12.85-37.6-8.804-15.792-18.221-25.272-35.986-36.223-10.327-6.364-20.78-12.453-31.956-18.613-.027-.016-.041-.022-.009-.011l-.142-.069a708.257 708.257 0 0 0-8.522-4.64c-22.623-12.146-63.27-10.212-88.765 4.222a476.247 476.247 0 0 1-12.225 6.679l-.701.38c-1.895 1.005-3.748 1.98-5.561 2.934-34.201 17.993-53.179 27.98-53.517 82.941zm169.454-92.439h.002z" opacity="1" data-original="#231f20"></path><path fill="url(#d)" d="m290.426 353.616-5.489 38.011c-.775 5.367-3.268 10.366-7.204 14.094-5.854 5.545-15.797 11.94-29.701 10.535-23.752-2.399-22.806-26.533-22.806-26.533l4.441-33.959z" opacity="1" data-original="url(#d)"></path><path fill="#231f20" d="m286.421 391.841 5.742-39.761a.023.023 0 0 0-.023-.026l-63.777 2.255c-.011 0-.02.009-.022.02l-4.411 33.734a1.5 1.5 0 0 0 2.975.39l4.082-31.216c.001-.011.011-.019.022-.02l57.649-2.038c.014 0 .025.012.023.026l-5.228 36.207a19.8 19.8 0 0 1-.169.984 1.477 1.477 0 0 0 1.039 1.72l.028.008c.818.227 1.67-.266 1.852-1.095.087-.397.161-.793.218-1.188z" opacity="1" data-original="#231f20"></path><path fill="#feadbc" d="M247.814 447.91c-56.28-6.45-64.78-42.73-64.78-42.73 1.58-.88 3.21-1.76 4.89-2.63 1.73-.91 3.51-1.81 5.35-2.71 2.52-1.23 5.14-2.45 7.87-3.65 7.49-3.3 14.61-5.93 21.16-8.04 6.7 15.21 13.4 30.42 20.09 45.63l.57 1.48 2.38 6.2.25.64z" opacity="1" data-original="#feadbc"></path><path fill="#231f20" d="M222.304 388.15c6.7 15.21 13.4 30.42 20.09 45.63l.57 1.48 2.38 6.2.25.64 2.22 5.81c-56.28-6.45-64.78-42.73-64.78-42.73 1.58-.88 3.21-1.76 4.89-2.63 1.73-.91 3.51-1.81 5.35-2.71 2.52-1.23 5.14-2.45 7.87-3.65 7.489-3.3 14.61-5.93 21.16-8.04m0-3.001c-.305 0-.615.047-.92.145a223.217 223.217 0 0 0-29.426 11.849 205.611 205.611 0 0 0-5.431 2.751c-1.598.827-3.27 1.727-4.953 2.664a3 3 0 0 0-1.461 3.305c.094.402 2.416 9.962 12.006 20.302 8.702 9.382 25.369 21.288 55.353 24.724a3.002 3.002 0 0 0 3.144-4.051l-2.22-5.81-.258-.661-2.374-6.184-.571-1.483-.053-.13c-6.69-15.21-13.39-30.421-20.09-45.632a3.005 3.005 0 0 0-2.746-1.789z" opacity="1" data-original="#231f20"></path><path fill="#ffffff" d="M245.344 441.46c-9.36-.45-23.94-2.97-37.1-12.93-11.09-8.39-16.45-18.41-20.32-25.98 1.73-.91 3.51-1.81 5.35-2.71 3.61 7.04 8.6 16.34 18.59 23.91 10.7 8.1 22.71 10.74 31.1 11.51z" opacity="1" data-original="#ffffff"></path><path fill="#feadbc" d="M339.454 415.66c-37.27 28.45-73.37 31.22-78.76 31.93-3.6.48-6.79.76-9.5.93-.72.05-1.41.09-2.07.12l4.16-7.36.81-1.43 2.77-4.91 1.15-2.04 32.41-47.01c3.46-.14 21.29 6.07 39.84 21.41 1.52 1.26 3.05 2.58 4.58 3.96 1.539 1.41 3.079 2.87 4.61 4.4z" opacity="1" data-original="#feadbc"></path><path fill="#231f20" d="M290.543 385.888c3.733 0 21.375 6.241 39.721 21.412 1.52 1.26 3.05 2.58 4.58 3.96 1.54 1.41 3.08 2.87 4.61 4.4-37.27 28.45-73.37 31.22-78.76 31.93-3.6.48-6.79.76-9.5.93-.72.05-1.41.09-2.07.12l4.16-7.36.81-1.43 2.77-4.91 1.15-2.04 32.41-47.01c.037-.002.077-.002.119-.002m0-3c-.084 0-.165.002-.241.005a2.999 2.999 0 0 0-2.348 1.295l-32.41 47.01a2.85 2.85 0 0 0-.143.23l-1.15 2.04-2.77 4.909-.807 1.426-4.161 7.362a2.999 2.999 0 0 0 2.749 4.474 88.243 88.243 0 0 0 2.142-.124c3.214-.202 6.48-.521 9.688-.949.284-.037.664-.081 1.131-.136 35.708-4.147 62.698-19.899 79.053-32.383a3 3 0 0 0 .301-4.506 146.783 146.783 0 0 0-4.705-4.491 151.041 151.041 0 0 0-4.691-4.057c-19.041-15.746-37.251-22.105-41.638-22.105z" opacity="1" data-original="#231f20"></path><path fill="#ffffff" d="M334.844 411.26c-9.17 8.13-21.15 14.57-38.47 20.83-13.88 5.01-28.37 8.1-43.09 9.19l.81-1.43 2.77-4.91a155.31 155.31 0 0 0 37.47-8.49c16.19-5.85 27.41-11.79 35.93-19.15 1.52 1.26 3.05 2.58 4.58 3.96z" opacity="1" data-original="#ffffff"></path><path fill="#feadbc" d="M247.815 447.908s-6.075 38.548 31.279 39.06c0-.001 11.957-35.231-31.279-39.06z" opacity="1" data-original="#feadbc"></path><path fill="#231f20" d="m280.164 488.482-1.091-.015c-11.191-.153-19.747-3.649-25.429-10.389-10.081-11.959-7.429-29.656-7.311-30.403l.218-1.384 1.396.123c14.389 1.275 24.414 6.107 29.795 14.362 7.688 11.795 2.977 26.071 2.773 26.673zm-31.025-38.937c-.385 4.304-.839 17.551 6.811 26.612 4.906 5.811 12.312 8.931 22.023 9.282.876-3.368 3.02-14.204-2.757-23.045-4.679-7.161-13.448-11.48-26.077-12.849z" opacity="1" data-original="#231f20"></path><path fill="#feadbc" d="M247.863 448.057s11.284 37.357-25.65 42.966c0 0-16.657-33.266 25.65-42.966z" opacity="1" data-original="#feadbc"></path><path fill="#231f20" d="M229.038 491.047a48.435 48.435 0 0 1-6.6 1.459l-1.078.164-.488-.975c-.285-.569-6.902-14.068-.897-26.802 4.202-8.914 13.468-15.073 27.553-18.297l1.366-.314.405 1.342c.219.724 5.263 17.894-3.09 31.117-3.713 5.878-9.474 10.002-17.171 12.306zm-5.925-1.69c9.572-1.675 16.484-5.776 20.55-12.203 6.341-10.022 4.081-23.082 3.112-27.293-12.335 3.084-20.435 8.567-24.087 16.312-4.512 9.569-.906 19.976.425 23.184z" opacity="1" data-original="#231f20"></path><path fill="#feadbc" d="M246.236 468.386c-6.473-.401-11.396-5.973-10.995-12.447l.589-9.516c.401-6.473 5.973-11.396 12.447-10.995 6.473.401 11.396 5.973 10.995 12.447l-.589 9.516c-.401 6.473-5.974 11.396-12.447 10.995z" opacity="1" data-original="#feadbc"></path><path fill="#231f20" d="M250.769 469.357a13.24 13.24 0 0 1-4.625.526c-7.289-.451-12.851-6.748-12.4-14.036l.59-9.516a13.158 13.158 0 0 1 4.45-9.107 13.155 13.155 0 0 1 9.586-3.293c7.289.451 12.851 6.748 12.4 14.036l-.59 9.516a13.158 13.158 0 0 1-4.45 9.107 13.21 13.21 0 0 1-4.961 2.767zm-6.162-32.025a10.207 10.207 0 0 0-3.837 2.14 10.173 10.173 0 0 0-3.442 7.044l-.59 9.516c-.349 5.638 3.954 10.508 9.591 10.857 2.73.169 5.363-.735 7.415-2.547a10.173 10.173 0 0 0 3.442-7.044l.59-9.516c.349-5.638-3.954-10.508-9.591-10.857a10.252 10.252 0 0 0-3.578.407z" opacity="1" data-original="#231f20"></path><path fill="url(#b)" d="M250.903 386.899c-51.902 4.864-98.586-14.901-124.734-46.307-7.818-9.376-13.807-19.79-17.544-30.9a84.956 84.956 0 0 1-4.373-22.567c-.553-10.026.714-19.831 3.582-29.225 4.409-14.457 4.35-29.701 5.43-44.782 12.441-173.405 257.261-170.062 278.728-21.033 13.078 90.836-8.512 182.367-141.089 194.814z" opacity="1" data-original="url(#b)"></path><path fill="url(#f)" d="M110.192 270.93c-12.051 16.933-4.333 43.105 17.239 58.456s48.827 14.069 60.878-2.865 4.333-43.105-17.239-58.456-48.827-14.069-60.878 2.865z" opacity="1" data-original="url(#f)"></path><path fill="#231f20" d="M226.911 388.923c-67.107-3.386-121.184-47.281-124.161-101.715-.547-10.005.68-20.013 3.646-29.745 3.463-11.364 4.148-23.516 4.811-35.268.17-3.011.345-6.125.565-9.187 2.908-40.555 18.873-74.553 46.17-98.318 24.13-21.007 56.426-33.256 90.937-34.489 34.012-1.216 67.038 8.232 92.996 26.601 28.662 20.282 46.504 49.697 51.597 85.066 7.008 48.663 2.894 89.166-12.226 120.384-18.589 38.38-53.912 62.806-104.988 72.596a1.5 1.5 0 1 1-.565-2.947c91.766-17.591 130.394-81.384 114.809-189.607-11.236-78.031-81.239-111.247-141.516-109.097-62.329 2.228-128.003 43.296-134.222 130.024a601.854 601.854 0 0 0-.562 9.141c-.672 11.93-1.368 24.265-4.936 35.974-2.863 9.395-4.048 19.054-3.521 28.707 2.969 54.29 58.525 97.79 126.494 99.061.822.036 1.487.7 1.472 1.527a1.5 1.5 0 0 1-1.527 1.472 161.444 161.444 0 0 1-5.273-.18z" opacity="1" data-original="#231f20"></path><path fill="url(#b)" d="M414.644 256.192c-30.391-20.866-49.139 11.228-49.139 11.228-2.501 2.796-7.225 8.849-9.291 17.93-2.572 11.305.529 20.469 1.896 23.915 1.046 2.836 3.572 8.665 9.509 13.01 4.561 3.338 11.14 5.876 20.496 5.377 35.089-1.296 56.921-50.594 26.529-71.46z" opacity="1" data-original="url(#b)"></path><path fill="#231f20" d="M383.713 329.165c-21.744-1.097-26.995-19.306-27.049-19.502a1.5 1.5 0 1 1 2.893-.793c.21.754 5.436 18.511 28.479 17.285 19.987-.739 33.664-16.879 37.924-31.563 4.364-15.045-.183-28.938-12.164-37.164-8.555-5.873-16.942-7.949-24.929-6.167-13.813 3.08-21.985 16.778-22.066 16.916a1.5 1.5 0 0 1-2.589-1.515c.355-.608 8.881-14.945 23.979-18.325 8.841-1.978 18.028.247 27.304 6.617 13.1 8.994 18.09 24.125 13.347 40.473-5.563 19.177-22.287 33.044-40.67 33.724a42.888 42.888 0 0 1-4.459.014z" opacity="1" data-original="#231f20"></path><path fill="url(#b)" d="M382.082 279.327c-.964 4.078.033 6.233-1.66 9.646-1.137 2.292-4.212 5.396-10.615 6.479-3.231 24.092 20.952 25.045 32.729 17.61 8.892-5.615 12.699-19.024 12.223-29.444-.155-1.649-.531-5.95-3.282-9.262-2.773-3.339-5.617-4.526-8.198-5.356-3.489-1.122-10.538-2.404-15.433.819-4.164 2.741-5.413 8.026-5.764 9.508z" opacity="1" data-original="url(#b)"></path><path fill="#231f20" d="m369.741 296.323-.034-.002a.999.999 0 0 1-.934-1.062.997.997 0 0 1 1.059-.935c.073.016 4.444.206 7.664-2.96 2.6-2.555 3.806-6.591 3.586-11.997-.174-4.28 1.728-7.878 5.357-10.132 5.453-3.387 14.092-3.288 20.541.236 5.57 3.043 8.687 8.061 8.778 14.131a1 1 0 0 1-2 .03c-.08-5.317-2.828-9.723-7.737-12.406-5.856-3.198-13.647-3.321-18.526-.292-2.115 1.314-4.598 3.829-4.413 8.352.244 6.008-1.171 10.559-4.206 13.526-3.765 3.681-8.641 3.536-9.135 3.511z" opacity="1" data-original="#231f20"></path><path fill="url(#i)" d="M376.768 304.365c3.238 20.53-22.698 41.677-57.93 47.234s-66.418-6.58-69.656-27.11 22.698-41.677 57.93-47.234 66.418 6.58 69.656 27.11z" opacity="1" data-original="url(#i)"></path><path fill="url(#b)" d="M123.966 349.509s-1.307-12.062 14.251-8.846c15.559 3.217 28.088 28.702 22.869 33.63s-15.778 5.909-21.558 1.694c-5.781-4.213-15.231-12.775-15.562-26.478z" opacity="1" data-original="url(#b)"></path><path fill="#231f20" d="M148.797 380.127c-3.77 0-7.445-.953-10.153-2.927-10.311-7.517-15.904-17.061-16.176-27.603-.057-.665-.321-5.302 3.068-8.38 2.801-2.544 7.17-3.226 12.985-2.022 12.305 2.544 21.876 17.256 24.47 26.398 1.312 4.626 1.01 8.012-.875 9.791-3.296 3.112-8.387 4.743-13.319 4.743zm-15.425-38.514c-2.521 0-4.463.604-5.801 1.809-2.454 2.209-2.117 5.895-2.114 5.932l.008.119c.235 9.731 5.264 18.245 14.946 25.303 5.119 3.731 14.851 2.953 19.645-1.573.753-.711 1.161-2.868.048-6.791-2.488-8.77-11.584-22.086-22.191-24.28-1.676-.346-3.192-.519-4.541-.519z" opacity="1" data-original="#231f20"></path><path fill="url(#b)" d="M108.817 412.477s-2.29 73.586 7.667 78.693h53s-5.077-72.177-23.954-103.459c-15.134-25.081-36.713 24.766-36.713 24.766z" opacity="1" data-original="url(#b)"></path><path fill="#231f20" d="M169.485 492.67h-53c-.238 0-.473-.057-.685-.166-10.281-5.272-8.87-67.627-8.482-80.074.006-.189.048-.375.123-.549.562-1.297 13.908-31.772 27.743-32.704 4.423-.291 8.345 2.312 11.632 7.758 18.847 31.231 23.958 101.167 24.166 104.128.029.416-.115.824-.399 1.128a1.494 1.494 0 0 1-1.098.479zm-52.588-3h50.965c-.892-10.803-6.691-73.138-23.616-101.184-2.659-4.406-5.638-6.528-8.862-6.315-9.88.665-21.332 22.089-25.078 30.641-.844 27.719.217 72.374 6.591 76.858z" opacity="1" data-original="#231f20"></path><path fill="url(#b)" d="M141.169 365.18s-2.036-19.958-19.392-22.514-30.082 8.291-39.168 30.253c-9.085 21.962 29.164 42.042 29.164 42.042 2.383.742 11.135 3.154 20.837-.997 11.786-5.043 15.866-15.875 16.526-17.719 1.224-1.879 2.924-6.958 2.571-13.307-.635-11.407-9.606-17.208-10.538-17.758z" opacity="1" data-original="url(#b)"></path><path fill="#231f20" d="M110.178 416.469a1.485 1.485 0 0 1-.701-.172c-1.611-.846-39.352-20.981-29.853-43.944 9.616-23.246 23.333-33.729 40.772-31.164 16.092 2.37 19.847 18.847 20.533 22.933 2.146.955 7.669 3.949 10.351 10.394 2.582 6.207 1.778 13.739-2.391 22.388a1.499 1.499 0 1 1-2.702-1.302c3.772-7.826 4.559-14.52 2.338-19.897-2.76-6.683-9.382-9.078-9.448-9.101a1.508 1.508 0 0 1-.998-1.263c-.08-.768-2.145-18.832-18.119-21.184-16.12-2.379-28.413 7.223-37.563 29.343-8.457 20.443 28.105 39.946 28.476 40.141a1.5 1.5 0 0 1-.695 2.828zM255.088 153.02s-6.011.888-4.605 6.74c1.405 5.851 39.421 30.945 89.147 45.441 4.601.876 1.52-2.466-6.663-6.058-64.597-28.36-70.107-49.196-77.879-46.123zM184.337 149.509s5.891 1.489 3.903 7.169c-1.987 5.68-20.576 16.557-71.509 25.973-4.666.409-1.309-2.751 7.239-5.357 47.254-14.401 52.943-31.624 60.367-27.785z" opacity="1" data-original="#231f20"></path><path fill="#ffffff" d="M233.292 263.011s4.688-63.895 59.349-41.292 45.765 81.806 33.507 92.139c-22.05 18.588-96.217 5.43-92.856-50.847z" opacity="1" data-original="#ffffff"></path><g clip-path="url(#m)"><path fill="#231f20" d="M309.598 310.12c-2.237 5.512-5.301 10.021-8.89 13.651-12.069 12.037-30.338 13.143-46.196.907-13.307-10.238-21.649-27.337-23.159-44.622-.873-9.399.297-18.879 3.738-27.306 9.835-23.887 34.448-30.414 55.033-14.557 20.584 15.856 29.309 48.041 19.474 71.927z" opacity="1" data-original="#231f20"></path><path fill="#231f20" d="M304.367 306.111c-1.666 4.109-3.858 7.708-6.49 10.669-5.608 6.476-13.126 10.173-21.406 10.218-6.862.067-13.753-2.388-19.936-7.175-12.104-9.3-19.329-25.467-19.857-41.563-.294-7.444.865-14.81 3.646-21.492 5.347-13.002 15.753-20.827 27.859-20.943 6.862-.067 13.751 2.428 19.973 7.232 17.644 13.568 24.927 41.85 16.211 63.054z" opacity="1" data-original="#231f20"></path><path fill="#46beff" d="M297.877 316.78c-5.608 6.476-13.126 10.173-21.406 10.218-6.862.067-13.753-2.388-19.936-7.175-12.104-9.3-19.329-25.467-19.857-41.563 8.216-1.922 18.232-.453 28.685 4.861 14.258 7.247 26.069 20.002 32.514 33.659z" opacity="1" data-original="#46beff"></path><ellipse cx="272.334" cy="281.43" fill="#231f20" rx="15.082" ry="19.733" transform="rotate(-15.63 272.673 281.944)" opacity="1" data-original="#231f20"></ellipse><g fill="#fff"><ellipse cx="262.294" cy="250.15" rx="19.371" ry="15.646" transform="rotate(-17.33 262.143 250.017)" fill="#ffffff" opacity="1" data-original="#ffffff"></ellipse><ellipse cx="282.064" cy="309.093" rx="19.371" ry="15.646" transform="rotate(-17.33 281.9 308.927)" fill="#ffffff" opacity="1" data-original="#ffffff"></ellipse><circle cx="293.617" cy="268.842" r="13.538" fill="#ffffff" opacity="1" data-original="#ffffff"></circle><circle cx="300.415" cy="283.517" r="8.817" fill="#ffffff" opacity="1" data-original="#ffffff"></circle></g></g><path fill="#231f20" d="M335.935 260.417a95.956 95.956 0 0 0-.85-6.112c4.3 1.306 13.103 3.265 17.644-.829-6.941.329-15.807-6.803-20.64-11.259-5.2-15.795-15.917-31.364-36.848-39.598-7.317-2.879-13.836-4.197-19.691-4.529-5.679-3.483-13.521-8.904-16.67-13.969.388 7.332 2.696 11.959 4.89 14.75-19.385 3.973-27.823 19.838-27.823 19.838l11.608.015-1.757 10.417s28.662-18.058 54.255-3.93c25.594 14.128 33.188 40.5 35.725 58.223.479-3.673.819-8.514.717-14.015 2.689 2.571 10.048 8.396 17.32 3.326-8.516.681-14.484-6.529-17.88-12.328z" opacity="1" data-original="#231f20"></path><circle cx="263.214" cy="287.679" r="8.817" fill="#ffffff" opacity="1" data-original="#ffffff"></circle><path fill="#61daff" d="M311.072 324.256c-.309-.24-13.524 1.219-11.522-8.05s17.287-3.321 21.111-8.289 7.142-13.946 13.191-10.324c6.05 3.623 2.451 12.593 1.537 14.643s-2.445 10.308 4.271 12.028c6.716 1.719 11.396 7.687 11.106 12.675 0 0-1.267 15.518-21.331 29.906-1.634-13.392-11.003-13.647-16.561-18.409s5.574-18.446-1.802-24.18z" opacity="1" data-original="#61daff"></path><path fill="#ffffff" d="M185.214 255.93s1.858-58.372-40.428-42.414-40.642 70.423-32.442 80.82c14.75 18.704 70.667 12.942 72.87-38.406z" opacity="1" data-original="#ffffff"></path><g clip-path="url(#n)"><path fill="#231f20" d="M124.84 293.281c1.194 5.188 3.083 9.535 5.433 13.128 7.918 11.928 21.33 14.454 34.07 4.671 10.688-8.182 18.279-23.004 20.835-38.563 1.428-8.456 1.354-17.157-.488-25.09-5.28-22.495-22.929-30.469-39.465-17.795-16.535 12.675-25.665 41.154-20.385 63.649z" opacity="1" data-original="#231f20"></path><path fill="#231f20" d="M129.04 290.078c.889 3.868 2.209 7.316 3.908 10.223 3.606 6.344 8.855 10.325 14.971 11.055 5.066.632 10.365-1.021 15.334-4.85 9.721-7.431 16.409-21.499 18.139-36.063.838-6.731.594-13.512-.905-19.807-2.869-12.244-9.909-20.212-18.847-21.326-5.066-.632-10.367 1.058-15.365 4.899-14.172 10.844-21.911 35.901-17.235 55.869z" opacity="1" data-original="#231f20"></path><path fill="#46beff" d="M132.949 300.301c3.606 6.344 8.855 10.325 14.971 11.055 5.066.632 10.365-1.021 15.334-4.85 9.721-7.431 16.409-21.499 18.139-36.063-5.913-2.428-13.439-1.93-21.608 2.022-11.142 5.389-20.935 15.979-26.836 27.836z" opacity="1" data-original="#46beff"></path><ellipse cx="154.773" cy="270.35" fill="#231f20" rx="17.778" ry="11.345" transform="rotate(-76.77 154.746 270.224)" opacity="1" data-original="#231f20"></ellipse><g fill="#fff"><ellipse cx="164.8" cy="242.801" rx="13.326" ry="15.413" transform="rotate(-33.6 164.57 242.715)" fill="#ffffff" opacity="1" data-original="#ffffff"></ellipse><ellipse cx="145.277" cy="294.642" rx="13.326" ry="15.413" transform="rotate(-33.6 145.038 294.51)" fill="#ffffff" opacity="1" data-original="#ffffff"></ellipse><ellipse cx="140.091" cy="257.154" rx="12.342" ry="10.063" transform="rotate(-87.14 139.973 257.063)" fill="#ffffff" opacity="1" data-original="#ffffff"></ellipse><ellipse cx="133.843" cy="269.904" rx="8.038" ry="6.554" transform="rotate(-87.14 133.725 269.806)" fill="#ffffff" opacity="1" data-original="#ffffff"></ellipse></g></g><path fill="#231f20" d="M109.561 245.024c.325-1.795.699-3.624 1.137-5.476-3.287.827-9.957 1.871-12.973-2.223 5.103.877 12.25-4.856 16.194-8.498 5.159-13.9 14.378-27.135 30.535-32.863 5.648-2.003 10.577-2.656 14.932-2.47 4.488-2.688 10.736-6.953 13.485-11.287-.897 6.621-2.989 10.628-4.843 12.978 13.998 5.22 18.913 20.32 18.913 20.32l-8.581-.954.431 9.6s-19.681-18.774-39.775-8.086c-20.095 10.688-27.905 33.987-31.256 49.858-.048-3.373.104-7.794.637-12.778-2.202 2.109-8.126 6.782-13.079 1.576 6.239 1.329 11.25-4.717 14.243-9.697z" opacity="1" data-original="#231f20"></path><ellipse cx="161.043" cy="275.822" fill="#ffffff" rx="8.038" ry="6.554" transform="rotate(-87.14 160.91 275.726)" opacity="1" data-original="#ffffff"></ellipse><path fill="#61daff" d="M137.225 306.963c-6.808 6.398 5.559 18.978.466 24.241-3.266 3.379-8.261 5.053-11.522 9.388-7.818-9.376-13.807-19.79-17.544-30.9l.135-.047c6.525-2.344 4.234-10.427 3.13-12.378-1.103-1.951-5.523-10.551.155-14.726 5.689-4.166 9.829 4.457 14.104 9.045 4.274 4.588 18.935-2.763 21.796 6.278 2.862 9.041-10.431 8.822-10.72 9.099z" opacity="1" data-original="#61daff"></path><path fill="#231f20" d="M179.983 322.727c1.362-4.239 6.312-6.915 10.087-8.916 8.727-3.986 18.735-.789 26.631 3.754 3.112 2.051 8.417 5.61 8.709 9.424a3.702 3.702 0 0 0 2.187 4.757c4.34 1.265 6.608-3.641 3.52-6.692-8.485-13.322-27.738-21.346-42.749-15.099-5.46 2.156-8.764 6.533-13.147 10.189-4.696 4.098 3.883 8.759 4.762 2.583z" opacity="1" data-original="#231f20"></path><path fill="url(#a)" d="M228.709 77.236S441.771 44.134 440.425 266.63c-.016 2.689-.366 5.364-.98 7.982-3.501 14.93-14.704 70.649 5.524 98.792 23.489 32.681 25.707 119.266 25.707 119.266h-71.938c4.19-53.625-33.376-141.992-72.748-239.01-16.69-41.127-36.749-75.05-55.66-101.939l-41.621-74.485z" opacity="1" data-original="url(#a)"></path><path fill="#231f20" d="M470.676 494.17h-71.938a1.5 1.5 0 0 1-1.496-1.616c3.917-50.139-28.377-129.514-65.771-221.423-2.279-5.603-4.572-11.24-6.872-16.907-14.47-35.656-33.142-69.853-55.496-101.641a1.376 1.376 0 0 1-.083-.131l-41.623-74.485a1.502 1.502 0 0 1 1.079-2.214c.234-.036 23.726-3.594 54.578-.454 28.515 2.902 69.369 12.276 102.064 40.457 38.1 32.837 57.211 83.602 56.804 150.883-.016 2.703-.358 5.501-1.02 8.316-3.742 15.959-14.421 70.16 5.282 97.574 23.489 32.68 25.897 116.548 25.988 120.103a1.497 1.497 0 0 1-1.496 1.538zm-70.328-3h68.776c-.447-11.749-4.128-87.332-25.373-116.89-20.442-28.442-9.582-83.74-5.767-100.01.608-2.597.925-5.17.939-7.649.401-66.353-18.354-116.342-55.746-148.579-32.081-27.659-72.271-36.882-100.335-39.749-25.139-2.567-45.312-.637-51.747.141l40.507 72.488c22.466 31.955 41.232 66.332 55.777 102.175 2.3 5.666 4.593 11.302 6.872 16.904 37.141 91.286 69.27 170.259 66.097 221.169z" opacity="1" data-original="#231f20"></path><path fill="#e0947a" d="m228.709 127.996-68.908 1.638s-4.369-36.872 27.801-37.894c32.171-1.021 41.107 36.256 41.107 36.256z" opacity="1" data-original="#e0947a"></path><path fill="url(#a)" d="M416.374 359.35c-42.704-45.909-55.66-70.067-60.255-121.842-4.596-51.775-7.149-65.562-41.872-95.179S290.426 58.94 201.84 62.888c-77.354 3.447-56.991 68.079-56.991 68.079l19.781-.766s-5.341-35.465 24.255-34.851 33.844 58.213 73.73 78.979c39.887 20.766 60.823 86.098 60.312 134.027-.511 47.93 32.131 58.558 50.534 81.84s17.586 102.474 17.586 102.474h59.88s8.151-87.411-34.553-133.32z" opacity="1" data-original="url(#a)"></path><path fill="#231f20" d="M450.927 494.17h-59.88a1.5 1.5 0 0 1-1.5-1.516c.008-.787.6-78.928-17.264-101.528-4.976-6.295-10.931-11.58-17.235-17.175-16.715-14.833-33.999-30.171-33.621-65.611.53-49.716-21.583-112.938-59.505-132.681-20.124-10.477-31.228-29.928-41.024-47.09-9.626-16.863-17.94-31.427-32.045-31.72-7.305-.154-12.964 2.001-16.833 6.398-8.368 9.51-5.934 26.56-5.908 26.731a1.5 1.5 0 0 1-2.967.447c-.113-.754-2.673-18.582 6.615-29.149 4.479-5.097 10.914-7.608 19.155-7.425 15.805.328 24.509 15.576 34.588 33.231 9.592 16.803 20.463 35.847 39.804 45.917 23.637 12.306 38.062 38.111 46.002 57.591 9.876 24.233 15.387 52.584 15.118 77.783-.363 34.072 16.4 48.949 32.612 63.335 6.124 5.436 12.458 11.056 17.598 17.559 17.322 21.915 17.938 90.476 17.918 101.904h56.982c.778-11.239 4.604-89.016-34.263-130.798-44.21-47.528-56.113-71.615-60.65-122.73-4.576-51.555-6.966-64.841-41.352-94.171-10.963-9.351-17.482-21.099-23.787-32.459-14.072-25.357-27.369-49.309-87.579-46.625-24.1 1.074-40.964 8.248-50.123 21.322-13.358 19.068-5.584 44.554-5.504 44.809a1.5 1.5 0 0 1-2.861.9c-.346-1.098-8.306-27.115 5.895-47.411 9.719-13.89 27.369-21.499 52.46-22.617 62.076-2.759 76.44 23.126 90.336 48.166 6.175 11.127 12.561 22.633 23.111 31.632 35.176 30.003 37.823 44.707 42.393 96.188 4.464 50.292 16.212 74.031 59.859 120.953 22.335 24.011 30.644 59.324 33.682 84.719 3.281 27.433 1.287 49.541 1.267 49.761a1.5 1.5 0 0 1-1.494 1.36z" opacity="1" data-original="#231f20"></path></g></svg>