<svg xmlns="http://www.w3.org/2000/svg" version="1.1" xmlns:xlink="http://www.w3.org/1999/xlink" width="512" height="512" x="0" y="0" viewBox="0 0 512 512" style="enable-background:new 0 0 512 512" xml:space="preserve" class=""><g><linearGradient id="a"><stop offset="0" stop-color="#bcbec0"></stop><stop offset=".401" stop-color="#e6e7e8"></stop><stop offset=".457" stop-color="#efeff0"></stop><stop offset=".585" stop-color="#fff"></stop><stop offset="1" stop-color="#fff"></stop></linearGradient><linearGradient xlink:href="#a" id="c" x1="290.015" x2="290.015" y1="45.454" y2="346.158" gradientUnits="userSpaceOnUse"></linearGradient><linearGradient xlink:href="#a" id="d" x1="155.222" x2="155.222" y1="45.454" y2="346.158" gradientUnits="userSpaceOnUse"></linearGradient><linearGradient xlink:href="#a" id="e" x1="111.958" x2="111.958" y1="45.454" y2="346.158" gradientUnits="userSpaceOnUse"></linearGradient><linearGradient id="f" x1="278.139" x2="278.649" y1="345.49" y2="406.511" gradientUnits="userSpaceOnUse"><stop offset="0" stop-color="#f7bfa4"></stop><stop offset=".316" stop-color="#f7c2a7"></stop><stop offset=".561" stop-color="#f8cab1"></stop><stop offset=".782" stop-color="#fad7c1"></stop><stop offset=".988" stop-color="#fdebd8"></stop><stop offset="1" stop-color="#fdecda"></stop></linearGradient><linearGradient id="b"><stop offset="0" stop-color="#f7bfa4"></stop><stop offset=".289" stop-color="#f8c8af"></stop><stop offset=".796" stop-color="#fbe1cc"></stop><stop offset="1" stop-color="#fdecda"></stop></linearGradient><radialGradient xlink:href="#b" id="g" cx="263.667" cy="139.062" r="191.22" gradientTransform="matrix(.993 -.121 .098 .803 -23.295 57.912)" gradientUnits="userSpaceOnUse"></radialGradient><radialGradient id="h" cx="-2143.454" cy="-208.113" r="62.293" gradientTransform="matrix(-.605 -.43 -.324 .456 -1206.606 -530.862)" gradientUnits="userSpaceOnUse"><stop offset="0" stop-color="#f7bfa4"></stop><stop offset=".786" stop-color="#fdecda"></stop></radialGradient><radialGradient xlink:href="#b" id="i" cx="415.954" cy="239.38" r="46.176" gradientTransform="rotate(2.87 412.027 210.595)" gradientUnits="userSpaceOnUse"></radialGradient><radialGradient xlink:href="#b" id="j" cx="400.052" cy="284.826" r="38.131" gradientTransform="rotate(2.87 412.027 210.595)" gradientUnits="userSpaceOnUse"></radialGradient><radialGradient id="k" cx="313.381" cy="496.365" r="62.293" gradientTransform="matrix(.988 -.156 .087 .553 -19.308 88.956)" gradientUnits="userSpaceOnUse"><stop offset="0" stop-color="#f7bfa4"></stop><stop offset="1" stop-color="#fdecda"></stop></radialGradient><radialGradient xlink:href="#b" id="l" cx="137.338" cy="384.945" r="52.639" gradientTransform="translate(-1.578 -1.459)" gradientUnits="userSpaceOnUse"></radialGradient><radialGradient xlink:href="#b" id="m" cx="116.817" cy="409.022" r="58.904" gradientTransform="translate(-1.578 -1.459)" gradientUnits="userSpaceOnUse"></radialGradient><clipPath id="n"><path d="M257.703 263.609s4.324-58.932 54.739-38.084 42.21 75.452 30.904 84.982c-20.337 17.143-88.743 5.007-85.643-46.898z" fill="#000000" opacity="1" data-original="#000000"></path></clipPath><clipPath id="o"><path d="M202.837 256.149s1.713-53.838-37.288-39.12-37.485 64.953-29.922 74.543c13.604 17.251 65.177 11.937 67.21-35.423z" fill="#000000" opacity="1" data-original="#000000"></path></clipPath><linearGradient xlink:href="#a" id="p" x1="406.312" x2="381.461" y1="242.099" y2="332.993" gradientTransform="rotate(7.81 286.757 198.408)" gradientUnits="userSpaceOnUse"></linearGradient><linearGradient xlink:href="#a" id="q" x1="396.421" x2="371.57" y1="239.395" y2="330.289" gradientTransform="rotate(7.81 286.757 198.408)" gradientUnits="userSpaceOnUse"></linearGradient><linearGradient xlink:href="#a" id="r" x1="130.051" x2="152.264" y1="243.458" y2="324.394" gradientTransform="rotate(7.81 286.757 198.408)" gradientUnits="userSpaceOnUse"></linearGradient><linearGradient xlink:href="#a" id="s" x1="137.078" x2="159.29" y1="241.53" y2="322.466" gradientTransform="rotate(7.81 286.757 198.408)" gradientUnits="userSpaceOnUse"></linearGradient><linearGradient xlink:href="#a" id="t" x1="273.88" x2="273.88" y1="45.454" y2="346.158" gradientTransform="rotate(7.81 286.757 198.408)" gradientUnits="userSpaceOnUse"></linearGradient><linearGradient xlink:href="#a" id="u" x1="392.697" x2="392.697" y1="45.454" y2="346.158" gradientTransform="rotate(7.81 286.757 198.408)" gradientUnits="userSpaceOnUse"></linearGradient><linearGradient xlink:href="#a" id="v" x1="313.974" x2="313.974" y1="45.454" y2="346.158" gradientTransform="rotate(7.81 286.757 198.408)" gradientUnits="userSpaceOnUse"></linearGradient><linearGradient xlink:href="#a" id="w" x1="365.097" x2="365.097" y1="45.454" y2="346.158" gradientTransform="rotate(7.81 286.757 198.408)" gradientUnits="userSpaceOnUse"></linearGradient><linearGradient xlink:href="#a" id="x" x1="288.095" x2="288.095" y1="45.454" y2="346.158" gradientTransform="rotate(7.81 286.757 198.408)" gradientUnits="userSpaceOnUse"></linearGradient><linearGradient xlink:href="#a" id="y" x1="206.83" x2="206.83" y1="45.454" y2="346.158" gradientTransform="rotate(7.81 286.757 198.408)" gradientUnits="userSpaceOnUse"></linearGradient><linearGradient xlink:href="#a" id="z" x1="431.917" x2="431.917" y1="45.454" y2="346.158" gradientTransform="rotate(7.81 286.757 198.408)" gradientUnits="userSpaceOnUse"></linearGradient><linearGradient xlink:href="#a" id="A" x1="127.395" x2="127.395" y1="45.454" y2="346.158" gradientTransform="rotate(7.81 286.757 198.408)" gradientUnits="userSpaceOnUse"></linearGradient><path fill="url(#a)" d="M358.725 74.731s22.788-6.465 41.692 5.448 31.499 57.691 68.946 58.973c-7.489 12.515-37.447 10.722-37.447 10.722s30.298 32.091 29.617 89.623-33.362 69.447-34.723 86.809-1.021 28.606-1.021 28.606-18.233-.691-21.882-22.138c0 0-18.539 23.149-13.307 41.532 0 0-22.099 2.848-24.433-14.746-1.314 19.172-30.76 34.299-30.76 34.299l-38.324 2.234-53.318 4.031s-33.46-11.52-33.207-32.967c0 0-3.243 25.047-17.325 28.353 0 0 4.05-21.205-1.697-27.332 0 0-25.596 9.191-60.948-45.957S117.704 196.09 117.704 196.09 101.507 92.891 210.557 56.177s148.168 18.554 148.168 18.554z" opacity="1" data-original="url(#a)" class=""></path><path fill="#231f20" d="M243.764 401.623c-.166 0-.331-.027-.488-.082-1.23-.424-26.64-9.369-32.856-26.481-2.201 7.992-7.035 19.607-16.844 21.91a1.503 1.503 0 0 1-1.817-1.742c1.037-5.437 2.798-20.071-.779-25.348-5.342 1.171-29.63 3.105-61.654-46.851-18.476-28.822-21.039-61.93-19.935-84.629 1.105-22.718 6.011-39.858 6.782-42.431-.435-3.225-3.341-28.056 5.634-56.52 8.847-28.058 31.343-65.528 88.272-84.694 56.76-19.109 94.415-12.976 116.006-4.465 20.537 8.095 30.692 19.552 33.23 22.74 4.709-1.126 24.686-4.97 41.902 5.879 6.855 4.32 12.876 12.878 19.25 21.939 11.87 16.872 25.323 35.995 48.947 36.804a1.502 1.502 0 0 1 1.236 2.27c-6.389 10.675-27.187 11.609-35.434 11.546 7.032 8.853 28.388 39.77 27.816 88.045-.453 38.231-14.688 56.382-25.082 69.636-5.147 6.562-9.212 11.746-9.646 17.272-1.339 17.067-1.021 28.332-1.018 28.443a1.502 1.502 0 0 1-1.556 1.544c-.185-.007-17.536-.896-22.588-20.059-4.512 6.479-15.058 23.643-11.102 37.543a1.5 1.5 0 0 1-1.251 1.899c-.209.024-18.325 2.19-24.382-10.132-5.819 16.771-29.213 28.964-30.318 29.532-.186.095-.39.151-.598.163l-38.324 2.234-53.292 4.029a1.018 1.018 0 0 1-.111.006zm-33.208-35.967a1.5 1.5 0 0 1 1.501 1.518c-.225 19.097 28.719 30.258 31.913 31.429l52.999-4.006 38.024-2.217c2.939-1.577 28.502-15.778 29.677-32.923a1.499 1.499 0 0 1 1.449-1.396l.048-.001c.75 0 1.387.555 1.486 1.303 1.779 13.405 16.079 13.856 21.073 13.596-3.846-18.547 13.257-40.182 14.01-41.122a1.5 1.5 0 0 1 2.65.686c2.813 16.527 14.55 19.989 18.876 20.706-.036-3.812.005-13.675 1.053-27.04.504-6.43 4.816-11.928 10.276-18.89 10.129-12.916 24.002-30.605 24.442-67.819.666-56.202-28.909-88.259-29.208-88.576-.421-.448-.527-1.107-.267-1.664s.836-.895 1.448-.863c.271.017 25.521 1.397 34.463-7.906-23.338-2.193-36.654-21.12-48.455-37.895-6.196-8.808-12.049-17.127-18.396-21.127-18.128-11.425-40.261-5.336-40.483-5.274a1.5 1.5 0 0 1-1.632-.575c-.097-.136-9.914-13.667-32.727-22.599-21.107-8.266-57.973-14.176-113.74 4.599-55.734 18.764-77.73 55.358-86.368 82.753-9.368 29.709-5.521 55.25-5.481 55.504a1.5 1.5 0 0 1-.052.685c-.222.703-21.836 70.966 12.717 124.869 34.125 53.233 58.941 45.438 59.187 45.352a1.513 1.513 0 0 1 1.592.389c5.06 5.396 3.443 20.032 2.503 26.126 11.04-5.063 13.906-26.089 13.936-26.315a1.5 1.5 0 0 1 1.486-1.307z" opacity="1" data-original="#231f20" class=""></path><path fill="url(#a)" d="M118.725 97.369c20.426-2.043 38.287 2.213 38.287 2.213l34.707-29.277s-44.228.511-72.994 27.064z" opacity="1" data-original="url(#a)" class=""></path><path fill="#231f20" d="M157.013 101.082c-.115 0-.231-.014-.348-.041-.177-.042-17.875-4.172-37.791-2.18a1.499 1.499 0 0 1-1.167-2.594c28.856-26.636 73.546-27.457 73.994-27.462.835-.021 1.507.654 1.517 1.482s-.654 1.507-1.482 1.518c-.419.005-40.614.76-68.596 23.71 18.437-1.084 33.536 2.445 34.219 2.608a1.499 1.499 0 0 1-.346 2.959z" opacity="1" data-original="#231f20" class=""></path><path fill="url(#a)" d="M90.47 155.241c12.255 8.34 36.925 3.234 36.925 3.234l6.05-31.319s-22.89 27.234-42.975 28.085z" opacity="1" data-original="url(#a)" class=""></path><path fill="#231f20" d="M111.193 161.539c-7.393 0-15.733-1.088-21.566-5.058a1.5 1.5 0 0 1 .78-2.738c19.188-.813 41.666-27.285 41.891-27.552a1.5 1.5 0 0 1 2.296 1.93c-.878 1.044-20.163 23.758-39.242 27.971 12.335 4.825 31.523.958 31.739.914a1.5 1.5 0 0 1 .607 2.937c-.555.116-7.886 1.596-16.505 1.596z" opacity="1" data-original="#231f20" class=""></path><path fill="#58595b" d="M408.027 491.17h-253.48c0-60.17 21.66-68.43 59.88-88.7v-.01c4.11-2.17 8.41-4.49 12.89-7.03 25.72-14.56 66.76-16.83 90.21-4.24 2.85 1.52 5.69 3.08 8.54 4.65a762.126 762.126 0 0 1 32.17 18.73c18.64 11.49 27.83 21.2 36.51 36.77 8.5 15.26 11.75 29.11 13.28 39.83z" opacity="1" data-original="#58595b" class=""></path><path fill="#231f20" d="M409.757 492.67h-256.71v-1.5c0-58.096 20.749-69.012 55.125-87.096 1.555-.818 3.14-1.652 4.755-2.507v-.001l.8-.432a482.324 482.324 0 0 0 12.851-7.008c26.729-15.131 67.845-17.041 91.66-4.257a714.756 714.756 0 0 1 8.507 4.632 758.964 758.964 0 0 1 32.281 18.793c18.257 11.254 27.947 21.019 37.033 37.316 6.962 12.5 11.363 25.698 13.455 40.349zm-253.705-3h250.234c-2.13-13.599-6.341-25.916-12.85-37.6-8.804-15.792-18.221-25.272-35.986-36.223-10.327-6.364-20.78-12.453-31.956-18.613-.027-.016-.041-.022-.009-.011l-.142-.069a708.257 708.257 0 0 0-8.522-4.64c-22.623-12.146-63.27-10.212-88.765 4.222a476.247 476.247 0 0 1-12.225 6.679l-.701.38c-1.895 1.005-3.748 1.98-5.561 2.934-34.201 17.993-53.179 27.98-53.517 82.941zm169.454-92.439h.002z" opacity="1" data-original="#231f20" class=""></path><path fill="url(#f)" d="m310.962 353.616-5.489 38.011c-.775 5.367-3.268 10.366-7.204 14.094-5.854 5.545-15.797 11.94-29.701 10.535-23.752-2.399-22.806-26.533-22.806-26.533l4.441-33.959z" opacity="1" data-original="url(#f)"></path><path fill="#231f20" d="m306.958 391.841 5.742-39.761a.023.023 0 0 0-.023-.026l-63.777 2.255c-.011 0-.02.009-.022.02l-4.411 33.734a1.5 1.5 0 0 0 2.975.39l4.082-31.216c.001-.011.011-.019.022-.02l57.649-2.038c.014 0 .025.012.023.026l-5.228 36.207a19.8 19.8 0 0 1-.169.984 1.477 1.477 0 0 0 1.039 1.72l.028.008c.818.227 1.67-.266 1.852-1.095.086-.397.161-.793.218-1.188z" opacity="1" data-original="#231f20" class=""></path><path fill="#ffffff" d="M240.504 398.381s34.124-5.971 53.911-3.82c19.786 2.152-43.911 46.137-43.911 46.137s-10.147-24.56-10-42.317z" opacity="1" data-original="#ffffff"></path><path fill="#231f20" d="M250.504 442.199a1.498 1.498 0 0 1-1.386-.928c-.419-1.014-10.261-25.047-10.113-42.902a1.5 1.5 0 0 1 1.241-1.465c1.402-.245 34.558-5.987 54.332-3.833 3.545.385 4.688 2.04 5.021 3.36.737 2.914-.89 8.883-23.446 27-12.108 9.726-24.67 18.416-24.796 18.503a1.51 1.51 0 0 1-.853.265zm-8.493-42.549c.271 14.406 6.998 33.025 9.193 38.736 20.25-14.134 46.908-35.603 45.486-41.219-.192-.76-1.609-1.024-2.438-1.114-17.239-1.876-45.933 2.562-52.241 3.597z" opacity="1" data-original="#231f20" class=""></path><path fill="#231f20" d="M253.273 407.047a1.5 1.5 0 0 1-.146-2.993c1.038-.102 25.566-2.498 37.412-1.232.824.088 1.42.827 1.332 1.651s-.846 1.409-1.65 1.333c-11.549-1.234-36.547 1.209-36.798 1.234a1.927 1.927 0 0 1-.15.007z" opacity="1" data-original="#231f20" class=""></path><path fill="#414042" d="M251.694 438.144s-6.242-26.376-4.052-46.464-14.643-4.048-16.871.997-2.151 17.492 2.713 29.231 15.79 21.429 15.79 21.429z" opacity="1" data-original="#414042"></path><path fill="#231f20" d="M249.274 444.838c-.363 0-.718-.132-.995-.378-.457-.405-11.241-10.056-16.181-21.977-4.888-11.796-5.21-24.726-2.699-30.411 1.514-3.427 10.291-13.097 15.978-11.574 3.22.864 4.483 4.681 3.757 11.345-2.137 19.593 3.958 45.695 4.02 45.956.078.328.042.673-.1.979l-2.419 5.194a1.497 1.497 0 0 1-1.361.866zm-5.261-61.515c-3.54 0-10.476 6.805-11.87 9.961-1.851 4.191-2.265 16.004 2.727 28.051 3.627 8.755 10.825 16.431 13.924 19.481l1.322-2.837c-.882-3.878-6.017-27.646-3.965-46.461.519-4.758-.047-7.718-1.552-8.123a2.295 2.295 0 0 0-.586-.072z" opacity="1" data-original="#231f20" class=""></path><path fill="#58595b" d="M235.038 383.865s-3.381 21.11 4.638 38.037 11.563 18.242 8.285 21.438-38.657-11.957-44.668-21.653c-6.011-9.695-3.144-14.422-.72-16.531 2.423-2.109 13.974-4.611 13.974-4.611s3.874-16.983 18.491-16.68z" opacity="1" data-original="#58595b" class=""></path><path fill="#231f20" d="M246.257 445.273c-.426 0-.895-.032-1.409-.095-9.274-1.134-37.243-13.688-42.831-22.7-6.597-10.641-3.101-16.129-.431-18.453 2.31-2.01 10.603-4.035 13.756-4.75 1.126-3.714 6.163-17.167 19.726-16.91a1.499 1.499 0 0 1 1.451 1.736c-.033.207-3.207 20.864 4.512 37.159 2.826 5.965 5.064 9.927 6.698 12.819 2.984 5.283 4.219 7.469 1.278 10.335-.592.578-1.482.859-2.75.859zm-12.937-59.858c-11.831.979-15.17 14.849-15.312 15.465a1.502 1.502 0 0 1-1.144 1.13c-4.321.937-11.754 2.926-13.307 4.277-4.32 3.759-1.834 10.02 1.011 14.609 5.92 9.549 38.665 22.837 42.406 21.31 1.108-1.082 1.172-1.29-1.857-6.652-1.656-2.932-3.925-6.947-6.797-13.01-6.855-14.47-5.633-31.6-5-37.129z" opacity="1" data-original="#231f20" class=""></path><path fill="#231f20" d="M215.093 414.121a1.5 1.5 0 0 1-1.497-1.612c.028-.377.707-9.286 1.846-13.573a1.501 1.501 0 0 1 2.899.771c-1.068 4.019-1.747 12.938-1.754 13.027a1.5 1.5 0 0 1-1.494 1.387z" opacity="1" data-original="#231f20" class=""></path><path fill="#414042" d="M247.695 438.83s24.815-32.879 52.373-47.547 35.05-12.294 39.484-4.64 9.887 13.606 9.887 13.606l-91.152 40.441z" opacity="1" data-original="#414042"></path><path fill="#231f20" d="M258.287 442.19c-.087 0-.174-.007-.26-.022l-10.592-1.861a1.5 1.5 0 0 1-.938-2.382c.25-.331 25.333-33.312 52.865-47.968 28.03-14.919 36.437-12.788 41.487-4.067 4.295 7.414 9.643 13.286 9.696 13.345a1.499 1.499 0 0 1-.498 2.384l-91.152 40.442a1.485 1.485 0 0 1-.608.129zm-7.868-4.405 7.677 1.349 88.877-39.432c-1.925-2.281-5.554-6.843-8.72-12.307-3.439-5.937-8.89-10.007-37.481 5.212-23.105 12.298-44.558 37.926-50.353 45.178z" opacity="1" data-original="#231f20" class=""></path><path fill="#58595b" d="M248.808 444.616s-2.898-3.508-1.113-5.786c1.785-2.277 35.377-24.55 65.324-33.775s45.098-7.539 48.336-3.798 2.073 8.189 3.799 10.74 9.972 7.874 5.952 14.1c-.311.481-1.865.327-1.865.327s-28.625-1.484-67.594 7.921-47.13 16.647-52.839 10.271z" opacity="1" data-original="#58595b" class=""></path><path fill="#231f20" d="M254.237 448.551c-2.729 0-4.706-.878-6.547-2.935l-.039-.045c-1.361-1.649-3.133-5.119-1.137-7.667 2.312-2.95 36.438-25.157 66.064-34.283 30.773-9.48 46.119-7.728 49.911-3.346 2.178 2.516 2.618 5.294 2.972 7.527.219 1.381.408 2.574.936 3.354.302.445.99 1.132 1.719 1.86 3.007 3.002 8.039 8.028 4.251 13.894-.668 1.034-2.152 1.116-3.273 1.005-.215-.008-28.813-1.352-67.094 7.886-14.212 3.43-24.319 6.574-31.699 8.869-7.586 2.36-12.475 3.881-16.064 3.881zm-4.288-4.909c2.854 3.162 6.411 2.224 19.46-1.835 7.419-2.308 17.579-5.468 31.887-8.92 38.73-9.347 67.736-7.975 68.023-7.961.256.023.534.026.735.013 1.902-3.401-.713-6.457-4.06-9.798-.869-.868-1.62-1.618-2.083-2.302-.901-1.333-1.15-2.903-1.414-4.566-.324-2.048-.66-4.166-2.276-6.034-1.931-2.229-14.094-5.812-46.761 4.25-29.758 9.167-62.568 30.923-64.594 33.276-.833 1.065.614 3.291 1.083 3.877z" opacity="1" data-original="#231f20" class=""></path><circle cx="258.987" cy="439.825" r="6.085" fill="#ffffff" opacity="1" data-original="#ffffff"></circle><path fill="#231f20" d="M258.983 447.41c-4.01 0-7.369-3.156-7.572-7.205-.102-2.023.59-3.965 1.949-5.468s3.222-2.387 5.246-2.488c4.17-.206 7.745 3.017 7.956 7.195.21 4.177-3.017 7.747-7.194 7.957a8.275 8.275 0 0 1-.385.009zm.006-12.171a4.56 4.56 0 0 0-3.403 1.51 4.554 4.554 0 0 0-1.178 3.306 4.584 4.584 0 1 0 9.159-.461 4.593 4.593 0 0 0-4.578-4.355z" opacity="1" data-original="#231f20" class=""></path><circle cx="239.07" cy="435.842" r="6.085" fill="#ffffff" opacity="1" data-original="#ffffff"></circle><path fill="#231f20" d="M239.065 443.427c-4.009 0-7.367-3.156-7.571-7.204-.21-4.177 3.017-7.746 7.195-7.957a7.587 7.587 0 0 1 7.956 7.194c.21 4.177-3.017 7.747-7.194 7.957-.129.006-.258.01-.386.01zm.008-12.171a4.59 4.59 0 0 0-4.582 4.816c.127 2.525 2.295 4.473 4.81 4.349a4.59 4.59 0 0 0 4.349-4.81 4.592 4.592 0 0 0-4.577-4.355zM283.365 499.783a4.003 4.003 0 0 1-3.969-2.656c-9.619-27.046-22.673-52.686-22.804-52.942a4 4 0 1 1 7.124-3.641c.133.26 13.418 26.348 23.218 53.902a4 4 0 0 1-3.569 5.337z" opacity="1" data-original="#231f20" class=""></path><path fill="#ffffff" d="M283.265 497.786a2.013 2.013 0 0 1-1.984-1.328c-9.641-27.108-22.776-52.924-22.907-53.181a1.992 1.992 0 0 1-.122-1.527c.165-.508.517-.922.993-1.165.255-.131.526-.204.807-.218a2.005 2.005 0 0 1 1.884 1.088c.133.259 13.292 26.045 23.115 53.662a2.003 2.003 0 0 1-1.786 2.669z" opacity="1" data-original="#ffffff"></path><path fill="#231f20" d="M221.087 497.675a4.001 4.001 0 0 0 3.682-3.04c6.856-27.874 17.271-54.696 17.376-54.963a4 4 0 0 0-7.453-2.908c-.107.272-10.706 27.561-17.692 55.96a4 4 0 0 0 4.087 4.951z" opacity="1" data-original="#231f20" class=""></path><path fill="#ffffff" d="M220.986 495.678a2.012 2.012 0 0 0 1.84-1.521c6.872-27.939 17.349-54.943 17.454-55.212.194-.498.183-1.042-.032-1.531s-.607-.866-1.104-1.059a1.985 1.985 0 0 0-.825-.136c-.787.04-1.48.539-1.765 1.272-.106.271-10.611 27.248-17.613 55.711a2.003 2.003 0 0 0 2.045 2.476z" opacity="1" data-original="#ffffff"></path><path fill="url(#b)" d="M271.44 386.899c-51.902 4.864-98.586-14.901-124.734-46.307-7.818-9.376-13.807-19.79-17.544-30.9a84.956 84.956 0 0 1-4.373-22.567c-.553-10.026.714-19.831 3.582-29.225 4.409-14.457 4.35-29.701 5.43-44.782 12.441-173.405 257.261-170.062 278.728-21.033 13.078 90.836-8.513 182.367-141.089 194.814z" opacity="1" data-original="url(#b)"></path><path fill="url(#h)" d="M130.729 270.93c-12.051 16.933-4.333 43.105 17.239 58.456s48.827 14.069 60.878-2.865c12.051-16.933 4.333-43.105-17.239-58.456s-48.827-14.069-60.878 2.865z" opacity="1" data-original="url(#h)"></path><path fill="#231f20" d="M247.448 388.923c-67.107-3.386-121.184-47.281-124.161-101.715-.547-10.005.68-20.013 3.646-29.745 3.463-11.364 4.148-23.516 4.811-35.268.17-3.011.345-6.125.565-9.187 2.908-40.555 18.873-74.553 46.17-98.318 24.13-21.007 56.426-33.256 90.937-34.489 34.012-1.216 67.038 8.232 92.996 26.601 28.662 20.282 46.504 49.697 51.597 85.066 7.008 48.663 2.894 89.166-12.226 120.384-18.589 38.38-53.912 62.806-104.988 72.596a1.5 1.5 0 1 1-.565-2.947c91.766-17.591 130.394-81.384 114.809-189.607C399.803 114.263 329.8 81.047 269.523 83.197c-62.329 2.228-128.003 43.296-134.222 130.024a601.854 601.854 0 0 0-.562 9.141c-.672 11.93-1.368 24.265-4.936 35.974-2.863 9.395-4.048 19.054-3.521 28.707 2.969 54.29 58.525 97.79 126.494 99.061.822.036 1.487.7 1.472 1.527a1.5 1.5 0 0 1-1.527 1.472 161.252 161.252 0 0 1-5.273-.18z" opacity="1" data-original="#231f20" class=""></path><path fill="url(#b)" d="M435.181 256.192c-30.391-20.866-49.139 11.228-49.139 11.228-2.501 2.796-7.225 8.849-9.291 17.93-2.572 11.305.529 20.469 1.896 23.915 1.046 2.836 3.572 8.665 9.509 13.01 4.561 3.338 11.14 5.876 20.496 5.377 35.089-1.296 56.92-50.594 26.529-71.46z" opacity="1" data-original="url(#b)"></path><path fill="#231f20" d="M404.249 329.165c-21.744-1.097-26.995-19.306-27.049-19.502a1.5 1.5 0 1 1 2.893-.793c.21.754 5.436 18.511 28.479 17.285 19.987-.739 33.664-16.879 37.924-31.563 4.364-15.045-.183-28.938-12.164-37.164-8.555-5.873-16.942-7.949-24.929-6.167-13.813 3.08-21.985 16.778-22.066 16.916a1.5 1.5 0 0 1-2.589-1.515c.355-.608 8.881-14.945 23.979-18.325 8.841-1.978 18.028.247 27.304 6.617 13.1 8.994 18.09 24.125 13.347 40.473-5.563 19.177-22.287 33.044-40.67 33.724a42.887 42.887 0 0 1-4.459.014z" opacity="1" data-original="#231f20" class=""></path><path fill="url(#b)" d="M402.619 279.327c-.964 4.078.033 6.233-1.66 9.646-1.137 2.292-4.212 5.396-10.615 6.479-3.231 24.092 20.952 25.045 32.729 17.61 8.892-5.615 12.699-19.024 12.223-29.444-.155-1.649-.531-5.95-3.282-9.262-2.773-3.339-5.617-4.526-8.198-5.356-3.489-1.122-10.538-2.404-15.433.819-4.165 2.741-5.414 8.026-5.764 9.508z" opacity="1" data-original="url(#b)"></path><path fill="#231f20" d="m390.278 296.323-.034-.002a1 1 0 0 1 .124-1.997c.073.016 4.444.206 7.664-2.96 2.6-2.555 3.806-6.591 3.586-11.997-.174-4.28 1.728-7.878 5.357-10.132 5.453-3.387 14.092-3.288 20.541.236 5.57 3.043 8.687 8.061 8.778 14.131a1 1 0 0 1-2 .03c-.08-5.317-2.828-9.723-7.737-12.406-5.856-3.198-13.647-3.321-18.526-.292-2.115 1.314-4.598 3.829-4.413 8.352.244 6.008-1.171 10.559-4.206 13.526-3.764 3.681-8.641 3.536-9.134 3.511z" opacity="1" data-original="#231f20" class=""></path><path fill="url(#k)" d="M397.304 304.365c3.238 20.53-22.698 41.677-57.93 47.234s-66.418-6.58-69.656-27.11 22.698-41.677 57.93-47.234 66.418 6.58 69.656 27.11z" opacity="1" data-original="url(#k)"></path><path fill="url(#b)" d="M144.502 349.509s-1.307-12.062 14.251-8.846c15.559 3.217 28.088 28.702 22.869 33.63s-15.778 5.909-21.558 1.694c-5.781-4.213-15.23-12.775-15.562-26.478z" opacity="1" data-original="url(#b)"></path><path fill="#231f20" d="M169.333 380.127c-3.77 0-7.445-.953-10.153-2.927-10.311-7.517-15.904-17.061-16.176-27.603-.057-.665-.321-5.302 3.068-8.38 2.801-2.544 7.17-3.226 12.985-2.022 12.305 2.544 21.876 17.256 24.47 26.398 1.312 4.626 1.01 8.012-.875 9.791-3.295 3.112-8.387 4.743-13.319 4.743zm-15.424-38.514c-2.521 0-4.463.604-5.801 1.809-2.454 2.209-2.117 5.895-2.114 5.932l.008.119c.235 9.731 5.264 18.245 14.946 25.303 5.119 3.731 14.851 2.953 19.645-1.573.753-.711 1.161-2.868.048-6.791-2.488-8.77-11.584-22.086-22.191-24.28-1.677-.346-3.192-.519-4.541-.519z" opacity="1" data-original="#231f20" class=""></path><path fill="#58595b" d="M129.354 412.477s-2.29 73.586 7.667 78.693h53s-5.077-72.177-23.954-103.459c-15.135-25.081-36.713 24.766-36.713 24.766z" opacity="1" data-original="#58595b" class=""></path><path fill="#231f20" d="M190.021 492.67h-53c-.238 0-.473-.057-.685-.166-10.281-5.272-8.87-67.627-8.482-80.074.006-.189.048-.375.123-.549.562-1.297 13.908-31.772 27.743-32.704 4.423-.291 8.345 2.312 11.632 7.758 18.847 31.231 23.958 101.167 24.166 104.128.029.416-.115.824-.399 1.128a1.492 1.492 0 0 1-1.098.479zm-52.587-3h50.965c-.892-10.803-6.691-73.138-23.616-101.184-2.659-4.406-5.638-6.528-8.862-6.315-9.88.665-21.332 22.089-25.078 30.641-.844 27.719.216 72.374 6.591 76.858z" opacity="1" data-original="#231f20" class=""></path><path fill="url(#b)" d="M161.706 365.18s-2.036-19.958-19.392-22.514-30.082 8.291-39.168 30.253c-9.085 21.962 29.164 42.042 29.164 42.042 2.383.742 11.135 3.154 20.837-.997 11.786-5.043 15.866-15.875 16.526-17.719 1.224-1.879 2.924-6.958 2.571-13.307-.635-11.407-9.606-17.208-10.538-17.758z" opacity="1" data-original="url(#b)"></path><path fill="#231f20" d="M130.715 416.469a1.485 1.485 0 0 1-.701-.172c-1.611-.846-39.352-20.981-29.853-43.944 9.616-23.246 23.333-33.729 40.772-31.164 16.092 2.37 19.847 18.847 20.533 22.933 2.146.955 7.669 3.949 10.351 10.394 2.582 6.207 1.778 13.739-2.391 22.388a1.499 1.499 0 1 1-2.702-1.302c3.772-7.826 4.559-14.52 2.338-19.897-2.76-6.683-9.382-9.078-9.448-9.101a1.508 1.508 0 0 1-.998-1.263c-.08-.768-2.145-18.832-18.119-21.184-16.121-2.379-28.413 7.223-37.563 29.343-8.457 20.443 28.105 39.946 28.476 40.141a1.5 1.5 0 0 1-.695 2.828z" opacity="1" data-original="#231f20" class=""></path><path fill="#ffffff" d="M253.828 263.011s4.688-63.895 59.349-41.292 45.765 81.806 33.507 92.139c-22.05 18.588-96.217 5.43-92.856-50.847z" opacity="1" data-original="#ffffff"></path><g clip-path="url(#n)"><path fill="#231f20" d="M330.134 310.12c-2.237 5.512-5.301 10.021-8.89 13.651-12.069 12.037-30.338 13.143-46.196.907-13.307-10.238-21.649-27.337-23.159-44.622-.873-9.399.297-18.879 3.738-27.306 9.835-23.887 34.448-30.414 55.033-14.557 20.584 15.856 29.31 48.041 19.474 71.927z" opacity="1" data-original="#231f20" class=""></path><path fill="#231f20" d="M324.903 306.111c-1.666 4.109-3.858 7.708-6.49 10.669-5.609 6.476-13.126 10.173-21.406 10.218-6.862.067-13.753-2.388-19.936-7.175-12.104-9.3-19.329-25.467-19.857-41.563-.294-7.444.865-14.81 3.646-21.492 5.347-13.002 15.753-20.827 27.859-20.943 6.862-.067 13.751 2.428 19.973 7.232 17.644 13.568 24.928 41.85 16.211 63.054z" opacity="1" data-original="#231f20" class=""></path><path fill="#a2eeff" d="M318.413 316.78c-5.609 6.476-13.126 10.173-21.406 10.218-6.862.067-13.753-2.388-19.936-7.175-12.104-9.3-19.329-25.467-19.857-41.563 8.216-1.922 18.232-.453 28.685 4.861 14.258 7.247 26.069 20.002 32.514 33.659z" opacity="1" data-original="#a2eeff"></path><ellipse cx="292.87" cy="281.43" fill="#231f20" rx="15.082" ry="19.733" transform="rotate(-15.63 293.24 281.951)" opacity="1" data-original="#231f20" class=""></ellipse><g fill="#fff"><ellipse cx="282.831" cy="250.15" rx="19.371" ry="15.646" transform="rotate(-17.33 282.666 250.017)" fill="#ffffff" opacity="1" data-original="#ffffff"></ellipse><ellipse cx="302.601" cy="309.093" rx="19.371" ry="15.646" transform="rotate(-17.33 302.427 308.928)" fill="#ffffff" opacity="1" data-original="#ffffff"></ellipse><circle cx="314.154" cy="268.842" r="13.538" fill="#ffffff" opacity="1" data-original="#ffffff"></circle><circle cx="320.952" cy="283.517" r="8.817" fill="#ffffff" opacity="1" data-original="#ffffff"></circle></g></g><path fill="#231f20" d="M356.472 260.417a95.956 95.956 0 0 0-.85-6.112c4.3 1.306 13.103 3.265 17.644-.829-6.941.329-15.807-6.803-20.64-11.259-5.2-15.795-15.917-31.364-36.848-39.598-7.317-2.879-13.836-4.197-19.691-4.529-5.679-3.483-13.521-8.904-16.67-13.969.388 7.332 2.696 11.959 4.89 14.75-19.385 3.973-27.823 19.838-27.823 19.838l11.608.015-1.758 10.417s28.661-18.058 54.255-3.93 33.188 40.5 35.725 58.223c.479-3.673.819-8.514.717-14.015 2.689 2.571 10.048 8.396 17.32 3.326-8.516.681-14.483-6.529-17.879-12.328z" opacity="1" data-original="#231f20" class=""></path><circle cx="283.75" cy="287.679" r="8.817" fill="#ffffff" opacity="1" data-original="#ffffff"></circle><path fill="#61daff" d="M331.609 324.256c-.309-.24-13.524 1.219-11.522-8.05s17.287-3.321 21.111-8.289 7.142-13.946 13.191-10.324c6.05 3.623 2.451 12.593 1.537 14.643s-2.445 10.308 4.271 12.028 11.396 7.687 11.106 12.675c0 0-1.267 15.518-21.331 29.906-1.634-13.392-11.003-13.647-16.561-18.409s5.573-18.446-1.802-24.18z" opacity="1" data-original="#61daff"></path><path fill="#ffffff" d="M205.751 255.93s1.858-58.372-40.428-42.414-40.642 70.423-32.442 80.82c14.749 18.704 70.666 12.942 72.87-38.406z" opacity="1" data-original="#ffffff"></path><g clip-path="url(#o)"><path fill="#231f20" d="M145.376 293.281c1.194 5.188 3.083 9.535 5.434 13.128 7.918 11.928 21.33 14.454 34.07 4.671 10.688-8.182 18.279-23.004 20.835-38.563 1.428-8.456 1.354-17.157-.488-25.09-5.28-22.495-22.929-30.469-39.465-17.795-16.535 12.675-25.666 41.154-20.386 63.649z" opacity="1" data-original="#231f20" class=""></path><path fill="#231f20" d="M149.577 290.078c.889 3.868 2.209 7.316 3.908 10.223 3.606 6.344 8.855 10.325 14.971 11.055 5.066.632 10.365-1.021 15.334-4.85 9.721-7.431 16.409-21.499 18.139-36.063.838-6.731.594-13.512-.905-19.807-2.869-12.244-9.909-20.212-18.847-21.326-5.066-.632-10.367 1.058-15.365 4.899-14.172 10.844-21.912 35.901-17.235 55.869z" opacity="1" data-original="#231f20" class=""></path><path fill="#a2eeff" d="M153.485 300.301c3.606 6.344 8.855 10.325 14.971 11.055 5.066.632 10.365-1.021 15.334-4.85 9.721-7.431 16.409-21.499 18.139-36.063-5.913-2.428-13.439-1.93-21.608 2.022-11.141 5.389-20.934 15.979-26.836 27.836z" opacity="1" data-original="#a2eeff"></path><ellipse cx="175.31" cy="270.35" fill="#231f20" rx="17.778" ry="11.345" transform="rotate(-76.77 175.275 270.22)" opacity="1" data-original="#231f20" class=""></ellipse><g fill="#fff"><ellipse cx="185.337" cy="242.801" rx="13.326" ry="15.413" transform="rotate(-33.6 185.094 242.725)" fill="#ffffff" opacity="1" data-original="#ffffff"></ellipse><ellipse cx="165.813" cy="294.642" rx="13.326" ry="15.413" transform="rotate(-33.6 165.559 294.521)" fill="#ffffff" opacity="1" data-original="#ffffff"></ellipse><ellipse cx="160.627" cy="257.154" rx="12.342" ry="10.063" transform="rotate(-87.14 160.5 257.067)" fill="#ffffff" opacity="1" data-original="#ffffff"></ellipse><ellipse cx="154.38" cy="269.904" rx="8.038" ry="6.554" transform="rotate(-87.14 154.252 269.81)" fill="#ffffff" opacity="1" data-original="#ffffff"></ellipse></g></g><path fill="#231f20" d="M130.098 245.024c.325-1.795.699-3.624 1.137-5.476-3.287.827-9.957 1.871-12.973-2.223 5.103.877 12.25-4.856 16.194-8.498 5.159-13.9 14.378-27.135 30.535-32.863 5.648-2.003 10.577-2.656 14.932-2.47 4.488-2.688 10.736-6.953 13.485-11.287-.897 6.621-2.989 10.628-4.843 12.978 13.998 5.22 18.913 20.32 18.913 20.32l-8.581-.954.431 9.6s-19.681-18.774-39.775-8.086c-20.095 10.688-27.905 33.987-31.256 49.858-.048-3.373.104-7.794.637-12.778-2.202 2.109-8.126 6.782-13.079 1.576 6.238 1.329 11.25-4.717 14.243-9.697z" opacity="1" data-original="#231f20" class=""></path><ellipse cx="181.579" cy="275.822" fill="#ffffff" rx="8.038" ry="6.554" transform="rotate(-87.14 181.438 275.73)" opacity="1" data-original="#ffffff"></ellipse><path fill="#61daff" d="M157.762 306.963c-6.808 6.398 5.559 18.978.466 24.241-3.266 3.379-8.261 5.053-11.522 9.388-7.818-9.376-13.807-19.79-17.544-30.9l.135-.047c6.525-2.344 4.234-10.427 3.13-12.378-1.103-1.951-5.523-10.551.155-14.726 5.689-4.166 9.829 4.457 14.104 9.045 4.274 4.588 18.935-2.763 21.796 6.278 2.862 9.041-10.432 8.822-10.72 9.099z" opacity="1" data-original="#61daff"></path><path fill="#231f20" d="M200.519 322.727c1.362-4.239 6.312-6.915 10.087-8.916 8.727-3.986 18.735-.789 26.631 3.754 3.112 2.051 8.417 5.61 8.709 9.424a3.702 3.702 0 0 0 2.187 4.757c4.34 1.265 6.608-3.641 3.52-6.692-8.485-13.322-27.738-21.346-42.749-15.099-5.46 2.156-8.764 6.533-13.147 10.189-4.695 4.098 3.883 8.759 4.762 2.583zM332.275 492.67a1.501 1.501 0 0 1-1.487-1.718c.207-1.407 5.292-34.606 24.671-47.394 7.414-4.892 15.95-6.112 25.366-3.625a1.499 1.499 0 0 1 1.067 1.833 1.497 1.497 0 0 1-1.833 1.067c-8.553-2.258-16.272-1.173-22.943 3.226-18.257 12.042-23.311 44.999-23.359 45.33a1.5 1.5 0 0 1-1.482 1.281z" opacity="1" data-original="#231f20" class=""></path><path fill="url(#a)" d="M370.172 240.178s28.632 54.347-7.243 88.603c29.277 17.67 72.301-29.265 56.55-68.532-15.752-39.268-49.307-20.071-49.307-20.071z" opacity="1" data-original="url(#a)" class=""></path><path fill="#231f20" d="M372.85 333.859a27.906 27.906 0 0 1-10.697-3.794 1.498 1.498 0 0 1-.26-2.369c34.628-33.064 7.232-86.286 6.952-86.819a1.501 1.501 0 0 1 .583-2.001c.596-.342 14.775-8.299 29.423-3.205 9.552 3.323 16.961 11.405 22.021 24.019 9.907 24.698-2.486 50.32-18.193 63.675-9.66 8.211-20.215 11.811-29.829 10.494zm-7.441-5.419c10.526 5.304 23.578 2.627 35.325-7.36 15.389-13.084 26.291-37.989 17.352-60.273-4.718-11.762-11.514-19.263-20.198-22.294-10.97-3.828-22.044.594-25.71 2.329 1.876 3.903 7.084 15.7 9.309 30.57 3.457 23.103-2.099 42.771-16.078 57.028z" opacity="1" data-original="#231f20" class=""></path><path fill="url(#a)" d="M378.332 249.027s2.655 44.92-13.182 56.642c0 0 21.5-1.12 27.467-28.595z" opacity="1" data-original="url(#a)" class=""></path><path fill="#231f20" d="M364.946 307.155a1.5 1.5 0 0 1-.689-2.691c15.003-11.105 12.603-54.907 12.577-55.348a1.5 1.5 0 0 1 2.995-.177c.101 1.711 2.127 38.792-10.072 54.275 6.372-1.987 17.396-8.052 21.393-26.458a1.5 1.5 0 0 1 2.932.636c-6.139 28.268-28.628 29.763-28.854 29.775a1.473 1.473 0 0 1-.282-.012z" opacity="1" data-original="#231f20" class=""></path><path fill="url(#a)" d="M150.479 210.077s-32.248 46.006-15.506 87.471c-24.211 10.341-42.936-45.054-23.029-79.436s38.535-8.035 38.535-8.035z" opacity="1" data-original="url(#a)" class=""></path><path fill="#231f20" d="M127.013 300.168c-4.276-.586-8.403-2.999-12.084-7.156-13.725-15.498-18.473-51.144-4.283-75.652 6.864-11.855 14.424-18.05 22.47-18.415 10.856-.491 18.278 9.826 18.588 10.266a1.5 1.5 0 0 1 .004 1.727c-.317.454-31.58 45.835-15.343 86.049a1.5 1.5 0 0 1-.802 1.941c-2.858 1.22-5.737 1.626-8.55 1.24zm8.678-98.113a13.468 13.468 0 0 0-2.456-.112c-6.953.324-13.68 6.017-19.993 16.92-13.57 23.437-9.116 57.427 3.932 72.16 3.441 3.885 8.908 7.873 15.85 5.653-14.334-38.097 11.224-79.813 15.605-86.529-1.669-2.015-6.537-7.215-12.938-8.092z" opacity="1" data-original="#231f20" class=""></path><path fill="url(#a)" d="m142.77 216.752-16.534 24.192c-2.282 28.378 12.443 34.519 12.443 34.519-8.292-15.224 4.091-58.711 4.091-58.711z" opacity="1" data-original="url(#a)" class=""></path><path fill="#231f20" d="M138.475 276.949a1.486 1.486 0 0 1-.374-.102c-.642-.268-15.703-6.895-13.361-36.024a1.5 1.5 0 0 1 1.615-1.375c.84.077 1.442.789 1.375 1.615-1.436 17.861 3.916 26.473 7.811 30.302-4.611-18.085 5.319-53.388 5.785-55.025a1.499 1.499 0 1 1 2.885.821c-.122.429-12.121 43.071-4.217 57.583a1.501 1.501 0 0 1-1.519 2.205z" opacity="1" data-original="#231f20" class=""></path><path fill="url(#a)" d="M217.28 84.941s59.927-19.827 114.901 5.269 5.332 90.234-48.46 79.084c-53.793-11.15-66.441-84.353-66.441-84.353z" opacity="1" data-original="url(#a)" class=""></path><path fill="url(#a)" d="M443.875 264.348c-33.385-44.687-13.376-88.916-35.106-127.477-10.576-18.768-32.882-44.075-87.024-55.141l47.896 132.805c.562 4.128 7.369 48.623 46.96 67.987 22.677 11.092 44.305 8.164 52.692 6.558-6.779-4.841-16.508-12.805-25.418-24.732z" opacity="1" data-original="url(#a)" class=""></path><path fill="#231f20" d="M440.641 291.332c-7.761-1.063-16.194-3.303-24.699-7.463-39.966-19.547-47.105-64.115-47.787-69.133a1.5 1.5 0 1 1 2.973-.403c.66 4.855 7.565 47.978 46.133 66.842 18.773 9.181 37.229 8.658 48.297 7.017-8.796-6.673-16.483-14.379-22.885-22.946-18.901-25.3-20.902-50.212-22.837-74.303-1.512-18.819-2.94-36.594-12.373-53.335-15.563-27.618-44.503-45.924-86.019-54.409a1.5 1.5 0 0 1-1.169-1.77 1.492 1.492 0 0 1 1.77-1.169c42.405 8.667 72.022 27.465 88.03 55.874 9.757 17.315 11.211 35.41 12.75 54.567 1.901 23.668 3.867 48.141 22.251 72.748 6.901 9.237 15.342 17.449 25.089 24.409a1.501 1.501 0 0 1-.589 2.694c-6.518 1.249-16.918 2.426-28.935.78z" opacity="1" data-original="#231f20" class=""></path><path fill="url(#a)" d="m321.231 153.971.026-.008a58.294 58.294 0 0 0-1.453-2.37c.494.783.967 1.576 1.427 2.378z" opacity="1" data-original="url(#a)" class=""></path><path fill="url(#a)" d="M369.276 196.126c-8.25-36.476-22.915-49.437-22.915-49.437l-25.104 7.274c12.56 21.538 6.782 43.976 6.782 43.976 17.468 77.119 79.843 64.033 79.843 64.033-16.124-5.43-30.356-29.37-38.606-65.846z" opacity="1" data-original="url(#a)" class=""></path><path fill="url(#a)" d="M236.008 288.481c41.826 4.82 82.965-60.023 71.686-109.906 11.836 48.65-3.654 73.072-3.654 73.072 29.532-45.179 30.057-75.274 17.192-97.677l-38.875 11.264c1.352 1.459-12.166 93.012-46.349 123.247z" opacity="1" data-original="url(#a)" class=""></path><path fill="#231f20" d="M235.805 289.967a1.5 1.5 0 0 1-.79-2.609c32.036-28.336 46.567-115.096 45.934-121.606a1.5 1.5 0 0 1 2.508-1.538c.483.521.536 1.194.471 2.505-.419 8.451-12.848 89.039-44.396 120.506 14.473.365 29.434-7.574 42.488-22.644 20.876-24.102 30.611-59.705 23.896-87.014-.09-.356-.18-.713-.273-1.071a1.5 1.5 0 0 1 2.903-.757c.102.387.201.776.297 1.165 6.99 27.811 5.234 47.863 2.227 60.296 19.277-34.422 21.698-62.264 7.466-84.806a1.5 1.5 0 0 1 2.526-1.619c13.85 21.3 9.276 43.927 8.519 47.175 7.143 31.191 22.387 51.199 45.309 59.467 11.18 4.032 21.579 4.139 27.525 3.711-14.667-8.421-27.098-31.497-34.602-64.672-8.021-35.465-22.304-48.517-22.447-48.645a1.5 1.5 0 0 1 1.988-2.246c.614.542 15.122 13.701 23.384 50.23 7.985 35.303 22.049 59.511 37.621 64.756a1.5 1.5 0 0 1-.171 2.89c-.654.138-16.215 3.285-34.184-3.153-15.745-5.64-36.101-19.982-45.962-56.128-3.685 14.679-11.261 30.734-22.748 48.309a1.5 1.5 0 0 1-2.521-1.626c.118-.188 9.135-14.947 7.701-43.807-2.389 21.037-11.597 42.664-26.188 59.51-14.733 17.009-31.939 25.328-48.45 23.425l-.031-.004zm45.449-123.716.003.003-.003-.003zm-.003-.002.002.002-.002-.002z" opacity="1" data-original="#231f20" class=""></path><path fill="url(#a)" d="M309.703 268.602s-48.924-4.707-18.429-100.964L222.58 78.367c-38.819 7.73-80.797 35.119-99.115 111.711-4.286 17.92-34.048 34.088-34.048 34.088s63.131 19.728 86.297-33.45c.465-.992.78-2.17 1.029-3.5-.106 1.332-.246 2.547-.494 3.622-1.743 7.582-10.416 31.49-27.331 43.189 0 0 32.495 11.745 59.249-55.186 0 0-5.421 56.26 21.069 86.922s56.488 21.665 56.488 21.665-45.024-6.371-43.388-86.549c-1.706 82.053 67.367 67.723 67.367 67.723z" opacity="1" data-original="url(#a)" class=""></path><path fill="#231f20" d="M267.75 289.576c-11.211-1.535-25.963-6.993-39.646-22.832-20.65-23.901-22.288-62.345-21.881-79.442-10.559 23.61-23.008 38.93-37.068 45.587-11.895 5.633-20.388 2.679-20.743 2.549a1.502 1.502 0 0 1-.343-2.645c10.406-7.197 17.643-19.214 21.993-28.951-12.897 18.062-31.522 23.701-46.043 25.034-18.762 1.722-34.39-3.073-35.046-3.279a1.5 1.5 0 0 1-.269-2.75c.292-.159 29.225-16.06 33.305-33.119 8.456-35.356 22.679-63.079 42.275-82.398 15.927-15.703 35.443-25.943 58.006-30.435a1.5 1.5 0 1 1 .585 2.943c-49.816 9.919-82.771 47.126-97.949 110.588-3.583 14.983-23.664 28.412-31.602 33.21 5.61 1.312 17.398 3.463 30.511 2.244 24.154-2.245 41.147-14.278 50.507-35.763.403-.86.689-1.913.918-3.111.058-.745.106-1.534.157-2.364.489-7.999 1.228-20.087 14.069-33.623a1.5 1.5 0 0 1 2.181 2.06c-10.568 11.235-11.849 21.914-12.784 29.712-.2 1.661-.385 3.212-.646 4.624-.111 1.366-.26 2.613-.522 3.759-1.659 7.221-9.704 29.508-25.184 42.022 3.253.319 8.833.124 15.597-3.141 10.15-4.899 25.094-17.857 38.65-51.77a1.494 1.494 0 0 1 1.746-.901 1.5 1.5 0 0 1 1.14 1.601c-.054.556-5.047 55.984 20.711 85.798 18.454 21.36 38.743 22.979 48.702 22.193-4.435-1.821-10.61-5.276-16.744-11.721-10.246-10.769-22.275-32.349-21.501-74.025l.007-.366.001-.015v-.001a1.5 1.5 0 0 1 3 .062v.001l-.001.072-.005.244c-.479 25.697 6.023 44.34 19.326 55.411 13.065 10.874 29.81 11.801 39.146 11.288-4.265-1.939-9.677-5.575-14.159-12.357-11.796-17.847-11.224-47.584 1.702-88.383a1.5 1.5 0 0 1 2.86.906c-15.743 49.691-9.809 74.098-2.059 85.823 7.919 11.98 19.093 13.186 19.202 13.194a1.49 1.49 0 0 1 1.354 1.412 1.5 1.5 0 0 1-1.193 1.55c-1.158.24-28.55 5.683-48.75-11.11-5.484-4.558-9.873-10.297-13.158-17.187 4.093 15.332 10.467 25.12 16.248 31.247 10.568 11.203 21.482 12.907 21.592 12.923a1.501 1.501 0 0 1 .217 2.922c-.157.045-7.655 2.183-18.412.71z" opacity="1" data-original="#231f20" class=""></path><path fill="url(#a)" d="m406.561 175.559 11.798 51.096c29.406 10.987 42.243-9.159 42.243-9.159-39.187-1.762-54.041-41.937-54.041-41.937z" opacity="1" data-original="url(#a)" class=""></path><path fill="#231f20" d="M429.234 231.012c-3.501-.48-7.298-1.419-11.4-2.952a1.5 1.5 0 1 1 1.05-2.81c22.406 8.374 34.62-1.765 38.8-6.454-37.613-3.508-52.382-42.315-52.53-42.717a1.5 1.5 0 0 1 2.813-1.041c.146.392 14.989 39.259 52.702 40.959a1.5 1.5 0 0 1 1.198 2.304c-.117.183-10.367 15.761-32.633 12.711z" opacity="1" data-original="#231f20" class=""></path><path fill="url(#a)" d="M103.583 143.521s6.945 22.856 38.223 20.184l25.107-46.039c0-.001-25.113 34.699-63.33 25.855z" opacity="1" data-original="url(#a)" class=""></path><path fill="#231f20" d="M130.16 164.976c-22.27-3.05-27.949-20.812-28.012-21.02a1.503 1.503 0 0 1 1.774-1.898c36.778 8.511 61.532-24.935 61.778-25.274a1.5 1.5 0 0 1 2.43 1.76c-.25.346-24.912 33.714-62.085 27.013 2.764 5.638 11.803 18.687 35.634 16.651a1.5 1.5 0 0 1 .255 2.989c-4.361.375-8.274.258-11.774-.221z" opacity="1" data-original="#231f20" class=""></path><g fill="#231f20"><path d="M275.624 153.02s-6.011.888-4.605 6.74c1.405 5.851 39.421 30.945 89.147 45.441 4.601.876 1.52-2.466-6.663-6.058-64.597-28.36-70.106-49.196-77.879-46.123zM204.873 149.509s5.891 1.489 3.903 7.169c-1.987 5.68-20.576 16.557-71.509 25.973-4.666.409-1.309-2.751 7.239-5.357 47.255-14.401 52.944-31.624 60.367-27.785z" fill="#231f20" opacity="1" data-original="#231f20" class=""></path></g></g></svg>