<svg xmlns="http://www.w3.org/2000/svg" version="1.1" xmlns:xlink="http://www.w3.org/1999/xlink" width="512" height="512" x="0" y="0" viewBox="0 0 512 512" style="enable-background:new 0 0 512 512" xml:space="preserve" class=""><g><linearGradient id="a"><stop offset="0" stop-color="#d6448e"></stop><stop offset="1" stop-color="#feadbc"></stop></linearGradient><linearGradient xlink:href="#a" id="c" x1="276.489" x2="291.829" y1="378.181" y2="162.655" gradientUnits="userSpaceOnUse"></linearGradient><radialGradient id="d" cx="292.831" cy="437.077" r="157.126" gradientUnits="userSpaceOnUse"><stop offset="0" stop-color="#bcbec0"></stop><stop offset=".401" stop-color="#e6e7e8"></stop><stop offset=".457" stop-color="#efeff0"></stop><stop offset=".585" stop-color="#fff"></stop><stop offset="1" stop-color="#fff"></stop></radialGradient><radialGradient id="e" cx="277.133" cy="432.885" r="115.936" gradientUnits="userSpaceOnUse"><stop offset="0" stop-color="#fdecda"></stop><stop offset=".452" stop-color="#fdead8"></stop><stop offset=".653" stop-color="#fce4d1"></stop><stop offset=".803" stop-color="#fbdac4"></stop><stop offset=".928" stop-color="#f9cbb2"></stop><stop offset="1" stop-color="#f7bfa4"></stop></radialGradient><linearGradient id="f" x1="278.139" x2="278.649" y1="345.49" y2="406.511" gradientUnits="userSpaceOnUse"><stop offset="0" stop-color="#f7bfa4"></stop><stop offset=".316" stop-color="#f7c2a7"></stop><stop offset=".561" stop-color="#f8cab1"></stop><stop offset=".782" stop-color="#fad7c1"></stop><stop offset=".988" stop-color="#fdebd8"></stop><stop offset="1" stop-color="#fdecda"></stop></linearGradient><linearGradient xlink:href="#a" id="g" x1="144.723" x2="144.723" y1="364.859" y2="258.289" gradientTransform="rotate(2.87 412.027 210.595)" gradientUnits="userSpaceOnUse"></linearGradient><linearGradient id="b"><stop offset="0" stop-color="#f7bfa4"></stop><stop offset=".289" stop-color="#f8c8af"></stop><stop offset=".796" stop-color="#fbe1cc"></stop><stop offset="1" stop-color="#fdecda"></stop></linearGradient><radialGradient xlink:href="#b" id="h" cx="263.667" cy="139.062" r="191.22" gradientTransform="matrix(.993 -.121 .098 .803 -23.295 57.912)" gradientUnits="userSpaceOnUse"></radialGradient><radialGradient id="i" cx="-2143.454" cy="-208.113" r="62.293" gradientTransform="matrix(-.605 -.43 -.324 .456 -1206.606 -530.862)" gradientUnits="userSpaceOnUse"><stop offset="0" stop-color="#f7bfa4"></stop><stop offset=".786" stop-color="#fdecda"></stop></radialGradient><radialGradient xlink:href="#b" id="j" cx="415.954" cy="239.38" r="46.176" gradientTransform="rotate(2.87 412.027 210.595)" gradientUnits="userSpaceOnUse"></radialGradient><radialGradient xlink:href="#b" id="k" cx="400.052" cy="284.826" r="38.131" gradientTransform="rotate(2.87 412.027 210.595)" gradientUnits="userSpaceOnUse"></radialGradient><radialGradient id="l" cx="313.381" cy="496.365" r="62.293" gradientTransform="matrix(.988 -.156 .087 .553 -19.308 88.956)" gradientUnits="userSpaceOnUse"><stop offset="0" stop-color="#f7bfa4"></stop><stop offset="1" stop-color="#fdecda"></stop></radialGradient><radialGradient xlink:href="#b" id="m" cx="137.338" cy="384.945" r="52.639" gradientTransform="translate(-1.578 -1.459)" gradientUnits="userSpaceOnUse"></radialGradient><radialGradient xlink:href="#b" id="n" cx="116.921" cy="414.319" r="66.218" gradientUnits="userSpaceOnUse"></radialGradient><radialGradient xlink:href="#b" id="o" cx="116.817" cy="409.022" r="58.904" gradientTransform="translate(-1.578 -1.459)" gradientUnits="userSpaceOnUse"></radialGradient><clipPath id="p"><path d="M257.703 263.609s4.324-58.932 54.739-38.084 42.21 75.452 30.904 84.982c-20.337 17.143-88.743 5.007-85.643-46.898z" fill="#000000" opacity="1" data-original="#000000"></path></clipPath><clipPath id="q"><path d="M202.837 256.149s1.713-53.838-37.288-39.12-37.485 64.953-29.922 74.543c13.604 17.251 65.177 11.937 67.21-35.423z" fill="#000000" opacity="1" data-original="#000000"></path></clipPath><path fill="url(#a)" d="M471.112 336.315c8.68-52.94-6.86-74.61-6.86-74.61s.32 1.2.78 3.41c9.23 44.17-2.92 86.6-35.1 113.59 4.96-12.18 9.43-29.87 6.52-50.62-.72 26.01-11.7 47.63-19.82 60.16-6.88 4.23-14.43 7.86-22.66 10.8 4.1-6.3 10.12-16.56 11.84-24.83-7.49 11.95-14.53 21.43-19.02 27.18-6.04 1.82-12.42 3.28-19.12 4.36l-11.77 1.86c5.7-7.98 13.68-21.26 17.1-36.98-6.71 18.1-19.09 31.33-27.27 38.6h-.01l-40.61 6.43-102.43-11.33c-14.18-1.03-26.89-3.17-38.23-6.25h-.01c-6.84-7.82-14.33-19.39-15.81-35.49 0 0-2.87 17.26 9.05 33.49-15.96-5.1-28.98-12.17-39.39-20.6-.78-5.74-1.19-12.45-.81-20.26 0 0-2.23 7.47-2.45 17.5-47.44-41.95-35.16-113.94-.15-148.82.88-.87.94-2.3 1.42-3.46-2.79-10.89-15.61-63.15 39.54-120.45 41.79-41.39 149.42-79.32 231.12-10.21 65.7 21.45 58.41 119.01 57.89 126.92 35.59 25.15 45.7 72.89 26.26 119.61z" opacity="1" data-original="url(#a)"></path><path fill="#231f20" d="M305.112 417.165a1.52 1.52 0 0 1-.165-.009l-102.43-11.33c-13.812-1.002-26.758-3.118-38.422-6.284a1.503 1.503 0 0 1-.781-.47c-4.807-5.496-8.575-11.336-11.283-17.475a46.088 46.088 0 0 0 6.861 13.6 1.5 1.5 0 0 1-1.665 2.316c-15.471-4.943-28.887-11.963-39.877-20.863a1.496 1.496 0 0 1-.542-.963c-.117-.86-.223-1.726-.319-2.598a1.5 1.5 0 0 1-2.449.759c-25.097-22.193-31.046-49.743-31.618-68.947-.905-30.417 11.128-61.86 31.403-82.06.3-.297.466-.909.642-1.558.082-.302.165-.61.269-.921-5.995-23.86-8.542-70.945 40.028-121.409 18.572-18.396 54.96-40.379 101.463-46.987 34.453-4.895 85.207-2.532 131.482 36.483 27.578 9.118 45.838 32.188 54.274 68.574 5.564 23.995 5.187 47.025 4.423 58.945 17.344 12.506 28.981 30.514 33.681 52.133 4.722 21.726 2.098 45.512-7.588 68.789a1.5 1.5 0 0 1-2.865-.819c4.876-29.74 1.98-49.554-1.372-61.039 5.611 41.555-7.982 80.178-37.363 104.821a1.5 1.5 0 0 1-2.354-1.715c3.127-7.678 6.376-18.443 7.15-31.222-3.71 17.5-11.267 32.058-17.803 42.144a1.501 1.501 0 0 1-.473.462c-7.057 4.339-14.774 8.018-22.94 10.935a1.5 1.5 0 0 1-1.762-2.231c1.878-2.888 4.489-7.127 6.803-11.693a322.406 322.406 0 0 1-11.544 15.784 1.507 1.507 0 0 1-.75.513c-6.115 1.843-12.613 3.325-19.314 4.405l-11.773 1.86a1.501 1.501 0 0 1-1.455-2.354c3.095-4.333 6.698-9.999 9.898-16.629-5.829 8.622-12.415 15.411-17.852 20.242a1.496 1.496 0 0 1-.828.37l-40.554 6.421c-.078.014-.158.02-.236.02zm-139.841-20.413c11.378 3.057 23.998 5.104 37.52 6.086l102.286 11.313 39.987-6.332c8.654-7.754 20.156-20.511 26.531-37.707a1.5 1.5 0 0 1 2.872.84c-3.056 14.047-9.67 26.19-15.336 34.632l8.306-1.312c6.399-1.032 12.61-2.437 18.466-4.178 4.567-5.87 11.418-15.157 18.639-26.677a1.499 1.499 0 0 1 2.739 1.102c-1.431 6.881-5.66 14.991-9.656 21.544 6.328-2.516 12.343-5.507 17.933-8.92 8.511-13.206 18.703-34.093 19.396-59.101a1.499 1.499 0 0 1 2.984-.167c2.57 18.328-.604 34.251-4.49 45.693 27.669-26.121 38.91-66.067 30.116-108.148-.443-2.134-.758-3.318-.761-3.33a1.499 1.499 0 0 1 2.668-1.261c.589.82 13.082 18.854 8.97 61.611 12.235-41.643.78-82.44-30.453-104.512a1.5 1.5 0 0 1-.632-1.323l.021-.307c.774-11.592 1.243-34.619-4.316-58.598-8.212-35.415-25.896-57.786-52.563-66.492a1.496 1.496 0 0 1-.503-.281C302.576 20.364 195.622 62.705 156.9 101.058c-47.847 49.712-45.063 95.904-39.143 119.012.081.314.057.646-.067.945-.125.302-.224.666-.328 1.05-.259.957-.553 2.042-1.424 2.903-19.703 19.63-31.398 50.225-30.517 79.842.535 17.995 5.938 43.547 28.252 64.637.541-8.433 2.29-14.376 2.373-14.654a1.493 1.493 0 0 1 1.69-1.049 1.5 1.5 0 0 1 1.245 1.551c-.325 6.684-.083 13.206.72 19.395 9.617 7.691 21.133 13.926 34.294 18.571-9.286-15.335-6.954-30.239-6.841-30.915a1.488 1.488 0 0 1 1.534-1.253 1.5 1.5 0 0 1 1.439 1.362c1.16 12.631 6.116 23.855 15.144 34.297z" opacity="1" data-original="#231f20" class=""></path><path fill="url(#d)" d="M408.027 491.17h-253.48c0-60.17 21.66-68.43 59.88-88.7v-.01c4.11-2.17 8.41-4.49 12.89-7.03 25.72-14.56 66.76-16.83 90.21-4.24 2.85 1.52 5.69 3.08 8.54 4.65a762.126 762.126 0 0 1 32.17 18.73c18.64 11.49 27.83 21.2 36.51 36.77 8.5 15.26 11.75 29.11 13.28 39.83z" opacity="1" data-original="url(#d)"></path><path fill="#231f20" d="M409.757 492.67h-256.71v-1.5c0-58.096 20.749-69.012 55.125-87.096 1.555-.818 3.14-1.652 4.755-2.507v-.001l.8-.432a482.324 482.324 0 0 0 12.851-7.008c26.729-15.131 67.845-17.041 91.66-4.257a714.756 714.756 0 0 1 8.507 4.632 758.964 758.964 0 0 1 32.281 18.793c18.257 11.254 27.947 21.019 37.033 37.316 6.962 12.5 11.363 25.698 13.455 40.349zm-253.705-3h250.234c-2.13-13.599-6.341-25.916-12.85-37.6-8.804-15.792-18.221-25.272-35.986-36.223-10.327-6.364-20.78-12.453-31.956-18.613-.027-.016-.041-.022-.009-.011l-.142-.069a708.257 708.257 0 0 0-8.522-4.64c-22.623-12.146-63.27-10.212-88.765 4.222a476.247 476.247 0 0 1-12.225 6.679l-.701.38c-1.895 1.005-3.748 1.98-5.561 2.934-34.201 17.993-53.179 27.98-53.517 82.941zm169.454-92.439h.002z" opacity="1" data-original="#231f20" class=""></path><path fill="url(#e)" d="M326.067 395.84c-1.73 29.55-26.23 52.97-56.21 52.97-27.7 0-50.72-20-55.43-46.34v-.01c4.11-2.17 8.41-4.49 12.89-7.03 25.72-14.56 66.76-16.83 90.21-4.24 2.85 1.52 5.69 3.08 8.54 4.65z" opacity="1" data-original="url(#e)" class=""></path><path fill="#231f20" d="M269.857 450.31c-28.044 0-51.978-20.009-56.907-47.576l-.023-.264v-.904l.8-.432a482.324 482.324 0 0 0 12.851-7.008c26.729-15.131 67.845-17.041 91.66-4.257a722.722 722.722 0 0 1 8.554 4.658l.829.457-.056.945c-1.786 30.493-27.134 54.381-57.708 54.381zm-53.752-47.04c5.091 25.585 27.525 44.041 53.752 44.041 28.672 0 52.497-22.157 54.649-50.617a658.805 658.805 0 0 0-7.686-4.18c-22.623-12.145-63.27-10.211-88.765 4.222a475.715 475.715 0 0 1-11.95 6.534z" opacity="1" data-original="#231f20" class=""></path><path fill="#8b5e3c" d="m181.642 455.13 22.1-47.619 29.57-14.686-24.463 62.09 111.094 4.851-6.739-70.879 30.582 18.794 5.774 83.489H178.297z" opacity="1" data-original="#8b5e3c" class=""></path><path fill="#231f20" d="M351.167 492.67H176.651l3.521-37.937 22.431-48.333 33.533-16.654-25.12 63.761 107.27 4.684-6.861-72.158 33.804 20.773.053.77zm-171.225-3h168.01l-5.61-81.116-27.36-16.814 6.617 69.6-114.916-5.018 23.804-60.419-25.605 12.718-21.77 46.907z" opacity="1" data-original="#231f20" class=""></path><path fill="#231f20" d="M191.932 467.901c-3.855 0-7.495-1.205-9.702-4.018-2.25-2.868-2.372-6.438-2.078-8.929l2.979.352c-.228 1.93-.16 4.663 1.459 6.726 3.363 4.287 11.322 3.16 15.775.698 4.193-2.318 6.242-6.239 7.09-8.37l2.787 1.109c-.996 2.503-3.416 7.116-8.426 9.886-2.9 1.604-6.476 2.546-9.884 2.546zM334.263 474.76c-3.123 0-6.318-1.081-9.027-3.096-3.708-2.758-6.179-7.025-6.78-11.706l2.975-.383c.506 3.936 2.493 7.374 5.596 9.682 2.684 1.995 5.917 2.858 8.886 2.37 5.061-.836 9.195-5.436 10.056-11.185l2.967.443c-1.05 7.021-6.204 12.655-12.534 13.701-.707.117-1.422.174-2.139.174z" opacity="1" data-original="#231f20" class=""></path><circle cx="195.193" cy="453.574" r="7.532" fill="#ffffff" opacity="1" data-original="#ffffff"></circle><path fill="#231f20" d="M195.193 461.606c-4.429 0-8.032-3.603-8.032-8.032s3.603-8.032 8.032-8.032 8.032 3.603 8.032 8.032-3.603 8.032-8.032 8.032zm0-15.064c-3.877 0-7.032 3.155-7.032 7.032s3.154 7.032 7.032 7.032 7.032-3.154 7.032-7.032-3.155-7.032-7.032-7.032z" opacity="1" data-original="#231f20" class=""></path><circle cx="333.696" cy="461.106" r="7.532" fill="#ffffff" opacity="1" data-original="#ffffff"></circle><path fill="#231f20" d="M333.696 469.138c-4.429 0-8.032-3.603-8.032-8.032s3.604-8.032 8.032-8.032 8.032 3.603 8.032 8.032-3.603 8.032-8.032 8.032zm0-15.063c-3.878 0-7.032 3.154-7.032 7.032s3.154 7.032 7.032 7.032 7.032-3.154 7.032-7.032-3.154-7.032-7.032-7.032z" opacity="1" data-original="#231f20" class=""></path><path fill="url(#f)" d="m310.962 353.616-5.489 38.011c-.775 5.367-3.268 10.366-7.204 14.094-5.854 5.545-15.797 11.94-29.701 10.535-23.752-2.399-22.806-26.533-22.806-26.533l4.441-33.959z" opacity="1" data-original="url(#f)"></path><path fill="#231f20" d="m306.958 391.841 5.742-39.761a.023.023 0 0 0-.023-.026l-63.777 2.255c-.011 0-.02.009-.022.02l-4.411 33.734a1.5 1.5 0 0 0 2.975.39l4.082-31.216c.001-.011.011-.019.022-.02l57.649-2.038c.014 0 .025.012.023.026l-5.228 36.207a19.8 19.8 0 0 1-.169.984 1.477 1.477 0 0 0 1.039 1.72l.028.008c.818.227 1.67-.266 1.852-1.095.086-.397.161-.793.218-1.188z" opacity="1" data-original="#231f20" class=""></path><path fill="url(#a)" d="M130.679 202.749s-1.496 76.926-30.858 129.333c17.124 11.635 58.526 18.974 58.526 18.974l24.561-145.671z" opacity="1" data-original="url(#a)"></path><path fill="#231f20" d="M158.347 352.555c-.087 0-.175-.008-.262-.023-1.704-.302-41.916-7.53-59.107-19.21a1.5 1.5 0 0 1-.466-1.974c28.835-51.468 30.651-127.863 30.667-128.628a1.5 1.5 0 0 1 1.576-1.469l52.229 2.636a1.503 1.503 0 0 1 1.404 1.748l-24.561 145.67a1.499 1.499 0 0 1-1.48 1.25zm-56.538-20.966c15.385 9.682 47.972 16.308 55.313 17.711l24.026-142.502-49.02-2.474c-.417 11.095-4.023 79.284-30.319 127.265z" opacity="1" data-original="#231f20" class=""></path><path fill="url(#b)" d="M271.44 386.899c-51.902 4.864-98.586-14.901-124.734-46.307-7.818-9.376-13.807-19.79-17.544-30.9a84.956 84.956 0 0 1-4.373-22.567c-.553-10.026.714-19.831 3.582-29.225 4.409-14.457 4.35-29.701 5.43-44.782 12.441-173.405 257.261-170.062 278.728-21.033 13.078 90.836-8.513 182.367-141.089 194.814z" opacity="1" data-original="url(#b)" class=""></path><path fill="url(#i)" d="M130.729 270.93c-12.051 16.933-4.333 43.105 17.239 58.456s48.827 14.069 60.878-2.865c12.051-16.933 4.333-43.105-17.239-58.456s-48.827-14.069-60.878 2.865z" opacity="1" data-original="url(#i)"></path><path fill="#231f20" d="M247.448 388.923c-67.107-3.386-121.184-47.281-124.161-101.715-.547-10.005.68-20.013 3.646-29.745 3.463-11.364 4.148-23.516 4.811-35.268.17-3.011.345-6.125.565-9.187 2.908-40.555 18.873-74.553 46.17-98.318 24.13-21.007 56.426-33.256 90.937-34.489 34.012-1.216 67.038 8.232 92.996 26.601 28.662 20.282 46.504 49.697 51.597 85.066 7.008 48.663 2.894 89.166-12.226 120.384-18.589 38.38-53.912 62.806-104.988 72.596a1.5 1.5 0 1 1-.565-2.947c91.766-17.591 130.394-81.384 114.809-189.607C399.803 114.263 329.8 81.047 269.523 83.197c-62.329 2.228-128.003 43.296-134.222 130.024a601.854 601.854 0 0 0-.562 9.141c-.672 11.93-1.368 24.265-4.936 35.974-2.863 9.395-4.048 19.054-3.521 28.707 2.969 54.29 58.525 97.79 126.494 99.061.822.036 1.487.7 1.472 1.527a1.5 1.5 0 0 1-1.527 1.472 161.252 161.252 0 0 1-5.273-.18z" opacity="1" data-original="#231f20" class=""></path><path fill="url(#b)" d="M435.181 256.192c-30.391-20.866-49.139 11.228-49.139 11.228-2.501 2.796-7.225 8.849-9.291 17.93-2.572 11.305.529 20.469 1.896 23.915 1.046 2.836 3.572 8.665 9.509 13.01 4.561 3.338 11.14 5.876 20.496 5.377 35.089-1.296 56.92-50.594 26.529-71.46z" opacity="1" data-original="url(#b)" class=""></path><path fill="#231f20" d="M404.249 329.165c-21.744-1.097-26.995-19.306-27.049-19.502a1.5 1.5 0 1 1 2.893-.793c.21.754 5.436 18.511 28.479 17.285 19.987-.739 33.664-16.879 37.924-31.563 4.364-15.045-.183-28.938-12.164-37.164-8.555-5.873-16.942-7.949-24.929-6.167-13.813 3.08-21.985 16.778-22.066 16.916a1.5 1.5 0 0 1-2.589-1.515c.355-.608 8.881-14.945 23.979-18.325 8.841-1.978 18.028.247 27.304 6.617 13.1 8.994 18.09 24.125 13.347 40.473-5.563 19.177-22.287 33.044-40.67 33.724a42.887 42.887 0 0 1-4.459.014z" opacity="1" data-original="#231f20" class=""></path><path fill="url(#b)" d="M402.619 279.327c-.964 4.078.033 6.233-1.66 9.646-1.137 2.292-4.212 5.396-10.615 6.479-3.231 24.092 20.952 25.045 32.729 17.61 8.892-5.615 12.699-19.024 12.223-29.444-.155-1.649-.531-5.95-3.282-9.262-2.773-3.339-5.617-4.526-8.198-5.356-3.489-1.122-10.538-2.404-15.433.819-4.165 2.741-5.414 8.026-5.764 9.508z" opacity="1" data-original="url(#b)" class=""></path><path fill="#231f20" d="m390.278 296.323-.034-.002a1 1 0 0 1 .124-1.997c.073.016 4.444.206 7.664-2.96 2.6-2.555 3.806-6.591 3.586-11.997-.174-4.28 1.728-7.878 5.357-10.132 5.453-3.387 14.092-3.288 20.541.236 5.57 3.043 8.687 8.061 8.778 14.131a1 1 0 0 1-2 .03c-.08-5.317-2.828-9.723-7.737-12.406-5.856-3.198-13.647-3.321-18.526-.292-2.115 1.314-4.598 3.829-4.413 8.352.244 6.008-1.171 10.559-4.206 13.526-3.764 3.681-8.641 3.536-9.134 3.511z" opacity="1" data-original="#231f20" class=""></path><path fill="url(#l)" d="M397.304 304.365c3.238 20.53-22.698 41.677-57.93 47.234s-66.418-6.58-69.656-27.11 22.698-41.677 57.93-47.234 66.418 6.58 69.656 27.11z" opacity="1" data-original="url(#l)" class=""></path><path fill="#feadbc" d="M408.196 168.047c-1.117-3.79-18.385-62.973-73.622-79.104-39.877-11.645-84.786 6.695-113.15 38.543-5.407 6.902-11.191 15.612-16.042 26.297-7.631 16.809-14.48 40.94-11.357 70.224 7.675 1.679 19.791 3.662 34.134 5.748.13-17.055 2.648-46.716 16.327-73.531-10.072 32.133-10.188 59.632-9.099 74.556 6.094.858 12.499 1.732 19.053 2.604-.492-5.141-.519-12.542 2.176-18.514-1.474 6.995.252 14.451 1.734 19.022 16.084 2.103 32.931 4.175 48.418 6.028-13.094-25.052-5.933-60.406-5.933-60.406-.013 33.782 7.961 51.977 15.09 61.499 28.736 3.393 50.792 5.797 50.792 5.797s-6.762 46.689-.534 64.755c2.553-9.313 6.025-23.156 8.339-37.067-1.732 24.203-5.939 41.694-5.939 41.694-3.311 27.909-14.838 55.943-14.838 55.943l52.435-1.96c-.003.001 27.954-135.376 2.016-202.128z" opacity="1" data-original="#feadbc"></path><path fill="#231f20" d="M353.666 373.633a1.498 1.498 0 0 1-1.312-2.068c.115-.279 11.489-28.176 14.736-55.55.007-.058.018-.116.031-.174.017-.072.739-3.107 1.7-8.325a466.738 466.738 0 0 1-1.194 4.445 1.499 1.499 0 0 1-2.865.092c-5.706-16.553-.877-55.548.254-63.921-5.495-.605-25.13-2.78-49.27-5.63a1.504 1.504 0 0 1-1.025-.59c-5.493-7.336-11.81-20.208-14.299-41.989-.188 11.874 1.216 26.949 7.672 39.303a1.5 1.5 0 0 1-.095 1.547c-.316.459-.85.712-1.413.638-18.405-2.202-34.248-4.175-48.433-6.03a1.5 1.5 0 0 1-1.233-1.025 53.847 53.847 0 0 1-1.204-4.31c.043 1.132.12 2.208.214 3.197a1.5 1.5 0 0 1-1.691 1.63 2563.264 2563.264 0 0 1-19.065-2.605 1.502 1.502 0 0 1-1.287-1.376c-.783-10.735-1.056-30.027 3.624-53.448-6.472 20.654-7.766 40.607-7.855 52.325a1.5 1.5 0 0 1-1.716 1.473c-15.594-2.267-27.113-4.208-34.239-5.767a1.499 1.499 0 0 1-1.171-1.306c-6.244-58.551 27.428-97.292 27.768-97.676a1.5 1.5 0 0 1 2.245 1.989c-.33.373-32.718 37.705-27.141 94.29 6.844 1.446 17.35 3.211 31.274 5.253.275-16.302 2.894-45.869 16.469-72.48a1.5 1.5 0 0 1 2.767 1.13c-9.897 31.573-10.034 58.72-9.118 72.791 5.02.704 10.387 1.438 15.997 2.187-.328-5.161-.058-11.835 2.452-17.399a1.499 1.499 0 0 1 2.835.926c-1.29 6.121-.018 12.663 1.41 17.349 13.218 1.725 27.882 3.552 44.71 5.573-11.512-24.962-5.126-57.469-4.839-58.886a1.5 1.5 0 0 1 2.97.298c-.012 33.113 7.739 50.907 14.411 60.085 28.09 3.313 49.915 5.696 50.134 5.72a1.5 1.5 0 0 1 1.322 1.706c-.061.421-5.481 38.419-1.966 58.53 2.275-8.742 4.926-20.002 6.805-31.302a1.5 1.5 0 0 1 2.976.354c-1.658 23.168-5.629 40.455-5.956 41.848-2.782 23.331-11.35 46.975-14.084 54.097l48.951-1.829c2.5-13.357 24.685-137.278.473-199.587a1.501 1.501 0 0 1 2.797-1.087c25.798 66.39-.28 201.066-.547 202.419a1.499 1.499 0 0 1-1.416 1.209l-52.435 1.959c-.041 0-.085 0-.128-.003zm52.511-3.457.01.001z" opacity="1" data-original="#231f20" class=""></path><path fill="#231f20" d="M374.521 275.999a1.5 1.5 0 0 1-1.487-1.711c5.825-40.887-4.043-78.229-4.144-78.601a1.5 1.5 0 1 1 2.897-.781c.102.378 10.132 38.287 4.218 79.805a1.504 1.504 0 0 1-1.484 1.288z" opacity="1" data-original="#231f20" class=""></path><path fill="#feadbc" d="M255.036 80.065c-13.596 1.459-47.84 5.589-79.178 31.194-45.11 36.858-50.606 90.767-51.518 102.271l49.477 5.337c.349-61.337 48.729-90.388 48.729-90.388l111.897-36.957c-14.044-5.771-42.851-15.381-79.407-11.457z" opacity="1" data-original="#feadbc"></path><path fill="#231f20" d="M122.844 213.419a1.494 1.494 0 0 0 1.335 1.603l49.477 5.337.085.007a1.5 1.5 0 0 0 1.576-1.489c.34-59.74 47.525-88.824 48.002-89.111a1.5 1.5 0 0 0-1.544-2.572c-.503.302-12.461 7.571-24.625 22.533-11.032 13.569-24.184 36.213-24.811 67.473l-46.38-5.003c1.587-17.619 8.449-55.818 37.543-87.245a1.491 1.491 0 0 0-.349-2.308l-.027-.015a1.492 1.492 0 0 0-1.829.291c-30.554 33.005-37.089 73.275-38.453 90.499z" opacity="1" data-original="#231f20" class=""></path><g fill="#231f20"><path d="M396.308 371.178a1.5 1.5 0 0 1-1.476-1.776c19.344-103.805 7.594-146.289 7.473-146.706a1.499 1.499 0 1 1 2.88-.836c.502 1.731 12.07 43.586-7.404 148.092a1.501 1.501 0 0 1-1.473 1.226zM378.694 372.334a1.5 1.5 0 0 1-1.451-1.884c16.793-63.424 13.635-101.025 13.601-101.397a1.499 1.499 0 0 1 1.358-1.629c.811-.084 1.554.532 1.63 1.358.034.377 3.238 38.506-13.688 102.437a1.502 1.502 0 0 1-1.45 1.115z" fill="#231f20" opacity="1" data-original="#231f20" class=""></path></g><path fill="url(#b)" d="M144.502 349.509s-1.307-12.062 14.251-8.846c15.559 3.217 28.088 28.702 22.869 33.63s-15.778 5.909-21.558 1.694c-5.781-4.213-15.23-12.775-15.562-26.478z" opacity="1" data-original="url(#b)" class=""></path><path fill="#231f20" d="M169.333 380.127c-3.77 0-7.445-.953-10.153-2.927-10.311-7.517-15.904-17.061-16.176-27.603-.057-.665-.321-5.302 3.068-8.38 2.801-2.544 7.17-3.226 12.985-2.022 12.305 2.544 21.876 17.256 24.47 26.398 1.312 4.626 1.01 8.012-.875 9.791-3.295 3.112-8.387 4.743-13.319 4.743zm-15.424-38.514c-2.521 0-4.463.604-5.801 1.809-2.454 2.209-2.117 5.895-2.114 5.932l.008.119c.235 9.731 5.264 18.245 14.946 25.303 5.119 3.731 14.851 2.953 19.645-1.573.753-.711 1.161-2.868.048-6.791-2.488-8.77-11.584-22.086-22.191-24.28-1.677-.346-3.192-.519-4.541-.519z" opacity="1" data-original="#231f20" class=""></path><path fill="url(#b)" d="M129.354 412.477s-2.29 73.586 7.667 78.693h53s-5.077-72.177-23.954-103.459c-15.135-25.081-36.713 24.766-36.713 24.766z" opacity="1" data-original="url(#b)" class=""></path><path fill="#231f20" d="M190.021 492.67h-53c-.238 0-.473-.057-.685-.166-10.281-5.272-8.87-67.627-8.482-80.074.006-.189.048-.375.123-.549.562-1.297 13.908-31.772 27.743-32.704 4.423-.291 8.345 2.312 11.632 7.758 18.847 31.231 23.958 101.167 24.166 104.128.029.416-.115.824-.399 1.128a1.492 1.492 0 0 1-1.098.479zm-52.587-3h50.965c-.892-10.803-6.691-73.138-23.616-101.184-2.659-4.406-5.638-6.528-8.862-6.315-9.88.665-21.332 22.089-25.078 30.641-.844 27.719.216 72.374 6.591 76.858z" opacity="1" data-original="#231f20" class=""></path><path fill="url(#b)" d="M161.706 365.18s-2.036-19.958-19.392-22.514-30.082 8.291-39.168 30.253c-9.085 21.962 29.164 42.042 29.164 42.042 2.383.742 11.135 3.154 20.837-.997 11.786-5.043 15.866-15.875 16.526-17.719 1.224-1.879 2.924-6.958 2.571-13.307-.635-11.407-9.606-17.208-10.538-17.758z" opacity="1" data-original="url(#b)" class=""></path><path fill="#231f20" d="M130.715 416.469a1.485 1.485 0 0 1-.701-.172c-1.611-.846-39.352-20.981-29.853-43.944 9.616-23.246 23.333-33.729 40.772-31.164 16.092 2.37 19.847 18.847 20.533 22.933 2.146.955 7.669 3.949 10.351 10.394 2.582 6.207 1.778 13.739-2.391 22.388a1.499 1.499 0 1 1-2.702-1.302c3.772-7.826 4.559-14.52 2.338-19.897-2.76-6.683-9.382-9.078-9.448-9.101a1.508 1.508 0 0 1-.998-1.263c-.08-.768-2.145-18.832-18.119-21.184-16.121-2.379-28.413 7.223-37.563 29.343-8.457 20.443 28.105 39.946 28.476 40.141a1.5 1.5 0 0 1-.695 2.828zM275.624 153.02s-6.011.888-4.605 6.74c1.405 5.851 39.421 30.945 89.147 45.441 4.601.876 1.52-2.466-6.663-6.058-64.597-28.36-70.106-49.196-77.879-46.123zM204.873 149.509s5.891 1.489 3.903 7.169c-1.987 5.68-20.576 16.557-71.509 25.973-4.666.409-1.309-2.751 7.239-5.357 47.255-14.401 52.944-31.624 60.367-27.785z" opacity="1" data-original="#231f20" class=""></path><path fill="#ffffff" d="M253.828 263.011s4.688-63.895 59.349-41.292 45.765 81.806 33.507 92.139c-22.05 18.588-96.217 5.43-92.856-50.847z" opacity="1" data-original="#ffffff"></path><g clip-path="url(#p)"><path fill="#231f20" d="M330.134 310.12c-2.237 5.512-5.301 10.021-8.89 13.651-12.069 12.037-30.338 13.143-46.196.907-13.307-10.238-21.649-27.337-23.159-44.622-.873-9.399.297-18.879 3.738-27.306 9.835-23.887 34.448-30.414 55.033-14.557 20.584 15.856 29.31 48.041 19.474 71.927z" opacity="1" data-original="#231f20" class=""></path><path fill="#231f20" d="M324.903 306.111c-1.666 4.109-3.858 7.708-6.49 10.669-5.609 6.476-13.126 10.173-21.406 10.218-6.862.067-13.753-2.388-19.936-7.175-12.104-9.3-19.329-25.467-19.857-41.563-.294-7.444.865-14.81 3.646-21.492 5.347-13.002 15.753-20.827 27.859-20.943 6.862-.067 13.751 2.428 19.973 7.232 17.644 13.568 24.928 41.85 16.211 63.054z" opacity="1" data-original="#231f20" class=""></path><path fill="#46beff" d="M318.413 316.78c-5.609 6.476-13.126 10.173-21.406 10.218-6.862.067-13.753-2.388-19.936-7.175-12.104-9.3-19.329-25.467-19.857-41.563 8.216-1.922 18.232-.453 28.685 4.861 14.258 7.247 26.069 20.002 32.514 33.659z" opacity="1" data-original="#46beff"></path><ellipse cx="292.87" cy="281.43" fill="#231f20" rx="15.082" ry="19.733" transform="rotate(-15.63 293.24 281.951)" opacity="1" data-original="#231f20" class=""></ellipse><g fill="#fff"><ellipse cx="282.831" cy="250.15" rx="19.371" ry="15.646" transform="rotate(-17.33 282.666 250.017)" fill="#ffffff" opacity="1" data-original="#ffffff"></ellipse><ellipse cx="302.601" cy="309.093" rx="19.371" ry="15.646" transform="rotate(-17.33 302.427 308.928)" fill="#ffffff" opacity="1" data-original="#ffffff"></ellipse><circle cx="314.154" cy="268.842" r="13.538" fill="#ffffff" opacity="1" data-original="#ffffff"></circle><circle cx="320.952" cy="283.517" r="8.817" fill="#ffffff" opacity="1" data-original="#ffffff"></circle></g></g><path fill="#231f20" d="M356.472 260.417a95.956 95.956 0 0 0-.85-6.112c4.3 1.306 13.103 3.265 17.644-.829-6.941.329-15.807-6.803-20.64-11.259-5.2-15.795-15.917-31.364-36.848-39.598-7.317-2.879-13.836-4.197-19.691-4.529-5.679-3.483-13.521-8.904-16.67-13.969.388 7.332 2.696 11.959 4.89 14.75-19.385 3.973-27.823 19.838-27.823 19.838l11.608.015-1.758 10.417s28.661-18.058 54.255-3.93 33.188 40.5 35.725 58.223c.479-3.673.819-8.514.717-14.015 2.689 2.571 10.048 8.396 17.32 3.326-8.516.681-14.483-6.529-17.879-12.328z" opacity="1" data-original="#231f20" class=""></path><circle cx="283.75" cy="287.679" r="8.817" fill="#ffffff" opacity="1" data-original="#ffffff"></circle><path fill="#61daff" d="M331.609 324.256c-.309-.24-13.524 1.219-11.522-8.05s17.287-3.321 21.111-8.289 7.142-13.946 13.191-10.324c6.05 3.623 2.451 12.593 1.537 14.643s-2.445 10.308 4.271 12.028 11.396 7.687 11.106 12.675c0 0-1.267 15.518-21.331 29.906-1.634-13.392-11.003-13.647-16.561-18.409s5.573-18.446-1.802-24.18z" opacity="1" data-original="#61daff"></path><path fill="#ffffff" d="M205.751 255.93s1.858-58.372-40.428-42.414-40.642 70.423-32.442 80.82c14.749 18.704 70.666 12.942 72.87-38.406z" opacity="1" data-original="#ffffff"></path><g clip-path="url(#q)"><path fill="#231f20" d="M145.376 293.281c1.194 5.188 3.083 9.535 5.434 13.128 7.918 11.928 21.33 14.454 34.07 4.671 10.688-8.182 18.279-23.004 20.835-38.563 1.428-8.456 1.354-17.157-.488-25.09-5.28-22.495-22.929-30.469-39.465-17.795-16.535 12.675-25.666 41.154-20.386 63.649z" opacity="1" data-original="#231f20" class=""></path><path fill="#231f20" d="M149.577 290.078c.889 3.868 2.209 7.316 3.908 10.223 3.606 6.344 8.855 10.325 14.971 11.055 5.066.632 10.365-1.021 15.334-4.85 9.721-7.431 16.409-21.499 18.139-36.063.838-6.731.594-13.512-.905-19.807-2.869-12.244-9.909-20.212-18.847-21.326-5.066-.632-10.367 1.058-15.365 4.899-14.172 10.844-21.912 35.901-17.235 55.869z" opacity="1" data-original="#231f20" class=""></path><path fill="#46beff" d="M153.485 300.301c3.606 6.344 8.855 10.325 14.971 11.055 5.066.632 10.365-1.021 15.334-4.85 9.721-7.431 16.409-21.499 18.139-36.063-5.913-2.428-13.439-1.93-21.608 2.022-11.141 5.389-20.934 15.979-26.836 27.836z" opacity="1" data-original="#46beff"></path><ellipse cx="175.31" cy="270.35" fill="#231f20" rx="17.778" ry="11.345" transform="rotate(-76.77 175.275 270.22)" opacity="1" data-original="#231f20" class=""></ellipse><g fill="#fff"><ellipse cx="185.337" cy="242.801" rx="13.326" ry="15.413" transform="rotate(-33.6 185.094 242.725)" fill="#ffffff" opacity="1" data-original="#ffffff"></ellipse><ellipse cx="165.813" cy="294.642" rx="13.326" ry="15.413" transform="rotate(-33.6 165.559 294.521)" fill="#ffffff" opacity="1" data-original="#ffffff"></ellipse><ellipse cx="160.627" cy="257.154" rx="12.342" ry="10.063" transform="rotate(-87.14 160.5 257.067)" fill="#ffffff" opacity="1" data-original="#ffffff"></ellipse><ellipse cx="154.38" cy="269.904" rx="8.038" ry="6.554" transform="rotate(-87.14 154.252 269.81)" fill="#ffffff" opacity="1" data-original="#ffffff"></ellipse></g></g><path fill="#231f20" d="M130.098 245.024c.325-1.795.699-3.624 1.137-5.476-3.287.827-9.957 1.871-12.973-2.223 5.103.877 12.25-4.856 16.194-8.498 5.159-13.9 14.378-27.135 30.535-32.863 5.648-2.003 10.577-2.656 14.932-2.47 4.488-2.688 10.736-6.953 13.485-11.287-.897 6.621-2.989 10.628-4.843 12.978 13.998 5.22 18.913 20.32 18.913 20.32l-8.581-.954.431 9.6s-19.681-18.774-39.775-8.086c-20.095 10.688-27.905 33.987-31.256 49.858-.048-3.373.104-7.794.637-12.778-2.202 2.109-8.126 6.782-13.079 1.576 6.238 1.329 11.25-4.717 14.243-9.697z" opacity="1" data-original="#231f20" class=""></path><ellipse cx="181.579" cy="275.822" fill="#ffffff" rx="8.038" ry="6.554" transform="rotate(-87.14 181.438 275.73)" opacity="1" data-original="#ffffff"></ellipse><path fill="#61daff" d="M157.762 306.963c-6.808 6.398 5.559 18.978.466 24.241-3.266 3.379-8.261 5.053-11.522 9.388-7.818-9.376-13.807-19.79-17.544-30.9l.135-.047c6.525-2.344 4.234-10.427 3.13-12.378-1.103-1.951-5.523-10.551.155-14.726 5.689-4.166 9.829 4.457 14.104 9.045 4.274 4.588 18.935-2.763 21.796 6.278 2.862 9.041-10.432 8.822-10.72 9.099z" opacity="1" data-original="#61daff"></path><path fill="#231f20" d="M200.519 322.727c1.362-4.239 6.312-6.915 10.087-8.916 8.727-3.986 18.735-.789 26.631 3.754 3.112 2.051 8.417 5.61 8.709 9.424a3.702 3.702 0 0 0 2.187 4.757c4.34 1.265 6.608-3.641 3.52-6.692-8.485-13.322-27.738-21.346-42.749-15.099-5.46 2.156-8.764 6.533-13.147 10.189-4.695 4.098 3.883 8.759 4.762 2.583z" opacity="1" data-original="#231f20" class=""></path></g></svg>