<svg xmlns="http://www.w3.org/2000/svg" version="1.1" xmlns:xlink="http://www.w3.org/1999/xlink" width="512" height="512" x="0" y="0" viewBox="0 0 512 512" style="enable-background:new 0 0 512 512" xml:space="preserve" class=""><g><linearGradient id="b" x1="278.139" x2="278.649" y1="345.49" y2="406.511" gradientUnits="userSpaceOnUse"><stop offset="0" stop-color="#f7bfa4"></stop><stop offset=".316" stop-color="#f7c2a7"></stop><stop offset=".561" stop-color="#f8cab1"></stop><stop offset=".782" stop-color="#fad7c1"></stop><stop offset=".988" stop-color="#fdebd8"></stop><stop offset="1" stop-color="#fdecda"></stop></linearGradient><linearGradient id="a"><stop offset="0" stop-color="#f7bfa4"></stop><stop offset=".289" stop-color="#f8c8af"></stop><stop offset=".796" stop-color="#fbe1cc"></stop><stop offset="1" stop-color="#fdecda"></stop></linearGradient><radialGradient xlink:href="#a" id="c" cx="269.6" cy="133.457" r="195.663" gradientTransform="matrix(1 0 0 .809 0 25.462)" gradientUnits="userSpaceOnUse"></radialGradient><radialGradient id="d" cx="-2136.012" cy="-209.514" r="62.293" gradientTransform="matrix(-.626 -.399 -.301 .472 -1241.359 -449.251)" gradientUnits="userSpaceOnUse"><stop offset="0" stop-color="#f7bfa4"></stop><stop offset=".786" stop-color="#fdecda"></stop></radialGradient><radialGradient xlink:href="#a" id="e" cx="412.194" cy="235.002" r="46.176" gradientUnits="userSpaceOnUse"></radialGradient><radialGradient xlink:href="#a" id="f" cx="396.292" cy="280.448" r="38.131" gradientUnits="userSpaceOnUse"></radialGradient><radialGradient id="g" cx="310.601" cy="492.116" r="62.293" gradientTransform="matrix(.979 -.205 .115 .548 -25.357 108.063)" gradientUnits="userSpaceOnUse"><stop offset="0" stop-color="#f7bfa4"></stop><stop offset="1" stop-color="#fdecda"></stop></radialGradient><radialGradient xlink:href="#a" id="h" cx="137.338" cy="384.945" r="52.639" gradientTransform="translate(-1.578 -1.459)" gradientUnits="userSpaceOnUse"></radialGradient><radialGradient xlink:href="#a" id="i" cx="116.817" cy="409.022" r="58.904" gradientTransform="translate(-1.578 -1.459)" gradientUnits="userSpaceOnUse"></radialGradient><clipPath id="j"><path d="M257.703 263.609s4.324-58.932 54.739-38.084 42.21 75.452 30.904 84.982c-20.337 17.143-88.743 5.007-85.643-46.898z" fill="#000000" opacity="1" data-original="#000000"></path></clipPath><clipPath id="k"><path d="M202.837 256.149s1.713-53.838-37.288-39.12-37.485 64.953-29.922 74.543c13.604 17.251 65.177 11.937 67.21-35.423z" fill="#000000" opacity="1" data-original="#000000"></path></clipPath><path fill="#58595b" d="M408.027 491.17h-253.48c0-60.17 21.66-68.43 59.88-88.7v-.01c4.11-2.17 8.41-4.49 12.89-7.03 25.72-14.56 66.76-16.83 90.21-4.24 2.85 1.52 5.69 3.08 8.54 4.65a762.126 762.126 0 0 1 32.17 18.73c18.64 11.49 27.83 21.2 36.51 36.77 8.5 15.26 11.75 29.11 13.28 39.83z" opacity="1" data-original="#58595b" class=""></path><path fill="#231f20" d="M409.757 492.67h-256.71v-1.5c0-58.096 20.749-69.012 55.125-87.096 1.555-.818 3.14-1.652 4.755-2.507v-.001l.8-.432a482.324 482.324 0 0 0 12.851-7.008c26.729-15.131 67.845-17.041 91.66-4.257a714.756 714.756 0 0 1 8.507 4.632 758.964 758.964 0 0 1 32.281 18.793c18.257 11.254 27.947 21.019 37.033 37.316 6.962 12.5 11.363 25.698 13.455 40.349zm-253.705-3h250.234c-2.13-13.599-6.341-25.916-12.85-37.6-8.804-15.792-18.221-25.272-35.986-36.223-10.327-6.364-20.78-12.453-31.956-18.613-.027-.016-.041-.022-.009-.011l-.142-.069a708.257 708.257 0 0 0-8.522-4.64c-22.623-12.146-63.27-10.212-88.765 4.222a476.247 476.247 0 0 1-12.225 6.679l-.701.38c-1.895 1.005-3.748 1.98-5.561 2.934-34.201 17.993-53.179 27.98-53.517 82.941zm169.454-92.439h.002z" opacity="1" data-original="#231f20"></path><path fill="url(#b)" d="m310.962 353.616-5.489 38.011c-.775 5.367-3.268 10.366-7.204 14.094-5.854 5.545-15.797 11.94-29.701 10.535-23.752-2.399-22.806-26.533-22.806-26.533l4.441-33.959z" opacity="1" data-original="url(#b)"></path><path fill="#231f20" d="m306.958 391.841 5.742-39.761a.023.023 0 0 0-.023-.026l-63.777 2.255c-.011 0-.02.009-.022.02l-4.411 33.734a1.5 1.5 0 0 0 2.975.39l4.082-31.216c.001-.011.011-.019.022-.02l57.649-2.038c.014 0 .025.012.023.026l-5.228 36.207a19.8 19.8 0 0 1-.169.984 1.477 1.477 0 0 0 1.039 1.72l.028.008c.818.227 1.67-.266 1.852-1.095.086-.397.161-.793.218-1.188z" opacity="1" data-original="#231f20"></path><path fill="#6a555c" d="M381.164 108.738s21.916 15.272 44.434 34.095 20.012 42.763 20.012 42.763-5.658-20.223-24.015-32.861c12.308 18.206 21.466 46.783 21.466 46.783s-16.609-11.798-40.899-20.936c14.331 15.701 31.235 24.172 31.235 24.172s-21.689 2.286-39.279-17.825c-17.589-20.109-12.954-76.191-12.954-76.191z" opacity="1" data-original="#6a555c"></path><path fill="#231f20" d="M431.165 204.345c-6.258 0-23.511-1.661-38.175-18.427-17.804-20.354-13.513-74.988-13.321-77.304l.215-2.597 2.138 1.49c.22.153 22.229 15.525 44.538 34.175 22.868 19.116 20.648 43.061 20.543 44.071l-.815 7.789-2.121-7.54c-.048-.17-4.273-14.752-16.701-26.567 9.915 17.62 16.945 39.376 17.025 39.626l1.373 4.287-3.67-2.605c-.149-.106-13.769-9.698-34.021-18.16 12.692 12.14 25.751 18.758 25.898 18.833l4.581 2.295-5.096.537c-.166.017-1.011.097-2.391.097zm-48.678-92.834c-.63 11.284-2.061 55.486 12.761 72.433 11.416 13.052 24.726 16.376 32.177 17.158-6.19-3.76-16.785-11.006-26.37-21.508l-4.212-4.615 5.849 2.2c17.565 6.608 31.275 14.69 37.532 18.667-3.017-8.55-10.582-28.53-19.871-42.271l-4.447-6.579 6.541 4.504c11.097 7.64 17.63 17.862 21.144 25.042-1.36-8.449-5.688-21.469-18.954-32.559-18.13-15.153-36.059-28.134-42.15-32.472z" opacity="1" data-original="#231f20"></path><ellipse cx="387.904" cy="130.582" fill="#6a555c" rx="20.839" ry="17.849" opacity="1" data-original="#6a555c"></ellipse><path fill="#231f20" d="M387.903 149.932c-12.317 0-22.339-8.68-22.339-19.349s10.021-19.35 22.339-19.35 22.339 8.68 22.339 19.35c0 10.668-10.021 19.349-22.339 19.349zm0-35.699c-10.663 0-19.339 7.334-19.339 16.35s8.676 16.349 19.339 16.349 19.339-7.334 19.339-16.349-8.676-16.35-19.339-16.35z" opacity="1" data-original="#231f20"></path><ellipse cx="377.782" cy="119.105" fill="#6a555c" rx="20.839" ry="17.849" opacity="1" data-original="#6a555c"></ellipse><path fill="#231f20" d="M377.781 138.454c-12.317 0-22.339-8.68-22.339-19.35s10.021-19.35 22.339-19.35 22.34 8.68 22.34 19.35-10.021 19.35-22.34 19.35zm0-35.699c-10.663 0-19.339 7.334-19.339 16.35s8.676 16.35 19.339 16.35c10.664 0 19.34-7.334 19.34-16.35s-8.676-16.35-19.34-16.35z" opacity="1" data-original="#231f20"></path><path fill="url(#a)" d="M419.222 263.425c-11.51 60.49-52.63 112.77-142.4 125.79-77.05 11.18-145.26-33.14-151.49-92.25-1.05-9.99-.28-19.85 2.11-29.37 3.67-14.67 2.85-29.89 3.17-45 .41-19.65 4.04-37.34 10.18-53.04.01-.02.02-.03.03-.05 15.12-38.63 45.49-65.24 80.85-79.53 46.2-18.7 100.92-16.35 141.26 7.73 27.21 16.24 47.87 42.36 54.97 78.59 5.62 28.72 6.72 58.82 1.32 87.13z" opacity="1" data-original="url(#a)"></path><path fill="#231f20" d="M252.838 392.457c-33.573 0-65.437-10.216-89.975-29.293-22.521-17.509-36.379-40.963-39.022-66.041-1.049-9.982-.327-20.039 2.146-29.893 2.883-11.524 2.955-23.692 3.024-35.459.018-3.017.036-6.137.101-9.207.399-19.109 3.858-37.128 10.283-53.555l.075-.164c14.217-36.228 43.206-64.727 81.64-80.26 47.59-19.263 102.228-16.261 142.59 7.833 29.69 17.72 48.942 45.242 55.674 79.589 5.979 30.558 6.436 60.886 1.321 87.699-6.267 32.932-20.491 60.35-42.281 81.493-24.764 24.028-58.871 39.336-101.377 45.501a168.583 168.583 0 0 1-24.199 1.757zM142.145 170.214c-6.268 16.067-9.643 33.7-10.034 52.412a614.575 614.575 0 0 0-.101 9.162c-.07 11.944-.143 24.296-3.114 36.171-2.388 9.513-3.085 19.218-2.073 28.849 2.557 24.258 16.01 46.982 37.88 63.986 29.741 23.123 70.536 32.941 111.902 26.937 99.816-14.477 131.848-75.741 141.142-124.586v-.001c5.044-26.441 4.588-56.374-1.317-86.561-6.563-33.488-25.329-60.318-54.268-77.59-39.575-23.623-93.192-26.545-139.928-7.627-37.703 15.236-66.119 43.181-80.016 78.686z" opacity="1" data-original="#231f20"></path><path fill="#ad8f8d" d="m235.592 112.865-50.39 26.57s-32.55 5.83-44.38 30.07c15.12-38.63 45.49-65.24 80.85-79.53z" opacity="1" data-original="#ad8f8d"></path><path fill="#231f20" d="m141.912 170.037-2.219-.974c14.171-36.207 43.124-64.693 81.525-80.212l.955-.386 15.125 24.871-51.696 27.259-.185.033c-.321.059-32.089 6.017-43.505 29.409zm79.261-78.549c-32.999 13.58-58.804 36.923-73.879 66.553 13.861-14.913 35.058-19.3 37.506-19.765l49.087-25.883z" opacity="1" data-original="#231f20"></path><path fill="#ad8f8d" d="m419.222 263.425-33.56 8.59 4.27-33.07-11.45-17.96s5.42-34.03-2.19-53.81c-7.84-20.4-39.28-31.49-39.28-31.49l6.72-33.55 19.2-4.43c27.21 16.24 47.87 42.36 54.97 78.59 5.62 28.72 6.72 58.82 1.32 87.13z" opacity="1" data-original="#ad8f8d"></path><path fill="#231f20" d="m384.23 273.634 4.442-34.408-11.461-17.977.072-.454c.054-.337 5.28-33.939-2.124-53.184-7.546-19.636-38.243-30.673-38.552-30.782l-.992-.351 7.08-35.349 20.438-4.715.419.25c29.619 17.677 48.824 45.132 55.539 79.397 5.973 30.524 6.429 60.812 1.321 87.59l-.145.756zm-4.481-52.915 11.441 17.946-4.097 31.733 31.079-7.956c4.899-26.291 4.396-55.979-1.46-85.914-6.548-33.409-25.212-60.208-53.985-77.531l-17.961 4.144-6.362 31.767c5.539 2.109 31.768 12.964 39.02 31.833 7.249 18.841 2.972 49.677 2.325 53.978z" opacity="1" data-original="#231f20"></path><path fill="url(#d)" d="M130.452 280.488c-11.182 17.519-2.155 43.269 20.163 57.513 22.317 14.244 49.474 11.59 60.656-5.929s2.155-43.269-20.163-57.513c-22.318-14.245-49.474-11.59-60.656 5.929z" opacity="1" data-original="url(#d)"></path><path fill="url(#a)" d="M433.774 250.425c-31.404-19.308-48.511 13.691-48.511 13.691-2.357 2.919-6.77 9.202-8.376 18.376-1.999 11.42 1.56 20.416 3.099 23.79 1.188 2.779 4.004 8.474 10.152 12.514 4.724 3.104 11.422 5.307 20.741 4.337 34.98-3.065 54.299-53.401 22.895-72.708z" opacity="1" data-original="url(#a)"></path><path fill="#231f20" d="M406.56 324.864c-21.772 0-27.934-17.921-27.998-18.114a1.5 1.5 0 0 1 2.85-.938c.248.743 6.362 18.213 29.313 15.828 19.925-1.746 32.771-18.555 36.285-33.434 3.601-15.246-1.641-28.892-14.022-36.503-8.84-5.435-17.321-7.085-25.208-4.903-13.641 3.772-21.112 17.865-21.186 18.007a1.5 1.5 0 0 1-2.662-1.382c.324-.625 8.117-15.374 23.025-19.51 8.73-2.421 18.018-.662 27.603 5.232 13.537 8.323 19.283 23.182 15.37 39.749-4.589 19.433-20.593 34.125-38.918 35.73a43.164 43.164 0 0 1-4.452.238z" opacity="1" data-original="#231f20"></path><path fill="url(#a)" d="M402.42 275.172c-.757 4.121.347 6.224-1.172 9.717-1.02 2.347-3.935 5.602-10.275 7.006-2.013 24.224 22.188 23.957 33.574 15.938 8.598-6.056 11.724-19.64 10.723-30.023-.238-1.639-.83-5.915-3.745-9.085-2.938-3.195-5.838-4.237-8.457-4.936-3.541-.945-10.646-1.87-15.372 1.596-4.02 2.948-5.001 8.288-5.276 9.787z" opacity="1" data-original="url(#a)"></path><path fill="#231f20" d="M390.951 292.768h-.034a1 1 0 0 1 .024-2c.074.013 4.448-.019 7.505-3.343 2.468-2.683 3.469-6.775 2.977-12.162-.39-4.266 1.329-7.955 4.839-10.389 5.276-3.657 13.908-3.994 20.526-.8 5.716 2.758 9.083 7.613 9.479 13.67a1 1 0 0 1-.933 1.063.995.995 0 0 1-1.063-.933c-.348-5.307-3.314-9.568-8.353-12-6.01-2.899-13.797-2.629-18.518.642-2.046 1.418-4.399 4.056-3.987 8.563.547 5.988-.637 10.605-3.519 13.721-3.571 3.866-8.449 3.968-8.943 3.968z" opacity="1" data-original="#231f20"></path><path fill="url(#g)" d="M398.374 300.445c4.269 20.34-20.569 42.768-55.476 50.094s-66.665-3.225-70.934-23.565 20.569-42.768 55.476-50.094c34.907-7.325 66.665 3.225 70.934 23.565z" opacity="1" data-original="url(#g)"></path><path fill="#6a555c" d="m225.868 156.923 14.105-6.636s-3.435 2.884-1.713 6.159 34.197-9.769 34.197-9.769.178 6.151 16.648 1.062c-1.752 3.605 7.95.48 7.95.48s27.461-4.168 46.673-16.307c19.212-12.14 54.249-2.382 54.249-2.382s-46.584-86.129-124.755-84.165c0 0-50.062 1.405-69.101 34.895-13.584 9.433-41.368 34.288-34.311 52.344 5.538 14.171 38.079 20.885 38.079 20.885s4.337 3.665 12.202 5.328c-3.426-3.799-4.979-7.277-4.979-7.277s5.93 4.39 10.756 5.383z" opacity="1" data-original="#6a555c"></path><path fill="#231f20" d="m223.488 160.774-3.649-.771c-7.104-1.501-11.422-4.566-12.483-5.387-3.471-.746-33.182-7.514-38.676-21.571-7.174-18.356 19.314-43.001 34.523-53.624 19.258-33.462 69.479-35.254 69.984-35.268 40.806-1.019 72.871 22.109 92.58 41.698 21.298 21.167 33.158 42.885 33.275 43.102l1.357 2.509-2.749-.765c-.346-.096-34.743-9.471-53.276 2.239-18.623 11.768-45.194 16.171-47.039 16.465-3.426 1.096-7.762 2.04-9.177.408a1.96 1.96 0 0 1-.288-.44c-7.224 2.048-12.22 2.129-14.862.239a4.47 4.47 0 0 1-1.261-1.346c-2.548 1.003-8.917 3.473-15.351 5.675-16.287 5.572-18.421 4.574-19.21 3.073-.711-1.353-.739-2.687-.425-3.872l-10.743 5.055-.396-.082c-2.277-.469-4.745-1.623-6.786-2.762a32.72 32.72 0 0 0 2.153 2.656zm52.318-114.229c-.848 0-1.698.01-2.554.032-.49.014-49.602 1.784-68.078 34.282l-.136.24-.227.157c-11.763 8.168-40.778 33.237-33.873 50.906 5.235 13.395 36.875 20.073 37.194 20.139l.302.062.236.199c.033.028 2.918 2.409 8.136 4.119-1.869-2.582-2.753-4.538-2.802-4.648l-1.878-4.209 3.707 2.741c.056.041 5.458 4.009 9.895 5.084l22.163-10.427-7.138 5.994c-.104.088-2.542 2.206-1.5 4.501 2.537.84 18.83-4.573 32.752-10.165l1.614-.648.05 1.738c.003 0 .085.561.849 1.062 1.266.831 4.801 1.791 14.229-1.123l2.67-.825-1.209 2.488c1.036.156 3.885-.345 6.477-1.179l.189-.044c.271-.042 27.438-4.274 46.207-16.133 16.465-10.406 43.611-5.286 52.418-3.229-3.705-6.227-14.59-23.352-31.486-40.133-18.951-18.823-49.491-40.981-88.207-40.981z" opacity="1" data-original="#231f20"></path><g fill="#231f20"><path d="M224.548 156.042c15.261-24.503 39.278-41.361 64.97-49.338 17.553-5.316 36.102-6.523 54.21-4.571-18.112-1.485-36.48.166-53.855 5.9-14.589 4.889-28.411 12.687-40.341 23.164-8.536 7.561-16.467 16.389-22.344 26.607l-2.64-1.762z" fill="#231f20" opacity="1" data-original="#231f20"></path><path d="M261.903 110.528c82.845-58.001 135.557 17.157 136.717 17.95l-1.288 2.105c-4.852-6.543-23.053-29.426-56.046-36.979-42.032-9.622-74.478 13.33-79.383 16.924zM211.471 85.236c-4.7 16.675-5.52 35.569.739 51.969 2.077 5.446 5.099 10.423 8.708 14.781l-.167.174c-4.234-3.751-7.766-8.65-10.199-14.164-4.982-10.984-5.934-23.792-4.159-35.739.898-5.941 2.391-11.775 4.861-17.11zM198.009 135.687c1.954 6.589 6.019 12.25 10.862 16.546l-2.084 2.482c-4.358-5.333-7.753-11.895-8.778-19.028zM196.761 124.042c-1.695-13.644-.833-28.015 3.918-40.793l1.008-2.569 2.049 1.185-1.088 2.387c-5.313 12.233-6.846 26.281-5.887 39.79zM222.587 145.454c-3.308-23.605 2.323-48.885 16.436-67.04 7.037-9.086 15.927-16.408 25.606-21.713 9.672-5.41 20.211-8.482 30.796-10.943l.459 2.08c-11.756 2.38-23.199 7.039-33.797 13.083-8.159 4.805-15.729 10.984-21.906 18.62-14.303 17.499-20.382 42.518-17.594 65.913z" fill="#231f20" opacity="1" data-original="#231f20"></path><path d="M270.848 146.028c14.841-8.467 30.717-14.094 46.632-19.419 15.901-5.217 31.983-9.75 48.173-13.742-24.086 6.68-48.056 14.222-71.226 24.078-7.679 3.343-15.307 6.901-22.458 11.323z" fill="#231f20" opacity="1" data-original="#231f20"></path></g><path fill="#6a555c" d="M226.404 153.17s6.267-8.063 16.497-7.968 45.477 18.444 46.538 83.673c0 0 25.74-69.329-36.308-101.347-16.661-6.522-28.21 7.227-26.727 25.642z" opacity="1" data-original="#6a555c"></path><path fill="#231f20" d="m288.333 235.34-.104-6.447c-1.007-61.867-34.06-82.375-45.338-82.48-9.473-.082-15.471 7.426-15.53 7.502l-1.914 2.446-.25-3.095c-.871-10.81 2.563-20.201 9.185-25.122 5.263-3.912 12.08-4.533 19.194-1.748l.114.051c32.557 16.8 40.851 43.904 42.076 63.683 1.321 21.344-5.122 38.988-5.188 39.164zm-45.613-91.352.193.001c5.395.05 17.208 4.849 27.643 17.865 8.207 10.237 17.979 28.681 19.815 59.511 1.722-6.965 3.771-18.386 2.969-31.165-1.747-27.796-15.441-48.51-40.707-61.567-6.375-2.479-12.187-1.975-16.806 1.458-5.382 3.999-8.408 11.415-8.339 20.178 2.707-2.502 7.994-6.281 15.232-6.281z" opacity="1" data-original="#231f20"></path><path fill="#6a555c" d="M224.96 154.637s-6.267-8.063-16.497-7.968c-10.231.095-18.367 15.455-14.586 41.499 0 0-21.676-32.511 3.345-52.026 16.662-6.521 29.221.081 27.738 18.495z" opacity="1" data-original="#6a555c"></path><path fill="#231f20" d="m195.849 193.312-2.981-4.471c-.223-.334-22.003-33.679 3.608-53.654l.139-.108.165-.064c9.228-3.611 17.312-3.369 22.761.681 5.038 3.744 7.33 10.328 6.628 19.041l-.25 3.096-1.915-2.448c-.059-.076-5.979-7.502-15.365-7.502l-.165.001c-2.863.026-5.57 1.433-7.829 4.068-5.784 6.748-7.866 20.222-5.569 36.044zm1.979-56.105c-17.793 14.017-10.585 35.248-5.844 45.023-1.121-13.984 1.281-25.398 6.819-31.859 2.728-3.182 6.064-4.881 9.647-4.915l.193-.001c7.231 0 12.513 3.77 15.223 6.273-.004-6.429-1.976-11.267-5.773-14.089-4.721-3.509-11.914-3.661-20.265-.432z" opacity="1" data-original="#231f20"></path><path fill="url(#a)" d="M144.502 349.509s-1.307-12.062 14.251-8.846c15.559 3.217 28.088 28.702 22.869 33.63s-15.778 5.909-21.558 1.694c-5.781-4.213-15.23-12.775-15.562-26.478z" opacity="1" data-original="url(#a)"></path><path fill="#231f20" d="M169.333 380.127c-3.77 0-7.445-.953-10.153-2.927-10.311-7.517-15.904-17.061-16.176-27.603-.057-.665-.321-5.302 3.068-8.38 2.801-2.544 7.17-3.226 12.985-2.022 12.305 2.544 21.876 17.256 24.47 26.398 1.312 4.626 1.01 8.012-.875 9.791-3.295 3.112-8.387 4.743-13.319 4.743zm-15.424-38.514c-2.521 0-4.463.604-5.801 1.809-2.454 2.209-2.117 5.895-2.114 5.932l.008.119c.235 9.731 5.264 18.245 14.946 25.303 5.119 3.731 14.851 2.953 19.645-1.573.753-.711 1.161-2.868.048-6.791-2.488-8.77-11.584-22.086-22.191-24.28-1.677-.346-3.192-.519-4.541-.519z" opacity="1" data-original="#231f20"></path><path fill="#58595b" d="M129.354 412.477s-2.29 73.586 7.667 78.693h53s-5.077-72.177-23.954-103.459c-15.135-25.081-36.713 24.766-36.713 24.766z" opacity="1" data-original="#58595b" class=""></path><path fill="#231f20" d="M190.021 492.67h-53c-.238 0-.473-.057-.685-.166-10.281-5.272-8.87-67.627-8.482-80.074.006-.189.048-.375.123-.549.562-1.297 13.908-31.772 27.743-32.704 4.423-.291 8.345 2.312 11.632 7.758 18.847 31.231 23.958 101.167 24.166 104.128.029.416-.115.824-.399 1.128a1.492 1.492 0 0 1-1.098.479zm-52.587-3h50.965c-.892-10.803-6.691-73.138-23.616-101.184-2.659-4.406-5.638-6.528-8.862-6.315-9.88.665-21.332 22.089-25.078 30.641-.844 27.719.216 72.374 6.591 76.858z" opacity="1" data-original="#231f20"></path><path fill="url(#a)" d="M161.706 365.18s-2.036-19.958-19.392-22.514-30.082 8.291-39.168 30.253c-9.085 21.962 29.164 42.042 29.164 42.042 2.383.742 11.135 3.154 20.837-.997 11.786-5.043 15.866-15.875 16.526-17.719 1.224-1.879 2.924-6.958 2.571-13.307-.635-11.407-9.606-17.208-10.538-17.758z" opacity="1" data-original="url(#a)"></path><path fill="#231f20" d="M130.715 416.469a1.485 1.485 0 0 1-.701-.172c-1.611-.846-39.352-20.981-29.853-43.944 9.616-23.246 23.333-33.729 40.772-31.164 16.092 2.37 19.847 18.847 20.533 22.933 2.146.955 7.669 3.949 10.351 10.394 2.582 6.207 1.778 13.739-2.391 22.388a1.499 1.499 0 1 1-2.702-1.302c3.772-7.826 4.559-14.52 2.338-19.897-2.76-6.683-9.382-9.078-9.448-9.101a1.508 1.508 0 0 1-.998-1.263c-.08-.768-2.145-18.832-18.119-21.184-16.121-2.379-28.413 7.223-37.563 29.343-8.457 20.443 28.105 39.946 28.476 40.141a1.5 1.5 0 0 1-.695 2.828z" opacity="1" data-original="#231f20"></path><path fill="#ffffff" d="M253.828 263.011s4.688-63.895 59.349-41.292 45.765 81.806 33.507 92.139c-22.05 18.588-96.217 5.43-92.856-50.847z" opacity="1" data-original="#ffffff"></path><g clip-path="url(#j)"><path fill="#231f20" d="M330.134 310.12c-2.237 5.512-5.301 10.021-8.89 13.651-12.069 12.037-30.338 13.143-46.196.907-13.307-10.238-21.649-27.337-23.159-44.622-.873-9.399.297-18.879 3.738-27.306 9.835-23.887 34.448-30.414 55.033-14.557 20.584 15.856 29.31 48.041 19.474 71.927z" opacity="1" data-original="#231f20"></path><path fill="#231f20" d="M324.903 306.111c-1.666 4.109-3.858 7.708-6.49 10.669-5.609 6.476-13.126 10.173-21.406 10.218-6.862.067-13.753-2.388-19.936-7.175-12.104-9.3-19.329-25.467-19.857-41.563-.294-7.444.865-14.81 3.646-21.492 5.347-13.002 15.753-20.827 27.859-20.943 6.862-.067 13.751 2.428 19.973 7.232 17.644 13.568 24.928 41.85 16.211 63.054z" opacity="1" data-original="#231f20"></path><path fill="#a2eeff" d="M318.413 316.78c-5.609 6.476-13.126 10.173-21.406 10.218-6.862.067-13.753-2.388-19.936-7.175-12.104-9.3-19.329-25.467-19.857-41.563 8.216-1.922 18.232-.453 28.685 4.861 14.258 7.247 26.069 20.002 32.514 33.659z" opacity="1" data-original="#a2eeff"></path><ellipse cx="292.87" cy="281.43" fill="#231f20" rx="15.082" ry="19.733" transform="rotate(-15.63 293.24 281.951)" opacity="1" data-original="#231f20"></ellipse><g fill="#fff"><ellipse cx="282.831" cy="250.15" rx="19.371" ry="15.646" transform="rotate(-17.33 282.666 250.017)" fill="#ffffff" opacity="1" data-original="#ffffff"></ellipse><ellipse cx="302.601" cy="309.093" rx="19.371" ry="15.646" transform="rotate(-17.33 302.427 308.928)" fill="#ffffff" opacity="1" data-original="#ffffff"></ellipse><circle cx="314.154" cy="268.842" r="13.538" fill="#ffffff" opacity="1" data-original="#ffffff"></circle><circle cx="320.952" cy="283.517" r="8.817" fill="#ffffff" opacity="1" data-original="#ffffff"></circle></g></g><path fill="#231f20" d="M356.472 260.417a95.956 95.956 0 0 0-.85-6.112c4.3 1.306 13.103 3.265 17.644-.829-6.941.329-15.807-6.803-20.64-11.259-5.2-15.795-15.917-31.364-36.848-39.598-7.317-2.879-13.836-4.197-19.691-4.529-5.679-3.483-13.521-8.904-16.67-13.969.388 7.332 2.696 11.959 4.89 14.75-19.385 3.973-27.823 19.838-27.823 19.838l11.608.015-1.758 10.417s28.661-18.058 54.255-3.93 33.188 40.5 35.725 58.223c.479-3.673.819-8.514.717-14.015 2.689 2.571 10.048 8.396 17.32 3.326-8.516.681-14.483-6.529-17.879-12.328z" opacity="1" data-original="#231f20"></path><circle cx="283.75" cy="287.679" r="8.817" fill="#ffffff" opacity="1" data-original="#ffffff"></circle><path fill="#61daff" d="M331.609 324.256c-.309-.24-13.524 1.219-11.522-8.05s17.287-3.321 21.111-8.289 7.142-13.946 13.191-10.324c6.05 3.623 2.451 12.593 1.537 14.643s-2.445 10.308 4.271 12.028 11.396 7.687 11.106 12.675c0 0-1.267 15.518-21.331 29.906-1.634-13.392-11.003-13.647-16.561-18.409s5.573-18.446-1.802-24.18z" opacity="1" data-original="#61daff"></path><path fill="#ffffff" d="M205.751 255.93s1.858-58.372-40.428-42.414-40.642 70.423-32.442 80.82c14.749 18.704 70.666 12.942 72.87-38.406z" opacity="1" data-original="#ffffff"></path><g clip-path="url(#k)"><path fill="#231f20" d="M145.376 293.281c1.194 5.188 3.083 9.535 5.434 13.128 7.918 11.928 21.33 14.454 34.07 4.671 10.688-8.182 18.279-23.004 20.835-38.563 1.428-8.456 1.354-17.157-.488-25.09-5.28-22.495-22.929-30.469-39.465-17.795-16.535 12.675-25.666 41.154-20.386 63.649z" opacity="1" data-original="#231f20"></path><path fill="#231f20" d="M149.577 290.078c.889 3.868 2.209 7.316 3.908 10.223 3.606 6.344 8.855 10.325 14.971 11.055 5.066.632 10.365-1.021 15.334-4.85 9.721-7.431 16.409-21.499 18.139-36.063.838-6.731.594-13.512-.905-19.807-2.869-12.244-9.909-20.212-18.847-21.326-5.066-.632-10.367 1.058-15.365 4.899-14.172 10.844-21.912 35.901-17.235 55.869z" opacity="1" data-original="#231f20"></path><path fill="#a2eeff" d="M153.485 300.301c3.606 6.344 8.855 10.325 14.971 11.055 5.066.632 10.365-1.021 15.334-4.85 9.721-7.431 16.409-21.499 18.139-36.063-5.913-2.428-13.439-1.93-21.608 2.022-11.141 5.389-20.934 15.979-26.836 27.836z" opacity="1" data-original="#a2eeff"></path><ellipse cx="175.31" cy="270.35" fill="#231f20" rx="17.778" ry="11.345" transform="rotate(-76.77 175.275 270.22)" opacity="1" data-original="#231f20"></ellipse><g fill="#fff"><ellipse cx="185.337" cy="242.801" rx="13.326" ry="15.413" transform="rotate(-33.6 185.094 242.725)" fill="#ffffff" opacity="1" data-original="#ffffff"></ellipse><ellipse cx="165.813" cy="294.642" rx="13.326" ry="15.413" transform="rotate(-33.6 165.559 294.521)" fill="#ffffff" opacity="1" data-original="#ffffff"></ellipse><ellipse cx="160.627" cy="257.154" rx="12.342" ry="10.063" transform="rotate(-87.14 160.5 257.067)" fill="#ffffff" opacity="1" data-original="#ffffff"></ellipse><ellipse cx="154.38" cy="269.904" rx="8.038" ry="6.554" transform="rotate(-87.14 154.252 269.81)" fill="#ffffff" opacity="1" data-original="#ffffff"></ellipse></g></g><path fill="#231f20" d="M130.098 245.024c.325-1.795.699-3.624 1.137-5.476-3.287.827-9.957 1.871-12.973-2.223 5.103.877 12.25-4.856 16.194-8.498 5.159-13.9 14.378-27.135 30.535-32.863 5.648-2.003 10.577-2.656 14.932-2.47 4.488-2.688 10.736-6.953 13.485-11.287-.897 6.621-2.989 10.628-4.843 12.978 13.998 5.22 18.913 20.32 18.913 20.32l-8.581-.954.431 9.6s-19.681-18.774-39.775-8.086c-20.095 10.688-27.905 33.987-31.256 49.858-.048-3.373.104-7.794.637-12.778-2.202 2.109-8.126 6.782-13.079 1.576 6.238 1.329 11.25-4.717 14.243-9.697z" opacity="1" data-original="#231f20"></path><ellipse cx="181.579" cy="275.822" fill="#ffffff" rx="8.038" ry="6.554" transform="rotate(-87.14 181.438 275.73)" opacity="1" data-original="#ffffff"></ellipse><path fill="#61daff" d="M157.762 306.963c-6.808 6.398 5.559 18.978.466 24.241-3.266 3.379-8.261 5.053-11.522 9.388-7.818-9.376-13.807-19.79-17.544-30.9l.135-.047c6.525-2.344 4.234-10.427 3.13-12.378-1.103-1.951-5.523-10.551.155-14.726 5.689-4.166 9.829 4.457 14.104 9.045 4.274 4.588 18.935-2.763 21.796 6.278 2.862 9.041-10.432 8.822-10.72 9.099z" opacity="1" data-original="#61daff"></path><g fill="#231f20"><path d="M200.519 322.727c1.362-4.239 6.312-6.915 10.087-8.916 8.727-3.986 18.735-.789 26.631 3.754 3.112 2.051 8.417 5.61 8.709 9.424a3.702 3.702 0 0 0 2.187 4.757c4.34 1.265 6.608-3.641 3.52-6.692-8.485-13.322-27.738-21.346-42.749-15.099-5.46 2.156-8.764 6.533-13.147 10.189-4.695 4.098 3.883 8.759 4.762 2.583zM332.275 492.67a1.501 1.501 0 0 1-1.487-1.718c.207-1.407 5.292-34.606 24.671-47.394 7.414-4.892 15.95-6.112 25.366-3.625a1.499 1.499 0 0 1 1.067 1.833 1.497 1.497 0 0 1-1.833 1.067c-8.553-2.258-16.272-1.173-22.943 3.226-18.257 12.042-23.311 44.999-23.359 45.33a1.5 1.5 0 0 1-1.482 1.281zM275.624 153.02s-6.011.888-4.605 6.74c1.405 5.851 39.421 30.945 89.147 45.441 4.601.876 1.52-2.466-6.663-6.058-64.597-28.36-70.106-49.196-77.879-46.123zM204.873 149.509s5.891 1.489 3.903 7.169c-1.987 5.68-20.576 16.557-71.509 25.973-4.666.409-1.309-2.751 7.239-5.357 47.255-14.401 52.944-31.624 60.367-27.785z" fill="#231f20" opacity="1" data-original="#231f20"></path></g><path fill="#ffffff" d="M309.514 385.948a3.932 3.932 0 0 0-4.472-.395c-5.843 3.328-21.003 11.775-24.462 11.833-4.308.072-12.455 24.405-12.455 24.405s10.092-2.555 14.951-3.41c2.087 1.15 3.303 16.308 3.303 16.308s30.238-30.559 31.941-35.829c1.251-3.875-5.266-9.96-8.806-12.912z" opacity="1" data-original="#ffffff"></path><path fill="#231f20" d="M286.378 436.188a1.498 1.498 0 0 1-1.495-1.38c-.476-5.917-1.515-12.815-2.418-14.79-4.997.958-13.878 3.203-13.973 3.227a1.498 1.498 0 0 1-1.791-1.93c3.169-9.463 9.182-25.351 13.853-25.429 2.076-.034 11.396-4.602 23.746-11.636a5.464 5.464 0 0 1 6.175.546c5.019 4.185 10.702 10.102 9.272 14.525-1.763 5.452-29.183 33.269-32.303 36.423a1.503 1.503 0 0 1-1.066.444zm-3.303-19.307c.252 0 .501.063.725.187 1.654.912 2.925 5.705 3.782 14.26 11.625-11.856 28.223-29.564 29.31-32.93.673-2.08-2.602-6.515-8.339-11.298a2.42 2.42 0 0 0-2.769-.244c-9.578 5.456-21.722 11.972-25.18 12.03-1.762.47-6.27 9.73-10.165 20.784 3.35-.822 9.031-2.178 12.376-2.767.086-.015.173-.022.26-.022z" opacity="1" data-original="#231f20"></path><path fill="#231f20" d="M286.377 435.688a1 1 0 0 1-.996-.926c-.977-13.083-3.508-27.64-5.894-28.346a1.001 1.001 0 0 1 .568-1.918c4.812 1.425 6.819 23.411 7.319 30.115a1 1 0 0 1-.923 1.071c-.024.004-.05.004-.074.004z" opacity="1" data-original="#231f20"></path><path fill="#ffffff" d="M267.195 420.073s-1.615-23.385-3.923-24.077-11.493-3.805-15.67-6.633c-4.176-2.828-4.598 7.437-4.436 15.402.231 11.385 4.625 23.596 5.644 25.538 3.096-11 5.471-15.983 5.471-15.983s7.18 5.609 12.914 5.753z" opacity="1" data-original="#ffffff"></path><path fill="#231f20" d="M248.81 431.804a1.502 1.502 0 0 1-1.328-.803c-1.119-2.131-5.58-14.577-5.816-26.206-.271-13.333 1.484-16.105 3.236-17.057.616-.335 1.896-.731 3.541.382 4.054 2.746 13.21 5.824 15.259 6.439.988.296 3.302.99 4.989 25.41.029.421-.12.835-.412 1.141s-.712.482-1.122.462c-4.53-.114-9.696-3.214-12.233-4.941-.919 2.265-2.643 6.878-4.669 14.079a1.5 1.5 0 0 1-1.445 1.094zm-2.514-41.421c-.04.031-1.899 1.128-1.631 14.352.159 7.814 2.349 16.076 3.953 20.897 2.461-8.041 4.224-11.778 4.309-11.957a1.501 1.501 0 0 1 2.277-.537c.061.047 5.515 4.263 10.363 5.238-.705-9.195-1.986-19.202-3.038-21.038-2.717-.843-11.537-3.867-15.769-6.733-.315-.214-.463-.222-.464-.222z" opacity="1" data-original="#231f20"></path><path fill="#231f20" d="M253.811 415.112a1.001 1.001 0 0 1-.933-1.36c.778-2.013 4.826-12.125 8.171-13.489a1.001 1.001 0 0 1 .754 1.853c-1.872.763-5.255 7.686-7.059 12.357a1.002 1.002 0 0 1-.933.639z" opacity="1" data-original="#231f20"></path></g></svg>